G04 #@! TF.GenerationSoftware,KiCad,Pcbnew,7.0.2-0*
G04 #@! TF.CreationDate,2023-08-04T18:00:27+02:00*
G04 #@! TF.ProjectId,MegaCD,4d656761-4344-42e6-9b69-6361645f7063,rev?*
G04 #@! TF.SameCoordinates,Original*
G04 #@! TF.FileFunction,Paste,Top*
G04 #@! TF.FilePolarity,Positive*
%FSLAX46Y46*%
G04 Gerber Fmt 4.6, Leading zero omitted, Abs format (unit mm)*
G04 Created by KiCad (PCBNEW 7.0.2-0) date 2023-08-04 18:00:27*
%MOMM*%
%LPD*%
G01*
G04 APERTURE LIST*
G04 Aperture macros list*
%AMRoundRect*
0 Rectangle with rounded corners*
0 $1 Rounding radius*
0 $2 $3 $4 $5 $6 $7 $8 $9 X,Y pos of 4 corners*
0 Add a 4 corners polygon primitive as box body*
4,1,4,$2,$3,$4,$5,$6,$7,$8,$9,$2,$3,0*
0 Add four circle primitives for the rounded corners*
1,1,$1+$1,$2,$3*
1,1,$1+$1,$4,$5*
1,1,$1+$1,$6,$7*
1,1,$1+$1,$8,$9*
0 Add four rect primitives between the rounded corners*
20,1,$1+$1,$2,$3,$4,$5,0*
20,1,$1+$1,$4,$5,$6,$7,0*
20,1,$1+$1,$6,$7,$8,$9,0*
20,1,$1+$1,$8,$9,$2,$3,0*%
G04 Aperture macros list end*
%ADD10RoundRect,0.250000X0.947000X0.550000X-0.947000X0.550000X-0.947000X-0.550000X0.947000X-0.550000X0*%
%ADD11RoundRect,0.250000X0.550000X-0.947000X0.550000X0.947000X-0.550000X0.947000X-0.550000X-0.947000X0*%
%ADD12R,0.600000X1.500000*%
%ADD13RoundRect,0.150000X0.150000X-0.850000X0.150000X0.850000X-0.150000X0.850000X-0.150000X-0.850000X0*%
%ADD14R,0.700000X2.667000*%
%ADD15RoundRect,0.150000X0.150000X-0.875000X0.150000X0.875000X-0.150000X0.875000X-0.150000X-0.875000X0*%
%ADD16C,0.750000*%
%ADD17R,0.500000X3.160000*%
%ADD18R,3.160000X0.500000*%
%ADD19RoundRect,0.300000X0.300000X-0.450000X0.300000X0.450000X-0.300000X0.450000X-0.300000X-0.450000X0*%
%ADD20R,1.778000X8.000000*%
%ADD21R,2.425000X0.700000*%
%ADD22R,0.700000X2.425000*%
%ADD23RoundRect,0.075000X0.075000X-0.912500X0.075000X0.912500X-0.075000X0.912500X-0.075000X-0.912500X0*%
%ADD24RoundRect,0.075000X0.912500X-0.075000X0.912500X0.075000X-0.912500X0.075000X-0.912500X-0.075000X0*%
G04 APERTURE END LIST*
D10*
X119072000Y-77216000D03*
X115878000Y-77216000D03*
D11*
X154178000Y-79502000D03*
X154178000Y-76308000D03*
D12*
X197231000Y-63373000D03*
X198501000Y-63373000D03*
X199771000Y-63373000D03*
X201041000Y-63373000D03*
X202311000Y-63373000D03*
X203581000Y-63373000D03*
X204851000Y-63373000D03*
X204851000Y-56267000D03*
X203581000Y-56273000D03*
X202311000Y-56273000D03*
X201041000Y-56273000D03*
X199771000Y-56273000D03*
X198501000Y-56273000D03*
X197231000Y-56273000D03*
X84455000Y-70104000D03*
X85725000Y-70104000D03*
X86995000Y-70104000D03*
X88265000Y-70104000D03*
X89535000Y-70104000D03*
X90805000Y-70104000D03*
X92075000Y-70104000D03*
X92075000Y-62998000D03*
X90805000Y-63004000D03*
X89535000Y-63004000D03*
X88265000Y-63004000D03*
X86995000Y-63004000D03*
X85725000Y-63004000D03*
X84455000Y-63004000D03*
D13*
X165608000Y-73025000D03*
X166878000Y-73025000D03*
X168148000Y-73025000D03*
X169418000Y-73025000D03*
X170688000Y-73025000D03*
X171958000Y-73025000D03*
X173228000Y-73025000D03*
X174498000Y-73025000D03*
X175768000Y-73025000D03*
X177038000Y-73025000D03*
X178308000Y-73025000D03*
X179578000Y-73025000D03*
X180848000Y-73025000D03*
X182118000Y-73025000D03*
X182118000Y-61595000D03*
X180848000Y-61595000D03*
X179578000Y-61595000D03*
X178308000Y-61595000D03*
X177038000Y-61595000D03*
X175768000Y-61595000D03*
X174498000Y-61595000D03*
X173228000Y-61595000D03*
X171958000Y-61595000D03*
X170688000Y-61595000D03*
X169418000Y-61595000D03*
X168148000Y-61595000D03*
X166878000Y-61595000D03*
X165608000Y-61595000D03*
D14*
X123698000Y-119761000D03*
X124968000Y-119761000D03*
X126238000Y-119761000D03*
X127508000Y-119761000D03*
X128778000Y-119761000D03*
X130048000Y-119761000D03*
X131318000Y-119761000D03*
X132588000Y-119761000D03*
X133858000Y-119761000D03*
X135128000Y-119761000D03*
X136398000Y-119761000D03*
X137668000Y-119761000D03*
X138938000Y-119761000D03*
X140208000Y-119761000D03*
X141478000Y-119761000D03*
X142748000Y-119761000D03*
X144018000Y-119761000D03*
X145288000Y-119761000D03*
X146558000Y-119761000D03*
X147828000Y-119761000D03*
X147828000Y-109601000D03*
X146558000Y-109601000D03*
X145288000Y-109601000D03*
X144018000Y-109601000D03*
X142748000Y-109601000D03*
X141478000Y-109601000D03*
X140208000Y-109601000D03*
X138938000Y-109601000D03*
X137668000Y-109601000D03*
X136398000Y-109601000D03*
X135128000Y-109601000D03*
X133858000Y-109601000D03*
X132588000Y-109601000D03*
X131318000Y-109601000D03*
X130048000Y-109601000D03*
X128778000Y-109601000D03*
X127508000Y-109601000D03*
X126238000Y-109601000D03*
X124968000Y-109601000D03*
X123698000Y-109601000D03*
D15*
X151561800Y-129921000D03*
X152831800Y-129921000D03*
X154101800Y-129921000D03*
X155371800Y-129921000D03*
X156641800Y-129921000D03*
X157911800Y-129921000D03*
X159181800Y-129921000D03*
X160451800Y-129921000D03*
X161721800Y-129921000D03*
X162991800Y-129921000D03*
X162991800Y-122555000D03*
X161721800Y-122555000D03*
X160451800Y-122555000D03*
X159181800Y-122555000D03*
X157911800Y-122555000D03*
X156641800Y-122555000D03*
X155371800Y-122555000D03*
X154101800Y-122555000D03*
X152831800Y-122555000D03*
X151561800Y-122555000D03*
D16*
X87249000Y-120808000D03*
X112141000Y-120806000D03*
X87249000Y-102520000D03*
X112141000Y-102518000D03*
D17*
X90495000Y-120681000D03*
X91295000Y-120681000D03*
X92095000Y-120681000D03*
X92895000Y-120681000D03*
X93695000Y-120681000D03*
X94495000Y-120681000D03*
X95295000Y-120681000D03*
X96095000Y-120681000D03*
X96895000Y-120681000D03*
X97695000Y-120681000D03*
X98495000Y-120681000D03*
X99295000Y-120681000D03*
X100095000Y-120681000D03*
X100895000Y-120681000D03*
X101695000Y-120681000D03*
X102495000Y-120681000D03*
X103275000Y-120681000D03*
X104095000Y-120681000D03*
X104895000Y-120681000D03*
X105695000Y-120681000D03*
X106495000Y-120681000D03*
X107295000Y-120681000D03*
X108095000Y-120681000D03*
X108895000Y-120681000D03*
D18*
X111760000Y-117664000D03*
X111760000Y-116864000D03*
X111760000Y-116064000D03*
X111760000Y-115264000D03*
X111760000Y-114464000D03*
X111760000Y-113664000D03*
X111760000Y-112864000D03*
X111760000Y-112064000D03*
X111760000Y-111264000D03*
X111760000Y-110464000D03*
X111760000Y-109664000D03*
X111760000Y-108864000D03*
X111760000Y-108064000D03*
X111760000Y-107264000D03*
X111760000Y-106464000D03*
X111760000Y-105664000D03*
D17*
X108895000Y-102647000D03*
X108095000Y-102647000D03*
X107295000Y-102647000D03*
X106495000Y-102647000D03*
X105695000Y-102647000D03*
X104895000Y-102647000D03*
X104095000Y-102647000D03*
X103295000Y-102647000D03*
X102495000Y-102647000D03*
X101695000Y-102647000D03*
X100895000Y-102647000D03*
X100095000Y-102647000D03*
X99295000Y-102647000D03*
X98495000Y-102647000D03*
X97695000Y-102647000D03*
X96895000Y-102647000D03*
X96095000Y-102647000D03*
X95295000Y-102647000D03*
X94495000Y-102647000D03*
X93695000Y-102647000D03*
X92895000Y-102647000D03*
X92095000Y-102647000D03*
X91295000Y-102647000D03*
X90495000Y-102647000D03*
D18*
X87630000Y-105664000D03*
X87630000Y-106464000D03*
X87630000Y-107264000D03*
X87630000Y-108064000D03*
X87630000Y-108864000D03*
X87630000Y-109664000D03*
X87630000Y-110464000D03*
X87630000Y-111264000D03*
X87630000Y-112064000D03*
X87630000Y-112864000D03*
X87630000Y-113664000D03*
X87630000Y-114464000D03*
X87630000Y-115264000D03*
X87630000Y-116064000D03*
X87630000Y-116864000D03*
X87630000Y-117664000D03*
D10*
X120288000Y-119888000D03*
X117094000Y-119888000D03*
D19*
X201361000Y-129667000D03*
X203261000Y-129667000D03*
X202311000Y-127635000D03*
D13*
X64135000Y-123698000D03*
X65405000Y-123698000D03*
X66675000Y-123698000D03*
X67945000Y-123698000D03*
X69215000Y-123698000D03*
X70485000Y-123698000D03*
X71755000Y-123698000D03*
X73025000Y-123698000D03*
X74295000Y-123698000D03*
X75565000Y-123698000D03*
X76835000Y-123698000D03*
X78105000Y-123698000D03*
X79375000Y-123698000D03*
X80645000Y-123698000D03*
X80645000Y-112268000D03*
X79375000Y-112268000D03*
X78105000Y-112268000D03*
X76835000Y-112268000D03*
X75565000Y-112268000D03*
X74295000Y-112268000D03*
X73025000Y-112268000D03*
X71755000Y-112268000D03*
X70485000Y-112268000D03*
X69215000Y-112268000D03*
X67945000Y-112268000D03*
X66675000Y-112268000D03*
X65405000Y-112268000D03*
X64135000Y-112268000D03*
X64135000Y-74168000D03*
X65405000Y-74168000D03*
X66675000Y-74168000D03*
X67945000Y-74168000D03*
X69215000Y-74168000D03*
X70485000Y-74168000D03*
X71755000Y-74168000D03*
X73025000Y-74168000D03*
X74295000Y-74168000D03*
X75565000Y-74168000D03*
X76835000Y-74168000D03*
X78105000Y-74168000D03*
X79375000Y-74168000D03*
X80645000Y-74168000D03*
X80645000Y-62738000D03*
X79375000Y-62738000D03*
X78105000Y-62738000D03*
X76835000Y-62738000D03*
X75565000Y-62738000D03*
X74295000Y-62738000D03*
X73025000Y-62738000D03*
X71755000Y-62738000D03*
X70485000Y-62738000D03*
X69215000Y-62738000D03*
X67945000Y-62738000D03*
X66675000Y-62738000D03*
X65405000Y-62738000D03*
X64135000Y-62738000D03*
X64135000Y-106426000D03*
X65405000Y-106426000D03*
X66675000Y-106426000D03*
X67945000Y-106426000D03*
X69215000Y-106426000D03*
X70485000Y-106426000D03*
X71755000Y-106426000D03*
X73025000Y-106426000D03*
X74295000Y-106426000D03*
X75565000Y-106426000D03*
X76835000Y-106426000D03*
X78105000Y-106426000D03*
X79375000Y-106426000D03*
X80645000Y-106426000D03*
X80645000Y-94996000D03*
X79375000Y-94996000D03*
X78105000Y-94996000D03*
X76835000Y-94996000D03*
X75565000Y-94996000D03*
X74295000Y-94996000D03*
X73025000Y-94996000D03*
X71755000Y-94996000D03*
X70485000Y-94996000D03*
X69215000Y-94996000D03*
X67945000Y-94996000D03*
X66675000Y-94996000D03*
X65405000Y-94996000D03*
X64135000Y-94996000D03*
D20*
X157480000Y-50800000D03*
X154940000Y-50800000D03*
X152400000Y-50800000D03*
X149860000Y-50800000D03*
X147320000Y-50800000D03*
X144780000Y-50800000D03*
X142240000Y-50800000D03*
X139700000Y-50800000D03*
X137160000Y-50800000D03*
X134620000Y-50800000D03*
X132080000Y-50800000D03*
X129540000Y-50800000D03*
X127000000Y-50800000D03*
X124460000Y-50800000D03*
X121920000Y-50800000D03*
X119380000Y-50800000D03*
X116840000Y-50800000D03*
X114300000Y-50800000D03*
X111760000Y-50800000D03*
X109220000Y-50800000D03*
X106680000Y-50800000D03*
X104140000Y-50800000D03*
X101600000Y-50800000D03*
X99060000Y-50800000D03*
X96520000Y-50800000D03*
X93980000Y-50800000D03*
X91440000Y-50800000D03*
X88900000Y-50800000D03*
X86360000Y-50800000D03*
X83820000Y-50800000D03*
D12*
X184531000Y-63373000D03*
X185801000Y-63373000D03*
X187071000Y-63373000D03*
X188341000Y-63373000D03*
X189611000Y-63373000D03*
X190881000Y-63373000D03*
X192151000Y-63373000D03*
X193421000Y-63373000D03*
X193421000Y-56273000D03*
X192151000Y-56273000D03*
X190881000Y-56273000D03*
X189611000Y-56273000D03*
X188341000Y-56273000D03*
X187071000Y-56273000D03*
X185801000Y-56273000D03*
X184531000Y-56273000D03*
D19*
X207101400Y-129667000D03*
X209001400Y-129667000D03*
X208051400Y-127635000D03*
D10*
X172847000Y-81026000D03*
X169653000Y-81026000D03*
X101219000Y-128651000D03*
X98025000Y-128651000D03*
X216662000Y-126746000D03*
X213468000Y-126746000D03*
D16*
X87249000Y-95408000D03*
X112141000Y-95406000D03*
X87249000Y-77120000D03*
X112141000Y-77118000D03*
D17*
X90495000Y-95281000D03*
X91295000Y-95281000D03*
X92095000Y-95281000D03*
X92895000Y-95281000D03*
X93695000Y-95281000D03*
X94495000Y-95281000D03*
X95295000Y-95281000D03*
X96095000Y-95281000D03*
X96895000Y-95281000D03*
X97695000Y-95281000D03*
X98495000Y-95281000D03*
X99295000Y-95281000D03*
X100095000Y-95281000D03*
X100895000Y-95281000D03*
X101695000Y-95281000D03*
X102495000Y-95281000D03*
X103275000Y-95281000D03*
X104095000Y-95281000D03*
X104895000Y-95281000D03*
X105695000Y-95281000D03*
X106495000Y-95281000D03*
X107295000Y-95281000D03*
X108095000Y-95281000D03*
X108895000Y-95281000D03*
D18*
X111760000Y-92264000D03*
X111760000Y-91464000D03*
X111760000Y-90664000D03*
X111760000Y-89864000D03*
X111760000Y-89064000D03*
X111760000Y-88264000D03*
X111760000Y-87464000D03*
X111760000Y-86664000D03*
X111760000Y-85864000D03*
X111760000Y-85064000D03*
X111760000Y-84264000D03*
X111760000Y-83464000D03*
X111760000Y-82664000D03*
X111760000Y-81864000D03*
X111760000Y-81064000D03*
X111760000Y-80264000D03*
D17*
X108895000Y-77247000D03*
X108095000Y-77247000D03*
X107295000Y-77247000D03*
X106495000Y-77247000D03*
X105695000Y-77247000D03*
X104895000Y-77247000D03*
X104095000Y-77247000D03*
X103295000Y-77247000D03*
X102495000Y-77247000D03*
X101695000Y-77247000D03*
X100895000Y-77247000D03*
X100095000Y-77247000D03*
X99295000Y-77247000D03*
X98495000Y-77247000D03*
X97695000Y-77247000D03*
X96895000Y-77247000D03*
X96095000Y-77247000D03*
X95295000Y-77247000D03*
X94495000Y-77247000D03*
X93695000Y-77247000D03*
X92895000Y-77247000D03*
X92095000Y-77247000D03*
X91295000Y-77247000D03*
X90495000Y-77247000D03*
D18*
X87630000Y-80264000D03*
X87630000Y-81064000D03*
X87630000Y-81864000D03*
X87630000Y-82664000D03*
X87630000Y-83464000D03*
X87630000Y-84264000D03*
X87630000Y-85064000D03*
X87630000Y-85864000D03*
X87630000Y-86664000D03*
X87630000Y-87464000D03*
X87630000Y-88264000D03*
X87630000Y-89064000D03*
X87630000Y-89864000D03*
X87630000Y-90664000D03*
X87630000Y-91464000D03*
X87630000Y-92264000D03*
D16*
X151130000Y-103505000D03*
X124206000Y-76581000D03*
D21*
X125730000Y-90043000D03*
X125730000Y-91313000D03*
X125730000Y-92583000D03*
X125730000Y-93853000D03*
X125730000Y-95123000D03*
X125730000Y-96393000D03*
X125730000Y-97663000D03*
X125730000Y-98933000D03*
X125730000Y-100203000D03*
D22*
X127508000Y-101981000D03*
X128778000Y-101981000D03*
X130048000Y-101981000D03*
X131318000Y-101981000D03*
X132588000Y-101981000D03*
X133858000Y-101981000D03*
X135128000Y-101981000D03*
X136398000Y-101981000D03*
X137668000Y-101981000D03*
X138938000Y-101981000D03*
X140208000Y-101981000D03*
X141478000Y-101981000D03*
X142748000Y-101981000D03*
X144018000Y-101981000D03*
X145288000Y-101981000D03*
X146558000Y-101981000D03*
X147828000Y-101981000D03*
D21*
X149606000Y-100203000D03*
X149606000Y-98933000D03*
X149606000Y-97663000D03*
X149606000Y-96393000D03*
X149606000Y-95123000D03*
X149606000Y-93853000D03*
X149606000Y-92583000D03*
X149606000Y-91313000D03*
X149606000Y-90043000D03*
X149606000Y-88773000D03*
X149606000Y-87503000D03*
X149606000Y-86233000D03*
X149606000Y-84963000D03*
X149606000Y-83693000D03*
X149606000Y-82423000D03*
X149606000Y-81153000D03*
X149606000Y-79883000D03*
D22*
X147828000Y-78105000D03*
X146558000Y-78105000D03*
X145288000Y-78105000D03*
X144018000Y-78105000D03*
X142748000Y-78105000D03*
X141478000Y-78105000D03*
X140208000Y-78105000D03*
X138938000Y-78105000D03*
X137668000Y-78105000D03*
X136398000Y-78105000D03*
X135128000Y-78105000D03*
X133858000Y-78105000D03*
X132588000Y-78105000D03*
X131318000Y-78105000D03*
X130048000Y-78105000D03*
X128778000Y-78105000D03*
X127508000Y-78105000D03*
D21*
X125730000Y-79883000D03*
X125730000Y-81153000D03*
X125730000Y-82423000D03*
X125730000Y-83693000D03*
X125730000Y-84963000D03*
X125730000Y-86233000D03*
X125730000Y-87503000D03*
X125730000Y-88773000D03*
D10*
X223666000Y-126746000D03*
X220472000Y-126746000D03*
D16*
X168789000Y-117906000D03*
X200539000Y-117906000D03*
X168813000Y-86178000D03*
X200539000Y-86178000D03*
D23*
X171914000Y-117531000D03*
X172414000Y-117531000D03*
X172914000Y-117531000D03*
X173414000Y-117531000D03*
X173914000Y-117531000D03*
X174414000Y-117531000D03*
X174914000Y-117531000D03*
X175414000Y-117531000D03*
X175914000Y-117531000D03*
X176414000Y-117531000D03*
X176914000Y-117531000D03*
X177414000Y-117531000D03*
X177914000Y-117531000D03*
X178414000Y-117531000D03*
X178914000Y-117531000D03*
X179414000Y-117531000D03*
X179914000Y-117531000D03*
X180414000Y-117531000D03*
X180914000Y-117531000D03*
X181414000Y-117531000D03*
X181914000Y-117531000D03*
X182414000Y-117531000D03*
X182914000Y-117531000D03*
X183414000Y-117531000D03*
X183914000Y-117531000D03*
X184414000Y-117531000D03*
X184914000Y-117531000D03*
X185414000Y-117531000D03*
X185914000Y-117531000D03*
X186414000Y-117531000D03*
X186914000Y-117531000D03*
X187414000Y-117531000D03*
X187914000Y-117531000D03*
X188414000Y-117531000D03*
X188914000Y-117531000D03*
X189414000Y-117531000D03*
X189914000Y-117531000D03*
X190414000Y-117531000D03*
X190914000Y-117531000D03*
X191414000Y-117531000D03*
X191914000Y-117531000D03*
X192414000Y-117531000D03*
X192914000Y-117531000D03*
X193414000Y-117531000D03*
X193914000Y-117531000D03*
X194414000Y-117531000D03*
X194914000Y-117531000D03*
X195414000Y-117531000D03*
X195914000Y-117531000D03*
X196414000Y-117531000D03*
X196914000Y-117531000D03*
X197414000Y-117531000D03*
D24*
X200164000Y-114781000D03*
X200164000Y-114281000D03*
X200164000Y-113781000D03*
X200164000Y-113281000D03*
X200164000Y-112781000D03*
X200164000Y-112281000D03*
X200164000Y-111781000D03*
X200164000Y-111281000D03*
X200164000Y-110781000D03*
X200164000Y-110281000D03*
X200164000Y-109781000D03*
X200164000Y-109281000D03*
X200164000Y-108781000D03*
X200164000Y-108281000D03*
X200164000Y-107781000D03*
X200164000Y-107281000D03*
X200164000Y-106781000D03*
X200164000Y-106281000D03*
X200164000Y-105781000D03*
X200164000Y-105281000D03*
X200164000Y-104781000D03*
X200164000Y-104281000D03*
X200164000Y-103781000D03*
X200164000Y-103281000D03*
X200164000Y-102781000D03*
X200164000Y-102281000D03*
X200164000Y-101781000D03*
X200164000Y-101281000D03*
X200164000Y-100781000D03*
X200164000Y-100281000D03*
X200164000Y-99781000D03*
X200164000Y-99281000D03*
X200164000Y-98781000D03*
X200164000Y-98281000D03*
X200164000Y-97781000D03*
X200164000Y-97281000D03*
X200164000Y-96781000D03*
X200164000Y-96281000D03*
X200164000Y-95781000D03*
X200164000Y-95281000D03*
X200164000Y-94781000D03*
X200164000Y-94281000D03*
X200164000Y-93781000D03*
X200164000Y-93281000D03*
X200164000Y-92781000D03*
X200164000Y-92281000D03*
X200164000Y-91781000D03*
X200164000Y-91281000D03*
X200164000Y-90781000D03*
X200164000Y-90281000D03*
X200164000Y-89781000D03*
X200164000Y-89281000D03*
D23*
X197414000Y-86531000D03*
X196914000Y-86531000D03*
X196414000Y-86531000D03*
X195914000Y-86531000D03*
X195414000Y-86531000D03*
X194914000Y-86531000D03*
X194414000Y-86531000D03*
X193914000Y-86531000D03*
X193414000Y-86531000D03*
X192914000Y-86531000D03*
X192414000Y-86531000D03*
X191914000Y-86531000D03*
X191414000Y-86531000D03*
X190914000Y-86531000D03*
X190414000Y-86531000D03*
X189914000Y-86531000D03*
X189414000Y-86531000D03*
X188914000Y-86531000D03*
X188414000Y-86531000D03*
X187914000Y-86531000D03*
X187414000Y-86531000D03*
X186914000Y-86531000D03*
X186414000Y-86531000D03*
X185914000Y-86531000D03*
X185414000Y-86531000D03*
X184914000Y-86531000D03*
X184414000Y-86531000D03*
X183914000Y-86531000D03*
X183414000Y-86531000D03*
X182914000Y-86531000D03*
X182414000Y-86531000D03*
X181914000Y-86531000D03*
X181414000Y-86531000D03*
X180914000Y-86531000D03*
X180414000Y-86531000D03*
X179914000Y-86531000D03*
X179414000Y-86531000D03*
X178914000Y-86531000D03*
X178414000Y-86531000D03*
X177914000Y-86531000D03*
X177414000Y-86531000D03*
X176914000Y-86531000D03*
X176414000Y-86531000D03*
X175914000Y-86531000D03*
X175414000Y-86531000D03*
X174914000Y-86531000D03*
X174414000Y-86531000D03*
X173914000Y-86531000D03*
X173414000Y-86531000D03*
X172914000Y-86531000D03*
X172414000Y-86531000D03*
X171914000Y-86531000D03*
D24*
X169164000Y-89281000D03*
X169164000Y-89781000D03*
X169164000Y-90281000D03*
X169164000Y-90781000D03*
X169164000Y-91281000D03*
X169164000Y-91781000D03*
X169164000Y-92281000D03*
X169164000Y-92781000D03*
X169164000Y-93281000D03*
X169164000Y-93781000D03*
X169164000Y-94281000D03*
X169164000Y-94781000D03*
X169164000Y-95281000D03*
X169164000Y-95781000D03*
X169164000Y-96281000D03*
X169164000Y-96781000D03*
X169164000Y-97281000D03*
X169164000Y-97781000D03*
X169164000Y-98281000D03*
X169164000Y-98781000D03*
X169164000Y-99281000D03*
X169164000Y-99781000D03*
X169164000Y-100281000D03*
X169164000Y-100781000D03*
X169164000Y-101281000D03*
X169164000Y-101781000D03*
X169164000Y-102281000D03*
X169164000Y-102781000D03*
X169164000Y-103281000D03*
X169164000Y-103781000D03*
X169164000Y-104281000D03*
X169164000Y-104781000D03*
X169164000Y-105281000D03*
X169164000Y-105781000D03*
X169164000Y-106281000D03*
X169164000Y-106781000D03*
X169164000Y-107281000D03*
X169164000Y-107781000D03*
X169164000Y-108281000D03*
X169164000Y-108781000D03*
X169164000Y-109281000D03*
X169164000Y-109781000D03*
X169164000Y-110281000D03*
X169164000Y-110781000D03*
X169164000Y-111281000D03*
X169164000Y-111781000D03*
X169164000Y-112281000D03*
X169164000Y-112781000D03*
X169164000Y-113281000D03*
X169164000Y-113781000D03*
X169164000Y-114281000D03*
X169164000Y-114781000D03*
D10*
X188080600Y-128041400D03*
X184886600Y-128041400D03*
D11*
X60325000Y-70050000D03*
X60325000Y-66856000D03*
D13*
X64135000Y-89916000D03*
X65405000Y-89916000D03*
X66675000Y-89916000D03*
X67945000Y-89916000D03*
X69215000Y-89916000D03*
X70485000Y-89916000D03*
X71755000Y-89916000D03*
X73025000Y-89916000D03*
X74295000Y-89916000D03*
X75565000Y-89916000D03*
X76835000Y-89916000D03*
X78105000Y-89916000D03*
X79375000Y-89916000D03*
X80645000Y-89916000D03*
X80645000Y-78486000D03*
X79375000Y-78486000D03*
X78105000Y-78486000D03*
X76835000Y-78486000D03*
X75565000Y-78486000D03*
X74295000Y-78486000D03*
X73025000Y-78486000D03*
X71755000Y-78486000D03*
X70485000Y-78486000D03*
X69215000Y-78486000D03*
X67945000Y-78486000D03*
X66675000Y-78486000D03*
X65405000Y-78486000D03*
X64135000Y-78486000D03*
D11*
X60452000Y-81988000D03*
X60452000Y-78794000D03*
M02*
