G04 #@! TF.GenerationSoftware,KiCad,Pcbnew,7.0.2-0*
G04 #@! TF.CreationDate,2023-08-04T18:00:27+02:00*
G04 #@! TF.ProjectId,MegaCD,4d656761-4344-42e6-9b69-6361645f7063,rev?*
G04 #@! TF.SameCoordinates,Original*
G04 #@! TF.FileFunction,Paste,Bot*
G04 #@! TF.FilePolarity,Positive*
%FSLAX46Y46*%
G04 Gerber Fmt 4.6, Leading zero omitted, Abs format (unit mm)*
G04 Created by KiCad (PCBNEW 7.0.2-0) date 2023-08-04 18:00:27*
%MOMM*%
%LPD*%
G01*
G04 APERTURE LIST*
G04 Aperture macros list*
%AMRoundRect*
0 Rectangle with rounded corners*
0 $1 Rounding radius*
0 $2 $3 $4 $5 $6 $7 $8 $9 X,Y pos of 4 corners*
0 Add a 4 corners polygon primitive as box body*
4,1,4,$2,$3,$4,$5,$6,$7,$8,$9,$2,$3,0*
0 Add four circle primitives for the rounded corners*
1,1,$1+$1,$2,$3*
1,1,$1+$1,$4,$5*
1,1,$1+$1,$6,$7*
1,1,$1+$1,$8,$9*
0 Add four rect primitives between the rounded corners*
20,1,$1+$1,$2,$3,$4,$5,0*
20,1,$1+$1,$4,$5,$6,$7,0*
20,1,$1+$1,$6,$7,$8,$9,0*
20,1,$1+$1,$8,$9,$2,$3,0*%
G04 Aperture macros list end*
%ADD10R,1.778000X8.000000*%
%ADD11C,1.500000*%
%ADD12RoundRect,0.255319X0.344681X-0.394681X0.344681X0.394681X-0.344681X0.394681X-0.344681X-0.394681X0*%
%ADD13RoundRect,0.255319X-0.394681X-0.344681X0.394681X-0.344681X0.394681X0.344681X-0.394681X0.344681X0*%
%ADD14RoundRect,0.255319X0.394681X0.344681X-0.394681X0.344681X-0.394681X-0.344681X0.394681X-0.344681X0*%
%ADD15RoundRect,0.255319X-0.344681X0.394681X-0.344681X-0.394681X0.344681X-0.394681X0.344681X0.394681X0*%
%ADD16RoundRect,0.200000X0.500000X1.000000X-0.500000X1.000000X-0.500000X-1.000000X0.500000X-1.000000X0*%
G04 APERTURE END LIST*
D10*
X157480000Y-50800000D03*
X154940000Y-50800000D03*
X152400000Y-50800000D03*
X149860000Y-50800000D03*
X147320000Y-50800000D03*
X144780000Y-50800000D03*
X142240000Y-50800000D03*
X139700000Y-50800000D03*
X137160000Y-50800000D03*
X134620000Y-50800000D03*
X132080000Y-50800000D03*
X129540000Y-50800000D03*
X127000000Y-50800000D03*
X124460000Y-50800000D03*
X121920000Y-50800000D03*
X119380000Y-50800000D03*
X116840000Y-50800000D03*
X114300000Y-50800000D03*
X111760000Y-50800000D03*
X109220000Y-50800000D03*
X106680000Y-50800000D03*
X104140000Y-50800000D03*
X101600000Y-50800000D03*
X99060000Y-50800000D03*
X96520000Y-50800000D03*
X93980000Y-50800000D03*
X91440000Y-50800000D03*
X88900000Y-50800000D03*
X86360000Y-50800000D03*
X83820000Y-50800000D03*
D11*
X187833000Y-99441000D03*
D12*
X100558600Y-70231000D03*
X100558600Y-67945000D03*
D11*
X185293000Y-99441000D03*
D12*
X227050600Y-123520200D03*
X227050600Y-121234200D03*
D13*
X203174600Y-63169800D03*
X205460600Y-63169800D03*
D14*
X119811800Y-116662200D03*
X117525800Y-116662200D03*
D13*
X114020600Y-84251800D03*
X116306600Y-84251800D03*
D12*
X161772600Y-129235200D03*
X161772600Y-126949200D03*
D13*
X137845800Y-111582200D03*
X140131800Y-111582200D03*
D15*
X64135000Y-116713000D03*
X64135000Y-118999000D03*
D14*
X88392000Y-91694000D03*
X86106000Y-91694000D03*
D11*
X171958000Y-121031000D03*
X200533000Y-96901000D03*
D13*
X101066600Y-94970600D03*
X103352600Y-94970600D03*
D12*
X132588000Y-122809000D03*
X132588000Y-120523000D03*
D16*
X172847000Y-80391000D03*
X169697400Y-80391000D03*
D14*
X169189400Y-72669400D03*
X166903400Y-72669400D03*
X209778600Y-91160600D03*
X207492600Y-91160600D03*
D16*
X195046600Y-125399800D03*
X191897000Y-125399800D03*
D14*
X108381800Y-75971400D03*
X106095800Y-75971400D03*
D11*
X133223000Y-98806000D03*
X174498000Y-121031000D03*
D15*
X64135000Y-83058000D03*
X64135000Y-85344000D03*
D14*
X209778600Y-96342200D03*
X207492600Y-96342200D03*
X216179400Y-126314200D03*
X213893400Y-126314200D03*
D13*
X175336200Y-130835400D03*
X177622200Y-130835400D03*
X106095800Y-82575400D03*
X108381800Y-82575400D03*
D11*
X192913000Y-96901000D03*
D13*
X198653400Y-56261000D03*
X200939400Y-56261000D03*
X106680000Y-60579000D03*
X108966000Y-60579000D03*
D11*
X163068000Y-64516000D03*
D14*
X187629800Y-124841000D03*
X185343800Y-124841000D03*
D13*
X111125000Y-78511400D03*
X113411000Y-78511400D03*
X187045600Y-56261000D03*
X189331600Y-56261000D03*
D14*
X139319000Y-100838000D03*
X137033000Y-100838000D03*
D11*
X177038000Y-121031000D03*
D14*
X144526000Y-100838000D03*
X142240000Y-100838000D03*
X100736400Y-124841000D03*
X98450400Y-124841000D03*
D13*
X106095800Y-86182200D03*
X108381800Y-86182200D03*
D14*
X175564800Y-86690200D03*
X173278800Y-86690200D03*
D13*
X124485400Y-82270600D03*
X126771400Y-82270600D03*
D15*
X64135000Y-99568000D03*
X64135000Y-101854000D03*
D13*
X97205800Y-59359800D03*
X99491800Y-59359800D03*
D12*
X159824600Y-129235200D03*
X159824600Y-126949200D03*
D14*
X203530200Y-124942600D03*
X201244200Y-124942600D03*
X223088200Y-126314200D03*
X220802200Y-126314200D03*
D12*
X126212600Y-122809000D03*
X126212600Y-120523000D03*
D13*
X151561800Y-80289400D03*
X153847800Y-80289400D03*
D14*
X116306600Y-86690200D03*
X114020600Y-86690200D03*
D12*
X157353000Y-124129800D03*
X157353000Y-121843800D03*
X154813000Y-124129800D03*
X154813000Y-121843800D03*
D11*
X197993000Y-96901000D03*
D13*
X197739000Y-63220600D03*
X200025000Y-63220600D03*
D12*
X86283800Y-64998600D03*
X86283800Y-62712600D03*
D15*
X64008000Y-67056000D03*
X64008000Y-69342000D03*
D13*
X183057800Y-121945400D03*
X185343800Y-121945400D03*
D11*
X192913000Y-99441000D03*
D13*
X90881200Y-75463400D03*
X93167200Y-75463400D03*
D14*
X209169000Y-124942600D03*
X206883000Y-124942600D03*
D13*
X166243000Y-61391800D03*
X168529000Y-61391800D03*
D12*
X157962600Y-129235200D03*
X157962600Y-126949200D03*
X159893000Y-124129800D03*
X159893000Y-121843800D03*
D14*
X118541800Y-80645000D03*
X116255800Y-80645000D03*
X108381800Y-78511400D03*
X106095800Y-78511400D03*
D12*
X124333000Y-122809000D03*
X124333000Y-120523000D03*
D14*
X209778600Y-93700600D03*
X207492600Y-93700600D03*
D11*
X163068000Y-61214000D03*
X175031400Y-107162600D03*
X190373000Y-99441000D03*
X195453000Y-96901000D03*
D14*
X209778600Y-82270600D03*
X207492600Y-82270600D03*
D12*
X122428000Y-122809000D03*
X122428000Y-120523000D03*
D14*
X88392000Y-94234000D03*
X86106000Y-94234000D03*
D13*
X192913000Y-69570600D03*
X195199000Y-69570600D03*
X139065000Y-118541800D03*
X141351000Y-118541800D03*
X153390600Y-114985800D03*
X155676600Y-114985800D03*
D15*
X227050600Y-91414600D03*
X227050600Y-93700600D03*
D13*
X192786000Y-56261000D03*
X195072000Y-56261000D03*
D14*
X209778600Y-79730600D03*
X207492600Y-79730600D03*
D13*
X111125000Y-75971400D03*
X113411000Y-75971400D03*
X110566200Y-111937800D03*
X112852200Y-111937800D03*
D14*
X209778600Y-98882200D03*
X207492600Y-98882200D03*
M02*
