G04 #@! TF.GenerationSoftware,KiCad,Pcbnew,7.0.2-0*
G04 #@! TF.CreationDate,2023-08-01T17:59:32+02:00*
G04 #@! TF.ProjectId,MegaCD,4d656761-4344-42e6-9b69-6361645f7063,rev?*
G04 #@! TF.SameCoordinates,Original*
G04 #@! TF.FileFunction,Soldermask,Bot*
G04 #@! TF.FilePolarity,Negative*
%FSLAX46Y46*%
G04 Gerber Fmt 4.6, Leading zero omitted, Abs format (unit mm)*
G04 Created by KiCad (PCBNEW 7.0.2-0) date 2023-08-01 17:59:32*
%MOMM*%
%LPD*%
G01*
G04 APERTURE LIST*
G04 Aperture macros list*
%AMRoundRect*
0 Rectangle with rounded corners*
0 $1 Rounding radius*
0 $2 $3 $4 $5 $6 $7 $8 $9 X,Y pos of 4 corners*
0 Add a 4 corners polygon primitive as box body*
4,1,4,$2,$3,$4,$5,$6,$7,$8,$9,$2,$3,0*
0 Add four circle primitives for the rounded corners*
1,1,$1+$1,$2,$3*
1,1,$1+$1,$4,$5*
1,1,$1+$1,$6,$7*
1,1,$1+$1,$8,$9*
0 Add four rect primitives between the rounded corners*
20,1,$1+$1,$2,$3,$4,$5,0*
20,1,$1+$1,$4,$5,$6,$7,0*
20,1,$1+$1,$6,$7,$8,$9,0*
20,1,$1+$1,$8,$9,$2,$3,0*%
G04 Aperture macros list end*
%ADD10C,2.767879*%
%ADD11C,0.150000*%
%ADD12C,2.615000*%
%ADD13R,1.600000X1.600000*%
%ADD14C,1.600000*%
%ADD15R,1.400000X1.400000*%
%ADD16O,1.400000X1.400000*%
%ADD17R,1.300000X1.300000*%
%ADD18C,1.800000*%
%ADD19R,1.600000X1.200000*%
%ADD20RoundRect,0.300000X0.500000X-0.300000X0.500000X0.300000X-0.500000X0.300000X-0.500000X-0.300000X0*%
%ADD21RoundRect,0.375000X-0.375000X0.375000X-0.375000X-0.375000X0.375000X-0.375000X0.375000X0.375000X0*%
%ADD22R,1.400000X1.600000*%
%ADD23RoundRect,0.350000X-0.350000X-0.450000X0.350000X-0.450000X0.350000X0.450000X-0.350000X0.450000X0*%
%ADD24O,2.000000X2.000000*%
%ADD25R,1.778000X8.000000*%
%ADD26RoundRect,0.375000X0.375000X-0.375000X0.375000X0.375000X-0.375000X0.375000X-0.375000X-0.375000X0*%
%ADD27C,1.500000*%
%ADD28RoundRect,0.255319X0.344681X-0.394681X0.344681X0.394681X-0.344681X0.394681X-0.344681X-0.394681X0*%
%ADD29RoundRect,0.255319X-0.394681X-0.344681X0.394681X-0.344681X0.394681X0.344681X-0.394681X0.344681X0*%
%ADD30RoundRect,0.255319X0.394681X0.344681X-0.394681X0.344681X-0.394681X-0.344681X0.394681X-0.344681X0*%
%ADD31RoundRect,0.255319X-0.344681X0.394681X-0.344681X-0.394681X0.344681X-0.394681X0.344681X0.394681X0*%
%ADD32RoundRect,0.200000X0.500000X1.000000X-0.500000X1.000000X-0.500000X-1.000000X0.500000X-1.000000X0*%
G04 APERTURE END LIST*
D10*
X231990539Y-107721400D02*
G75*
G03*
X231990539Y-107721400I-1383939J0D01*
G01*
G36*
X231105200Y-48285400D02*
G01*
X232105200Y-48285400D01*
X232105200Y-134696200D01*
X231105200Y-134696200D01*
X231105200Y-48285400D01*
G37*
D11*
X225145600Y-132435600D02*
X227914200Y-132435600D01*
X227914200Y-135255000D01*
X225145600Y-135255000D01*
X225145600Y-132435600D01*
G36*
X225145600Y-132435600D02*
G01*
X227914200Y-132435600D01*
X227914200Y-135255000D01*
X225145600Y-135255000D01*
X225145600Y-132435600D01*
G37*
G36*
X46202600Y-135728200D02*
G01*
X234086400Y-135728200D01*
X234086400Y-136702800D01*
X46202600Y-136702800D01*
X46202600Y-135728200D01*
G37*
G36*
X48234600Y-48742600D02*
G01*
X49242600Y-48742600D01*
X49242600Y-132816600D01*
X48234600Y-132816600D01*
X48234600Y-48742600D01*
G37*
G36*
X46202600Y-47091600D02*
G01*
X47202600Y-47091600D01*
X47202600Y-136702800D01*
X46202600Y-136702800D01*
X46202600Y-47091600D01*
G37*
G36*
X173202600Y-48285400D02*
G01*
X232105200Y-48285400D01*
X232105200Y-49269400D01*
X173202600Y-49269400D01*
X173202600Y-48285400D01*
G37*
G36*
X50749200Y-133696200D02*
G01*
X224561400Y-133696200D01*
X224561400Y-134696200D01*
X50749200Y-134696200D01*
X50749200Y-133696200D01*
G37*
D12*
X197395500Y-132715000D02*
G75*
G03*
X197395500Y-132715000I-1307500J0D01*
G01*
G36*
X46202600Y-46253400D02*
G01*
X68097400Y-46253400D01*
X68097400Y-47253400D01*
X46202600Y-47253400D01*
X46202600Y-46253400D01*
G37*
G36*
X173202600Y-46278800D02*
G01*
X234086400Y-46278800D01*
X234086400Y-47261400D01*
X173202600Y-47261400D01*
X173202600Y-46278800D01*
G37*
D11*
X51714400Y-51231800D02*
X54483000Y-51231800D01*
X54483000Y-54051200D01*
X51714400Y-54051200D01*
X51714400Y-51231800D01*
G36*
X51714400Y-51231800D02*
G01*
X54483000Y-51231800D01*
X54483000Y-54051200D01*
X51714400Y-54051200D01*
X51714400Y-51231800D01*
G37*
D12*
X196404900Y-132715000D02*
G75*
G03*
X196404900Y-132715000I-1307500J0D01*
G01*
G36*
X228473000Y-133696200D02*
G01*
X232105200Y-133696200D01*
X232105200Y-134696200D01*
X228473000Y-134696200D01*
X228473000Y-133696200D01*
G37*
D11*
X195097400Y-130175000D02*
X196088000Y-130175000D01*
X196088000Y-135255000D01*
X195097400Y-135255000D01*
X195097400Y-130175000D01*
G36*
X195097400Y-130175000D02*
G01*
X196088000Y-130175000D01*
X196088000Y-135255000D01*
X195097400Y-135255000D01*
X195097400Y-130175000D01*
G37*
G36*
X233086400Y-46278800D02*
G01*
X234086400Y-46278800D01*
X234086400Y-136702800D01*
X233086400Y-136702800D01*
X233086400Y-46278800D01*
G37*
G36*
X48234600Y-48242600D02*
G01*
X68148200Y-48242600D01*
X68148200Y-49242600D01*
X48234600Y-49242600D01*
X48234600Y-48242600D01*
G37*
D13*
X187071000Y-76631800D03*
D14*
X202311000Y-76631800D03*
X202311000Y-69011800D03*
X187071000Y-69011800D03*
D15*
X216281000Y-122301000D03*
D16*
X213741000Y-121031000D03*
X216281000Y-119761000D03*
X213741000Y-118491000D03*
X216281000Y-117221000D03*
X213741000Y-115951000D03*
X216281000Y-114681000D03*
X213741000Y-113411000D03*
X216281000Y-112141000D03*
X213741000Y-110871000D03*
X216281000Y-109601000D03*
X213741000Y-108331000D03*
X216281000Y-107061000D03*
X213741000Y-105791000D03*
X216281000Y-104521000D03*
X213741000Y-103251000D03*
X216281000Y-101981000D03*
X213741000Y-100711000D03*
X216281000Y-99441000D03*
X213741000Y-98171000D03*
X216281000Y-96901000D03*
X213741000Y-95631000D03*
X216281000Y-94361000D03*
X213741000Y-93091000D03*
X216281000Y-91821000D03*
X213741000Y-90551000D03*
X216281000Y-89281000D03*
X213741000Y-88011000D03*
X216281000Y-86741000D03*
X213741000Y-85471000D03*
X216281000Y-84201000D03*
X213741000Y-82931000D03*
X216281000Y-81661000D03*
X213741000Y-80391000D03*
X216281000Y-79121000D03*
X213741000Y-77851000D03*
X216281000Y-76581000D03*
X213741000Y-75311000D03*
X216281000Y-74041000D03*
X213741000Y-72771000D03*
D17*
X175895000Y-79756000D03*
X182895000Y-79756000D03*
D18*
X162433000Y-118110000D03*
X162433000Y-115570000D03*
X162433000Y-113030000D03*
D17*
X151064200Y-110871000D03*
X158064200Y-110871000D03*
D18*
X156083000Y-82931000D03*
X156083000Y-85471000D03*
X156083000Y-88011000D03*
D17*
X118618000Y-100821000D03*
X118618000Y-91821000D03*
D19*
X108758000Y-128651000D03*
D20*
X110008000Y-126111000D03*
X111258000Y-128651000D03*
X112508000Y-126111000D03*
X113758000Y-128651000D03*
X115008000Y-126111000D03*
X116258000Y-128651000D03*
X117508000Y-126111000D03*
X118758000Y-128651000D03*
X120008000Y-126111000D03*
X121258000Y-128651000D03*
X122508000Y-126111000D03*
X123758000Y-128651000D03*
X125008000Y-126111000D03*
X126258000Y-128651000D03*
X127508000Y-126111000D03*
X128758000Y-128651000D03*
X130008000Y-126111000D03*
X131258000Y-128651000D03*
X132508000Y-126111000D03*
X133758000Y-128651000D03*
X135008000Y-126111000D03*
X136258000Y-128651000D03*
X137508000Y-126111000D03*
X138758000Y-128651000D03*
D17*
X172694600Y-123835400D03*
X172694600Y-130835400D03*
X151064200Y-117271800D03*
X158064200Y-117271800D03*
D18*
X86995000Y-128671000D03*
X89535000Y-128671000D03*
X92075000Y-128671000D03*
D17*
X97409000Y-64897000D03*
X97409000Y-71897000D03*
D14*
X55245000Y-80471000D03*
X55245000Y-85471000D03*
D17*
X180213000Y-130825000D03*
X180213000Y-123825000D03*
D21*
X55245000Y-75866000D03*
X55245000Y-70866000D03*
D15*
X223266000Y-122301000D03*
D16*
X220726000Y-121031000D03*
X223266000Y-119761000D03*
X220726000Y-118491000D03*
X223266000Y-117221000D03*
X220726000Y-115951000D03*
X223266000Y-114681000D03*
X220726000Y-113411000D03*
X223266000Y-112141000D03*
X220726000Y-110871000D03*
X223266000Y-109601000D03*
X220726000Y-108331000D03*
X223266000Y-107061000D03*
X220726000Y-105791000D03*
X223266000Y-104521000D03*
X220726000Y-103251000D03*
X223266000Y-101981000D03*
X220726000Y-100711000D03*
X223266000Y-99441000D03*
X220726000Y-98171000D03*
X223266000Y-96901000D03*
X220726000Y-95631000D03*
X223266000Y-94361000D03*
X220726000Y-93091000D03*
X223266000Y-91821000D03*
X220726000Y-90551000D03*
X223266000Y-89281000D03*
X220726000Y-88011000D03*
X223266000Y-86741000D03*
X220726000Y-85471000D03*
X223266000Y-84201000D03*
X220726000Y-82931000D03*
X223266000Y-81661000D03*
X220726000Y-80391000D03*
X223266000Y-79121000D03*
X220726000Y-77851000D03*
X223266000Y-76581000D03*
X220726000Y-75311000D03*
X223266000Y-74041000D03*
X220726000Y-72771000D03*
D22*
X57150000Y-91279000D03*
D23*
X59690000Y-92529000D03*
X57150000Y-93779000D03*
X59690000Y-95029000D03*
X57150000Y-96279000D03*
X59690000Y-97529000D03*
X57150000Y-98779000D03*
X59690000Y-100029000D03*
X57150000Y-101279000D03*
X59690000Y-102529000D03*
X57150000Y-103779000D03*
X59690000Y-105029000D03*
X57150000Y-106279000D03*
X59690000Y-107529000D03*
X57150000Y-108779000D03*
X59690000Y-110029000D03*
X57150000Y-111279000D03*
X59690000Y-112529000D03*
X57150000Y-113779000D03*
X59690000Y-115029000D03*
X57150000Y-116279000D03*
D24*
X208813400Y-54381400D03*
X208813400Y-64541400D03*
X224053400Y-59461400D03*
X226593400Y-59461400D03*
D25*
X157480000Y-50800000D03*
X154940000Y-50800000D03*
X152400000Y-50800000D03*
X149860000Y-50800000D03*
X147320000Y-50800000D03*
X144780000Y-50800000D03*
X142240000Y-50800000D03*
X139700000Y-50800000D03*
X137160000Y-50800000D03*
X134620000Y-50800000D03*
X132080000Y-50800000D03*
X129540000Y-50800000D03*
X127000000Y-50800000D03*
X124460000Y-50800000D03*
X121920000Y-50800000D03*
X119380000Y-50800000D03*
X116840000Y-50800000D03*
X114300000Y-50800000D03*
X111760000Y-50800000D03*
X109220000Y-50800000D03*
X106680000Y-50800000D03*
X104140000Y-50800000D03*
X101600000Y-50800000D03*
X99060000Y-50800000D03*
X96520000Y-50800000D03*
X93980000Y-50800000D03*
X91440000Y-50800000D03*
X88900000Y-50800000D03*
X86360000Y-50800000D03*
X83820000Y-50800000D03*
D21*
X146558000Y-129841000D03*
X146558000Y-124841000D03*
D17*
X208534000Y-70358000D03*
X208534000Y-77358000D03*
D13*
X104140000Y-72644000D03*
D26*
X106680000Y-72644000D03*
X109220000Y-72644000D03*
X111760000Y-72644000D03*
X114300000Y-72644000D03*
X116840000Y-72644000D03*
X119380000Y-72644000D03*
X121920000Y-72644000D03*
X124460000Y-72644000D03*
X127000000Y-72644000D03*
X129540000Y-72644000D03*
X132080000Y-72644000D03*
X134620000Y-72644000D03*
X137160000Y-72644000D03*
X139700000Y-72644000D03*
X142240000Y-72644000D03*
X144780000Y-72644000D03*
X147320000Y-72644000D03*
X149860000Y-72644000D03*
X152400000Y-72644000D03*
X152400000Y-57404000D03*
X149860000Y-57404000D03*
X147320000Y-57404000D03*
X144780000Y-57404000D03*
X142240000Y-57404000D03*
X139700000Y-57404000D03*
X137160000Y-57404000D03*
X134620000Y-57404000D03*
X132080000Y-57404000D03*
X129540000Y-57404000D03*
X127000000Y-57404000D03*
X124460000Y-57404000D03*
X121920000Y-57404000D03*
X119380000Y-57404000D03*
X116840000Y-57404000D03*
X114300000Y-57404000D03*
X111760000Y-57404000D03*
X109220000Y-57404000D03*
X106680000Y-57404000D03*
X104140000Y-57404000D03*
D27*
X187833000Y-99441000D03*
D28*
X100558600Y-70231000D03*
X100558600Y-67945000D03*
D27*
X185293000Y-99441000D03*
D28*
X227050600Y-123520200D03*
X227050600Y-121234200D03*
D29*
X203174600Y-63169800D03*
X205460600Y-63169800D03*
D30*
X119811800Y-116662200D03*
X117525800Y-116662200D03*
D29*
X114020600Y-84251800D03*
X116306600Y-84251800D03*
D28*
X161772600Y-129235200D03*
X161772600Y-126949200D03*
D29*
X137845800Y-111582200D03*
X140131800Y-111582200D03*
D31*
X64135000Y-116713000D03*
X64135000Y-118999000D03*
D30*
X88392000Y-91694000D03*
X86106000Y-91694000D03*
D27*
X171958000Y-121031000D03*
X200533000Y-96901000D03*
D29*
X101066600Y-94970600D03*
X103352600Y-94970600D03*
D28*
X132588000Y-122809000D03*
X132588000Y-120523000D03*
D32*
X172847000Y-80391000D03*
X169697400Y-80391000D03*
D30*
X169189400Y-72669400D03*
X166903400Y-72669400D03*
X209778600Y-91160600D03*
X207492600Y-91160600D03*
D32*
X195046600Y-125399800D03*
X191897000Y-125399800D03*
D30*
X108407200Y-75971400D03*
X106121200Y-75971400D03*
D27*
X133223000Y-98806000D03*
X174498000Y-121031000D03*
D31*
X64135000Y-83058000D03*
X64135000Y-85344000D03*
D30*
X209778600Y-96342200D03*
X207492600Y-96342200D03*
X216179400Y-126314200D03*
X213893400Y-126314200D03*
D29*
X175336200Y-130835400D03*
X177622200Y-130835400D03*
X106095800Y-82575400D03*
X108381800Y-82575400D03*
D27*
X192913000Y-96901000D03*
D26*
X226949000Y-84836000D03*
X226949000Y-87376000D03*
D29*
X198653400Y-56261000D03*
X200939400Y-56261000D03*
X106680000Y-60579000D03*
X108966000Y-60579000D03*
D27*
X163068000Y-64516000D03*
D30*
X187629800Y-124841000D03*
X185343800Y-124841000D03*
D29*
X111125000Y-78511400D03*
X113411000Y-78511400D03*
X187045600Y-56261000D03*
X189331600Y-56261000D03*
D30*
X139319000Y-100838000D03*
X137033000Y-100838000D03*
D27*
X177038000Y-121031000D03*
D30*
X144526000Y-100838000D03*
X142240000Y-100838000D03*
X100736400Y-124841000D03*
X98450400Y-124841000D03*
D29*
X106095800Y-86182200D03*
X108381800Y-86182200D03*
D30*
X175564800Y-86690200D03*
X173278800Y-86690200D03*
D29*
X124485400Y-82270600D03*
X126771400Y-82270600D03*
D31*
X64135000Y-99568000D03*
X64135000Y-101854000D03*
D29*
X97205800Y-59359800D03*
X99491800Y-59359800D03*
D28*
X159824600Y-129235200D03*
X159824600Y-126949200D03*
D30*
X203530200Y-124942600D03*
X201244200Y-124942600D03*
X223088200Y-126314200D03*
X220802200Y-126314200D03*
D28*
X126212600Y-122809000D03*
X126212600Y-120523000D03*
D26*
X226949000Y-127508000D03*
X226949000Y-130048000D03*
D29*
X151561800Y-80289400D03*
X153847800Y-80289400D03*
D30*
X116306600Y-86690200D03*
X114020600Y-86690200D03*
D28*
X157302200Y-124129800D03*
X157302200Y-121843800D03*
X154813000Y-124129800D03*
X154813000Y-121843800D03*
D27*
X197993000Y-96901000D03*
D29*
X197739000Y-63220600D03*
X200025000Y-63220600D03*
D28*
X86283800Y-64998600D03*
X86283800Y-62712600D03*
D31*
X64008000Y-67056000D03*
X64008000Y-69342000D03*
D29*
X183057800Y-121945400D03*
X185343800Y-121945400D03*
D27*
X192913000Y-99441000D03*
D29*
X90881200Y-75463400D03*
X93167200Y-75463400D03*
D30*
X209169000Y-124942600D03*
X206883000Y-124942600D03*
D29*
X166243000Y-61391800D03*
X168529000Y-61391800D03*
D28*
X157962600Y-129235200D03*
X157962600Y-126949200D03*
X159893000Y-124129800D03*
X159893000Y-121843800D03*
D30*
X118541800Y-80645000D03*
X116255800Y-80645000D03*
X108381800Y-78511400D03*
X106095800Y-78511400D03*
D28*
X124333000Y-122809000D03*
X124333000Y-120523000D03*
D30*
X209778600Y-93700600D03*
X207492600Y-93700600D03*
D27*
X163068000Y-61214000D03*
X175031400Y-107162600D03*
X190373000Y-99441000D03*
X195453000Y-96901000D03*
D30*
X209778600Y-82270600D03*
X207492600Y-82270600D03*
D28*
X122428000Y-122809000D03*
X122428000Y-120523000D03*
D30*
X88392000Y-94234000D03*
X86106000Y-94234000D03*
D29*
X192913000Y-69570600D03*
X195199000Y-69570600D03*
X139065000Y-118541800D03*
X141351000Y-118541800D03*
X153390600Y-114985800D03*
X155676600Y-114985800D03*
D31*
X227050600Y-91414600D03*
X227050600Y-93700600D03*
D29*
X192786000Y-56261000D03*
X195072000Y-56261000D03*
D30*
X209778600Y-79730600D03*
X207492600Y-79730600D03*
D29*
X111125000Y-75971400D03*
X113411000Y-75971400D03*
X110566200Y-111937800D03*
X112852200Y-111937800D03*
D30*
X209778600Y-98882200D03*
X207492600Y-98882200D03*
M02*
