M48
; DRILL file {KiCad 7.0.2-0} date 2023 August 02, Wednesday 17:47:23
; FORMAT={-:-/ absolute / metric / decimal}
; #@! TF.CreationDate,2023-08-02T17:47:23+02:00
; #@! TF.GenerationSoftware,Kicad,Pcbnew,7.0.2-0
; #@! TF.FileFunction,Plated,1,4,PTH
FMAT,2
METRIC
; #@! TA.AperFunction,Plated,PTH,ViaDrill
T1C0.400
; #@! TA.AperFunction,Plated,PTH,ComponentDrill
T2C0.800
; #@! TA.AperFunction,Plated,PTH,ComponentDrill
T3C0.900
; #@! TA.AperFunction,Plated,PTH,ComponentDrill
T4C1.200
; #@! TA.AperFunction,Plated,PTH,ComponentDrill
T5C1.300
%
G90
G05
T1
X50.165Y-56.921
X50.165Y-63.576
X50.165Y-71.501
X50.165Y-80.391
X50.165Y-88.976
X50.165Y-96.291
X50.165Y-104.267
X50.165Y-112.852
X50.165Y-120.828
X50.165Y-128.702
X55.245Y-92.532
X55.245Y-113.767
X56.312Y-54.991
X58.903Y-76.479
X59.207Y-89.383
X60.325Y-133.172
X60.731Y-54.991
X61.443Y-89.738
X61.457Y-108.418
X61.493Y-109.499
X61.595Y-106.705
X61.595Y-123.723
X61.922Y-66.856
X61.928Y-70.05
X62.103Y-87.859
X62.205Y-82.017
X62.205Y-85.319
X62.306Y-78.969
X62.611Y-119.05
X62.916Y-88.722
X63.221Y-91.821
X63.221Y-107.315
X63.525Y-109.703
X64.008Y-71.145
X64.135Y-65.278
X64.135Y-81.534
X64.135Y-87.884
X64.135Y-97.282
X64.135Y-114.681
X64.77Y-121.539
X64.897Y-54.991
X65.405Y-81.026
X65.405Y-87.884
X65.557Y-102.032
X66.04Y-82.677
X66.04Y-120.269
X66.04Y-121.773
X66.675Y-81.026
X66.827Y-93.091
X67.272Y-121.164
X67.31Y-83.947
X67.31Y-97.663
X67.31Y-118.618
X67.945Y-81.026
X67.945Y-119.888
X68.58Y-84.328
X68.605Y-133.172
X68.625Y-117.627
X69.215Y-81.026
X69.215Y-119.888
X69.367Y-60.071
X69.85Y-84.582
X69.875Y-117.272
X70.485Y-81.026
X70.485Y-119.888
X71.12Y-116.078
X71.755Y-81.026
X71.755Y-87.757
X71.755Y-104.267
X72.161Y-91.923
X72.39Y-114.554
X72.39Y-121.793
X73.025Y-81.026
X73.025Y-87.757
X73.025Y-118.999
X73.66Y-114.173
X74.295Y-71.628
X74.295Y-81.026
X74.295Y-87.757
X74.854Y-100.051
X74.93Y-113.919
X75.159Y-69.825
X75.565Y-81.026
X75.565Y-87.757
X75.565Y-121.158
X76.784Y-133.172
X76.835Y-81.026
X76.835Y-120.523
X76.835Y-121.793
X77.089Y-86.233
X78.105Y-86.868
X78.105Y-120.523
X78.105Y-121.793
X78.74Y-66.421
X79.375Y-81.026
X79.375Y-86.868
X79.375Y-120.523
X79.375Y-121.793
X79.985Y-60.071
X80.645Y-71.374
X80.645Y-81.026
X80.645Y-91.948
X80.645Y-104.648
X80.645Y-122.047
X80.645Y-125.603
X81.305Y-67.081
X81.864Y-72.974
X81.915Y-97.663
X82.423Y-111.277
X82.441Y-112.529
X82.474Y-108.941
X82.88Y-68.453
X83.134Y-93.243
X83.185Y-71.145
X83.439Y-89.662
X83.49Y-96.139
X83.795Y-57.937
X84.099Y-91.313
X84.099Y-94.158
X84.593Y-75.906
X84.607Y-73.279
X84.912Y-112.954
X85.166Y-81.864
X85.166Y-82.982
X85.674Y-68.351
X85.674Y-133.172
X86.131Y-100.051
X86.335Y-74.549
X86.385Y-60.528
X87.249Y-56.159
X87.605Y-98.323
X88.113Y-65.253
X88.265Y-68.504
X88.265Y-73.025
X89.535Y-60.528
X89.891Y-88.062
X89.941Y-86.741
X89.941Y-97.815
X90.043Y-82.321
X90.145Y-125.146
X90.195Y-118.237
X90.348Y-115.037
X90.348Y-116.459
X90.5Y-67.691
X90.551Y-92.888
X90.703Y-98.577
X90.805Y-71.907
X90.805Y-87.401
X90.856Y-58.852
X90.856Y-88.722
X90.907Y-105.486
X90.957Y-117.424
X91.11Y-110.109
X91.11Y-114.224
X91.161Y-85.217
X91.262Y-73.939
X91.262Y-115.799
X91.618Y-67.081
X91.669Y-97.815
X91.719Y-82.728
X91.719Y-91.465
X91.821Y-92.888
X91.923Y-118.085
X92.075Y-72.365
X92.227Y-110.414
X92.38Y-114.224
X92.431Y-98.628
X92.685Y-117.272
X92.735Y-79.527
X92.939Y-113.106
X92.989Y-68.453
X92.989Y-82.321
X93.243Y-97.815
X93.294Y-86.487
X93.294Y-110.719
X93.548Y-62.967
X93.599Y-71.907
X93.599Y-114.224
X93.599Y-117.881
X93.955Y-106.604
X93.98Y-57.099
X94.005Y-98.628
X94.158Y-133.172
X94.209Y-82.067
X94.412Y-111.023
X94.513Y-113.614
X94.564Y-117.272
X94.615Y-79.731
X94.615Y-105.689
X94.818Y-97.815
X94.92Y-74.397
X95.225Y-114.529
X95.326Y-91.465
X95.529Y-80.747
X95.529Y-82.321
X95.529Y-128.651
X95.58Y-98.628
X95.682Y-117.627
X95.885Y-79.527
X95.987Y-88.113
X96.037Y-106.451
X96.393Y-97.815
X96.52Y-56.261
X96.749Y-117.272
X97.053Y-98.699
X97.104Y-105.181
X97.155Y-79.527
X97.561Y-118.034
X97.765Y-114.986
X98.374Y-80.747
X98.374Y-117.272
X98.476Y-79.527
X98.628Y-61.29
X98.73Y-92.786
X99.035Y-83.134
X99.06Y-56.134
X99.187Y-86.589
X99.187Y-118.034
X99.339Y-105.639
X99.492Y-123.419
X99.543Y-74.397
X99.797Y-111.227
X100.66Y-71.857
X100.914Y-79.934
X100.914Y-92.888
X101.168Y-56.667
X101.168Y-57.785
X101.219Y-118.085
X101.524Y-105.334
X101.575Y-80.899
X101.575Y-106.502
X101.829Y-66.167
X102.032Y-117.272
X102.133Y-83.998
X102.133Y-86.03
X102.184Y-91.465
X102.235Y-79.934
X102.489Y-111.379
X102.845Y-118.034
X102.946Y-114.376
X103.149Y-80.696
X103.251Y-83.998
X103.251Y-86.03
X103.454Y-61.29
X103.454Y-110.719
X103.454Y-124.841
X103.454Y-128.651
X103.607Y-117.272
X103.708Y-133.172
X103.911Y-68.809
X104.115Y-80.086
X104.115Y-99.816
X104.369Y-86.182
X104.419Y-118.034
X105.029Y-92.888
X105.08Y-74.346
X105.08Y-80.696
X105.181Y-117.272
X105.689Y-125.4
X106.045Y-80.035
X106.045Y-118.034
X106.299Y-91.973
X106.299Y-114.376
X106.401Y-66.167
X106.655Y-62.509
X106.655Y-130.48
X106.807Y-117.272
X106.909Y-88.163
X106.959Y-90.957
X107.061Y-68.351
X107.112Y-81.051
X107.315Y-131.394
X107.366Y-64.44
X107.417Y-55.601
X107.62Y-91.973
X107.62Y-118.034
X107.721Y-110.261
X107.905Y-124.943
X108.433Y-92.888
X108.534Y-105.486
X108.687Y-62.357
X108.89Y-111.328
X109.195Y-91.11
X109.22Y-68.066
X109.245Y-80.493
X109.245Y-90.043
X109.347Y-92.227
X109.347Y-123.673
X111.023Y-74.752
X111.023Y-133.833
X111.76Y-67.761
X114.021Y-80.137
X114.224Y-85.471
X114.3Y-67.437
X114.376Y-103.403
X114.681Y-89.941
X114.732Y-116.002
X114.833Y-109.753
X115.189Y-120.218
X115.367Y-106.121
X115.494Y-117.831
X115.646Y-104.978
X115.748Y-78.969
X116.103Y-109.683
X116.256Y-130.327
X116.586Y-111.887
X116.764Y-105.435
X116.84Y-67.056
X116.916Y-104.431
X117.069Y-124.282
X117.094Y-118.237
X117.323Y-94.107
X117.577Y-103.454
X117.729Y-130.562
X117.932Y-83.591
X118.339Y-104.318
X118.643Y-79.07
X118.999Y-86.182
X118.999Y-89.078
X119.151Y-85.065
X119.38Y-66.802
X119.659Y-88.062
X119.964Y-86.995
X120.32Y-84.557
X120.421Y-124.282
X120.574Y-133.833
X120.625Y-64.44
X120.777Y-105.943
X120.904Y-118.11
X121.285Y-85.217
X121.844Y-80.34
X121.92Y-67.818
X123.114Y-78.715
X123.165Y-79.985
X123.266Y-83.439
X123.469Y-124.435
X123.723Y-111.887
X124.46Y-68.961
X127.0Y-68.707
X127.508Y-75.946
X128.041Y-79.985
X128.041Y-84.303
X128.194Y-85.369
X128.194Y-95.987
X128.499Y-123.012
X128.778Y-75.946
X129.007Y-83.642
X129.007Y-95.072
X129.159Y-80.747
X129.311Y-85.319
X129.311Y-87.452
X129.413Y-123.622
X129.464Y-88.773
X129.54Y-64.262
X129.769Y-133.833
X129.794Y-116.459
X129.972Y-94.31
X130.048Y-75.946
X130.048Y-112.268
X130.073Y-95.58
X130.378Y-88.113
X130.378Y-89.383
X130.429Y-85.369
X130.429Y-86.487
X130.429Y-124.282
X130.48Y-82.169
X130.683Y-99.39
X131.191Y-94.31
X131.648Y-124.587
X132.08Y-68.453
X132.258Y-90.043
X132.309Y-80.543
X133.883Y-113.716
X134.62Y-68.199
X134.849Y-124.282
X134.95Y-80.442
X135.001Y-113.716
X135.153Y-89.433
X135.153Y-96.952
X135.153Y-99.543
X135.407Y-104.927
X135.814Y-117.831
X136.119Y-113.716
X136.271Y-111.785
X136.83Y-104.877
X137.16Y-67.818
X137.236Y-99.339
X137.49Y-75.362
X137.693Y-88.265
X138.049Y-80.747
X138.1Y-104.877
X138.201Y-93.65
X138.709Y-133.833
X139.116Y-97.358
X139.167Y-117.221
X139.37Y-104.673
X139.471Y-126.162
X139.573Y-99.289
X139.7Y-67.564
X140.03Y-113.055
X140.233Y-74.905
X140.233Y-127.483
X140.843Y-89.23
X140.843Y-90.5
X140.843Y-91.77
X140.843Y-93.04
X140.843Y-116.357
X140.894Y-86.639
X140.894Y-87.96
X141.199Y-94.158
X141.453Y-74.905
X141.605Y-106.756
X141.808Y-88.64
X141.808Y-89.84
X141.808Y-91.11
X141.808Y-92.38
X141.808Y-125.197
X141.859Y-87.3
X141.961Y-86.03
X142.088Y-111.912
X142.113Y-99.339
X142.113Y-130.073
X142.24Y-67.183
X142.316Y-94.767
X142.392Y-93.726
X142.723Y-74.905
X142.773Y-114.833
X142.773Y-117.78
X142.875Y-106.604
X143.078Y-98.73
X143.18Y-129.159
X143.586Y-113.868
X143.662Y-93.726
X143.942Y-117.78
X144.043Y-74.905
X144.653Y-113.208
X144.78Y-66.802
X144.78Y-93.726
X145.009Y-117.78
X145.161Y-98.781
X145.313Y-74.854
X145.923Y-93.751
X145.974Y-111.989
X145.974Y-113.259
X146.126Y-117.78
X146.583Y-74.854
X146.888Y-93.63
X147.32Y-66.548
X147.32Y-112.141
X147.752Y-74.6
X148.209Y-133.833
X148.844Y-118.11
X149.073Y-120.625
X149.073Y-131.597
X149.86Y-66.167
X150.343Y-129.718
X151.968Y-120.472
X152.832Y-131.75
X153.34Y-83.033
X153.391Y-116.408
X153.391Y-118.44
X153.746Y-64.44
X153.949Y-131.75
X154.457Y-74.092
X154.864Y-57.226
X155.118Y-131.75
X155.778Y-120.32
X156.032Y-103.454
X156.185Y-131.75
X156.54Y-65.456
X157.099Y-57.226
X157.15Y-103.454
X157.404Y-119.202
X158.267Y-131.648
X158.318Y-133.833
X158.877Y-64.033
X158.877Y-67.285
X159.283Y-68.961
X160.452Y-131.597
X161.722Y-131.597
X163.093Y-124.943
X163.855Y-126.314
X164.313Y-123.012
X164.313Y-129.057
X165.532Y-129.921
X165.583Y-127.432
X166.04Y-63.221
X166.395Y-126.619
X166.903Y-70.942
X167.005Y-128.346
X167.056Y-74.854
X167.411Y-59.563
X167.411Y-67.335
X167.411Y-88.57
X167.513Y-126.467
X167.665Y-80.391
X167.818Y-83.947
X167.919Y-133.121
X168.123Y-64.491
X168.123Y-128.092
X168.173Y-74.651
X169.342Y-70.637
X169.443Y-74.701
X169.697Y-131.089
X170.155Y-121.183
X170.612Y-65.456
X170.612Y-68.25
X170.764Y-75.311
X170.764Y-115.697
X170.917Y-103.403
X170.917Y-110.617
X170.967Y-107.518
X171.12Y-119.304
X171.221Y-108.737
X171.983Y-70.282
X171.983Y-74.854
X171.983Y-106.401
X172.187Y-109.703
X172.39Y-88.417
X172.441Y-84.15
X172.441Y-115.697
X172.491Y-108.433
X172.644Y-69.012
X172.644Y-119.355
X172.847Y-112.7
X173.253Y-70.282
X173.253Y-74.854
X173.304Y-109.55
X173.304Y-110.719
X173.863Y-69.012
X173.965Y-83.947
X173.965Y-112.7
X174.015Y-88.671
X174.168Y-78.461
X174.32Y-103.403
X174.324Y-119.355
X174.473Y-70.282
X174.523Y-75.159
X174.828Y-115.697
X174.91Y-109.093
X174.93Y-112.039
X175.082Y-84.607
X175.082Y-88.671
X175.539Y-83.439
X175.539Y-119.913
X175.793Y-75.362
X175.895Y-89.484
X176.047Y-114.427
X176.2Y-110.617
X176.555Y-88.57
X176.555Y-124.536
X176.555Y-128.803
X176.606Y-83.744
X176.911Y-119.405
X176.962Y-113.817
X177.013Y-112.751
X177.063Y-76.124
X177.267Y-82.728
X177.317Y-115.748
X177.368Y-56.972
X177.927Y-67.488
X177.927Y-84.049
X177.927Y-111.938
X178.181Y-113.106
X178.537Y-83.083
X179.095Y-119.405
X179.197Y-84.049
X179.197Y-113.36
X179.451Y-114.376
X179.705Y-108.433
X179.807Y-83.083
X179.959Y-115.697
X180.162Y-103.454
X180.213Y-127.432
X180.264Y-111.531
X180.264Y-112.649
X180.315Y-88.367
X180.467Y-84.099
X180.569Y-89.637
X180.569Y-113.868
X180.924Y-81.661
X181.077Y-83.083
X181.077Y-133.121
X181.178Y-67.488
X181.229Y-110.871
X181.585Y-109.55
X181.737Y-107.315
X182.194Y-70.841
X182.397Y-100.609
X182.55Y-112.954
X182.702Y-83.591
X183.007Y-99.695
X183.007Y-105.385
X183.109Y-113.919
X183.464Y-106.655
X183.515Y-98.507
X183.871Y-112.649
X183.921Y-104.724
X184.125Y-97.612
X184.175Y-70.739
X184.379Y-113.767
X184.404Y-115.824
X184.531Y-58.039
X184.531Y-60.376
X184.582Y-105.994
X184.734Y-96.647
X184.816Y-88.367
X184.887Y-104.115
X184.912Y-120.396
X185.039Y-126.416
X185.141Y-112.649
X185.395Y-95.377
X185.598Y-113.767
X185.852Y-66.065
X186.004Y-94.412
X186.411Y-112.649
X186.461Y-93.345
X186.614Y-90.856
X186.817Y-97.257
X186.868Y-114.071
X187.071Y-57.887
X187.071Y-61.697
X187.122Y-81.559
X187.122Y-133.121
X187.173Y-80.442
X187.173Y-121.437
X187.274Y-89.941
X187.63Y-113.309
X187.833Y-126.365
X187.884Y-90.856
X188.087Y-102.997
X188.189Y-114.376
X188.189Y-115.443
X188.392Y-80.442
X188.392Y-81.61
X188.544Y-89.941
X188.646Y-112.192
X189.103Y-58.039
X189.205Y-90.856
X189.255Y-113.208
X189.611Y-60.122
X189.611Y-110.617
X189.713Y-80.442
X189.713Y-81.61
X189.865Y-89.941
X189.916Y-112.141
X190.068Y-49.962
X190.373Y-109.804
X190.414Y-114.722
X190.881Y-57.734
X190.932Y-81.61
X190.932Y-91.872
X190.963Y-80.442
X191.084Y-66.065
X191.186Y-108.991
X191.287Y-111.887
X191.389Y-89.179
X191.897Y-127.483
X191.948Y-113.055
X191.999Y-108.179
X192.049Y-90.195
X192.253Y-80.442
X192.253Y-81.61
X192.608Y-111.379
X192.71Y-89.179
X193.015Y-93.955
X193.065Y-115.341
X193.218Y-113.055
X193.319Y-80.594
X193.319Y-90.195
X193.421Y-61.747
X193.827Y-111.836
X194.234Y-89.179
X194.285Y-92.837
X194.437Y-80.645
X194.488Y-110.922
X194.894Y-90.145
X195.097Y-84.455
X195.148Y-111.887
X195.402Y-58.445
X195.859Y-66.065
X195.859Y-88.367
X195.859Y-89.535
X196.063Y-113.259
X196.113Y-111.227
X196.113Y-114.427
X196.317Y-79.223
X196.367Y-84.455
X196.418Y-99.847
X196.621Y-61.443
X196.723Y-112.192
X196.977Y-125.4
X197.231Y-53.772
X197.282Y-83.795
X197.587Y-93.599
X197.942Y-119.151
X197.993Y-115.341
X198.044Y-89.027
X198.095Y-80.95
X198.298Y-113.462
X198.501Y-61.443
X199.111Y-115.697
X199.212Y-128.397
X199.517Y-81.102
X199.771Y-53.772
X199.771Y-65.71
X200.736Y-126.517
X200.939Y-81.559
X201.092Y-58.445
X201.346Y-49.962
X201.752Y-53.772
X201.803Y-115.672
X201.854Y-80.899
X202.006Y-105.385
X202.057Y-61.595
X202.108Y-98.374
X202.108Y-100.66
X202.209Y-92.837
X202.514Y-81.915
X202.692Y-119.177
X203.378Y-81.255
X203.581Y-61.595
X203.581Y-107.163
X203.835Y-119.151
X203.886Y-127.483
X203.987Y-116.662
X203.987Y-117.78
X204.089Y-82.22
X204.191Y-100.101
X204.495Y-96.342
X204.546Y-109.906
X204.648Y-79.273
X204.648Y-114.579
X204.8Y-118.44
X204.902Y-81.255
X205.105Y-116.51
X205.105Y-133.121
X205.156Y-129.921
X205.207Y-109.042
X205.308Y-107.061
X205.461Y-61.595
X205.511Y-71.196
X205.562Y-115.392
X205.664Y-101.727
X206.121Y-92.532
X206.121Y-97.612
X206.324Y-95.072
X206.477Y-126.467
X206.527Y-116.002
X206.629Y-110.211
X206.68Y-119.151
X206.781Y-111.531
X206.934Y-108.941
X207.035Y-107.874
X207.086Y-105.435
X207.086Y-106.705
X207.645Y-89.535
X207.645Y-114.529
X207.747Y-119.151
X208.102Y-110.211
X208.356Y-106.756
X208.356Y-108.179
X208.407Y-111.531
X208.661Y-105.537
X208.915Y-104.216
X209.169Y-84.15
X209.169Y-100.711
X209.271Y-86.69
X209.321Y-103.099
X209.321Y-109.957
X209.321Y-113.665
X209.677Y-101.829
X209.728Y-111.176
X210.337Y-127.381
X210.439Y-100.711
X210.591Y-89.433
X210.591Y-110.515
X210.642Y-49.962
X210.693Y-129.921
X210.998Y-112.141
X210.998Y-113.411
X210.998Y-114.681
X210.998Y-115.951
X210.998Y-117.221
X210.998Y-118.491
X210.998Y-119.761
X210.998Y-121.031
X211.455Y-125.4
X211.506Y-83.236
X211.811Y-99.441
X211.836Y-100.711
X211.836Y-101.981
X211.861Y-75.311
X211.861Y-82.017
X211.918Y-103.251
X212.115Y-66.624
X212.115Y-74.041
X212.217Y-104.521
X212.852Y-123.571
X214.147Y-123.774
X216.383Y-124.892
X216.941Y-59.817
X217.907Y-100.711
X218.567Y-89.941
X219.126Y-104.521
X219.837Y-49.962
X220.599Y-124.536
X221.92Y-133.121
X223.241Y-124.689
X224.917Y-101.981
X225.12Y-77.851
X225.12Y-80.391
X225.12Y-99.441
X225.12Y-121.133
X225.476Y-82.626
X225.476Y-126.517
X225.577Y-93.802
X229.845Y-85.725
X229.845Y-96.088
X229.845Y-103.505
X229.845Y-113.817
X229.845Y-119.558
X229.895Y-128.753
X229.946Y-53.111
X229.946Y-67.488
X229.946Y-72.365
T2
X55.245Y-70.866
X55.245Y-75.866
X55.245Y-80.471
X55.245Y-85.471
X57.15Y-91.279
X57.15Y-93.779
X57.15Y-96.279
X57.15Y-98.779
X57.15Y-101.279
X57.15Y-103.779
X57.15Y-106.279
X57.15Y-108.779
X57.15Y-111.279
X57.15Y-113.779
X57.15Y-116.279
X59.69Y-92.529
X59.69Y-95.029
X59.69Y-97.529
X59.69Y-100.029
X59.69Y-102.529
X59.69Y-105.029
X59.69Y-107.529
X59.69Y-110.029
X59.69Y-112.529
X59.69Y-115.029
X104.14Y-57.404
X104.14Y-72.644
X106.68Y-57.404
X106.68Y-72.644
X108.758Y-128.651
X109.22Y-57.404
X109.22Y-72.644
X110.008Y-126.111
X111.258Y-128.651
X111.76Y-57.404
X111.76Y-72.644
X112.508Y-126.111
X113.758Y-128.651
X114.3Y-57.404
X114.3Y-72.644
X115.008Y-126.111
X116.258Y-128.651
X116.84Y-57.404
X116.84Y-72.644
X117.508Y-126.111
X118.758Y-128.651
X119.38Y-57.404
X119.38Y-72.644
X120.008Y-126.111
X121.258Y-128.651
X121.92Y-57.404
X121.92Y-72.644
X122.508Y-126.111
X123.758Y-128.651
X124.46Y-57.404
X124.46Y-72.644
X125.008Y-126.111
X126.258Y-128.651
X127.0Y-57.404
X127.0Y-72.644
X127.508Y-126.111
X128.758Y-128.651
X129.54Y-57.404
X129.54Y-72.644
X130.008Y-126.111
X131.258Y-128.651
X132.08Y-57.404
X132.08Y-72.644
X132.508Y-126.111
X133.758Y-128.651
X134.62Y-57.404
X134.62Y-72.644
X135.008Y-126.111
X136.258Y-128.651
X137.16Y-57.404
X137.16Y-72.644
X137.508Y-126.111
X138.758Y-128.651
X139.7Y-57.404
X139.7Y-72.644
X142.24Y-57.404
X142.24Y-72.644
X144.78Y-57.404
X144.78Y-72.644
X146.558Y-124.841
X146.558Y-129.841
X147.32Y-57.404
X147.32Y-72.644
X149.86Y-57.404
X149.86Y-72.644
X152.4Y-57.404
X152.4Y-72.644
X187.071Y-69.012
X187.071Y-76.632
X202.311Y-69.012
X202.311Y-76.632
X213.741Y-72.771
X213.741Y-75.311
X213.741Y-77.851
X213.741Y-80.391
X213.741Y-82.931
X213.741Y-85.471
X213.741Y-88.011
X213.741Y-90.551
X213.741Y-93.091
X213.741Y-95.631
X213.741Y-98.171
X213.741Y-100.711
X213.741Y-103.251
X213.741Y-105.791
X213.741Y-108.331
X213.741Y-110.871
X213.741Y-113.411
X213.741Y-115.951
X213.741Y-118.491
X213.741Y-121.031
X216.281Y-74.041
X216.281Y-76.581
X216.281Y-79.121
X216.281Y-81.661
X216.281Y-84.201
X216.281Y-86.741
X216.281Y-89.281
X216.281Y-91.821
X216.281Y-94.361
X216.281Y-96.901
X216.281Y-99.441
X216.281Y-101.981
X216.281Y-104.521
X216.281Y-107.061
X216.281Y-109.601
X216.281Y-112.141
X216.281Y-114.681
X216.281Y-117.221
X216.281Y-119.761
X216.281Y-122.301
X220.726Y-72.771
X220.726Y-75.311
X220.726Y-77.851
X220.726Y-80.391
X220.726Y-82.931
X220.726Y-85.471
X220.726Y-88.011
X220.726Y-90.551
X220.726Y-93.091
X220.726Y-95.631
X220.726Y-98.171
X220.726Y-100.711
X220.726Y-103.251
X220.726Y-105.791
X220.726Y-108.331
X220.726Y-110.871
X220.726Y-113.411
X220.726Y-115.951
X220.726Y-118.491
X220.726Y-121.031
X223.266Y-74.041
X223.266Y-76.581
X223.266Y-79.121
X223.266Y-81.661
X223.266Y-84.201
X223.266Y-86.741
X223.266Y-89.281
X223.266Y-91.821
X223.266Y-94.361
X223.266Y-96.901
X223.266Y-99.441
X223.266Y-101.981
X223.266Y-104.521
X223.266Y-107.061
X223.266Y-109.601
X223.266Y-112.141
X223.266Y-114.681
X223.266Y-117.221
X223.266Y-119.761
X223.266Y-122.301
X226.949Y-84.836
X226.949Y-87.376
X226.949Y-127.508
X226.949Y-130.048
T3
X97.409Y-64.897
X97.409Y-71.897
X118.618Y-91.821
X118.618Y-100.821
X151.064Y-110.871
X151.064Y-117.272
X158.064Y-110.871
X158.064Y-117.272
X172.695Y-123.835
X172.695Y-130.835
X175.895Y-79.756
X180.213Y-123.825
X180.213Y-130.825
X182.895Y-79.756
X208.534Y-70.358
X208.534Y-77.358
T4
X208.813Y-54.381
X208.813Y-64.541
X224.053Y-59.461
X226.593Y-59.461
T5
X86.995Y-128.671
X89.535Y-128.671
X92.075Y-128.671
X156.083Y-82.931
X156.083Y-85.471
X156.083Y-88.011
X162.433Y-113.03
X162.433Y-115.57
X162.433Y-118.11
T0
M30
