G04 #@! TF.GenerationSoftware,KiCad,Pcbnew,7.0.2-0*
G04 #@! TF.CreationDate,2023-06-03T15:33:09+02:00*
G04 #@! TF.ProjectId,MegaCD,4d656761-4344-42e6-9b69-6361645f7063,rev?*
G04 #@! TF.SameCoordinates,Original*
G04 #@! TF.FileFunction,Soldermask,Bot*
G04 #@! TF.FilePolarity,Negative*
%FSLAX46Y46*%
G04 Gerber Fmt 4.6, Leading zero omitted, Abs format (unit mm)*
G04 Created by KiCad (PCBNEW 7.0.2-0) date 2023-06-03 15:33:09*
%MOMM*%
%LPD*%
G01*
G04 APERTURE LIST*
G04 Aperture macros list*
%AMRoundRect*
0 Rectangle with rounded corners*
0 $1 Rounding radius*
0 $2 $3 $4 $5 $6 $7 $8 $9 X,Y pos of 4 corners*
0 Add a 4 corners polygon primitive as box body*
4,1,4,$2,$3,$4,$5,$6,$7,$8,$9,$2,$3,0*
0 Add four circle primitives for the rounded corners*
1,1,$1+$1,$2,$3*
1,1,$1+$1,$4,$5*
1,1,$1+$1,$6,$7*
1,1,$1+$1,$8,$9*
0 Add four rect primitives between the rounded corners*
20,1,$1+$1,$2,$3,$4,$5,0*
20,1,$1+$1,$4,$5,$6,$7,0*
20,1,$1+$1,$6,$7,$8,$9,0*
20,1,$1+$1,$8,$9,$2,$3,0*%
G04 Aperture macros list end*
%ADD10C,2.767879*%
%ADD11C,0.150000*%
%ADD12R,1.400000X1.300000*%
%ADD13RoundRect,0.325000X0.375000X-0.325000X0.375000X0.325000X-0.375000X0.325000X-0.375000X-0.325000X0*%
%ADD14C,1.600000*%
%ADD15RoundRect,0.255319X-0.394681X-0.344681X0.394681X-0.344681X0.394681X0.344681X-0.394681X0.344681X0*%
G04 APERTURE END LIST*
D10*
X231990539Y-107721400D02*
G75*
G03*
X231990539Y-107721400I-1383939J0D01*
G01*
G36*
X231105200Y-48285400D02*
G01*
X232105200Y-48285400D01*
X232105200Y-134696200D01*
X231105200Y-134696200D01*
X231105200Y-48285400D01*
G37*
D11*
X225145600Y-132435600D02*
X227914200Y-132435600D01*
X227914200Y-135255000D01*
X225145600Y-135255000D01*
X225145600Y-132435600D01*
G36*
X225145600Y-132435600D02*
G01*
X227914200Y-132435600D01*
X227914200Y-135255000D01*
X225145600Y-135255000D01*
X225145600Y-132435600D01*
G37*
G36*
X46202600Y-135728200D02*
G01*
X234086400Y-135728200D01*
X234086400Y-136702800D01*
X46202600Y-136702800D01*
X46202600Y-135728200D01*
G37*
G36*
X48234600Y-48742600D02*
G01*
X49242600Y-48742600D01*
X49242600Y-132816600D01*
X48234600Y-132816600D01*
X48234600Y-48742600D01*
G37*
G36*
X46202600Y-47091600D02*
G01*
X47202600Y-47091600D01*
X47202600Y-136702800D01*
X46202600Y-136702800D01*
X46202600Y-47091600D01*
G37*
G36*
X173202600Y-48285400D02*
G01*
X232105200Y-48285400D01*
X232105200Y-49269400D01*
X173202600Y-49269400D01*
X173202600Y-48285400D01*
G37*
G36*
X50749200Y-133696200D02*
G01*
X224561400Y-133696200D01*
X224561400Y-134696200D01*
X50749200Y-134696200D01*
X50749200Y-133696200D01*
G37*
G36*
X46202600Y-46253400D02*
G01*
X68097400Y-46253400D01*
X68097400Y-47253400D01*
X46202600Y-47253400D01*
X46202600Y-46253400D01*
G37*
G36*
X173202600Y-46278800D02*
G01*
X234086400Y-46278800D01*
X234086400Y-47261400D01*
X173202600Y-47261400D01*
X173202600Y-46278800D01*
G37*
X51714400Y-51231800D02*
X54483000Y-51231800D01*
X54483000Y-54051200D01*
X51714400Y-54051200D01*
X51714400Y-51231800D01*
G36*
X51714400Y-51231800D02*
G01*
X54483000Y-51231800D01*
X54483000Y-54051200D01*
X51714400Y-54051200D01*
X51714400Y-51231800D01*
G37*
G36*
X228473000Y-133696200D02*
G01*
X232105200Y-133696200D01*
X232105200Y-134696200D01*
X228473000Y-134696200D01*
X228473000Y-133696200D01*
G37*
G36*
X233086400Y-46278800D02*
G01*
X234086400Y-46278800D01*
X234086400Y-136702800D01*
X233086400Y-136702800D01*
X233086400Y-46278800D01*
G37*
G36*
X48234600Y-48242600D02*
G01*
X68148200Y-48242600D01*
X68148200Y-49242600D01*
X48234600Y-49242600D01*
X48234600Y-48242600D01*
G37*
D12*
X119380000Y-117221000D03*
D13*
X120650000Y-114681000D03*
X121920000Y-117221000D03*
X123190000Y-114681000D03*
X124460000Y-117221000D03*
X125730000Y-114681000D03*
X127000000Y-117221000D03*
X128270000Y-114681000D03*
X129540000Y-117221000D03*
X130810000Y-114681000D03*
X132080000Y-117221000D03*
X133350000Y-114681000D03*
X134620000Y-117221000D03*
X135890000Y-114681000D03*
X137160000Y-117221000D03*
X138430000Y-114681000D03*
X139700000Y-117221000D03*
X140970000Y-114681000D03*
X142240000Y-117221000D03*
X143510000Y-114681000D03*
D14*
X174752000Y-126599000D03*
X174752000Y-124099000D03*
D12*
X148209000Y-124790200D03*
D13*
X149479000Y-122250200D03*
X150749000Y-124790200D03*
X152019000Y-122250200D03*
X153289000Y-124790200D03*
X154559000Y-122250200D03*
X155829000Y-124790200D03*
X157099000Y-122250200D03*
X158369000Y-124790200D03*
X159639000Y-122250200D03*
X160909000Y-124790200D03*
X162179000Y-122250200D03*
X163449000Y-124790200D03*
X164719000Y-122250200D03*
X165989000Y-124790200D03*
X167259000Y-122250200D03*
X168529000Y-124790200D03*
X169799000Y-122250200D03*
X171069000Y-124790200D03*
X172339000Y-122250200D03*
D12*
X119380000Y-110312200D03*
D13*
X120650000Y-107772200D03*
X121920000Y-110312200D03*
X123190000Y-107772200D03*
X124460000Y-110312200D03*
X125730000Y-107772200D03*
X127000000Y-110312200D03*
X128270000Y-107772200D03*
X129540000Y-110312200D03*
X130810000Y-107772200D03*
X132080000Y-110312200D03*
X133350000Y-107772200D03*
X134620000Y-110312200D03*
X135890000Y-107772200D03*
X137160000Y-110312200D03*
X138430000Y-107772200D03*
X139700000Y-110312200D03*
X140970000Y-107772200D03*
X142240000Y-110312200D03*
X143510000Y-107772200D03*
D12*
X148209000Y-130835400D03*
D13*
X149479000Y-128295400D03*
X150749000Y-130835400D03*
X152019000Y-128295400D03*
X153289000Y-130835400D03*
X154559000Y-128295400D03*
X155829000Y-130835400D03*
X157099000Y-128295400D03*
X158369000Y-130835400D03*
X159639000Y-128295400D03*
X160909000Y-130835400D03*
X162179000Y-128295400D03*
X163449000Y-130835400D03*
X164719000Y-128295400D03*
X165989000Y-130835400D03*
X167259000Y-128295400D03*
X168529000Y-130835400D03*
X169799000Y-128295400D03*
X171069000Y-130835400D03*
X172339000Y-128295400D03*
D15*
X148336000Y-118364000D03*
X150622000Y-118364000D03*
M02*
