%TF.GenerationSoftware,KiCad,Pcbnew,7.0.2-0*%
%TF.CreationDate,2023-08-19T01:30:22+02:00*%
%TF.ProjectId,MegaCD,4d656761-4344-42e6-9b69-6361645f7063,rev?*%
%TF.SameCoordinates,Original*%
%TF.FileFunction,Drillmap*%
%TF.FilePolarity,Positive*%
%FSLAX45Y45*%
G04 Gerber Fmt 4.5, Leading zero omitted, Abs format (unit mm)*
G04 Created by KiCad (PCBNEW 7.0.2-0) date 2023-08-19 01:30:22*
%MOMM*%
%LPD*%
G01*
G04 APERTURE LIST*
%ADD10C,0.100000*%
%ADD11C,0.200000*%
%ADD12C,0.040000*%
%ADD13C,0.080000*%
G04 APERTURE END LIST*
D10*
X14592300Y-13208000D02*
G75*
G03*
X14693900Y-13309600I101600J0D01*
G01*
X17538700Y-13309600D02*
G75*
G03*
X17640300Y-13208000I0J101600D01*
G01*
X14592300Y-12052300D02*
X14592300Y-13208000D01*
X17640300Y-13208000D02*
X17640300Y-10490200D01*
X11709400Y-11849100D02*
G75*
G03*
X11811000Y-11950700I101600J0D01*
G01*
X11811000Y-10388600D02*
G75*
G03*
X11709400Y-10490200I0J-101600D01*
G01*
X11811000Y-11950700D02*
X14490700Y-11950700D01*
X11709400Y-11849100D02*
X11709400Y-10490200D01*
X11811000Y-10388600D02*
X17538700Y-10388600D01*
X14693900Y-13309600D02*
X17538700Y-13309600D01*
X17640300Y-10490200D02*
G75*
G03*
X17538700Y-10388600I-101600J0D01*
G01*
X14592300Y-12052300D02*
G75*
G03*
X14490700Y-11950700I-101600J0D01*
G01*
D11*
D12*
X12934000Y-10863900D02*
X12974000Y-10903900D01*
X12974000Y-10863900D02*
X12934000Y-10903900D01*
X14407200Y-11003600D02*
X14447200Y-11043600D01*
X14447200Y-11003600D02*
X14407200Y-11043600D01*
X14610400Y-11498900D02*
X14650400Y-11538900D01*
X14650400Y-11498900D02*
X14610400Y-11538900D01*
X14661200Y-10444800D02*
X14701200Y-10484800D01*
X14701200Y-10444800D02*
X14661200Y-10484800D01*
X14828830Y-11953570D02*
X14868830Y-11993570D01*
X14868830Y-11953570D02*
X14828830Y-11993570D01*
X14926830Y-12031230D02*
X14966830Y-12071230D01*
X14966830Y-12031230D02*
X14926830Y-12071230D01*
X14953300Y-11460800D02*
X14993300Y-11500800D01*
X14993300Y-11460800D02*
X14953300Y-11500800D01*
X15042200Y-12032300D02*
X15082200Y-12072300D01*
X15082200Y-12032300D02*
X15042200Y-12072300D01*
X15080300Y-10935600D02*
X15120300Y-10975600D01*
X15120300Y-10935600D02*
X15080300Y-10975600D01*
X15334300Y-10965500D02*
X15374300Y-11005500D01*
X15374300Y-10965500D02*
X15334300Y-11005500D01*
X15334300Y-11460800D02*
X15374300Y-11500800D01*
X15374300Y-11460800D02*
X15334300Y-11500800D01*
X15461300Y-10965500D02*
X15501300Y-11005500D01*
X15501300Y-10965500D02*
X15461300Y-11005500D01*
X15588300Y-11422700D02*
X15628300Y-11462700D01*
X15628300Y-11422700D02*
X15588300Y-11462700D01*
X15689900Y-12629200D02*
X15729900Y-12669200D01*
X15729900Y-12629200D02*
X15689900Y-12669200D01*
X15715300Y-11422700D02*
X15755300Y-11462700D01*
X15755300Y-11422700D02*
X15715300Y-11462700D01*
X16346681Y-11172319D02*
X16386681Y-11212319D01*
X16386681Y-11172319D02*
X16346681Y-11212319D01*
X16451900Y-12629200D02*
X16491900Y-12669200D01*
X16491900Y-12629200D02*
X16451900Y-12669200D01*
X16477300Y-10952800D02*
X16517300Y-10992800D01*
X16517300Y-10952800D02*
X16477300Y-10992800D01*
X16477300Y-11410000D02*
X16517300Y-11450000D01*
X16517300Y-11410000D02*
X16477300Y-11450000D01*
X16959900Y-11194100D02*
X16999900Y-11234100D01*
X16999900Y-11194100D02*
X16959900Y-11234100D01*
X16985300Y-10940100D02*
X17025300Y-10980100D01*
X17025300Y-10940100D02*
X16985300Y-10980100D01*
X17086900Y-11232200D02*
X17126900Y-11272200D01*
X17126900Y-11232200D02*
X17086900Y-11272200D01*
X17112300Y-11041700D02*
X17152300Y-11081700D01*
X17152300Y-11041700D02*
X17112300Y-11081700D01*
X17213900Y-11333800D02*
X17253900Y-11373800D01*
X17253900Y-11333800D02*
X17213900Y-11373800D01*
X17239300Y-10952800D02*
X17279300Y-10992800D01*
X17279300Y-10952800D02*
X17239300Y-10992800D01*
X17467900Y-13137200D02*
X17507900Y-13177200D01*
X17507900Y-13137200D02*
X17467900Y-13177200D01*
X17493300Y-10495600D02*
X17533300Y-10535600D01*
X17533300Y-10495600D02*
X17493300Y-10535600D01*
D13*
X11978000Y-11031220D02*
G75*
G03*
X11978000Y-11031220I-40000J0D01*
G01*
X11978000Y-11722100D02*
G75*
G03*
X11978000Y-11722100I-40000J0D01*
G01*
X12105000Y-10777220D02*
G75*
G03*
X12105000Y-10777220I-40000J0D01*
G01*
X12105000Y-11468100D02*
G75*
G03*
X12105000Y-11468100I-40000J0D01*
G01*
X12232000Y-11031220D02*
G75*
G03*
X12232000Y-11031220I-40000J0D01*
G01*
X12232000Y-11722100D02*
G75*
G03*
X12232000Y-11722100I-40000J0D01*
G01*
X12359000Y-10777220D02*
G75*
G03*
X12359000Y-10777220I-40000J0D01*
G01*
X12359000Y-11468100D02*
G75*
G03*
X12359000Y-11468100I-40000J0D01*
G01*
X12486000Y-11031220D02*
G75*
G03*
X12486000Y-11031220I-40000J0D01*
G01*
X12486000Y-11722100D02*
G75*
G03*
X12486000Y-11722100I-40000J0D01*
G01*
X12613000Y-10777220D02*
G75*
G03*
X12613000Y-10777220I-40000J0D01*
G01*
X12613000Y-11468100D02*
G75*
G03*
X12613000Y-11468100I-40000J0D01*
G01*
X12740000Y-11031220D02*
G75*
G03*
X12740000Y-11031220I-40000J0D01*
G01*
X12740000Y-11722100D02*
G75*
G03*
X12740000Y-11722100I-40000J0D01*
G01*
X12867000Y-10777220D02*
G75*
G03*
X12867000Y-10777220I-40000J0D01*
G01*
X12867000Y-11468100D02*
G75*
G03*
X12867000Y-11468100I-40000J0D01*
G01*
X12994000Y-11031220D02*
G75*
G03*
X12994000Y-11031220I-40000J0D01*
G01*
X12994000Y-11722100D02*
G75*
G03*
X12994000Y-11722100I-40000J0D01*
G01*
X13121000Y-10777220D02*
G75*
G03*
X13121000Y-10777220I-40000J0D01*
G01*
X13121000Y-11468100D02*
G75*
G03*
X13121000Y-11468100I-40000J0D01*
G01*
X13248000Y-11031220D02*
G75*
G03*
X13248000Y-11031220I-40000J0D01*
G01*
X13248000Y-11722100D02*
G75*
G03*
X13248000Y-11722100I-40000J0D01*
G01*
X13375000Y-10777220D02*
G75*
G03*
X13375000Y-10777220I-40000J0D01*
G01*
X13375000Y-11468100D02*
G75*
G03*
X13375000Y-11468100I-40000J0D01*
G01*
X13502000Y-11031220D02*
G75*
G03*
X13502000Y-11031220I-40000J0D01*
G01*
X13502000Y-11722100D02*
G75*
G03*
X13502000Y-11722100I-40000J0D01*
G01*
X13629000Y-10777220D02*
G75*
G03*
X13629000Y-10777220I-40000J0D01*
G01*
X13629000Y-11468100D02*
G75*
G03*
X13629000Y-11468100I-40000J0D01*
G01*
X13756000Y-11031220D02*
G75*
G03*
X13756000Y-11031220I-40000J0D01*
G01*
X13756000Y-11722100D02*
G75*
G03*
X13756000Y-11722100I-40000J0D01*
G01*
X13883000Y-10777220D02*
G75*
G03*
X13883000Y-10777220I-40000J0D01*
G01*
X13883000Y-11468100D02*
G75*
G03*
X13883000Y-11468100I-40000J0D01*
G01*
X14010000Y-11031220D02*
G75*
G03*
X14010000Y-11031220I-40000J0D01*
G01*
X14010000Y-11722100D02*
G75*
G03*
X14010000Y-11722100I-40000J0D01*
G01*
X14137000Y-10777220D02*
G75*
G03*
X14137000Y-10777220I-40000J0D01*
G01*
X14137000Y-11468100D02*
G75*
G03*
X14137000Y-11468100I-40000J0D01*
G01*
X14264000Y-11031220D02*
G75*
G03*
X14264000Y-11031220I-40000J0D01*
G01*
X14264000Y-11722100D02*
G75*
G03*
X14264000Y-11722100I-40000J0D01*
G01*
X14391000Y-10777220D02*
G75*
G03*
X14391000Y-10777220I-40000J0D01*
G01*
X14391000Y-11468100D02*
G75*
G03*
X14391000Y-11468100I-40000J0D01*
G01*
X14860900Y-12479020D02*
G75*
G03*
X14860900Y-12479020I-40000J0D01*
G01*
X14860900Y-13083540D02*
G75*
G03*
X14860900Y-13083540I-40000J0D01*
G01*
X14987900Y-12225020D02*
G75*
G03*
X14987900Y-12225020I-40000J0D01*
G01*
X14987900Y-12829540D02*
G75*
G03*
X14987900Y-12829540I-40000J0D01*
G01*
X15114900Y-12479020D02*
G75*
G03*
X15114900Y-12479020I-40000J0D01*
G01*
X15114900Y-13083540D02*
G75*
G03*
X15114900Y-13083540I-40000J0D01*
G01*
X15241900Y-12225020D02*
G75*
G03*
X15241900Y-12225020I-40000J0D01*
G01*
X15241900Y-12829540D02*
G75*
G03*
X15241900Y-12829540I-40000J0D01*
G01*
X15368900Y-12479020D02*
G75*
G03*
X15368900Y-12479020I-40000J0D01*
G01*
X15368900Y-13083540D02*
G75*
G03*
X15368900Y-13083540I-40000J0D01*
G01*
X15495900Y-12225020D02*
G75*
G03*
X15495900Y-12225020I-40000J0D01*
G01*
X15495900Y-12829540D02*
G75*
G03*
X15495900Y-12829540I-40000J0D01*
G01*
X15622900Y-12479020D02*
G75*
G03*
X15622900Y-12479020I-40000J0D01*
G01*
X15622900Y-13083540D02*
G75*
G03*
X15622900Y-13083540I-40000J0D01*
G01*
X15749900Y-12225020D02*
G75*
G03*
X15749900Y-12225020I-40000J0D01*
G01*
X15749900Y-12829540D02*
G75*
G03*
X15749900Y-12829540I-40000J0D01*
G01*
X15876900Y-12479020D02*
G75*
G03*
X15876900Y-12479020I-40000J0D01*
G01*
X15876900Y-13083540D02*
G75*
G03*
X15876900Y-13083540I-40000J0D01*
G01*
X16003900Y-12225020D02*
G75*
G03*
X16003900Y-12225020I-40000J0D01*
G01*
X16003900Y-12829540D02*
G75*
G03*
X16003900Y-12829540I-40000J0D01*
G01*
X16130900Y-12479020D02*
G75*
G03*
X16130900Y-12479020I-40000J0D01*
G01*
X16130900Y-13083540D02*
G75*
G03*
X16130900Y-13083540I-40000J0D01*
G01*
X16257900Y-12225020D02*
G75*
G03*
X16257900Y-12225020I-40000J0D01*
G01*
X16257900Y-12829540D02*
G75*
G03*
X16257900Y-12829540I-40000J0D01*
G01*
X16384900Y-12479020D02*
G75*
G03*
X16384900Y-12479020I-40000J0D01*
G01*
X16384900Y-13083540D02*
G75*
G03*
X16384900Y-13083540I-40000J0D01*
G01*
X16511900Y-12225020D02*
G75*
G03*
X16511900Y-12225020I-40000J0D01*
G01*
X16511900Y-12829540D02*
G75*
G03*
X16511900Y-12829540I-40000J0D01*
G01*
X16638900Y-12479020D02*
G75*
G03*
X16638900Y-12479020I-40000J0D01*
G01*
X16638900Y-13083540D02*
G75*
G03*
X16638900Y-13083540I-40000J0D01*
G01*
X16765900Y-12225020D02*
G75*
G03*
X16765900Y-12225020I-40000J0D01*
G01*
X16765900Y-12829540D02*
G75*
G03*
X16765900Y-12829540I-40000J0D01*
G01*
X16892900Y-12479020D02*
G75*
G03*
X16892900Y-12479020I-40000J0D01*
G01*
X16892900Y-13083540D02*
G75*
G03*
X16892900Y-13083540I-40000J0D01*
G01*
X17019900Y-12225020D02*
G75*
G03*
X17019900Y-12225020I-40000J0D01*
G01*
X17019900Y-12829540D02*
G75*
G03*
X17019900Y-12829540I-40000J0D01*
G01*
X17146900Y-12479020D02*
G75*
G03*
X17146900Y-12479020I-40000J0D01*
G01*
X17146900Y-13083540D02*
G75*
G03*
X17146900Y-13083540I-40000J0D01*
G01*
X17273900Y-12225020D02*
G75*
G03*
X17273900Y-12225020I-40000J0D01*
G01*
X17273900Y-12829540D02*
G75*
G03*
X17273900Y-12829540I-40000J0D01*
G01*
X17515200Y-12409900D02*
G75*
G03*
X17515200Y-12409900I-40000J0D01*
G01*
X17515200Y-12659900D02*
G75*
G03*
X17515200Y-12659900I-40000J0D01*
G01*
D11*
X11952019Y-13627124D02*
X11952019Y-13427124D01*
X11952019Y-13427124D02*
X11999638Y-13427124D01*
X11999638Y-13427124D02*
X12028209Y-13436648D01*
X12028209Y-13436648D02*
X12047257Y-13455695D01*
X12047257Y-13455695D02*
X12056781Y-13474743D01*
X12056781Y-13474743D02*
X12066305Y-13512838D01*
X12066305Y-13512838D02*
X12066305Y-13541409D01*
X12066305Y-13541409D02*
X12056781Y-13579505D01*
X12056781Y-13579505D02*
X12047257Y-13598552D01*
X12047257Y-13598552D02*
X12028209Y-13617600D01*
X12028209Y-13617600D02*
X11999638Y-13627124D01*
X11999638Y-13627124D02*
X11952019Y-13627124D01*
X12152019Y-13627124D02*
X12152019Y-13493790D01*
X12152019Y-13531886D02*
X12161543Y-13512838D01*
X12161543Y-13512838D02*
X12171067Y-13503314D01*
X12171067Y-13503314D02*
X12190114Y-13493790D01*
X12190114Y-13493790D02*
X12209162Y-13493790D01*
X12275828Y-13627124D02*
X12275828Y-13493790D01*
X12275828Y-13427124D02*
X12266305Y-13436648D01*
X12266305Y-13436648D02*
X12275828Y-13446171D01*
X12275828Y-13446171D02*
X12285352Y-13436648D01*
X12285352Y-13436648D02*
X12275828Y-13427124D01*
X12275828Y-13427124D02*
X12275828Y-13446171D01*
X12399638Y-13627124D02*
X12380590Y-13617600D01*
X12380590Y-13617600D02*
X12371067Y-13598552D01*
X12371067Y-13598552D02*
X12371067Y-13427124D01*
X12504400Y-13627124D02*
X12485352Y-13617600D01*
X12485352Y-13617600D02*
X12475828Y-13598552D01*
X12475828Y-13598552D02*
X12475828Y-13427124D01*
X12732971Y-13627124D02*
X12732971Y-13427124D01*
X12732971Y-13427124D02*
X12799638Y-13569981D01*
X12799638Y-13569981D02*
X12866305Y-13427124D01*
X12866305Y-13427124D02*
X12866305Y-13627124D01*
X13047257Y-13627124D02*
X13047257Y-13522362D01*
X13047257Y-13522362D02*
X13037733Y-13503314D01*
X13037733Y-13503314D02*
X13018686Y-13493790D01*
X13018686Y-13493790D02*
X12980590Y-13493790D01*
X12980590Y-13493790D02*
X12961543Y-13503314D01*
X13047257Y-13617600D02*
X13028209Y-13627124D01*
X13028209Y-13627124D02*
X12980590Y-13627124D01*
X12980590Y-13627124D02*
X12961543Y-13617600D01*
X12961543Y-13617600D02*
X12952019Y-13598552D01*
X12952019Y-13598552D02*
X12952019Y-13579505D01*
X12952019Y-13579505D02*
X12961543Y-13560457D01*
X12961543Y-13560457D02*
X12980590Y-13550933D01*
X12980590Y-13550933D02*
X13028209Y-13550933D01*
X13028209Y-13550933D02*
X13047257Y-13541409D01*
X13142495Y-13493790D02*
X13142495Y-13693790D01*
X13142495Y-13503314D02*
X13161543Y-13493790D01*
X13161543Y-13493790D02*
X13199638Y-13493790D01*
X13199638Y-13493790D02*
X13218686Y-13503314D01*
X13218686Y-13503314D02*
X13228209Y-13512838D01*
X13228209Y-13512838D02*
X13237733Y-13531886D01*
X13237733Y-13531886D02*
X13237733Y-13589028D01*
X13237733Y-13589028D02*
X13228209Y-13608076D01*
X13228209Y-13608076D02*
X13218686Y-13617600D01*
X13218686Y-13617600D02*
X13199638Y-13627124D01*
X13199638Y-13627124D02*
X13161543Y-13627124D01*
X13161543Y-13627124D02*
X13142495Y-13617600D01*
X13323448Y-13608076D02*
X13332971Y-13617600D01*
X13332971Y-13617600D02*
X13323448Y-13627124D01*
X13323448Y-13627124D02*
X13313924Y-13617600D01*
X13313924Y-13617600D02*
X13323448Y-13608076D01*
X13323448Y-13608076D02*
X13323448Y-13627124D01*
X13323448Y-13503314D02*
X13332971Y-13512838D01*
X13332971Y-13512838D02*
X13323448Y-13522362D01*
X13323448Y-13522362D02*
X13313924Y-13512838D01*
X13313924Y-13512838D02*
X13323448Y-13503314D01*
X13323448Y-13503314D02*
X13323448Y-13522362D01*
D12*
X11664400Y-13934600D02*
X11704400Y-13974600D01*
X11704400Y-13934600D02*
X11664400Y-13974600D01*
D11*
X11990114Y-13847124D02*
X12009162Y-13847124D01*
X12009162Y-13847124D02*
X12028209Y-13856648D01*
X12028209Y-13856648D02*
X12037733Y-13866171D01*
X12037733Y-13866171D02*
X12047257Y-13885219D01*
X12047257Y-13885219D02*
X12056781Y-13923314D01*
X12056781Y-13923314D02*
X12056781Y-13970933D01*
X12056781Y-13970933D02*
X12047257Y-14009028D01*
X12047257Y-14009028D02*
X12037733Y-14028076D01*
X12037733Y-14028076D02*
X12028209Y-14037600D01*
X12028209Y-14037600D02*
X12009162Y-14047124D01*
X12009162Y-14047124D02*
X11990114Y-14047124D01*
X11990114Y-14047124D02*
X11971067Y-14037600D01*
X11971067Y-14037600D02*
X11961543Y-14028076D01*
X11961543Y-14028076D02*
X11952019Y-14009028D01*
X11952019Y-14009028D02*
X11942495Y-13970933D01*
X11942495Y-13970933D02*
X11942495Y-13923314D01*
X11942495Y-13923314D02*
X11952019Y-13885219D01*
X11952019Y-13885219D02*
X11961543Y-13866171D01*
X11961543Y-13866171D02*
X11971067Y-13856648D01*
X11971067Y-13856648D02*
X11990114Y-13847124D01*
X12142495Y-14028076D02*
X12152019Y-14037600D01*
X12152019Y-14037600D02*
X12142495Y-14047124D01*
X12142495Y-14047124D02*
X12132971Y-14037600D01*
X12132971Y-14037600D02*
X12142495Y-14028076D01*
X12142495Y-14028076D02*
X12142495Y-14047124D01*
X12323448Y-13913790D02*
X12323448Y-14047124D01*
X12275828Y-13837600D02*
X12228209Y-13980457D01*
X12228209Y-13980457D02*
X12352019Y-13980457D01*
X12466305Y-13847124D02*
X12485352Y-13847124D01*
X12485352Y-13847124D02*
X12504400Y-13856648D01*
X12504400Y-13856648D02*
X12513924Y-13866171D01*
X12513924Y-13866171D02*
X12523448Y-13885219D01*
X12523448Y-13885219D02*
X12532971Y-13923314D01*
X12532971Y-13923314D02*
X12532971Y-13970933D01*
X12532971Y-13970933D02*
X12523448Y-14009028D01*
X12523448Y-14009028D02*
X12513924Y-14028076D01*
X12513924Y-14028076D02*
X12504400Y-14037600D01*
X12504400Y-14037600D02*
X12485352Y-14047124D01*
X12485352Y-14047124D02*
X12466305Y-14047124D01*
X12466305Y-14047124D02*
X12447257Y-14037600D01*
X12447257Y-14037600D02*
X12437733Y-14028076D01*
X12437733Y-14028076D02*
X12428209Y-14009028D01*
X12428209Y-14009028D02*
X12418686Y-13970933D01*
X12418686Y-13970933D02*
X12418686Y-13923314D01*
X12418686Y-13923314D02*
X12428209Y-13885219D01*
X12428209Y-13885219D02*
X12437733Y-13866171D01*
X12437733Y-13866171D02*
X12447257Y-13856648D01*
X12447257Y-13856648D02*
X12466305Y-13847124D01*
X12656781Y-13847124D02*
X12675829Y-13847124D01*
X12675829Y-13847124D02*
X12694876Y-13856648D01*
X12694876Y-13856648D02*
X12704400Y-13866171D01*
X12704400Y-13866171D02*
X12713924Y-13885219D01*
X12713924Y-13885219D02*
X12723448Y-13923314D01*
X12723448Y-13923314D02*
X12723448Y-13970933D01*
X12723448Y-13970933D02*
X12713924Y-14009028D01*
X12713924Y-14009028D02*
X12704400Y-14028076D01*
X12704400Y-14028076D02*
X12694876Y-14037600D01*
X12694876Y-14037600D02*
X12675829Y-14047124D01*
X12675829Y-14047124D02*
X12656781Y-14047124D01*
X12656781Y-14047124D02*
X12637733Y-14037600D01*
X12637733Y-14037600D02*
X12628209Y-14028076D01*
X12628209Y-14028076D02*
X12618686Y-14009028D01*
X12618686Y-14009028D02*
X12609162Y-13970933D01*
X12609162Y-13970933D02*
X12609162Y-13923314D01*
X12609162Y-13923314D02*
X12618686Y-13885219D01*
X12618686Y-13885219D02*
X12628209Y-13866171D01*
X12628209Y-13866171D02*
X12637733Y-13856648D01*
X12637733Y-13856648D02*
X12656781Y-13847124D01*
X12809162Y-14047124D02*
X12809162Y-13913790D01*
X12809162Y-13932838D02*
X12818686Y-13923314D01*
X12818686Y-13923314D02*
X12837733Y-13913790D01*
X12837733Y-13913790D02*
X12866305Y-13913790D01*
X12866305Y-13913790D02*
X12885352Y-13923314D01*
X12885352Y-13923314D02*
X12894876Y-13942362D01*
X12894876Y-13942362D02*
X12894876Y-14047124D01*
X12894876Y-13942362D02*
X12904400Y-13923314D01*
X12904400Y-13923314D02*
X12923448Y-13913790D01*
X12923448Y-13913790D02*
X12952019Y-13913790D01*
X12952019Y-13913790D02*
X12971067Y-13923314D01*
X12971067Y-13923314D02*
X12980590Y-13942362D01*
X12980590Y-13942362D02*
X12980590Y-14047124D01*
X13075829Y-14047124D02*
X13075829Y-13913790D01*
X13075829Y-13932838D02*
X13085352Y-13923314D01*
X13085352Y-13923314D02*
X13104400Y-13913790D01*
X13104400Y-13913790D02*
X13132971Y-13913790D01*
X13132971Y-13913790D02*
X13152019Y-13923314D01*
X13152019Y-13923314D02*
X13161543Y-13942362D01*
X13161543Y-13942362D02*
X13161543Y-14047124D01*
X13161543Y-13942362D02*
X13171067Y-13923314D01*
X13171067Y-13923314D02*
X13190114Y-13913790D01*
X13190114Y-13913790D02*
X13218686Y-13913790D01*
X13218686Y-13913790D02*
X13237733Y-13923314D01*
X13237733Y-13923314D02*
X13247257Y-13942362D01*
X13247257Y-13942362D02*
X13247257Y-14047124D01*
X13637733Y-13837600D02*
X13466305Y-14094743D01*
X13894876Y-13847124D02*
X13913924Y-13847124D01*
X13913924Y-13847124D02*
X13932972Y-13856648D01*
X13932972Y-13856648D02*
X13942495Y-13866171D01*
X13942495Y-13866171D02*
X13952019Y-13885219D01*
X13952019Y-13885219D02*
X13961543Y-13923314D01*
X13961543Y-13923314D02*
X13961543Y-13970933D01*
X13961543Y-13970933D02*
X13952019Y-14009028D01*
X13952019Y-14009028D02*
X13942495Y-14028076D01*
X13942495Y-14028076D02*
X13932972Y-14037600D01*
X13932972Y-14037600D02*
X13913924Y-14047124D01*
X13913924Y-14047124D02*
X13894876Y-14047124D01*
X13894876Y-14047124D02*
X13875829Y-14037600D01*
X13875829Y-14037600D02*
X13866305Y-14028076D01*
X13866305Y-14028076D02*
X13856781Y-14009028D01*
X13856781Y-14009028D02*
X13847257Y-13970933D01*
X13847257Y-13970933D02*
X13847257Y-13923314D01*
X13847257Y-13923314D02*
X13856781Y-13885219D01*
X13856781Y-13885219D02*
X13866305Y-13866171D01*
X13866305Y-13866171D02*
X13875829Y-13856648D01*
X13875829Y-13856648D02*
X13894876Y-13847124D01*
X14047257Y-14028076D02*
X14056781Y-14037600D01*
X14056781Y-14037600D02*
X14047257Y-14047124D01*
X14047257Y-14047124D02*
X14037733Y-14037600D01*
X14037733Y-14037600D02*
X14047257Y-14028076D01*
X14047257Y-14028076D02*
X14047257Y-14047124D01*
X14180591Y-13847124D02*
X14199638Y-13847124D01*
X14199638Y-13847124D02*
X14218686Y-13856648D01*
X14218686Y-13856648D02*
X14228210Y-13866171D01*
X14228210Y-13866171D02*
X14237733Y-13885219D01*
X14237733Y-13885219D02*
X14247257Y-13923314D01*
X14247257Y-13923314D02*
X14247257Y-13970933D01*
X14247257Y-13970933D02*
X14237733Y-14009028D01*
X14237733Y-14009028D02*
X14228210Y-14028076D01*
X14228210Y-14028076D02*
X14218686Y-14037600D01*
X14218686Y-14037600D02*
X14199638Y-14047124D01*
X14199638Y-14047124D02*
X14180591Y-14047124D01*
X14180591Y-14047124D02*
X14161543Y-14037600D01*
X14161543Y-14037600D02*
X14152019Y-14028076D01*
X14152019Y-14028076D02*
X14142495Y-14009028D01*
X14142495Y-14009028D02*
X14132972Y-13970933D01*
X14132972Y-13970933D02*
X14132972Y-13923314D01*
X14132972Y-13923314D02*
X14142495Y-13885219D01*
X14142495Y-13885219D02*
X14152019Y-13866171D01*
X14152019Y-13866171D02*
X14161543Y-13856648D01*
X14161543Y-13856648D02*
X14180591Y-13847124D01*
X14437733Y-14047124D02*
X14323448Y-14047124D01*
X14380591Y-14047124D02*
X14380591Y-13847124D01*
X14380591Y-13847124D02*
X14361543Y-13875695D01*
X14361543Y-13875695D02*
X14342495Y-13894743D01*
X14342495Y-13894743D02*
X14323448Y-13904267D01*
X14618686Y-13847124D02*
X14523448Y-13847124D01*
X14523448Y-13847124D02*
X14513924Y-13942362D01*
X14513924Y-13942362D02*
X14523448Y-13932838D01*
X14523448Y-13932838D02*
X14542495Y-13923314D01*
X14542495Y-13923314D02*
X14590114Y-13923314D01*
X14590114Y-13923314D02*
X14609162Y-13932838D01*
X14609162Y-13932838D02*
X14618686Y-13942362D01*
X14618686Y-13942362D02*
X14628210Y-13961409D01*
X14628210Y-13961409D02*
X14628210Y-14009028D01*
X14628210Y-14009028D02*
X14618686Y-14028076D01*
X14618686Y-14028076D02*
X14609162Y-14037600D01*
X14609162Y-14037600D02*
X14590114Y-14047124D01*
X14590114Y-14047124D02*
X14542495Y-14047124D01*
X14542495Y-14047124D02*
X14523448Y-14037600D01*
X14523448Y-14037600D02*
X14513924Y-14028076D01*
X14694876Y-13847124D02*
X14828210Y-13847124D01*
X14828210Y-13847124D02*
X14742495Y-14047124D01*
X14894876Y-13847124D02*
X14894876Y-13885219D01*
X14971067Y-13847124D02*
X14971067Y-13885219D01*
X15266305Y-14123314D02*
X15256781Y-14113790D01*
X15256781Y-14113790D02*
X15237734Y-14085219D01*
X15237734Y-14085219D02*
X15228210Y-14066171D01*
X15228210Y-14066171D02*
X15218686Y-14037600D01*
X15218686Y-14037600D02*
X15209162Y-13989981D01*
X15209162Y-13989981D02*
X15209162Y-13951886D01*
X15209162Y-13951886D02*
X15218686Y-13904267D01*
X15218686Y-13904267D02*
X15228210Y-13875695D01*
X15228210Y-13875695D02*
X15237734Y-13856648D01*
X15237734Y-13856648D02*
X15256781Y-13828076D01*
X15256781Y-13828076D02*
X15266305Y-13818552D01*
X15332972Y-13866171D02*
X15342495Y-13856648D01*
X15342495Y-13856648D02*
X15361543Y-13847124D01*
X15361543Y-13847124D02*
X15409162Y-13847124D01*
X15409162Y-13847124D02*
X15428210Y-13856648D01*
X15428210Y-13856648D02*
X15437734Y-13866171D01*
X15437734Y-13866171D02*
X15447257Y-13885219D01*
X15447257Y-13885219D02*
X15447257Y-13904267D01*
X15447257Y-13904267D02*
X15437734Y-13932838D01*
X15437734Y-13932838D02*
X15323448Y-14047124D01*
X15323448Y-14047124D02*
X15447257Y-14047124D01*
X15513924Y-13847124D02*
X15647257Y-13847124D01*
X15647257Y-13847124D02*
X15561543Y-14047124D01*
X15875829Y-14047124D02*
X15875829Y-13847124D01*
X15961543Y-14047124D02*
X15961543Y-13942362D01*
X15961543Y-13942362D02*
X15952019Y-13923314D01*
X15952019Y-13923314D02*
X15932972Y-13913790D01*
X15932972Y-13913790D02*
X15904400Y-13913790D01*
X15904400Y-13913790D02*
X15885353Y-13923314D01*
X15885353Y-13923314D02*
X15875829Y-13932838D01*
X16085353Y-14047124D02*
X16066305Y-14037600D01*
X16066305Y-14037600D02*
X16056781Y-14028076D01*
X16056781Y-14028076D02*
X16047257Y-14009028D01*
X16047257Y-14009028D02*
X16047257Y-13951886D01*
X16047257Y-13951886D02*
X16056781Y-13932838D01*
X16056781Y-13932838D02*
X16066305Y-13923314D01*
X16066305Y-13923314D02*
X16085353Y-13913790D01*
X16085353Y-13913790D02*
X16113924Y-13913790D01*
X16113924Y-13913790D02*
X16132972Y-13923314D01*
X16132972Y-13923314D02*
X16142496Y-13932838D01*
X16142496Y-13932838D02*
X16152019Y-13951886D01*
X16152019Y-13951886D02*
X16152019Y-14009028D01*
X16152019Y-14009028D02*
X16142496Y-14028076D01*
X16142496Y-14028076D02*
X16132972Y-14037600D01*
X16132972Y-14037600D02*
X16113924Y-14047124D01*
X16113924Y-14047124D02*
X16085353Y-14047124D01*
X16266305Y-14047124D02*
X16247257Y-14037600D01*
X16247257Y-14037600D02*
X16237734Y-14018552D01*
X16237734Y-14018552D02*
X16237734Y-13847124D01*
X16418686Y-14037600D02*
X16399638Y-14047124D01*
X16399638Y-14047124D02*
X16361543Y-14047124D01*
X16361543Y-14047124D02*
X16342496Y-14037600D01*
X16342496Y-14037600D02*
X16332972Y-14018552D01*
X16332972Y-14018552D02*
X16332972Y-13942362D01*
X16332972Y-13942362D02*
X16342496Y-13923314D01*
X16342496Y-13923314D02*
X16361543Y-13913790D01*
X16361543Y-13913790D02*
X16399638Y-13913790D01*
X16399638Y-13913790D02*
X16418686Y-13923314D01*
X16418686Y-13923314D02*
X16428210Y-13942362D01*
X16428210Y-13942362D02*
X16428210Y-13961409D01*
X16428210Y-13961409D02*
X16332972Y-13980457D01*
X16504400Y-14037600D02*
X16523448Y-14047124D01*
X16523448Y-14047124D02*
X16561543Y-14047124D01*
X16561543Y-14047124D02*
X16580591Y-14037600D01*
X16580591Y-14037600D02*
X16590115Y-14018552D01*
X16590115Y-14018552D02*
X16590115Y-14009028D01*
X16590115Y-14009028D02*
X16580591Y-13989981D01*
X16580591Y-13989981D02*
X16561543Y-13980457D01*
X16561543Y-13980457D02*
X16532972Y-13980457D01*
X16532972Y-13980457D02*
X16513924Y-13970933D01*
X16513924Y-13970933D02*
X16504400Y-13951886D01*
X16504400Y-13951886D02*
X16504400Y-13942362D01*
X16504400Y-13942362D02*
X16513924Y-13923314D01*
X16513924Y-13923314D02*
X16532972Y-13913790D01*
X16532972Y-13913790D02*
X16561543Y-13913790D01*
X16561543Y-13913790D02*
X16580591Y-13923314D01*
X16656781Y-14123314D02*
X16666305Y-14113790D01*
X16666305Y-14113790D02*
X16685353Y-14085219D01*
X16685353Y-14085219D02*
X16694877Y-14066171D01*
X16694877Y-14066171D02*
X16704400Y-14037600D01*
X16704400Y-14037600D02*
X16713924Y-13989981D01*
X16713924Y-13989981D02*
X16713924Y-13951886D01*
X16713924Y-13951886D02*
X16704400Y-13904267D01*
X16704400Y-13904267D02*
X16694877Y-13875695D01*
X16694877Y-13875695D02*
X16685353Y-13856648D01*
X16685353Y-13856648D02*
X16666305Y-13828076D01*
X16666305Y-13828076D02*
X16656781Y-13818552D01*
D13*
X11704400Y-14218600D02*
G75*
G03*
X11704400Y-14218600I-40000J0D01*
G01*
D11*
X11990114Y-14111124D02*
X12009162Y-14111124D01*
X12009162Y-14111124D02*
X12028209Y-14120648D01*
X12028209Y-14120648D02*
X12037733Y-14130171D01*
X12037733Y-14130171D02*
X12047257Y-14149219D01*
X12047257Y-14149219D02*
X12056781Y-14187314D01*
X12056781Y-14187314D02*
X12056781Y-14234933D01*
X12056781Y-14234933D02*
X12047257Y-14273028D01*
X12047257Y-14273028D02*
X12037733Y-14292076D01*
X12037733Y-14292076D02*
X12028209Y-14301600D01*
X12028209Y-14301600D02*
X12009162Y-14311124D01*
X12009162Y-14311124D02*
X11990114Y-14311124D01*
X11990114Y-14311124D02*
X11971067Y-14301600D01*
X11971067Y-14301600D02*
X11961543Y-14292076D01*
X11961543Y-14292076D02*
X11952019Y-14273028D01*
X11952019Y-14273028D02*
X11942495Y-14234933D01*
X11942495Y-14234933D02*
X11942495Y-14187314D01*
X11942495Y-14187314D02*
X11952019Y-14149219D01*
X11952019Y-14149219D02*
X11961543Y-14130171D01*
X11961543Y-14130171D02*
X11971067Y-14120648D01*
X11971067Y-14120648D02*
X11990114Y-14111124D01*
X12142495Y-14292076D02*
X12152019Y-14301600D01*
X12152019Y-14301600D02*
X12142495Y-14311124D01*
X12142495Y-14311124D02*
X12132971Y-14301600D01*
X12132971Y-14301600D02*
X12142495Y-14292076D01*
X12142495Y-14292076D02*
X12142495Y-14311124D01*
X12266305Y-14196838D02*
X12247257Y-14187314D01*
X12247257Y-14187314D02*
X12237733Y-14177790D01*
X12237733Y-14177790D02*
X12228209Y-14158743D01*
X12228209Y-14158743D02*
X12228209Y-14149219D01*
X12228209Y-14149219D02*
X12237733Y-14130171D01*
X12237733Y-14130171D02*
X12247257Y-14120648D01*
X12247257Y-14120648D02*
X12266305Y-14111124D01*
X12266305Y-14111124D02*
X12304400Y-14111124D01*
X12304400Y-14111124D02*
X12323448Y-14120648D01*
X12323448Y-14120648D02*
X12332971Y-14130171D01*
X12332971Y-14130171D02*
X12342495Y-14149219D01*
X12342495Y-14149219D02*
X12342495Y-14158743D01*
X12342495Y-14158743D02*
X12332971Y-14177790D01*
X12332971Y-14177790D02*
X12323448Y-14187314D01*
X12323448Y-14187314D02*
X12304400Y-14196838D01*
X12304400Y-14196838D02*
X12266305Y-14196838D01*
X12266305Y-14196838D02*
X12247257Y-14206362D01*
X12247257Y-14206362D02*
X12237733Y-14215886D01*
X12237733Y-14215886D02*
X12228209Y-14234933D01*
X12228209Y-14234933D02*
X12228209Y-14273028D01*
X12228209Y-14273028D02*
X12237733Y-14292076D01*
X12237733Y-14292076D02*
X12247257Y-14301600D01*
X12247257Y-14301600D02*
X12266305Y-14311124D01*
X12266305Y-14311124D02*
X12304400Y-14311124D01*
X12304400Y-14311124D02*
X12323448Y-14301600D01*
X12323448Y-14301600D02*
X12332971Y-14292076D01*
X12332971Y-14292076D02*
X12342495Y-14273028D01*
X12342495Y-14273028D02*
X12342495Y-14234933D01*
X12342495Y-14234933D02*
X12332971Y-14215886D01*
X12332971Y-14215886D02*
X12323448Y-14206362D01*
X12323448Y-14206362D02*
X12304400Y-14196838D01*
X12466305Y-14111124D02*
X12485352Y-14111124D01*
X12485352Y-14111124D02*
X12504400Y-14120648D01*
X12504400Y-14120648D02*
X12513924Y-14130171D01*
X12513924Y-14130171D02*
X12523448Y-14149219D01*
X12523448Y-14149219D02*
X12532971Y-14187314D01*
X12532971Y-14187314D02*
X12532971Y-14234933D01*
X12532971Y-14234933D02*
X12523448Y-14273028D01*
X12523448Y-14273028D02*
X12513924Y-14292076D01*
X12513924Y-14292076D02*
X12504400Y-14301600D01*
X12504400Y-14301600D02*
X12485352Y-14311124D01*
X12485352Y-14311124D02*
X12466305Y-14311124D01*
X12466305Y-14311124D02*
X12447257Y-14301600D01*
X12447257Y-14301600D02*
X12437733Y-14292076D01*
X12437733Y-14292076D02*
X12428209Y-14273028D01*
X12428209Y-14273028D02*
X12418686Y-14234933D01*
X12418686Y-14234933D02*
X12418686Y-14187314D01*
X12418686Y-14187314D02*
X12428209Y-14149219D01*
X12428209Y-14149219D02*
X12437733Y-14130171D01*
X12437733Y-14130171D02*
X12447257Y-14120648D01*
X12447257Y-14120648D02*
X12466305Y-14111124D01*
X12656781Y-14111124D02*
X12675829Y-14111124D01*
X12675829Y-14111124D02*
X12694876Y-14120648D01*
X12694876Y-14120648D02*
X12704400Y-14130171D01*
X12704400Y-14130171D02*
X12713924Y-14149219D01*
X12713924Y-14149219D02*
X12723448Y-14187314D01*
X12723448Y-14187314D02*
X12723448Y-14234933D01*
X12723448Y-14234933D02*
X12713924Y-14273028D01*
X12713924Y-14273028D02*
X12704400Y-14292076D01*
X12704400Y-14292076D02*
X12694876Y-14301600D01*
X12694876Y-14301600D02*
X12675829Y-14311124D01*
X12675829Y-14311124D02*
X12656781Y-14311124D01*
X12656781Y-14311124D02*
X12637733Y-14301600D01*
X12637733Y-14301600D02*
X12628209Y-14292076D01*
X12628209Y-14292076D02*
X12618686Y-14273028D01*
X12618686Y-14273028D02*
X12609162Y-14234933D01*
X12609162Y-14234933D02*
X12609162Y-14187314D01*
X12609162Y-14187314D02*
X12618686Y-14149219D01*
X12618686Y-14149219D02*
X12628209Y-14130171D01*
X12628209Y-14130171D02*
X12637733Y-14120648D01*
X12637733Y-14120648D02*
X12656781Y-14111124D01*
X12809162Y-14311124D02*
X12809162Y-14177790D01*
X12809162Y-14196838D02*
X12818686Y-14187314D01*
X12818686Y-14187314D02*
X12837733Y-14177790D01*
X12837733Y-14177790D02*
X12866305Y-14177790D01*
X12866305Y-14177790D02*
X12885352Y-14187314D01*
X12885352Y-14187314D02*
X12894876Y-14206362D01*
X12894876Y-14206362D02*
X12894876Y-14311124D01*
X12894876Y-14206362D02*
X12904400Y-14187314D01*
X12904400Y-14187314D02*
X12923448Y-14177790D01*
X12923448Y-14177790D02*
X12952019Y-14177790D01*
X12952019Y-14177790D02*
X12971067Y-14187314D01*
X12971067Y-14187314D02*
X12980590Y-14206362D01*
X12980590Y-14206362D02*
X12980590Y-14311124D01*
X13075829Y-14311124D02*
X13075829Y-14177790D01*
X13075829Y-14196838D02*
X13085352Y-14187314D01*
X13085352Y-14187314D02*
X13104400Y-14177790D01*
X13104400Y-14177790D02*
X13132971Y-14177790D01*
X13132971Y-14177790D02*
X13152019Y-14187314D01*
X13152019Y-14187314D02*
X13161543Y-14206362D01*
X13161543Y-14206362D02*
X13161543Y-14311124D01*
X13161543Y-14206362D02*
X13171067Y-14187314D01*
X13171067Y-14187314D02*
X13190114Y-14177790D01*
X13190114Y-14177790D02*
X13218686Y-14177790D01*
X13218686Y-14177790D02*
X13237733Y-14187314D01*
X13237733Y-14187314D02*
X13247257Y-14206362D01*
X13247257Y-14206362D02*
X13247257Y-14311124D01*
X13637733Y-14101600D02*
X13466305Y-14358743D01*
X13894876Y-14111124D02*
X13913924Y-14111124D01*
X13913924Y-14111124D02*
X13932972Y-14120648D01*
X13932972Y-14120648D02*
X13942495Y-14130171D01*
X13942495Y-14130171D02*
X13952019Y-14149219D01*
X13952019Y-14149219D02*
X13961543Y-14187314D01*
X13961543Y-14187314D02*
X13961543Y-14234933D01*
X13961543Y-14234933D02*
X13952019Y-14273028D01*
X13952019Y-14273028D02*
X13942495Y-14292076D01*
X13942495Y-14292076D02*
X13932972Y-14301600D01*
X13932972Y-14301600D02*
X13913924Y-14311124D01*
X13913924Y-14311124D02*
X13894876Y-14311124D01*
X13894876Y-14311124D02*
X13875829Y-14301600D01*
X13875829Y-14301600D02*
X13866305Y-14292076D01*
X13866305Y-14292076D02*
X13856781Y-14273028D01*
X13856781Y-14273028D02*
X13847257Y-14234933D01*
X13847257Y-14234933D02*
X13847257Y-14187314D01*
X13847257Y-14187314D02*
X13856781Y-14149219D01*
X13856781Y-14149219D02*
X13866305Y-14130171D01*
X13866305Y-14130171D02*
X13875829Y-14120648D01*
X13875829Y-14120648D02*
X13894876Y-14111124D01*
X14047257Y-14292076D02*
X14056781Y-14301600D01*
X14056781Y-14301600D02*
X14047257Y-14311124D01*
X14047257Y-14311124D02*
X14037733Y-14301600D01*
X14037733Y-14301600D02*
X14047257Y-14292076D01*
X14047257Y-14292076D02*
X14047257Y-14311124D01*
X14180591Y-14111124D02*
X14199638Y-14111124D01*
X14199638Y-14111124D02*
X14218686Y-14120648D01*
X14218686Y-14120648D02*
X14228210Y-14130171D01*
X14228210Y-14130171D02*
X14237733Y-14149219D01*
X14237733Y-14149219D02*
X14247257Y-14187314D01*
X14247257Y-14187314D02*
X14247257Y-14234933D01*
X14247257Y-14234933D02*
X14237733Y-14273028D01*
X14237733Y-14273028D02*
X14228210Y-14292076D01*
X14228210Y-14292076D02*
X14218686Y-14301600D01*
X14218686Y-14301600D02*
X14199638Y-14311124D01*
X14199638Y-14311124D02*
X14180591Y-14311124D01*
X14180591Y-14311124D02*
X14161543Y-14301600D01*
X14161543Y-14301600D02*
X14152019Y-14292076D01*
X14152019Y-14292076D02*
X14142495Y-14273028D01*
X14142495Y-14273028D02*
X14132972Y-14234933D01*
X14132972Y-14234933D02*
X14132972Y-14187314D01*
X14132972Y-14187314D02*
X14142495Y-14149219D01*
X14142495Y-14149219D02*
X14152019Y-14130171D01*
X14152019Y-14130171D02*
X14161543Y-14120648D01*
X14161543Y-14120648D02*
X14180591Y-14111124D01*
X14313924Y-14111124D02*
X14437733Y-14111124D01*
X14437733Y-14111124D02*
X14371067Y-14187314D01*
X14371067Y-14187314D02*
X14399638Y-14187314D01*
X14399638Y-14187314D02*
X14418686Y-14196838D01*
X14418686Y-14196838D02*
X14428210Y-14206362D01*
X14428210Y-14206362D02*
X14437733Y-14225409D01*
X14437733Y-14225409D02*
X14437733Y-14273028D01*
X14437733Y-14273028D02*
X14428210Y-14292076D01*
X14428210Y-14292076D02*
X14418686Y-14301600D01*
X14418686Y-14301600D02*
X14399638Y-14311124D01*
X14399638Y-14311124D02*
X14342495Y-14311124D01*
X14342495Y-14311124D02*
X14323448Y-14301600D01*
X14323448Y-14301600D02*
X14313924Y-14292076D01*
X14628210Y-14311124D02*
X14513924Y-14311124D01*
X14571067Y-14311124D02*
X14571067Y-14111124D01*
X14571067Y-14111124D02*
X14552019Y-14139695D01*
X14552019Y-14139695D02*
X14532972Y-14158743D01*
X14532972Y-14158743D02*
X14513924Y-14168267D01*
X14809162Y-14111124D02*
X14713924Y-14111124D01*
X14713924Y-14111124D02*
X14704400Y-14206362D01*
X14704400Y-14206362D02*
X14713924Y-14196838D01*
X14713924Y-14196838D02*
X14732972Y-14187314D01*
X14732972Y-14187314D02*
X14780591Y-14187314D01*
X14780591Y-14187314D02*
X14799638Y-14196838D01*
X14799638Y-14196838D02*
X14809162Y-14206362D01*
X14809162Y-14206362D02*
X14818686Y-14225409D01*
X14818686Y-14225409D02*
X14818686Y-14273028D01*
X14818686Y-14273028D02*
X14809162Y-14292076D01*
X14809162Y-14292076D02*
X14799638Y-14301600D01*
X14799638Y-14301600D02*
X14780591Y-14311124D01*
X14780591Y-14311124D02*
X14732972Y-14311124D01*
X14732972Y-14311124D02*
X14713924Y-14301600D01*
X14713924Y-14301600D02*
X14704400Y-14292076D01*
X14894876Y-14111124D02*
X14894876Y-14149219D01*
X14971067Y-14111124D02*
X14971067Y-14149219D01*
X15266305Y-14387314D02*
X15256781Y-14377790D01*
X15256781Y-14377790D02*
X15237734Y-14349219D01*
X15237734Y-14349219D02*
X15228210Y-14330171D01*
X15228210Y-14330171D02*
X15218686Y-14301600D01*
X15218686Y-14301600D02*
X15209162Y-14253981D01*
X15209162Y-14253981D02*
X15209162Y-14215886D01*
X15209162Y-14215886D02*
X15218686Y-14168267D01*
X15218686Y-14168267D02*
X15228210Y-14139695D01*
X15228210Y-14139695D02*
X15237734Y-14120648D01*
X15237734Y-14120648D02*
X15256781Y-14092076D01*
X15256781Y-14092076D02*
X15266305Y-14082552D01*
X15371067Y-14196838D02*
X15352019Y-14187314D01*
X15352019Y-14187314D02*
X15342495Y-14177790D01*
X15342495Y-14177790D02*
X15332972Y-14158743D01*
X15332972Y-14158743D02*
X15332972Y-14149219D01*
X15332972Y-14149219D02*
X15342495Y-14130171D01*
X15342495Y-14130171D02*
X15352019Y-14120648D01*
X15352019Y-14120648D02*
X15371067Y-14111124D01*
X15371067Y-14111124D02*
X15409162Y-14111124D01*
X15409162Y-14111124D02*
X15428210Y-14120648D01*
X15428210Y-14120648D02*
X15437734Y-14130171D01*
X15437734Y-14130171D02*
X15447257Y-14149219D01*
X15447257Y-14149219D02*
X15447257Y-14158743D01*
X15447257Y-14158743D02*
X15437734Y-14177790D01*
X15437734Y-14177790D02*
X15428210Y-14187314D01*
X15428210Y-14187314D02*
X15409162Y-14196838D01*
X15409162Y-14196838D02*
X15371067Y-14196838D01*
X15371067Y-14196838D02*
X15352019Y-14206362D01*
X15352019Y-14206362D02*
X15342495Y-14215886D01*
X15342495Y-14215886D02*
X15332972Y-14234933D01*
X15332972Y-14234933D02*
X15332972Y-14273028D01*
X15332972Y-14273028D02*
X15342495Y-14292076D01*
X15342495Y-14292076D02*
X15352019Y-14301600D01*
X15352019Y-14301600D02*
X15371067Y-14311124D01*
X15371067Y-14311124D02*
X15409162Y-14311124D01*
X15409162Y-14311124D02*
X15428210Y-14301600D01*
X15428210Y-14301600D02*
X15437734Y-14292076D01*
X15437734Y-14292076D02*
X15447257Y-14273028D01*
X15447257Y-14273028D02*
X15447257Y-14234933D01*
X15447257Y-14234933D02*
X15437734Y-14215886D01*
X15437734Y-14215886D02*
X15428210Y-14206362D01*
X15428210Y-14206362D02*
X15409162Y-14196838D01*
X15523448Y-14130171D02*
X15532972Y-14120648D01*
X15532972Y-14120648D02*
X15552019Y-14111124D01*
X15552019Y-14111124D02*
X15599638Y-14111124D01*
X15599638Y-14111124D02*
X15618686Y-14120648D01*
X15618686Y-14120648D02*
X15628210Y-14130171D01*
X15628210Y-14130171D02*
X15637734Y-14149219D01*
X15637734Y-14149219D02*
X15637734Y-14168267D01*
X15637734Y-14168267D02*
X15628210Y-14196838D01*
X15628210Y-14196838D02*
X15513924Y-14311124D01*
X15513924Y-14311124D02*
X15637734Y-14311124D01*
X15875829Y-14311124D02*
X15875829Y-14111124D01*
X15961543Y-14311124D02*
X15961543Y-14206362D01*
X15961543Y-14206362D02*
X15952019Y-14187314D01*
X15952019Y-14187314D02*
X15932972Y-14177790D01*
X15932972Y-14177790D02*
X15904400Y-14177790D01*
X15904400Y-14177790D02*
X15885353Y-14187314D01*
X15885353Y-14187314D02*
X15875829Y-14196838D01*
X16085353Y-14311124D02*
X16066305Y-14301600D01*
X16066305Y-14301600D02*
X16056781Y-14292076D01*
X16056781Y-14292076D02*
X16047257Y-14273028D01*
X16047257Y-14273028D02*
X16047257Y-14215886D01*
X16047257Y-14215886D02*
X16056781Y-14196838D01*
X16056781Y-14196838D02*
X16066305Y-14187314D01*
X16066305Y-14187314D02*
X16085353Y-14177790D01*
X16085353Y-14177790D02*
X16113924Y-14177790D01*
X16113924Y-14177790D02*
X16132972Y-14187314D01*
X16132972Y-14187314D02*
X16142496Y-14196838D01*
X16142496Y-14196838D02*
X16152019Y-14215886D01*
X16152019Y-14215886D02*
X16152019Y-14273028D01*
X16152019Y-14273028D02*
X16142496Y-14292076D01*
X16142496Y-14292076D02*
X16132972Y-14301600D01*
X16132972Y-14301600D02*
X16113924Y-14311124D01*
X16113924Y-14311124D02*
X16085353Y-14311124D01*
X16266305Y-14311124D02*
X16247257Y-14301600D01*
X16247257Y-14301600D02*
X16237734Y-14282552D01*
X16237734Y-14282552D02*
X16237734Y-14111124D01*
X16418686Y-14301600D02*
X16399638Y-14311124D01*
X16399638Y-14311124D02*
X16361543Y-14311124D01*
X16361543Y-14311124D02*
X16342496Y-14301600D01*
X16342496Y-14301600D02*
X16332972Y-14282552D01*
X16332972Y-14282552D02*
X16332972Y-14206362D01*
X16332972Y-14206362D02*
X16342496Y-14187314D01*
X16342496Y-14187314D02*
X16361543Y-14177790D01*
X16361543Y-14177790D02*
X16399638Y-14177790D01*
X16399638Y-14177790D02*
X16418686Y-14187314D01*
X16418686Y-14187314D02*
X16428210Y-14206362D01*
X16428210Y-14206362D02*
X16428210Y-14225409D01*
X16428210Y-14225409D02*
X16332972Y-14244457D01*
X16504400Y-14301600D02*
X16523448Y-14311124D01*
X16523448Y-14311124D02*
X16561543Y-14311124D01*
X16561543Y-14311124D02*
X16580591Y-14301600D01*
X16580591Y-14301600D02*
X16590115Y-14282552D01*
X16590115Y-14282552D02*
X16590115Y-14273028D01*
X16590115Y-14273028D02*
X16580591Y-14253981D01*
X16580591Y-14253981D02*
X16561543Y-14244457D01*
X16561543Y-14244457D02*
X16532972Y-14244457D01*
X16532972Y-14244457D02*
X16513924Y-14234933D01*
X16513924Y-14234933D02*
X16504400Y-14215886D01*
X16504400Y-14215886D02*
X16504400Y-14206362D01*
X16504400Y-14206362D02*
X16513924Y-14187314D01*
X16513924Y-14187314D02*
X16532972Y-14177790D01*
X16532972Y-14177790D02*
X16561543Y-14177790D01*
X16561543Y-14177790D02*
X16580591Y-14187314D01*
X16656781Y-14387314D02*
X16666305Y-14377790D01*
X16666305Y-14377790D02*
X16685353Y-14349219D01*
X16685353Y-14349219D02*
X16694877Y-14330171D01*
X16694877Y-14330171D02*
X16704400Y-14301600D01*
X16704400Y-14301600D02*
X16713924Y-14253981D01*
X16713924Y-14253981D02*
X16713924Y-14215886D01*
X16713924Y-14215886D02*
X16704400Y-14168267D01*
X16704400Y-14168267D02*
X16694877Y-14139695D01*
X16694877Y-14139695D02*
X16685353Y-14120648D01*
X16685353Y-14120648D02*
X16666305Y-14092076D01*
X16666305Y-14092076D02*
X16656781Y-14082552D01*
M02*
