G04 #@! TF.GenerationSoftware,KiCad,Pcbnew,7.0.2-0*
G04 #@! TF.CreationDate,2023-08-19T01:30:15+02:00*
G04 #@! TF.ProjectId,MegaCD,4d656761-4344-42e6-9b69-6361645f7063,rev?*
G04 #@! TF.SameCoordinates,Original*
G04 #@! TF.FileFunction,Copper,L1,Top*
G04 #@! TF.FilePolarity,Positive*
%FSLAX46Y46*%
G04 Gerber Fmt 4.6, Leading zero omitted, Abs format (unit mm)*
G04 Created by KiCad (PCBNEW 7.0.2-0) date 2023-08-19 01:30:15*
%MOMM*%
%LPD*%
G01*
G04 APERTURE LIST*
G04 Aperture macros list*
%AMRoundRect*
0 Rectangle with rounded corners*
0 $1 Rounding radius*
0 $2 $3 $4 $5 $6 $7 $8 $9 X,Y pos of 4 corners*
0 Add a 4 corners polygon primitive as box body*
4,1,4,$2,$3,$4,$5,$6,$7,$8,$9,$2,$3,0*
0 Add four circle primitives for the rounded corners*
1,1,$1+$1,$2,$3*
1,1,$1+$1,$4,$5*
1,1,$1+$1,$6,$7*
1,1,$1+$1,$8,$9*
0 Add four rect primitives between the rounded corners*
20,1,$1+$1,$2,$3,$4,$5,0*
20,1,$1+$1,$4,$5,$6,$7,0*
20,1,$1+$1,$6,$7,$8,$9,0*
20,1,$1+$1,$8,$9,$2,$3,0*%
G04 Aperture macros list end*
G04 #@! TA.AperFunction,ComponentPad*
%ADD10R,1.400000X1.300000*%
G04 #@! TD*
G04 #@! TA.AperFunction,ComponentPad*
%ADD11RoundRect,0.325000X0.375000X-0.325000X0.375000X0.325000X-0.375000X0.325000X-0.375000X-0.325000X0*%
G04 #@! TD*
G04 #@! TA.AperFunction,ComponentPad*
%ADD12C,1.600000*%
G04 #@! TD*
G04 #@! TA.AperFunction,SMDPad,CuDef*
%ADD13R,0.700000X3.400000*%
G04 #@! TD*
G04 #@! TA.AperFunction,ViaPad*
%ADD14C,0.800000*%
G04 #@! TD*
G04 #@! TA.AperFunction,Conductor*
%ADD15C,0.500000*%
G04 #@! TD*
G04 #@! TA.AperFunction,Conductor*
%ADD16C,0.250000*%
G04 #@! TD*
G04 APERTURE END LIST*
D10*
X119380000Y-117221000D03*
D11*
X120650000Y-114681000D03*
X121920000Y-117221000D03*
X123190000Y-114681000D03*
X124460000Y-117221000D03*
X125730000Y-114681000D03*
X127000000Y-117221000D03*
X128270000Y-114681000D03*
X129540000Y-117221000D03*
X130810000Y-114681000D03*
X132080000Y-117221000D03*
X133350000Y-114681000D03*
X134620000Y-117221000D03*
X135890000Y-114681000D03*
X137160000Y-117221000D03*
X138430000Y-114681000D03*
X139700000Y-117221000D03*
X140970000Y-114681000D03*
X142240000Y-117221000D03*
X143510000Y-114681000D03*
D12*
X174752000Y-126599000D03*
X174752000Y-124099000D03*
D10*
X148209000Y-124790200D03*
D11*
X149479000Y-122250200D03*
X150749000Y-124790200D03*
X152019000Y-122250200D03*
X153289000Y-124790200D03*
X154559000Y-122250200D03*
X155829000Y-124790200D03*
X157099000Y-122250200D03*
X158369000Y-124790200D03*
X159639000Y-122250200D03*
X160909000Y-124790200D03*
X162179000Y-122250200D03*
X163449000Y-124790200D03*
X164719000Y-122250200D03*
X165989000Y-124790200D03*
X167259000Y-122250200D03*
X168529000Y-124790200D03*
X169799000Y-122250200D03*
X171069000Y-124790200D03*
X172339000Y-122250200D03*
D13*
X148463000Y-117221000D03*
X149733000Y-117221000D03*
X151003000Y-117221000D03*
X152273000Y-117221000D03*
X153543000Y-117221000D03*
X154813000Y-117221000D03*
X156083000Y-117221000D03*
X157353000Y-117221000D03*
X158623000Y-117221000D03*
X159893000Y-117221000D03*
X161163000Y-117221000D03*
X162433000Y-117221000D03*
X163703000Y-117221000D03*
X164973000Y-117221000D03*
X166243000Y-117221000D03*
X167513000Y-117221000D03*
X168783000Y-117221000D03*
X170053000Y-117221000D03*
X171323000Y-117221000D03*
X172593000Y-117221000D03*
X172593000Y-107061000D03*
X171323000Y-107061000D03*
X170053000Y-107061000D03*
X168783000Y-107061000D03*
X167513000Y-107061000D03*
X166243000Y-107061000D03*
X164973000Y-107061000D03*
X163703000Y-107061000D03*
X162433000Y-107061000D03*
X161163000Y-107061000D03*
X159893000Y-107061000D03*
X158623000Y-107061000D03*
X157353000Y-107061000D03*
X156083000Y-107061000D03*
X154813000Y-107061000D03*
X153543000Y-107061000D03*
X152273000Y-107061000D03*
X151003000Y-107061000D03*
X149733000Y-107061000D03*
X148463000Y-107061000D03*
D10*
X119380000Y-110312200D03*
D11*
X120650000Y-107772200D03*
X121920000Y-110312200D03*
X123190000Y-107772200D03*
X124460000Y-110312200D03*
X125730000Y-107772200D03*
X127000000Y-110312200D03*
X128270000Y-107772200D03*
X129540000Y-110312200D03*
X130810000Y-107772200D03*
X132080000Y-110312200D03*
X133350000Y-107772200D03*
X134620000Y-110312200D03*
X135890000Y-107772200D03*
X137160000Y-110312200D03*
X138430000Y-107772200D03*
X139700000Y-110312200D03*
X140970000Y-107772200D03*
X142240000Y-110312200D03*
X143510000Y-107772200D03*
D10*
X148209000Y-130835400D03*
D11*
X149479000Y-128295400D03*
X150749000Y-130835400D03*
X152019000Y-128295400D03*
X153289000Y-130835400D03*
X154559000Y-128295400D03*
X155829000Y-130835400D03*
X157099000Y-128295400D03*
X158369000Y-130835400D03*
X159639000Y-128295400D03*
X160909000Y-130835400D03*
X162179000Y-128295400D03*
X163449000Y-130835400D03*
X164719000Y-128295400D03*
X165989000Y-130835400D03*
X167259000Y-128295400D03*
X168529000Y-130835400D03*
X169799000Y-128295400D03*
X171069000Y-130835400D03*
X172339000Y-128295400D03*
D14*
X164719000Y-126492000D03*
X157099000Y-126492000D03*
X146304000Y-115189000D03*
X146812000Y-104648000D03*
X175133000Y-105156000D03*
X174879000Y-131572000D03*
X129540000Y-108839000D03*
X144272000Y-110236000D03*
X172593000Y-109728000D03*
X154813000Y-109855000D03*
X148488299Y-119735701D03*
X156083000Y-114427000D03*
X150622000Y-120523000D03*
X149468299Y-120512299D03*
X153543000Y-114808000D03*
X149733000Y-114808000D03*
X151003000Y-109556000D03*
X153543000Y-109855000D03*
X157353000Y-114427000D03*
X164973000Y-109728000D03*
X172339000Y-113538000D03*
X171069000Y-112522000D03*
X169799000Y-112141000D03*
X170053000Y-109601000D03*
X171323000Y-110617000D03*
X164973000Y-114300000D03*
X163666806Y-111923194D03*
D15*
X165989000Y-130835400D02*
X164744400Y-132080000D01*
X146939000Y-131669400D02*
X146939000Y-121285000D01*
X164744400Y-132080000D02*
X147349600Y-132080000D01*
X147349600Y-132080000D02*
X146939000Y-131669400D01*
X146939000Y-121285000D02*
X148463000Y-119761000D01*
X148463000Y-119761000D02*
X148463000Y-117221000D01*
X174752000Y-126599000D02*
X173482000Y-125329000D01*
X173482000Y-125329000D02*
X173482000Y-121158000D01*
X173482000Y-121158000D02*
X172974000Y-120650000D01*
X172593000Y-117221000D02*
X172593000Y-120269000D01*
X172593000Y-120269000D02*
X172974000Y-120650000D01*
D16*
X175133000Y-105156000D02*
X176149000Y-106172000D01*
X176149000Y-106172000D02*
X176149000Y-130302000D01*
X176149000Y-130302000D02*
X174879000Y-131572000D01*
X146812000Y-104648000D02*
X147193000Y-104267000D01*
X147193000Y-104267000D02*
X174244000Y-104267000D01*
X174244000Y-104267000D02*
X175133000Y-105156000D01*
X148463000Y-107061000D02*
X146812000Y-105410000D01*
X146812000Y-105410000D02*
X146812000Y-104648000D01*
X163703000Y-115189000D02*
X163703000Y-117221000D01*
X163322000Y-114808000D02*
X163703000Y-115189000D01*
X158877000Y-114808000D02*
X163322000Y-114808000D01*
X156972000Y-112903000D02*
X158877000Y-114808000D01*
X128270000Y-114681000D02*
X129413000Y-113538000D01*
X149352000Y-112903000D02*
X156972000Y-112903000D01*
X148717000Y-113538000D02*
X149352000Y-112903000D01*
X129413000Y-113538000D02*
X148717000Y-113538000D01*
X159893000Y-109220000D02*
X159893000Y-107061000D01*
X156718000Y-112395000D02*
X159893000Y-109220000D01*
X149098000Y-112395000D02*
X156718000Y-112395000D01*
X127889000Y-113030000D02*
X148463000Y-113030000D01*
X148463000Y-113030000D02*
X149098000Y-112395000D01*
X126238000Y-114681000D02*
X127889000Y-113030000D01*
X125730000Y-114681000D02*
X126238000Y-114681000D01*
X124714000Y-113919000D02*
X125095000Y-113538000D01*
X148844000Y-111887000D02*
X155956000Y-111887000D01*
X127635000Y-112522000D02*
X148209000Y-112522000D01*
X158623000Y-109220000D02*
X158623000Y-107061000D01*
X126619000Y-113538000D02*
X127635000Y-112522000D01*
X124714000Y-115697000D02*
X124714000Y-113919000D01*
X148209000Y-112522000D02*
X148844000Y-111887000D01*
X125095000Y-113538000D02*
X126619000Y-113538000D01*
X125095000Y-116078000D02*
X124714000Y-115697000D01*
X125857000Y-116078000D02*
X125095000Y-116078000D01*
X155956000Y-111887000D02*
X158623000Y-109220000D01*
X127000000Y-117221000D02*
X125857000Y-116078000D01*
X157353000Y-109601000D02*
X157353000Y-107061000D01*
X126365000Y-113030000D02*
X127381000Y-112014000D01*
X127381000Y-112014000D02*
X147955000Y-112014000D01*
X124841000Y-113030000D02*
X126365000Y-113030000D01*
X147955000Y-112014000D02*
X148590000Y-111379000D01*
X124206000Y-113665000D02*
X124841000Y-113030000D01*
X123063000Y-116078000D02*
X123825000Y-116078000D01*
X124206000Y-115697000D02*
X124206000Y-113665000D01*
X155575000Y-111379000D02*
X157353000Y-109601000D01*
X148590000Y-111379000D02*
X155575000Y-111379000D01*
X123825000Y-116078000D02*
X124206000Y-115697000D01*
X121920000Y-117221000D02*
X123063000Y-116078000D01*
X156083000Y-109982000D02*
X156083000Y-107061000D01*
X155194000Y-110871000D02*
X156083000Y-109982000D01*
X148336000Y-110871000D02*
X155194000Y-110871000D01*
X124491750Y-112522000D02*
X126111000Y-112522000D01*
X123190000Y-113823750D02*
X124491750Y-112522000D01*
X147701000Y-111506000D02*
X148336000Y-110871000D01*
X127127000Y-111506000D02*
X147701000Y-111506000D01*
X126111000Y-112522000D02*
X127127000Y-111506000D01*
X123190000Y-114681000D02*
X123190000Y-113823750D01*
D15*
X165989000Y-130835400D02*
X165989000Y-127635000D01*
X165989000Y-127635000D02*
X167005000Y-126619000D01*
X167005000Y-126619000D02*
X174752000Y-126619000D01*
X172593000Y-107061000D02*
X172593000Y-109728000D01*
X154813000Y-107061000D02*
X154813000Y-109855000D01*
X148463000Y-114681000D02*
X149266422Y-113877578D01*
X154390578Y-113877578D02*
X154813000Y-114300000D01*
X148463000Y-117221000D02*
X148463000Y-114681000D01*
X154813000Y-114300000D02*
X154813000Y-117221000D01*
D16*
X174752000Y-126619000D02*
X174752000Y-126599000D01*
D15*
X149266422Y-113877578D02*
X154390578Y-113877578D01*
D16*
X156083000Y-114427000D02*
X156083000Y-117221000D01*
X153543000Y-118999000D02*
X153543000Y-117221000D01*
X150622000Y-120523000D02*
X152019000Y-120523000D01*
X152019000Y-120523000D02*
X153543000Y-118999000D01*
X149468299Y-120512299D02*
X150109598Y-119871000D01*
X150109598Y-119871000D02*
X151782000Y-119871000D01*
X152273000Y-119380000D02*
X152273000Y-117221000D01*
X151782000Y-119871000D02*
X152273000Y-119380000D01*
X151003000Y-115062000D02*
X151003000Y-117221000D01*
X151257000Y-114808000D02*
X151003000Y-115062000D01*
X153543000Y-114808000D02*
X151257000Y-114808000D01*
X149733000Y-114808000D02*
X149733000Y-117221000D01*
X149733000Y-109093000D02*
X149733000Y-107061000D01*
X123190000Y-107772200D02*
X123190000Y-106680000D01*
X148082000Y-109601000D02*
X149225000Y-109601000D01*
X149225000Y-109601000D02*
X149733000Y-109093000D01*
X123190000Y-106680000D02*
X124206000Y-105664000D01*
X144145000Y-105664000D02*
X148082000Y-109601000D01*
X124206000Y-105664000D02*
X144145000Y-105664000D01*
X151003000Y-109556000D02*
X151003000Y-107061000D01*
X152273000Y-109601000D02*
X151511000Y-110363000D01*
X152273000Y-107061000D02*
X152273000Y-109601000D01*
X128143000Y-106172000D02*
X127000000Y-107315000D01*
X127000000Y-107315000D02*
X127000000Y-110312200D01*
X143891000Y-106172000D02*
X128143000Y-106172000D01*
X151511000Y-110363000D02*
X148082000Y-110363000D01*
X148082000Y-110363000D02*
X143891000Y-106172000D01*
X153543000Y-109855000D02*
X153543000Y-107061000D01*
X159131000Y-120015000D02*
X159893000Y-119253000D01*
X159893000Y-119253000D02*
X159893000Y-117221000D01*
X152069800Y-122250200D02*
X154305000Y-120015000D01*
X152019000Y-122250200D02*
X152069800Y-122250200D01*
X154305000Y-120015000D02*
X159131000Y-120015000D01*
X150749000Y-121666000D02*
X151384000Y-121031000D01*
X158369000Y-119507000D02*
X158623000Y-119253000D01*
X152412580Y-121031000D02*
X153936580Y-119507000D01*
X153936580Y-119507000D02*
X158369000Y-119507000D01*
X151384000Y-121031000D02*
X152412580Y-121031000D01*
X150749000Y-124790200D02*
X150749000Y-121666000D01*
X158623000Y-119253000D02*
X158623000Y-117221000D01*
X157353000Y-117221000D02*
X157353000Y-114427000D01*
X164973000Y-109728000D02*
X164973000Y-107061000D01*
X166243000Y-110744000D02*
X166243000Y-107061000D01*
X169037000Y-113538000D02*
X166243000Y-110744000D01*
X172339000Y-113538000D02*
X169037000Y-113538000D01*
X170561000Y-113030000D02*
X169545000Y-113030000D01*
X167513000Y-110998000D02*
X167513000Y-107061000D01*
X169545000Y-113030000D02*
X167513000Y-110998000D01*
X171069000Y-112522000D02*
X170561000Y-113030000D01*
X168783000Y-111125000D02*
X168783000Y-107061000D01*
X169799000Y-112141000D02*
X168783000Y-111125000D01*
X170053000Y-109601000D02*
X170053000Y-107061000D01*
X171323000Y-110617000D02*
X171323000Y-107061000D01*
X164719000Y-121412000D02*
X165100000Y-121031000D01*
X169799000Y-121031000D02*
X171323000Y-119507000D01*
X165100000Y-121031000D02*
X169799000Y-121031000D01*
X164719000Y-122250200D02*
X164719000Y-121412000D01*
X171323000Y-119507000D02*
X171323000Y-117221000D01*
X164338000Y-120523000D02*
X168910000Y-120523000D01*
X163449000Y-121412000D02*
X164338000Y-120523000D01*
X163449000Y-124790200D02*
X163449000Y-121412000D01*
X168910000Y-120523000D02*
X170053000Y-119380000D01*
X170053000Y-119380000D02*
X170053000Y-117221000D01*
X168783000Y-119253000D02*
X168783000Y-117221000D01*
X163576000Y-120015000D02*
X168021000Y-120015000D01*
X162179000Y-122250200D02*
X162179000Y-121412000D01*
X162179000Y-121412000D02*
X163576000Y-120015000D01*
X168021000Y-120015000D02*
X168783000Y-119253000D01*
X160909000Y-121412000D02*
X162052000Y-120269000D01*
X167513000Y-119126000D02*
X167513000Y-117221000D01*
X162052000Y-120269000D02*
X162433000Y-120269000D01*
X162433000Y-120269000D02*
X163195000Y-119507000D01*
X167132000Y-119507000D02*
X167513000Y-119126000D01*
X160909000Y-124790200D02*
X160909000Y-121412000D01*
X163195000Y-119507000D02*
X167132000Y-119507000D01*
X164973000Y-114300000D02*
X164973000Y-117221000D01*
X163666806Y-111923194D02*
X163703000Y-111887000D01*
X163703000Y-111887000D02*
X163703000Y-107061000D01*
X162433000Y-119380000D02*
X162433000Y-117221000D01*
X158750000Y-121031000D02*
X160401000Y-121031000D01*
X157530800Y-122250200D02*
X158750000Y-121031000D01*
X157099000Y-122250200D02*
X157530800Y-122250200D01*
X162179000Y-119634000D02*
X162433000Y-119380000D01*
X160401000Y-121031000D02*
X161798000Y-119634000D01*
X161798000Y-119634000D02*
X162179000Y-119634000D01*
G04 #@! TA.AperFunction,Conductor*
G36*
X172040857Y-119076297D02*
G01*
X172061102Y-119099660D01*
X172071603Y-119115376D01*
X172092480Y-119182053D01*
X172092500Y-119184266D01*
X172092500Y-120201857D01*
X172089666Y-120228215D01*
X172088640Y-120232926D01*
X172092184Y-120282461D01*
X172092500Y-120291308D01*
X172092500Y-120304802D01*
X172094419Y-120318153D01*
X172095365Y-120326947D01*
X172098909Y-120376483D01*
X172100594Y-120381001D01*
X172107147Y-120406676D01*
X172107712Y-120410603D01*
X172107835Y-120411458D01*
X172128457Y-120456612D01*
X172131845Y-120464790D01*
X172149204Y-120511331D01*
X172152095Y-120515194D01*
X172165620Y-120537987D01*
X172167622Y-120542372D01*
X172167623Y-120542373D01*
X172200147Y-120579907D01*
X172205689Y-120586786D01*
X172213779Y-120597593D01*
X172223314Y-120607128D01*
X172229346Y-120613607D01*
X172261869Y-120651141D01*
X172261871Y-120651142D01*
X172261872Y-120651143D01*
X172265928Y-120653749D01*
X172286567Y-120670380D01*
X172436052Y-120819865D01*
X172588541Y-120972354D01*
X172588554Y-120972369D01*
X172754204Y-121138019D01*
X172787689Y-121199342D01*
X172782705Y-121269034D01*
X172740833Y-121324967D01*
X172675369Y-121349384D01*
X172666523Y-121349700D01*
X171926280Y-121349700D01*
X171922263Y-121350228D01*
X171922260Y-121350229D01*
X171813764Y-121364513D01*
X171673768Y-121422501D01*
X171553549Y-121514749D01*
X171461301Y-121634968D01*
X171403313Y-121774964D01*
X171395381Y-121835217D01*
X171388500Y-121887480D01*
X171388500Y-122612920D01*
X171389028Y-122616937D01*
X171389029Y-122616939D01*
X171403313Y-122725435D01*
X171460985Y-122864669D01*
X171461302Y-122865433D01*
X171553549Y-122985651D01*
X171673767Y-123077898D01*
X171813764Y-123135887D01*
X171926280Y-123150700D01*
X171930333Y-123150700D01*
X172747667Y-123150700D01*
X172751720Y-123150700D01*
X172841316Y-123138904D01*
X172910349Y-123149669D01*
X172962605Y-123196049D01*
X172981500Y-123261843D01*
X172981500Y-125261857D01*
X172978666Y-125288215D01*
X172977640Y-125292926D01*
X172981184Y-125342461D01*
X172981500Y-125351308D01*
X172981500Y-125364802D01*
X172983419Y-125378153D01*
X172984365Y-125386947D01*
X172987909Y-125436483D01*
X172989594Y-125441001D01*
X172996147Y-125466676D01*
X172996712Y-125470603D01*
X172996835Y-125471458D01*
X173017457Y-125516612D01*
X173020845Y-125524790D01*
X173027792Y-125543417D01*
X173038204Y-125571331D01*
X173041095Y-125575194D01*
X173054620Y-125597987D01*
X173056622Y-125602372D01*
X173056623Y-125602373D01*
X173089147Y-125639907D01*
X173094689Y-125646786D01*
X173102779Y-125657593D01*
X173112321Y-125667135D01*
X173118354Y-125673615D01*
X173150870Y-125711142D01*
X173154927Y-125713749D01*
X173175571Y-125730385D01*
X173352005Y-125906819D01*
X173385490Y-125968142D01*
X173380506Y-126037834D01*
X173338634Y-126093767D01*
X173273170Y-126118184D01*
X173264324Y-126118500D01*
X167072144Y-126118500D01*
X167045786Y-126115666D01*
X167041073Y-126114640D01*
X166991539Y-126118184D01*
X166982692Y-126118500D01*
X166969201Y-126118500D01*
X166955837Y-126120420D01*
X166947053Y-126121365D01*
X166897513Y-126124909D01*
X166892990Y-126126596D01*
X166867323Y-126133147D01*
X166862545Y-126133834D01*
X166817365Y-126154466D01*
X166809191Y-126157851D01*
X166762668Y-126175203D01*
X166758802Y-126178098D01*
X166736017Y-126191618D01*
X166731624Y-126193624D01*
X166694107Y-126226132D01*
X166687227Y-126231677D01*
X166676408Y-126239777D01*
X166666854Y-126249330D01*
X166660386Y-126255351D01*
X166622855Y-126287872D01*
X166620244Y-126291936D01*
X166603615Y-126312569D01*
X165682569Y-127233615D01*
X165661936Y-127250244D01*
X165657872Y-127252855D01*
X165625351Y-127290386D01*
X165619330Y-127296854D01*
X165609777Y-127306408D01*
X165601677Y-127317227D01*
X165596132Y-127324107D01*
X165563624Y-127361624D01*
X165561618Y-127366017D01*
X165548098Y-127388802D01*
X165545202Y-127392670D01*
X165544329Y-127395012D01*
X165502456Y-127450945D01*
X165436991Y-127475359D01*
X165380697Y-127466236D01*
X165244237Y-127409713D01*
X165135739Y-127395429D01*
X165135737Y-127395428D01*
X165131720Y-127394900D01*
X164306280Y-127394900D01*
X164302263Y-127395428D01*
X164302260Y-127395429D01*
X164193764Y-127409713D01*
X164053768Y-127467701D01*
X163933549Y-127559949D01*
X163841301Y-127680168D01*
X163783312Y-127820164D01*
X163783313Y-127820164D01*
X163768500Y-127932680D01*
X163768500Y-128658120D01*
X163783313Y-128770636D01*
X163841302Y-128910633D01*
X163933549Y-129030851D01*
X164053767Y-129123098D01*
X164193764Y-129181087D01*
X164306280Y-129195900D01*
X164310333Y-129195900D01*
X165127667Y-129195900D01*
X165131720Y-129195900D01*
X165244236Y-129181087D01*
X165317048Y-129150926D01*
X165386516Y-129143458D01*
X165448995Y-129174733D01*
X165484648Y-129234821D01*
X165488500Y-129265488D01*
X165488500Y-129856612D01*
X165468815Y-129923651D01*
X165416011Y-129969406D01*
X165411954Y-129971173D01*
X165323768Y-130007701D01*
X165203549Y-130099949D01*
X165111301Y-130220168D01*
X165053312Y-130360163D01*
X165053313Y-130360164D01*
X165038500Y-130472680D01*
X165038500Y-130476732D01*
X165038500Y-130476733D01*
X165038500Y-131026724D01*
X165018815Y-131093763D01*
X165002181Y-131114405D01*
X164573405Y-131543181D01*
X164512082Y-131576666D01*
X164485724Y-131579500D01*
X164458899Y-131579500D01*
X164391860Y-131559815D01*
X164346105Y-131507011D01*
X164336161Y-131437853D01*
X164344338Y-131408047D01*
X164349262Y-131396156D01*
X164384687Y-131310636D01*
X164399500Y-131198120D01*
X164399500Y-130472680D01*
X164384687Y-130360164D01*
X164326698Y-130220167D01*
X164234451Y-130099949D01*
X164114233Y-130007702D01*
X163974236Y-129949713D01*
X163915356Y-129941961D01*
X163865739Y-129935429D01*
X163865737Y-129935428D01*
X163861720Y-129934900D01*
X163036280Y-129934900D01*
X163032263Y-129935428D01*
X163032260Y-129935429D01*
X162923764Y-129949713D01*
X162783768Y-130007701D01*
X162663549Y-130099949D01*
X162571301Y-130220168D01*
X162513313Y-130360164D01*
X162498500Y-130472680D01*
X162498500Y-131198120D01*
X162499028Y-131202137D01*
X162499029Y-131202139D01*
X162513313Y-131310635D01*
X162553662Y-131408047D01*
X162561131Y-131477517D01*
X162529856Y-131539996D01*
X162469767Y-131575648D01*
X162439101Y-131579500D01*
X161918899Y-131579500D01*
X161851860Y-131559815D01*
X161806105Y-131507011D01*
X161796161Y-131437853D01*
X161804338Y-131408047D01*
X161809262Y-131396156D01*
X161844687Y-131310636D01*
X161859500Y-131198120D01*
X161859500Y-130472680D01*
X161844687Y-130360164D01*
X161786698Y-130220167D01*
X161694451Y-130099949D01*
X161574233Y-130007702D01*
X161434236Y-129949713D01*
X161375356Y-129941961D01*
X161325739Y-129935429D01*
X161325737Y-129935428D01*
X161321720Y-129934900D01*
X160496280Y-129934900D01*
X160492263Y-129935428D01*
X160492260Y-129935429D01*
X160383764Y-129949713D01*
X160243768Y-130007701D01*
X160123549Y-130099949D01*
X160031301Y-130220168D01*
X159973312Y-130360163D01*
X159973313Y-130360164D01*
X159958500Y-130472680D01*
X159958500Y-131198120D01*
X159959028Y-131202137D01*
X159959029Y-131202139D01*
X159973313Y-131310635D01*
X160013662Y-131408047D01*
X160021131Y-131477517D01*
X159989856Y-131539996D01*
X159929767Y-131575648D01*
X159899101Y-131579500D01*
X159378899Y-131579500D01*
X159311860Y-131559815D01*
X159266105Y-131507011D01*
X159256161Y-131437853D01*
X159264338Y-131408047D01*
X159269262Y-131396156D01*
X159304687Y-131310636D01*
X159319500Y-131198120D01*
X159319500Y-130472680D01*
X159304687Y-130360164D01*
X159246698Y-130220167D01*
X159154451Y-130099949D01*
X159034233Y-130007702D01*
X158894236Y-129949713D01*
X158835356Y-129941961D01*
X158785739Y-129935429D01*
X158785737Y-129935428D01*
X158781720Y-129934900D01*
X157956280Y-129934900D01*
X157952263Y-129935428D01*
X157952260Y-129935429D01*
X157843764Y-129949713D01*
X157703768Y-130007701D01*
X157583549Y-130099949D01*
X157491301Y-130220168D01*
X157433313Y-130360163D01*
X157433313Y-130360164D01*
X157418500Y-130472680D01*
X157418500Y-131198120D01*
X157419028Y-131202137D01*
X157419029Y-131202139D01*
X157433313Y-131310635D01*
X157473662Y-131408047D01*
X157481131Y-131477517D01*
X157449856Y-131539996D01*
X157389767Y-131575648D01*
X157359101Y-131579500D01*
X156838899Y-131579500D01*
X156771860Y-131559815D01*
X156726105Y-131507011D01*
X156716161Y-131437853D01*
X156724338Y-131408047D01*
X156729262Y-131396156D01*
X156764687Y-131310636D01*
X156779500Y-131198120D01*
X156779500Y-130472680D01*
X156764687Y-130360164D01*
X156706698Y-130220167D01*
X156614451Y-130099949D01*
X156494233Y-130007702D01*
X156354236Y-129949713D01*
X156295356Y-129941961D01*
X156245739Y-129935429D01*
X156245737Y-129935428D01*
X156241720Y-129934900D01*
X155416280Y-129934900D01*
X155412263Y-129935428D01*
X155412260Y-129935429D01*
X155303764Y-129949713D01*
X155163768Y-130007701D01*
X155043549Y-130099949D01*
X154951301Y-130220168D01*
X154893312Y-130360163D01*
X154893313Y-130360164D01*
X154878500Y-130472680D01*
X154878500Y-131198120D01*
X154879028Y-131202137D01*
X154879029Y-131202139D01*
X154893313Y-131310635D01*
X154933662Y-131408047D01*
X154941131Y-131477517D01*
X154909856Y-131539996D01*
X154849767Y-131575648D01*
X154819101Y-131579500D01*
X154568518Y-131579500D01*
X154501479Y-131559815D01*
X154455724Y-131507011D01*
X154445780Y-131437853D01*
X154448183Y-131425574D01*
X154486268Y-131272431D01*
X154488858Y-131234235D01*
X154489000Y-131230046D01*
X154489000Y-131085400D01*
X153604686Y-131085400D01*
X153616641Y-131073445D01*
X153674165Y-130960548D01*
X153693986Y-130835400D01*
X153674165Y-130710252D01*
X153616641Y-130597355D01*
X153604686Y-130585400D01*
X154489000Y-130585400D01*
X154489000Y-130440753D01*
X154488858Y-130436564D01*
X154486268Y-130398368D01*
X154442959Y-130224223D01*
X154363228Y-130063459D01*
X154250802Y-129923597D01*
X154110940Y-129811171D01*
X153950176Y-129731440D01*
X153776031Y-129688131D01*
X153737835Y-129685541D01*
X153733646Y-129685400D01*
X153539000Y-129685400D01*
X153539000Y-130519713D01*
X153527045Y-130507759D01*
X153414148Y-130450235D01*
X153320481Y-130435400D01*
X153257519Y-130435400D01*
X153163852Y-130450235D01*
X153050955Y-130507759D01*
X153039000Y-130519713D01*
X153039000Y-129685400D01*
X152844354Y-129685400D01*
X152840164Y-129685541D01*
X152801968Y-129688131D01*
X152627823Y-129731440D01*
X152467059Y-129811171D01*
X152327197Y-129923597D01*
X152214771Y-130063459D01*
X152135040Y-130224223D01*
X152091731Y-130398368D01*
X152089141Y-130436564D01*
X152089000Y-130440753D01*
X152089000Y-130585400D01*
X152973314Y-130585400D01*
X152961359Y-130597355D01*
X152903835Y-130710252D01*
X152884014Y-130835400D01*
X152903835Y-130960548D01*
X152961359Y-131073445D01*
X152973314Y-131085400D01*
X152089000Y-131085400D01*
X152089000Y-131230046D01*
X152089141Y-131234235D01*
X152091731Y-131272431D01*
X152129817Y-131425574D01*
X152126893Y-131495382D01*
X152086693Y-131552528D01*
X152021978Y-131578869D01*
X152009482Y-131579500D01*
X151758899Y-131579500D01*
X151691860Y-131559815D01*
X151646105Y-131507011D01*
X151636161Y-131437853D01*
X151644338Y-131408047D01*
X151649262Y-131396156D01*
X151684687Y-131310636D01*
X151699500Y-131198120D01*
X151699500Y-130472680D01*
X151684687Y-130360164D01*
X151626698Y-130220167D01*
X151534451Y-130099949D01*
X151414233Y-130007702D01*
X151274236Y-129949713D01*
X151215356Y-129941961D01*
X151165739Y-129935429D01*
X151165737Y-129935428D01*
X151161720Y-129934900D01*
X150336280Y-129934900D01*
X150332263Y-129935428D01*
X150332260Y-129935429D01*
X150223764Y-129949713D01*
X150083768Y-130007701D01*
X149963549Y-130099949D01*
X149871301Y-130220168D01*
X149813312Y-130360163D01*
X149813313Y-130360164D01*
X149798500Y-130472680D01*
X149798500Y-131198120D01*
X149799028Y-131202137D01*
X149799029Y-131202139D01*
X149813313Y-131310635D01*
X149853662Y-131408047D01*
X149861131Y-131477517D01*
X149829856Y-131539996D01*
X149769767Y-131575648D01*
X149739101Y-131579500D01*
X149283500Y-131579500D01*
X149216461Y-131559815D01*
X149170706Y-131507011D01*
X149159500Y-131455500D01*
X149159500Y-130160725D01*
X149144966Y-130087661D01*
X149144966Y-130087660D01*
X149089601Y-130004799D01*
X149006740Y-129949434D01*
X149006739Y-129949433D01*
X149006738Y-129949433D01*
X148933675Y-129934900D01*
X148933674Y-129934900D01*
X147563500Y-129934900D01*
X147496461Y-129915215D01*
X147450706Y-129862411D01*
X147439500Y-129810900D01*
X147439500Y-128658120D01*
X148528500Y-128658120D01*
X148543313Y-128770636D01*
X148601302Y-128910633D01*
X148693549Y-129030851D01*
X148813767Y-129123098D01*
X148953764Y-129181087D01*
X149066280Y-129195900D01*
X149070333Y-129195900D01*
X149887667Y-129195900D01*
X149891720Y-129195900D01*
X150004236Y-129181087D01*
X150144233Y-129123098D01*
X150264451Y-129030851D01*
X150356698Y-128910633D01*
X150414687Y-128770636D01*
X150429500Y-128658120D01*
X151068500Y-128658120D01*
X151083313Y-128770636D01*
X151141302Y-128910633D01*
X151233549Y-129030851D01*
X151353767Y-129123098D01*
X151493764Y-129181087D01*
X151606280Y-129195900D01*
X151610333Y-129195900D01*
X152427667Y-129195900D01*
X152431720Y-129195900D01*
X152544236Y-129181087D01*
X152684233Y-129123098D01*
X152804451Y-129030851D01*
X152896698Y-128910633D01*
X152954687Y-128770636D01*
X152969500Y-128658120D01*
X153608500Y-128658120D01*
X153623313Y-128770636D01*
X153681302Y-128910633D01*
X153773549Y-129030851D01*
X153893767Y-129123098D01*
X154033764Y-129181087D01*
X154146280Y-129195900D01*
X154150333Y-129195900D01*
X154967667Y-129195900D01*
X154971720Y-129195900D01*
X155084236Y-129181087D01*
X155224233Y-129123098D01*
X155344451Y-129030851D01*
X155436698Y-128910633D01*
X155494687Y-128770636D01*
X155509500Y-128658120D01*
X156148500Y-128658120D01*
X156163313Y-128770636D01*
X156221302Y-128910633D01*
X156313549Y-129030851D01*
X156433767Y-129123098D01*
X156573764Y-129181087D01*
X156686280Y-129195900D01*
X156690333Y-129195900D01*
X157507667Y-129195900D01*
X157511720Y-129195900D01*
X157624236Y-129181087D01*
X157764233Y-129123098D01*
X157884451Y-129030851D01*
X157976698Y-128910633D01*
X158034687Y-128770636D01*
X158049500Y-128658120D01*
X158688500Y-128658120D01*
X158703313Y-128770636D01*
X158761302Y-128910633D01*
X158853549Y-129030851D01*
X158973767Y-129123098D01*
X159113764Y-129181087D01*
X159226280Y-129195900D01*
X159230333Y-129195900D01*
X160047667Y-129195900D01*
X160051720Y-129195900D01*
X160164236Y-129181087D01*
X160304233Y-129123098D01*
X160424451Y-129030851D01*
X160516698Y-128910633D01*
X160574687Y-128770636D01*
X160589500Y-128658120D01*
X161228500Y-128658120D01*
X161243313Y-128770636D01*
X161301302Y-128910633D01*
X161393549Y-129030851D01*
X161513767Y-129123098D01*
X161653764Y-129181087D01*
X161766280Y-129195900D01*
X161770333Y-129195900D01*
X162587667Y-129195900D01*
X162591720Y-129195900D01*
X162704236Y-129181087D01*
X162844233Y-129123098D01*
X162964451Y-129030851D01*
X163056698Y-128910633D01*
X163114687Y-128770636D01*
X163129500Y-128658120D01*
X163129500Y-127932680D01*
X163114687Y-127820164D01*
X163056698Y-127680167D01*
X162964451Y-127559949D01*
X162844233Y-127467702D01*
X162704236Y-127409713D01*
X162645356Y-127401961D01*
X162595739Y-127395429D01*
X162595737Y-127395428D01*
X162591720Y-127394900D01*
X161766280Y-127394900D01*
X161762263Y-127395428D01*
X161762260Y-127395429D01*
X161653764Y-127409713D01*
X161513768Y-127467701D01*
X161393549Y-127559949D01*
X161301301Y-127680168D01*
X161243313Y-127820164D01*
X161228500Y-127932680D01*
X161228500Y-128658120D01*
X160589500Y-128658120D01*
X160589500Y-127932680D01*
X160574687Y-127820164D01*
X160516698Y-127680167D01*
X160424451Y-127559949D01*
X160304233Y-127467702D01*
X160164236Y-127409713D01*
X160105356Y-127401961D01*
X160055739Y-127395429D01*
X160055737Y-127395428D01*
X160051720Y-127394900D01*
X159226280Y-127394900D01*
X159222263Y-127395428D01*
X159222260Y-127395429D01*
X159113764Y-127409713D01*
X158973768Y-127467701D01*
X158853549Y-127559949D01*
X158761301Y-127680168D01*
X158703312Y-127820163D01*
X158703313Y-127820164D01*
X158688500Y-127932680D01*
X158688500Y-128658120D01*
X158049500Y-128658120D01*
X158049500Y-127932680D01*
X158034687Y-127820164D01*
X157976698Y-127680167D01*
X157884451Y-127559949D01*
X157764233Y-127467702D01*
X157624236Y-127409713D01*
X157565356Y-127401961D01*
X157515739Y-127395429D01*
X157515737Y-127395428D01*
X157511720Y-127394900D01*
X156686280Y-127394900D01*
X156682263Y-127395428D01*
X156682260Y-127395429D01*
X156573764Y-127409713D01*
X156433768Y-127467701D01*
X156313549Y-127559949D01*
X156221301Y-127680168D01*
X156163313Y-127820164D01*
X156148500Y-127932680D01*
X156148500Y-128658120D01*
X155509500Y-128658120D01*
X155509500Y-127932680D01*
X155494687Y-127820164D01*
X155436698Y-127680167D01*
X155344451Y-127559949D01*
X155224233Y-127467702D01*
X155084236Y-127409713D01*
X155025356Y-127401961D01*
X154975739Y-127395429D01*
X154975737Y-127395428D01*
X154971720Y-127394900D01*
X154146280Y-127394900D01*
X154142263Y-127395428D01*
X154142260Y-127395429D01*
X154033764Y-127409713D01*
X153893768Y-127467701D01*
X153773549Y-127559949D01*
X153681301Y-127680168D01*
X153623312Y-127820164D01*
X153623313Y-127820164D01*
X153608500Y-127932680D01*
X153608500Y-128658120D01*
X152969500Y-128658120D01*
X152969500Y-127932680D01*
X152954687Y-127820164D01*
X152896698Y-127680167D01*
X152804451Y-127559949D01*
X152684233Y-127467702D01*
X152544236Y-127409713D01*
X152485356Y-127401961D01*
X152435739Y-127395429D01*
X152435737Y-127395428D01*
X152431720Y-127394900D01*
X151606280Y-127394900D01*
X151602263Y-127395428D01*
X151602260Y-127395429D01*
X151493764Y-127409713D01*
X151353768Y-127467701D01*
X151233549Y-127559949D01*
X151141301Y-127680168D01*
X151083313Y-127820164D01*
X151068500Y-127932680D01*
X151068500Y-128658120D01*
X150429500Y-128658120D01*
X150429500Y-127932680D01*
X150414687Y-127820164D01*
X150356698Y-127680167D01*
X150264451Y-127559949D01*
X150144233Y-127467702D01*
X150004236Y-127409713D01*
X149945356Y-127401961D01*
X149895739Y-127395429D01*
X149895737Y-127395428D01*
X149891720Y-127394900D01*
X149066280Y-127394900D01*
X149062263Y-127395428D01*
X149062260Y-127395429D01*
X148953764Y-127409713D01*
X148813768Y-127467701D01*
X148693549Y-127559949D01*
X148601301Y-127680168D01*
X148543312Y-127820163D01*
X148543313Y-127820164D01*
X148528500Y-127932680D01*
X148528500Y-128658120D01*
X147439500Y-128658120D01*
X147439500Y-125814700D01*
X147459185Y-125747661D01*
X147511989Y-125701906D01*
X147563500Y-125690700D01*
X148933675Y-125690700D01*
X148958029Y-125685855D01*
X149006740Y-125676166D01*
X149089601Y-125620801D01*
X149144966Y-125537940D01*
X149159500Y-125464874D01*
X149159500Y-124115526D01*
X149144966Y-124042460D01*
X149089601Y-123959599D01*
X149006740Y-123904234D01*
X149006739Y-123904233D01*
X149006738Y-123904233D01*
X148933675Y-123889700D01*
X148933674Y-123889700D01*
X147563500Y-123889700D01*
X147496461Y-123870015D01*
X147450706Y-123817211D01*
X147439500Y-123765700D01*
X147439500Y-121543675D01*
X147459185Y-121476636D01*
X147475819Y-121455994D01*
X147991427Y-120940386D01*
X148514082Y-120417731D01*
X148572084Y-120385017D01*
X148661963Y-120362865D01*
X148731762Y-120365934D01*
X148788824Y-120406254D01*
X148815030Y-120471023D01*
X148814731Y-120498205D01*
X148813020Y-120512295D01*
X148832062Y-120669117D01*
X148888079Y-120816822D01*
X148977814Y-120946827D01*
X148977815Y-120946828D01*
X148977816Y-120946829D01*
X149096059Y-121051582D01*
X149218613Y-121115904D01*
X149268825Y-121164489D01*
X149284799Y-121232508D01*
X149261463Y-121298366D01*
X149206227Y-121341152D01*
X149160986Y-121349700D01*
X149066280Y-121349700D01*
X149062263Y-121350228D01*
X149062260Y-121350229D01*
X148953764Y-121364513D01*
X148813768Y-121422501D01*
X148693549Y-121514749D01*
X148601301Y-121634968D01*
X148543313Y-121774964D01*
X148535381Y-121835217D01*
X148528500Y-121887480D01*
X148528500Y-122612920D01*
X148529028Y-122616937D01*
X148529029Y-122616939D01*
X148543313Y-122725435D01*
X148600985Y-122864669D01*
X148601302Y-122865433D01*
X148693549Y-122985651D01*
X148813767Y-123077898D01*
X148953764Y-123135887D01*
X149066280Y-123150700D01*
X149070333Y-123150700D01*
X149887667Y-123150700D01*
X149891720Y-123150700D01*
X150004236Y-123135887D01*
X150144233Y-123077898D01*
X150174012Y-123055047D01*
X150239182Y-123029852D01*
X150307627Y-123043890D01*
X150357617Y-123092703D01*
X150373500Y-123153422D01*
X150373500Y-123776055D01*
X150353815Y-123843094D01*
X150301011Y-123888849D01*
X150265685Y-123898994D01*
X150223764Y-123904512D01*
X150083768Y-123962501D01*
X149963549Y-124054749D01*
X149871301Y-124174968D01*
X149850930Y-124224148D01*
X149813313Y-124314964D01*
X149798500Y-124427480D01*
X149798500Y-125152920D01*
X149813313Y-125265436D01*
X149838096Y-125325266D01*
X149869621Y-125401376D01*
X149871302Y-125405433D01*
X149963549Y-125525651D01*
X150083767Y-125617898D01*
X150223764Y-125675887D01*
X150336280Y-125690700D01*
X150340333Y-125690700D01*
X151157667Y-125690700D01*
X151161720Y-125690700D01*
X151274236Y-125675887D01*
X151414233Y-125617898D01*
X151534451Y-125525651D01*
X151626698Y-125405433D01*
X151684687Y-125265436D01*
X151695297Y-125184846D01*
X152089000Y-125184846D01*
X152089141Y-125189035D01*
X152091731Y-125227231D01*
X152135040Y-125401376D01*
X152214771Y-125562140D01*
X152327197Y-125702002D01*
X152467059Y-125814428D01*
X152627823Y-125894159D01*
X152801968Y-125937468D01*
X152840164Y-125940058D01*
X152844354Y-125940200D01*
X153039000Y-125940200D01*
X153039000Y-125105885D01*
X153050955Y-125117841D01*
X153163852Y-125175365D01*
X153257519Y-125190200D01*
X153320481Y-125190200D01*
X153414148Y-125175365D01*
X153527045Y-125117841D01*
X153539000Y-125105886D01*
X153539000Y-125940200D01*
X153733646Y-125940200D01*
X153737835Y-125940058D01*
X153776031Y-125937468D01*
X153950176Y-125894159D01*
X154110940Y-125814428D01*
X154250802Y-125702002D01*
X154363228Y-125562140D01*
X154442959Y-125401376D01*
X154486268Y-125227231D01*
X154488858Y-125189035D01*
X154489000Y-125184846D01*
X154489000Y-125152920D01*
X154878500Y-125152920D01*
X154893313Y-125265436D01*
X154918096Y-125325266D01*
X154949621Y-125401376D01*
X154951302Y-125405433D01*
X155043549Y-125525651D01*
X155163767Y-125617898D01*
X155303764Y-125675887D01*
X155416280Y-125690700D01*
X155420333Y-125690700D01*
X156237667Y-125690700D01*
X156241720Y-125690700D01*
X156354236Y-125675887D01*
X156494233Y-125617898D01*
X156614451Y-125525651D01*
X156706698Y-125405433D01*
X156764687Y-125265436D01*
X156779500Y-125152920D01*
X157418500Y-125152920D01*
X157433313Y-125265436D01*
X157458096Y-125325266D01*
X157489621Y-125401376D01*
X157491302Y-125405433D01*
X157583549Y-125525651D01*
X157703767Y-125617898D01*
X157843764Y-125675887D01*
X157956280Y-125690700D01*
X157960333Y-125690700D01*
X158777667Y-125690700D01*
X158781720Y-125690700D01*
X158894236Y-125675887D01*
X159034233Y-125617898D01*
X159154451Y-125525651D01*
X159246698Y-125405433D01*
X159304687Y-125265436D01*
X159319500Y-125152920D01*
X159319500Y-124427480D01*
X159304687Y-124314964D01*
X159246698Y-124174967D01*
X159154451Y-124054749D01*
X159034233Y-123962502D01*
X158894236Y-123904513D01*
X158835356Y-123896761D01*
X158785739Y-123890229D01*
X158785737Y-123890228D01*
X158781720Y-123889700D01*
X157956280Y-123889700D01*
X157952263Y-123890228D01*
X157952260Y-123890229D01*
X157843764Y-123904513D01*
X157703768Y-123962501D01*
X157583549Y-124054749D01*
X157491301Y-124174968D01*
X157470930Y-124224148D01*
X157433313Y-124314964D01*
X157418500Y-124427480D01*
X157418500Y-125152920D01*
X156779500Y-125152920D01*
X156779500Y-124427480D01*
X156764687Y-124314964D01*
X156706698Y-124174967D01*
X156614451Y-124054749D01*
X156494233Y-123962502D01*
X156354236Y-123904513D01*
X156295356Y-123896761D01*
X156245739Y-123890229D01*
X156245737Y-123890228D01*
X156241720Y-123889700D01*
X155416280Y-123889700D01*
X155412263Y-123890228D01*
X155412260Y-123890229D01*
X155303764Y-123904513D01*
X155163768Y-123962501D01*
X155043549Y-124054749D01*
X154951301Y-124174968D01*
X154930930Y-124224148D01*
X154893313Y-124314964D01*
X154878500Y-124427480D01*
X154878500Y-125152920D01*
X154489000Y-125152920D01*
X154489000Y-125040200D01*
X153604686Y-125040200D01*
X153616641Y-125028245D01*
X153674165Y-124915348D01*
X153693986Y-124790200D01*
X153674165Y-124665052D01*
X153616641Y-124552155D01*
X153604686Y-124540200D01*
X154489000Y-124540200D01*
X154489000Y-124395553D01*
X154488858Y-124391364D01*
X154486268Y-124353168D01*
X154442959Y-124179023D01*
X154363228Y-124018259D01*
X154250802Y-123878397D01*
X154110940Y-123765971D01*
X153950176Y-123686240D01*
X153776031Y-123642931D01*
X153737835Y-123640341D01*
X153733646Y-123640200D01*
X153539000Y-123640200D01*
X153539000Y-124474513D01*
X153527045Y-124462559D01*
X153414148Y-124405035D01*
X153320481Y-124390200D01*
X153257519Y-124390200D01*
X153163852Y-124405035D01*
X153050955Y-124462559D01*
X153039000Y-124474514D01*
X153039000Y-123640200D01*
X152844354Y-123640200D01*
X152840164Y-123640341D01*
X152801968Y-123642931D01*
X152627823Y-123686240D01*
X152467059Y-123765971D01*
X152327197Y-123878397D01*
X152214771Y-124018259D01*
X152135040Y-124179023D01*
X152091731Y-124353168D01*
X152089141Y-124391364D01*
X152089000Y-124395553D01*
X152089000Y-124540200D01*
X152973314Y-124540200D01*
X152961359Y-124552155D01*
X152903835Y-124665052D01*
X152884014Y-124790200D01*
X152903835Y-124915348D01*
X152961359Y-125028245D01*
X152973314Y-125040200D01*
X152089000Y-125040200D01*
X152089000Y-125184846D01*
X151695297Y-125184846D01*
X151699500Y-125152920D01*
X151699500Y-124427480D01*
X151684687Y-124314964D01*
X151626698Y-124174967D01*
X151534451Y-124054749D01*
X151414233Y-123962502D01*
X151407225Y-123959599D01*
X151274235Y-123904512D01*
X151232315Y-123898994D01*
X151168418Y-123870728D01*
X151129947Y-123812403D01*
X151124500Y-123776055D01*
X151124500Y-123153422D01*
X151144185Y-123086383D01*
X151196989Y-123040628D01*
X151266147Y-123030684D01*
X151323987Y-123055047D01*
X151353767Y-123077898D01*
X151493764Y-123135887D01*
X151606280Y-123150700D01*
X151610333Y-123150700D01*
X152427667Y-123150700D01*
X152431720Y-123150700D01*
X152544236Y-123135887D01*
X152684233Y-123077898D01*
X152804451Y-122985651D01*
X152896698Y-122865433D01*
X152954687Y-122725436D01*
X152969500Y-122612920D01*
X153608500Y-122612920D01*
X153609028Y-122616937D01*
X153609029Y-122616939D01*
X153623313Y-122725435D01*
X153680985Y-122864669D01*
X153681302Y-122865433D01*
X153773549Y-122985651D01*
X153893767Y-123077898D01*
X154033764Y-123135887D01*
X154146280Y-123150700D01*
X154150333Y-123150700D01*
X154967667Y-123150700D01*
X154971720Y-123150700D01*
X155084236Y-123135887D01*
X155224233Y-123077898D01*
X155344451Y-122985651D01*
X155436698Y-122865433D01*
X155494687Y-122725436D01*
X155509500Y-122612920D01*
X155509500Y-121887480D01*
X155494687Y-121774964D01*
X155436698Y-121634967D01*
X155344451Y-121514749D01*
X155224233Y-121422502D01*
X155224170Y-121422476D01*
X155159928Y-121395866D01*
X155084236Y-121364513D01*
X155025356Y-121356761D01*
X154975739Y-121350229D01*
X154975737Y-121350228D01*
X154971720Y-121349700D01*
X154146280Y-121349700D01*
X154142263Y-121350228D01*
X154142260Y-121350229D01*
X154033764Y-121364513D01*
X153893768Y-121422501D01*
X153773549Y-121514749D01*
X153681301Y-121634968D01*
X153623313Y-121774964D01*
X153615381Y-121835217D01*
X153608500Y-121887480D01*
X153608500Y-122612920D01*
X152969500Y-122612920D01*
X152969500Y-121932897D01*
X152989185Y-121865859D01*
X153005819Y-121845217D01*
X154424218Y-120426819D01*
X154485541Y-120393334D01*
X154511899Y-120390500D01*
X159079195Y-120390500D01*
X159104641Y-120393139D01*
X159108440Y-120393935D01*
X159115268Y-120395367D01*
X159145138Y-120391643D01*
X159146677Y-120391452D01*
X159162014Y-120390500D01*
X159162111Y-120390500D01*
X159162114Y-120390500D01*
X159182643Y-120387073D01*
X159187659Y-120386342D01*
X159239626Y-120379866D01*
X159239628Y-120379864D01*
X159247457Y-120378889D01*
X159247666Y-120378822D01*
X159254607Y-120375065D01*
X159254610Y-120375065D01*
X159300666Y-120350140D01*
X159305144Y-120347835D01*
X159352211Y-120324826D01*
X159352212Y-120324824D01*
X159359308Y-120321356D01*
X159359476Y-120321230D01*
X159364824Y-120315419D01*
X159364826Y-120315419D01*
X159400294Y-120276889D01*
X159403795Y-120273240D01*
X160121889Y-119555146D01*
X160141741Y-119539025D01*
X160150836Y-119533084D01*
X160170277Y-119508104D01*
X160180449Y-119496587D01*
X160180520Y-119496517D01*
X160192614Y-119479576D01*
X160195648Y-119475508D01*
X160227809Y-119434189D01*
X160227809Y-119434187D01*
X160232666Y-119427948D01*
X160232753Y-119427779D01*
X160235009Y-119420200D01*
X160235010Y-119420199D01*
X160249951Y-119370009D01*
X160251479Y-119365238D01*
X160268500Y-119315660D01*
X160268500Y-119315655D01*
X160271060Y-119308199D01*
X160271093Y-119307970D01*
X160270767Y-119300090D01*
X160270768Y-119300088D01*
X160269766Y-119275862D01*
X160286663Y-119208067D01*
X160324770Y-119167636D01*
X160340738Y-119156966D01*
X160340740Y-119156966D01*
X160423601Y-119101601D01*
X160424898Y-119099658D01*
X160478508Y-119054855D01*
X160547833Y-119046146D01*
X160610861Y-119076300D01*
X160631098Y-119099654D01*
X160632399Y-119101601D01*
X160715260Y-119156966D01*
X160751792Y-119164233D01*
X160788325Y-119171500D01*
X161430099Y-119171500D01*
X161497138Y-119191185D01*
X161542893Y-119243989D01*
X161552837Y-119313147D01*
X161523812Y-119376703D01*
X161517779Y-119383181D01*
X160890638Y-120010324D01*
X160281781Y-120619181D01*
X160220458Y-120652666D01*
X160194100Y-120655500D01*
X158801805Y-120655500D01*
X158776359Y-120652861D01*
X158765733Y-120650633D01*
X158765732Y-120650633D01*
X158749422Y-120652666D01*
X158734323Y-120654548D01*
X158718986Y-120655500D01*
X158718884Y-120655500D01*
X158698399Y-120658918D01*
X158693332Y-120659657D01*
X158633567Y-120667107D01*
X158633312Y-120667189D01*
X158580370Y-120695838D01*
X158575820Y-120698180D01*
X158521715Y-120724632D01*
X158521505Y-120724788D01*
X158480719Y-120769093D01*
X158477172Y-120772789D01*
X157867527Y-121382433D01*
X157806204Y-121415918D01*
X157736512Y-121410934D01*
X157732393Y-121409313D01*
X157661914Y-121380120D01*
X157624236Y-121364513D01*
X157565356Y-121356761D01*
X157515739Y-121350229D01*
X157515737Y-121350228D01*
X157511720Y-121349700D01*
X156686280Y-121349700D01*
X156682263Y-121350228D01*
X156682260Y-121350229D01*
X156573764Y-121364513D01*
X156433768Y-121422501D01*
X156313549Y-121514749D01*
X156221301Y-121634968D01*
X156163313Y-121774964D01*
X156155381Y-121835217D01*
X156148500Y-121887480D01*
X156148500Y-122612920D01*
X156149028Y-122616937D01*
X156149029Y-122616939D01*
X156163313Y-122725435D01*
X156220985Y-122864669D01*
X156221302Y-122865433D01*
X156313549Y-122985651D01*
X156433767Y-123077898D01*
X156573764Y-123135887D01*
X156686280Y-123150700D01*
X156690333Y-123150700D01*
X157507667Y-123150700D01*
X157511720Y-123150700D01*
X157624236Y-123135887D01*
X157764233Y-123077898D01*
X157884451Y-122985651D01*
X157976698Y-122865433D01*
X158034687Y-122725436D01*
X158049500Y-122612920D01*
X158049500Y-122313898D01*
X158069185Y-122246859D01*
X158085819Y-122226217D01*
X158476819Y-121835217D01*
X158538142Y-121801732D01*
X158607834Y-121806716D01*
X158663767Y-121848588D01*
X158688184Y-121914052D01*
X158688500Y-121922898D01*
X158688500Y-122612920D01*
X158689028Y-122616937D01*
X158689029Y-122616939D01*
X158703313Y-122725435D01*
X158760985Y-122864669D01*
X158761302Y-122865433D01*
X158853549Y-122985651D01*
X158973767Y-123077898D01*
X159113764Y-123135887D01*
X159226280Y-123150700D01*
X159230333Y-123150700D01*
X160047667Y-123150700D01*
X160051720Y-123150700D01*
X160164236Y-123135887D01*
X160304233Y-123077898D01*
X160334012Y-123055047D01*
X160399182Y-123029852D01*
X160467627Y-123043890D01*
X160517617Y-123092703D01*
X160533500Y-123153422D01*
X160533500Y-123776055D01*
X160513815Y-123843094D01*
X160461011Y-123888849D01*
X160425685Y-123898994D01*
X160383764Y-123904512D01*
X160243768Y-123962501D01*
X160123549Y-124054749D01*
X160031301Y-124174968D01*
X160010930Y-124224148D01*
X159973313Y-124314964D01*
X159958500Y-124427480D01*
X159958500Y-125152920D01*
X159973313Y-125265436D01*
X159998096Y-125325266D01*
X160029621Y-125401376D01*
X160031302Y-125405433D01*
X160123549Y-125525651D01*
X160243767Y-125617898D01*
X160383764Y-125675887D01*
X160496280Y-125690700D01*
X160500333Y-125690700D01*
X161317667Y-125690700D01*
X161321720Y-125690700D01*
X161434236Y-125675887D01*
X161574233Y-125617898D01*
X161694451Y-125525651D01*
X161786698Y-125405433D01*
X161844687Y-125265436D01*
X161859500Y-125152920D01*
X161859500Y-124427480D01*
X161844687Y-124314964D01*
X161786698Y-124174967D01*
X161694451Y-124054749D01*
X161574233Y-123962502D01*
X161567225Y-123959599D01*
X161434235Y-123904512D01*
X161392315Y-123898994D01*
X161328418Y-123870728D01*
X161289947Y-123812403D01*
X161284500Y-123776055D01*
X161284500Y-123153422D01*
X161304185Y-123086383D01*
X161356989Y-123040628D01*
X161426147Y-123030684D01*
X161483987Y-123055047D01*
X161513767Y-123077898D01*
X161653764Y-123135887D01*
X161766280Y-123150700D01*
X161770333Y-123150700D01*
X162587667Y-123150700D01*
X162591720Y-123150700D01*
X162704236Y-123135887D01*
X162844233Y-123077898D01*
X162874012Y-123055047D01*
X162939182Y-123029852D01*
X163007627Y-123043890D01*
X163057617Y-123092703D01*
X163073500Y-123153422D01*
X163073500Y-123776055D01*
X163053815Y-123843094D01*
X163001011Y-123888849D01*
X162965685Y-123898994D01*
X162923764Y-123904512D01*
X162783768Y-123962501D01*
X162663549Y-124054749D01*
X162571301Y-124174968D01*
X162550930Y-124224148D01*
X162513313Y-124314964D01*
X162498500Y-124427480D01*
X162498500Y-125152920D01*
X162513313Y-125265436D01*
X162538096Y-125325266D01*
X162569621Y-125401376D01*
X162571302Y-125405433D01*
X162663549Y-125525651D01*
X162783767Y-125617898D01*
X162923764Y-125675887D01*
X163036280Y-125690700D01*
X163040333Y-125690700D01*
X163857667Y-125690700D01*
X163861720Y-125690700D01*
X163974236Y-125675887D01*
X164114233Y-125617898D01*
X164234451Y-125525651D01*
X164326698Y-125405433D01*
X164384687Y-125265436D01*
X164399500Y-125152920D01*
X165038500Y-125152920D01*
X165053313Y-125265436D01*
X165078096Y-125325266D01*
X165109621Y-125401376D01*
X165111302Y-125405433D01*
X165203549Y-125525651D01*
X165323767Y-125617898D01*
X165463764Y-125675887D01*
X165576280Y-125690700D01*
X165580333Y-125690700D01*
X166397667Y-125690700D01*
X166401720Y-125690700D01*
X166514236Y-125675887D01*
X166654233Y-125617898D01*
X166774451Y-125525651D01*
X166866698Y-125405433D01*
X166924687Y-125265436D01*
X166939500Y-125152920D01*
X167578500Y-125152920D01*
X167593313Y-125265436D01*
X167618096Y-125325266D01*
X167649621Y-125401376D01*
X167651302Y-125405433D01*
X167743549Y-125525651D01*
X167863767Y-125617898D01*
X168003764Y-125675887D01*
X168116280Y-125690700D01*
X168120333Y-125690700D01*
X168937667Y-125690700D01*
X168941720Y-125690700D01*
X169054236Y-125675887D01*
X169194233Y-125617898D01*
X169314451Y-125525651D01*
X169406698Y-125405433D01*
X169464687Y-125265436D01*
X169479500Y-125152920D01*
X170118500Y-125152920D01*
X170133313Y-125265436D01*
X170158096Y-125325266D01*
X170189621Y-125401376D01*
X170191302Y-125405433D01*
X170283549Y-125525651D01*
X170403767Y-125617898D01*
X170543764Y-125675887D01*
X170656280Y-125690700D01*
X170660333Y-125690700D01*
X171477667Y-125690700D01*
X171481720Y-125690700D01*
X171594236Y-125675887D01*
X171734233Y-125617898D01*
X171854451Y-125525651D01*
X171946698Y-125405433D01*
X172004687Y-125265436D01*
X172019500Y-125152920D01*
X172019500Y-124427480D01*
X172004687Y-124314964D01*
X171946698Y-124174967D01*
X171854451Y-124054749D01*
X171734233Y-123962502D01*
X171594236Y-123904513D01*
X171535356Y-123896761D01*
X171485739Y-123890229D01*
X171485737Y-123890228D01*
X171481720Y-123889700D01*
X170656280Y-123889700D01*
X170652263Y-123890228D01*
X170652260Y-123890229D01*
X170543764Y-123904513D01*
X170403768Y-123962501D01*
X170283549Y-124054749D01*
X170191301Y-124174968D01*
X170170930Y-124224148D01*
X170133313Y-124314964D01*
X170118500Y-124427480D01*
X170118500Y-125152920D01*
X169479500Y-125152920D01*
X169479500Y-124427480D01*
X169464687Y-124314964D01*
X169406698Y-124174967D01*
X169314451Y-124054749D01*
X169194233Y-123962502D01*
X169054236Y-123904513D01*
X168995356Y-123896761D01*
X168945739Y-123890229D01*
X168945737Y-123890228D01*
X168941720Y-123889700D01*
X168116280Y-123889700D01*
X168112263Y-123890228D01*
X168112260Y-123890229D01*
X168003764Y-123904513D01*
X167863768Y-123962501D01*
X167743549Y-124054749D01*
X167651301Y-124174968D01*
X167630930Y-124224148D01*
X167593313Y-124314964D01*
X167578500Y-124427480D01*
X167578500Y-125152920D01*
X166939500Y-125152920D01*
X166939500Y-124427480D01*
X166924687Y-124314964D01*
X166866698Y-124174967D01*
X166774451Y-124054749D01*
X166654233Y-123962502D01*
X166514236Y-123904513D01*
X166455356Y-123896761D01*
X166405739Y-123890229D01*
X166405737Y-123890228D01*
X166401720Y-123889700D01*
X165576280Y-123889700D01*
X165572263Y-123890228D01*
X165572260Y-123890229D01*
X165463764Y-123904513D01*
X165323768Y-123962501D01*
X165203549Y-124054749D01*
X165111301Y-124174968D01*
X165090930Y-124224148D01*
X165053313Y-124314964D01*
X165038500Y-124427480D01*
X165038500Y-125152920D01*
X164399500Y-125152920D01*
X164399500Y-124427480D01*
X164384687Y-124314964D01*
X164326698Y-124174967D01*
X164234451Y-124054749D01*
X164114233Y-123962502D01*
X164107225Y-123959599D01*
X163974235Y-123904512D01*
X163932315Y-123898994D01*
X163868418Y-123870728D01*
X163829947Y-123812403D01*
X163824500Y-123776055D01*
X163824500Y-123153422D01*
X163844185Y-123086383D01*
X163896989Y-123040628D01*
X163966147Y-123030684D01*
X164023987Y-123055047D01*
X164053767Y-123077898D01*
X164193764Y-123135887D01*
X164306280Y-123150700D01*
X164310333Y-123150700D01*
X165127667Y-123150700D01*
X165131720Y-123150700D01*
X165244236Y-123135887D01*
X165384233Y-123077898D01*
X165504451Y-122985651D01*
X165596698Y-122865433D01*
X165654687Y-122725436D01*
X165669500Y-122612920D01*
X165669500Y-121887480D01*
X165654687Y-121774964D01*
X165596698Y-121634967D01*
X165574461Y-121605987D01*
X165549266Y-121540818D01*
X165563304Y-121472373D01*
X165612118Y-121422383D01*
X165672836Y-121406500D01*
X166305164Y-121406500D01*
X166372203Y-121426185D01*
X166417958Y-121478989D01*
X166427902Y-121548147D01*
X166403539Y-121605987D01*
X166381302Y-121634966D01*
X166323313Y-121774964D01*
X166315381Y-121835217D01*
X166308500Y-121887480D01*
X166308500Y-122612920D01*
X166309028Y-122616937D01*
X166309029Y-122616939D01*
X166323313Y-122725435D01*
X166380985Y-122864669D01*
X166381302Y-122865433D01*
X166473549Y-122985651D01*
X166593767Y-123077898D01*
X166733764Y-123135887D01*
X166846280Y-123150700D01*
X166850333Y-123150700D01*
X167667667Y-123150700D01*
X167671720Y-123150700D01*
X167784236Y-123135887D01*
X167924233Y-123077898D01*
X168044451Y-122985651D01*
X168136698Y-122865433D01*
X168194687Y-122725436D01*
X168209500Y-122612920D01*
X168209500Y-121887480D01*
X168194687Y-121774964D01*
X168136698Y-121634967D01*
X168114461Y-121605987D01*
X168089266Y-121540818D01*
X168103304Y-121472373D01*
X168152118Y-121422383D01*
X168212836Y-121406500D01*
X168845164Y-121406500D01*
X168912203Y-121426185D01*
X168957958Y-121478989D01*
X168967902Y-121548147D01*
X168943539Y-121605987D01*
X168921302Y-121634966D01*
X168863313Y-121774964D01*
X168855381Y-121835217D01*
X168848500Y-121887480D01*
X168848500Y-122612920D01*
X168849028Y-122616937D01*
X168849029Y-122616939D01*
X168863313Y-122725435D01*
X168920985Y-122864669D01*
X168921302Y-122865433D01*
X169013549Y-122985651D01*
X169133767Y-123077898D01*
X169273764Y-123135887D01*
X169386280Y-123150700D01*
X169390333Y-123150700D01*
X170207667Y-123150700D01*
X170211720Y-123150700D01*
X170324236Y-123135887D01*
X170464233Y-123077898D01*
X170584451Y-122985651D01*
X170676698Y-122865433D01*
X170734687Y-122725436D01*
X170749500Y-122612920D01*
X170749500Y-121887480D01*
X170734687Y-121774964D01*
X170676698Y-121634967D01*
X170584451Y-121514749D01*
X170464233Y-121422502D01*
X170464170Y-121422476D01*
X170399928Y-121395866D01*
X170324236Y-121364513D01*
X170305702Y-121362073D01*
X170283942Y-121359208D01*
X170220046Y-121330941D01*
X170181575Y-121272616D01*
X170180744Y-121202752D01*
X170212445Y-121148590D01*
X171551889Y-119809146D01*
X171571741Y-119793025D01*
X171580836Y-119787084D01*
X171600273Y-119762110D01*
X171610453Y-119750583D01*
X171610519Y-119750518D01*
X171622624Y-119733561D01*
X171625627Y-119729534D01*
X171657809Y-119688189D01*
X171657810Y-119688185D01*
X171662666Y-119681947D01*
X171662753Y-119681779D01*
X171665010Y-119674199D01*
X171679955Y-119623997D01*
X171681486Y-119619218D01*
X171698500Y-119569660D01*
X171698500Y-119569656D01*
X171701060Y-119562200D01*
X171701093Y-119561970D01*
X171700767Y-119554091D01*
X171700768Y-119554089D01*
X171698606Y-119501807D01*
X171698500Y-119496684D01*
X171698500Y-119271514D01*
X171718185Y-119204475D01*
X171753610Y-119168411D01*
X171770738Y-119156966D01*
X171770740Y-119156966D01*
X171853601Y-119101601D01*
X171854898Y-119099659D01*
X171908503Y-119054857D01*
X171977828Y-119046146D01*
X172040857Y-119076297D01*
G37*
G04 #@! TD.AperFunction*
G04 #@! TA.AperFunction,Conductor*
G36*
X143751140Y-106567185D02*
G01*
X143771782Y-106583819D01*
X143847982Y-106660019D01*
X143881467Y-106721342D01*
X143876483Y-106791034D01*
X143834611Y-106846967D01*
X143769147Y-106871384D01*
X143760301Y-106871700D01*
X143097280Y-106871700D01*
X143093263Y-106872228D01*
X143093260Y-106872229D01*
X142984764Y-106886513D01*
X142844768Y-106944501D01*
X142724549Y-107036749D01*
X142632301Y-107156968D01*
X142574312Y-107296964D01*
X142574313Y-107296964D01*
X142559500Y-107409480D01*
X142559500Y-108134920D01*
X142574313Y-108247436D01*
X142632302Y-108387433D01*
X142724549Y-108507651D01*
X142844767Y-108599898D01*
X142984764Y-108657887D01*
X143097280Y-108672700D01*
X143101333Y-108672700D01*
X143918667Y-108672700D01*
X143922720Y-108672700D01*
X144035236Y-108657887D01*
X144175233Y-108599898D01*
X144295451Y-108507651D01*
X144387698Y-108387433D01*
X144445687Y-108247436D01*
X144460500Y-108134920D01*
X144460500Y-107571898D01*
X144480185Y-107504859D01*
X144532989Y-107459104D01*
X144602147Y-107449160D01*
X144665703Y-107478185D01*
X144672166Y-107484203D01*
X146232438Y-109044475D01*
X147779850Y-110591887D01*
X147795977Y-110611746D01*
X147801915Y-110620835D01*
X147826894Y-110640277D01*
X147838412Y-110650449D01*
X147844281Y-110656318D01*
X147877766Y-110717641D01*
X147872782Y-110787333D01*
X147844281Y-110831680D01*
X147581781Y-111094181D01*
X147520458Y-111127666D01*
X147494100Y-111130500D01*
X143213327Y-111130500D01*
X143146288Y-111110815D01*
X143100533Y-111058011D01*
X143090589Y-110988853D01*
X143114950Y-110931015D01*
X143115958Y-110929700D01*
X143117698Y-110927433D01*
X143175687Y-110787436D01*
X143190500Y-110674920D01*
X143190500Y-109949480D01*
X143175687Y-109836964D01*
X143117698Y-109696967D01*
X143025451Y-109576749D01*
X142905233Y-109484502D01*
X142882573Y-109475116D01*
X142848830Y-109461139D01*
X142765236Y-109426513D01*
X142700087Y-109417936D01*
X142656739Y-109412229D01*
X142656737Y-109412228D01*
X142652720Y-109411700D01*
X141827280Y-109411700D01*
X141823263Y-109412228D01*
X141823260Y-109412229D01*
X141714764Y-109426513D01*
X141574768Y-109484501D01*
X141454549Y-109576749D01*
X141362301Y-109696968D01*
X141304313Y-109836964D01*
X141291414Y-109934944D01*
X141289500Y-109949480D01*
X141289500Y-110674920D01*
X141304313Y-110787436D01*
X141357515Y-110915877D01*
X141362302Y-110927433D01*
X141365050Y-110931015D01*
X141390243Y-110996185D01*
X141376204Y-111064629D01*
X141327389Y-111114618D01*
X141266673Y-111130500D01*
X140673327Y-111130500D01*
X140606288Y-111110815D01*
X140560533Y-111058011D01*
X140550589Y-110988853D01*
X140574950Y-110931015D01*
X140575958Y-110929700D01*
X140577698Y-110927433D01*
X140635687Y-110787436D01*
X140650500Y-110674920D01*
X140650500Y-109949480D01*
X140635687Y-109836964D01*
X140577698Y-109696967D01*
X140485451Y-109576749D01*
X140365233Y-109484502D01*
X140342573Y-109475116D01*
X140308830Y-109461139D01*
X140225236Y-109426513D01*
X140160087Y-109417936D01*
X140116739Y-109412229D01*
X140116737Y-109412228D01*
X140112720Y-109411700D01*
X139287280Y-109411700D01*
X139283263Y-109412228D01*
X139283260Y-109412229D01*
X139174764Y-109426513D01*
X139034768Y-109484501D01*
X138914549Y-109576749D01*
X138822301Y-109696968D01*
X138764313Y-109836964D01*
X138751414Y-109934944D01*
X138749500Y-109949480D01*
X138749500Y-110674920D01*
X138764313Y-110787436D01*
X138817515Y-110915877D01*
X138822302Y-110927433D01*
X138825050Y-110931015D01*
X138850243Y-110996185D01*
X138836204Y-111064629D01*
X138787389Y-111114618D01*
X138726673Y-111130500D01*
X138133327Y-111130500D01*
X138066288Y-111110815D01*
X138020533Y-111058011D01*
X138010589Y-110988853D01*
X138034950Y-110931015D01*
X138035958Y-110929700D01*
X138037698Y-110927433D01*
X138095687Y-110787436D01*
X138110500Y-110674920D01*
X138110500Y-109949480D01*
X138095687Y-109836964D01*
X138037698Y-109696967D01*
X137945451Y-109576749D01*
X137825233Y-109484502D01*
X137802573Y-109475116D01*
X137768830Y-109461139D01*
X137685236Y-109426513D01*
X137620087Y-109417936D01*
X137576739Y-109412229D01*
X137576737Y-109412228D01*
X137572720Y-109411700D01*
X136747280Y-109411700D01*
X136743263Y-109412228D01*
X136743260Y-109412229D01*
X136634764Y-109426513D01*
X136494768Y-109484501D01*
X136374549Y-109576749D01*
X136282301Y-109696968D01*
X136224313Y-109836964D01*
X136211414Y-109934944D01*
X136209500Y-109949480D01*
X136209500Y-110674920D01*
X136224313Y-110787436D01*
X136277515Y-110915877D01*
X136282302Y-110927433D01*
X136285050Y-110931015D01*
X136310243Y-110996185D01*
X136296204Y-111064629D01*
X136247389Y-111114618D01*
X136186673Y-111130500D01*
X135593327Y-111130500D01*
X135526288Y-111110815D01*
X135480533Y-111058011D01*
X135470589Y-110988853D01*
X135494950Y-110931015D01*
X135495958Y-110929700D01*
X135497698Y-110927433D01*
X135555687Y-110787436D01*
X135570500Y-110674920D01*
X135570500Y-109949480D01*
X135555687Y-109836964D01*
X135497698Y-109696967D01*
X135405451Y-109576749D01*
X135285233Y-109484502D01*
X135262573Y-109475116D01*
X135228830Y-109461139D01*
X135145236Y-109426513D01*
X135080087Y-109417936D01*
X135036739Y-109412229D01*
X135036737Y-109412228D01*
X135032720Y-109411700D01*
X134207280Y-109411700D01*
X134203263Y-109412228D01*
X134203260Y-109412229D01*
X134094764Y-109426513D01*
X133954768Y-109484501D01*
X133834549Y-109576749D01*
X133742301Y-109696968D01*
X133684313Y-109836964D01*
X133671414Y-109934944D01*
X133669500Y-109949480D01*
X133669500Y-110674920D01*
X133684313Y-110787436D01*
X133737515Y-110915877D01*
X133742302Y-110927433D01*
X133745050Y-110931015D01*
X133770243Y-110996185D01*
X133756204Y-111064629D01*
X133707389Y-111114618D01*
X133646673Y-111130500D01*
X133053327Y-111130500D01*
X132986288Y-111110815D01*
X132940533Y-111058011D01*
X132930589Y-110988853D01*
X132954950Y-110931015D01*
X132955958Y-110929700D01*
X132957698Y-110927433D01*
X133015687Y-110787436D01*
X133030500Y-110674920D01*
X133030500Y-109949480D01*
X133015687Y-109836964D01*
X132957698Y-109696967D01*
X132865451Y-109576749D01*
X132745233Y-109484502D01*
X132722573Y-109475116D01*
X132688830Y-109461139D01*
X132605236Y-109426513D01*
X132540087Y-109417936D01*
X132496739Y-109412229D01*
X132496737Y-109412228D01*
X132492720Y-109411700D01*
X131667280Y-109411700D01*
X131663263Y-109412228D01*
X131663260Y-109412229D01*
X131554764Y-109426513D01*
X131414768Y-109484501D01*
X131294549Y-109576749D01*
X131202301Y-109696968D01*
X131144313Y-109836964D01*
X131131414Y-109934944D01*
X131129500Y-109949480D01*
X131129500Y-110674920D01*
X131144313Y-110787436D01*
X131197515Y-110915877D01*
X131202302Y-110927433D01*
X131205050Y-110931015D01*
X131230243Y-110996185D01*
X131216204Y-111064629D01*
X131167389Y-111114618D01*
X131106673Y-111130500D01*
X130513327Y-111130500D01*
X130446288Y-111110815D01*
X130400533Y-111058011D01*
X130390589Y-110988853D01*
X130414950Y-110931015D01*
X130415958Y-110929700D01*
X130417698Y-110927433D01*
X130475687Y-110787436D01*
X130490500Y-110674920D01*
X130490500Y-109949480D01*
X130475687Y-109836964D01*
X130417698Y-109696967D01*
X130325451Y-109576749D01*
X130205233Y-109484502D01*
X130182573Y-109475116D01*
X130148830Y-109461139D01*
X130065236Y-109426513D01*
X130000087Y-109417936D01*
X129956739Y-109412229D01*
X129956737Y-109412228D01*
X129952720Y-109411700D01*
X129127280Y-109411700D01*
X129123263Y-109412228D01*
X129123260Y-109412229D01*
X129014764Y-109426513D01*
X128874768Y-109484501D01*
X128754549Y-109576749D01*
X128662301Y-109696968D01*
X128604313Y-109836964D01*
X128591414Y-109934944D01*
X128589500Y-109949480D01*
X128589500Y-110674920D01*
X128604313Y-110787436D01*
X128657515Y-110915877D01*
X128662302Y-110927433D01*
X128665050Y-110931015D01*
X128690243Y-110996185D01*
X128676204Y-111064629D01*
X128627389Y-111114618D01*
X128566673Y-111130500D01*
X127973327Y-111130500D01*
X127906288Y-111110815D01*
X127860533Y-111058011D01*
X127850589Y-110988853D01*
X127874950Y-110931015D01*
X127875958Y-110929700D01*
X127877698Y-110927433D01*
X127935687Y-110787436D01*
X127950500Y-110674920D01*
X127950500Y-109949480D01*
X127935687Y-109836964D01*
X127877698Y-109696967D01*
X127785451Y-109576749D01*
X127665233Y-109484502D01*
X127647844Y-109477299D01*
X127525235Y-109426512D01*
X127483315Y-109420994D01*
X127419418Y-109392728D01*
X127380947Y-109334403D01*
X127375500Y-109298055D01*
X127375500Y-108675422D01*
X127395185Y-108608383D01*
X127447989Y-108562628D01*
X127517147Y-108552684D01*
X127574987Y-108577047D01*
X127604767Y-108599898D01*
X127744764Y-108657887D01*
X127857280Y-108672700D01*
X127861333Y-108672700D01*
X128678667Y-108672700D01*
X128682720Y-108672700D01*
X128795236Y-108657887D01*
X128935233Y-108599898D01*
X129055451Y-108507651D01*
X129147698Y-108387433D01*
X129205687Y-108247436D01*
X129220500Y-108134920D01*
X129859500Y-108134920D01*
X129874313Y-108247436D01*
X129932302Y-108387433D01*
X130024549Y-108507651D01*
X130144767Y-108599898D01*
X130284764Y-108657887D01*
X130397280Y-108672700D01*
X130401333Y-108672700D01*
X131218667Y-108672700D01*
X131222720Y-108672700D01*
X131335236Y-108657887D01*
X131475233Y-108599898D01*
X131595451Y-108507651D01*
X131687698Y-108387433D01*
X131745687Y-108247436D01*
X131760500Y-108134920D01*
X132399500Y-108134920D01*
X132414313Y-108247436D01*
X132472302Y-108387433D01*
X132564549Y-108507651D01*
X132684767Y-108599898D01*
X132824764Y-108657887D01*
X132937280Y-108672700D01*
X132941333Y-108672700D01*
X133758667Y-108672700D01*
X133762720Y-108672700D01*
X133875236Y-108657887D01*
X134015233Y-108599898D01*
X134135451Y-108507651D01*
X134227698Y-108387433D01*
X134285687Y-108247436D01*
X134300500Y-108134920D01*
X134939500Y-108134920D01*
X134954313Y-108247436D01*
X135012302Y-108387433D01*
X135104549Y-108507651D01*
X135224767Y-108599898D01*
X135364764Y-108657887D01*
X135477280Y-108672700D01*
X135481333Y-108672700D01*
X136298667Y-108672700D01*
X136302720Y-108672700D01*
X136415236Y-108657887D01*
X136555233Y-108599898D01*
X136675451Y-108507651D01*
X136767698Y-108387433D01*
X136825687Y-108247436D01*
X136840500Y-108134920D01*
X137479500Y-108134920D01*
X137494313Y-108247436D01*
X137552302Y-108387433D01*
X137644549Y-108507651D01*
X137764767Y-108599898D01*
X137904764Y-108657887D01*
X138017280Y-108672700D01*
X138021333Y-108672700D01*
X138838667Y-108672700D01*
X138842720Y-108672700D01*
X138955236Y-108657887D01*
X139095233Y-108599898D01*
X139215451Y-108507651D01*
X139307698Y-108387433D01*
X139365687Y-108247436D01*
X139380500Y-108134920D01*
X140019500Y-108134920D01*
X140034313Y-108247436D01*
X140092302Y-108387433D01*
X140184549Y-108507651D01*
X140304767Y-108599898D01*
X140444764Y-108657887D01*
X140557280Y-108672700D01*
X140561333Y-108672700D01*
X141378667Y-108672700D01*
X141382720Y-108672700D01*
X141495236Y-108657887D01*
X141635233Y-108599898D01*
X141755451Y-108507651D01*
X141847698Y-108387433D01*
X141905687Y-108247436D01*
X141920500Y-108134920D01*
X141920500Y-107409480D01*
X141905687Y-107296964D01*
X141847698Y-107156967D01*
X141755451Y-107036749D01*
X141635233Y-106944502D01*
X141635228Y-106944500D01*
X141594228Y-106927517D01*
X141495236Y-106886513D01*
X141436356Y-106878761D01*
X141386739Y-106872229D01*
X141386737Y-106872228D01*
X141382720Y-106871700D01*
X140557280Y-106871700D01*
X140553263Y-106872228D01*
X140553260Y-106872229D01*
X140444764Y-106886513D01*
X140304768Y-106944501D01*
X140184549Y-107036749D01*
X140092301Y-107156968D01*
X140034312Y-107296964D01*
X140034313Y-107296964D01*
X140019500Y-107409480D01*
X140019500Y-108134920D01*
X139380500Y-108134920D01*
X139380500Y-107409480D01*
X139365687Y-107296964D01*
X139307698Y-107156967D01*
X139215451Y-107036749D01*
X139095233Y-106944502D01*
X139095228Y-106944500D01*
X139054228Y-106927517D01*
X138955236Y-106886513D01*
X138896356Y-106878761D01*
X138846739Y-106872229D01*
X138846737Y-106872228D01*
X138842720Y-106871700D01*
X138017280Y-106871700D01*
X138013263Y-106872228D01*
X138013260Y-106872229D01*
X137904764Y-106886513D01*
X137764768Y-106944501D01*
X137644549Y-107036749D01*
X137552301Y-107156968D01*
X137494312Y-107296963D01*
X137494313Y-107296964D01*
X137479500Y-107409480D01*
X137479500Y-108134920D01*
X136840500Y-108134920D01*
X136840500Y-107409480D01*
X136825687Y-107296964D01*
X136767698Y-107156967D01*
X136675451Y-107036749D01*
X136555233Y-106944502D01*
X136555228Y-106944500D01*
X136514228Y-106927517D01*
X136415236Y-106886513D01*
X136356356Y-106878761D01*
X136306739Y-106872229D01*
X136306737Y-106872228D01*
X136302720Y-106871700D01*
X135477280Y-106871700D01*
X135473263Y-106872228D01*
X135473260Y-106872229D01*
X135364764Y-106886513D01*
X135224768Y-106944501D01*
X135104549Y-107036749D01*
X135012301Y-107156968D01*
X134954312Y-107296963D01*
X134954313Y-107296964D01*
X134939500Y-107409480D01*
X134939500Y-108134920D01*
X134300500Y-108134920D01*
X134300500Y-107409480D01*
X134285687Y-107296964D01*
X134227698Y-107156967D01*
X134135451Y-107036749D01*
X134015233Y-106944502D01*
X134015228Y-106944500D01*
X133974228Y-106927517D01*
X133875236Y-106886513D01*
X133816356Y-106878761D01*
X133766739Y-106872229D01*
X133766737Y-106872228D01*
X133762720Y-106871700D01*
X132937280Y-106871700D01*
X132933263Y-106872228D01*
X132933260Y-106872229D01*
X132824764Y-106886513D01*
X132684768Y-106944501D01*
X132564549Y-107036749D01*
X132472301Y-107156968D01*
X132414312Y-107296964D01*
X132414313Y-107296964D01*
X132399500Y-107409480D01*
X132399500Y-108134920D01*
X131760500Y-108134920D01*
X131760500Y-107409480D01*
X131745687Y-107296964D01*
X131687698Y-107156967D01*
X131595451Y-107036749D01*
X131475233Y-106944502D01*
X131475228Y-106944500D01*
X131434228Y-106927517D01*
X131335236Y-106886513D01*
X131276356Y-106878761D01*
X131226739Y-106872229D01*
X131226737Y-106872228D01*
X131222720Y-106871700D01*
X130397280Y-106871700D01*
X130393263Y-106872228D01*
X130393260Y-106872229D01*
X130284764Y-106886513D01*
X130144768Y-106944501D01*
X130024549Y-107036749D01*
X129932301Y-107156968D01*
X129874312Y-107296964D01*
X129874313Y-107296964D01*
X129859500Y-107409480D01*
X129859500Y-108134920D01*
X129220500Y-108134920D01*
X129220500Y-107409480D01*
X129205687Y-107296964D01*
X129147698Y-107156967D01*
X129055451Y-107036749D01*
X128935233Y-106944502D01*
X128935228Y-106944500D01*
X128894228Y-106927517D01*
X128795236Y-106886513D01*
X128736356Y-106878761D01*
X128686739Y-106872229D01*
X128686737Y-106872228D01*
X128682720Y-106871700D01*
X128678667Y-106871700D01*
X128273699Y-106871700D01*
X128206660Y-106852015D01*
X128160905Y-106799211D01*
X128150961Y-106730053D01*
X128179986Y-106666497D01*
X128186018Y-106660019D01*
X128262218Y-106583819D01*
X128323541Y-106550334D01*
X128349899Y-106547500D01*
X143684101Y-106547500D01*
X143751140Y-106567185D01*
G37*
G04 #@! TD.AperFunction*
G04 #@! TA.AperFunction,Conductor*
G36*
X155642926Y-109116857D02*
G01*
X155692332Y-109166262D01*
X155707500Y-109225690D01*
X155707500Y-109775100D01*
X155687815Y-109842139D01*
X155671181Y-109862781D01*
X155074781Y-110459181D01*
X155013458Y-110492666D01*
X154987100Y-110495500D01*
X154127574Y-110495500D01*
X154060535Y-110475815D01*
X154014780Y-110423011D01*
X154004836Y-110353853D01*
X154025524Y-110301060D01*
X154123220Y-110159523D01*
X154139115Y-110117611D01*
X154179237Y-110011818D01*
X154198278Y-109855000D01*
X154179237Y-109698182D01*
X154123220Y-109550477D01*
X154071202Y-109475116D01*
X154033482Y-109420468D01*
X153960273Y-109355611D01*
X153923146Y-109296422D01*
X153918500Y-109262796D01*
X153918500Y-109225690D01*
X153938185Y-109158651D01*
X153990989Y-109112896D01*
X154060147Y-109102952D01*
X154116811Y-109126423D01*
X154220911Y-109204352D01*
X154355628Y-109254599D01*
X154411867Y-109260645D01*
X154418482Y-109261000D01*
X155207518Y-109261000D01*
X155214132Y-109260645D01*
X155270371Y-109254599D01*
X155405088Y-109204352D01*
X155509189Y-109126423D01*
X155574653Y-109102006D01*
X155642926Y-109116857D01*
G37*
G04 #@! TD.AperFunction*
G04 #@! TA.AperFunction,Conductor*
G36*
X175392393Y-103886971D02*
G01*
X175432477Y-103890478D01*
X175561732Y-103903209D01*
X175581644Y-103906832D01*
X175647302Y-103924425D01*
X175651179Y-103925532D01*
X175744384Y-103953806D01*
X175760778Y-103960079D01*
X175827720Y-103991294D01*
X175833710Y-103994288D01*
X175914535Y-104037490D01*
X175927173Y-104045254D01*
X175989366Y-104088802D01*
X175996886Y-104094508D01*
X176066299Y-104151474D01*
X176075315Y-104159646D01*
X176129352Y-104213683D01*
X176137524Y-104222699D01*
X176194490Y-104292112D01*
X176200203Y-104299641D01*
X176243739Y-104361817D01*
X176251514Y-104374474D01*
X176294696Y-104455261D01*
X176297712Y-104461295D01*
X176328917Y-104528215D01*
X176335196Y-104544625D01*
X176363462Y-104637808D01*
X176364576Y-104641708D01*
X176382163Y-104707343D01*
X176385791Y-104727282D01*
X176398523Y-104856546D01*
X176402031Y-104896640D01*
X176402500Y-104907403D01*
X176402500Y-132074585D01*
X176402028Y-132085393D01*
X176398523Y-132125451D01*
X176385791Y-132254719D01*
X176382164Y-132274652D01*
X176364576Y-132340290D01*
X176363462Y-132344190D01*
X176335196Y-132437373D01*
X176328917Y-132453783D01*
X176297712Y-132520703D01*
X176294688Y-132526753D01*
X176251516Y-132607521D01*
X176243733Y-132620191D01*
X176200212Y-132682345D01*
X176194490Y-132689886D01*
X176137524Y-132759299D01*
X176129352Y-132768315D01*
X176075315Y-132822352D01*
X176066299Y-132830524D01*
X175996886Y-132887490D01*
X175989345Y-132893212D01*
X175927191Y-132936733D01*
X175914521Y-132944516D01*
X175833753Y-132987688D01*
X175827703Y-132990712D01*
X175760783Y-133021917D01*
X175744373Y-133028196D01*
X175651190Y-133056462D01*
X175647290Y-133057576D01*
X175581655Y-133075163D01*
X175561716Y-133078791D01*
X175432453Y-133091523D01*
X175423215Y-133092331D01*
X175392360Y-133095031D01*
X175381596Y-133095500D01*
X146944414Y-133095500D01*
X146933606Y-133095028D01*
X146893547Y-133091523D01*
X146764279Y-133078791D01*
X146744346Y-133075164D01*
X146678708Y-133057576D01*
X146674808Y-133056462D01*
X146581625Y-133028196D01*
X146565215Y-133021917D01*
X146498295Y-132990712D01*
X146492261Y-132987696D01*
X146411474Y-132944514D01*
X146398817Y-132936739D01*
X146336641Y-132893203D01*
X146329112Y-132887490D01*
X146259699Y-132830524D01*
X146250683Y-132822352D01*
X146196646Y-132768315D01*
X146188474Y-132759299D01*
X146131508Y-132689886D01*
X146125802Y-132682366D01*
X146082254Y-132620173D01*
X146074490Y-132607535D01*
X146031288Y-132526710D01*
X146028294Y-132520720D01*
X145997079Y-132453778D01*
X145990806Y-132437384D01*
X145962532Y-132344179D01*
X145961422Y-132340290D01*
X145943835Y-132274655D01*
X145943834Y-132274652D01*
X145943834Y-132274649D01*
X145940208Y-132254719D01*
X145927478Y-132125477D01*
X145923968Y-132085359D01*
X145923500Y-132074599D01*
X145923500Y-120590088D01*
X145928072Y-120574514D01*
X145924097Y-120534145D01*
X145923500Y-120521991D01*
X145923500Y-120434066D01*
X145911924Y-120368416D01*
X145913210Y-120356878D01*
X145907439Y-120337852D01*
X145903984Y-120323389D01*
X145903626Y-120321356D01*
X145892614Y-120258905D01*
X145863347Y-120178494D01*
X145862538Y-120165767D01*
X145854707Y-120151117D01*
X145847544Y-120135078D01*
X145831781Y-120091768D01*
X145831780Y-120091765D01*
X145781382Y-120004473D01*
X145777988Y-119990485D01*
X145768646Y-119979102D01*
X145757111Y-119962435D01*
X145740311Y-119933336D01*
X145730713Y-119919141D01*
X145729015Y-119915964D01*
X145710989Y-119899763D01*
X145669046Y-119849777D01*
X145662630Y-119835117D01*
X145652641Y-119826919D01*
X145636317Y-119810772D01*
X145634957Y-119809151D01*
X145628520Y-119801480D01*
X145619222Y-119793678D01*
X145603078Y-119777357D01*
X145599220Y-119772656D01*
X145580221Y-119760952D01*
X145530236Y-119719010D01*
X145520564Y-119704473D01*
X145510857Y-119699285D01*
X145496664Y-119689689D01*
X145467566Y-119672889D01*
X145450901Y-119661355D01*
X145444320Y-119655954D01*
X145425525Y-119648617D01*
X145338232Y-119598218D01*
X145294925Y-119582456D01*
X145278882Y-119575292D01*
X145269137Y-119570083D01*
X145251504Y-119566652D01*
X145173276Y-119538180D01*
X145171095Y-119537386D01*
X145144192Y-119532642D01*
X145106614Y-119526016D01*
X145092153Y-119522561D01*
X145078028Y-119518276D01*
X145061581Y-119518075D01*
X144995934Y-119506500D01*
X144995932Y-119506500D01*
X144908019Y-119506500D01*
X144895865Y-119505903D01*
X144862708Y-119502637D01*
X144839911Y-119506500D01*
X118115414Y-119506500D01*
X118104606Y-119506028D01*
X118064547Y-119502523D01*
X117935279Y-119489791D01*
X117915346Y-119486164D01*
X117849708Y-119468576D01*
X117845808Y-119467462D01*
X117752625Y-119439196D01*
X117736215Y-119432917D01*
X117669295Y-119401712D01*
X117663261Y-119398696D01*
X117582474Y-119355514D01*
X117569817Y-119347739D01*
X117507641Y-119304203D01*
X117500112Y-119298490D01*
X117430699Y-119241524D01*
X117421683Y-119233352D01*
X117367646Y-119179315D01*
X117359474Y-119170299D01*
X117307930Y-119107493D01*
X117302506Y-119100884D01*
X117296802Y-119093366D01*
X117253254Y-119031173D01*
X117245490Y-119018535D01*
X117202288Y-118937710D01*
X117199294Y-118931720D01*
X117168079Y-118864778D01*
X117161806Y-118848384D01*
X117133532Y-118755179D01*
X117132422Y-118751290D01*
X117114835Y-118685655D01*
X117111208Y-118665724D01*
X117098478Y-118536477D01*
X117094968Y-118496359D01*
X117094500Y-118485599D01*
X117094500Y-117895674D01*
X118429500Y-117895674D01*
X118444033Y-117968738D01*
X118444033Y-117968739D01*
X118444034Y-117968740D01*
X118499399Y-118051601D01*
X118582260Y-118106966D01*
X118618792Y-118114233D01*
X118655325Y-118121500D01*
X118655326Y-118121500D01*
X120104675Y-118121500D01*
X120129029Y-118116655D01*
X120177740Y-118106966D01*
X120260601Y-118051601D01*
X120315966Y-117968740D01*
X120330500Y-117895674D01*
X120330500Y-117583720D01*
X120969500Y-117583720D01*
X120970028Y-117587737D01*
X120970029Y-117587739D01*
X120984313Y-117696235D01*
X121040621Y-117832176D01*
X121042302Y-117836233D01*
X121134549Y-117956451D01*
X121254767Y-118048698D01*
X121394764Y-118106687D01*
X121507280Y-118121500D01*
X121511333Y-118121500D01*
X122328667Y-118121500D01*
X122332720Y-118121500D01*
X122445236Y-118106687D01*
X122585233Y-118048698D01*
X122705451Y-117956451D01*
X122797698Y-117836233D01*
X122855687Y-117696236D01*
X122870500Y-117583720D01*
X122870500Y-116858280D01*
X122870579Y-116860713D01*
X122885680Y-116793176D01*
X122906483Y-116765552D01*
X123070951Y-116601085D01*
X123132271Y-116567602D01*
X123201963Y-116572586D01*
X123257896Y-116614458D01*
X123282313Y-116679922D01*
X123278964Y-116718693D01*
X123262731Y-116783966D01*
X123260141Y-116822164D01*
X123260000Y-116826353D01*
X123259999Y-116970999D01*
X123260000Y-116971000D01*
X124144314Y-116971000D01*
X124132359Y-116982955D01*
X124074835Y-117095852D01*
X124055014Y-117221000D01*
X124074835Y-117346148D01*
X124132359Y-117459045D01*
X124144314Y-117471000D01*
X123260000Y-117471000D01*
X123260000Y-117615646D01*
X123260141Y-117619835D01*
X123262731Y-117658031D01*
X123306040Y-117832176D01*
X123385771Y-117992940D01*
X123498197Y-118132802D01*
X123638059Y-118245228D01*
X123798823Y-118324959D01*
X123972968Y-118368268D01*
X124011164Y-118370858D01*
X124015354Y-118371000D01*
X124210000Y-118371000D01*
X124210000Y-117536686D01*
X124221955Y-117548641D01*
X124334852Y-117606165D01*
X124428519Y-117621000D01*
X124491481Y-117621000D01*
X124585148Y-117606165D01*
X124698045Y-117548641D01*
X124710000Y-117536686D01*
X124710000Y-118371000D01*
X124904646Y-118371000D01*
X124908835Y-118370858D01*
X124947031Y-118368268D01*
X125121176Y-118324959D01*
X125281940Y-118245228D01*
X125421802Y-118132802D01*
X125534228Y-117992940D01*
X125613959Y-117832176D01*
X125657268Y-117658031D01*
X125659858Y-117619835D01*
X125660000Y-117615646D01*
X125660000Y-117471000D01*
X124775686Y-117471000D01*
X124787641Y-117459045D01*
X124845165Y-117346148D01*
X124864986Y-117221000D01*
X124845165Y-117095852D01*
X124787641Y-116982955D01*
X124775686Y-116971000D01*
X125659999Y-116971000D01*
X125660000Y-116826353D01*
X125659858Y-116822164D01*
X125657268Y-116783970D01*
X125641035Y-116718696D01*
X125643959Y-116648887D01*
X125684159Y-116591741D01*
X125748873Y-116565400D01*
X125817555Y-116578228D01*
X125849051Y-116601088D01*
X126013512Y-116765549D01*
X126046997Y-116826872D01*
X126049450Y-116859798D01*
X126049500Y-116858280D01*
X126049500Y-117583720D01*
X126050028Y-117587737D01*
X126050029Y-117587739D01*
X126064313Y-117696235D01*
X126120621Y-117832176D01*
X126122302Y-117836233D01*
X126214549Y-117956451D01*
X126334767Y-118048698D01*
X126474764Y-118106687D01*
X126587280Y-118121500D01*
X126591333Y-118121500D01*
X127408667Y-118121500D01*
X127412720Y-118121500D01*
X127525236Y-118106687D01*
X127665233Y-118048698D01*
X127785451Y-117956451D01*
X127877698Y-117836233D01*
X127935687Y-117696236D01*
X127950500Y-117583720D01*
X128589500Y-117583720D01*
X128590028Y-117587737D01*
X128590029Y-117587739D01*
X128604313Y-117696235D01*
X128660621Y-117832176D01*
X128662302Y-117836233D01*
X128754549Y-117956451D01*
X128874767Y-118048698D01*
X129014764Y-118106687D01*
X129127280Y-118121500D01*
X129131333Y-118121500D01*
X129948667Y-118121500D01*
X129952720Y-118121500D01*
X130065236Y-118106687D01*
X130205233Y-118048698D01*
X130325451Y-117956451D01*
X130417698Y-117836233D01*
X130475687Y-117696236D01*
X130490500Y-117583720D01*
X131129500Y-117583720D01*
X131130028Y-117587737D01*
X131130029Y-117587739D01*
X131144313Y-117696235D01*
X131200621Y-117832176D01*
X131202302Y-117836233D01*
X131294549Y-117956451D01*
X131414767Y-118048698D01*
X131554764Y-118106687D01*
X131667280Y-118121500D01*
X131671333Y-118121500D01*
X132488667Y-118121500D01*
X132492720Y-118121500D01*
X132605236Y-118106687D01*
X132745233Y-118048698D01*
X132865451Y-117956451D01*
X132957698Y-117836233D01*
X133015687Y-117696236D01*
X133030500Y-117583720D01*
X133669500Y-117583720D01*
X133670028Y-117587737D01*
X133670029Y-117587739D01*
X133684313Y-117696235D01*
X133740621Y-117832176D01*
X133742302Y-117836233D01*
X133834549Y-117956451D01*
X133954767Y-118048698D01*
X134094764Y-118106687D01*
X134207280Y-118121500D01*
X134211333Y-118121500D01*
X135028667Y-118121500D01*
X135032720Y-118121500D01*
X135145236Y-118106687D01*
X135285233Y-118048698D01*
X135405451Y-117956451D01*
X135497698Y-117836233D01*
X135555687Y-117696236D01*
X135570500Y-117583720D01*
X136209500Y-117583720D01*
X136210028Y-117587737D01*
X136210029Y-117587739D01*
X136224313Y-117696235D01*
X136280621Y-117832176D01*
X136282302Y-117836233D01*
X136374549Y-117956451D01*
X136494767Y-118048698D01*
X136634764Y-118106687D01*
X136747280Y-118121500D01*
X136751333Y-118121500D01*
X137568667Y-118121500D01*
X137572720Y-118121500D01*
X137685236Y-118106687D01*
X137825233Y-118048698D01*
X137945451Y-117956451D01*
X138037698Y-117836233D01*
X138095687Y-117696236D01*
X138110500Y-117583720D01*
X138749500Y-117583720D01*
X138750028Y-117587737D01*
X138750029Y-117587739D01*
X138764313Y-117696235D01*
X138820621Y-117832176D01*
X138822302Y-117836233D01*
X138914549Y-117956451D01*
X139034767Y-118048698D01*
X139174764Y-118106687D01*
X139287280Y-118121500D01*
X139291333Y-118121500D01*
X140108667Y-118121500D01*
X140112720Y-118121500D01*
X140225236Y-118106687D01*
X140365233Y-118048698D01*
X140485451Y-117956451D01*
X140577698Y-117836233D01*
X140635687Y-117696236D01*
X140650500Y-117583720D01*
X141289500Y-117583720D01*
X141290028Y-117587737D01*
X141290029Y-117587739D01*
X141304313Y-117696235D01*
X141360621Y-117832176D01*
X141362302Y-117836233D01*
X141454549Y-117956451D01*
X141574767Y-118048698D01*
X141714764Y-118106687D01*
X141827280Y-118121500D01*
X141831333Y-118121500D01*
X142648667Y-118121500D01*
X142652720Y-118121500D01*
X142765236Y-118106687D01*
X142905233Y-118048698D01*
X143025451Y-117956451D01*
X143117698Y-117836233D01*
X143175687Y-117696236D01*
X143190500Y-117583720D01*
X143190500Y-116858280D01*
X143175687Y-116745764D01*
X143117698Y-116605767D01*
X143025451Y-116485549D01*
X142905233Y-116393302D01*
X142878435Y-116382202D01*
X142838159Y-116365519D01*
X142765236Y-116335313D01*
X142706356Y-116327561D01*
X142656739Y-116321029D01*
X142656737Y-116321028D01*
X142652720Y-116320500D01*
X141827280Y-116320500D01*
X141823263Y-116321028D01*
X141823260Y-116321029D01*
X141714764Y-116335313D01*
X141574768Y-116393301D01*
X141454549Y-116485549D01*
X141362301Y-116605768D01*
X141344441Y-116648887D01*
X141304313Y-116745764D01*
X141289500Y-116858280D01*
X141289500Y-117583720D01*
X140650500Y-117583720D01*
X140650500Y-116858280D01*
X140635687Y-116745764D01*
X140577698Y-116605767D01*
X140485451Y-116485549D01*
X140365233Y-116393302D01*
X140338435Y-116382202D01*
X140298159Y-116365519D01*
X140225236Y-116335313D01*
X140166356Y-116327561D01*
X140116739Y-116321029D01*
X140116737Y-116321028D01*
X140112720Y-116320500D01*
X139287280Y-116320500D01*
X139283263Y-116321028D01*
X139283260Y-116321029D01*
X139174764Y-116335313D01*
X139034768Y-116393301D01*
X138914549Y-116485549D01*
X138822301Y-116605768D01*
X138804441Y-116648887D01*
X138764313Y-116745764D01*
X138749500Y-116858280D01*
X138749500Y-117583720D01*
X138110500Y-117583720D01*
X138110500Y-116858280D01*
X138095687Y-116745764D01*
X138037698Y-116605767D01*
X137945451Y-116485549D01*
X137825233Y-116393302D01*
X137798435Y-116382202D01*
X137758159Y-116365519D01*
X137685236Y-116335313D01*
X137626356Y-116327561D01*
X137576739Y-116321029D01*
X137576737Y-116321028D01*
X137572720Y-116320500D01*
X136747280Y-116320500D01*
X136743263Y-116321028D01*
X136743260Y-116321029D01*
X136634764Y-116335313D01*
X136494768Y-116393301D01*
X136374549Y-116485549D01*
X136282301Y-116605768D01*
X136264441Y-116648887D01*
X136224313Y-116745764D01*
X136209500Y-116858280D01*
X136209500Y-117583720D01*
X135570500Y-117583720D01*
X135570500Y-116858280D01*
X135555687Y-116745764D01*
X135497698Y-116605767D01*
X135405451Y-116485549D01*
X135285233Y-116393302D01*
X135258435Y-116382202D01*
X135218159Y-116365519D01*
X135145236Y-116335313D01*
X135086356Y-116327561D01*
X135036739Y-116321029D01*
X135036737Y-116321028D01*
X135032720Y-116320500D01*
X134207280Y-116320500D01*
X134203263Y-116321028D01*
X134203260Y-116321029D01*
X134094764Y-116335313D01*
X133954768Y-116393301D01*
X133834549Y-116485549D01*
X133742301Y-116605768D01*
X133724441Y-116648887D01*
X133684313Y-116745764D01*
X133669500Y-116858280D01*
X133669500Y-117583720D01*
X133030500Y-117583720D01*
X133030500Y-116858280D01*
X133015687Y-116745764D01*
X132957698Y-116605767D01*
X132865451Y-116485549D01*
X132745233Y-116393302D01*
X132718435Y-116382202D01*
X132678159Y-116365519D01*
X132605236Y-116335313D01*
X132546356Y-116327561D01*
X132496739Y-116321029D01*
X132496737Y-116321028D01*
X132492720Y-116320500D01*
X131667280Y-116320500D01*
X131663263Y-116321028D01*
X131663260Y-116321029D01*
X131554764Y-116335313D01*
X131414768Y-116393301D01*
X131294549Y-116485549D01*
X131202301Y-116605768D01*
X131184441Y-116648887D01*
X131144313Y-116745764D01*
X131129500Y-116858280D01*
X131129500Y-117583720D01*
X130490500Y-117583720D01*
X130490500Y-116858280D01*
X130475687Y-116745764D01*
X130417698Y-116605767D01*
X130325451Y-116485549D01*
X130205233Y-116393302D01*
X130178435Y-116382202D01*
X130138159Y-116365519D01*
X130065236Y-116335313D01*
X130006356Y-116327561D01*
X129956739Y-116321029D01*
X129956737Y-116321028D01*
X129952720Y-116320500D01*
X129127280Y-116320500D01*
X129123263Y-116321028D01*
X129123260Y-116321029D01*
X129014764Y-116335313D01*
X128874768Y-116393301D01*
X128754549Y-116485549D01*
X128662301Y-116605768D01*
X128644441Y-116648887D01*
X128604313Y-116745764D01*
X128589500Y-116858280D01*
X128589500Y-117583720D01*
X127950500Y-117583720D01*
X127950500Y-116858280D01*
X127935687Y-116745764D01*
X127877698Y-116605767D01*
X127785451Y-116485549D01*
X127665233Y-116393302D01*
X127638435Y-116382202D01*
X127598159Y-116365519D01*
X127525236Y-116335313D01*
X127466356Y-116327561D01*
X127416739Y-116321029D01*
X127416737Y-116321028D01*
X127412720Y-116320500D01*
X127408667Y-116320500D01*
X126681900Y-116320500D01*
X126614861Y-116300815D01*
X126594219Y-116284181D01*
X126159149Y-115849111D01*
X126143022Y-115829253D01*
X126137083Y-115820162D01*
X126112110Y-115800725D01*
X126100614Y-115790576D01*
X126098580Y-115788543D01*
X126065080Y-115727228D01*
X126070048Y-115657535D01*
X126111905Y-115601591D01*
X126170053Y-115577901D01*
X126255236Y-115566687D01*
X126395233Y-115508698D01*
X126515451Y-115416451D01*
X126607698Y-115296233D01*
X126665687Y-115156236D01*
X126680500Y-115043720D01*
X126680500Y-114820898D01*
X126700185Y-114753859D01*
X126716815Y-114733221D01*
X127107821Y-114342215D01*
X127169141Y-114308732D01*
X127238832Y-114313716D01*
X127294766Y-114355587D01*
X127319183Y-114421052D01*
X127319499Y-114429898D01*
X127319499Y-115039666D01*
X127319500Y-115039681D01*
X127319500Y-115043720D01*
X127334313Y-115156236D01*
X127360716Y-115219977D01*
X127386787Y-115282920D01*
X127392302Y-115296233D01*
X127484549Y-115416451D01*
X127604767Y-115508698D01*
X127744764Y-115566687D01*
X127857280Y-115581500D01*
X127861333Y-115581500D01*
X128678667Y-115581500D01*
X128682720Y-115581500D01*
X128795236Y-115566687D01*
X128935233Y-115508698D01*
X129055451Y-115416451D01*
X129147698Y-115296233D01*
X129205687Y-115156236D01*
X129220500Y-115043720D01*
X129220500Y-114318280D01*
X129220579Y-114320713D01*
X129235680Y-114253176D01*
X129256480Y-114225555D01*
X129532219Y-113949816D01*
X129593541Y-113916334D01*
X129619899Y-113913500D01*
X129809794Y-113913500D01*
X129876833Y-113933185D01*
X129922588Y-113985989D01*
X129932532Y-114055147D01*
X129924355Y-114084951D01*
X129897123Y-114150696D01*
X129874313Y-114205764D01*
X129861907Y-114300000D01*
X129859500Y-114318280D01*
X129859500Y-115043720D01*
X129874313Y-115156236D01*
X129900716Y-115219977D01*
X129926787Y-115282920D01*
X129932302Y-115296233D01*
X130024549Y-115416451D01*
X130144767Y-115508698D01*
X130284764Y-115566687D01*
X130397280Y-115581500D01*
X130401333Y-115581500D01*
X131218667Y-115581500D01*
X131222720Y-115581500D01*
X131335236Y-115566687D01*
X131475233Y-115508698D01*
X131595451Y-115416451D01*
X131687698Y-115296233D01*
X131745687Y-115156236D01*
X131760500Y-115043720D01*
X131760500Y-114318280D01*
X131745687Y-114205764D01*
X131695644Y-114084952D01*
X131688176Y-114015484D01*
X131719451Y-113953004D01*
X131779540Y-113917352D01*
X131810206Y-113913500D01*
X132349794Y-113913500D01*
X132416833Y-113933185D01*
X132462588Y-113985989D01*
X132472532Y-114055147D01*
X132464355Y-114084951D01*
X132437123Y-114150696D01*
X132414313Y-114205764D01*
X132401907Y-114300000D01*
X132399500Y-114318280D01*
X132399500Y-115043720D01*
X132414313Y-115156236D01*
X132440716Y-115219977D01*
X132466787Y-115282920D01*
X132472302Y-115296233D01*
X132564549Y-115416451D01*
X132684767Y-115508698D01*
X132824764Y-115566687D01*
X132937280Y-115581500D01*
X132941333Y-115581500D01*
X133758667Y-115581500D01*
X133762720Y-115581500D01*
X133875236Y-115566687D01*
X134015233Y-115508698D01*
X134135451Y-115416451D01*
X134227698Y-115296233D01*
X134285687Y-115156236D01*
X134300500Y-115043720D01*
X134300500Y-114318280D01*
X134285687Y-114205764D01*
X134235644Y-114084952D01*
X134228176Y-114015484D01*
X134259451Y-113953004D01*
X134319540Y-113917352D01*
X134350206Y-113913500D01*
X134889794Y-113913500D01*
X134956833Y-113933185D01*
X135002588Y-113985989D01*
X135012532Y-114055147D01*
X135004355Y-114084951D01*
X134977123Y-114150696D01*
X134954313Y-114205764D01*
X134941907Y-114300000D01*
X134939500Y-114318280D01*
X134939500Y-115043720D01*
X134954313Y-115156236D01*
X134980716Y-115219977D01*
X135006787Y-115282920D01*
X135012302Y-115296233D01*
X135104549Y-115416451D01*
X135224767Y-115508698D01*
X135364764Y-115566687D01*
X135477280Y-115581500D01*
X135481333Y-115581500D01*
X136298667Y-115581500D01*
X136302720Y-115581500D01*
X136415236Y-115566687D01*
X136555233Y-115508698D01*
X136675451Y-115416451D01*
X136767698Y-115296233D01*
X136825687Y-115156236D01*
X136840500Y-115043720D01*
X136840500Y-114318280D01*
X136825687Y-114205764D01*
X136775644Y-114084952D01*
X136768176Y-114015484D01*
X136799451Y-113953004D01*
X136859540Y-113917352D01*
X136890206Y-113913500D01*
X137429794Y-113913500D01*
X137496833Y-113933185D01*
X137542588Y-113985989D01*
X137552532Y-114055147D01*
X137544355Y-114084951D01*
X137517123Y-114150696D01*
X137494313Y-114205764D01*
X137481907Y-114300000D01*
X137479500Y-114318280D01*
X137479500Y-115043720D01*
X137494313Y-115156236D01*
X137520716Y-115219977D01*
X137546787Y-115282920D01*
X137552302Y-115296233D01*
X137644549Y-115416451D01*
X137764767Y-115508698D01*
X137904764Y-115566687D01*
X138017280Y-115581500D01*
X138021333Y-115581500D01*
X138838667Y-115581500D01*
X138842720Y-115581500D01*
X138955236Y-115566687D01*
X139095233Y-115508698D01*
X139215451Y-115416451D01*
X139307698Y-115296233D01*
X139365687Y-115156236D01*
X139380500Y-115043720D01*
X139380500Y-114318280D01*
X139365687Y-114205764D01*
X139315644Y-114084952D01*
X139308176Y-114015484D01*
X139339451Y-113953004D01*
X139399540Y-113917352D01*
X139430206Y-113913500D01*
X139969794Y-113913500D01*
X140036833Y-113933185D01*
X140082588Y-113985989D01*
X140092532Y-114055147D01*
X140084355Y-114084951D01*
X140057123Y-114150696D01*
X140034313Y-114205764D01*
X140021907Y-114300000D01*
X140019500Y-114318280D01*
X140019500Y-115043720D01*
X140034313Y-115156236D01*
X140060716Y-115219977D01*
X140086787Y-115282920D01*
X140092302Y-115296233D01*
X140184549Y-115416451D01*
X140304767Y-115508698D01*
X140444764Y-115566687D01*
X140557280Y-115581500D01*
X140561333Y-115581500D01*
X141378667Y-115581500D01*
X141382720Y-115581500D01*
X141495236Y-115566687D01*
X141635233Y-115508698D01*
X141755451Y-115416451D01*
X141847698Y-115296233D01*
X141905687Y-115156236D01*
X141920500Y-115043720D01*
X141920500Y-114318280D01*
X141905687Y-114205764D01*
X141855644Y-114084952D01*
X141848176Y-114015484D01*
X141879451Y-113953004D01*
X141939540Y-113917352D01*
X141970206Y-113913500D01*
X142509794Y-113913500D01*
X142576833Y-113933185D01*
X142622588Y-113985989D01*
X142632532Y-114055147D01*
X142624355Y-114084951D01*
X142597123Y-114150696D01*
X142574313Y-114205764D01*
X142561907Y-114300000D01*
X142559500Y-114318280D01*
X142559500Y-115043720D01*
X142574313Y-115156236D01*
X142600716Y-115219977D01*
X142626787Y-115282920D01*
X142632302Y-115296233D01*
X142724549Y-115416451D01*
X142844767Y-115508698D01*
X142984764Y-115566687D01*
X143097280Y-115581500D01*
X143101333Y-115581500D01*
X143918667Y-115581500D01*
X143922720Y-115581500D01*
X144035236Y-115566687D01*
X144175233Y-115508698D01*
X144295451Y-115416451D01*
X144387698Y-115296233D01*
X144445687Y-115156236D01*
X144460500Y-115043720D01*
X144460500Y-114318280D01*
X144445687Y-114205764D01*
X144395644Y-114084952D01*
X144388176Y-114015484D01*
X144419451Y-113953004D01*
X144479540Y-113917352D01*
X144510206Y-113913500D01*
X148223324Y-113913500D01*
X148290363Y-113933185D01*
X148336118Y-113985989D01*
X148346062Y-114055147D01*
X148317037Y-114118703D01*
X148311020Y-114125165D01*
X148189724Y-114246461D01*
X148156569Y-114279616D01*
X148135936Y-114296244D01*
X148131872Y-114298855D01*
X148099351Y-114336386D01*
X148093330Y-114342854D01*
X148083777Y-114352408D01*
X148075677Y-114363227D01*
X148070132Y-114370107D01*
X148037624Y-114407624D01*
X148035618Y-114412017D01*
X148022098Y-114434802D01*
X148019203Y-114438668D01*
X148001851Y-114485191D01*
X147998466Y-114493365D01*
X147977834Y-114538545D01*
X147977147Y-114543323D01*
X147970596Y-114568990D01*
X147968909Y-114573513D01*
X147965365Y-114623053D01*
X147964420Y-114631846D01*
X147962500Y-114645203D01*
X147962500Y-114658691D01*
X147962184Y-114667538D01*
X147958641Y-114717072D01*
X147959666Y-114721784D01*
X147962500Y-114748143D01*
X147962500Y-115257733D01*
X147942815Y-115324772D01*
X147941603Y-115326622D01*
X147877034Y-115423259D01*
X147862500Y-115496325D01*
X147862500Y-118945674D01*
X147877034Y-119018740D01*
X147941603Y-119115377D01*
X147962480Y-119182054D01*
X147962500Y-119184266D01*
X147962500Y-119313695D01*
X147942815Y-119380734D01*
X147940550Y-119384135D01*
X147908079Y-119431177D01*
X147852062Y-119578882D01*
X147845438Y-119633429D01*
X147817815Y-119697606D01*
X147810023Y-119706161D01*
X146632569Y-120883615D01*
X146611936Y-120900244D01*
X146607872Y-120902855D01*
X146575351Y-120940386D01*
X146569330Y-120946854D01*
X146559777Y-120956408D01*
X146551677Y-120967227D01*
X146546132Y-120974107D01*
X146513624Y-121011624D01*
X146511618Y-121016017D01*
X146498098Y-121038802D01*
X146495203Y-121042668D01*
X146477851Y-121089191D01*
X146474466Y-121097365D01*
X146453834Y-121142545D01*
X146453147Y-121147323D01*
X146446596Y-121172990D01*
X146444909Y-121177513D01*
X146441365Y-121227053D01*
X146440420Y-121235837D01*
X146438500Y-121249201D01*
X146438500Y-121249203D01*
X146438500Y-121262691D01*
X146438184Y-121271538D01*
X146434641Y-121321072D01*
X146435666Y-121325784D01*
X146438500Y-121352143D01*
X146438500Y-131602257D01*
X146435666Y-131628615D01*
X146434640Y-131633326D01*
X146438184Y-131682861D01*
X146438500Y-131691708D01*
X146438500Y-131705202D01*
X146440419Y-131718553D01*
X146441365Y-131727347D01*
X146444909Y-131776883D01*
X146446594Y-131781401D01*
X146453147Y-131807076D01*
X146453712Y-131811003D01*
X146453835Y-131811858D01*
X146474457Y-131857012D01*
X146477845Y-131865190D01*
X146495204Y-131911731D01*
X146498095Y-131915594D01*
X146511620Y-131938387D01*
X146513622Y-131942772D01*
X146513623Y-131942773D01*
X146546147Y-131980307D01*
X146551689Y-131987186D01*
X146559779Y-131997993D01*
X146569321Y-132007535D01*
X146575354Y-132014015D01*
X146607870Y-132051542D01*
X146611927Y-132054149D01*
X146632571Y-132070785D01*
X146948213Y-132386427D01*
X146964846Y-132407067D01*
X146967454Y-132411125D01*
X146967456Y-132411127D01*
X146967457Y-132411128D01*
X147005001Y-132443659D01*
X147011465Y-132449679D01*
X147021006Y-132459221D01*
X147031807Y-132467306D01*
X147038700Y-132472860D01*
X147064070Y-132494843D01*
X147076227Y-132505377D01*
X147080609Y-132507378D01*
X147103406Y-132520904D01*
X147107269Y-132523796D01*
X147107270Y-132523796D01*
X147107271Y-132523797D01*
X147153792Y-132541148D01*
X147161972Y-132544536D01*
X147178042Y-132551874D01*
X147207143Y-132565165D01*
X147211916Y-132565851D01*
X147237598Y-132572405D01*
X147242117Y-132574091D01*
X147291652Y-132577633D01*
X147300437Y-132578578D01*
X147313801Y-132580500D01*
X147327292Y-132580500D01*
X147336138Y-132580815D01*
X147385673Y-132584359D01*
X147390386Y-132583334D01*
X147416744Y-132580500D01*
X164677256Y-132580500D01*
X164703614Y-132583334D01*
X164708326Y-132584359D01*
X164708326Y-132584358D01*
X164708327Y-132584359D01*
X164757861Y-132580815D01*
X164766708Y-132580500D01*
X164780197Y-132580500D01*
X164780199Y-132580500D01*
X164793559Y-132578578D01*
X164802351Y-132577633D01*
X164851883Y-132574091D01*
X164856401Y-132572405D01*
X164882081Y-132565851D01*
X164886857Y-132565165D01*
X164932037Y-132544530D01*
X164940191Y-132541153D01*
X164986731Y-132523796D01*
X164990589Y-132520907D01*
X165013397Y-132507375D01*
X165017773Y-132505377D01*
X165055306Y-132472853D01*
X165062182Y-132467313D01*
X165072993Y-132459221D01*
X165082555Y-132449658D01*
X165089003Y-132443654D01*
X165126543Y-132411128D01*
X165129153Y-132407067D01*
X165145782Y-132386430D01*
X165759994Y-131772219D01*
X165821318Y-131738734D01*
X165847676Y-131735900D01*
X166397667Y-131735900D01*
X166401720Y-131735900D01*
X166514236Y-131721087D01*
X166654233Y-131663098D01*
X166774451Y-131570851D01*
X166866698Y-131450633D01*
X166924687Y-131310636D01*
X166939500Y-131198120D01*
X167578500Y-131198120D01*
X167593313Y-131310636D01*
X167651302Y-131450633D01*
X167743549Y-131570851D01*
X167863767Y-131663098D01*
X168003764Y-131721087D01*
X168116280Y-131735900D01*
X168120333Y-131735900D01*
X168937667Y-131735900D01*
X168941720Y-131735900D01*
X169054236Y-131721087D01*
X169194233Y-131663098D01*
X169314451Y-131570851D01*
X169406698Y-131450633D01*
X169464687Y-131310636D01*
X169479500Y-131198120D01*
X170118500Y-131198120D01*
X170133313Y-131310636D01*
X170191302Y-131450633D01*
X170283549Y-131570851D01*
X170403767Y-131663098D01*
X170543764Y-131721087D01*
X170656280Y-131735900D01*
X170660333Y-131735900D01*
X171477667Y-131735900D01*
X171481720Y-131735900D01*
X171594236Y-131721087D01*
X171734233Y-131663098D01*
X171854451Y-131570851D01*
X171946698Y-131450633D01*
X172004687Y-131310636D01*
X172019500Y-131198120D01*
X172019500Y-130472680D01*
X172004687Y-130360164D01*
X171946698Y-130220167D01*
X171854451Y-130099949D01*
X171734233Y-130007702D01*
X171594236Y-129949713D01*
X171535356Y-129941961D01*
X171485739Y-129935429D01*
X171485737Y-129935428D01*
X171481720Y-129934900D01*
X170656280Y-129934900D01*
X170652263Y-129935428D01*
X170652260Y-129935429D01*
X170543764Y-129949713D01*
X170403768Y-130007701D01*
X170283549Y-130099949D01*
X170191301Y-130220168D01*
X170133312Y-130360163D01*
X170133313Y-130360164D01*
X170118500Y-130472680D01*
X170118500Y-131198120D01*
X169479500Y-131198120D01*
X169479500Y-130472680D01*
X169464687Y-130360164D01*
X169406698Y-130220167D01*
X169314451Y-130099949D01*
X169194233Y-130007702D01*
X169054236Y-129949713D01*
X168995356Y-129941961D01*
X168945739Y-129935429D01*
X168945737Y-129935428D01*
X168941720Y-129934900D01*
X168116280Y-129934900D01*
X168112263Y-129935428D01*
X168112260Y-129935429D01*
X168003764Y-129949713D01*
X167863768Y-130007701D01*
X167743549Y-130099949D01*
X167651301Y-130220168D01*
X167593313Y-130360163D01*
X167593313Y-130360164D01*
X167578500Y-130472680D01*
X167578500Y-131198120D01*
X166939500Y-131198120D01*
X166939500Y-130472680D01*
X166924687Y-130360164D01*
X166866698Y-130220167D01*
X166774451Y-130099949D01*
X166654233Y-130007702D01*
X166647225Y-130004799D01*
X166566046Y-129971173D01*
X166511643Y-129927331D01*
X166489579Y-129861037D01*
X166489500Y-129856612D01*
X166489500Y-129265488D01*
X166509185Y-129198449D01*
X166561989Y-129152694D01*
X166631147Y-129142750D01*
X166660949Y-129150925D01*
X166733764Y-129181087D01*
X166846280Y-129195900D01*
X166850333Y-129195900D01*
X167667667Y-129195900D01*
X167671720Y-129195900D01*
X167784236Y-129181087D01*
X167924233Y-129123098D01*
X168044451Y-129030851D01*
X168136698Y-128910633D01*
X168194687Y-128770636D01*
X168209500Y-128658120D01*
X168848500Y-128658120D01*
X168863313Y-128770636D01*
X168921302Y-128910633D01*
X169013549Y-129030851D01*
X169133767Y-129123098D01*
X169273764Y-129181087D01*
X169386280Y-129195900D01*
X169390333Y-129195900D01*
X170207667Y-129195900D01*
X170211720Y-129195900D01*
X170324236Y-129181087D01*
X170464233Y-129123098D01*
X170584451Y-129030851D01*
X170676698Y-128910633D01*
X170734687Y-128770636D01*
X170749500Y-128658120D01*
X171388500Y-128658120D01*
X171403313Y-128770636D01*
X171461302Y-128910633D01*
X171553549Y-129030851D01*
X171673767Y-129123098D01*
X171813764Y-129181087D01*
X171926280Y-129195900D01*
X171930333Y-129195900D01*
X172747667Y-129195900D01*
X172751720Y-129195900D01*
X172864236Y-129181087D01*
X173004233Y-129123098D01*
X173124451Y-129030851D01*
X173216698Y-128910633D01*
X173274687Y-128770636D01*
X173289500Y-128658120D01*
X173289500Y-127932680D01*
X173274687Y-127820164D01*
X173216698Y-127680167D01*
X173124451Y-127559949D01*
X173004233Y-127467702D01*
X172864236Y-127409713D01*
X172805356Y-127401961D01*
X172755739Y-127395429D01*
X172755737Y-127395428D01*
X172751720Y-127394900D01*
X171926280Y-127394900D01*
X171922263Y-127395428D01*
X171922260Y-127395429D01*
X171813764Y-127409713D01*
X171673768Y-127467701D01*
X171553549Y-127559949D01*
X171461301Y-127680168D01*
X171403313Y-127820164D01*
X171388500Y-127932680D01*
X171388500Y-128658120D01*
X170749500Y-128658120D01*
X170749500Y-127932680D01*
X170734687Y-127820164D01*
X170676698Y-127680167D01*
X170584451Y-127559949D01*
X170464233Y-127467702D01*
X170324236Y-127409713D01*
X170265356Y-127401961D01*
X170215739Y-127395429D01*
X170215737Y-127395428D01*
X170211720Y-127394900D01*
X169386280Y-127394900D01*
X169382263Y-127395428D01*
X169382260Y-127395429D01*
X169273764Y-127409713D01*
X169133768Y-127467701D01*
X169013549Y-127559949D01*
X168921301Y-127680168D01*
X168863312Y-127820163D01*
X168863313Y-127820164D01*
X168848500Y-127932680D01*
X168848500Y-128658120D01*
X168209500Y-128658120D01*
X168209500Y-127932680D01*
X168194687Y-127820164D01*
X168136698Y-127680167D01*
X168044451Y-127559949D01*
X167924233Y-127467702D01*
X167784236Y-127409713D01*
X167725356Y-127401961D01*
X167675739Y-127395429D01*
X167675737Y-127395428D01*
X167671720Y-127394900D01*
X167667667Y-127394900D01*
X167236276Y-127394900D01*
X167169237Y-127375215D01*
X167123482Y-127322411D01*
X167113538Y-127253253D01*
X167142563Y-127189697D01*
X167148595Y-127183219D01*
X167175995Y-127155819D01*
X167237318Y-127122334D01*
X167263676Y-127119500D01*
X173764741Y-127119500D01*
X173831780Y-127139185D01*
X173866109Y-127176386D01*
X173866568Y-127176010D01*
X173873049Y-127183907D01*
X173874098Y-127185044D01*
X173874314Y-127185449D01*
X174005589Y-127345410D01*
X174083944Y-127409713D01*
X174165550Y-127476685D01*
X174348046Y-127574232D01*
X174546066Y-127634300D01*
X174752000Y-127654583D01*
X174957934Y-127634300D01*
X175155954Y-127574232D01*
X175338450Y-127476685D01*
X175498410Y-127345410D01*
X175629685Y-127185450D01*
X175727232Y-127002954D01*
X175787300Y-126804934D01*
X175807583Y-126599000D01*
X175787300Y-126393066D01*
X175727232Y-126195046D01*
X175629685Y-126012550D01*
X175564047Y-125932570D01*
X175498410Y-125852589D01*
X175370553Y-125747661D01*
X175338450Y-125721315D01*
X175155954Y-125623768D01*
X175068854Y-125597346D01*
X175010418Y-125559050D01*
X174981962Y-125495238D01*
X174992522Y-125426171D01*
X175038746Y-125373777D01*
X175072759Y-125358912D01*
X175198325Y-125325266D01*
X175404480Y-125229134D01*
X175477472Y-125178025D01*
X174796400Y-124496953D01*
X174877148Y-124484165D01*
X174990045Y-124426641D01*
X175079641Y-124337045D01*
X175137165Y-124224148D01*
X175149953Y-124143400D01*
X175831025Y-124824472D01*
X175882134Y-124751480D01*
X175978266Y-124545326D01*
X176037141Y-124325602D01*
X176056966Y-124099000D01*
X176037141Y-123872397D01*
X175978266Y-123652673D01*
X175882133Y-123446515D01*
X175831025Y-123373526D01*
X175149953Y-124054598D01*
X175137165Y-123973852D01*
X175079641Y-123860955D01*
X174990045Y-123771359D01*
X174877148Y-123713835D01*
X174796400Y-123701046D01*
X175477472Y-123019974D01*
X175477471Y-123019972D01*
X175404484Y-122968866D01*
X175198326Y-122872733D01*
X174978602Y-122813858D01*
X174752000Y-122794033D01*
X174525397Y-122813858D01*
X174305673Y-122872733D01*
X174158905Y-122941173D01*
X174089827Y-122951665D01*
X174026043Y-122923145D01*
X173987804Y-122864669D01*
X173982500Y-122828791D01*
X173982500Y-121225139D01*
X173985334Y-121198779D01*
X173986358Y-121194071D01*
X173982816Y-121144547D01*
X173982500Y-121135701D01*
X173982500Y-121122201D01*
X173980579Y-121108844D01*
X173979632Y-121100037D01*
X173979441Y-121097365D01*
X173976091Y-121050517D01*
X173974408Y-121046005D01*
X173967851Y-121020316D01*
X173967165Y-121015543D01*
X173946533Y-120970366D01*
X173943148Y-120962195D01*
X173940990Y-120956408D01*
X173925795Y-120915669D01*
X173922908Y-120911813D01*
X173909380Y-120889014D01*
X173907377Y-120884627D01*
X173874862Y-120847103D01*
X173869305Y-120840207D01*
X173861218Y-120829403D01*
X173851679Y-120819865D01*
X173845659Y-120813401D01*
X173813128Y-120775857D01*
X173813127Y-120775856D01*
X173813125Y-120775854D01*
X173809067Y-120773246D01*
X173788427Y-120756613D01*
X173296375Y-120264560D01*
X173296360Y-120264547D01*
X173129817Y-120098003D01*
X173096334Y-120036682D01*
X173093500Y-120010324D01*
X173093500Y-119184266D01*
X173113185Y-119117227D01*
X173114397Y-119115377D01*
X173140528Y-119076268D01*
X173178966Y-119018740D01*
X173193500Y-118945674D01*
X173193500Y-115496326D01*
X173178966Y-115423260D01*
X173123601Y-115340399D01*
X173040740Y-115285034D01*
X173040739Y-115285033D01*
X173040738Y-115285033D01*
X172967675Y-115270500D01*
X172967674Y-115270500D01*
X172218326Y-115270500D01*
X172218325Y-115270500D01*
X172145261Y-115285033D01*
X172062398Y-115340400D01*
X172061102Y-115342340D01*
X172007490Y-115387145D01*
X171938165Y-115395852D01*
X171875137Y-115365697D01*
X171854898Y-115342340D01*
X171854747Y-115342115D01*
X171853601Y-115340399D01*
X171770740Y-115285034D01*
X171770739Y-115285033D01*
X171770738Y-115285033D01*
X171697675Y-115270500D01*
X171697674Y-115270500D01*
X170948326Y-115270500D01*
X170948325Y-115270500D01*
X170875261Y-115285033D01*
X170792398Y-115340400D01*
X170791102Y-115342340D01*
X170737490Y-115387145D01*
X170668165Y-115395852D01*
X170605137Y-115365697D01*
X170584898Y-115342340D01*
X170584747Y-115342115D01*
X170583601Y-115340399D01*
X170500740Y-115285034D01*
X170500739Y-115285033D01*
X170500738Y-115285033D01*
X170427675Y-115270500D01*
X170427674Y-115270500D01*
X169678326Y-115270500D01*
X169678325Y-115270500D01*
X169605261Y-115285033D01*
X169522398Y-115340400D01*
X169521102Y-115342340D01*
X169467490Y-115387145D01*
X169398165Y-115395852D01*
X169335137Y-115365697D01*
X169314898Y-115342340D01*
X169314747Y-115342115D01*
X169313601Y-115340399D01*
X169230740Y-115285034D01*
X169230739Y-115285033D01*
X169230738Y-115285033D01*
X169157675Y-115270500D01*
X169157674Y-115270500D01*
X168408326Y-115270500D01*
X168408325Y-115270500D01*
X168335261Y-115285033D01*
X168252398Y-115340400D01*
X168251102Y-115342340D01*
X168197490Y-115387145D01*
X168128165Y-115395852D01*
X168065137Y-115365697D01*
X168044898Y-115342340D01*
X168044747Y-115342115D01*
X168043601Y-115340399D01*
X167960740Y-115285034D01*
X167960739Y-115285033D01*
X167960738Y-115285033D01*
X167887675Y-115270500D01*
X167887674Y-115270500D01*
X167138326Y-115270500D01*
X167138325Y-115270500D01*
X167065261Y-115285033D01*
X166982398Y-115340400D01*
X166981102Y-115342340D01*
X166927490Y-115387145D01*
X166858165Y-115395852D01*
X166795137Y-115365697D01*
X166774898Y-115342340D01*
X166774747Y-115342115D01*
X166773601Y-115340399D01*
X166690740Y-115285034D01*
X166690739Y-115285033D01*
X166690738Y-115285033D01*
X166617675Y-115270500D01*
X166617674Y-115270500D01*
X165868326Y-115270500D01*
X165868325Y-115270500D01*
X165795261Y-115285033D01*
X165712398Y-115340400D01*
X165711102Y-115342340D01*
X165657490Y-115387145D01*
X165588165Y-115395852D01*
X165525137Y-115365697D01*
X165504898Y-115342340D01*
X165504747Y-115342115D01*
X165503601Y-115340399D01*
X165420740Y-115285034D01*
X165420738Y-115285033D01*
X165403610Y-115273589D01*
X165358805Y-115219977D01*
X165348500Y-115170486D01*
X165348500Y-114892202D01*
X165368185Y-114825163D01*
X165390269Y-114799390D01*
X165463483Y-114734530D01*
X165553220Y-114604523D01*
X165609237Y-114456818D01*
X165628278Y-114300000D01*
X165609237Y-114143182D01*
X165553220Y-113995477D01*
X165484903Y-113896502D01*
X165463484Y-113865471D01*
X165449747Y-113853301D01*
X165345240Y-113760717D01*
X165313734Y-113744181D01*
X165205364Y-113687303D01*
X165051985Y-113649500D01*
X164894015Y-113649500D01*
X164740635Y-113687303D01*
X164600761Y-113760716D01*
X164482515Y-113865471D01*
X164392780Y-113995476D01*
X164336763Y-114143181D01*
X164317721Y-114299999D01*
X164336763Y-114456818D01*
X164392780Y-114604523D01*
X164482515Y-114734528D01*
X164482516Y-114734529D01*
X164482517Y-114734530D01*
X164555727Y-114799387D01*
X164592853Y-114858574D01*
X164597500Y-114892202D01*
X164597500Y-115170486D01*
X164577815Y-115237525D01*
X164542390Y-115273589D01*
X164525261Y-115285033D01*
X164525260Y-115285034D01*
X164456219Y-115331165D01*
X164442398Y-115340400D01*
X164441102Y-115342340D01*
X164387490Y-115387145D01*
X164318165Y-115395852D01*
X164255137Y-115365697D01*
X164234898Y-115342340D01*
X164234747Y-115342115D01*
X164233601Y-115340399D01*
X164150740Y-115285034D01*
X164150738Y-115285033D01*
X164135309Y-115274724D01*
X164090504Y-115221112D01*
X164081151Y-115186954D01*
X164079452Y-115173319D01*
X164078500Y-115157986D01*
X164078500Y-115157889D01*
X164078500Y-115157888D01*
X164078500Y-115157886D01*
X164075070Y-115137336D01*
X164074342Y-115132340D01*
X164067865Y-115080374D01*
X164067864Y-115080373D01*
X164066888Y-115072538D01*
X164066821Y-115072331D01*
X164038160Y-115019368D01*
X164035814Y-115014812D01*
X164032012Y-115007034D01*
X164012826Y-114967788D01*
X164012825Y-114967787D01*
X164009361Y-114960701D01*
X164009225Y-114960519D01*
X163997615Y-114949831D01*
X163964904Y-114919718D01*
X163961231Y-114916193D01*
X163624149Y-114579111D01*
X163608022Y-114559253D01*
X163602083Y-114550162D01*
X163577110Y-114530725D01*
X163565593Y-114520554D01*
X163565519Y-114520480D01*
X163548594Y-114508397D01*
X163544480Y-114505330D01*
X163503189Y-114473191D01*
X163503186Y-114473190D01*
X163496963Y-114468346D01*
X163496761Y-114468242D01*
X163489200Y-114465990D01*
X163489199Y-114465990D01*
X163439036Y-114451055D01*
X163434174Y-114449497D01*
X163415637Y-114443134D01*
X163377202Y-114429939D01*
X163376969Y-114429906D01*
X163331910Y-114431769D01*
X163316806Y-114432394D01*
X163311684Y-114432500D01*
X159083899Y-114432500D01*
X159016860Y-114412815D01*
X158996218Y-114396181D01*
X158147184Y-113547147D01*
X157274149Y-112674111D01*
X157258022Y-112654253D01*
X157252083Y-112645162D01*
X157227110Y-112625725D01*
X157215593Y-112615554D01*
X157209718Y-112609679D01*
X157176233Y-112548356D01*
X157181217Y-112478664D01*
X157209716Y-112434319D01*
X160121889Y-109522146D01*
X160141741Y-109506025D01*
X160150836Y-109500084D01*
X160170273Y-109475110D01*
X160180453Y-109463583D01*
X160180519Y-109463518D01*
X160192624Y-109446561D01*
X160195627Y-109442534D01*
X160227809Y-109401189D01*
X160227810Y-109401185D01*
X160232666Y-109394947D01*
X160232753Y-109394778D01*
X160235008Y-109387200D01*
X160235010Y-109387199D01*
X160249951Y-109337009D01*
X160251479Y-109332238D01*
X160268500Y-109282660D01*
X160268500Y-109282655D01*
X160271060Y-109275199D01*
X160271093Y-109274970D01*
X160270767Y-109267090D01*
X160270768Y-109267088D01*
X160268605Y-109214806D01*
X160268500Y-109209684D01*
X160268500Y-109111514D01*
X160288185Y-109044475D01*
X160323610Y-109008411D01*
X160340738Y-108996966D01*
X160340740Y-108996966D01*
X160423601Y-108941601D01*
X160424898Y-108939658D01*
X160478508Y-108894855D01*
X160547833Y-108886146D01*
X160610861Y-108916300D01*
X160631098Y-108939654D01*
X160632399Y-108941601D01*
X160715260Y-108996966D01*
X160746042Y-109003089D01*
X160788325Y-109011500D01*
X160788326Y-109011500D01*
X161537675Y-109011500D01*
X161562029Y-109006655D01*
X161610740Y-108996966D01*
X161693601Y-108941601D01*
X161694898Y-108939658D01*
X161748508Y-108894855D01*
X161817833Y-108886146D01*
X161880861Y-108916300D01*
X161901098Y-108939654D01*
X161902399Y-108941601D01*
X161985260Y-108996966D01*
X162016042Y-109003089D01*
X162058325Y-109011500D01*
X162058326Y-109011500D01*
X162807675Y-109011500D01*
X162832029Y-109006655D01*
X162880740Y-108996966D01*
X162963601Y-108941601D01*
X162964898Y-108939658D01*
X163018508Y-108894855D01*
X163087833Y-108886146D01*
X163150861Y-108916300D01*
X163171098Y-108939654D01*
X163172399Y-108941601D01*
X163255260Y-108996966D01*
X163255261Y-108996966D01*
X163272390Y-109008411D01*
X163317195Y-109062023D01*
X163327500Y-109111514D01*
X163327500Y-111298925D01*
X163307815Y-111365964D01*
X163285727Y-111391740D01*
X163176323Y-111488662D01*
X163086586Y-111618670D01*
X163030569Y-111766375D01*
X163011527Y-111923193D01*
X163030569Y-112080012D01*
X163086586Y-112227717D01*
X163176321Y-112357722D01*
X163176322Y-112357723D01*
X163176323Y-112357724D01*
X163294566Y-112462477D01*
X163434441Y-112535890D01*
X163587821Y-112573694D01*
X163745791Y-112573694D01*
X163899171Y-112535890D01*
X164039046Y-112462477D01*
X164157289Y-112357724D01*
X164247026Y-112227717D01*
X164303043Y-112080012D01*
X164322084Y-111923194D01*
X164303043Y-111766376D01*
X164247026Y-111618671D01*
X164157289Y-111488664D01*
X164120271Y-111455869D01*
X164083146Y-111396680D01*
X164078500Y-111363055D01*
X164078500Y-109807795D01*
X164098185Y-109740756D01*
X164110101Y-109730430D01*
X164080179Y-109668543D01*
X164078500Y-109648204D01*
X164078500Y-109111514D01*
X164098185Y-109044475D01*
X164133610Y-109008411D01*
X164150738Y-108996966D01*
X164150740Y-108996966D01*
X164233601Y-108941601D01*
X164234898Y-108939658D01*
X164288508Y-108894855D01*
X164357833Y-108886146D01*
X164420861Y-108916300D01*
X164441098Y-108939654D01*
X164442399Y-108941601D01*
X164525260Y-108996966D01*
X164525261Y-108996966D01*
X164542390Y-109008411D01*
X164587195Y-109062023D01*
X164597500Y-109111514D01*
X164597500Y-109135796D01*
X164577815Y-109202835D01*
X164555727Y-109228611D01*
X164482517Y-109293468D01*
X164392780Y-109423476D01*
X164336763Y-109571181D01*
X164325596Y-109663151D01*
X164297974Y-109727329D01*
X164293956Y-109730037D01*
X164321477Y-109772860D01*
X164325595Y-109792846D01*
X164329562Y-109825513D01*
X164336763Y-109884818D01*
X164392780Y-110032523D01*
X164482515Y-110162528D01*
X164482516Y-110162529D01*
X164482517Y-110162530D01*
X164600760Y-110267283D01*
X164740635Y-110340696D01*
X164894015Y-110378500D01*
X165051985Y-110378500D01*
X165205365Y-110340696D01*
X165345240Y-110267283D01*
X165463483Y-110162530D01*
X165553220Y-110032523D01*
X165609237Y-109884818D01*
X165620404Y-109792847D01*
X165648026Y-109728670D01*
X165652043Y-109725961D01*
X165624523Y-109683139D01*
X165620404Y-109663151D01*
X165618304Y-109645860D01*
X165609237Y-109571182D01*
X165553220Y-109423477D01*
X165501202Y-109348116D01*
X165463482Y-109293468D01*
X165390273Y-109228611D01*
X165353146Y-109169422D01*
X165348500Y-109135796D01*
X165348500Y-109111514D01*
X165368185Y-109044475D01*
X165403610Y-109008411D01*
X165420738Y-108996966D01*
X165420740Y-108996966D01*
X165503601Y-108941601D01*
X165504898Y-108939658D01*
X165558508Y-108894855D01*
X165627833Y-108886146D01*
X165690861Y-108916300D01*
X165711098Y-108939654D01*
X165712399Y-108941601D01*
X165795260Y-108996966D01*
X165795261Y-108996966D01*
X165812390Y-109008411D01*
X165857195Y-109062023D01*
X165867500Y-109111514D01*
X165867500Y-109648204D01*
X165847815Y-109715243D01*
X165835898Y-109725568D01*
X165865821Y-109787456D01*
X165867500Y-109807795D01*
X165867500Y-110692196D01*
X165864861Y-110717642D01*
X165862633Y-110728267D01*
X165866548Y-110759676D01*
X165867500Y-110775013D01*
X165867500Y-110775116D01*
X165870918Y-110795602D01*
X165871657Y-110800670D01*
X165879107Y-110860438D01*
X165879185Y-110860682D01*
X165907827Y-110913608D01*
X165910171Y-110918162D01*
X165936634Y-110972292D01*
X165936777Y-110972482D01*
X165942579Y-110977824D01*
X165942581Y-110977826D01*
X165981108Y-111013293D01*
X165984780Y-111016817D01*
X168734850Y-113766887D01*
X168750977Y-113786746D01*
X168756915Y-113795836D01*
X168781893Y-113815277D01*
X168793410Y-113825448D01*
X168793481Y-113825519D01*
X168810397Y-113837597D01*
X168814505Y-113840660D01*
X168862040Y-113877658D01*
X168862232Y-113877757D01*
X168895685Y-113887716D01*
X168919955Y-113894941D01*
X168924792Y-113896490D01*
X168974340Y-113913500D01*
X168981797Y-113916060D01*
X168982030Y-113916093D01*
X168989909Y-113915767D01*
X168989912Y-113915768D01*
X169042193Y-113913605D01*
X169047316Y-113913500D01*
X171742692Y-113913500D01*
X171809731Y-113933185D01*
X171844743Y-113967062D01*
X171848515Y-113972528D01*
X171848516Y-113972529D01*
X171848517Y-113972530D01*
X171966760Y-114077283D01*
X172106635Y-114150696D01*
X172260015Y-114188500D01*
X172417985Y-114188500D01*
X172571365Y-114150696D01*
X172711240Y-114077283D01*
X172829483Y-113972530D01*
X172919220Y-113842523D01*
X172975237Y-113694818D01*
X172994278Y-113538000D01*
X172975237Y-113381182D01*
X172919220Y-113233477D01*
X172851037Y-113134696D01*
X172829484Y-113103471D01*
X172781863Y-113061283D01*
X172711240Y-112998717D01*
X172652829Y-112968060D01*
X172571364Y-112925303D01*
X172417985Y-112887500D01*
X172260015Y-112887500D01*
X172106635Y-112925303D01*
X171966761Y-112998716D01*
X171848515Y-113103471D01*
X171844743Y-113108938D01*
X171790462Y-113152929D01*
X171742692Y-113162500D01*
X171653574Y-113162500D01*
X171586535Y-113142815D01*
X171540780Y-113090011D01*
X171530836Y-113020853D01*
X171551524Y-112968060D01*
X171581037Y-112925304D01*
X171649220Y-112826523D01*
X171705237Y-112678818D01*
X171724278Y-112522000D01*
X171705237Y-112365182D01*
X171649220Y-112217477D01*
X171575159Y-112110181D01*
X171559484Y-112087471D01*
X171559483Y-112087470D01*
X171441240Y-111982717D01*
X171427994Y-111975764D01*
X171301364Y-111909303D01*
X171147985Y-111871500D01*
X170990015Y-111871500D01*
X170836635Y-111909303D01*
X170696758Y-111982718D01*
X170635056Y-112037381D01*
X170571823Y-112067102D01*
X170502559Y-112057918D01*
X170449256Y-112012745D01*
X170436888Y-111988536D01*
X170412107Y-111923193D01*
X170379220Y-111836477D01*
X170289483Y-111706470D01*
X170171240Y-111601717D01*
X170157994Y-111594764D01*
X170031364Y-111528303D01*
X169877985Y-111490500D01*
X169730900Y-111490500D01*
X169663861Y-111470815D01*
X169643219Y-111454181D01*
X169194819Y-111005781D01*
X169161334Y-110944458D01*
X169158500Y-110918100D01*
X169158500Y-109680795D01*
X169178185Y-109613756D01*
X169190101Y-109603430D01*
X169160179Y-109541543D01*
X169158500Y-109521204D01*
X169158500Y-109111514D01*
X169178185Y-109044475D01*
X169213610Y-109008411D01*
X169230738Y-108996966D01*
X169230740Y-108996966D01*
X169313601Y-108941601D01*
X169314898Y-108939658D01*
X169368508Y-108894855D01*
X169437833Y-108886146D01*
X169500861Y-108916300D01*
X169521098Y-108939654D01*
X169522399Y-108941601D01*
X169556294Y-108964249D01*
X169601099Y-109017860D01*
X169609807Y-109087185D01*
X169579653Y-109150213D01*
X169569635Y-109160163D01*
X169562518Y-109166468D01*
X169472780Y-109296476D01*
X169416763Y-109444181D01*
X169405596Y-109536151D01*
X169377974Y-109600329D01*
X169373956Y-109603037D01*
X169401477Y-109645860D01*
X169405596Y-109665848D01*
X169416763Y-109757818D01*
X169472780Y-109905523D01*
X169562515Y-110035528D01*
X169562516Y-110035529D01*
X169562517Y-110035530D01*
X169680760Y-110140283D01*
X169820635Y-110213696D01*
X169974015Y-110251500D01*
X170131985Y-110251500D01*
X170285365Y-110213696D01*
X170425240Y-110140283D01*
X170543483Y-110035530D01*
X170633220Y-109905523D01*
X170689237Y-109757818D01*
X170700404Y-109665847D01*
X170728026Y-109601670D01*
X170732043Y-109598961D01*
X170704523Y-109556139D01*
X170700404Y-109536151D01*
X170698342Y-109519171D01*
X170689237Y-109444182D01*
X170633220Y-109296477D01*
X170543483Y-109166470D01*
X170536366Y-109160165D01*
X170499241Y-109100976D01*
X170500009Y-109031110D01*
X170538427Y-108972751D01*
X170549699Y-108964252D01*
X170583601Y-108941601D01*
X170584898Y-108939658D01*
X170638508Y-108894855D01*
X170707833Y-108886146D01*
X170770861Y-108916300D01*
X170791098Y-108939654D01*
X170792399Y-108941601D01*
X170875260Y-108996966D01*
X170875261Y-108996966D01*
X170892390Y-109008411D01*
X170937195Y-109062023D01*
X170947500Y-109111514D01*
X170947500Y-109521204D01*
X170927815Y-109588243D01*
X170915898Y-109598568D01*
X170945821Y-109660456D01*
X170947500Y-109680795D01*
X170947500Y-110024796D01*
X170927815Y-110091835D01*
X170905727Y-110117611D01*
X170832517Y-110182468D01*
X170742780Y-110312476D01*
X170686763Y-110460181D01*
X170667721Y-110616999D01*
X170686763Y-110773818D01*
X170742780Y-110921523D01*
X170832515Y-111051528D01*
X170832516Y-111051529D01*
X170832517Y-111051530D01*
X170950760Y-111156283D01*
X171090635Y-111229696D01*
X171244015Y-111267500D01*
X171401985Y-111267500D01*
X171555365Y-111229696D01*
X171695240Y-111156283D01*
X171813483Y-111051530D01*
X171903220Y-110921523D01*
X171959237Y-110773818D01*
X171978278Y-110617000D01*
X171959237Y-110460182D01*
X171903220Y-110312477D01*
X171813483Y-110182470D01*
X171813482Y-110182468D01*
X171740273Y-110117611D01*
X171703146Y-110058422D01*
X171698500Y-110024796D01*
X171698500Y-109225690D01*
X171718185Y-109158651D01*
X171770989Y-109112896D01*
X171840147Y-109102952D01*
X171896811Y-109126423D01*
X172000911Y-109204352D01*
X172135628Y-109254599D01*
X172191867Y-109260645D01*
X172198482Y-109261000D01*
X172987518Y-109261000D01*
X172994132Y-109260645D01*
X173050371Y-109254599D01*
X173185089Y-109204352D01*
X173300188Y-109118188D01*
X173386352Y-109003089D01*
X173436599Y-108868371D01*
X173442645Y-108812132D01*
X173443000Y-108805518D01*
X173443000Y-108264553D01*
X172327128Y-107148681D01*
X172293643Y-107087358D01*
X172295528Y-107061000D01*
X172946553Y-107061000D01*
X173442999Y-107557446D01*
X173443000Y-107557445D01*
X173443000Y-106564553D01*
X173442999Y-106564552D01*
X172946553Y-107060999D01*
X172946553Y-107061000D01*
X172295528Y-107061000D01*
X172298627Y-107017666D01*
X172327128Y-106973319D01*
X173442999Y-105857447D01*
X173443000Y-105857446D01*
X173443000Y-105316481D01*
X173442645Y-105309867D01*
X173436599Y-105253628D01*
X173386352Y-105118910D01*
X173300188Y-105003811D01*
X173185089Y-104917647D01*
X173050371Y-104867400D01*
X172994132Y-104861354D01*
X172987518Y-104861000D01*
X172198482Y-104861000D01*
X172191867Y-104861354D01*
X172135628Y-104867400D01*
X172000910Y-104917647D01*
X171885810Y-105003811D01*
X171838736Y-105066695D01*
X171782802Y-105108566D01*
X171715279Y-105114002D01*
X171697674Y-105110500D01*
X170948326Y-105110500D01*
X170948325Y-105110500D01*
X170875261Y-105125033D01*
X170792398Y-105180400D01*
X170791102Y-105182340D01*
X170737490Y-105227145D01*
X170668165Y-105235852D01*
X170605137Y-105205697D01*
X170584898Y-105182340D01*
X170583602Y-105180401D01*
X170583601Y-105180399D01*
X170500740Y-105125034D01*
X170500739Y-105125033D01*
X170500738Y-105125033D01*
X170427675Y-105110500D01*
X170427674Y-105110500D01*
X169678326Y-105110500D01*
X169678325Y-105110500D01*
X169605261Y-105125033D01*
X169522398Y-105180400D01*
X169521102Y-105182340D01*
X169467490Y-105227145D01*
X169398165Y-105235852D01*
X169335137Y-105205697D01*
X169314898Y-105182340D01*
X169313602Y-105180401D01*
X169313601Y-105180399D01*
X169230740Y-105125034D01*
X169230739Y-105125033D01*
X169230738Y-105125033D01*
X169157675Y-105110500D01*
X169157674Y-105110500D01*
X168408326Y-105110500D01*
X168408325Y-105110500D01*
X168335261Y-105125033D01*
X168252398Y-105180400D01*
X168251102Y-105182340D01*
X168197490Y-105227145D01*
X168128165Y-105235852D01*
X168065137Y-105205697D01*
X168044898Y-105182340D01*
X168043602Y-105180401D01*
X168043601Y-105180399D01*
X167960740Y-105125034D01*
X167960739Y-105125033D01*
X167960738Y-105125033D01*
X167887675Y-105110500D01*
X167887674Y-105110500D01*
X167138326Y-105110500D01*
X167138325Y-105110500D01*
X167065261Y-105125033D01*
X166982398Y-105180400D01*
X166981102Y-105182340D01*
X166927490Y-105227145D01*
X166858165Y-105235852D01*
X166795137Y-105205697D01*
X166774898Y-105182340D01*
X166773602Y-105180401D01*
X166773601Y-105180399D01*
X166690740Y-105125034D01*
X166690739Y-105125033D01*
X166690738Y-105125033D01*
X166617675Y-105110500D01*
X166617674Y-105110500D01*
X165868326Y-105110500D01*
X165868325Y-105110500D01*
X165795261Y-105125033D01*
X165712398Y-105180400D01*
X165711102Y-105182340D01*
X165657490Y-105227145D01*
X165588165Y-105235852D01*
X165525137Y-105205697D01*
X165504898Y-105182340D01*
X165503602Y-105180401D01*
X165503601Y-105180399D01*
X165420740Y-105125034D01*
X165420739Y-105125033D01*
X165420738Y-105125033D01*
X165347675Y-105110500D01*
X165347674Y-105110500D01*
X164598326Y-105110500D01*
X164598325Y-105110500D01*
X164525261Y-105125033D01*
X164442396Y-105180401D01*
X164441099Y-105182343D01*
X164387485Y-105227146D01*
X164318160Y-105235852D01*
X164255134Y-105205695D01*
X164234898Y-105182340D01*
X164233601Y-105180399D01*
X164150740Y-105125034D01*
X164150739Y-105125033D01*
X164150738Y-105125033D01*
X164077675Y-105110500D01*
X164077674Y-105110500D01*
X163328326Y-105110500D01*
X163328325Y-105110500D01*
X163255261Y-105125033D01*
X163172398Y-105180400D01*
X163171102Y-105182340D01*
X163117490Y-105227145D01*
X163048165Y-105235852D01*
X162985137Y-105205697D01*
X162964898Y-105182340D01*
X162963602Y-105180401D01*
X162963601Y-105180399D01*
X162880740Y-105125034D01*
X162880739Y-105125033D01*
X162880738Y-105125033D01*
X162807675Y-105110500D01*
X162807674Y-105110500D01*
X162058326Y-105110500D01*
X162058325Y-105110500D01*
X161985261Y-105125033D01*
X161902398Y-105180400D01*
X161901102Y-105182340D01*
X161847490Y-105227145D01*
X161778165Y-105235852D01*
X161715137Y-105205697D01*
X161694898Y-105182340D01*
X161693602Y-105180401D01*
X161693601Y-105180399D01*
X161610740Y-105125034D01*
X161610739Y-105125033D01*
X161610738Y-105125033D01*
X161537675Y-105110500D01*
X161537674Y-105110500D01*
X160788326Y-105110500D01*
X160788325Y-105110500D01*
X160715261Y-105125033D01*
X160632398Y-105180400D01*
X160631102Y-105182340D01*
X160577490Y-105227145D01*
X160508165Y-105235852D01*
X160445137Y-105205697D01*
X160424898Y-105182340D01*
X160423602Y-105180401D01*
X160423601Y-105180399D01*
X160340740Y-105125034D01*
X160340739Y-105125033D01*
X160340738Y-105125033D01*
X160267675Y-105110500D01*
X160267674Y-105110500D01*
X159518326Y-105110500D01*
X159518325Y-105110500D01*
X159445261Y-105125033D01*
X159362398Y-105180400D01*
X159361102Y-105182340D01*
X159307490Y-105227145D01*
X159238165Y-105235852D01*
X159175137Y-105205697D01*
X159154898Y-105182340D01*
X159153602Y-105180401D01*
X159153601Y-105180399D01*
X159070740Y-105125034D01*
X159070739Y-105125033D01*
X159070738Y-105125033D01*
X158997675Y-105110500D01*
X158997674Y-105110500D01*
X158248326Y-105110500D01*
X158248325Y-105110500D01*
X158175261Y-105125033D01*
X158092398Y-105180400D01*
X158091102Y-105182340D01*
X158037490Y-105227145D01*
X157968165Y-105235852D01*
X157905137Y-105205697D01*
X157884898Y-105182340D01*
X157883602Y-105180401D01*
X157883601Y-105180399D01*
X157800740Y-105125034D01*
X157800739Y-105125033D01*
X157800738Y-105125033D01*
X157727675Y-105110500D01*
X157727674Y-105110500D01*
X156978326Y-105110500D01*
X156978325Y-105110500D01*
X156905261Y-105125033D01*
X156822398Y-105180400D01*
X156821102Y-105182340D01*
X156767490Y-105227145D01*
X156698165Y-105235852D01*
X156635137Y-105205697D01*
X156614898Y-105182340D01*
X156613602Y-105180401D01*
X156613601Y-105180399D01*
X156530740Y-105125034D01*
X156530739Y-105125033D01*
X156530738Y-105125033D01*
X156457675Y-105110500D01*
X156457674Y-105110500D01*
X155708326Y-105110500D01*
X155690721Y-105114002D01*
X155621130Y-105107773D01*
X155567264Y-105066695D01*
X155520189Y-105003811D01*
X155405089Y-104917647D01*
X155270371Y-104867400D01*
X155214132Y-104861354D01*
X155207518Y-104861000D01*
X154418482Y-104861000D01*
X154411867Y-104861354D01*
X154355628Y-104867400D01*
X154220910Y-104917647D01*
X154105810Y-105003811D01*
X154058736Y-105066695D01*
X154002802Y-105108566D01*
X153935279Y-105114002D01*
X153917674Y-105110500D01*
X153168326Y-105110500D01*
X153168325Y-105110500D01*
X153095261Y-105125033D01*
X153012398Y-105180400D01*
X153011102Y-105182340D01*
X152957490Y-105227145D01*
X152888165Y-105235852D01*
X152825137Y-105205697D01*
X152804898Y-105182340D01*
X152803602Y-105180401D01*
X152803601Y-105180399D01*
X152720740Y-105125034D01*
X152720739Y-105125033D01*
X152720738Y-105125033D01*
X152647675Y-105110500D01*
X152647674Y-105110500D01*
X151898326Y-105110500D01*
X151898325Y-105110500D01*
X151825261Y-105125033D01*
X151742398Y-105180400D01*
X151741102Y-105182340D01*
X151687490Y-105227145D01*
X151618165Y-105235852D01*
X151555137Y-105205697D01*
X151534898Y-105182340D01*
X151533602Y-105180401D01*
X151533601Y-105180399D01*
X151450740Y-105125034D01*
X151450739Y-105125033D01*
X151450738Y-105125033D01*
X151377675Y-105110500D01*
X151377674Y-105110500D01*
X150628326Y-105110500D01*
X150628325Y-105110500D01*
X150555261Y-105125033D01*
X150472398Y-105180400D01*
X150471102Y-105182340D01*
X150417490Y-105227145D01*
X150348165Y-105235852D01*
X150285137Y-105205697D01*
X150264898Y-105182340D01*
X150263602Y-105180401D01*
X150263601Y-105180399D01*
X150180740Y-105125034D01*
X150180739Y-105125033D01*
X150180738Y-105125033D01*
X150107675Y-105110500D01*
X150107674Y-105110500D01*
X149358326Y-105110500D01*
X149340721Y-105114002D01*
X149271130Y-105107773D01*
X149217264Y-105066695D01*
X149170189Y-105003811D01*
X149055089Y-104917647D01*
X148920371Y-104867400D01*
X148864132Y-104861354D01*
X148857518Y-104861000D01*
X148068482Y-104861000D01*
X148061867Y-104861354D01*
X148005628Y-104867400D01*
X147870910Y-104917647D01*
X147755811Y-105003811D01*
X147669647Y-105118910D01*
X147619400Y-105253628D01*
X147613354Y-105309867D01*
X147613000Y-105316481D01*
X147613000Y-105857447D01*
X148728872Y-106973319D01*
X148762357Y-107034642D01*
X148757373Y-107104334D01*
X148728872Y-107148681D01*
X147613000Y-108264552D01*
X147613000Y-108301600D01*
X147593315Y-108368639D01*
X147540511Y-108414394D01*
X147471353Y-108424338D01*
X147407797Y-108395313D01*
X147401319Y-108389281D01*
X145576589Y-106564551D01*
X147613000Y-106564551D01*
X147613000Y-107557447D01*
X148109446Y-107061000D01*
X148109446Y-107060999D01*
X147613000Y-106564551D01*
X145576589Y-106564551D01*
X144447149Y-105435111D01*
X144431022Y-105415253D01*
X144425083Y-105406162D01*
X144400110Y-105386725D01*
X144388593Y-105376554D01*
X144388519Y-105376480D01*
X144371594Y-105364397D01*
X144367480Y-105361330D01*
X144326189Y-105329191D01*
X144326186Y-105329190D01*
X144319963Y-105324346D01*
X144319761Y-105324242D01*
X144312200Y-105321990D01*
X144312199Y-105321990D01*
X144262036Y-105307055D01*
X144257174Y-105305497D01*
X144238637Y-105299134D01*
X144200202Y-105285939D01*
X144199969Y-105285906D01*
X144160265Y-105287548D01*
X144139806Y-105288394D01*
X144134684Y-105288500D01*
X124257805Y-105288500D01*
X124232359Y-105285861D01*
X124221733Y-105283633D01*
X124221732Y-105283633D01*
X124203858Y-105285861D01*
X124190323Y-105287548D01*
X124174986Y-105288500D01*
X124174884Y-105288500D01*
X124154399Y-105291918D01*
X124149332Y-105292657D01*
X124089567Y-105300107D01*
X124089312Y-105300189D01*
X124036370Y-105328838D01*
X124031820Y-105331180D01*
X123977715Y-105357632D01*
X123977505Y-105357788D01*
X123936719Y-105402093D01*
X123933172Y-105405789D01*
X122961108Y-106377852D01*
X122941254Y-106393976D01*
X122932165Y-106399914D01*
X122912722Y-106424894D01*
X122902563Y-106436398D01*
X122902484Y-106436476D01*
X122902479Y-106436482D01*
X122902480Y-106436482D01*
X122890390Y-106453414D01*
X122887341Y-106457504D01*
X122850354Y-106505024D01*
X122850238Y-106505251D01*
X122833056Y-106562957D01*
X122831495Y-106567829D01*
X122811946Y-106624777D01*
X122811906Y-106625054D01*
X122814394Y-106685192D01*
X122814500Y-106690316D01*
X122814500Y-106758055D01*
X122794815Y-106825094D01*
X122742011Y-106870849D01*
X122706685Y-106880994D01*
X122664764Y-106886512D01*
X122524768Y-106944501D01*
X122404549Y-107036749D01*
X122312301Y-107156968D01*
X122254312Y-107296964D01*
X122254313Y-107296964D01*
X122239500Y-107409480D01*
X122239500Y-108134920D01*
X122254313Y-108247436D01*
X122312302Y-108387433D01*
X122404549Y-108507651D01*
X122524767Y-108599898D01*
X122664764Y-108657887D01*
X122777280Y-108672700D01*
X122781333Y-108672700D01*
X123598667Y-108672700D01*
X123602720Y-108672700D01*
X123715236Y-108657887D01*
X123855233Y-108599898D01*
X123975451Y-108507651D01*
X124067698Y-108387433D01*
X124125687Y-108247436D01*
X124140500Y-108134920D01*
X124140500Y-107409480D01*
X124125687Y-107296964D01*
X124067698Y-107156967D01*
X123975451Y-107036749D01*
X123892788Y-106973319D01*
X123855231Y-106944500D01*
X123744763Y-106898743D01*
X123690360Y-106854902D01*
X123668295Y-106788607D01*
X123685575Y-106720908D01*
X123704530Y-106696506D01*
X124325218Y-106075819D01*
X124386542Y-106042334D01*
X124412900Y-106039500D01*
X127445101Y-106039500D01*
X127512140Y-106059185D01*
X127557895Y-106111989D01*
X127567839Y-106181147D01*
X127538814Y-106244703D01*
X127532787Y-106251174D01*
X127397017Y-106386945D01*
X126771108Y-107012852D01*
X126751254Y-107028976D01*
X126742164Y-107034915D01*
X126725841Y-107055886D01*
X126669129Y-107096697D01*
X126599356Y-107100369D01*
X126538674Y-107065736D01*
X126529614Y-107055206D01*
X126515452Y-107036750D01*
X126496158Y-107021945D01*
X126395233Y-106944502D01*
X126395228Y-106944500D01*
X126354228Y-106927517D01*
X126255236Y-106886513D01*
X126196356Y-106878761D01*
X126146739Y-106872229D01*
X126146737Y-106872228D01*
X126142720Y-106871700D01*
X125317280Y-106871700D01*
X125313263Y-106872228D01*
X125313260Y-106872229D01*
X125204764Y-106886513D01*
X125064768Y-106944501D01*
X124944549Y-107036749D01*
X124852301Y-107156968D01*
X124794312Y-107296963D01*
X124794313Y-107296964D01*
X124779500Y-107409480D01*
X124779500Y-108134920D01*
X124794313Y-108247436D01*
X124852302Y-108387433D01*
X124944549Y-108507651D01*
X125064767Y-108599898D01*
X125204764Y-108657887D01*
X125317280Y-108672700D01*
X125321333Y-108672700D01*
X126138667Y-108672700D01*
X126142720Y-108672700D01*
X126255236Y-108657887D01*
X126395233Y-108599898D01*
X126425012Y-108577047D01*
X126490182Y-108551852D01*
X126558627Y-108565890D01*
X126608617Y-108614703D01*
X126624500Y-108675422D01*
X126624500Y-109298055D01*
X126604815Y-109365094D01*
X126552011Y-109410849D01*
X126516685Y-109420994D01*
X126474764Y-109426512D01*
X126334768Y-109484501D01*
X126214549Y-109576749D01*
X126122301Y-109696968D01*
X126064313Y-109836964D01*
X126051414Y-109934944D01*
X126049500Y-109949480D01*
X126049500Y-110674920D01*
X126064313Y-110787436D01*
X126076749Y-110817458D01*
X126120621Y-110923376D01*
X126122302Y-110927433D01*
X126214549Y-111047651D01*
X126334767Y-111139898D01*
X126474764Y-111197887D01*
X126587280Y-111212700D01*
X126591337Y-111212700D01*
X126595391Y-111212966D01*
X126590229Y-111212796D01*
X126656939Y-111232385D01*
X126702694Y-111285189D01*
X126712638Y-111354347D01*
X126683613Y-111417903D01*
X126677581Y-111424381D01*
X125991781Y-112110181D01*
X125930458Y-112143666D01*
X125904100Y-112146500D01*
X124543554Y-112146500D01*
X124518108Y-112143861D01*
X124507482Y-112141633D01*
X124476073Y-112145548D01*
X124460736Y-112146500D01*
X124460634Y-112146500D01*
X124440131Y-112149920D01*
X124435070Y-112150657D01*
X124375322Y-112158105D01*
X124375058Y-112158190D01*
X124322115Y-112186840D01*
X124317564Y-112189183D01*
X124263468Y-112215630D01*
X124263255Y-112215788D01*
X124222469Y-112260093D01*
X124218922Y-112263789D01*
X122961108Y-113521602D01*
X122941254Y-113537726D01*
X122932165Y-113543664D01*
X122912722Y-113568644D01*
X122902563Y-113580148D01*
X122902484Y-113580226D01*
X122902479Y-113580232D01*
X122902480Y-113580232D01*
X122890390Y-113597164D01*
X122887341Y-113601254D01*
X122850354Y-113648774D01*
X122850237Y-113649002D01*
X122835408Y-113698808D01*
X122797411Y-113757443D01*
X122733746Y-113786227D01*
X122732750Y-113786362D01*
X122664764Y-113795313D01*
X122524768Y-113853301D01*
X122404549Y-113945549D01*
X122312301Y-114065768D01*
X122254313Y-114205764D01*
X122241907Y-114300000D01*
X122239500Y-114318280D01*
X122239500Y-115043720D01*
X122254313Y-115156236D01*
X122280716Y-115219977D01*
X122306787Y-115282920D01*
X122312302Y-115296233D01*
X122404549Y-115416451D01*
X122524767Y-115508698D01*
X122664764Y-115566687D01*
X122747732Y-115577609D01*
X122811626Y-115605875D01*
X122850098Y-115664199D01*
X122850930Y-115734064D01*
X122822773Y-115784532D01*
X122793719Y-115816092D01*
X122790172Y-115819789D01*
X122325782Y-116284181D01*
X122264459Y-116317666D01*
X122238101Y-116320500D01*
X121507280Y-116320500D01*
X121503263Y-116321028D01*
X121503260Y-116321029D01*
X121394764Y-116335313D01*
X121254768Y-116393301D01*
X121134549Y-116485549D01*
X121042301Y-116605768D01*
X121024441Y-116648887D01*
X120984313Y-116745764D01*
X120969500Y-116858280D01*
X120969500Y-117583720D01*
X120330500Y-117583720D01*
X120330500Y-116546326D01*
X120315966Y-116473260D01*
X120260601Y-116390399D01*
X120177740Y-116335034D01*
X120177739Y-116335033D01*
X120177738Y-116335033D01*
X120104675Y-116320500D01*
X120104674Y-116320500D01*
X118655326Y-116320500D01*
X118655325Y-116320500D01*
X118582261Y-116335033D01*
X118499399Y-116390399D01*
X118444033Y-116473261D01*
X118429500Y-116546325D01*
X118429500Y-117895674D01*
X117094500Y-117895674D01*
X117094500Y-115043720D01*
X119699500Y-115043720D01*
X119714313Y-115156236D01*
X119740716Y-115219977D01*
X119766787Y-115282920D01*
X119772302Y-115296233D01*
X119864549Y-115416451D01*
X119984767Y-115508698D01*
X120124764Y-115566687D01*
X120237280Y-115581500D01*
X120241333Y-115581500D01*
X121058667Y-115581500D01*
X121062720Y-115581500D01*
X121175236Y-115566687D01*
X121315233Y-115508698D01*
X121435451Y-115416451D01*
X121527698Y-115296233D01*
X121585687Y-115156236D01*
X121600500Y-115043720D01*
X121600500Y-114318280D01*
X121585687Y-114205764D01*
X121527698Y-114065767D01*
X121435451Y-113945549D01*
X121315233Y-113853302D01*
X121175236Y-113795313D01*
X121110163Y-113786746D01*
X121066739Y-113781029D01*
X121066737Y-113781028D01*
X121062720Y-113780500D01*
X120237280Y-113780500D01*
X120233263Y-113781028D01*
X120233260Y-113781029D01*
X120124764Y-113795313D01*
X119984768Y-113853301D01*
X119864549Y-113945549D01*
X119772301Y-114065768D01*
X119714313Y-114205764D01*
X119701907Y-114300000D01*
X119699500Y-114318280D01*
X119699500Y-115043720D01*
X117094500Y-115043720D01*
X117094500Y-110986874D01*
X118429500Y-110986874D01*
X118444033Y-111059938D01*
X118444033Y-111059939D01*
X118444034Y-111059940D01*
X118499399Y-111142801D01*
X118582260Y-111198166D01*
X118618792Y-111205433D01*
X118655325Y-111212700D01*
X118655326Y-111212700D01*
X120104675Y-111212700D01*
X120129029Y-111207855D01*
X120177740Y-111198166D01*
X120260601Y-111142801D01*
X120315966Y-111059940D01*
X120330500Y-110986874D01*
X120330500Y-110674920D01*
X120969500Y-110674920D01*
X120984313Y-110787436D01*
X120996749Y-110817458D01*
X121040621Y-110923376D01*
X121042302Y-110927433D01*
X121134549Y-111047651D01*
X121254767Y-111139898D01*
X121394764Y-111197887D01*
X121507280Y-111212700D01*
X121511333Y-111212700D01*
X122328667Y-111212700D01*
X122332720Y-111212700D01*
X122445236Y-111197887D01*
X122585233Y-111139898D01*
X122705451Y-111047651D01*
X122797698Y-110927433D01*
X122855687Y-110787436D01*
X122870500Y-110674920D01*
X122870500Y-110062199D01*
X123259999Y-110062199D01*
X123260000Y-110062200D01*
X124144314Y-110062200D01*
X124132359Y-110074155D01*
X124074835Y-110187052D01*
X124055014Y-110312200D01*
X124074835Y-110437348D01*
X124132359Y-110550245D01*
X124144314Y-110562200D01*
X123260000Y-110562200D01*
X123260000Y-110706846D01*
X123260141Y-110711035D01*
X123262731Y-110749231D01*
X123306040Y-110923376D01*
X123385771Y-111084140D01*
X123498197Y-111224002D01*
X123638059Y-111336428D01*
X123798823Y-111416159D01*
X123972968Y-111459468D01*
X124011164Y-111462058D01*
X124015354Y-111462200D01*
X124210000Y-111462200D01*
X124210000Y-110627886D01*
X124221955Y-110639841D01*
X124334852Y-110697365D01*
X124428519Y-110712200D01*
X124491481Y-110712200D01*
X124585148Y-110697365D01*
X124698045Y-110639841D01*
X124710000Y-110627886D01*
X124710000Y-111462200D01*
X124904646Y-111462200D01*
X124908835Y-111462058D01*
X124947031Y-111459468D01*
X125121176Y-111416159D01*
X125281940Y-111336428D01*
X125421802Y-111224002D01*
X125534228Y-111084140D01*
X125613959Y-110923376D01*
X125657268Y-110749231D01*
X125659858Y-110711035D01*
X125660000Y-110706846D01*
X125660000Y-110562200D01*
X124775686Y-110562200D01*
X124787641Y-110550245D01*
X124845165Y-110437348D01*
X124864986Y-110312200D01*
X124845165Y-110187052D01*
X124787641Y-110074155D01*
X124775686Y-110062200D01*
X125659999Y-110062200D01*
X125660000Y-109917553D01*
X125659858Y-109913364D01*
X125657268Y-109875168D01*
X125613959Y-109701023D01*
X125534228Y-109540259D01*
X125421802Y-109400397D01*
X125281940Y-109287971D01*
X125121176Y-109208240D01*
X124947031Y-109164931D01*
X124908835Y-109162341D01*
X124904646Y-109162200D01*
X124710000Y-109162200D01*
X124710000Y-109996514D01*
X124698045Y-109984559D01*
X124585148Y-109927035D01*
X124491481Y-109912200D01*
X124428519Y-109912200D01*
X124334852Y-109927035D01*
X124221955Y-109984559D01*
X124210000Y-109996514D01*
X124210000Y-109162200D01*
X124015354Y-109162200D01*
X124011164Y-109162341D01*
X123972968Y-109164931D01*
X123798823Y-109208240D01*
X123638059Y-109287971D01*
X123498197Y-109400397D01*
X123385771Y-109540259D01*
X123306040Y-109701023D01*
X123262731Y-109875168D01*
X123260141Y-109913364D01*
X123260000Y-109917553D01*
X123259999Y-110062199D01*
X122870500Y-110062199D01*
X122870500Y-109949480D01*
X122855687Y-109836964D01*
X122797698Y-109696967D01*
X122705451Y-109576749D01*
X122585233Y-109484502D01*
X122562573Y-109475116D01*
X122528830Y-109461139D01*
X122445236Y-109426513D01*
X122380087Y-109417936D01*
X122336739Y-109412229D01*
X122336737Y-109412228D01*
X122332720Y-109411700D01*
X121507280Y-109411700D01*
X121503263Y-109412228D01*
X121503260Y-109412229D01*
X121394764Y-109426513D01*
X121254768Y-109484501D01*
X121134549Y-109576749D01*
X121042301Y-109696968D01*
X120984313Y-109836964D01*
X120971414Y-109934944D01*
X120969500Y-109949480D01*
X120969500Y-110674920D01*
X120330500Y-110674920D01*
X120330500Y-109637526D01*
X120315966Y-109564460D01*
X120260601Y-109481599D01*
X120177740Y-109426234D01*
X120177739Y-109426233D01*
X120177738Y-109426233D01*
X120104675Y-109411700D01*
X120104674Y-109411700D01*
X118655326Y-109411700D01*
X118655325Y-109411700D01*
X118582261Y-109426233D01*
X118499399Y-109481599D01*
X118444033Y-109564461D01*
X118429500Y-109637525D01*
X118429500Y-110986874D01*
X117094500Y-110986874D01*
X117094500Y-108134920D01*
X119699500Y-108134920D01*
X119714313Y-108247436D01*
X119772302Y-108387433D01*
X119864549Y-108507651D01*
X119984767Y-108599898D01*
X120124764Y-108657887D01*
X120237280Y-108672700D01*
X120241333Y-108672700D01*
X121058667Y-108672700D01*
X121062720Y-108672700D01*
X121175236Y-108657887D01*
X121315233Y-108599898D01*
X121435451Y-108507651D01*
X121527698Y-108387433D01*
X121585687Y-108247436D01*
X121600500Y-108134920D01*
X121600500Y-107409480D01*
X121585687Y-107296964D01*
X121527698Y-107156967D01*
X121435451Y-107036749D01*
X121315233Y-106944502D01*
X121315228Y-106944500D01*
X121274228Y-106927517D01*
X121175236Y-106886513D01*
X121116356Y-106878761D01*
X121066739Y-106872229D01*
X121066737Y-106872228D01*
X121062720Y-106871700D01*
X120237280Y-106871700D01*
X120233263Y-106872228D01*
X120233260Y-106872229D01*
X120124764Y-106886513D01*
X119984768Y-106944501D01*
X119864549Y-107036749D01*
X119772301Y-107156968D01*
X119714312Y-107296964D01*
X119714313Y-107296964D01*
X119699500Y-107409480D01*
X119699500Y-108134920D01*
X117094500Y-108134920D01*
X117094500Y-104907410D01*
X117094972Y-104896604D01*
X117098481Y-104856494D01*
X117111209Y-104727264D01*
X117114831Y-104707359D01*
X117132434Y-104641664D01*
X117133523Y-104637852D01*
X117161809Y-104544605D01*
X117168074Y-104528230D01*
X117199308Y-104461249D01*
X117202273Y-104455318D01*
X117245498Y-104374449D01*
X117253244Y-104361840D01*
X117296820Y-104299607D01*
X117302486Y-104292140D01*
X117359492Y-104222678D01*
X117367626Y-104213704D01*
X117421704Y-104159626D01*
X117430678Y-104151492D01*
X117500140Y-104094486D01*
X117507607Y-104088820D01*
X117569840Y-104045244D01*
X117582449Y-104037498D01*
X117663318Y-103994273D01*
X117669249Y-103991308D01*
X117736230Y-103960074D01*
X117752605Y-103953809D01*
X117845852Y-103925523D01*
X117849664Y-103924434D01*
X117915354Y-103906832D01*
X117935271Y-103903209D01*
X118064494Y-103890481D01*
X118104641Y-103886968D01*
X118115400Y-103886500D01*
X175381590Y-103886500D01*
X175392393Y-103886971D01*
G37*
G04 #@! TD.AperFunction*
M02*
