%TF.GenerationSoftware,KiCad,Pcbnew,7.0.2-0*%
%TF.CreationDate,2023-06-03T15:33:15+02:00*%
%TF.ProjectId,MegaCD,4d656761-4344-42e6-9b69-6361645f7063,rev?*%
%TF.SameCoordinates,Original*%
%TF.FileFunction,Drillmap*%
%TF.FilePolarity,Positive*%
%FSLAX45Y45*%
G04 Gerber Fmt 4.5, Leading zero omitted, Abs format (unit mm)*
G04 Created by KiCad (PCBNEW 7.0.2-0) date 2023-06-03 15:33:15*
%MOMM*%
%LPD*%
G01*
G04 APERTURE LIST*
%ADD10C,0.100000*%
%ADD11C,0.200000*%
G04 APERTURE END LIST*
D10*
X14592300Y-13208000D02*
G75*
G03*
X14693900Y-13309600I101600J0D01*
G01*
X17538700Y-13309600D02*
G75*
G03*
X17640300Y-13208000I0J101600D01*
G01*
X14592300Y-12052300D02*
X14592300Y-13208000D01*
X17640300Y-13208000D02*
X17640300Y-10490200D01*
X11709400Y-11849100D02*
G75*
G03*
X11811000Y-11950700I101600J0D01*
G01*
X11811000Y-10388600D02*
G75*
G03*
X11709400Y-10490200I0J-101600D01*
G01*
X11811000Y-11950700D02*
X14490700Y-11950700D01*
X11709400Y-11849100D02*
X11709400Y-10490200D01*
X11811000Y-10388600D02*
X17538700Y-10388600D01*
X14693900Y-13309600D02*
X17538700Y-13309600D01*
X17640300Y-10490200D02*
G75*
G03*
X17538700Y-10388600I-101600J0D01*
G01*
X14592300Y-12052300D02*
G75*
G03*
X14490700Y-11950700I-101600J0D01*
G01*
D11*
X11952019Y-13627124D02*
X11952019Y-13427124D01*
X11952019Y-13427124D02*
X11999638Y-13427124D01*
X11999638Y-13427124D02*
X12028209Y-13436648D01*
X12028209Y-13436648D02*
X12047257Y-13455695D01*
X12047257Y-13455695D02*
X12056781Y-13474743D01*
X12056781Y-13474743D02*
X12066305Y-13512838D01*
X12066305Y-13512838D02*
X12066305Y-13541409D01*
X12066305Y-13541409D02*
X12056781Y-13579505D01*
X12056781Y-13579505D02*
X12047257Y-13598552D01*
X12047257Y-13598552D02*
X12028209Y-13617600D01*
X12028209Y-13617600D02*
X11999638Y-13627124D01*
X11999638Y-13627124D02*
X11952019Y-13627124D01*
X12152019Y-13627124D02*
X12152019Y-13493790D01*
X12152019Y-13531886D02*
X12161543Y-13512838D01*
X12161543Y-13512838D02*
X12171067Y-13503314D01*
X12171067Y-13503314D02*
X12190114Y-13493790D01*
X12190114Y-13493790D02*
X12209162Y-13493790D01*
X12275828Y-13627124D02*
X12275828Y-13493790D01*
X12275828Y-13427124D02*
X12266305Y-13436648D01*
X12266305Y-13436648D02*
X12275828Y-13446171D01*
X12275828Y-13446171D02*
X12285352Y-13436648D01*
X12285352Y-13436648D02*
X12275828Y-13427124D01*
X12275828Y-13427124D02*
X12275828Y-13446171D01*
X12399638Y-13627124D02*
X12380590Y-13617600D01*
X12380590Y-13617600D02*
X12371067Y-13598552D01*
X12371067Y-13598552D02*
X12371067Y-13427124D01*
X12504400Y-13627124D02*
X12485352Y-13617600D01*
X12485352Y-13617600D02*
X12475828Y-13598552D01*
X12475828Y-13598552D02*
X12475828Y-13427124D01*
X12732971Y-13627124D02*
X12732971Y-13427124D01*
X12732971Y-13427124D02*
X12799638Y-13569981D01*
X12799638Y-13569981D02*
X12866305Y-13427124D01*
X12866305Y-13427124D02*
X12866305Y-13627124D01*
X13047257Y-13627124D02*
X13047257Y-13522362D01*
X13047257Y-13522362D02*
X13037733Y-13503314D01*
X13037733Y-13503314D02*
X13018686Y-13493790D01*
X13018686Y-13493790D02*
X12980590Y-13493790D01*
X12980590Y-13493790D02*
X12961543Y-13503314D01*
X13047257Y-13617600D02*
X13028209Y-13627124D01*
X13028209Y-13627124D02*
X12980590Y-13627124D01*
X12980590Y-13627124D02*
X12961543Y-13617600D01*
X12961543Y-13617600D02*
X12952019Y-13598552D01*
X12952019Y-13598552D02*
X12952019Y-13579505D01*
X12952019Y-13579505D02*
X12961543Y-13560457D01*
X12961543Y-13560457D02*
X12980590Y-13550933D01*
X12980590Y-13550933D02*
X13028209Y-13550933D01*
X13028209Y-13550933D02*
X13047257Y-13541409D01*
X13142495Y-13493790D02*
X13142495Y-13693790D01*
X13142495Y-13503314D02*
X13161543Y-13493790D01*
X13161543Y-13493790D02*
X13199638Y-13493790D01*
X13199638Y-13493790D02*
X13218686Y-13503314D01*
X13218686Y-13503314D02*
X13228209Y-13512838D01*
X13228209Y-13512838D02*
X13237733Y-13531886D01*
X13237733Y-13531886D02*
X13237733Y-13589028D01*
X13237733Y-13589028D02*
X13228209Y-13608076D01*
X13228209Y-13608076D02*
X13218686Y-13617600D01*
X13218686Y-13617600D02*
X13199638Y-13627124D01*
X13199638Y-13627124D02*
X13161543Y-13627124D01*
X13161543Y-13627124D02*
X13142495Y-13617600D01*
X13323448Y-13608076D02*
X13332971Y-13617600D01*
X13332971Y-13617600D02*
X13323448Y-13627124D01*
X13323448Y-13627124D02*
X13313924Y-13617600D01*
X13313924Y-13617600D02*
X13323448Y-13608076D01*
X13323448Y-13608076D02*
X13323448Y-13627124D01*
X13323448Y-13503314D02*
X13332971Y-13512838D01*
X13332971Y-13512838D02*
X13323448Y-13522362D01*
X13323448Y-13522362D02*
X13313924Y-13512838D01*
X13313924Y-13512838D02*
X13323448Y-13503314D01*
X13323448Y-13503314D02*
X13323448Y-13522362D01*
M02*
