G04 #@! TF.GenerationSoftware,KiCad,Pcbnew,7.0.2-0*
G04 #@! TF.CreationDate,2023-06-03T15:33:08+02:00*
G04 #@! TF.ProjectId,MegaCD,4d656761-4344-42e6-9b69-6361645f7063,rev?*
G04 #@! TF.SameCoordinates,Original*
G04 #@! TF.FileFunction,Legend,Top*
G04 #@! TF.FilePolarity,Positive*
%FSLAX46Y46*%
G04 Gerber Fmt 4.6, Leading zero omitted, Abs format (unit mm)*
G04 Created by KiCad (PCBNEW 7.0.2-0) date 2023-06-03 15:33:08*
%MOMM*%
%LPD*%
G01*
G04 APERTURE LIST*
G04 Aperture macros list*
%AMRoundRect*
0 Rectangle with rounded corners*
0 $1 Rounding radius*
0 $2 $3 $4 $5 $6 $7 $8 $9 X,Y pos of 4 corners*
0 Add a 4 corners polygon primitive as box body*
4,1,4,$2,$3,$4,$5,$6,$7,$8,$9,$2,$3,0*
0 Add four circle primitives for the rounded corners*
1,1,$1+$1,$2,$3*
1,1,$1+$1,$4,$5*
1,1,$1+$1,$6,$7*
1,1,$1+$1,$8,$9*
0 Add four rect primitives between the rounded corners*
20,1,$1+$1,$2,$3,$4,$5,0*
20,1,$1+$1,$4,$5,$6,$7,0*
20,1,$1+$1,$6,$7,$8,$9,0*
20,1,$1+$1,$8,$9,$2,$3,0*%
G04 Aperture macros list end*
%ADD10C,0.150000*%
%ADD11C,0.300000*%
%ADD12C,0.200000*%
%ADD13C,0.120000*%
%ADD14C,0.100000*%
%ADD15C,0.558000*%
%ADD16R,1.400000X1.300000*%
%ADD17RoundRect,0.325000X0.375000X-0.325000X0.375000X0.325000X-0.375000X0.325000X-0.375000X-0.325000X0*%
%ADD18C,1.600000*%
%ADD19R,0.700000X3.400000*%
G04 APERTURE END LIST*
D10*
X120769047Y-104642023D02*
X121483333Y-104642023D01*
X121126190Y-105892023D02*
X121126190Y-104642023D01*
X121900000Y-105892023D02*
X121900000Y-104642023D01*
X121900000Y-105237261D02*
X122614285Y-105237261D01*
X122614285Y-105892023D02*
X122614285Y-104642023D01*
X123209524Y-105892023D02*
X123209524Y-104642023D01*
X123745238Y-105832500D02*
X123923809Y-105892023D01*
X123923809Y-105892023D02*
X124221428Y-105892023D01*
X124221428Y-105892023D02*
X124340476Y-105832500D01*
X124340476Y-105832500D02*
X124400000Y-105772976D01*
X124400000Y-105772976D02*
X124459523Y-105653928D01*
X124459523Y-105653928D02*
X124459523Y-105534880D01*
X124459523Y-105534880D02*
X124400000Y-105415833D01*
X124400000Y-105415833D02*
X124340476Y-105356309D01*
X124340476Y-105356309D02*
X124221428Y-105296785D01*
X124221428Y-105296785D02*
X123983333Y-105237261D01*
X123983333Y-105237261D02*
X123864285Y-105177738D01*
X123864285Y-105177738D02*
X123804762Y-105118214D01*
X123804762Y-105118214D02*
X123745238Y-104999166D01*
X123745238Y-104999166D02*
X123745238Y-104880119D01*
X123745238Y-104880119D02*
X123804762Y-104761071D01*
X123804762Y-104761071D02*
X123864285Y-104701547D01*
X123864285Y-104701547D02*
X123983333Y-104642023D01*
X123983333Y-104642023D02*
X124280952Y-104642023D01*
X124280952Y-104642023D02*
X124459523Y-104701547D01*
X125947619Y-105892023D02*
X125947619Y-104642023D01*
X125947619Y-104642023D02*
X126423809Y-104642023D01*
X126423809Y-104642023D02*
X126542857Y-104701547D01*
X126542857Y-104701547D02*
X126602380Y-104761071D01*
X126602380Y-104761071D02*
X126661904Y-104880119D01*
X126661904Y-104880119D02*
X126661904Y-105058690D01*
X126661904Y-105058690D02*
X126602380Y-105177738D01*
X126602380Y-105177738D02*
X126542857Y-105237261D01*
X126542857Y-105237261D02*
X126423809Y-105296785D01*
X126423809Y-105296785D02*
X125947619Y-105296785D01*
X127792857Y-105892023D02*
X127197619Y-105892023D01*
X127197619Y-105892023D02*
X127197619Y-104642023D01*
X128150000Y-105534880D02*
X128745238Y-105534880D01*
X128030952Y-105892023D02*
X128447619Y-104642023D01*
X128447619Y-104642023D02*
X128864285Y-105892023D01*
X129280953Y-105892023D02*
X129280953Y-104642023D01*
X129280953Y-104642023D02*
X129995238Y-105892023D01*
X129995238Y-105892023D02*
X129995238Y-104642023D01*
X130590477Y-105237261D02*
X131007143Y-105237261D01*
X131185715Y-105892023D02*
X130590477Y-105892023D01*
X130590477Y-105892023D02*
X130590477Y-104642023D01*
X130590477Y-104642023D02*
X131185715Y-104642023D01*
X132495238Y-104642023D02*
X132911905Y-105892023D01*
X132911905Y-105892023D02*
X133328571Y-104642023D01*
X134459524Y-105772976D02*
X134400000Y-105832500D01*
X134400000Y-105832500D02*
X134221429Y-105892023D01*
X134221429Y-105892023D02*
X134102381Y-105892023D01*
X134102381Y-105892023D02*
X133923810Y-105832500D01*
X133923810Y-105832500D02*
X133804762Y-105713452D01*
X133804762Y-105713452D02*
X133745239Y-105594404D01*
X133745239Y-105594404D02*
X133685715Y-105356309D01*
X133685715Y-105356309D02*
X133685715Y-105177738D01*
X133685715Y-105177738D02*
X133745239Y-104939642D01*
X133745239Y-104939642D02*
X133804762Y-104820595D01*
X133804762Y-104820595D02*
X133923810Y-104701547D01*
X133923810Y-104701547D02*
X134102381Y-104642023D01*
X134102381Y-104642023D02*
X134221429Y-104642023D01*
X134221429Y-104642023D02*
X134400000Y-104701547D01*
X134400000Y-104701547D02*
X134459524Y-104761071D01*
X135709524Y-105772976D02*
X135650000Y-105832500D01*
X135650000Y-105832500D02*
X135471429Y-105892023D01*
X135471429Y-105892023D02*
X135352381Y-105892023D01*
X135352381Y-105892023D02*
X135173810Y-105832500D01*
X135173810Y-105832500D02*
X135054762Y-105713452D01*
X135054762Y-105713452D02*
X134995239Y-105594404D01*
X134995239Y-105594404D02*
X134935715Y-105356309D01*
X134935715Y-105356309D02*
X134935715Y-105177738D01*
X134935715Y-105177738D02*
X134995239Y-104939642D01*
X134995239Y-104939642D02*
X135054762Y-104820595D01*
X135054762Y-104820595D02*
X135173810Y-104701547D01*
X135173810Y-104701547D02*
X135352381Y-104642023D01*
X135352381Y-104642023D02*
X135471429Y-104642023D01*
X135471429Y-104642023D02*
X135650000Y-104701547D01*
X135650000Y-104701547D02*
X135709524Y-104761071D01*
X136185715Y-104761071D02*
X136245239Y-104701547D01*
X136245239Y-104701547D02*
X136364286Y-104642023D01*
X136364286Y-104642023D02*
X136661905Y-104642023D01*
X136661905Y-104642023D02*
X136780953Y-104701547D01*
X136780953Y-104701547D02*
X136840477Y-104761071D01*
X136840477Y-104761071D02*
X136900000Y-104880119D01*
X136900000Y-104880119D02*
X136900000Y-104999166D01*
X136900000Y-104999166D02*
X136840477Y-105177738D01*
X136840477Y-105177738D02*
X136126191Y-105892023D01*
X136126191Y-105892023D02*
X136900000Y-105892023D01*
X138328572Y-104582500D02*
X137257143Y-106189642D01*
X138745239Y-105415833D02*
X139697620Y-105415833D01*
X139221429Y-105892023D02*
X139221429Y-104939642D01*
X140888096Y-104642023D02*
X140292858Y-104642023D01*
X140292858Y-104642023D02*
X140233334Y-105237261D01*
X140233334Y-105237261D02*
X140292858Y-105177738D01*
X140292858Y-105177738D02*
X140411905Y-105118214D01*
X140411905Y-105118214D02*
X140709524Y-105118214D01*
X140709524Y-105118214D02*
X140828572Y-105177738D01*
X140828572Y-105177738D02*
X140888096Y-105237261D01*
X140888096Y-105237261D02*
X140947619Y-105356309D01*
X140947619Y-105356309D02*
X140947619Y-105653928D01*
X140947619Y-105653928D02*
X140888096Y-105772976D01*
X140888096Y-105772976D02*
X140828572Y-105832500D01*
X140828572Y-105832500D02*
X140709524Y-105892023D01*
X140709524Y-105892023D02*
X140411905Y-105892023D01*
X140411905Y-105892023D02*
X140292858Y-105832500D01*
X140292858Y-105832500D02*
X140233334Y-105772976D01*
X141304762Y-104642023D02*
X141721429Y-105892023D01*
X141721429Y-105892023D02*
X142138095Y-104642023D01*
D11*
X174093142Y-128785000D02*
X175236000Y-128785000D01*
X174664571Y-129356428D02*
X174664571Y-128213571D01*
D10*
X119080619Y-115657189D02*
X118080619Y-115657189D01*
X118985380Y-114609571D02*
X119033000Y-114657190D01*
X119033000Y-114657190D02*
X119080619Y-114800047D01*
X119080619Y-114800047D02*
X119080619Y-114895285D01*
X119080619Y-114895285D02*
X119033000Y-115038142D01*
X119033000Y-115038142D02*
X118937761Y-115133380D01*
X118937761Y-115133380D02*
X118842523Y-115180999D01*
X118842523Y-115180999D02*
X118652047Y-115228618D01*
X118652047Y-115228618D02*
X118509190Y-115228618D01*
X118509190Y-115228618D02*
X118318714Y-115180999D01*
X118318714Y-115180999D02*
X118223476Y-115133380D01*
X118223476Y-115133380D02*
X118128238Y-115038142D01*
X118128238Y-115038142D02*
X118080619Y-114895285D01*
X118080619Y-114895285D02*
X118080619Y-114800047D01*
X118080619Y-114800047D02*
X118128238Y-114657190D01*
X118128238Y-114657190D02*
X118175857Y-114609571D01*
X118080619Y-114276237D02*
X118080619Y-113609571D01*
X118080619Y-113609571D02*
X119080619Y-114038142D01*
X175119380Y-121959666D02*
X175167000Y-122007285D01*
X175167000Y-122007285D02*
X175214619Y-122150142D01*
X175214619Y-122150142D02*
X175214619Y-122245380D01*
X175214619Y-122245380D02*
X175167000Y-122388237D01*
X175167000Y-122388237D02*
X175071761Y-122483475D01*
X175071761Y-122483475D02*
X174976523Y-122531094D01*
X174976523Y-122531094D02*
X174786047Y-122578713D01*
X174786047Y-122578713D02*
X174643190Y-122578713D01*
X174643190Y-122578713D02*
X174452714Y-122531094D01*
X174452714Y-122531094D02*
X174357476Y-122483475D01*
X174357476Y-122483475D02*
X174262238Y-122388237D01*
X174262238Y-122388237D02*
X174214619Y-122245380D01*
X174214619Y-122245380D02*
X174214619Y-122150142D01*
X174214619Y-122150142D02*
X174262238Y-122007285D01*
X174262238Y-122007285D02*
X174309857Y-121959666D01*
X174309857Y-121578713D02*
X174262238Y-121531094D01*
X174262238Y-121531094D02*
X174214619Y-121435856D01*
X174214619Y-121435856D02*
X174214619Y-121197761D01*
X174214619Y-121197761D02*
X174262238Y-121102523D01*
X174262238Y-121102523D02*
X174309857Y-121054904D01*
X174309857Y-121054904D02*
X174405095Y-121007285D01*
X174405095Y-121007285D02*
X174500333Y-121007285D01*
X174500333Y-121007285D02*
X174643190Y-121054904D01*
X174643190Y-121054904D02*
X175214619Y-121626332D01*
X175214619Y-121626332D02*
X175214619Y-121007285D01*
X173309619Y-126420428D02*
X173309619Y-126991856D01*
X173309619Y-126706142D02*
X172309619Y-126706142D01*
X172309619Y-126706142D02*
X172452476Y-126801380D01*
X172452476Y-126801380D02*
X172547714Y-126896618D01*
X172547714Y-126896618D02*
X172595333Y-126991856D01*
X172309619Y-125801380D02*
X172309619Y-125706142D01*
X172309619Y-125706142D02*
X172357238Y-125610904D01*
X172357238Y-125610904D02*
X172404857Y-125563285D01*
X172404857Y-125563285D02*
X172500095Y-125515666D01*
X172500095Y-125515666D02*
X172690571Y-125468047D01*
X172690571Y-125468047D02*
X172928666Y-125468047D01*
X172928666Y-125468047D02*
X173119142Y-125515666D01*
X173119142Y-125515666D02*
X173214380Y-125563285D01*
X173214380Y-125563285D02*
X173262000Y-125610904D01*
X173262000Y-125610904D02*
X173309619Y-125706142D01*
X173309619Y-125706142D02*
X173309619Y-125801380D01*
X173309619Y-125801380D02*
X173262000Y-125896618D01*
X173262000Y-125896618D02*
X173214380Y-125944237D01*
X173214380Y-125944237D02*
X173119142Y-125991856D01*
X173119142Y-125991856D02*
X172928666Y-126039475D01*
X172928666Y-126039475D02*
X172690571Y-126039475D01*
X172690571Y-126039475D02*
X172500095Y-125991856D01*
X172500095Y-125991856D02*
X172404857Y-125944237D01*
X172404857Y-125944237D02*
X172357238Y-125896618D01*
X172357238Y-125896618D02*
X172309619Y-125801380D01*
X172642952Y-124610904D02*
X173309619Y-124610904D01*
X172642952Y-125039475D02*
X173166761Y-125039475D01*
X173166761Y-125039475D02*
X173262000Y-124991856D01*
X173262000Y-124991856D02*
X173309619Y-124896618D01*
X173309619Y-124896618D02*
X173309619Y-124753761D01*
X173309619Y-124753761D02*
X173262000Y-124658523D01*
X173262000Y-124658523D02*
X173214380Y-124610904D01*
X172785809Y-123801380D02*
X172785809Y-124134713D01*
X173309619Y-124134713D02*
X172309619Y-124134713D01*
X172309619Y-124134713D02*
X172309619Y-123658523D01*
X147909619Y-123277189D02*
X146909619Y-123277189D01*
X147814380Y-122229571D02*
X147862000Y-122277190D01*
X147862000Y-122277190D02*
X147909619Y-122420047D01*
X147909619Y-122420047D02*
X147909619Y-122515285D01*
X147909619Y-122515285D02*
X147862000Y-122658142D01*
X147862000Y-122658142D02*
X147766761Y-122753380D01*
X147766761Y-122753380D02*
X147671523Y-122800999D01*
X147671523Y-122800999D02*
X147481047Y-122848618D01*
X147481047Y-122848618D02*
X147338190Y-122848618D01*
X147338190Y-122848618D02*
X147147714Y-122800999D01*
X147147714Y-122800999D02*
X147052476Y-122753380D01*
X147052476Y-122753380D02*
X146957238Y-122658142D01*
X146957238Y-122658142D02*
X146909619Y-122515285D01*
X146909619Y-122515285D02*
X146909619Y-122420047D01*
X146909619Y-122420047D02*
X146957238Y-122277190D01*
X146957238Y-122277190D02*
X147004857Y-122229571D01*
X146909619Y-121372428D02*
X146909619Y-121562904D01*
X146909619Y-121562904D02*
X146957238Y-121658142D01*
X146957238Y-121658142D02*
X147004857Y-121705761D01*
X147004857Y-121705761D02*
X147147714Y-121800999D01*
X147147714Y-121800999D02*
X147338190Y-121848618D01*
X147338190Y-121848618D02*
X147719142Y-121848618D01*
X147719142Y-121848618D02*
X147814380Y-121800999D01*
X147814380Y-121800999D02*
X147862000Y-121753380D01*
X147862000Y-121753380D02*
X147909619Y-121658142D01*
X147909619Y-121658142D02*
X147909619Y-121467666D01*
X147909619Y-121467666D02*
X147862000Y-121372428D01*
X147862000Y-121372428D02*
X147814380Y-121324809D01*
X147814380Y-121324809D02*
X147719142Y-121277190D01*
X147719142Y-121277190D02*
X147481047Y-121277190D01*
X147481047Y-121277190D02*
X147385809Y-121324809D01*
X147385809Y-121324809D02*
X147338190Y-121372428D01*
X147338190Y-121372428D02*
X147290571Y-121467666D01*
X147290571Y-121467666D02*
X147290571Y-121658142D01*
X147290571Y-121658142D02*
X147338190Y-121753380D01*
X147338190Y-121753380D02*
X147385809Y-121800999D01*
X147385809Y-121800999D02*
X147481047Y-121848618D01*
D12*
X145385619Y-110235904D02*
X146195142Y-110235904D01*
X146195142Y-110235904D02*
X146290380Y-110188285D01*
X146290380Y-110188285D02*
X146338000Y-110140666D01*
X146338000Y-110140666D02*
X146385619Y-110045428D01*
X146385619Y-110045428D02*
X146385619Y-109854952D01*
X146385619Y-109854952D02*
X146338000Y-109759714D01*
X146338000Y-109759714D02*
X146290380Y-109712095D01*
X146290380Y-109712095D02*
X146195142Y-109664476D01*
X146195142Y-109664476D02*
X145385619Y-109664476D01*
X146385619Y-108664476D02*
X146385619Y-109235904D01*
X146385619Y-108950190D02*
X145385619Y-108950190D01*
X145385619Y-108950190D02*
X145528476Y-109045428D01*
X145528476Y-109045428D02*
X145623714Y-109140666D01*
X145623714Y-109140666D02*
X145671333Y-109235904D01*
D10*
X156813714Y-111206619D02*
X156813714Y-110206619D01*
X156813714Y-110682809D02*
X157385142Y-110682809D01*
X157385142Y-111206619D02*
X157385142Y-110206619D01*
X157861333Y-111206619D02*
X157861333Y-110206619D01*
X157861333Y-110206619D02*
X158194666Y-110920904D01*
X158194666Y-110920904D02*
X158527999Y-110206619D01*
X158527999Y-110206619D02*
X158527999Y-111206619D01*
X159480380Y-110206619D02*
X159004190Y-110206619D01*
X159004190Y-110206619D02*
X158956571Y-110682809D01*
X158956571Y-110682809D02*
X159004190Y-110635190D01*
X159004190Y-110635190D02*
X159099428Y-110587571D01*
X159099428Y-110587571D02*
X159337523Y-110587571D01*
X159337523Y-110587571D02*
X159432761Y-110635190D01*
X159432761Y-110635190D02*
X159480380Y-110682809D01*
X159480380Y-110682809D02*
X159527999Y-110778047D01*
X159527999Y-110778047D02*
X159527999Y-111016142D01*
X159527999Y-111016142D02*
X159480380Y-111111380D01*
X159480380Y-111111380D02*
X159432761Y-111159000D01*
X159432761Y-111159000D02*
X159337523Y-111206619D01*
X159337523Y-111206619D02*
X159099428Y-111206619D01*
X159099428Y-111206619D02*
X159004190Y-111159000D01*
X159004190Y-111159000D02*
X158956571Y-111111380D01*
X160480380Y-111206619D02*
X159908952Y-111206619D01*
X160194666Y-111206619D02*
X160194666Y-110206619D01*
X160194666Y-110206619D02*
X160099428Y-110349476D01*
X160099428Y-110349476D02*
X160004190Y-110444714D01*
X160004190Y-110444714D02*
X159908952Y-110492333D01*
X161337523Y-110539952D02*
X161337523Y-111206619D01*
X161099428Y-110159000D02*
X160861333Y-110873285D01*
X160861333Y-110873285D02*
X161480380Y-110873285D01*
X161813714Y-110301857D02*
X161861333Y-110254238D01*
X161861333Y-110254238D02*
X161956571Y-110206619D01*
X161956571Y-110206619D02*
X162194666Y-110206619D01*
X162194666Y-110206619D02*
X162289904Y-110254238D01*
X162289904Y-110254238D02*
X162337523Y-110301857D01*
X162337523Y-110301857D02*
X162385142Y-110397095D01*
X162385142Y-110397095D02*
X162385142Y-110492333D01*
X162385142Y-110492333D02*
X162337523Y-110635190D01*
X162337523Y-110635190D02*
X161766095Y-111206619D01*
X161766095Y-111206619D02*
X162385142Y-111206619D01*
X162718476Y-110206619D02*
X163385142Y-110206619D01*
X163385142Y-110206619D02*
X162956571Y-111206619D01*
X163956571Y-110206619D02*
X164051809Y-110206619D01*
X164051809Y-110206619D02*
X164147047Y-110254238D01*
X164147047Y-110254238D02*
X164194666Y-110301857D01*
X164194666Y-110301857D02*
X164242285Y-110397095D01*
X164242285Y-110397095D02*
X164289904Y-110587571D01*
X164289904Y-110587571D02*
X164289904Y-110825666D01*
X164289904Y-110825666D02*
X164242285Y-111016142D01*
X164242285Y-111016142D02*
X164194666Y-111111380D01*
X164194666Y-111111380D02*
X164147047Y-111159000D01*
X164147047Y-111159000D02*
X164051809Y-111206619D01*
X164051809Y-111206619D02*
X163956571Y-111206619D01*
X163956571Y-111206619D02*
X163861333Y-111159000D01*
X163861333Y-111159000D02*
X163813714Y-111111380D01*
X163813714Y-111111380D02*
X163766095Y-111016142D01*
X163766095Y-111016142D02*
X163718476Y-110825666D01*
X163718476Y-110825666D02*
X163718476Y-110587571D01*
X163718476Y-110587571D02*
X163766095Y-110397095D01*
X163766095Y-110397095D02*
X163813714Y-110301857D01*
X163813714Y-110301857D02*
X163861333Y-110254238D01*
X163861333Y-110254238D02*
X163956571Y-110206619D01*
X119080619Y-108799189D02*
X118080619Y-108799189D01*
X118985380Y-107751571D02*
X119033000Y-107799190D01*
X119033000Y-107799190D02*
X119080619Y-107942047D01*
X119080619Y-107942047D02*
X119080619Y-108037285D01*
X119080619Y-108037285D02*
X119033000Y-108180142D01*
X119033000Y-108180142D02*
X118937761Y-108275380D01*
X118937761Y-108275380D02*
X118842523Y-108322999D01*
X118842523Y-108322999D02*
X118652047Y-108370618D01*
X118652047Y-108370618D02*
X118509190Y-108370618D01*
X118509190Y-108370618D02*
X118318714Y-108322999D01*
X118318714Y-108322999D02*
X118223476Y-108275380D01*
X118223476Y-108275380D02*
X118128238Y-108180142D01*
X118128238Y-108180142D02*
X118080619Y-108037285D01*
X118080619Y-108037285D02*
X118080619Y-107942047D01*
X118080619Y-107942047D02*
X118128238Y-107799190D01*
X118128238Y-107799190D02*
X118175857Y-107751571D01*
X118509190Y-107180142D02*
X118461571Y-107275380D01*
X118461571Y-107275380D02*
X118413952Y-107322999D01*
X118413952Y-107322999D02*
X118318714Y-107370618D01*
X118318714Y-107370618D02*
X118271095Y-107370618D01*
X118271095Y-107370618D02*
X118175857Y-107322999D01*
X118175857Y-107322999D02*
X118128238Y-107275380D01*
X118128238Y-107275380D02*
X118080619Y-107180142D01*
X118080619Y-107180142D02*
X118080619Y-106989666D01*
X118080619Y-106989666D02*
X118128238Y-106894428D01*
X118128238Y-106894428D02*
X118175857Y-106846809D01*
X118175857Y-106846809D02*
X118271095Y-106799190D01*
X118271095Y-106799190D02*
X118318714Y-106799190D01*
X118318714Y-106799190D02*
X118413952Y-106846809D01*
X118413952Y-106846809D02*
X118461571Y-106894428D01*
X118461571Y-106894428D02*
X118509190Y-106989666D01*
X118509190Y-106989666D02*
X118509190Y-107180142D01*
X118509190Y-107180142D02*
X118556809Y-107275380D01*
X118556809Y-107275380D02*
X118604428Y-107322999D01*
X118604428Y-107322999D02*
X118699666Y-107370618D01*
X118699666Y-107370618D02*
X118890142Y-107370618D01*
X118890142Y-107370618D02*
X118985380Y-107322999D01*
X118985380Y-107322999D02*
X119033000Y-107275380D01*
X119033000Y-107275380D02*
X119080619Y-107180142D01*
X119080619Y-107180142D02*
X119080619Y-106989666D01*
X119080619Y-106989666D02*
X119033000Y-106894428D01*
X119033000Y-106894428D02*
X118985380Y-106846809D01*
X118985380Y-106846809D02*
X118890142Y-106799190D01*
X118890142Y-106799190D02*
X118699666Y-106799190D01*
X118699666Y-106799190D02*
X118604428Y-106846809D01*
X118604428Y-106846809D02*
X118556809Y-106894428D01*
X118556809Y-106894428D02*
X118509190Y-106989666D01*
X147909619Y-129246189D02*
X146909619Y-129246189D01*
X147814380Y-128198571D02*
X147862000Y-128246190D01*
X147862000Y-128246190D02*
X147909619Y-128389047D01*
X147909619Y-128389047D02*
X147909619Y-128484285D01*
X147909619Y-128484285D02*
X147862000Y-128627142D01*
X147862000Y-128627142D02*
X147766761Y-128722380D01*
X147766761Y-128722380D02*
X147671523Y-128769999D01*
X147671523Y-128769999D02*
X147481047Y-128817618D01*
X147481047Y-128817618D02*
X147338190Y-128817618D01*
X147338190Y-128817618D02*
X147147714Y-128769999D01*
X147147714Y-128769999D02*
X147052476Y-128722380D01*
X147052476Y-128722380D02*
X146957238Y-128627142D01*
X146957238Y-128627142D02*
X146909619Y-128484285D01*
X146909619Y-128484285D02*
X146909619Y-128389047D01*
X146909619Y-128389047D02*
X146957238Y-128246190D01*
X146957238Y-128246190D02*
X147004857Y-128198571D01*
X146909619Y-127293809D02*
X146909619Y-127769999D01*
X146909619Y-127769999D02*
X147385809Y-127817618D01*
X147385809Y-127817618D02*
X147338190Y-127769999D01*
X147338190Y-127769999D02*
X147290571Y-127674761D01*
X147290571Y-127674761D02*
X147290571Y-127436666D01*
X147290571Y-127436666D02*
X147338190Y-127341428D01*
X147338190Y-127341428D02*
X147385809Y-127293809D01*
X147385809Y-127293809D02*
X147481047Y-127246190D01*
X147481047Y-127246190D02*
X147719142Y-127246190D01*
X147719142Y-127246190D02*
X147814380Y-127293809D01*
X147814380Y-127293809D02*
X147862000Y-127341428D01*
X147862000Y-127341428D02*
X147909619Y-127436666D01*
X147909619Y-127436666D02*
X147909619Y-127674761D01*
X147909619Y-127674761D02*
X147862000Y-127769999D01*
X147862000Y-127769999D02*
X147814380Y-127817618D01*
D13*
X173832000Y-125978000D02*
X173832000Y-124720000D01*
X175672000Y-125978000D02*
X175672000Y-124720000D01*
D14*
X173228000Y-117983000D02*
X173609000Y-117983000D01*
X173609000Y-117983000D02*
X173609000Y-106299000D01*
X147320000Y-116078000D02*
X147701000Y-116459000D01*
X147320000Y-106299000D02*
X147320000Y-116078000D01*
X147701000Y-106299000D02*
X147320000Y-106299000D01*
X173228000Y-106299000D02*
X173609000Y-106299000D01*
D15*
X146964000Y-117221000D02*
G75*
G03*
X146964000Y-117221000I-279000J0D01*
G01*
%LPC*%
D16*
X119380000Y-117221000D03*
D17*
X120650000Y-114681000D03*
X121920000Y-117221000D03*
X123190000Y-114681000D03*
X124460000Y-117221000D03*
X125730000Y-114681000D03*
X127000000Y-117221000D03*
X128270000Y-114681000D03*
X129540000Y-117221000D03*
X130810000Y-114681000D03*
X132080000Y-117221000D03*
X133350000Y-114681000D03*
X134620000Y-117221000D03*
X135890000Y-114681000D03*
X137160000Y-117221000D03*
X138430000Y-114681000D03*
X139700000Y-117221000D03*
X140970000Y-114681000D03*
X142240000Y-117221000D03*
X143510000Y-114681000D03*
D18*
X174752000Y-126599000D03*
X174752000Y-124099000D03*
D16*
X148209000Y-124790200D03*
D17*
X149479000Y-122250200D03*
X150749000Y-124790200D03*
X152019000Y-122250200D03*
X153289000Y-124790200D03*
X154559000Y-122250200D03*
X155829000Y-124790200D03*
X157099000Y-122250200D03*
X158369000Y-124790200D03*
X159639000Y-122250200D03*
X160909000Y-124790200D03*
X162179000Y-122250200D03*
X163449000Y-124790200D03*
X164719000Y-122250200D03*
X165989000Y-124790200D03*
X167259000Y-122250200D03*
X168529000Y-124790200D03*
X169799000Y-122250200D03*
X171069000Y-124790200D03*
X172339000Y-122250200D03*
D19*
X148463000Y-117221000D03*
X149733000Y-117221000D03*
X151003000Y-117221000D03*
X152273000Y-117221000D03*
X153543000Y-117221000D03*
X154813000Y-117221000D03*
X156083000Y-117221000D03*
X157353000Y-117221000D03*
X158623000Y-117221000D03*
X159893000Y-117221000D03*
X161163000Y-117221000D03*
X162433000Y-117221000D03*
X163703000Y-117221000D03*
X164973000Y-117221000D03*
X166243000Y-117221000D03*
X167513000Y-117221000D03*
X168783000Y-117221000D03*
X170053000Y-117221000D03*
X171323000Y-117221000D03*
X172593000Y-117221000D03*
X172593000Y-107061000D03*
X171323000Y-107061000D03*
X170053000Y-107061000D03*
X168783000Y-107061000D03*
X167513000Y-107061000D03*
X166243000Y-107061000D03*
X164973000Y-107061000D03*
X163703000Y-107061000D03*
X162433000Y-107061000D03*
X161163000Y-107061000D03*
X159893000Y-107061000D03*
X158623000Y-107061000D03*
X157353000Y-107061000D03*
X156083000Y-107061000D03*
X154813000Y-107061000D03*
X153543000Y-107061000D03*
X152273000Y-107061000D03*
X151003000Y-107061000D03*
X149733000Y-107061000D03*
X148463000Y-107061000D03*
D16*
X119380000Y-110312200D03*
D17*
X120650000Y-107772200D03*
X121920000Y-110312200D03*
X123190000Y-107772200D03*
X124460000Y-110312200D03*
X125730000Y-107772200D03*
X127000000Y-110312200D03*
X128270000Y-107772200D03*
X129540000Y-110312200D03*
X130810000Y-107772200D03*
X132080000Y-110312200D03*
X133350000Y-107772200D03*
X134620000Y-110312200D03*
X135890000Y-107772200D03*
X137160000Y-110312200D03*
X138430000Y-107772200D03*
X139700000Y-110312200D03*
X140970000Y-107772200D03*
X142240000Y-110312200D03*
X143510000Y-107772200D03*
D16*
X148209000Y-130835400D03*
D17*
X149479000Y-128295400D03*
X150749000Y-130835400D03*
X152019000Y-128295400D03*
X153289000Y-130835400D03*
X154559000Y-128295400D03*
X155829000Y-130835400D03*
X157099000Y-128295400D03*
X158369000Y-130835400D03*
X159639000Y-128295400D03*
X160909000Y-130835400D03*
X162179000Y-128295400D03*
X163449000Y-130835400D03*
X164719000Y-128295400D03*
X165989000Y-130835400D03*
X167259000Y-128295400D03*
X168529000Y-130835400D03*
X169799000Y-128295400D03*
X171069000Y-130835400D03*
X172339000Y-128295400D03*
%LPD*%
M02*
