M48
; DRILL file {KiCad 7.0.2-0} date 2023 June 03, Saturday 15:33:15
; FORMAT={-:-/ absolute / metric / decimal}
; #@! TF.CreationDate,2023-06-03T15:33:15+02:00
; #@! TF.GenerationSoftware,Kicad,Pcbnew,7.0.2-0
; #@! TF.FileFunction,Plated,1,4,PTH
FMAT,2
METRIC
; #@! TA.AperFunction,Plated,PTH,ViaDrill
T1C0.400
; #@! TA.AperFunction,Plated,PTH,ComponentDrill
T2C0.800
%
G90
G05
T1
X146.939Y-116.713
X147.32Y-106.426
X149.468Y-120.512
X149.733Y-114.808
X150.622Y-120.523
X151.003Y-109.556
X153.543Y-109.855
X153.543Y-114.808
X154.813Y-109.855
X156.083Y-114.427
X157.353Y-114.427
X163.667Y-111.923
X164.973Y-109.728
X164.973Y-114.3
X169.799Y-112.141
X170.053Y-109.601
X171.069Y-112.522
X171.323Y-110.617
X172.339Y-113.538
X172.593Y-109.728
T2
X119.38Y-110.312
X119.38Y-117.221
X120.65Y-107.772
X120.65Y-114.681
X121.92Y-110.312
X121.92Y-117.221
X123.19Y-107.772
X123.19Y-114.681
X124.46Y-110.312
X124.46Y-117.221
X125.73Y-107.772
X125.73Y-114.681
X127.0Y-110.312
X127.0Y-117.221
X128.27Y-107.772
X128.27Y-114.681
X129.54Y-110.312
X129.54Y-117.221
X130.81Y-107.772
X130.81Y-114.681
X132.08Y-110.312
X132.08Y-117.221
X133.35Y-107.772
X133.35Y-114.681
X134.62Y-110.312
X134.62Y-117.221
X135.89Y-107.772
X135.89Y-114.681
X137.16Y-110.312
X137.16Y-117.221
X138.43Y-107.772
X138.43Y-114.681
X139.7Y-110.312
X139.7Y-117.221
X140.97Y-107.772
X140.97Y-114.681
X142.24Y-110.312
X142.24Y-117.221
X143.51Y-107.772
X143.51Y-114.681
X148.209Y-124.79
X148.209Y-130.835
X149.479Y-122.25
X149.479Y-128.295
X150.749Y-124.79
X150.749Y-130.835
X152.019Y-122.25
X152.019Y-128.295
X153.289Y-124.79
X153.289Y-130.835
X154.559Y-122.25
X154.559Y-128.295
X155.829Y-124.79
X155.829Y-130.835
X157.099Y-122.25
X157.099Y-128.295
X158.369Y-124.79
X158.369Y-130.835
X159.639Y-122.25
X159.639Y-128.295
X160.909Y-124.79
X160.909Y-130.835
X162.179Y-122.25
X162.179Y-128.295
X163.449Y-124.79
X163.449Y-130.835
X164.719Y-122.25
X164.719Y-128.295
X165.989Y-124.79
X165.989Y-130.835
X167.259Y-122.25
X167.259Y-128.295
X168.529Y-124.79
X168.529Y-130.835
X169.799Y-122.25
X169.799Y-128.295
X171.069Y-124.79
X171.069Y-130.835
X172.339Y-122.25
X172.339Y-128.295
X174.752Y-124.099
X174.752Y-126.599
T0
M30
