G04 #@! TF.GenerationSoftware,KiCad,Pcbnew,7.0.2-0*
G04 #@! TF.CreationDate,2023-06-03T15:33:08+02:00*
G04 #@! TF.ProjectId,MegaCD,4d656761-4344-42e6-9b69-6361645f7063,rev?*
G04 #@! TF.SameCoordinates,Original*
G04 #@! TF.FileFunction,Copper,L4,Bot*
G04 #@! TF.FilePolarity,Positive*
%FSLAX46Y46*%
G04 Gerber Fmt 4.6, Leading zero omitted, Abs format (unit mm)*
G04 Created by KiCad (PCBNEW 7.0.2-0) date 2023-06-03 15:33:08*
%MOMM*%
%LPD*%
G01*
G04 APERTURE LIST*
G04 Aperture macros list*
%AMRoundRect*
0 Rectangle with rounded corners*
0 $1 Rounding radius*
0 $2 $3 $4 $5 $6 $7 $8 $9 X,Y pos of 4 corners*
0 Add a 4 corners polygon primitive as box body*
4,1,4,$2,$3,$4,$5,$6,$7,$8,$9,$2,$3,0*
0 Add four circle primitives for the rounded corners*
1,1,$1+$1,$2,$3*
1,1,$1+$1,$4,$5*
1,1,$1+$1,$6,$7*
1,1,$1+$1,$8,$9*
0 Add four rect primitives between the rounded corners*
20,1,$1+$1,$2,$3,$4,$5,0*
20,1,$1+$1,$4,$5,$6,$7,0*
20,1,$1+$1,$6,$7,$8,$9,0*
20,1,$1+$1,$8,$9,$2,$3,0*%
G04 Aperture macros list end*
G04 #@! TA.AperFunction,ComponentPad*
%ADD10R,1.400000X1.300000*%
G04 #@! TD*
G04 #@! TA.AperFunction,ComponentPad*
%ADD11RoundRect,0.325000X0.375000X-0.325000X0.375000X0.325000X-0.375000X0.325000X-0.375000X-0.325000X0*%
G04 #@! TD*
G04 #@! TA.AperFunction,ComponentPad*
%ADD12C,1.600000*%
G04 #@! TD*
G04 #@! TA.AperFunction,SMDPad,CuDef*
%ADD13RoundRect,0.255319X-0.394681X-0.344681X0.394681X-0.344681X0.394681X0.344681X-0.394681X0.344681X0*%
G04 #@! TD*
G04 #@! TA.AperFunction,ViaPad*
%ADD14C,0.800000*%
G04 #@! TD*
G04 #@! TA.AperFunction,Conductor*
%ADD15C,0.500000*%
G04 #@! TD*
G04 #@! TA.AperFunction,Conductor*
%ADD16C,0.250000*%
G04 #@! TD*
G04 APERTURE END LIST*
D10*
X119380000Y-117221000D03*
D11*
X120650000Y-114681000D03*
X121920000Y-117221000D03*
X123190000Y-114681000D03*
X124460000Y-117221000D03*
X125730000Y-114681000D03*
X127000000Y-117221000D03*
X128270000Y-114681000D03*
X129540000Y-117221000D03*
X130810000Y-114681000D03*
X132080000Y-117221000D03*
X133350000Y-114681000D03*
X134620000Y-117221000D03*
X135890000Y-114681000D03*
X137160000Y-117221000D03*
X138430000Y-114681000D03*
X139700000Y-117221000D03*
X140970000Y-114681000D03*
X142240000Y-117221000D03*
X143510000Y-114681000D03*
D12*
X174752000Y-126599000D03*
X174752000Y-124099000D03*
D10*
X148209000Y-124790200D03*
D11*
X149479000Y-122250200D03*
X150749000Y-124790200D03*
X152019000Y-122250200D03*
X153289000Y-124790200D03*
X154559000Y-122250200D03*
X155829000Y-124790200D03*
X157099000Y-122250200D03*
X158369000Y-124790200D03*
X159639000Y-122250200D03*
X160909000Y-124790200D03*
X162179000Y-122250200D03*
X163449000Y-124790200D03*
X164719000Y-122250200D03*
X165989000Y-124790200D03*
X167259000Y-122250200D03*
X168529000Y-124790200D03*
X169799000Y-122250200D03*
X171069000Y-124790200D03*
X172339000Y-122250200D03*
D10*
X119380000Y-110312200D03*
D11*
X120650000Y-107772200D03*
X121920000Y-110312200D03*
X123190000Y-107772200D03*
X124460000Y-110312200D03*
X125730000Y-107772200D03*
X127000000Y-110312200D03*
X128270000Y-107772200D03*
X129540000Y-110312200D03*
X130810000Y-107772200D03*
X132080000Y-110312200D03*
X133350000Y-107772200D03*
X134620000Y-110312200D03*
X135890000Y-107772200D03*
X137160000Y-110312200D03*
X138430000Y-107772200D03*
X139700000Y-110312200D03*
X140970000Y-107772200D03*
X142240000Y-110312200D03*
X143510000Y-107772200D03*
D10*
X148209000Y-130835400D03*
D11*
X149479000Y-128295400D03*
X150749000Y-130835400D03*
X152019000Y-128295400D03*
X153289000Y-130835400D03*
X154559000Y-128295400D03*
X155829000Y-130835400D03*
X157099000Y-128295400D03*
X158369000Y-130835400D03*
X159639000Y-128295400D03*
X160909000Y-130835400D03*
X162179000Y-128295400D03*
X163449000Y-130835400D03*
X164719000Y-128295400D03*
X165989000Y-130835400D03*
X167259000Y-128295400D03*
X168529000Y-130835400D03*
X169799000Y-128295400D03*
X171069000Y-130835400D03*
X172339000Y-128295400D03*
D13*
X148336000Y-118364000D03*
X150622000Y-118364000D03*
D14*
X172593000Y-109728000D03*
X147320000Y-106426000D03*
X154813000Y-109855000D03*
X146939000Y-116713000D03*
X156083000Y-114427000D03*
X150622000Y-120523000D03*
X149468299Y-120512299D03*
X153543000Y-114808000D03*
X149733000Y-114808000D03*
X151003000Y-109556000D03*
X153543000Y-109855000D03*
X157353000Y-114427000D03*
X164973000Y-109728000D03*
X172339000Y-113538000D03*
X171069000Y-112522000D03*
X169799000Y-112141000D03*
X170053000Y-109601000D03*
X171323000Y-110617000D03*
X164973000Y-114300000D03*
X163666806Y-111923194D03*
D15*
X153797000Y-106426000D02*
X147320000Y-106426000D01*
X154813000Y-109855000D02*
X154813000Y-107442000D01*
X153924000Y-106553000D02*
X153797000Y-106426000D01*
X154813000Y-107442000D02*
X153924000Y-106553000D01*
X148336000Y-118364000D02*
X148336000Y-117348000D01*
X147701000Y-116713000D02*
X146939000Y-116713000D01*
X148336000Y-117348000D02*
X147701000Y-116713000D01*
D16*
X156083000Y-114427000D02*
X156083000Y-119761000D01*
X156083000Y-119761000D02*
X154559000Y-121285000D01*
X154559000Y-121285000D02*
X154559000Y-122250200D01*
X150749000Y-122872800D02*
X149733000Y-123888800D01*
X149733000Y-125577842D02*
X152019000Y-127863842D01*
X152019000Y-127863842D02*
X152019000Y-128295400D01*
X150749000Y-120650000D02*
X150749000Y-122872800D01*
X150622000Y-120523000D02*
X150749000Y-120650000D01*
X149733000Y-123888800D02*
X149733000Y-125577842D01*
X149225000Y-123888500D02*
X149225000Y-125603000D01*
X148336000Y-121644599D02*
X148336000Y-122999500D01*
X149468299Y-120512299D02*
X148336000Y-121644599D01*
X148336000Y-122999500D02*
X149225000Y-123888500D01*
X150749000Y-127127000D02*
X150749000Y-130835400D01*
X149225000Y-125603000D02*
X150749000Y-127127000D01*
X154813000Y-123571000D02*
X154813000Y-126238000D01*
X154813000Y-126238000D02*
X155829000Y-127254000D01*
X153543000Y-122936000D02*
X153924000Y-123317000D01*
X153543000Y-114808000D02*
X153543000Y-122936000D01*
X155829000Y-127254000D02*
X155829000Y-130835400D01*
X154559000Y-123317000D02*
X154813000Y-123571000D01*
X153924000Y-123317000D02*
X154559000Y-123317000D01*
X154559000Y-128016000D02*
X154559000Y-128295400D01*
X153035000Y-115316000D02*
X153035000Y-123190000D01*
X153670000Y-123825000D02*
X154051000Y-123825000D01*
X154305000Y-127762000D02*
X154559000Y-128016000D01*
X153035000Y-123190000D02*
X153670000Y-123825000D01*
X152527000Y-114808000D02*
X153035000Y-115316000D01*
X149733000Y-114808000D02*
X152527000Y-114808000D01*
X154051000Y-123825000D02*
X154305000Y-124079000D01*
X154305000Y-124079000D02*
X154305000Y-127762000D01*
X145796000Y-106172000D02*
X123063000Y-106172000D01*
X121920000Y-107315000D02*
X121920000Y-110312200D01*
X123063000Y-106172000D02*
X121920000Y-107315000D01*
X151003000Y-109556000D02*
X149180000Y-109556000D01*
X149180000Y-109556000D02*
X145796000Y-106172000D01*
X143252000Y-106676000D02*
X143256000Y-106680000D01*
X125730000Y-107772200D02*
X126826200Y-106676000D01*
X126826200Y-106676000D02*
X143252000Y-106676000D01*
X149479000Y-110617000D02*
X152781000Y-110617000D01*
X145542000Y-106680000D02*
X149479000Y-110617000D01*
X152781000Y-110617000D02*
X153543000Y-109855000D01*
X143256000Y-106680000D02*
X145542000Y-106680000D01*
X156591000Y-119900579D02*
X155829000Y-120662579D01*
X157353000Y-114427000D02*
X156591000Y-115189000D01*
X156591000Y-115189000D02*
X156591000Y-119900579D01*
X155829000Y-120662579D02*
X155829000Y-124790200D01*
X160909000Y-105664000D02*
X164973000Y-109728000D01*
X122809000Y-105664000D02*
X160909000Y-105664000D01*
X119761000Y-106680000D02*
X121793000Y-106680000D01*
X119380000Y-107061000D02*
X119761000Y-106680000D01*
X119380000Y-110312200D02*
X119380000Y-107061000D01*
X121793000Y-106680000D02*
X122809000Y-105664000D01*
X172339000Y-122250200D02*
X172339000Y-113538000D01*
X171069000Y-124790200D02*
X171069000Y-112522000D01*
X169799000Y-122250200D02*
X169799000Y-112141000D01*
X167640000Y-110109000D02*
X166751000Y-110998000D01*
X168529000Y-123952000D02*
X168529000Y-124790200D01*
X166751000Y-110998000D02*
X166751000Y-120777000D01*
X169545000Y-110109000D02*
X167640000Y-110109000D01*
X166116000Y-121412000D02*
X166116000Y-123063000D01*
X168148000Y-123571000D02*
X168529000Y-123952000D01*
X166751000Y-120777000D02*
X166116000Y-121412000D01*
X166624000Y-123571000D02*
X168148000Y-123571000D01*
X170053000Y-109601000D02*
X169545000Y-110109000D01*
X166116000Y-123063000D02*
X166624000Y-123571000D01*
X167894000Y-110617000D02*
X167259000Y-111252000D01*
X167259000Y-111252000D02*
X167259000Y-122250200D01*
X171323000Y-110617000D02*
X167894000Y-110617000D01*
X129540000Y-117221000D02*
X129540000Y-114046000D01*
X129540000Y-114046000D02*
X130810000Y-112776000D01*
X130810000Y-112776000D02*
X163449000Y-112776000D01*
X163449000Y-112776000D02*
X164973000Y-114300000D01*
X163322000Y-112268000D02*
X163666806Y-111923194D01*
X120650000Y-114681000D02*
X123063000Y-112268000D01*
X123063000Y-112268000D02*
X163322000Y-112268000D01*
G04 #@! TA.AperFunction,Conductor*
G36*
X175392393Y-103886971D02*
G01*
X175432477Y-103890478D01*
X175561732Y-103903209D01*
X175581644Y-103906832D01*
X175647302Y-103924425D01*
X175651179Y-103925532D01*
X175744384Y-103953806D01*
X175760778Y-103960079D01*
X175827720Y-103991294D01*
X175833710Y-103994288D01*
X175914535Y-104037490D01*
X175927173Y-104045254D01*
X175989366Y-104088802D01*
X175996886Y-104094508D01*
X176066299Y-104151474D01*
X176075315Y-104159646D01*
X176129352Y-104213683D01*
X176137524Y-104222699D01*
X176194490Y-104292112D01*
X176200203Y-104299641D01*
X176243739Y-104361817D01*
X176251514Y-104374474D01*
X176294696Y-104455261D01*
X176297712Y-104461295D01*
X176328917Y-104528215D01*
X176335196Y-104544625D01*
X176363462Y-104637808D01*
X176364576Y-104641708D01*
X176382163Y-104707343D01*
X176385791Y-104727282D01*
X176398523Y-104856546D01*
X176402031Y-104896640D01*
X176402500Y-104907403D01*
X176402500Y-132074585D01*
X176402028Y-132085393D01*
X176398523Y-132125451D01*
X176385791Y-132254719D01*
X176382164Y-132274652D01*
X176364576Y-132340290D01*
X176363462Y-132344190D01*
X176335196Y-132437373D01*
X176328917Y-132453783D01*
X176297712Y-132520703D01*
X176294688Y-132526753D01*
X176251516Y-132607521D01*
X176243733Y-132620191D01*
X176200212Y-132682345D01*
X176194490Y-132689886D01*
X176137524Y-132759299D01*
X176129352Y-132768315D01*
X176075315Y-132822352D01*
X176066299Y-132830524D01*
X175996886Y-132887490D01*
X175989345Y-132893212D01*
X175927191Y-132936733D01*
X175914521Y-132944516D01*
X175833753Y-132987688D01*
X175827703Y-132990712D01*
X175760783Y-133021917D01*
X175744373Y-133028196D01*
X175651190Y-133056462D01*
X175647290Y-133057576D01*
X175581655Y-133075163D01*
X175561716Y-133078791D01*
X175432453Y-133091523D01*
X175423215Y-133092331D01*
X175392360Y-133095031D01*
X175381596Y-133095500D01*
X146944414Y-133095500D01*
X146933606Y-133095028D01*
X146893547Y-133091523D01*
X146764279Y-133078791D01*
X146744346Y-133075164D01*
X146678708Y-133057576D01*
X146674808Y-133056462D01*
X146581625Y-133028196D01*
X146565215Y-133021917D01*
X146498295Y-132990712D01*
X146492261Y-132987696D01*
X146411474Y-132944514D01*
X146398817Y-132936739D01*
X146336641Y-132893203D01*
X146329112Y-132887490D01*
X146259699Y-132830524D01*
X146250683Y-132822352D01*
X146196646Y-132768315D01*
X146188474Y-132759299D01*
X146131508Y-132689886D01*
X146125802Y-132682366D01*
X146082254Y-132620173D01*
X146074490Y-132607535D01*
X146031288Y-132526710D01*
X146028294Y-132520720D01*
X145997079Y-132453778D01*
X145990806Y-132437384D01*
X145962532Y-132344179D01*
X145961422Y-132340290D01*
X145943835Y-132274655D01*
X145943834Y-132274652D01*
X145943834Y-132274649D01*
X145940208Y-132254719D01*
X145927478Y-132125477D01*
X145923968Y-132085359D01*
X145923500Y-132074599D01*
X145923500Y-131510074D01*
X147258500Y-131510074D01*
X147273033Y-131583138D01*
X147273033Y-131583139D01*
X147273034Y-131583140D01*
X147328399Y-131666001D01*
X147411260Y-131721366D01*
X147447792Y-131728633D01*
X147484325Y-131735900D01*
X147484326Y-131735900D01*
X148933675Y-131735900D01*
X148958029Y-131731055D01*
X149006740Y-131721366D01*
X149089601Y-131666001D01*
X149144966Y-131583140D01*
X149159500Y-131510074D01*
X149159500Y-130160726D01*
X149144966Y-130087660D01*
X149089601Y-130004799D01*
X149006740Y-129949434D01*
X149006739Y-129949433D01*
X149006738Y-129949433D01*
X148933675Y-129934900D01*
X148933674Y-129934900D01*
X147484326Y-129934900D01*
X147484325Y-129934900D01*
X147411261Y-129949433D01*
X147328399Y-130004799D01*
X147273033Y-130087661D01*
X147258500Y-130160725D01*
X147258500Y-131510074D01*
X145923500Y-131510074D01*
X145923500Y-125464874D01*
X147258500Y-125464874D01*
X147273033Y-125537938D01*
X147273033Y-125537939D01*
X147273034Y-125537940D01*
X147328399Y-125620801D01*
X147411260Y-125676166D01*
X147426347Y-125679167D01*
X147484325Y-125690700D01*
X147484326Y-125690700D01*
X148771614Y-125690700D01*
X148838653Y-125710385D01*
X148880669Y-125755684D01*
X148889155Y-125771366D01*
X148889829Y-125772611D01*
X148892171Y-125777162D01*
X148918634Y-125831292D01*
X148918777Y-125831482D01*
X148924579Y-125836824D01*
X148924581Y-125836826D01*
X148963108Y-125872293D01*
X148966779Y-125875816D01*
X150337182Y-127246219D01*
X150370666Y-127307540D01*
X150373500Y-127333898D01*
X150373500Y-127392177D01*
X150353815Y-127459216D01*
X150301011Y-127504971D01*
X150231853Y-127514915D01*
X150174014Y-127490553D01*
X150144233Y-127467702D01*
X150108498Y-127452900D01*
X150004236Y-127409713D01*
X149945356Y-127401961D01*
X149895739Y-127395429D01*
X149895737Y-127395428D01*
X149891720Y-127394900D01*
X149066280Y-127394900D01*
X149062263Y-127395428D01*
X149062260Y-127395429D01*
X148953764Y-127409713D01*
X148813768Y-127467701D01*
X148693549Y-127559949D01*
X148601301Y-127680168D01*
X148584500Y-127720730D01*
X148543313Y-127820164D01*
X148528500Y-127932680D01*
X148528500Y-128658120D01*
X148543313Y-128770636D01*
X148601302Y-128910633D01*
X148693549Y-129030851D01*
X148813767Y-129123098D01*
X148953764Y-129181087D01*
X149066280Y-129195900D01*
X149070333Y-129195900D01*
X149887667Y-129195900D01*
X149891720Y-129195900D01*
X150004236Y-129181087D01*
X150144233Y-129123098D01*
X150174012Y-129100247D01*
X150239182Y-129075052D01*
X150307627Y-129089090D01*
X150357617Y-129137903D01*
X150373500Y-129198622D01*
X150373500Y-129821255D01*
X150353815Y-129888294D01*
X150301011Y-129934049D01*
X150265685Y-129944194D01*
X150223764Y-129949712D01*
X150083768Y-130007701D01*
X149963549Y-130099949D01*
X149871301Y-130220168D01*
X149813312Y-130360163D01*
X149813313Y-130360164D01*
X149798500Y-130472680D01*
X149798500Y-131198120D01*
X149799028Y-131202137D01*
X149799029Y-131202139D01*
X149813313Y-131310635D01*
X149869621Y-131446576D01*
X149871302Y-131450633D01*
X149963549Y-131570851D01*
X150083767Y-131663098D01*
X150223764Y-131721087D01*
X150336280Y-131735900D01*
X150340333Y-131735900D01*
X151157667Y-131735900D01*
X151161720Y-131735900D01*
X151274236Y-131721087D01*
X151414233Y-131663098D01*
X151534451Y-131570851D01*
X151626698Y-131450633D01*
X151684687Y-131310636D01*
X151695297Y-131230046D01*
X152089000Y-131230046D01*
X152089141Y-131234235D01*
X152091731Y-131272431D01*
X152135040Y-131446576D01*
X152214771Y-131607340D01*
X152327197Y-131747202D01*
X152467059Y-131859628D01*
X152627823Y-131939359D01*
X152801968Y-131982668D01*
X152840164Y-131985258D01*
X152844354Y-131985400D01*
X153039000Y-131985400D01*
X153039000Y-131151085D01*
X153050955Y-131163041D01*
X153163852Y-131220565D01*
X153257519Y-131235400D01*
X153320481Y-131235400D01*
X153414148Y-131220565D01*
X153527045Y-131163041D01*
X153539000Y-131151086D01*
X153539000Y-131985400D01*
X153733646Y-131985400D01*
X153737835Y-131985258D01*
X153776031Y-131982668D01*
X153950176Y-131939359D01*
X154110940Y-131859628D01*
X154250802Y-131747202D01*
X154363228Y-131607340D01*
X154442959Y-131446576D01*
X154486268Y-131272431D01*
X154488858Y-131234235D01*
X154489000Y-131230046D01*
X154489000Y-131085400D01*
X153604686Y-131085400D01*
X153616641Y-131073445D01*
X153674165Y-130960548D01*
X153693986Y-130835400D01*
X153674165Y-130710252D01*
X153616641Y-130597355D01*
X153604686Y-130585400D01*
X154489000Y-130585400D01*
X154489000Y-130440753D01*
X154488858Y-130436564D01*
X154486268Y-130398368D01*
X154442959Y-130224223D01*
X154363228Y-130063459D01*
X154250802Y-129923597D01*
X154110940Y-129811171D01*
X153950176Y-129731440D01*
X153776031Y-129688131D01*
X153737835Y-129685541D01*
X153733646Y-129685400D01*
X153539000Y-129685400D01*
X153539000Y-130519713D01*
X153527045Y-130507759D01*
X153414148Y-130450235D01*
X153320481Y-130435400D01*
X153257519Y-130435400D01*
X153163852Y-130450235D01*
X153050955Y-130507759D01*
X153039000Y-130519713D01*
X153039000Y-129685400D01*
X152844354Y-129685400D01*
X152840164Y-129685541D01*
X152801968Y-129688131D01*
X152627823Y-129731440D01*
X152467059Y-129811171D01*
X152327197Y-129923597D01*
X152214771Y-130063459D01*
X152135040Y-130224223D01*
X152091731Y-130398368D01*
X152089141Y-130436564D01*
X152089000Y-130440753D01*
X152089000Y-130585400D01*
X152973314Y-130585400D01*
X152961359Y-130597355D01*
X152903835Y-130710252D01*
X152884014Y-130835400D01*
X152903835Y-130960548D01*
X152961359Y-131073445D01*
X152973314Y-131085400D01*
X152089000Y-131085400D01*
X152089000Y-131230046D01*
X151695297Y-131230046D01*
X151699500Y-131198120D01*
X151699500Y-130472680D01*
X151684687Y-130360164D01*
X151626698Y-130220167D01*
X151534451Y-130099949D01*
X151414233Y-130007702D01*
X151407225Y-130004799D01*
X151274235Y-129949712D01*
X151232315Y-129944194D01*
X151168418Y-129915928D01*
X151129947Y-129857603D01*
X151124500Y-129821255D01*
X151124500Y-129198622D01*
X151144185Y-129131583D01*
X151196989Y-129085828D01*
X151266147Y-129075884D01*
X151323987Y-129100247D01*
X151353767Y-129123098D01*
X151493764Y-129181087D01*
X151606280Y-129195900D01*
X151610333Y-129195900D01*
X152427667Y-129195900D01*
X152431720Y-129195900D01*
X152544236Y-129181087D01*
X152684233Y-129123098D01*
X152804451Y-129030851D01*
X152896698Y-128910633D01*
X152954687Y-128770636D01*
X152969500Y-128658120D01*
X152969500Y-127932680D01*
X152954687Y-127820164D01*
X152896698Y-127680167D01*
X152804451Y-127559949D01*
X152684233Y-127467702D01*
X152544236Y-127409713D01*
X152485356Y-127401961D01*
X152435739Y-127395429D01*
X152435737Y-127395428D01*
X152431720Y-127394900D01*
X152427667Y-127394900D01*
X152132457Y-127394900D01*
X152065418Y-127375215D01*
X152044776Y-127358581D01*
X150588577Y-125902381D01*
X150555092Y-125841058D01*
X150560076Y-125771366D01*
X150601948Y-125715433D01*
X150667412Y-125691016D01*
X150676258Y-125690700D01*
X151157667Y-125690700D01*
X151161720Y-125690700D01*
X151274236Y-125675887D01*
X151414233Y-125617898D01*
X151534451Y-125525651D01*
X151626698Y-125405433D01*
X151684687Y-125265436D01*
X151699500Y-125152920D01*
X151699500Y-124427480D01*
X151684687Y-124314964D01*
X151626698Y-124174967D01*
X151534451Y-124054749D01*
X151414233Y-123962502D01*
X151274236Y-123904513D01*
X151186262Y-123892931D01*
X151165739Y-123890229D01*
X151165737Y-123890228D01*
X151161720Y-123889700D01*
X150562498Y-123889700D01*
X150495459Y-123870015D01*
X150449704Y-123817211D01*
X150439760Y-123748053D01*
X150468785Y-123684497D01*
X150474817Y-123678019D01*
X150612950Y-123539886D01*
X150977892Y-123174944D01*
X150997743Y-123158824D01*
X151006836Y-123152884D01*
X151026280Y-123127901D01*
X151036453Y-123116384D01*
X151036520Y-123116318D01*
X151048619Y-123099370D01*
X151051641Y-123095315D01*
X151083809Y-123053989D01*
X151083809Y-123053987D01*
X151096525Y-123037652D01*
X151100033Y-123040382D01*
X151117973Y-123015039D01*
X151182764Y-122988888D01*
X151251408Y-123001918D01*
X151270385Y-123013917D01*
X151322431Y-123053853D01*
X151353767Y-123077898D01*
X151493764Y-123135887D01*
X151606280Y-123150700D01*
X151610333Y-123150700D01*
X152427667Y-123150700D01*
X152431720Y-123150700D01*
X152524331Y-123138507D01*
X152593364Y-123149272D01*
X152645620Y-123195652D01*
X152662822Y-123241025D01*
X152662916Y-123241588D01*
X152663657Y-123246670D01*
X152671107Y-123306438D01*
X152671185Y-123306682D01*
X152699827Y-123359608D01*
X152702171Y-123364162D01*
X152728634Y-123418292D01*
X152728779Y-123418485D01*
X152766860Y-123453541D01*
X152802851Y-123513427D01*
X152800752Y-123583266D01*
X152761228Y-123640882D01*
X152712805Y-123665105D01*
X152627826Y-123686238D01*
X152467059Y-123765971D01*
X152327197Y-123878397D01*
X152214771Y-124018259D01*
X152135040Y-124179023D01*
X152091731Y-124353168D01*
X152089141Y-124391364D01*
X152089000Y-124395553D01*
X152089000Y-124540200D01*
X152973314Y-124540200D01*
X152961359Y-124552155D01*
X152903835Y-124665052D01*
X152884014Y-124790200D01*
X152903835Y-124915348D01*
X152961359Y-125028245D01*
X152973314Y-125040200D01*
X152089000Y-125040200D01*
X152089000Y-125184846D01*
X152089141Y-125189035D01*
X152091731Y-125227231D01*
X152135040Y-125401376D01*
X152214771Y-125562140D01*
X152327197Y-125702002D01*
X152467059Y-125814428D01*
X152627823Y-125894159D01*
X152801968Y-125937468D01*
X152840164Y-125940058D01*
X152844354Y-125940200D01*
X153039000Y-125940200D01*
X153039000Y-125105885D01*
X153050955Y-125117841D01*
X153163852Y-125175365D01*
X153257519Y-125190200D01*
X153320481Y-125190200D01*
X153414148Y-125175365D01*
X153527045Y-125117841D01*
X153539000Y-125105886D01*
X153539000Y-125940200D01*
X153733646Y-125940200D01*
X153737835Y-125940058D01*
X153786950Y-125936728D01*
X153787040Y-125938063D01*
X153845371Y-125940501D01*
X153902521Y-125980696D01*
X153928868Y-126045408D01*
X153929500Y-126057916D01*
X153929500Y-127379133D01*
X153909815Y-127446172D01*
X153880988Y-127477507D01*
X153831154Y-127515747D01*
X153773549Y-127559949D01*
X153681301Y-127680168D01*
X153664500Y-127720730D01*
X153623313Y-127820164D01*
X153608500Y-127932680D01*
X153608500Y-128658120D01*
X153623313Y-128770636D01*
X153681302Y-128910633D01*
X153773549Y-129030851D01*
X153893767Y-129123098D01*
X154033764Y-129181087D01*
X154146280Y-129195900D01*
X154150333Y-129195900D01*
X154967667Y-129195900D01*
X154971720Y-129195900D01*
X155084236Y-129181087D01*
X155224233Y-129123098D01*
X155254012Y-129100247D01*
X155319182Y-129075052D01*
X155387627Y-129089090D01*
X155437617Y-129137903D01*
X155453500Y-129198622D01*
X155453500Y-129821255D01*
X155433815Y-129888294D01*
X155381011Y-129934049D01*
X155345685Y-129944194D01*
X155303764Y-129949712D01*
X155163768Y-130007701D01*
X155043549Y-130099949D01*
X154951301Y-130220168D01*
X154893312Y-130360163D01*
X154893313Y-130360164D01*
X154878500Y-130472680D01*
X154878500Y-131198120D01*
X154879028Y-131202137D01*
X154879029Y-131202139D01*
X154893313Y-131310635D01*
X154949621Y-131446576D01*
X154951302Y-131450633D01*
X155043549Y-131570851D01*
X155163767Y-131663098D01*
X155303764Y-131721087D01*
X155416280Y-131735900D01*
X155420333Y-131735900D01*
X156237667Y-131735900D01*
X156241720Y-131735900D01*
X156354236Y-131721087D01*
X156494233Y-131663098D01*
X156614451Y-131570851D01*
X156706698Y-131450633D01*
X156764687Y-131310636D01*
X156779500Y-131198120D01*
X157418500Y-131198120D01*
X157419028Y-131202137D01*
X157419029Y-131202139D01*
X157433313Y-131310635D01*
X157489621Y-131446576D01*
X157491302Y-131450633D01*
X157583549Y-131570851D01*
X157703767Y-131663098D01*
X157843764Y-131721087D01*
X157956280Y-131735900D01*
X157960333Y-131735900D01*
X158777667Y-131735900D01*
X158781720Y-131735900D01*
X158894236Y-131721087D01*
X159034233Y-131663098D01*
X159154451Y-131570851D01*
X159246698Y-131450633D01*
X159304687Y-131310636D01*
X159319500Y-131198120D01*
X159958500Y-131198120D01*
X159959028Y-131202137D01*
X159959029Y-131202139D01*
X159973313Y-131310635D01*
X160029621Y-131446576D01*
X160031302Y-131450633D01*
X160123549Y-131570851D01*
X160243767Y-131663098D01*
X160383764Y-131721087D01*
X160496280Y-131735900D01*
X160500333Y-131735900D01*
X161317667Y-131735900D01*
X161321720Y-131735900D01*
X161434236Y-131721087D01*
X161574233Y-131663098D01*
X161694451Y-131570851D01*
X161786698Y-131450633D01*
X161844687Y-131310636D01*
X161859500Y-131198120D01*
X162498500Y-131198120D01*
X162499028Y-131202137D01*
X162499029Y-131202139D01*
X162513313Y-131310635D01*
X162569621Y-131446576D01*
X162571302Y-131450633D01*
X162663549Y-131570851D01*
X162783767Y-131663098D01*
X162923764Y-131721087D01*
X163036280Y-131735900D01*
X163040333Y-131735900D01*
X163857667Y-131735900D01*
X163861720Y-131735900D01*
X163974236Y-131721087D01*
X164114233Y-131663098D01*
X164234451Y-131570851D01*
X164326698Y-131450633D01*
X164384687Y-131310636D01*
X164399500Y-131198120D01*
X165038500Y-131198120D01*
X165039028Y-131202137D01*
X165039029Y-131202139D01*
X165053313Y-131310635D01*
X165109621Y-131446576D01*
X165111302Y-131450633D01*
X165203549Y-131570851D01*
X165323767Y-131663098D01*
X165463764Y-131721087D01*
X165576280Y-131735900D01*
X165580333Y-131735900D01*
X166397667Y-131735900D01*
X166401720Y-131735900D01*
X166514236Y-131721087D01*
X166654233Y-131663098D01*
X166774451Y-131570851D01*
X166866698Y-131450633D01*
X166924687Y-131310636D01*
X166939500Y-131198120D01*
X167578500Y-131198120D01*
X167579028Y-131202137D01*
X167579029Y-131202139D01*
X167593313Y-131310635D01*
X167649621Y-131446576D01*
X167651302Y-131450633D01*
X167743549Y-131570851D01*
X167863767Y-131663098D01*
X168003764Y-131721087D01*
X168116280Y-131735900D01*
X168120333Y-131735900D01*
X168937667Y-131735900D01*
X168941720Y-131735900D01*
X169054236Y-131721087D01*
X169194233Y-131663098D01*
X169314451Y-131570851D01*
X169406698Y-131450633D01*
X169464687Y-131310636D01*
X169479500Y-131198120D01*
X170118500Y-131198120D01*
X170119028Y-131202137D01*
X170119029Y-131202139D01*
X170133313Y-131310635D01*
X170189621Y-131446576D01*
X170191302Y-131450633D01*
X170283549Y-131570851D01*
X170403767Y-131663098D01*
X170543764Y-131721087D01*
X170656280Y-131735900D01*
X170660333Y-131735900D01*
X171477667Y-131735900D01*
X171481720Y-131735900D01*
X171594236Y-131721087D01*
X171734233Y-131663098D01*
X171854451Y-131570851D01*
X171946698Y-131450633D01*
X172004687Y-131310636D01*
X172019500Y-131198120D01*
X172019500Y-130472680D01*
X172004687Y-130360164D01*
X171946698Y-130220167D01*
X171854451Y-130099949D01*
X171734233Y-130007702D01*
X171594236Y-129949713D01*
X171535356Y-129941961D01*
X171485739Y-129935429D01*
X171485737Y-129935428D01*
X171481720Y-129934900D01*
X170656280Y-129934900D01*
X170652263Y-129935428D01*
X170652260Y-129935429D01*
X170543764Y-129949713D01*
X170403768Y-130007701D01*
X170283549Y-130099949D01*
X170191301Y-130220168D01*
X170133312Y-130360163D01*
X170133313Y-130360164D01*
X170118500Y-130472680D01*
X170118500Y-131198120D01*
X169479500Y-131198120D01*
X169479500Y-130472680D01*
X169464687Y-130360164D01*
X169406698Y-130220167D01*
X169314451Y-130099949D01*
X169194233Y-130007702D01*
X169054236Y-129949713D01*
X168995356Y-129941961D01*
X168945739Y-129935429D01*
X168945737Y-129935428D01*
X168941720Y-129934900D01*
X168116280Y-129934900D01*
X168112263Y-129935428D01*
X168112260Y-129935429D01*
X168003764Y-129949713D01*
X167863768Y-130007701D01*
X167743549Y-130099949D01*
X167651301Y-130220168D01*
X167593313Y-130360163D01*
X167593313Y-130360164D01*
X167578500Y-130472680D01*
X167578500Y-131198120D01*
X166939500Y-131198120D01*
X166939500Y-130472680D01*
X166924687Y-130360164D01*
X166866698Y-130220167D01*
X166774451Y-130099949D01*
X166654233Y-130007702D01*
X166514236Y-129949713D01*
X166455356Y-129941961D01*
X166405739Y-129935429D01*
X166405737Y-129935428D01*
X166401720Y-129934900D01*
X165576280Y-129934900D01*
X165572263Y-129935428D01*
X165572260Y-129935429D01*
X165463764Y-129949713D01*
X165323768Y-130007701D01*
X165203549Y-130099949D01*
X165111301Y-130220168D01*
X165053312Y-130360163D01*
X165053313Y-130360164D01*
X165038500Y-130472680D01*
X165038500Y-131198120D01*
X164399500Y-131198120D01*
X164399500Y-130472680D01*
X164384687Y-130360164D01*
X164326698Y-130220167D01*
X164234451Y-130099949D01*
X164114233Y-130007702D01*
X163974236Y-129949713D01*
X163915356Y-129941961D01*
X163865739Y-129935429D01*
X163865737Y-129935428D01*
X163861720Y-129934900D01*
X163036280Y-129934900D01*
X163032263Y-129935428D01*
X163032260Y-129935429D01*
X162923764Y-129949713D01*
X162783768Y-130007701D01*
X162663549Y-130099949D01*
X162571301Y-130220168D01*
X162513313Y-130360164D01*
X162498500Y-130472680D01*
X162498500Y-131198120D01*
X161859500Y-131198120D01*
X161859500Y-130472680D01*
X161844687Y-130360164D01*
X161786698Y-130220167D01*
X161694451Y-130099949D01*
X161574233Y-130007702D01*
X161434236Y-129949713D01*
X161375356Y-129941961D01*
X161325739Y-129935429D01*
X161325737Y-129935428D01*
X161321720Y-129934900D01*
X160496280Y-129934900D01*
X160492263Y-129935428D01*
X160492260Y-129935429D01*
X160383764Y-129949713D01*
X160243768Y-130007701D01*
X160123549Y-130099949D01*
X160031301Y-130220168D01*
X159973312Y-130360163D01*
X159973313Y-130360164D01*
X159958500Y-130472680D01*
X159958500Y-131198120D01*
X159319500Y-131198120D01*
X159319500Y-130472680D01*
X159304687Y-130360164D01*
X159246698Y-130220167D01*
X159154451Y-130099949D01*
X159034233Y-130007702D01*
X158894236Y-129949713D01*
X158835356Y-129941961D01*
X158785739Y-129935429D01*
X158785737Y-129935428D01*
X158781720Y-129934900D01*
X157956280Y-129934900D01*
X157952263Y-129935428D01*
X157952260Y-129935429D01*
X157843764Y-129949713D01*
X157703768Y-130007701D01*
X157583549Y-130099949D01*
X157491301Y-130220168D01*
X157433313Y-130360163D01*
X157433313Y-130360164D01*
X157418500Y-130472680D01*
X157418500Y-131198120D01*
X156779500Y-131198120D01*
X156779500Y-130472680D01*
X156764687Y-130360164D01*
X156706698Y-130220167D01*
X156614451Y-130099949D01*
X156494233Y-130007702D01*
X156487225Y-130004799D01*
X156354235Y-129949712D01*
X156312315Y-129944194D01*
X156248418Y-129915928D01*
X156209947Y-129857603D01*
X156204500Y-129821255D01*
X156204500Y-129198622D01*
X156224185Y-129131583D01*
X156276989Y-129085828D01*
X156346147Y-129075884D01*
X156403987Y-129100247D01*
X156433767Y-129123098D01*
X156573764Y-129181087D01*
X156686280Y-129195900D01*
X156690333Y-129195900D01*
X157507667Y-129195900D01*
X157511720Y-129195900D01*
X157624236Y-129181087D01*
X157764233Y-129123098D01*
X157884451Y-129030851D01*
X157976698Y-128910633D01*
X158034687Y-128770636D01*
X158049500Y-128658120D01*
X158688500Y-128658120D01*
X158703313Y-128770636D01*
X158761302Y-128910633D01*
X158853549Y-129030851D01*
X158973767Y-129123098D01*
X159113764Y-129181087D01*
X159226280Y-129195900D01*
X159230333Y-129195900D01*
X160047667Y-129195900D01*
X160051720Y-129195900D01*
X160164236Y-129181087D01*
X160304233Y-129123098D01*
X160424451Y-129030851D01*
X160516698Y-128910633D01*
X160574687Y-128770636D01*
X160589500Y-128658120D01*
X161228500Y-128658120D01*
X161243313Y-128770636D01*
X161301302Y-128910633D01*
X161393549Y-129030851D01*
X161513767Y-129123098D01*
X161653764Y-129181087D01*
X161766280Y-129195900D01*
X161770333Y-129195900D01*
X162587667Y-129195900D01*
X162591720Y-129195900D01*
X162704236Y-129181087D01*
X162844233Y-129123098D01*
X162964451Y-129030851D01*
X163056698Y-128910633D01*
X163114687Y-128770636D01*
X163129500Y-128658120D01*
X163768500Y-128658120D01*
X163783313Y-128770636D01*
X163841302Y-128910633D01*
X163933549Y-129030851D01*
X164053767Y-129123098D01*
X164193764Y-129181087D01*
X164306280Y-129195900D01*
X164310333Y-129195900D01*
X165127667Y-129195900D01*
X165131720Y-129195900D01*
X165244236Y-129181087D01*
X165384233Y-129123098D01*
X165504451Y-129030851D01*
X165596698Y-128910633D01*
X165654687Y-128770636D01*
X165669500Y-128658120D01*
X166308500Y-128658120D01*
X166323313Y-128770636D01*
X166381302Y-128910633D01*
X166473549Y-129030851D01*
X166593767Y-129123098D01*
X166733764Y-129181087D01*
X166846280Y-129195900D01*
X166850333Y-129195900D01*
X167667667Y-129195900D01*
X167671720Y-129195900D01*
X167784236Y-129181087D01*
X167924233Y-129123098D01*
X168044451Y-129030851D01*
X168136698Y-128910633D01*
X168194687Y-128770636D01*
X168209500Y-128658120D01*
X168848500Y-128658120D01*
X168863313Y-128770636D01*
X168921302Y-128910633D01*
X169013549Y-129030851D01*
X169133767Y-129123098D01*
X169273764Y-129181087D01*
X169386280Y-129195900D01*
X169390333Y-129195900D01*
X170207667Y-129195900D01*
X170211720Y-129195900D01*
X170324236Y-129181087D01*
X170464233Y-129123098D01*
X170584451Y-129030851D01*
X170676698Y-128910633D01*
X170734687Y-128770636D01*
X170749500Y-128658120D01*
X171388500Y-128658120D01*
X171403313Y-128770636D01*
X171461302Y-128910633D01*
X171553549Y-129030851D01*
X171673767Y-129123098D01*
X171813764Y-129181087D01*
X171926280Y-129195900D01*
X171930333Y-129195900D01*
X172747667Y-129195900D01*
X172751720Y-129195900D01*
X172864236Y-129181087D01*
X173004233Y-129123098D01*
X173124451Y-129030851D01*
X173216698Y-128910633D01*
X173274687Y-128770636D01*
X173289500Y-128658120D01*
X173289500Y-127932680D01*
X173274687Y-127820164D01*
X173216698Y-127680167D01*
X173124451Y-127559949D01*
X173004233Y-127467702D01*
X172864236Y-127409713D01*
X172805356Y-127401961D01*
X172755739Y-127395429D01*
X172755737Y-127395428D01*
X172751720Y-127394900D01*
X171926280Y-127394900D01*
X171922263Y-127395428D01*
X171922260Y-127395429D01*
X171813764Y-127409713D01*
X171673768Y-127467701D01*
X171553549Y-127559949D01*
X171461301Y-127680168D01*
X171444500Y-127720730D01*
X171403313Y-127820164D01*
X171388500Y-127932680D01*
X171388500Y-128658120D01*
X170749500Y-128658120D01*
X170749500Y-127932680D01*
X170734687Y-127820164D01*
X170676698Y-127680167D01*
X170584451Y-127559949D01*
X170464233Y-127467702D01*
X170324236Y-127409713D01*
X170265356Y-127401961D01*
X170215739Y-127395429D01*
X170215737Y-127395428D01*
X170211720Y-127394900D01*
X169386280Y-127394900D01*
X169382263Y-127395428D01*
X169382260Y-127395429D01*
X169273764Y-127409713D01*
X169133768Y-127467701D01*
X169013549Y-127559949D01*
X168921301Y-127680168D01*
X168904500Y-127720730D01*
X168863313Y-127820164D01*
X168848500Y-127932680D01*
X168848500Y-128658120D01*
X168209500Y-128658120D01*
X168209500Y-127932680D01*
X168194687Y-127820164D01*
X168136698Y-127680167D01*
X168044451Y-127559949D01*
X167924233Y-127467702D01*
X167784236Y-127409713D01*
X167725356Y-127401961D01*
X167675739Y-127395429D01*
X167675737Y-127395428D01*
X167671720Y-127394900D01*
X166846280Y-127394900D01*
X166842263Y-127395428D01*
X166842260Y-127395429D01*
X166733764Y-127409713D01*
X166593768Y-127467701D01*
X166473549Y-127559949D01*
X166381301Y-127680168D01*
X166364500Y-127720730D01*
X166323313Y-127820164D01*
X166308500Y-127932680D01*
X166308500Y-128658120D01*
X165669500Y-128658120D01*
X165669500Y-127932680D01*
X165654687Y-127820164D01*
X165596698Y-127680167D01*
X165504451Y-127559949D01*
X165384233Y-127467702D01*
X165244236Y-127409713D01*
X165185356Y-127401961D01*
X165135739Y-127395429D01*
X165135737Y-127395428D01*
X165131720Y-127394900D01*
X164306280Y-127394900D01*
X164302263Y-127395428D01*
X164302260Y-127395429D01*
X164193764Y-127409713D01*
X164053768Y-127467701D01*
X163933549Y-127559949D01*
X163841301Y-127680168D01*
X163824500Y-127720730D01*
X163783313Y-127820164D01*
X163768500Y-127932680D01*
X163768500Y-128658120D01*
X163129500Y-128658120D01*
X163129500Y-127932680D01*
X163114687Y-127820164D01*
X163056698Y-127680167D01*
X162964451Y-127559949D01*
X162844233Y-127467702D01*
X162704236Y-127409713D01*
X162645356Y-127401961D01*
X162595739Y-127395429D01*
X162595737Y-127395428D01*
X162591720Y-127394900D01*
X161766280Y-127394900D01*
X161762263Y-127395428D01*
X161762260Y-127395429D01*
X161653764Y-127409713D01*
X161513768Y-127467701D01*
X161393549Y-127559949D01*
X161301301Y-127680168D01*
X161284500Y-127720730D01*
X161243313Y-127820164D01*
X161228500Y-127932680D01*
X161228500Y-128658120D01*
X160589500Y-128658120D01*
X160589500Y-127932680D01*
X160574687Y-127820164D01*
X160516698Y-127680167D01*
X160424451Y-127559949D01*
X160304233Y-127467702D01*
X160164236Y-127409713D01*
X160105356Y-127401961D01*
X160055739Y-127395429D01*
X160055737Y-127395428D01*
X160051720Y-127394900D01*
X159226280Y-127394900D01*
X159222263Y-127395428D01*
X159222260Y-127395429D01*
X159113764Y-127409713D01*
X158973768Y-127467701D01*
X158853549Y-127559949D01*
X158761301Y-127680168D01*
X158744500Y-127720730D01*
X158703313Y-127820164D01*
X158688500Y-127932680D01*
X158688500Y-128658120D01*
X158049500Y-128658120D01*
X158049500Y-127932680D01*
X158034687Y-127820164D01*
X157976698Y-127680167D01*
X157884451Y-127559949D01*
X157764233Y-127467702D01*
X157624236Y-127409713D01*
X157565356Y-127401961D01*
X157515739Y-127395429D01*
X157515737Y-127395428D01*
X157511720Y-127394900D01*
X156686280Y-127394900D01*
X156682263Y-127395428D01*
X156682260Y-127395429D01*
X156573764Y-127409713D01*
X156433766Y-127467702D01*
X156403986Y-127490553D01*
X156338816Y-127515747D01*
X156270372Y-127501708D01*
X156220382Y-127452894D01*
X156204500Y-127392177D01*
X156204500Y-127305804D01*
X156207139Y-127280357D01*
X156209367Y-127269732D01*
X156205452Y-127238323D01*
X156204500Y-127222986D01*
X156204500Y-127222887D01*
X156204500Y-127222886D01*
X156201075Y-127202369D01*
X156200341Y-127197325D01*
X156192891Y-127137550D01*
X156192821Y-127137332D01*
X156189065Y-127130392D01*
X156189065Y-127130390D01*
X156164148Y-127084348D01*
X156161828Y-127079840D01*
X156138826Y-127032789D01*
X156138825Y-127032788D01*
X156135360Y-127025700D01*
X156135225Y-127025519D01*
X156110713Y-127002954D01*
X156090892Y-126984707D01*
X156087219Y-126981182D01*
X155224819Y-126118781D01*
X155191334Y-126057458D01*
X155188500Y-126031100D01*
X155188500Y-125802106D01*
X155208185Y-125735067D01*
X155260989Y-125689312D01*
X155328682Y-125679167D01*
X155416280Y-125690700D01*
X155420333Y-125690700D01*
X156237667Y-125690700D01*
X156241720Y-125690700D01*
X156354236Y-125675887D01*
X156494233Y-125617898D01*
X156614451Y-125525651D01*
X156706698Y-125405433D01*
X156764687Y-125265436D01*
X156779500Y-125152920D01*
X157418500Y-125152920D01*
X157419028Y-125156937D01*
X157419029Y-125156939D01*
X157433313Y-125265435D01*
X157489621Y-125401376D01*
X157491302Y-125405433D01*
X157583549Y-125525651D01*
X157703767Y-125617898D01*
X157843764Y-125675887D01*
X157956280Y-125690700D01*
X157960333Y-125690700D01*
X158777667Y-125690700D01*
X158781720Y-125690700D01*
X158894236Y-125675887D01*
X159034233Y-125617898D01*
X159154451Y-125525651D01*
X159246698Y-125405433D01*
X159304687Y-125265436D01*
X159319500Y-125152920D01*
X159958500Y-125152920D01*
X159959028Y-125156937D01*
X159959029Y-125156939D01*
X159973313Y-125265435D01*
X160029621Y-125401376D01*
X160031302Y-125405433D01*
X160123549Y-125525651D01*
X160243767Y-125617898D01*
X160383764Y-125675887D01*
X160496280Y-125690700D01*
X160500333Y-125690700D01*
X161317667Y-125690700D01*
X161321720Y-125690700D01*
X161434236Y-125675887D01*
X161574233Y-125617898D01*
X161694451Y-125525651D01*
X161786698Y-125405433D01*
X161844687Y-125265436D01*
X161859500Y-125152920D01*
X162498500Y-125152920D01*
X162499028Y-125156937D01*
X162499029Y-125156939D01*
X162513313Y-125265435D01*
X162569621Y-125401376D01*
X162571302Y-125405433D01*
X162663549Y-125525651D01*
X162783767Y-125617898D01*
X162923764Y-125675887D01*
X163036280Y-125690700D01*
X163040333Y-125690700D01*
X163857667Y-125690700D01*
X163861720Y-125690700D01*
X163974236Y-125675887D01*
X164114233Y-125617898D01*
X164234451Y-125525651D01*
X164326698Y-125405433D01*
X164384687Y-125265436D01*
X164399500Y-125152920D01*
X164399500Y-124427480D01*
X164384687Y-124314964D01*
X164326698Y-124174967D01*
X164234451Y-124054749D01*
X164114233Y-123962502D01*
X163974236Y-123904513D01*
X163886262Y-123892931D01*
X163865739Y-123890229D01*
X163865737Y-123890228D01*
X163861720Y-123889700D01*
X163036280Y-123889700D01*
X163032263Y-123890228D01*
X163032260Y-123890229D01*
X162923764Y-123904513D01*
X162783768Y-123962501D01*
X162663549Y-124054749D01*
X162571301Y-124174968D01*
X162550930Y-124224148D01*
X162513313Y-124314964D01*
X162498500Y-124427480D01*
X162498500Y-125152920D01*
X161859500Y-125152920D01*
X161859500Y-124427480D01*
X161844687Y-124314964D01*
X161786698Y-124174967D01*
X161694451Y-124054749D01*
X161574233Y-123962502D01*
X161434236Y-123904513D01*
X161346262Y-123892931D01*
X161325739Y-123890229D01*
X161325737Y-123890228D01*
X161321720Y-123889700D01*
X160496280Y-123889700D01*
X160492263Y-123890228D01*
X160492260Y-123890229D01*
X160383764Y-123904513D01*
X160243768Y-123962501D01*
X160123549Y-124054749D01*
X160031301Y-124174968D01*
X160010930Y-124224148D01*
X159973313Y-124314964D01*
X159958500Y-124427480D01*
X159958500Y-125152920D01*
X159319500Y-125152920D01*
X159319500Y-124427480D01*
X159304687Y-124314964D01*
X159246698Y-124174967D01*
X159154451Y-124054749D01*
X159034233Y-123962502D01*
X158894236Y-123904513D01*
X158806262Y-123892931D01*
X158785739Y-123890229D01*
X158785737Y-123890228D01*
X158781720Y-123889700D01*
X157956280Y-123889700D01*
X157952263Y-123890228D01*
X157952260Y-123890229D01*
X157843764Y-123904513D01*
X157703768Y-123962501D01*
X157583549Y-124054749D01*
X157491301Y-124174968D01*
X157470930Y-124224148D01*
X157433313Y-124314964D01*
X157418500Y-124427480D01*
X157418500Y-125152920D01*
X156779500Y-125152920D01*
X156779500Y-124427480D01*
X156764687Y-124314964D01*
X156706698Y-124174967D01*
X156614451Y-124054749D01*
X156494233Y-123962502D01*
X156469500Y-123952257D01*
X156354235Y-123904512D01*
X156312315Y-123898994D01*
X156248418Y-123870728D01*
X156209947Y-123812403D01*
X156204500Y-123776055D01*
X156204500Y-123153422D01*
X156224185Y-123086383D01*
X156276989Y-123040628D01*
X156346147Y-123030684D01*
X156403987Y-123055047D01*
X156433767Y-123077898D01*
X156573764Y-123135887D01*
X156686280Y-123150700D01*
X156690333Y-123150700D01*
X157507667Y-123150700D01*
X157511720Y-123150700D01*
X157624236Y-123135887D01*
X157764233Y-123077898D01*
X157884451Y-122985651D01*
X157976698Y-122865433D01*
X158034687Y-122725436D01*
X158049500Y-122612920D01*
X158688500Y-122612920D01*
X158703313Y-122725436D01*
X158761302Y-122865433D01*
X158853549Y-122985651D01*
X158973767Y-123077898D01*
X159113764Y-123135887D01*
X159226280Y-123150700D01*
X159230333Y-123150700D01*
X160047667Y-123150700D01*
X160051720Y-123150700D01*
X160164236Y-123135887D01*
X160304233Y-123077898D01*
X160424451Y-122985651D01*
X160516698Y-122865433D01*
X160574687Y-122725436D01*
X160589500Y-122612920D01*
X161228500Y-122612920D01*
X161243313Y-122725436D01*
X161301302Y-122865433D01*
X161393549Y-122985651D01*
X161513767Y-123077898D01*
X161653764Y-123135887D01*
X161766280Y-123150700D01*
X161770333Y-123150700D01*
X162587667Y-123150700D01*
X162591720Y-123150700D01*
X162704236Y-123135887D01*
X162844233Y-123077898D01*
X162964451Y-122985651D01*
X163056698Y-122865433D01*
X163114687Y-122725436D01*
X163129500Y-122612920D01*
X163768500Y-122612920D01*
X163783313Y-122725436D01*
X163841302Y-122865433D01*
X163933549Y-122985651D01*
X164053767Y-123077898D01*
X164193764Y-123135887D01*
X164306280Y-123150700D01*
X164310333Y-123150700D01*
X165127667Y-123150700D01*
X165131720Y-123150700D01*
X165244236Y-123135887D01*
X165384233Y-123077898D01*
X165504451Y-122985651D01*
X165512688Y-122974916D01*
X165569114Y-122933714D01*
X165638860Y-122929558D01*
X165699781Y-122963769D01*
X165732535Y-123025485D01*
X165734112Y-123035064D01*
X165739548Y-123078675D01*
X165740500Y-123094013D01*
X165740500Y-123094116D01*
X165743918Y-123114602D01*
X165744657Y-123119670D01*
X165752107Y-123179438D01*
X165752185Y-123179682D01*
X165780827Y-123232608D01*
X165783171Y-123237162D01*
X165809634Y-123291292D01*
X165809777Y-123291482D01*
X165815579Y-123296824D01*
X165815581Y-123296826D01*
X165854108Y-123332293D01*
X165857780Y-123335817D01*
X166199982Y-123678019D01*
X166233467Y-123739342D01*
X166228483Y-123809034D01*
X166186611Y-123864967D01*
X166121147Y-123889384D01*
X166112301Y-123889700D01*
X165576280Y-123889700D01*
X165572263Y-123890228D01*
X165572260Y-123890229D01*
X165463764Y-123904513D01*
X165323768Y-123962501D01*
X165203549Y-124054749D01*
X165111301Y-124174968D01*
X165090930Y-124224148D01*
X165053313Y-124314964D01*
X165038500Y-124427480D01*
X165038500Y-125152920D01*
X165039028Y-125156937D01*
X165039029Y-125156939D01*
X165053313Y-125265435D01*
X165109621Y-125401376D01*
X165111302Y-125405433D01*
X165203549Y-125525651D01*
X165323767Y-125617898D01*
X165463764Y-125675887D01*
X165576280Y-125690700D01*
X165580333Y-125690700D01*
X166397667Y-125690700D01*
X166401720Y-125690700D01*
X166514236Y-125675887D01*
X166654233Y-125617898D01*
X166774451Y-125525651D01*
X166866698Y-125405433D01*
X166924687Y-125265436D01*
X166939500Y-125152920D01*
X166939500Y-124427480D01*
X166924687Y-124314964D01*
X166866698Y-124174967D01*
X166844461Y-124145987D01*
X166819266Y-124080818D01*
X166833304Y-124012373D01*
X166882118Y-123962383D01*
X166942836Y-123946500D01*
X167575164Y-123946500D01*
X167642203Y-123966185D01*
X167687958Y-124018989D01*
X167697902Y-124088147D01*
X167673539Y-124145987D01*
X167651302Y-124174966D01*
X167639786Y-124202769D01*
X167593313Y-124314964D01*
X167578500Y-124427480D01*
X167578500Y-125152920D01*
X167579028Y-125156937D01*
X167579029Y-125156939D01*
X167593313Y-125265435D01*
X167649621Y-125401376D01*
X167651302Y-125405433D01*
X167743549Y-125525651D01*
X167863767Y-125617898D01*
X168003764Y-125675887D01*
X168116280Y-125690700D01*
X168120333Y-125690700D01*
X168937667Y-125690700D01*
X168941720Y-125690700D01*
X169054236Y-125675887D01*
X169194233Y-125617898D01*
X169314451Y-125525651D01*
X169406698Y-125405433D01*
X169464687Y-125265436D01*
X169479500Y-125152920D01*
X169479500Y-124427480D01*
X169464687Y-124314964D01*
X169406698Y-124174967D01*
X169314451Y-124054749D01*
X169194233Y-123962502D01*
X169169500Y-123952257D01*
X169054235Y-123904512D01*
X168983497Y-123895200D01*
X168919600Y-123866934D01*
X168890626Y-123831276D01*
X168889065Y-123828392D01*
X168889065Y-123828390D01*
X168864159Y-123782367D01*
X168861814Y-123777812D01*
X168860955Y-123776055D01*
X168838826Y-123730788D01*
X168838825Y-123730787D01*
X168835361Y-123723701D01*
X168835225Y-123723519D01*
X168829419Y-123718174D01*
X168790904Y-123682718D01*
X168787231Y-123679193D01*
X168450149Y-123342111D01*
X168434022Y-123322253D01*
X168428083Y-123313162D01*
X168403110Y-123293725D01*
X168391593Y-123283554D01*
X168391519Y-123283480D01*
X168374594Y-123271397D01*
X168370480Y-123268330D01*
X168361858Y-123261619D01*
X168329189Y-123236191D01*
X168329186Y-123236190D01*
X168322963Y-123231346D01*
X168322761Y-123231242D01*
X168315200Y-123228990D01*
X168315199Y-123228990D01*
X168265036Y-123214055D01*
X168260174Y-123212497D01*
X168248780Y-123208586D01*
X168203202Y-123192939D01*
X168202969Y-123192906D01*
X168157910Y-123194769D01*
X168142806Y-123195394D01*
X168137684Y-123195500D01*
X168134876Y-123195500D01*
X168067837Y-123175815D01*
X168022082Y-123123011D01*
X168012138Y-123053853D01*
X168036500Y-122996014D01*
X168131096Y-122872733D01*
X168136698Y-122865433D01*
X168194687Y-122725436D01*
X168209500Y-122612920D01*
X168848500Y-122612920D01*
X168863313Y-122725436D01*
X168921302Y-122865433D01*
X169013549Y-122985651D01*
X169133767Y-123077898D01*
X169273764Y-123135887D01*
X169386280Y-123150700D01*
X169390333Y-123150700D01*
X170207667Y-123150700D01*
X170211720Y-123150700D01*
X170324236Y-123135887D01*
X170464233Y-123077898D01*
X170494012Y-123055047D01*
X170559182Y-123029852D01*
X170627627Y-123043890D01*
X170677617Y-123092703D01*
X170693500Y-123153422D01*
X170693500Y-123776055D01*
X170673815Y-123843094D01*
X170621011Y-123888849D01*
X170585685Y-123898994D01*
X170543764Y-123904512D01*
X170403768Y-123962501D01*
X170283549Y-124054749D01*
X170191301Y-124174968D01*
X170170930Y-124224148D01*
X170133313Y-124314964D01*
X170118500Y-124427480D01*
X170118500Y-125152920D01*
X170119028Y-125156937D01*
X170119029Y-125156939D01*
X170133313Y-125265435D01*
X170189621Y-125401376D01*
X170191302Y-125405433D01*
X170283549Y-125525651D01*
X170403767Y-125617898D01*
X170543764Y-125675887D01*
X170656280Y-125690700D01*
X170660333Y-125690700D01*
X171477667Y-125690700D01*
X171481720Y-125690700D01*
X171594236Y-125675887D01*
X171734233Y-125617898D01*
X171854451Y-125525651D01*
X171946698Y-125405433D01*
X172004687Y-125265436D01*
X172019500Y-125152920D01*
X172019500Y-124427480D01*
X172004687Y-124314964D01*
X171946698Y-124174967D01*
X171888406Y-124099000D01*
X173447033Y-124099000D01*
X173466858Y-124325602D01*
X173525733Y-124545326D01*
X173621866Y-124751484D01*
X173672972Y-124824471D01*
X173672974Y-124824472D01*
X174354046Y-124143399D01*
X174366835Y-124224148D01*
X174424359Y-124337045D01*
X174513955Y-124426641D01*
X174626852Y-124484165D01*
X174707599Y-124496953D01*
X174026526Y-125178025D01*
X174026526Y-125178026D01*
X174099515Y-125229133D01*
X174305674Y-125325266D01*
X174431240Y-125358912D01*
X174490901Y-125395277D01*
X174521430Y-125458124D01*
X174513135Y-125527500D01*
X174468650Y-125581377D01*
X174435143Y-125597347D01*
X174348046Y-125623767D01*
X174165551Y-125721314D01*
X174005589Y-125852589D01*
X173874314Y-126012551D01*
X173776769Y-126195043D01*
X173716699Y-126393067D01*
X173696417Y-126599000D01*
X173716699Y-126804932D01*
X173746734Y-126903944D01*
X173776768Y-127002954D01*
X173874315Y-127185450D01*
X173924185Y-127246217D01*
X174005589Y-127345410D01*
X174083729Y-127409537D01*
X174165550Y-127476685D01*
X174348046Y-127574232D01*
X174546066Y-127634300D01*
X174752000Y-127654583D01*
X174957934Y-127634300D01*
X175155954Y-127574232D01*
X175338450Y-127476685D01*
X175498410Y-127345410D01*
X175629685Y-127185450D01*
X175727232Y-127002954D01*
X175787300Y-126804934D01*
X175807583Y-126599000D01*
X175787300Y-126393066D01*
X175727232Y-126195046D01*
X175629685Y-126012550D01*
X175517472Y-125875817D01*
X175498410Y-125852589D01*
X175399438Y-125771366D01*
X175338450Y-125721315D01*
X175155954Y-125623768D01*
X175068854Y-125597346D01*
X175010418Y-125559050D01*
X174981962Y-125495238D01*
X174992522Y-125426171D01*
X175038746Y-125373777D01*
X175072759Y-125358912D01*
X175198325Y-125325266D01*
X175404480Y-125229134D01*
X175477472Y-125178025D01*
X174796401Y-124496953D01*
X174877148Y-124484165D01*
X174990045Y-124426641D01*
X175079641Y-124337045D01*
X175137165Y-124224148D01*
X175149953Y-124143400D01*
X175831025Y-124824472D01*
X175882134Y-124751480D01*
X175978266Y-124545326D01*
X176037141Y-124325602D01*
X176056966Y-124099000D01*
X176037141Y-123872397D01*
X175978266Y-123652673D01*
X175882133Y-123446515D01*
X175831025Y-123373526D01*
X175149953Y-124054598D01*
X175137165Y-123973852D01*
X175079641Y-123860955D01*
X174990045Y-123771359D01*
X174877148Y-123713835D01*
X174796400Y-123701046D01*
X175477472Y-123019974D01*
X175477471Y-123019972D01*
X175404484Y-122968866D01*
X175198326Y-122872733D01*
X174978602Y-122813858D01*
X174752000Y-122794033D01*
X174525397Y-122813858D01*
X174305672Y-122872733D01*
X174099516Y-122968865D01*
X174026527Y-123019973D01*
X174026526Y-123019973D01*
X174707600Y-123701046D01*
X174626852Y-123713835D01*
X174513955Y-123771359D01*
X174424359Y-123860955D01*
X174366835Y-123973852D01*
X174354046Y-124054599D01*
X173672973Y-123373526D01*
X173672973Y-123373527D01*
X173621865Y-123446516D01*
X173525733Y-123652672D01*
X173466858Y-123872397D01*
X173447033Y-124099000D01*
X171888406Y-124099000D01*
X171854451Y-124054749D01*
X171734233Y-123962502D01*
X171709500Y-123952257D01*
X171594235Y-123904512D01*
X171552315Y-123898994D01*
X171488418Y-123870728D01*
X171449947Y-123812403D01*
X171444500Y-123776055D01*
X171444500Y-123153422D01*
X171464185Y-123086383D01*
X171516989Y-123040628D01*
X171586147Y-123030684D01*
X171643987Y-123055047D01*
X171673767Y-123077898D01*
X171813764Y-123135887D01*
X171926280Y-123150700D01*
X171930333Y-123150700D01*
X172747667Y-123150700D01*
X172751720Y-123150700D01*
X172864236Y-123135887D01*
X173004233Y-123077898D01*
X173124451Y-122985651D01*
X173216698Y-122865433D01*
X173274687Y-122725436D01*
X173289500Y-122612920D01*
X173289500Y-121887480D01*
X173274687Y-121774964D01*
X173216698Y-121634967D01*
X173124451Y-121514749D01*
X173004233Y-121422502D01*
X172998420Y-121420094D01*
X172864235Y-121364512D01*
X172822315Y-121358994D01*
X172758418Y-121330728D01*
X172719947Y-121272403D01*
X172714500Y-121236055D01*
X172714500Y-114130202D01*
X172734185Y-114063163D01*
X172756269Y-114037390D01*
X172829483Y-113972530D01*
X172919220Y-113842523D01*
X172975237Y-113694818D01*
X172994278Y-113538000D01*
X172975237Y-113381182D01*
X172919220Y-113233477D01*
X172829483Y-113103470D01*
X172711240Y-112998717D01*
X172697994Y-112991764D01*
X172571364Y-112925303D01*
X172417985Y-112887500D01*
X172260015Y-112887500D01*
X172106635Y-112925303D01*
X171966761Y-112998716D01*
X171848515Y-113103471D01*
X171758780Y-113233476D01*
X171702763Y-113381181D01*
X171691596Y-113473151D01*
X171663974Y-113537329D01*
X171659956Y-113540037D01*
X171687477Y-113582860D01*
X171691596Y-113602848D01*
X171702763Y-113694818D01*
X171758780Y-113842523D01*
X171848515Y-113972528D01*
X171848516Y-113972529D01*
X171848517Y-113972530D01*
X171921727Y-114037387D01*
X171958853Y-114096574D01*
X171963500Y-114130202D01*
X171963499Y-121236055D01*
X171943814Y-121303094D01*
X171891010Y-121348849D01*
X171855685Y-121358994D01*
X171813764Y-121364513D01*
X171673766Y-121422502D01*
X171643986Y-121445353D01*
X171578816Y-121470547D01*
X171510372Y-121456508D01*
X171460382Y-121407694D01*
X171444500Y-121346977D01*
X171444500Y-113617795D01*
X171464185Y-113550756D01*
X171476101Y-113540430D01*
X171446179Y-113478543D01*
X171444500Y-113458204D01*
X171444500Y-113114202D01*
X171464185Y-113047163D01*
X171486269Y-113021390D01*
X171559483Y-112956530D01*
X171649220Y-112826523D01*
X171705237Y-112678818D01*
X171724278Y-112522000D01*
X171705237Y-112365182D01*
X171649220Y-112217477D01*
X171559483Y-112087470D01*
X171441240Y-111982717D01*
X171394478Y-111958174D01*
X171301364Y-111909303D01*
X171147985Y-111871500D01*
X170990015Y-111871500D01*
X170836635Y-111909303D01*
X170696758Y-111982718D01*
X170635056Y-112037381D01*
X170571823Y-112067102D01*
X170502559Y-112057918D01*
X170449256Y-112012745D01*
X170436888Y-111988536D01*
X170435237Y-111984182D01*
X170379220Y-111836477D01*
X170289483Y-111706470D01*
X170171240Y-111601717D01*
X170157994Y-111594764D01*
X170031364Y-111528303D01*
X169877985Y-111490500D01*
X169720015Y-111490500D01*
X169566635Y-111528303D01*
X169426761Y-111601716D01*
X169308515Y-111706471D01*
X169218780Y-111836476D01*
X169162763Y-111984181D01*
X169143721Y-112140999D01*
X169162763Y-112297818D01*
X169218780Y-112445523D01*
X169308515Y-112575528D01*
X169308516Y-112575529D01*
X169308517Y-112575530D01*
X169381727Y-112640387D01*
X169418853Y-112699574D01*
X169423500Y-112733202D01*
X169423500Y-121236055D01*
X169403815Y-121303094D01*
X169351011Y-121348849D01*
X169315685Y-121358994D01*
X169273764Y-121364512D01*
X169133768Y-121422501D01*
X169013549Y-121514749D01*
X168921301Y-121634968D01*
X168904500Y-121675530D01*
X168863313Y-121774964D01*
X168848500Y-121887480D01*
X168848500Y-122612920D01*
X168209500Y-122612920D01*
X168209500Y-121887480D01*
X168194687Y-121774964D01*
X168136698Y-121634967D01*
X168044451Y-121514749D01*
X167924233Y-121422502D01*
X167918420Y-121420094D01*
X167784235Y-121364512D01*
X167742315Y-121358994D01*
X167678418Y-121330728D01*
X167639947Y-121272403D01*
X167634500Y-121236055D01*
X167634500Y-111458898D01*
X167654185Y-111391859D01*
X167670819Y-111371217D01*
X168013218Y-111028819D01*
X168074541Y-110995334D01*
X168100899Y-110992500D01*
X170726692Y-110992500D01*
X170793731Y-111012185D01*
X170828743Y-111046062D01*
X170832515Y-111051528D01*
X170832516Y-111051529D01*
X170832517Y-111051530D01*
X170950760Y-111156283D01*
X171090635Y-111229696D01*
X171244015Y-111267500D01*
X171401985Y-111267500D01*
X171555365Y-111229696D01*
X171695240Y-111156283D01*
X171813483Y-111051530D01*
X171903220Y-110921523D01*
X171959237Y-110773818D01*
X171978278Y-110617000D01*
X171959237Y-110460182D01*
X171903220Y-110312477D01*
X171835037Y-110213696D01*
X171813484Y-110182471D01*
X171765863Y-110140283D01*
X171695240Y-110077717D01*
X171616322Y-110036297D01*
X171555364Y-110004303D01*
X171401985Y-109966500D01*
X171244015Y-109966500D01*
X171090635Y-110004303D01*
X170950761Y-110077716D01*
X170832515Y-110182471D01*
X170828743Y-110187938D01*
X170774462Y-110231929D01*
X170726692Y-110241500D01*
X170637574Y-110241500D01*
X170570535Y-110221815D01*
X170524780Y-110169011D01*
X170514836Y-110099853D01*
X170535524Y-110047060D01*
X170545559Y-110032523D01*
X170633220Y-109905523D01*
X170689237Y-109757818D01*
X170708278Y-109601000D01*
X170689237Y-109444182D01*
X170633220Y-109296477D01*
X170543483Y-109166470D01*
X170425240Y-109061717D01*
X170411994Y-109054764D01*
X170285364Y-108988303D01*
X170131985Y-108950500D01*
X169974015Y-108950500D01*
X169820635Y-108988303D01*
X169680761Y-109061716D01*
X169562515Y-109166471D01*
X169472780Y-109296476D01*
X169416763Y-109444181D01*
X169395907Y-109615946D01*
X169393431Y-109615645D01*
X169385477Y-109663480D01*
X169338572Y-109715265D01*
X169273843Y-109733500D01*
X167691804Y-109733500D01*
X167666358Y-109730861D01*
X167655732Y-109728633D01*
X167624323Y-109732548D01*
X167608986Y-109733500D01*
X167608884Y-109733500D01*
X167588399Y-109736918D01*
X167583332Y-109737657D01*
X167523567Y-109745107D01*
X167523312Y-109745189D01*
X167470370Y-109773838D01*
X167465820Y-109776180D01*
X167411715Y-109802632D01*
X167411505Y-109802788D01*
X167370719Y-109847093D01*
X167367172Y-109850789D01*
X166522108Y-110695852D01*
X166502254Y-110711976D01*
X166493165Y-110717914D01*
X166473722Y-110742894D01*
X166463563Y-110754398D01*
X166463484Y-110754476D01*
X166463479Y-110754482D01*
X166463480Y-110754482D01*
X166451390Y-110771414D01*
X166448341Y-110775504D01*
X166411354Y-110823024D01*
X166411237Y-110823253D01*
X166394057Y-110880955D01*
X166392495Y-110885831D01*
X166372941Y-110942792D01*
X166372906Y-110943034D01*
X166375394Y-111003191D01*
X166375500Y-111008315D01*
X166375500Y-120570099D01*
X166355815Y-120637138D01*
X166339181Y-120657780D01*
X165887108Y-121109852D01*
X165867254Y-121125976D01*
X165858165Y-121131914D01*
X165838722Y-121156894D01*
X165828563Y-121168398D01*
X165828484Y-121168476D01*
X165828479Y-121168482D01*
X165828480Y-121168482D01*
X165816390Y-121185414D01*
X165813341Y-121189504D01*
X165776354Y-121237024D01*
X165776237Y-121237253D01*
X165759057Y-121294955D01*
X165757495Y-121299831D01*
X165737941Y-121356792D01*
X165737906Y-121357034D01*
X165740394Y-121417191D01*
X165740500Y-121422315D01*
X165740500Y-121457081D01*
X165720815Y-121524120D01*
X165668011Y-121569875D01*
X165598853Y-121579819D01*
X165535297Y-121550794D01*
X165518125Y-121532568D01*
X165504453Y-121514751D01*
X165504451Y-121514750D01*
X165504451Y-121514749D01*
X165384233Y-121422502D01*
X165377601Y-121419755D01*
X165319192Y-121395561D01*
X165244236Y-121364513D01*
X165179095Y-121355937D01*
X165135739Y-121350229D01*
X165135737Y-121350228D01*
X165131720Y-121349700D01*
X164306280Y-121349700D01*
X164302263Y-121350228D01*
X164302260Y-121350229D01*
X164193764Y-121364513D01*
X164053768Y-121422501D01*
X163933549Y-121514749D01*
X163841301Y-121634968D01*
X163824500Y-121675530D01*
X163783313Y-121774964D01*
X163768500Y-121887480D01*
X163768500Y-122612920D01*
X163129500Y-122612920D01*
X163129500Y-121887480D01*
X163114687Y-121774964D01*
X163056698Y-121634967D01*
X162964451Y-121514749D01*
X162844233Y-121422502D01*
X162837601Y-121419755D01*
X162779192Y-121395561D01*
X162704236Y-121364513D01*
X162639095Y-121355937D01*
X162595739Y-121350229D01*
X162595737Y-121350228D01*
X162591720Y-121349700D01*
X161766280Y-121349700D01*
X161762263Y-121350228D01*
X161762260Y-121350229D01*
X161653764Y-121364513D01*
X161513768Y-121422501D01*
X161393549Y-121514749D01*
X161301301Y-121634968D01*
X161284500Y-121675530D01*
X161243313Y-121774964D01*
X161228500Y-121887480D01*
X161228500Y-122612920D01*
X160589500Y-122612920D01*
X160589500Y-121887480D01*
X160574687Y-121774964D01*
X160516698Y-121634967D01*
X160424451Y-121514749D01*
X160304233Y-121422502D01*
X160297601Y-121419755D01*
X160239192Y-121395561D01*
X160164236Y-121364513D01*
X160099095Y-121355937D01*
X160055739Y-121350229D01*
X160055737Y-121350228D01*
X160051720Y-121349700D01*
X159226280Y-121349700D01*
X159222263Y-121350228D01*
X159222260Y-121350229D01*
X159113764Y-121364513D01*
X158973768Y-121422501D01*
X158853549Y-121514749D01*
X158761301Y-121634968D01*
X158744500Y-121675530D01*
X158703313Y-121774964D01*
X158688500Y-121887480D01*
X158688500Y-122612920D01*
X158049500Y-122612920D01*
X158049500Y-121887480D01*
X158034687Y-121774964D01*
X157976698Y-121634967D01*
X157884451Y-121514749D01*
X157764233Y-121422502D01*
X157757601Y-121419755D01*
X157699192Y-121395561D01*
X157624236Y-121364513D01*
X157559095Y-121355937D01*
X157515739Y-121350229D01*
X157515737Y-121350228D01*
X157511720Y-121349700D01*
X156686280Y-121349700D01*
X156682263Y-121350228D01*
X156682260Y-121350229D01*
X156573764Y-121364513D01*
X156433766Y-121422502D01*
X156403986Y-121445353D01*
X156338816Y-121470547D01*
X156270372Y-121456508D01*
X156220382Y-121407694D01*
X156204500Y-121346977D01*
X156204500Y-120869477D01*
X156224185Y-120802438D01*
X156240815Y-120781800D01*
X156819889Y-120202725D01*
X156839741Y-120186604D01*
X156848836Y-120180663D01*
X156868277Y-120155683D01*
X156878449Y-120144166D01*
X156878520Y-120144096D01*
X156890614Y-120127155D01*
X156893648Y-120123087D01*
X156925809Y-120081768D01*
X156925809Y-120081766D01*
X156930666Y-120075527D01*
X156930753Y-120075358D01*
X156933009Y-120067779D01*
X156933010Y-120067778D01*
X156947951Y-120017588D01*
X156949479Y-120012817D01*
X156966500Y-119963239D01*
X156966500Y-119963234D01*
X156969060Y-119955778D01*
X156969093Y-119955549D01*
X156968767Y-119947669D01*
X156968768Y-119947667D01*
X156966605Y-119895385D01*
X156966500Y-119890263D01*
X156966500Y-115395898D01*
X156986185Y-115328859D01*
X157002815Y-115308221D01*
X157197217Y-115113818D01*
X157258540Y-115080334D01*
X157284898Y-115077500D01*
X157431985Y-115077500D01*
X157585365Y-115039696D01*
X157725240Y-114966283D01*
X157843483Y-114861530D01*
X157933220Y-114731523D01*
X157989237Y-114583818D01*
X158008278Y-114427000D01*
X157989237Y-114270182D01*
X157933220Y-114122477D01*
X157885785Y-114053755D01*
X157843484Y-113992471D01*
X157820973Y-113972528D01*
X157725240Y-113887717D01*
X157693440Y-113871027D01*
X157585364Y-113814303D01*
X157431985Y-113776500D01*
X157274015Y-113776500D01*
X157120635Y-113814303D01*
X156980761Y-113887716D01*
X156862515Y-113992471D01*
X156820050Y-114053994D01*
X156765767Y-114097984D01*
X156696318Y-114105644D01*
X156633754Y-114074540D01*
X156615950Y-114053994D01*
X156573484Y-113992471D01*
X156550973Y-113972528D01*
X156455240Y-113887717D01*
X156423440Y-113871027D01*
X156315364Y-113814303D01*
X156161985Y-113776500D01*
X156004015Y-113776500D01*
X155850635Y-113814303D01*
X155710761Y-113887716D01*
X155592515Y-113992471D01*
X155502780Y-114122476D01*
X155446763Y-114270181D01*
X155427721Y-114427000D01*
X155446763Y-114583818D01*
X155502780Y-114731523D01*
X155592515Y-114861528D01*
X155592516Y-114861529D01*
X155592517Y-114861530D01*
X155665727Y-114926387D01*
X155702853Y-114985574D01*
X155707500Y-115019202D01*
X155707500Y-119554099D01*
X155687815Y-119621138D01*
X155671181Y-119641780D01*
X154330108Y-120982852D01*
X154310254Y-120998976D01*
X154301165Y-121004914D01*
X154281722Y-121029894D01*
X154271563Y-121041398D01*
X154271484Y-121041476D01*
X154271479Y-121041482D01*
X154271480Y-121041482D01*
X154259390Y-121058414D01*
X154256341Y-121062504D01*
X154219354Y-121110024D01*
X154219237Y-121110253D01*
X154202057Y-121167955D01*
X154200495Y-121172831D01*
X154180941Y-121229792D01*
X154180905Y-121230037D01*
X154180956Y-121231255D01*
X154180408Y-121233452D01*
X154178347Y-121247603D01*
X154175330Y-121257739D01*
X154174421Y-121257468D01*
X154164057Y-121299050D01*
X154113187Y-121346946D01*
X154073255Y-121359313D01*
X154058693Y-121361231D01*
X153989657Y-121350470D01*
X153937398Y-121304093D01*
X153918500Y-121238293D01*
X153918500Y-115400202D01*
X153938185Y-115333163D01*
X153960269Y-115307390D01*
X154033483Y-115242530D01*
X154123220Y-115112523D01*
X154179237Y-114964818D01*
X154198278Y-114808000D01*
X154179237Y-114651182D01*
X154123220Y-114503477D01*
X154060641Y-114412815D01*
X154033484Y-114373471D01*
X154033483Y-114373470D01*
X153915240Y-114268717D01*
X153901994Y-114261764D01*
X153775364Y-114195303D01*
X153621985Y-114157500D01*
X153464015Y-114157500D01*
X153310635Y-114195303D01*
X153170761Y-114268716D01*
X153052515Y-114373471D01*
X152961994Y-114504614D01*
X152907711Y-114548605D01*
X152838262Y-114556264D01*
X152783741Y-114531995D01*
X152782068Y-114530693D01*
X152770593Y-114520554D01*
X152770519Y-114520480D01*
X152753594Y-114508397D01*
X152749480Y-114505330D01*
X152708189Y-114473191D01*
X152708186Y-114473190D01*
X152701963Y-114468346D01*
X152701761Y-114468242D01*
X152694200Y-114465990D01*
X152694199Y-114465990D01*
X152644036Y-114451055D01*
X152639174Y-114449497D01*
X152627780Y-114445586D01*
X152582202Y-114429939D01*
X152581969Y-114429906D01*
X152536910Y-114431769D01*
X152521806Y-114432394D01*
X152516684Y-114432500D01*
X150329308Y-114432500D01*
X150262269Y-114412815D01*
X150227257Y-114378938D01*
X150223484Y-114373471D01*
X150223483Y-114373470D01*
X150105240Y-114268717D01*
X150091994Y-114261765D01*
X149965364Y-114195303D01*
X149811985Y-114157500D01*
X149654015Y-114157500D01*
X149500635Y-114195303D01*
X149360761Y-114268716D01*
X149242515Y-114373471D01*
X149152780Y-114503476D01*
X149096763Y-114651181D01*
X149077721Y-114808000D01*
X149096763Y-114964818D01*
X149152780Y-115112523D01*
X149242515Y-115242528D01*
X149242516Y-115242529D01*
X149242517Y-115242530D01*
X149360760Y-115347283D01*
X149500635Y-115420696D01*
X149654015Y-115458500D01*
X149811985Y-115458500D01*
X149965365Y-115420696D01*
X150105240Y-115347283D01*
X150223483Y-115242530D01*
X150227257Y-115237061D01*
X150281538Y-115193071D01*
X150329308Y-115183500D01*
X152320101Y-115183500D01*
X152387140Y-115203185D01*
X152407782Y-115219819D01*
X152623181Y-115435217D01*
X152656666Y-115496540D01*
X152659500Y-115522898D01*
X152659500Y-121238293D01*
X152639815Y-121305332D01*
X152587011Y-121351087D01*
X152519315Y-121361232D01*
X152435740Y-121350229D01*
X152435736Y-121350228D01*
X152431720Y-121349700D01*
X151606280Y-121349700D01*
X151602263Y-121350228D01*
X151602260Y-121350229D01*
X151493764Y-121364513D01*
X151353766Y-121422502D01*
X151323986Y-121445353D01*
X151258816Y-121470547D01*
X151190372Y-121456508D01*
X151140382Y-121407694D01*
X151124500Y-121346977D01*
X151124500Y-120978759D01*
X151144185Y-120911720D01*
X151146414Y-120908371D01*
X151202220Y-120827523D01*
X151258237Y-120679818D01*
X151277278Y-120523000D01*
X151277155Y-120521991D01*
X151274965Y-120503958D01*
X151258237Y-120366182D01*
X151202220Y-120218477D01*
X151154686Y-120149612D01*
X151112484Y-120088471D01*
X151089126Y-120067778D01*
X150994240Y-119983717D01*
X150953691Y-119962435D01*
X150854364Y-119910303D01*
X150700985Y-119872500D01*
X150543015Y-119872500D01*
X150389635Y-119910303D01*
X150303932Y-119955285D01*
X150249760Y-119983717D01*
X150205123Y-120023260D01*
X150133414Y-120086788D01*
X150070180Y-120116508D01*
X150000917Y-120107323D01*
X149968962Y-120086787D01*
X149840540Y-119973017D01*
X149840539Y-119973016D01*
X149721053Y-119910304D01*
X149700663Y-119899602D01*
X149547284Y-119861799D01*
X149389314Y-119861799D01*
X149235934Y-119899602D01*
X149096060Y-119973015D01*
X148977814Y-120077770D01*
X148888079Y-120207775D01*
X148832062Y-120355480D01*
X148813020Y-120512299D01*
X148819195Y-120563152D01*
X148807734Y-120632076D01*
X148783780Y-120665779D01*
X148107108Y-121342451D01*
X148087253Y-121358576D01*
X148078163Y-121364515D01*
X148058721Y-121389493D01*
X148048563Y-121400997D01*
X148048484Y-121401075D01*
X148048479Y-121401081D01*
X148048480Y-121401081D01*
X148036390Y-121418013D01*
X148033341Y-121422103D01*
X147996354Y-121469623D01*
X147996237Y-121469852D01*
X147979057Y-121527554D01*
X147977495Y-121532430D01*
X147957941Y-121589391D01*
X147957906Y-121589633D01*
X147960394Y-121649790D01*
X147960500Y-121654914D01*
X147960500Y-122947696D01*
X147957860Y-122973142D01*
X147955633Y-122983768D01*
X147957895Y-123001918D01*
X147959548Y-123015176D01*
X147960500Y-123030513D01*
X147960500Y-123030614D01*
X147963145Y-123046468D01*
X147963917Y-123051091D01*
X147964656Y-123056161D01*
X147972107Y-123115938D01*
X147972185Y-123116182D01*
X148000827Y-123169108D01*
X148003171Y-123173662D01*
X148029634Y-123227792D01*
X148029779Y-123227985D01*
X148074080Y-123268767D01*
X148077779Y-123272316D01*
X148483481Y-123678019D01*
X148516966Y-123739342D01*
X148511982Y-123809034D01*
X148470110Y-123864967D01*
X148404646Y-123889384D01*
X148395800Y-123889700D01*
X147484325Y-123889700D01*
X147411261Y-123904233D01*
X147328399Y-123959599D01*
X147273033Y-124042461D01*
X147258500Y-124115525D01*
X147258500Y-125464874D01*
X145923500Y-125464874D01*
X145923500Y-120590088D01*
X145928072Y-120574514D01*
X145924097Y-120534145D01*
X145923500Y-120521991D01*
X145923500Y-120434066D01*
X145911924Y-120368416D01*
X145913210Y-120356878D01*
X145907439Y-120337852D01*
X145903984Y-120323389D01*
X145892614Y-120258905D01*
X145864136Y-120180663D01*
X145863347Y-120178494D01*
X145862538Y-120165767D01*
X145854707Y-120151117D01*
X145847544Y-120135078D01*
X145831781Y-120091768D01*
X145831780Y-120091765D01*
X145781382Y-120004473D01*
X145777988Y-119990485D01*
X145768646Y-119979102D01*
X145757111Y-119962435D01*
X145753135Y-119955549D01*
X145742849Y-119937732D01*
X145742848Y-119937731D01*
X145740311Y-119933336D01*
X145730713Y-119919141D01*
X145729015Y-119915964D01*
X145710989Y-119899763D01*
X145669046Y-119849777D01*
X145662630Y-119835117D01*
X145652641Y-119826919D01*
X145636317Y-119810772D01*
X145635435Y-119809721D01*
X145628520Y-119801480D01*
X145619222Y-119793678D01*
X145603078Y-119777357D01*
X145599220Y-119772656D01*
X145580221Y-119760952D01*
X145530236Y-119719010D01*
X145520564Y-119704473D01*
X145510857Y-119699285D01*
X145496664Y-119689689D01*
X145467566Y-119672889D01*
X145450901Y-119661355D01*
X145444320Y-119655954D01*
X145425525Y-119648617D01*
X145338232Y-119598218D01*
X145294925Y-119582456D01*
X145278882Y-119575292D01*
X145269137Y-119570083D01*
X145251504Y-119566652D01*
X145203685Y-119549247D01*
X145171095Y-119537386D01*
X145144192Y-119532642D01*
X145106614Y-119526016D01*
X145092153Y-119522561D01*
X145078028Y-119518276D01*
X145061581Y-119518075D01*
X144995934Y-119506500D01*
X144995932Y-119506500D01*
X144908019Y-119506500D01*
X144895865Y-119505903D01*
X144862708Y-119502637D01*
X144839911Y-119506500D01*
X118115414Y-119506500D01*
X118104606Y-119506028D01*
X118064547Y-119502523D01*
X117935279Y-119489791D01*
X117915346Y-119486164D01*
X117849708Y-119468576D01*
X117845808Y-119467462D01*
X117752625Y-119439196D01*
X117736215Y-119432917D01*
X117669295Y-119401712D01*
X117663261Y-119398696D01*
X117582474Y-119355514D01*
X117569817Y-119347739D01*
X117507641Y-119304203D01*
X117500112Y-119298490D01*
X117430699Y-119241524D01*
X117421683Y-119233352D01*
X117367646Y-119179315D01*
X117359474Y-119170299D01*
X117302508Y-119100886D01*
X117296802Y-119093366D01*
X117253254Y-119031173D01*
X117245490Y-119018535D01*
X117202288Y-118937710D01*
X117199294Y-118931720D01*
X117168079Y-118864778D01*
X117161806Y-118848384D01*
X117133532Y-118755179D01*
X117132422Y-118751290D01*
X117129294Y-118739616D01*
X117114834Y-118685649D01*
X117111208Y-118665724D01*
X117098478Y-118536477D01*
X117094968Y-118496359D01*
X117094500Y-118485599D01*
X117094500Y-117895674D01*
X118429500Y-117895674D01*
X118444033Y-117968738D01*
X118444033Y-117968739D01*
X118444034Y-117968740D01*
X118499399Y-118051601D01*
X118582260Y-118106966D01*
X118617622Y-118114000D01*
X118655325Y-118121500D01*
X118655326Y-118121500D01*
X120104675Y-118121500D01*
X120142378Y-118114000D01*
X120177740Y-118106966D01*
X120260601Y-118051601D01*
X120315966Y-117968740D01*
X120330500Y-117895674D01*
X120330500Y-117583720D01*
X120969500Y-117583720D01*
X120984313Y-117696236D01*
X121016694Y-117774410D01*
X121040621Y-117832176D01*
X121042302Y-117836233D01*
X121134549Y-117956451D01*
X121254767Y-118048698D01*
X121394764Y-118106687D01*
X121507280Y-118121500D01*
X121511333Y-118121500D01*
X122328667Y-118121500D01*
X122332720Y-118121500D01*
X122445236Y-118106687D01*
X122585233Y-118048698D01*
X122705451Y-117956451D01*
X122797698Y-117836233D01*
X122855687Y-117696236D01*
X122870500Y-117583720D01*
X122870500Y-116970999D01*
X123259999Y-116970999D01*
X123260000Y-116971000D01*
X124144314Y-116971000D01*
X124132359Y-116982955D01*
X124074835Y-117095852D01*
X124055014Y-117221000D01*
X124074835Y-117346148D01*
X124132359Y-117459045D01*
X124144314Y-117471000D01*
X123260000Y-117471000D01*
X123260000Y-117615646D01*
X123260141Y-117619835D01*
X123262731Y-117658031D01*
X123306040Y-117832176D01*
X123385771Y-117992940D01*
X123498197Y-118132802D01*
X123638059Y-118245228D01*
X123798823Y-118324959D01*
X123972968Y-118368268D01*
X124011164Y-118370858D01*
X124015354Y-118371000D01*
X124210000Y-118371000D01*
X124210000Y-117536686D01*
X124221955Y-117548641D01*
X124334852Y-117606165D01*
X124428519Y-117621000D01*
X124491481Y-117621000D01*
X124585148Y-117606165D01*
X124698045Y-117548641D01*
X124710000Y-117536686D01*
X124710000Y-118371000D01*
X124904646Y-118371000D01*
X124908835Y-118370858D01*
X124947031Y-118368268D01*
X125121176Y-118324959D01*
X125281940Y-118245228D01*
X125421802Y-118132802D01*
X125534228Y-117992940D01*
X125613959Y-117832176D01*
X125657268Y-117658031D01*
X125659858Y-117619835D01*
X125660000Y-117615646D01*
X125660000Y-117583720D01*
X126049500Y-117583720D01*
X126064313Y-117696236D01*
X126096694Y-117774410D01*
X126120621Y-117832176D01*
X126122302Y-117836233D01*
X126214549Y-117956451D01*
X126334767Y-118048698D01*
X126474764Y-118106687D01*
X126587280Y-118121500D01*
X126591333Y-118121500D01*
X127408667Y-118121500D01*
X127412720Y-118121500D01*
X127525236Y-118106687D01*
X127665233Y-118048698D01*
X127785451Y-117956451D01*
X127877698Y-117836233D01*
X127935687Y-117696236D01*
X127950500Y-117583720D01*
X127950500Y-116858280D01*
X127935687Y-116745764D01*
X127877698Y-116605767D01*
X127785451Y-116485549D01*
X127665233Y-116393302D01*
X127647428Y-116385927D01*
X127624228Y-116376317D01*
X127525236Y-116335313D01*
X127466356Y-116327561D01*
X127416739Y-116321029D01*
X127416737Y-116321028D01*
X127412720Y-116320500D01*
X126587280Y-116320500D01*
X126583263Y-116321028D01*
X126583260Y-116321029D01*
X126474764Y-116335313D01*
X126334768Y-116393301D01*
X126214549Y-116485549D01*
X126122301Y-116605768D01*
X126077884Y-116713000D01*
X126064313Y-116745764D01*
X126049500Y-116858280D01*
X126049500Y-117583720D01*
X125660000Y-117583720D01*
X125660000Y-117471000D01*
X124775686Y-117471000D01*
X124787641Y-117459045D01*
X124845165Y-117346148D01*
X124864986Y-117221000D01*
X124845165Y-117095852D01*
X124787641Y-116982955D01*
X124775686Y-116971000D01*
X125659999Y-116971000D01*
X125660000Y-116826353D01*
X125659858Y-116822164D01*
X125657268Y-116783968D01*
X125613959Y-116609823D01*
X125534228Y-116449059D01*
X125421802Y-116309197D01*
X125281940Y-116196771D01*
X125121176Y-116117040D01*
X124947031Y-116073731D01*
X124908835Y-116071141D01*
X124904646Y-116071000D01*
X124710000Y-116071000D01*
X124710000Y-116905313D01*
X124698045Y-116893359D01*
X124585148Y-116835835D01*
X124491481Y-116821000D01*
X124428519Y-116821000D01*
X124334852Y-116835835D01*
X124221955Y-116893359D01*
X124210000Y-116905314D01*
X124210000Y-116071000D01*
X124015354Y-116071000D01*
X124011164Y-116071141D01*
X123972968Y-116073731D01*
X123798823Y-116117040D01*
X123638059Y-116196771D01*
X123498197Y-116309197D01*
X123385771Y-116449059D01*
X123306040Y-116609823D01*
X123262731Y-116783968D01*
X123260141Y-116822164D01*
X123260000Y-116826353D01*
X123259999Y-116970999D01*
X122870500Y-116970999D01*
X122870500Y-116858280D01*
X122855687Y-116745764D01*
X122797698Y-116605767D01*
X122705451Y-116485549D01*
X122585233Y-116393302D01*
X122567428Y-116385927D01*
X122544228Y-116376317D01*
X122445236Y-116335313D01*
X122386356Y-116327561D01*
X122336739Y-116321029D01*
X122336737Y-116321028D01*
X122332720Y-116320500D01*
X121507280Y-116320500D01*
X121503263Y-116321028D01*
X121503260Y-116321029D01*
X121394764Y-116335313D01*
X121254768Y-116393301D01*
X121134549Y-116485549D01*
X121042301Y-116605768D01*
X120997884Y-116713000D01*
X120984313Y-116745764D01*
X120969500Y-116858280D01*
X120969500Y-117583720D01*
X120330500Y-117583720D01*
X120330500Y-116546326D01*
X120315966Y-116473260D01*
X120260601Y-116390399D01*
X120177740Y-116335034D01*
X120177739Y-116335033D01*
X120177738Y-116335033D01*
X120104675Y-116320500D01*
X120104674Y-116320500D01*
X118655326Y-116320500D01*
X118655325Y-116320500D01*
X118582261Y-116335033D01*
X118499399Y-116390399D01*
X118444033Y-116473261D01*
X118429500Y-116546325D01*
X118429500Y-117895674D01*
X117094500Y-117895674D01*
X117094500Y-115043720D01*
X119699500Y-115043720D01*
X119714313Y-115156236D01*
X119772302Y-115296233D01*
X119864549Y-115416451D01*
X119984767Y-115508698D01*
X120124764Y-115566687D01*
X120237280Y-115581500D01*
X120241333Y-115581500D01*
X121058667Y-115581500D01*
X121062720Y-115581500D01*
X121175236Y-115566687D01*
X121315233Y-115508698D01*
X121435451Y-115416451D01*
X121527698Y-115296233D01*
X121585687Y-115156236D01*
X121600500Y-115043720D01*
X122239500Y-115043720D01*
X122254313Y-115156236D01*
X122312302Y-115296233D01*
X122404549Y-115416451D01*
X122524767Y-115508698D01*
X122664764Y-115566687D01*
X122777280Y-115581500D01*
X122781333Y-115581500D01*
X123598667Y-115581500D01*
X123602720Y-115581500D01*
X123715236Y-115566687D01*
X123855233Y-115508698D01*
X123975451Y-115416451D01*
X124067698Y-115296233D01*
X124125687Y-115156236D01*
X124140500Y-115043720D01*
X124779500Y-115043720D01*
X124794313Y-115156236D01*
X124852302Y-115296233D01*
X124944549Y-115416451D01*
X125064767Y-115508698D01*
X125204764Y-115566687D01*
X125317280Y-115581500D01*
X125321333Y-115581500D01*
X126138667Y-115581500D01*
X126142720Y-115581500D01*
X126255236Y-115566687D01*
X126395233Y-115508698D01*
X126515451Y-115416451D01*
X126607698Y-115296233D01*
X126665687Y-115156236D01*
X126680500Y-115043720D01*
X126680500Y-114318280D01*
X126665687Y-114205764D01*
X126607698Y-114065767D01*
X126515451Y-113945549D01*
X126395233Y-113853302D01*
X126255236Y-113795313D01*
X126196356Y-113787561D01*
X126146739Y-113781029D01*
X126146737Y-113781028D01*
X126142720Y-113780500D01*
X125317280Y-113780500D01*
X125313263Y-113781028D01*
X125313260Y-113781029D01*
X125204764Y-113795313D01*
X125064768Y-113853301D01*
X124944549Y-113945549D01*
X124852301Y-114065768D01*
X124794313Y-114205764D01*
X124781907Y-114300000D01*
X124779500Y-114318280D01*
X124779500Y-115043720D01*
X124140500Y-115043720D01*
X124140500Y-114318280D01*
X124125687Y-114205764D01*
X124067698Y-114065767D01*
X123975451Y-113945549D01*
X123855233Y-113853302D01*
X123715236Y-113795313D01*
X123656356Y-113787561D01*
X123606739Y-113781029D01*
X123606737Y-113781028D01*
X123602720Y-113780500D01*
X122777280Y-113780500D01*
X122773263Y-113781028D01*
X122773260Y-113781029D01*
X122664764Y-113795313D01*
X122524768Y-113853301D01*
X122404549Y-113945549D01*
X122312301Y-114065768D01*
X122254313Y-114205764D01*
X122241907Y-114300000D01*
X122239500Y-114318280D01*
X122239500Y-115043720D01*
X121600500Y-115043720D01*
X121600500Y-114318280D01*
X121600579Y-114320713D01*
X121615680Y-114253176D01*
X121636483Y-114225552D01*
X123182217Y-112679819D01*
X123243541Y-112646334D01*
X123269899Y-112643500D01*
X130112101Y-112643500D01*
X130179140Y-112663185D01*
X130224895Y-112715989D01*
X130234839Y-112785147D01*
X130205814Y-112848703D01*
X130199787Y-112855175D01*
X130033577Y-113021385D01*
X129311108Y-113743852D01*
X129291254Y-113759976D01*
X129282165Y-113765914D01*
X129262722Y-113790894D01*
X129252563Y-113802398D01*
X129252484Y-113802476D01*
X129252479Y-113802482D01*
X129252480Y-113802482D01*
X129240390Y-113819414D01*
X129237341Y-113823504D01*
X129200352Y-113871027D01*
X129192115Y-113887029D01*
X129191334Y-113888123D01*
X129136361Y-113931248D01*
X129066800Y-113937807D01*
X129014926Y-113914452D01*
X128935233Y-113853302D01*
X128909210Y-113842523D01*
X128795236Y-113795313D01*
X128736356Y-113787561D01*
X128686739Y-113781029D01*
X128686737Y-113781028D01*
X128682720Y-113780500D01*
X127857280Y-113780500D01*
X127853263Y-113781028D01*
X127853260Y-113781029D01*
X127744764Y-113795313D01*
X127604768Y-113853301D01*
X127484549Y-113945549D01*
X127392301Y-114065768D01*
X127334313Y-114205764D01*
X127321907Y-114300000D01*
X127319500Y-114318280D01*
X127319500Y-115043720D01*
X127334313Y-115156236D01*
X127392302Y-115296233D01*
X127484549Y-115416451D01*
X127604767Y-115508698D01*
X127744764Y-115566687D01*
X127857280Y-115581500D01*
X127861333Y-115581500D01*
X128678667Y-115581500D01*
X128682720Y-115581500D01*
X128795236Y-115566687D01*
X128935233Y-115508698D01*
X128965012Y-115485847D01*
X129030182Y-115460652D01*
X129098627Y-115474690D01*
X129148617Y-115523503D01*
X129164500Y-115584222D01*
X129164500Y-116206855D01*
X129144815Y-116273894D01*
X129092011Y-116319649D01*
X129056685Y-116329794D01*
X129014764Y-116335312D01*
X128874768Y-116393301D01*
X128754549Y-116485549D01*
X128662301Y-116605768D01*
X128617884Y-116713000D01*
X128604313Y-116745764D01*
X128589500Y-116858280D01*
X128589500Y-117583720D01*
X128604313Y-117696236D01*
X128636694Y-117774410D01*
X128660621Y-117832176D01*
X128662302Y-117836233D01*
X128754549Y-117956451D01*
X128874767Y-118048698D01*
X129014764Y-118106687D01*
X129127280Y-118121500D01*
X129131333Y-118121500D01*
X129948667Y-118121500D01*
X129952720Y-118121500D01*
X130065236Y-118106687D01*
X130205233Y-118048698D01*
X130325451Y-117956451D01*
X130417698Y-117836233D01*
X130475687Y-117696236D01*
X130490500Y-117583720D01*
X131129500Y-117583720D01*
X131144313Y-117696236D01*
X131176694Y-117774410D01*
X131200621Y-117832176D01*
X131202302Y-117836233D01*
X131294549Y-117956451D01*
X131414767Y-118048698D01*
X131554764Y-118106687D01*
X131667280Y-118121500D01*
X131671333Y-118121500D01*
X132488667Y-118121500D01*
X132492720Y-118121500D01*
X132605236Y-118106687D01*
X132745233Y-118048698D01*
X132865451Y-117956451D01*
X132957698Y-117836233D01*
X133015687Y-117696236D01*
X133030500Y-117583720D01*
X133669500Y-117583720D01*
X133684313Y-117696236D01*
X133716694Y-117774410D01*
X133740621Y-117832176D01*
X133742302Y-117836233D01*
X133834549Y-117956451D01*
X133954767Y-118048698D01*
X134094764Y-118106687D01*
X134207280Y-118121500D01*
X134211333Y-118121500D01*
X135028667Y-118121500D01*
X135032720Y-118121500D01*
X135145236Y-118106687D01*
X135285233Y-118048698D01*
X135405451Y-117956451D01*
X135497698Y-117836233D01*
X135555687Y-117696236D01*
X135570500Y-117583720D01*
X136209500Y-117583720D01*
X136224313Y-117696236D01*
X136256694Y-117774410D01*
X136280621Y-117832176D01*
X136282302Y-117836233D01*
X136374549Y-117956451D01*
X136494767Y-118048698D01*
X136634764Y-118106687D01*
X136747280Y-118121500D01*
X136751333Y-118121500D01*
X137568667Y-118121500D01*
X137572720Y-118121500D01*
X137685236Y-118106687D01*
X137825233Y-118048698D01*
X137945451Y-117956451D01*
X138037698Y-117836233D01*
X138095687Y-117696236D01*
X138110500Y-117583720D01*
X138749500Y-117583720D01*
X138764313Y-117696236D01*
X138796694Y-117774410D01*
X138820621Y-117832176D01*
X138822302Y-117836233D01*
X138914549Y-117956451D01*
X139034767Y-118048698D01*
X139174764Y-118106687D01*
X139287280Y-118121500D01*
X139291333Y-118121500D01*
X140108667Y-118121500D01*
X140112720Y-118121500D01*
X140225236Y-118106687D01*
X140365233Y-118048698D01*
X140485451Y-117956451D01*
X140577698Y-117836233D01*
X140635687Y-117696236D01*
X140650500Y-117583720D01*
X141289500Y-117583720D01*
X141304313Y-117696236D01*
X141336694Y-117774410D01*
X141360621Y-117832176D01*
X141362302Y-117836233D01*
X141454549Y-117956451D01*
X141574767Y-118048698D01*
X141714764Y-118106687D01*
X141827280Y-118121500D01*
X141831333Y-118121500D01*
X142648667Y-118121500D01*
X142652720Y-118121500D01*
X142765236Y-118106687D01*
X142905233Y-118048698D01*
X143025451Y-117956451D01*
X143117698Y-117836233D01*
X143175687Y-117696236D01*
X143190500Y-117583720D01*
X143190500Y-116858280D01*
X143175687Y-116745764D01*
X143162116Y-116713000D01*
X146283721Y-116713000D01*
X146302763Y-116869818D01*
X146358780Y-117017523D01*
X146448515Y-117147528D01*
X146448516Y-117147529D01*
X146448517Y-117147530D01*
X146566760Y-117252283D01*
X146706635Y-117325696D01*
X146860015Y-117363500D01*
X147017985Y-117363500D01*
X147171366Y-117325696D01*
X147222509Y-117298853D01*
X147311240Y-117252283D01*
X147316768Y-117247385D01*
X147319817Y-117244685D01*
X147383050Y-117214963D01*
X147402044Y-117213500D01*
X147442324Y-117213500D01*
X147509363Y-117233185D01*
X147530005Y-117249819D01*
X147683626Y-117403440D01*
X147717111Y-117464763D01*
X147712127Y-117534455D01*
X147670255Y-117590388D01*
X147579972Y-117657972D01*
X147492808Y-117774410D01*
X147441977Y-117910694D01*
X147436047Y-117965857D01*
X147435500Y-117970941D01*
X147435500Y-117974249D01*
X147435500Y-117974250D01*
X147435500Y-118753746D01*
X147435500Y-118753764D01*
X147435501Y-118757058D01*
X147435853Y-118760338D01*
X147435854Y-118760346D01*
X147441977Y-118817306D01*
X147492807Y-118953588D01*
X147579972Y-119070027D01*
X147696410Y-119157191D01*
X147696413Y-119157193D01*
X147832694Y-119208023D01*
X147892941Y-119214500D01*
X148779058Y-119214499D01*
X148839306Y-119208023D01*
X148975587Y-119157193D01*
X149092027Y-119070027D01*
X149179193Y-118953587D01*
X149230023Y-118817306D01*
X149230716Y-118810857D01*
X149257454Y-118746306D01*
X149314846Y-118706458D01*
X149384671Y-118703964D01*
X149444760Y-118739616D01*
X149476036Y-118802095D01*
X149477364Y-118811510D01*
X149482568Y-118862461D01*
X149538106Y-119030063D01*
X149630802Y-119180348D01*
X149755651Y-119305197D01*
X149905935Y-119397893D01*
X150073539Y-119453431D01*
X150173858Y-119463680D01*
X150180136Y-119463999D01*
X150371999Y-119463999D01*
X150372000Y-119463998D01*
X150372000Y-118614000D01*
X150872000Y-118614000D01*
X150872000Y-119463999D01*
X151063861Y-119463999D01*
X151070142Y-119463679D01*
X151170461Y-119453430D01*
X151338063Y-119397893D01*
X151488348Y-119305197D01*
X151613197Y-119180348D01*
X151705893Y-119030064D01*
X151761431Y-118862460D01*
X151771680Y-118762141D01*
X151772000Y-118755863D01*
X151772000Y-118614000D01*
X150872000Y-118614000D01*
X150372000Y-118614000D01*
X150372000Y-117264000D01*
X150872000Y-117264000D01*
X150872000Y-118114000D01*
X151771999Y-118114000D01*
X151771999Y-117972138D01*
X151771679Y-117965857D01*
X151761430Y-117865538D01*
X151705893Y-117697936D01*
X151613197Y-117547651D01*
X151488348Y-117422802D01*
X151338064Y-117330106D01*
X151170460Y-117274568D01*
X151070141Y-117264319D01*
X151063864Y-117264000D01*
X150872000Y-117264000D01*
X150372000Y-117264000D01*
X150180138Y-117264000D01*
X150173857Y-117264320D01*
X150073538Y-117274569D01*
X149905936Y-117330106D01*
X149755651Y-117422802D01*
X149630802Y-117547651D01*
X149538106Y-117697935D01*
X149482568Y-117865539D01*
X149477363Y-117916490D01*
X149450966Y-117981181D01*
X149393785Y-118021332D01*
X149323974Y-118024194D01*
X149263697Y-117988860D01*
X149232093Y-117926547D01*
X149230715Y-117917136D01*
X149230646Y-117916490D01*
X149230023Y-117910694D01*
X149179193Y-117774413D01*
X149179191Y-117774410D01*
X149092027Y-117657972D01*
X148975587Y-117570806D01*
X148917165Y-117549016D01*
X148861232Y-117507144D01*
X148836816Y-117441680D01*
X148836500Y-117432835D01*
X148836500Y-117415143D01*
X148839334Y-117388784D01*
X148840359Y-117384073D01*
X148836816Y-117334538D01*
X148836500Y-117325691D01*
X148836500Y-117312202D01*
X148836500Y-117312201D01*
X148834578Y-117298837D01*
X148833633Y-117290046D01*
X148830932Y-117252282D01*
X148830091Y-117240517D01*
X148828405Y-117235998D01*
X148821851Y-117210316D01*
X148821165Y-117205543D01*
X148800536Y-117160372D01*
X148797148Y-117152192D01*
X148779797Y-117105671D01*
X148776906Y-117101809D01*
X148763377Y-117079007D01*
X148761377Y-117074627D01*
X148728860Y-117037100D01*
X148723306Y-117030207D01*
X148715221Y-117019406D01*
X148705679Y-117009865D01*
X148699659Y-117003401D01*
X148667128Y-116965857D01*
X148667127Y-116965856D01*
X148667125Y-116965854D01*
X148663067Y-116963246D01*
X148642427Y-116946613D01*
X148102385Y-116406571D01*
X148085749Y-116385927D01*
X148083142Y-116381870D01*
X148045615Y-116349354D01*
X148039135Y-116343321D01*
X148029593Y-116333779D01*
X148018786Y-116325689D01*
X148011907Y-116320147D01*
X147974373Y-116287623D01*
X147974372Y-116287622D01*
X147969987Y-116285620D01*
X147947194Y-116272095D01*
X147943331Y-116269204D01*
X147943329Y-116269203D01*
X147896790Y-116251845D01*
X147888622Y-116248461D01*
X147866004Y-116238132D01*
X147843458Y-116227835D01*
X147842603Y-116227712D01*
X147838676Y-116227147D01*
X147813001Y-116220594D01*
X147808483Y-116218909D01*
X147758947Y-116215365D01*
X147750153Y-116214419D01*
X147736803Y-116212500D01*
X147736799Y-116212500D01*
X147723308Y-116212500D01*
X147714461Y-116212184D01*
X147664926Y-116208640D01*
X147660214Y-116209666D01*
X147633856Y-116212500D01*
X147402044Y-116212500D01*
X147335005Y-116192815D01*
X147319817Y-116181315D01*
X147311240Y-116173717D01*
X147171366Y-116100303D01*
X147017985Y-116062500D01*
X146860015Y-116062500D01*
X146706635Y-116100303D01*
X146566761Y-116173716D01*
X146448515Y-116278471D01*
X146358780Y-116408476D01*
X146302763Y-116556181D01*
X146283721Y-116713000D01*
X143162116Y-116713000D01*
X143117698Y-116605767D01*
X143025451Y-116485549D01*
X142905233Y-116393302D01*
X142887428Y-116385927D01*
X142864228Y-116376317D01*
X142765236Y-116335313D01*
X142706356Y-116327561D01*
X142656739Y-116321029D01*
X142656737Y-116321028D01*
X142652720Y-116320500D01*
X141827280Y-116320500D01*
X141823263Y-116321028D01*
X141823260Y-116321029D01*
X141714764Y-116335313D01*
X141574768Y-116393301D01*
X141454549Y-116485549D01*
X141362301Y-116605768D01*
X141317884Y-116713000D01*
X141304313Y-116745764D01*
X141289500Y-116858280D01*
X141289500Y-117583720D01*
X140650500Y-117583720D01*
X140650500Y-116858280D01*
X140635687Y-116745764D01*
X140577698Y-116605767D01*
X140485451Y-116485549D01*
X140365233Y-116393302D01*
X140347428Y-116385927D01*
X140324228Y-116376317D01*
X140225236Y-116335313D01*
X140166356Y-116327561D01*
X140116739Y-116321029D01*
X140116737Y-116321028D01*
X140112720Y-116320500D01*
X139287280Y-116320500D01*
X139283263Y-116321028D01*
X139283260Y-116321029D01*
X139174764Y-116335313D01*
X139034768Y-116393301D01*
X138914549Y-116485549D01*
X138822301Y-116605768D01*
X138777884Y-116713000D01*
X138764313Y-116745764D01*
X138749500Y-116858280D01*
X138749500Y-117583720D01*
X138110500Y-117583720D01*
X138110500Y-116858280D01*
X138095687Y-116745764D01*
X138037698Y-116605767D01*
X137945451Y-116485549D01*
X137825233Y-116393302D01*
X137807428Y-116385927D01*
X137784228Y-116376317D01*
X137685236Y-116335313D01*
X137626356Y-116327561D01*
X137576739Y-116321029D01*
X137576737Y-116321028D01*
X137572720Y-116320500D01*
X136747280Y-116320500D01*
X136743263Y-116321028D01*
X136743260Y-116321029D01*
X136634764Y-116335313D01*
X136494768Y-116393301D01*
X136374549Y-116485549D01*
X136282301Y-116605768D01*
X136237884Y-116713000D01*
X136224313Y-116745764D01*
X136209500Y-116858280D01*
X136209500Y-117583720D01*
X135570500Y-117583720D01*
X135570500Y-116858280D01*
X135555687Y-116745764D01*
X135497698Y-116605767D01*
X135405451Y-116485549D01*
X135285233Y-116393302D01*
X135267428Y-116385927D01*
X135244228Y-116376317D01*
X135145236Y-116335313D01*
X135086356Y-116327561D01*
X135036739Y-116321029D01*
X135036737Y-116321028D01*
X135032720Y-116320500D01*
X134207280Y-116320500D01*
X134203263Y-116321028D01*
X134203260Y-116321029D01*
X134094764Y-116335313D01*
X133954768Y-116393301D01*
X133834549Y-116485549D01*
X133742301Y-116605768D01*
X133697884Y-116713000D01*
X133684313Y-116745764D01*
X133669500Y-116858280D01*
X133669500Y-117583720D01*
X133030500Y-117583720D01*
X133030500Y-116858280D01*
X133015687Y-116745764D01*
X132957698Y-116605767D01*
X132865451Y-116485549D01*
X132745233Y-116393302D01*
X132727428Y-116385927D01*
X132704228Y-116376317D01*
X132605236Y-116335313D01*
X132546356Y-116327561D01*
X132496739Y-116321029D01*
X132496737Y-116321028D01*
X132492720Y-116320500D01*
X131667280Y-116320500D01*
X131663263Y-116321028D01*
X131663260Y-116321029D01*
X131554764Y-116335313D01*
X131414768Y-116393301D01*
X131294549Y-116485549D01*
X131202301Y-116605768D01*
X131157884Y-116713000D01*
X131144313Y-116745764D01*
X131129500Y-116858280D01*
X131129500Y-117583720D01*
X130490500Y-117583720D01*
X130490500Y-116858280D01*
X130475687Y-116745764D01*
X130417698Y-116605767D01*
X130325451Y-116485549D01*
X130205233Y-116393302D01*
X130198225Y-116390399D01*
X130065235Y-116335312D01*
X130023315Y-116329794D01*
X129959418Y-116301528D01*
X129920947Y-116243203D01*
X129915500Y-116206855D01*
X129915500Y-115584222D01*
X129935185Y-115517183D01*
X129987989Y-115471428D01*
X130057147Y-115461484D01*
X130114987Y-115485847D01*
X130144767Y-115508698D01*
X130284764Y-115566687D01*
X130397280Y-115581500D01*
X130401333Y-115581500D01*
X131218667Y-115581500D01*
X131222720Y-115581500D01*
X131335236Y-115566687D01*
X131475233Y-115508698D01*
X131595451Y-115416451D01*
X131687698Y-115296233D01*
X131745687Y-115156236D01*
X131760500Y-115043720D01*
X132399500Y-115043720D01*
X132414313Y-115156236D01*
X132472302Y-115296233D01*
X132564549Y-115416451D01*
X132684767Y-115508698D01*
X132824764Y-115566687D01*
X132937280Y-115581500D01*
X132941333Y-115581500D01*
X133758667Y-115581500D01*
X133762720Y-115581500D01*
X133875236Y-115566687D01*
X134015233Y-115508698D01*
X134135451Y-115416451D01*
X134227698Y-115296233D01*
X134285687Y-115156236D01*
X134300500Y-115043720D01*
X134939500Y-115043720D01*
X134954313Y-115156236D01*
X135012302Y-115296233D01*
X135104549Y-115416451D01*
X135224767Y-115508698D01*
X135364764Y-115566687D01*
X135477280Y-115581500D01*
X135481333Y-115581500D01*
X136298667Y-115581500D01*
X136302720Y-115581500D01*
X136415236Y-115566687D01*
X136555233Y-115508698D01*
X136675451Y-115416451D01*
X136767698Y-115296233D01*
X136825687Y-115156236D01*
X136840500Y-115043720D01*
X137479500Y-115043720D01*
X137494313Y-115156236D01*
X137552302Y-115296233D01*
X137644549Y-115416451D01*
X137764767Y-115508698D01*
X137904764Y-115566687D01*
X138017280Y-115581500D01*
X138021333Y-115581500D01*
X138838667Y-115581500D01*
X138842720Y-115581500D01*
X138955236Y-115566687D01*
X139095233Y-115508698D01*
X139215451Y-115416451D01*
X139307698Y-115296233D01*
X139365687Y-115156236D01*
X139380500Y-115043720D01*
X140019500Y-115043720D01*
X140034313Y-115156236D01*
X140092302Y-115296233D01*
X140184549Y-115416451D01*
X140304767Y-115508698D01*
X140444764Y-115566687D01*
X140557280Y-115581500D01*
X140561333Y-115581500D01*
X141378667Y-115581500D01*
X141382720Y-115581500D01*
X141495236Y-115566687D01*
X141635233Y-115508698D01*
X141755451Y-115416451D01*
X141847698Y-115296233D01*
X141905687Y-115156236D01*
X141920500Y-115043720D01*
X142559500Y-115043720D01*
X142574313Y-115156236D01*
X142632302Y-115296233D01*
X142724549Y-115416451D01*
X142844767Y-115508698D01*
X142984764Y-115566687D01*
X143097280Y-115581500D01*
X143101333Y-115581500D01*
X143918667Y-115581500D01*
X143922720Y-115581500D01*
X144035236Y-115566687D01*
X144175233Y-115508698D01*
X144295451Y-115416451D01*
X144387698Y-115296233D01*
X144445687Y-115156236D01*
X144460500Y-115043720D01*
X144460500Y-114318280D01*
X144445687Y-114205764D01*
X144387698Y-114065767D01*
X144295451Y-113945549D01*
X144175233Y-113853302D01*
X144035236Y-113795313D01*
X143976356Y-113787561D01*
X143926739Y-113781029D01*
X143926737Y-113781028D01*
X143922720Y-113780500D01*
X143097280Y-113780500D01*
X143093263Y-113781028D01*
X143093260Y-113781029D01*
X142984764Y-113795313D01*
X142844768Y-113853301D01*
X142724549Y-113945549D01*
X142632301Y-114065768D01*
X142574313Y-114205764D01*
X142561907Y-114300000D01*
X142559500Y-114318280D01*
X142559500Y-115043720D01*
X141920500Y-115043720D01*
X141920500Y-114318280D01*
X141905687Y-114205764D01*
X141847698Y-114065767D01*
X141755451Y-113945549D01*
X141635233Y-113853302D01*
X141495236Y-113795313D01*
X141436356Y-113787561D01*
X141386739Y-113781029D01*
X141386737Y-113781028D01*
X141382720Y-113780500D01*
X140557280Y-113780500D01*
X140553263Y-113781028D01*
X140553260Y-113781029D01*
X140444764Y-113795313D01*
X140304768Y-113853301D01*
X140184549Y-113945549D01*
X140092301Y-114065768D01*
X140034313Y-114205764D01*
X140021907Y-114300000D01*
X140019500Y-114318280D01*
X140019500Y-115043720D01*
X139380500Y-115043720D01*
X139380500Y-114318280D01*
X139365687Y-114205764D01*
X139307698Y-114065767D01*
X139215451Y-113945549D01*
X139095233Y-113853302D01*
X138955236Y-113795313D01*
X138896356Y-113787561D01*
X138846739Y-113781029D01*
X138846737Y-113781028D01*
X138842720Y-113780500D01*
X138017280Y-113780500D01*
X138013263Y-113781028D01*
X138013260Y-113781029D01*
X137904764Y-113795313D01*
X137764768Y-113853301D01*
X137644549Y-113945549D01*
X137552301Y-114065768D01*
X137494313Y-114205764D01*
X137481907Y-114300000D01*
X137479500Y-114318280D01*
X137479500Y-115043720D01*
X136840500Y-115043720D01*
X136840500Y-114318280D01*
X136825687Y-114205764D01*
X136767698Y-114065767D01*
X136675451Y-113945549D01*
X136555233Y-113853302D01*
X136415236Y-113795313D01*
X136356356Y-113787561D01*
X136306739Y-113781029D01*
X136306737Y-113781028D01*
X136302720Y-113780500D01*
X135477280Y-113780500D01*
X135473263Y-113781028D01*
X135473260Y-113781029D01*
X135364764Y-113795313D01*
X135224768Y-113853301D01*
X135104549Y-113945549D01*
X135012301Y-114065768D01*
X134954313Y-114205764D01*
X134941907Y-114300000D01*
X134939500Y-114318280D01*
X134939500Y-115043720D01*
X134300500Y-115043720D01*
X134300500Y-114318280D01*
X134285687Y-114205764D01*
X134227698Y-114065767D01*
X134135451Y-113945549D01*
X134015233Y-113853302D01*
X133875236Y-113795313D01*
X133816356Y-113787561D01*
X133766739Y-113781029D01*
X133766737Y-113781028D01*
X133762720Y-113780500D01*
X132937280Y-113780500D01*
X132933263Y-113781028D01*
X132933260Y-113781029D01*
X132824764Y-113795313D01*
X132684768Y-113853301D01*
X132564549Y-113945549D01*
X132472301Y-114065768D01*
X132414313Y-114205764D01*
X132401907Y-114300000D01*
X132399500Y-114318280D01*
X132399500Y-115043720D01*
X131760500Y-115043720D01*
X131760500Y-114318280D01*
X131745687Y-114205764D01*
X131687698Y-114065767D01*
X131595451Y-113945549D01*
X131475233Y-113853302D01*
X131335236Y-113795313D01*
X131276356Y-113787561D01*
X131226739Y-113781029D01*
X131226737Y-113781028D01*
X131222720Y-113780500D01*
X130635898Y-113780500D01*
X130568859Y-113760815D01*
X130523104Y-113708011D01*
X130513160Y-113638853D01*
X130542185Y-113575297D01*
X130548217Y-113568819D01*
X130658833Y-113458204D01*
X130929217Y-113187819D01*
X130990541Y-113154334D01*
X131016899Y-113151500D01*
X163242101Y-113151500D01*
X163309140Y-113171185D01*
X163329782Y-113187819D01*
X164288481Y-114146518D01*
X164321966Y-114207841D01*
X164323896Y-114249144D01*
X164317721Y-114299998D01*
X164336763Y-114456818D01*
X164392780Y-114604523D01*
X164482515Y-114734528D01*
X164482516Y-114734529D01*
X164482517Y-114734530D01*
X164600760Y-114839283D01*
X164740635Y-114912696D01*
X164894015Y-114950500D01*
X165051985Y-114950500D01*
X165205365Y-114912696D01*
X165345240Y-114839283D01*
X165463483Y-114734530D01*
X165553220Y-114604523D01*
X165609237Y-114456818D01*
X165628278Y-114300000D01*
X165609237Y-114143182D01*
X165553220Y-113995477D01*
X165463483Y-113865470D01*
X165345240Y-113760717D01*
X165313107Y-113743852D01*
X165205364Y-113687303D01*
X165051985Y-113649500D01*
X164904900Y-113649500D01*
X164837861Y-113629815D01*
X164817219Y-113613181D01*
X163913900Y-112709862D01*
X163880415Y-112648539D01*
X163885399Y-112578847D01*
X163927271Y-112522914D01*
X163943955Y-112512385D01*
X164039046Y-112462477D01*
X164157289Y-112357724D01*
X164247026Y-112227717D01*
X164303043Y-112080012D01*
X164322084Y-111923194D01*
X164303043Y-111766376D01*
X164247026Y-111618671D01*
X164202157Y-111553667D01*
X164157290Y-111488665D01*
X164127417Y-111462200D01*
X164039046Y-111383911D01*
X163948576Y-111336428D01*
X163899170Y-111310497D01*
X163745791Y-111272694D01*
X163587821Y-111272694D01*
X163434441Y-111310497D01*
X163294567Y-111383910D01*
X163176321Y-111488665D01*
X163086586Y-111618670D01*
X163030569Y-111766375D01*
X163028496Y-111783448D01*
X163000873Y-111847626D01*
X162942938Y-111886681D01*
X162905400Y-111892500D01*
X123114803Y-111892500D01*
X123089357Y-111889861D01*
X123078731Y-111887633D01*
X123047324Y-111891548D01*
X123031987Y-111892500D01*
X123031886Y-111892500D01*
X123011359Y-111895924D01*
X123006300Y-111896661D01*
X122946556Y-111904109D01*
X122946316Y-111904186D01*
X122893359Y-111932844D01*
X122888805Y-111935188D01*
X122834721Y-111961628D01*
X122834506Y-111961788D01*
X122793729Y-112006082D01*
X122790183Y-112009777D01*
X121055781Y-113744181D01*
X120994458Y-113777666D01*
X120968100Y-113780500D01*
X120237280Y-113780500D01*
X120233263Y-113781028D01*
X120233260Y-113781029D01*
X120124764Y-113795313D01*
X119984768Y-113853301D01*
X119864549Y-113945549D01*
X119772301Y-114065768D01*
X119714313Y-114205764D01*
X119701907Y-114300000D01*
X119699500Y-114318280D01*
X119699500Y-115043720D01*
X117094500Y-115043720D01*
X117094500Y-110986874D01*
X118429500Y-110986874D01*
X118444033Y-111059938D01*
X118444033Y-111059939D01*
X118444034Y-111059940D01*
X118499399Y-111142801D01*
X118582260Y-111198166D01*
X118618792Y-111205433D01*
X118655325Y-111212700D01*
X118655326Y-111212700D01*
X120104675Y-111212700D01*
X120129029Y-111207855D01*
X120177740Y-111198166D01*
X120260601Y-111142801D01*
X120315966Y-111059940D01*
X120330500Y-110986874D01*
X120330500Y-109637526D01*
X120315966Y-109564460D01*
X120260601Y-109481599D01*
X120177740Y-109426234D01*
X120177739Y-109426233D01*
X120177738Y-109426233D01*
X120104675Y-109411700D01*
X120104674Y-109411700D01*
X119879500Y-109411700D01*
X119812461Y-109392015D01*
X119766706Y-109339211D01*
X119755500Y-109287700D01*
X119755500Y-108988303D01*
X119755500Y-108675418D01*
X119775183Y-108608383D01*
X119827987Y-108562628D01*
X119897146Y-108552684D01*
X119954985Y-108577046D01*
X119976936Y-108593889D01*
X119984767Y-108599898D01*
X120124764Y-108657887D01*
X120237280Y-108672700D01*
X120241333Y-108672700D01*
X121058667Y-108672700D01*
X121062720Y-108672700D01*
X121175236Y-108657887D01*
X121315233Y-108599898D01*
X121345012Y-108577047D01*
X121410182Y-108551852D01*
X121478627Y-108565890D01*
X121528617Y-108614703D01*
X121544500Y-108675422D01*
X121544500Y-109298055D01*
X121524815Y-109365094D01*
X121472011Y-109410849D01*
X121436685Y-109420994D01*
X121394764Y-109426512D01*
X121254768Y-109484501D01*
X121134549Y-109576749D01*
X121042301Y-109696968D01*
X120984313Y-109836964D01*
X120971826Y-109931816D01*
X120969500Y-109949480D01*
X120969500Y-110674920D01*
X120970028Y-110678937D01*
X120970029Y-110678939D01*
X120974408Y-110712200D01*
X120984313Y-110787436D01*
X121020673Y-110875216D01*
X121042050Y-110926826D01*
X121042302Y-110927433D01*
X121134549Y-111047651D01*
X121254767Y-111139898D01*
X121394764Y-111197887D01*
X121507280Y-111212700D01*
X121511333Y-111212700D01*
X122328667Y-111212700D01*
X122332720Y-111212700D01*
X122445236Y-111197887D01*
X122585233Y-111139898D01*
X122705451Y-111047651D01*
X122797698Y-110927433D01*
X122855687Y-110787436D01*
X122870500Y-110674920D01*
X122870500Y-110062199D01*
X123259999Y-110062199D01*
X123260000Y-110062200D01*
X124144314Y-110062200D01*
X124132359Y-110074155D01*
X124074835Y-110187052D01*
X124055014Y-110312200D01*
X124074835Y-110437348D01*
X124132359Y-110550245D01*
X124144314Y-110562200D01*
X123260000Y-110562200D01*
X123260000Y-110706846D01*
X123260141Y-110711035D01*
X123262731Y-110749231D01*
X123306040Y-110923376D01*
X123385771Y-111084140D01*
X123498197Y-111224002D01*
X123638059Y-111336428D01*
X123798823Y-111416159D01*
X123972968Y-111459468D01*
X124011164Y-111462058D01*
X124015354Y-111462200D01*
X124210000Y-111462200D01*
X124210000Y-110627886D01*
X124221955Y-110639841D01*
X124334852Y-110697365D01*
X124428519Y-110712200D01*
X124491481Y-110712200D01*
X124585148Y-110697365D01*
X124698045Y-110639841D01*
X124710000Y-110627886D01*
X124710000Y-111462200D01*
X124904646Y-111462200D01*
X124908835Y-111462058D01*
X124947031Y-111459468D01*
X125121176Y-111416159D01*
X125281940Y-111336428D01*
X125421802Y-111224002D01*
X125534228Y-111084140D01*
X125613959Y-110923376D01*
X125657268Y-110749231D01*
X125659858Y-110711035D01*
X125660000Y-110706846D01*
X125660000Y-110674920D01*
X126049500Y-110674920D01*
X126050028Y-110678937D01*
X126050029Y-110678939D01*
X126054408Y-110712200D01*
X126064313Y-110787436D01*
X126100673Y-110875216D01*
X126122050Y-110926826D01*
X126122302Y-110927433D01*
X126214549Y-111047651D01*
X126334767Y-111139898D01*
X126474764Y-111197887D01*
X126587280Y-111212700D01*
X126591333Y-111212700D01*
X127408667Y-111212700D01*
X127412720Y-111212700D01*
X127525236Y-111197887D01*
X127665233Y-111139898D01*
X127785451Y-111047651D01*
X127877698Y-110927433D01*
X127935687Y-110787436D01*
X127950500Y-110674920D01*
X128589500Y-110674920D01*
X128590028Y-110678937D01*
X128590029Y-110678939D01*
X128594408Y-110712200D01*
X128604313Y-110787436D01*
X128640673Y-110875216D01*
X128662050Y-110926826D01*
X128662302Y-110927433D01*
X128754549Y-111047651D01*
X128874767Y-111139898D01*
X129014764Y-111197887D01*
X129127280Y-111212700D01*
X129131333Y-111212700D01*
X129948667Y-111212700D01*
X129952720Y-111212700D01*
X130065236Y-111197887D01*
X130205233Y-111139898D01*
X130325451Y-111047651D01*
X130417698Y-110927433D01*
X130475687Y-110787436D01*
X130490500Y-110674920D01*
X131129500Y-110674920D01*
X131130028Y-110678937D01*
X131130029Y-110678939D01*
X131134408Y-110712200D01*
X131144313Y-110787436D01*
X131180673Y-110875216D01*
X131202050Y-110926826D01*
X131202302Y-110927433D01*
X131294549Y-111047651D01*
X131414767Y-111139898D01*
X131554764Y-111197887D01*
X131667280Y-111212700D01*
X131671333Y-111212700D01*
X132488667Y-111212700D01*
X132492720Y-111212700D01*
X132605236Y-111197887D01*
X132745233Y-111139898D01*
X132865451Y-111047651D01*
X132957698Y-110927433D01*
X133015687Y-110787436D01*
X133030500Y-110674920D01*
X133669500Y-110674920D01*
X133670028Y-110678937D01*
X133670029Y-110678939D01*
X133674408Y-110712200D01*
X133684313Y-110787436D01*
X133720673Y-110875216D01*
X133742050Y-110926826D01*
X133742302Y-110927433D01*
X133834549Y-111047651D01*
X133954767Y-111139898D01*
X134094764Y-111197887D01*
X134207280Y-111212700D01*
X134211333Y-111212700D01*
X135028667Y-111212700D01*
X135032720Y-111212700D01*
X135145236Y-111197887D01*
X135285233Y-111139898D01*
X135405451Y-111047651D01*
X135497698Y-110927433D01*
X135555687Y-110787436D01*
X135570500Y-110674920D01*
X136209500Y-110674920D01*
X136210028Y-110678937D01*
X136210029Y-110678939D01*
X136214408Y-110712200D01*
X136224313Y-110787436D01*
X136260673Y-110875216D01*
X136282050Y-110926826D01*
X136282302Y-110927433D01*
X136374549Y-111047651D01*
X136494767Y-111139898D01*
X136634764Y-111197887D01*
X136747280Y-111212700D01*
X136751333Y-111212700D01*
X137568667Y-111212700D01*
X137572720Y-111212700D01*
X137685236Y-111197887D01*
X137825233Y-111139898D01*
X137945451Y-111047651D01*
X138037698Y-110927433D01*
X138095687Y-110787436D01*
X138110500Y-110674920D01*
X138749500Y-110674920D01*
X138750028Y-110678937D01*
X138750029Y-110678939D01*
X138754408Y-110712200D01*
X138764313Y-110787436D01*
X138800673Y-110875216D01*
X138822050Y-110926826D01*
X138822302Y-110927433D01*
X138914549Y-111047651D01*
X139034767Y-111139898D01*
X139174764Y-111197887D01*
X139287280Y-111212700D01*
X139291333Y-111212700D01*
X140108667Y-111212700D01*
X140112720Y-111212700D01*
X140225236Y-111197887D01*
X140365233Y-111139898D01*
X140485451Y-111047651D01*
X140577698Y-110927433D01*
X140635687Y-110787436D01*
X140650500Y-110674920D01*
X141289500Y-110674920D01*
X141290028Y-110678937D01*
X141290029Y-110678939D01*
X141294408Y-110712200D01*
X141304313Y-110787436D01*
X141340673Y-110875216D01*
X141362050Y-110926826D01*
X141362302Y-110927433D01*
X141454549Y-111047651D01*
X141574767Y-111139898D01*
X141714764Y-111197887D01*
X141827280Y-111212700D01*
X141831333Y-111212700D01*
X142648667Y-111212700D01*
X142652720Y-111212700D01*
X142765236Y-111197887D01*
X142905233Y-111139898D01*
X143025451Y-111047651D01*
X143117698Y-110927433D01*
X143175687Y-110787436D01*
X143190500Y-110674920D01*
X143190500Y-109949480D01*
X143175687Y-109836964D01*
X143117698Y-109696967D01*
X143025451Y-109576749D01*
X142905233Y-109484502D01*
X142765236Y-109426513D01*
X142706356Y-109418761D01*
X142656739Y-109412229D01*
X142656737Y-109412228D01*
X142652720Y-109411700D01*
X141827280Y-109411700D01*
X141823263Y-109412228D01*
X141823260Y-109412229D01*
X141714764Y-109426513D01*
X141574768Y-109484501D01*
X141454549Y-109576749D01*
X141362301Y-109696968D01*
X141304313Y-109836964D01*
X141291826Y-109931816D01*
X141289500Y-109949480D01*
X141289500Y-110674920D01*
X140650500Y-110674920D01*
X140650500Y-109949480D01*
X140635687Y-109836964D01*
X140577698Y-109696967D01*
X140485451Y-109576749D01*
X140365233Y-109484502D01*
X140225236Y-109426513D01*
X140166356Y-109418761D01*
X140116739Y-109412229D01*
X140116737Y-109412228D01*
X140112720Y-109411700D01*
X139287280Y-109411700D01*
X139283263Y-109412228D01*
X139283260Y-109412229D01*
X139174764Y-109426513D01*
X139034768Y-109484501D01*
X138914549Y-109576749D01*
X138822301Y-109696968D01*
X138764313Y-109836964D01*
X138751826Y-109931816D01*
X138749500Y-109949480D01*
X138749500Y-110674920D01*
X138110500Y-110674920D01*
X138110500Y-109949480D01*
X138095687Y-109836964D01*
X138037698Y-109696967D01*
X137945451Y-109576749D01*
X137825233Y-109484502D01*
X137685236Y-109426513D01*
X137626356Y-109418761D01*
X137576739Y-109412229D01*
X137576737Y-109412228D01*
X137572720Y-109411700D01*
X136747280Y-109411700D01*
X136743263Y-109412228D01*
X136743260Y-109412229D01*
X136634764Y-109426513D01*
X136494768Y-109484501D01*
X136374549Y-109576749D01*
X136282301Y-109696968D01*
X136224313Y-109836964D01*
X136211826Y-109931816D01*
X136209500Y-109949480D01*
X136209500Y-110674920D01*
X135570500Y-110674920D01*
X135570500Y-109949480D01*
X135555687Y-109836964D01*
X135497698Y-109696967D01*
X135405451Y-109576749D01*
X135285233Y-109484502D01*
X135145236Y-109426513D01*
X135086356Y-109418761D01*
X135036739Y-109412229D01*
X135036737Y-109412228D01*
X135032720Y-109411700D01*
X134207280Y-109411700D01*
X134203263Y-109412228D01*
X134203260Y-109412229D01*
X134094764Y-109426513D01*
X133954768Y-109484501D01*
X133834549Y-109576749D01*
X133742301Y-109696968D01*
X133684313Y-109836964D01*
X133671826Y-109931816D01*
X133669500Y-109949480D01*
X133669500Y-110674920D01*
X133030500Y-110674920D01*
X133030500Y-109949480D01*
X133015687Y-109836964D01*
X132957698Y-109696967D01*
X132865451Y-109576749D01*
X132745233Y-109484502D01*
X132605236Y-109426513D01*
X132546356Y-109418761D01*
X132496739Y-109412229D01*
X132496737Y-109412228D01*
X132492720Y-109411700D01*
X131667280Y-109411700D01*
X131663263Y-109412228D01*
X131663260Y-109412229D01*
X131554764Y-109426513D01*
X131414768Y-109484501D01*
X131294549Y-109576749D01*
X131202301Y-109696968D01*
X131144313Y-109836964D01*
X131131826Y-109931816D01*
X131129500Y-109949480D01*
X131129500Y-110674920D01*
X130490500Y-110674920D01*
X130490500Y-109949480D01*
X130475687Y-109836964D01*
X130417698Y-109696967D01*
X130325451Y-109576749D01*
X130205233Y-109484502D01*
X130065236Y-109426513D01*
X130006356Y-109418761D01*
X129956739Y-109412229D01*
X129956737Y-109412228D01*
X129952720Y-109411700D01*
X129127280Y-109411700D01*
X129123263Y-109412228D01*
X129123260Y-109412229D01*
X129014764Y-109426513D01*
X128874768Y-109484501D01*
X128754549Y-109576749D01*
X128662301Y-109696968D01*
X128604313Y-109836964D01*
X128591826Y-109931816D01*
X128589500Y-109949480D01*
X128589500Y-110674920D01*
X127950500Y-110674920D01*
X127950500Y-109949480D01*
X127935687Y-109836964D01*
X127877698Y-109696967D01*
X127785451Y-109576749D01*
X127665233Y-109484502D01*
X127525236Y-109426513D01*
X127466356Y-109418761D01*
X127416739Y-109412229D01*
X127416737Y-109412228D01*
X127412720Y-109411700D01*
X126587280Y-109411700D01*
X126583263Y-109412228D01*
X126583260Y-109412229D01*
X126474764Y-109426513D01*
X126334768Y-109484501D01*
X126214549Y-109576749D01*
X126122301Y-109696968D01*
X126064313Y-109836964D01*
X126051826Y-109931816D01*
X126049500Y-109949480D01*
X126049500Y-110674920D01*
X125660000Y-110674920D01*
X125660000Y-110562200D01*
X124775686Y-110562200D01*
X124787641Y-110550245D01*
X124845165Y-110437348D01*
X124864986Y-110312200D01*
X124845165Y-110187052D01*
X124787641Y-110074155D01*
X124775686Y-110062200D01*
X125659999Y-110062200D01*
X125660000Y-109917553D01*
X125659858Y-109913364D01*
X125657268Y-109875168D01*
X125613959Y-109701023D01*
X125534228Y-109540259D01*
X125421802Y-109400397D01*
X125281940Y-109287971D01*
X125121176Y-109208240D01*
X124947031Y-109164931D01*
X124908835Y-109162341D01*
X124904646Y-109162200D01*
X124710000Y-109162200D01*
X124710000Y-109996514D01*
X124698045Y-109984559D01*
X124585148Y-109927035D01*
X124491481Y-109912200D01*
X124428519Y-109912200D01*
X124334852Y-109927035D01*
X124221955Y-109984559D01*
X124210000Y-109996514D01*
X124210000Y-109162200D01*
X124015354Y-109162200D01*
X124011164Y-109162341D01*
X123972968Y-109164931D01*
X123798823Y-109208240D01*
X123638059Y-109287971D01*
X123498197Y-109400397D01*
X123385771Y-109540259D01*
X123306040Y-109701023D01*
X123262731Y-109875168D01*
X123260141Y-109913364D01*
X123260000Y-109917553D01*
X123259999Y-110062199D01*
X122870500Y-110062199D01*
X122870500Y-109949480D01*
X122855687Y-109836964D01*
X122797698Y-109696967D01*
X122705451Y-109576749D01*
X122585233Y-109484502D01*
X122578225Y-109481599D01*
X122445235Y-109426512D01*
X122403315Y-109420994D01*
X122339418Y-109392728D01*
X122300947Y-109334403D01*
X122295500Y-109298055D01*
X122295500Y-108675422D01*
X122315185Y-108608383D01*
X122367989Y-108562628D01*
X122437147Y-108552684D01*
X122494987Y-108577047D01*
X122524767Y-108599898D01*
X122664764Y-108657887D01*
X122777280Y-108672700D01*
X122781333Y-108672700D01*
X123598667Y-108672700D01*
X123602720Y-108672700D01*
X123715236Y-108657887D01*
X123855233Y-108599898D01*
X123975451Y-108507651D01*
X124067698Y-108387433D01*
X124125687Y-108247436D01*
X124140500Y-108134920D01*
X124140500Y-107409480D01*
X124125687Y-107296964D01*
X124067698Y-107156967D01*
X123975451Y-107036749D01*
X123855233Y-106944502D01*
X123853912Y-106943955D01*
X123814228Y-106927517D01*
X123715236Y-106886513D01*
X123656356Y-106878761D01*
X123606739Y-106872229D01*
X123606737Y-106872228D01*
X123602720Y-106871700D01*
X123598667Y-106871700D01*
X123193699Y-106871700D01*
X123126660Y-106852015D01*
X123080905Y-106799211D01*
X123070961Y-106730053D01*
X123099986Y-106666497D01*
X123106018Y-106660019D01*
X123182218Y-106583819D01*
X123243541Y-106550334D01*
X123269899Y-106547500D01*
X126124301Y-106547500D01*
X126191340Y-106567185D01*
X126237095Y-106619989D01*
X126247039Y-106689147D01*
X126218014Y-106752703D01*
X126211982Y-106759181D01*
X126135782Y-106835381D01*
X126074459Y-106868866D01*
X126048101Y-106871700D01*
X125317280Y-106871700D01*
X125313263Y-106872228D01*
X125313260Y-106872229D01*
X125204764Y-106886513D01*
X125064768Y-106944501D01*
X124944549Y-107036749D01*
X124852301Y-107156968D01*
X124794313Y-107296964D01*
X124788074Y-107344357D01*
X124779500Y-107409480D01*
X124779500Y-108134920D01*
X124794313Y-108247436D01*
X124852302Y-108387433D01*
X124944549Y-108507651D01*
X125064767Y-108599898D01*
X125204764Y-108657887D01*
X125317280Y-108672700D01*
X125321333Y-108672700D01*
X126138667Y-108672700D01*
X126142720Y-108672700D01*
X126255236Y-108657887D01*
X126395233Y-108599898D01*
X126515451Y-108507651D01*
X126607698Y-108387433D01*
X126665687Y-108247436D01*
X126680500Y-108134920D01*
X126680500Y-107409480D01*
X126680579Y-107411895D01*
X126695692Y-107344357D01*
X126716488Y-107316748D01*
X126945420Y-107087818D01*
X127006743Y-107054334D01*
X127033101Y-107051500D01*
X127250409Y-107051500D01*
X127317448Y-107071185D01*
X127363203Y-107123989D01*
X127373147Y-107193147D01*
X127364970Y-107222953D01*
X127334312Y-107296964D01*
X127326101Y-107359338D01*
X127319500Y-107409480D01*
X127319500Y-108134920D01*
X127334313Y-108247436D01*
X127392302Y-108387433D01*
X127484549Y-108507651D01*
X127604767Y-108599898D01*
X127744764Y-108657887D01*
X127857280Y-108672700D01*
X127861333Y-108672700D01*
X128678667Y-108672700D01*
X128682720Y-108672700D01*
X128795236Y-108657887D01*
X128935233Y-108599898D01*
X129055451Y-108507651D01*
X129147698Y-108387433D01*
X129205687Y-108247436D01*
X129220500Y-108134920D01*
X129220500Y-107409480D01*
X129205687Y-107296964D01*
X129175029Y-107222951D01*
X129167561Y-107153484D01*
X129198836Y-107091005D01*
X129258924Y-107055352D01*
X129289591Y-107051500D01*
X129790409Y-107051500D01*
X129857448Y-107071185D01*
X129903203Y-107123989D01*
X129913147Y-107193147D01*
X129904970Y-107222953D01*
X129874312Y-107296964D01*
X129866101Y-107359338D01*
X129859500Y-107409480D01*
X129859500Y-108134920D01*
X129874313Y-108247436D01*
X129932302Y-108387433D01*
X130024549Y-108507651D01*
X130144767Y-108599898D01*
X130284764Y-108657887D01*
X130397280Y-108672700D01*
X130401333Y-108672700D01*
X131218667Y-108672700D01*
X131222720Y-108672700D01*
X131335236Y-108657887D01*
X131475233Y-108599898D01*
X131595451Y-108507651D01*
X131687698Y-108387433D01*
X131745687Y-108247436D01*
X131760500Y-108134920D01*
X131760500Y-107409480D01*
X131745687Y-107296964D01*
X131715029Y-107222951D01*
X131707561Y-107153484D01*
X131738836Y-107091005D01*
X131798924Y-107055352D01*
X131829591Y-107051500D01*
X132330409Y-107051500D01*
X132397448Y-107071185D01*
X132443203Y-107123989D01*
X132453147Y-107193147D01*
X132444970Y-107222953D01*
X132414312Y-107296964D01*
X132406101Y-107359338D01*
X132399500Y-107409480D01*
X132399500Y-108134920D01*
X132414313Y-108247436D01*
X132472302Y-108387433D01*
X132564549Y-108507651D01*
X132684767Y-108599898D01*
X132824764Y-108657887D01*
X132937280Y-108672700D01*
X132941333Y-108672700D01*
X133758667Y-108672700D01*
X133762720Y-108672700D01*
X133875236Y-108657887D01*
X134015233Y-108599898D01*
X134135451Y-108507651D01*
X134227698Y-108387433D01*
X134285687Y-108247436D01*
X134300500Y-108134920D01*
X134300500Y-107409480D01*
X134285687Y-107296964D01*
X134255029Y-107222951D01*
X134247561Y-107153484D01*
X134278836Y-107091005D01*
X134338924Y-107055352D01*
X134369591Y-107051500D01*
X134870409Y-107051500D01*
X134937448Y-107071185D01*
X134983203Y-107123989D01*
X134993147Y-107193147D01*
X134984970Y-107222953D01*
X134954312Y-107296964D01*
X134946101Y-107359338D01*
X134939500Y-107409480D01*
X134939500Y-108134920D01*
X134954313Y-108247436D01*
X135012302Y-108387433D01*
X135104549Y-108507651D01*
X135224767Y-108599898D01*
X135364764Y-108657887D01*
X135477280Y-108672700D01*
X135481333Y-108672700D01*
X136298667Y-108672700D01*
X136302720Y-108672700D01*
X136415236Y-108657887D01*
X136555233Y-108599898D01*
X136675451Y-108507651D01*
X136767698Y-108387433D01*
X136825687Y-108247436D01*
X136840500Y-108134920D01*
X136840500Y-107409480D01*
X136825687Y-107296964D01*
X136795029Y-107222951D01*
X136787561Y-107153484D01*
X136818836Y-107091005D01*
X136878924Y-107055352D01*
X136909591Y-107051500D01*
X137410409Y-107051500D01*
X137477448Y-107071185D01*
X137523203Y-107123989D01*
X137533147Y-107193147D01*
X137524970Y-107222953D01*
X137494312Y-107296964D01*
X137486101Y-107359338D01*
X137479500Y-107409480D01*
X137479500Y-108134920D01*
X137494313Y-108247436D01*
X137552302Y-108387433D01*
X137644549Y-108507651D01*
X137764767Y-108599898D01*
X137904764Y-108657887D01*
X138017280Y-108672700D01*
X138021333Y-108672700D01*
X138838667Y-108672700D01*
X138842720Y-108672700D01*
X138955236Y-108657887D01*
X139095233Y-108599898D01*
X139215451Y-108507651D01*
X139307698Y-108387433D01*
X139365687Y-108247436D01*
X139380500Y-108134920D01*
X139380500Y-107409480D01*
X139365687Y-107296964D01*
X139335029Y-107222951D01*
X139327561Y-107153484D01*
X139358836Y-107091005D01*
X139418924Y-107055352D01*
X139449591Y-107051500D01*
X139950409Y-107051500D01*
X140017448Y-107071185D01*
X140063203Y-107123989D01*
X140073147Y-107193147D01*
X140064970Y-107222953D01*
X140034312Y-107296964D01*
X140026101Y-107359338D01*
X140019500Y-107409480D01*
X140019500Y-108134920D01*
X140034313Y-108247436D01*
X140092302Y-108387433D01*
X140184549Y-108507651D01*
X140304767Y-108599898D01*
X140444764Y-108657887D01*
X140557280Y-108672700D01*
X140561333Y-108672700D01*
X141378667Y-108672700D01*
X141382720Y-108672700D01*
X141495236Y-108657887D01*
X141635233Y-108599898D01*
X141755451Y-108507651D01*
X141847698Y-108387433D01*
X141905687Y-108247436D01*
X141920500Y-108134920D01*
X141920500Y-107409480D01*
X141905687Y-107296964D01*
X141875029Y-107222951D01*
X141867561Y-107153484D01*
X141898836Y-107091005D01*
X141958924Y-107055352D01*
X141989591Y-107051500D01*
X142490409Y-107051500D01*
X142557448Y-107071185D01*
X142603203Y-107123989D01*
X142613147Y-107193147D01*
X142604970Y-107222953D01*
X142574312Y-107296964D01*
X142566101Y-107359338D01*
X142559500Y-107409480D01*
X142559500Y-108134920D01*
X142574313Y-108247436D01*
X142632302Y-108387433D01*
X142724549Y-108507651D01*
X142844767Y-108599898D01*
X142984764Y-108657887D01*
X143097280Y-108672700D01*
X143101333Y-108672700D01*
X143918667Y-108672700D01*
X143922720Y-108672700D01*
X144035236Y-108657887D01*
X144175233Y-108599898D01*
X144295451Y-108507651D01*
X144387698Y-108387433D01*
X144445687Y-108247436D01*
X144460500Y-108134920D01*
X144460500Y-107409480D01*
X144445687Y-107296964D01*
X144416686Y-107226951D01*
X144409218Y-107157484D01*
X144440493Y-107095004D01*
X144500582Y-107059352D01*
X144531248Y-107055500D01*
X145335101Y-107055500D01*
X145402140Y-107075185D01*
X145422782Y-107091819D01*
X149176850Y-110845888D01*
X149192976Y-110865744D01*
X149198916Y-110874836D01*
X149223890Y-110894274D01*
X149235408Y-110904446D01*
X149235482Y-110904520D01*
X149245410Y-110911608D01*
X149252399Y-110916598D01*
X149256508Y-110919662D01*
X149304041Y-110956658D01*
X149304232Y-110956757D01*
X149338601Y-110966988D01*
X149361955Y-110973941D01*
X149366792Y-110975490D01*
X149416340Y-110992500D01*
X149423797Y-110995060D01*
X149424030Y-110995093D01*
X149431909Y-110994767D01*
X149431912Y-110994768D01*
X149484193Y-110992605D01*
X149489316Y-110992500D01*
X152729195Y-110992500D01*
X152754641Y-110995139D01*
X152758440Y-110995935D01*
X152765268Y-110997367D01*
X152795138Y-110993643D01*
X152796677Y-110993452D01*
X152812014Y-110992500D01*
X152812111Y-110992500D01*
X152812114Y-110992500D01*
X152832643Y-110989073D01*
X152837659Y-110988342D01*
X152889626Y-110981866D01*
X152889628Y-110981864D01*
X152897457Y-110980889D01*
X152897666Y-110980822D01*
X152904607Y-110977065D01*
X152904610Y-110977065D01*
X152950666Y-110952140D01*
X152955144Y-110949835D01*
X153002211Y-110926826D01*
X153002212Y-110926824D01*
X153009308Y-110923356D01*
X153009476Y-110923230D01*
X153014824Y-110917419D01*
X153014826Y-110917419D01*
X153050294Y-110878889D01*
X153053795Y-110875240D01*
X153387217Y-110541818D01*
X153448540Y-110508334D01*
X153474898Y-110505500D01*
X153621985Y-110505500D01*
X153775365Y-110467696D01*
X153915240Y-110394283D01*
X154033483Y-110289530D01*
X154123220Y-110159523D01*
X154179237Y-110011818D01*
X154198278Y-109855000D01*
X154179237Y-109698182D01*
X154123220Y-109550477D01*
X154049850Y-109444182D01*
X154033484Y-109420471D01*
X154024181Y-109412229D01*
X153915240Y-109315717D01*
X153878580Y-109296476D01*
X153775364Y-109242303D01*
X153621985Y-109204500D01*
X153464015Y-109204500D01*
X153310635Y-109242303D01*
X153170761Y-109315716D01*
X153052515Y-109420471D01*
X152962780Y-109550476D01*
X152906763Y-109698181D01*
X152887721Y-109855000D01*
X152893896Y-109905853D01*
X152882435Y-109974777D01*
X152858481Y-110008480D01*
X152661781Y-110205181D01*
X152600458Y-110238666D01*
X152574100Y-110241500D01*
X151537157Y-110241500D01*
X151470118Y-110221815D01*
X151424363Y-110169011D01*
X151414419Y-110099853D01*
X151443444Y-110036297D01*
X151454925Y-110024688D01*
X151493483Y-109990530D01*
X151583220Y-109860523D01*
X151639237Y-109712818D01*
X151658278Y-109556000D01*
X151639237Y-109399182D01*
X151583220Y-109251477D01*
X151509159Y-109144181D01*
X151493484Y-109121471D01*
X151452884Y-109085503D01*
X151375240Y-109016717D01*
X151361994Y-109009764D01*
X151235364Y-108943303D01*
X151081985Y-108905500D01*
X150924015Y-108905500D01*
X150770635Y-108943303D01*
X150630761Y-109016716D01*
X150512515Y-109121471D01*
X150508743Y-109126938D01*
X150454462Y-109170929D01*
X150406692Y-109180500D01*
X149386899Y-109180500D01*
X149319860Y-109160815D01*
X149299218Y-109144181D01*
X146406219Y-106251181D01*
X146372734Y-106189858D01*
X146377718Y-106120166D01*
X146419590Y-106064233D01*
X146485054Y-106039816D01*
X146493900Y-106039500D01*
X160702101Y-106039500D01*
X160769140Y-106059185D01*
X160789782Y-106075819D01*
X164288481Y-109574518D01*
X164321966Y-109635841D01*
X164323896Y-109677144D01*
X164317721Y-109727998D01*
X164336763Y-109884818D01*
X164392780Y-110032523D01*
X164482515Y-110162528D01*
X164482516Y-110162529D01*
X164482517Y-110162530D01*
X164600760Y-110267283D01*
X164740635Y-110340696D01*
X164894015Y-110378500D01*
X165051985Y-110378500D01*
X165205365Y-110340696D01*
X165345240Y-110267283D01*
X165463483Y-110162530D01*
X165553220Y-110032523D01*
X165609237Y-109884818D01*
X165628278Y-109728000D01*
X165609237Y-109571182D01*
X165553220Y-109423477D01*
X165463483Y-109293470D01*
X165345240Y-109188717D01*
X165311348Y-109170929D01*
X165205364Y-109115303D01*
X165051985Y-109077500D01*
X164904900Y-109077500D01*
X164837861Y-109057815D01*
X164817219Y-109041181D01*
X161211149Y-105435111D01*
X161195022Y-105415253D01*
X161189083Y-105406162D01*
X161164110Y-105386725D01*
X161152593Y-105376554D01*
X161152519Y-105376480D01*
X161135594Y-105364397D01*
X161131480Y-105361330D01*
X161090189Y-105329191D01*
X161090186Y-105329190D01*
X161083963Y-105324346D01*
X161083761Y-105324242D01*
X161076200Y-105321990D01*
X161076199Y-105321990D01*
X161026036Y-105307055D01*
X161021174Y-105305497D01*
X161002637Y-105299134D01*
X160964202Y-105285939D01*
X160963969Y-105285906D01*
X160924265Y-105287548D01*
X160903806Y-105288394D01*
X160898684Y-105288500D01*
X122860805Y-105288500D01*
X122835359Y-105285861D01*
X122824733Y-105283633D01*
X122824732Y-105283633D01*
X122806858Y-105285861D01*
X122793323Y-105287548D01*
X122777986Y-105288500D01*
X122777884Y-105288500D01*
X122757399Y-105291918D01*
X122752332Y-105292657D01*
X122692567Y-105300107D01*
X122692312Y-105300189D01*
X122639370Y-105328838D01*
X122634820Y-105331180D01*
X122580715Y-105357632D01*
X122580505Y-105357788D01*
X122539719Y-105402093D01*
X122536172Y-105405789D01*
X121673781Y-106268181D01*
X121612458Y-106301666D01*
X121586100Y-106304500D01*
X119812803Y-106304500D01*
X119787357Y-106301861D01*
X119776731Y-106299633D01*
X119745324Y-106303548D01*
X119729987Y-106304500D01*
X119729886Y-106304500D01*
X119709359Y-106307924D01*
X119704300Y-106308661D01*
X119644556Y-106316109D01*
X119644316Y-106316186D01*
X119591359Y-106344844D01*
X119586805Y-106347188D01*
X119532721Y-106373628D01*
X119532506Y-106373788D01*
X119491729Y-106418082D01*
X119488183Y-106421777D01*
X119151108Y-106758852D01*
X119131254Y-106774976D01*
X119122165Y-106780914D01*
X119102722Y-106805894D01*
X119092563Y-106817398D01*
X119092484Y-106817476D01*
X119092479Y-106817482D01*
X119092480Y-106817482D01*
X119080390Y-106834414D01*
X119077341Y-106838504D01*
X119040354Y-106886024D01*
X119040237Y-106886253D01*
X119023057Y-106943955D01*
X119021495Y-106948831D01*
X119001941Y-107005792D01*
X119001906Y-107006034D01*
X119002231Y-107013912D01*
X119002232Y-107013912D01*
X119004384Y-107065962D01*
X119004394Y-107066191D01*
X119004500Y-107071315D01*
X119004500Y-109287700D01*
X118984815Y-109354739D01*
X118932011Y-109400494D01*
X118880500Y-109411700D01*
X118655325Y-109411700D01*
X118582261Y-109426233D01*
X118499399Y-109481599D01*
X118444033Y-109564461D01*
X118429500Y-109637525D01*
X118429500Y-110986874D01*
X117094500Y-110986874D01*
X117094500Y-104907410D01*
X117094972Y-104896604D01*
X117098481Y-104856494D01*
X117111209Y-104727264D01*
X117114831Y-104707359D01*
X117132434Y-104641664D01*
X117133523Y-104637852D01*
X117161809Y-104544605D01*
X117168074Y-104528230D01*
X117199308Y-104461249D01*
X117202273Y-104455318D01*
X117245498Y-104374449D01*
X117253244Y-104361840D01*
X117296820Y-104299607D01*
X117302486Y-104292140D01*
X117359492Y-104222678D01*
X117367626Y-104213704D01*
X117421704Y-104159626D01*
X117430678Y-104151492D01*
X117500140Y-104094486D01*
X117507607Y-104088820D01*
X117569840Y-104045244D01*
X117582449Y-104037498D01*
X117663318Y-103994273D01*
X117669249Y-103991308D01*
X117736230Y-103960074D01*
X117752605Y-103953809D01*
X117845852Y-103925523D01*
X117849664Y-103924434D01*
X117915354Y-103906832D01*
X117935271Y-103903209D01*
X118064494Y-103890481D01*
X118104641Y-103886968D01*
X118115400Y-103886500D01*
X175381590Y-103886500D01*
X175392393Y-103886971D01*
G37*
G04 #@! TD.AperFunction*
M02*
