M48
; DRILL file {KiCad 7.0.2-0} date 2023 August 04, Friday 17:59:25
; FORMAT={-:-/ absolute / metric / decimal}
; #@! TF.CreationDate,2023-08-04T17:59:25+02:00
; #@! TF.GenerationSoftware,Kicad,Pcbnew,7.0.2-0
; #@! TF.FileFunction,Plated,1,4,PTH
FMAT,2
METRIC
; #@! TA.AperFunction,Plated,PTH,ViaDrill
T1C0.400
; #@! TA.AperFunction,Plated,PTH,ComponentDrill
T2C0.800
; #@! TA.AperFunction,Plated,PTH,ComponentDrill
T3C1.200
%
G90
G05
T1
X50.165Y-57.023
X50.165Y-64.262
X50.165Y-95.758
X50.165Y-102.743
X50.165Y-110.236
X50.165Y-117.348
X50.165Y-124.968
X53.721Y-90.297
X54.483Y-105.029
X57.277Y-83.566
X59.512Y-73.838
X59.969Y-88.671
X60.681Y-89.941
X61.036Y-73.584
X61.571Y-92.759
X62.052Y-126.162
X62.23Y-135.128
X62.255Y-127.787
X62.49Y-95.174
X62.56Y-90.754
X62.814Y-84.252
X62.814Y-86.741
X62.865Y-74.803
X62.865Y-78.105
X62.865Y-92.024
X63.17Y-67.437
X63.271Y-126.162
X63.525Y-70.587
X63.754Y-64.008
X63.932Y-69.012
X64.135Y-81.28
X64.135Y-82.982
X64.135Y-97.028
X64.135Y-109.601
X64.192Y-127.076
X64.287Y-91.821
X65.405Y-82.804
X65.405Y-118.364
X65.659Y-114.3
X66.015Y-71.145
X66.573Y-83.134
X66.675Y-98.984
X66.675Y-118.11
X66.929Y-126.924
X67.31Y-113.919
X67.742Y-83.744
X67.945Y-91.719
X67.945Y-117.729
X68.58Y-59.436
X68.58Y-70.841
X68.58Y-103.124
X69.215Y-91.77
X69.215Y-117.475
X69.85Y-70.485
X69.85Y-102.489
X69.977Y-135.128
X70.434Y-126.975
X70.485Y-82.525
X70.485Y-91.77
X70.485Y-117.221
X71.12Y-102.108
X71.755Y-70.841
X71.755Y-91.719
X71.755Y-116.84
X72.39Y-101.854
X73.025Y-91.77
X73.025Y-116.586
X73.66Y-69.164
X73.66Y-101.473
X74.143Y-126.975
X74.295Y-91.77
X74.295Y-116.205
X74.93Y-59.436
X74.93Y-70.434
X74.93Y-101.219
X75.565Y-66.472
X75.565Y-81.001
X75.565Y-91.77
X75.565Y-115.951
X76.2Y-100.838
X76.835Y-82.829
X76.88Y-80.879
X77.47Y-100.584
X77.47Y-135.128
X77.851Y-92.38
X78.105Y-115.316
X78.15Y-80.797
X78.463Y-83.055
X79.375Y-115.951
X79.465Y-80.727
X79.731Y-83.349
X80.645Y-91.948
X80.645Y-104.521
X80.645Y-125.349
X80.696Y-80.727
X81.001Y-97.805
X81.001Y-115.951
X81.051Y-114.63
X81.153Y-59.436
X81.346Y-129.654
X81.712Y-108.89
X81.864Y-76.378
X82.2Y-100.762
X82.677Y-64.948
X83.033Y-110.363
X83.236Y-111.735
X83.337Y-66.116
X83.541Y-95.326
X83.541Y-105.08
X83.82Y-126.492
X84.15Y-85.319
X84.181Y-93.269
X84.252Y-84.252
X84.312Y-66.837
X84.328Y-56.261
X84.353Y-89.484
X84.37Y-65.875
X84.506Y-86.995
X84.618Y-115.301
X84.709Y-116.865
X84.811Y-88.214
X84.811Y-114.275
X85.09Y-98.552
X85.115Y-118.186
X85.217Y-135.128
X85.268Y-72.212
X85.319Y-80.035
X85.319Y-81.864
X85.344Y-91.313
X85.369Y-119.456
X85.435Y-105.167
X85.522Y-89.179
X85.573Y-82.829
X85.674Y-120.675
X85.928Y-107.518
X86.03Y-73.127
X86.614Y-64.135
X86.639Y-55.905
X86.741Y-126.492
X86.995Y-98.552
X87.884Y-59.182
X87.909Y-67.386
X88.773Y-121.996
X89.154Y-70.739
X89.535Y-74.041
X89.586Y-64.033
X89.662Y-126.492
X89.891Y-122.301
X90.17Y-57.15
X90.805Y-61.087
X90.805Y-97.46
X90.805Y-122.809
X91.821Y-115.316
X91.923Y-105.74
X91.923Y-73.837
X92.075Y-85.471
X92.075Y-97.46
X92.126Y-66.015
X92.685Y-72.974
X92.685Y-98.425
X92.837Y-81.813
X92.837Y-135.128
X93.218Y-56.261
X93.243Y-90.418
X93.243Y-91.669
X93.313Y-73.99
X93.345Y-65.811
X93.345Y-97.46
X93.497Y-113.411
X93.69Y-114.489
X93.853Y-85.471
X93.904Y-106.959
X94.005Y-98.425
X94.31Y-91.008
X94.31Y-105.385
X94.412Y-92.278
X94.513Y-81.813
X94.564Y-73.685
X94.615Y-97.46
X94.664Y-108.159
X94.767Y-67.183
X94.92Y-109.734
X95.225Y-72.771
X95.275Y-98.425
X95.428Y-114.783
X95.439Y-107.507
X95.58Y-113.259
X95.677Y-108.815
X95.682Y-105.975
X95.834Y-73.685
X95.885Y-67.843
X96.037Y-80.747
X96.149Y-110.067
X96.19Y-66.167
X96.19Y-97.46
X96.495Y-72.822
X96.719Y-107.954
X96.85Y-98.425
X96.952Y-67.335
X97.155Y-55.601
X97.257Y-60.731
X97.257Y-106.279
X97.409Y-73.736
X97.765Y-97.155
X97.815Y-122.657
X98.019Y-98.374
X98.12Y-72.822
X98.222Y-108.585
X98.298Y-59.182
X98.298Y-111.506
X98.476Y-66.827
X98.679Y-81.026
X99.035Y-73.787
X99.06Y-104.394
X99.085Y-57.429
X99.263Y-115.062
X99.314Y-97.155
X99.492Y-114.021
X99.695Y-55.601
X100.139Y-72.326
X100.203Y-73.533
X100.254Y-80.747
X100.33Y-135.128
X100.559Y-114.071
X100.711Y-69.825
X100.838Y-62.738
X100.838Y-64.262
X100.914Y-96.85
X100.965Y-115.189
X101.371Y-70.79
X101.829Y-79.781
X101.829Y-80.95
X102.235Y-68.707
X102.235Y-104.775
X102.286Y-106.045
X102.337Y-127.025
X102.489Y-70.841
X102.616Y-73.914
X102.794Y-114.681
X102.87Y-55.499
X103.378Y-99.212
X103.403Y-97.937
X103.505Y-115.494
X103.556Y-104.775
X103.556Y-106.045
X103.708Y-111.989
X103.759Y-114.122
X104.064Y-79.731
X104.14Y-66.548
X104.623Y-112.751
X104.623Y-115.748
X104.724Y-78.816
X104.871Y-91.872
X104.978Y-113.919
X105.385Y-79.731
X105.435Y-71.095
X105.537Y-84.201
X105.537Y-69.571
X105.639Y-116.307
X105.664Y-105.537
X105.689Y-55.55
X105.689Y-112.954
X105.918Y-90.678
X106.045Y-78.816
X106.197Y-124.841
X106.655Y-79.731
X106.909Y-84.506
X106.959Y-62.814
X106.959Y-127.635
X107.081Y-69.774
X107.34Y-90.322
X107.366Y-71.196
X107.823Y-126.568
X107.856Y-125.067
X107.975Y-55.55
X108.077Y-135.128
X108.229Y-117.018
X108.687Y-90.348
X108.737Y-62.763
X108.89Y-123.723
X108.915Y-91.598
X109.398Y-81.712
X109.474Y-111.76
X109.499Y-116.103
X109.523Y-114.415
X109.608Y-89.695
X109.703Y-110.16
X110.261Y-124.028
X110.363Y-77.851
X110.414Y-94.818
X110.49Y-55.499
X112.776Y-98.806
X112.903Y-122.504
X113.03Y-55.626
X114.554Y-98.044
X114.884Y-74.701
X114.935Y-78.105
X114.986Y-80.696
X114.986Y-90.418
X114.986Y-91.669
X115.087Y-119.456
X115.316Y-95.885
X115.57Y-55.626
X115.57Y-67.615
X115.697Y-135.128
X115.951Y-89.828
X116.002Y-91.161
X116.205Y-104.14
X116.256Y-119.05
X116.408Y-120.574
X116.561Y-110.312
X116.662Y-100.101
X116.815Y-88.062
X116.916Y-117.221
X117.373Y-99.187
X117.373Y-119.355
X117.424Y-130.144
X117.526Y-120.625
X117.78Y-103.657
X117.983Y-74.244
X117.983Y-100.121
X117.983Y-105.486
X118.11Y-55.626
X118.11Y-67.564
X118.694Y-99.136
X118.745Y-92.583
X119.253Y-120.015
X119.304Y-100.121
X119.507Y-121.793
X119.888Y-80.391
X119.945Y-99.117
X120.218Y-102.215
X120.472Y-120.269
X120.574Y-100.121
X120.65Y-55.626
X120.675Y-61.849
X120.777Y-104.013
X121.59Y-99.085
X121.895Y-102.032
X122.098Y-104.013
X122.809Y-120.797
X123.114Y-81.966
X123.114Y-124.79
X123.19Y-55.626
X123.215Y-61.849
X123.419Y-101.676
X123.673Y-103.13
X123.825Y-120.625
X123.825Y-135.128
X124.13Y-100.914
X124.435Y-105.283
X125.501Y-101.676
X125.73Y-55.626
X126.009Y-123.063
X126.06Y-120.726
X127.279Y-90.551
X127.33Y-103.739
X127.483Y-86.385
X127.584Y-80.035
X127.635Y-64.694
X127.635Y-88.113
X127.737Y-92.024
X128.27Y-55.626
X128.499Y-90.957
X128.702Y-80.035
X128.803Y-121.996
X128.905Y-86.487
X128.905Y-87.605
X128.956Y-91.821
X129.464Y-69.266
X129.616Y-89.535
X130.175Y-55.753
X130.175Y-64.745
X130.175Y-86.741
X130.734Y-69.215
X130.734Y-90.653
X130.988Y-91.77
X131.089Y-93.04
X131.699Y-122.149
X131.851Y-80.493
X131.953Y-96.749
X132.08Y-103.454
X132.207Y-135.128
X132.359Y-91.547
X132.613Y-93.142
X133.121Y-80.493
X133.172Y-122.371
X133.274Y-69.52
X133.274Y-87.3
X133.35Y-55.626
X133.375Y-67.742
X133.375Y-118.694
X133.477Y-60.427
X133.68Y-90.43
X133.782Y-79.426
X134.239Y-98.298
X134.391Y-80.493
X134.696Y-129.918
X135.052Y-79.477
X135.079Y-90.451
X135.204Y-122.352
X135.509Y-118.745
X135.732Y-80.493
X135.814Y-69.539
X135.865Y-94.564
X135.89Y-55.626
X136.322Y-79.477
X136.982Y-80.493
X136.982Y-91.567
X137.115Y-90.145
X138.151Y-69.469
X138.303Y-91.516
X138.405Y-90.145
X138.405Y-98.222
X138.405Y-103.2
X138.405Y-118.389
X138.43Y-55.626
X138.455Y-80.366
X138.659Y-122.352
X139.675Y-90.145
X139.725Y-97.765
X139.827Y-125.959
X140.081Y-79.832
X140.335Y-135.128
X140.502Y-96.001
X140.843Y-80.696
X140.894Y-118.186
X140.945Y-90.145
X140.945Y-91.516
X140.97Y-55.626
X140.995Y-69.215
X141.097Y-123.438
X141.148Y-121.082
X141.3Y-79.711
X141.563Y-125.786
X141.859Y-85.979
X142.164Y-95.479
X142.215Y-126.619
X142.265Y-121.183
X142.352Y-91.567
X142.355Y-80.991
X142.418Y-123.114
X142.469Y-79.731
X142.793Y-125.47
X142.805Y-113.157
X143.18Y-122.25
X143.383Y-121.133
X143.485Y-80.34
X143.51Y-55.626
X143.586Y-86.335
X143.687Y-117.685
X143.688Y-126.975
X143.789Y-116.764
X143.821Y-109.093
X143.891Y-123.317
X143.993Y-91.973
X144.247Y-85.369
X144.297Y-95.631
X144.399Y-84.099
X144.399Y-111.43
X144.45Y-79.883
X144.907Y-127.991
X144.958Y-126.873
X145.01Y-110.333
X145.161Y-108.687
X145.212Y-91.008
X145.415Y-83.572
X145.517Y-80.289
X145.618Y-111.074
X145.771Y-85.776
X145.821Y-89.789
X145.923Y-94.615
X145.934Y-112.101
X146.05Y-55.626
X146.05Y-63.119
X146.658Y-79.914
X146.837Y-83.318
X146.888Y-111.074
X146.888Y-129.108
X147.041Y-121.387
X147.142Y-114.732
X147.253Y-112.062
X147.295Y-113.513
X147.65Y-67.64
X148.158Y-111.481
X148.432Y-112.803
X148.59Y-135.128
X148.615Y-55.296
X149.047Y-119.38
X149.059Y-114.599
X149.581Y-67.64
X149.784Y-112.497
X150.002Y-113.832
X150.201Y-105.771
X150.8Y-112.731
X150.837Y-90.5
X150.952Y-91.719
X150.952Y-92.989
X151.003Y-79.223
X151.003Y-88.976
X151.003Y-95.346
X151.034Y-119.145
X151.105Y-80.594
X151.13Y-63.881
X151.155Y-55.347
X151.206Y-74.447
X151.542Y-83.357
X151.573Y-115.984
X151.725Y-81.672
X151.816Y-93.751
X151.867Y-92.341
X151.968Y-89.707
X152.121Y-63.068
X152.186Y-79.513
X152.222Y-107.213
X152.273Y-90.957
X152.425Y-82.575
X152.465Y-80.888
X152.476Y-114.986
X152.785Y-113.211
X153.086Y-89.941
X153.289Y-63.881
X153.34Y-119.609
X153.492Y-61.697
X153.543Y-112.598
X153.746Y-55.347
X154.051Y-108.249
X154.153Y-62.967
X154.407Y-68.758
X154.651Y-114.519
X154.661Y-67.285
X154.762Y-60.325
X154.864Y-61.677
X154.915Y-56.515
X154.915Y-57.785
X154.915Y-116.561
X155.169Y-69.672
X155.524Y-63.627
X155.677Y-119.609
X155.88Y-57.175
X155.88Y-126.467
X155.981Y-62.154
X156.439Y-113.309
X156.591Y-67.589
X156.845Y-135.128
X157.048Y-57.359
X157.201Y-102.133
X157.404Y-103.403
X157.505Y-60.274
X157.505Y-61.544
X157.505Y-62.795
X157.505Y-119.863
X157.658Y-114.884
X158.369Y-55.651
X158.369Y-59.157
X158.471Y-74.193
X158.478Y-73.025
X158.623Y-62.205
X158.674Y-60.935
X158.674Y-83.744
X159.131Y-114.833
X159.182Y-119.761
X159.233Y-65.862
X159.372Y-72.149
X159.537Y-93.04
X159.588Y-117.119
X160.096Y-70.841
X160.401Y-65.862
X160.401Y-115.138
X160.503Y-119.659
X160.757Y-116.846
X160.807Y-73.736
X160.929Y-71.399
X160.929Y-72.568
X160.929Y-74.854
X160.929Y-75.991
X161.404Y-115.322
X161.773Y-104.978
X161.809Y-116.592
X162.484Y-115.576
X162.992Y-106.756
X165.1Y-135.128
X165.786Y-104.165
X165.919Y-66.386
X166.116Y-72.644
X166.497Y-77.089
X167.208Y-65.796
X167.798Y-72.39
X167.818Y-59.817
X168.326Y-83.185
X168.402Y-78.232
X169.068Y-77.292
X169.418Y-78.867
X169.901Y-99.035
X169.901Y-100.406
X170.104Y-102.895
X170.307Y-95.682
X170.358Y-77.292
X170.409Y-88.265
X170.409Y-94.717
X170.561Y-114.63
X170.917Y-101.422
X170.967Y-79.578
X170.967Y-83.744
X171.069Y-113.716
X171.628Y-77.292
X171.628Y-110.82
X172.136Y-109.55
X172.237Y-73.578
X172.237Y-79.781
X172.237Y-81.153
X172.288Y-101.422
X172.898Y-77.343
X172.898Y-83.134
X172.898Y-111.379
X172.898Y-131.191
X173.05Y-113.899
X173.304Y-80.391
X173.355Y-135.128
X173.406Y-98.425
X173.507Y-100.031
X173.507Y-109.957
X173.609Y-129.819
X173.66Y-125.552
X173.914Y-121.234
X174.052Y-111.11
X174.117Y-127.533
X174.219Y-130.886
X174.397Y-114.016
X175.082Y-110.515
X175.285Y-111.633
X175.438Y-113.849
X175.52Y-87.796
X175.743Y-120.777
X175.768Y-57.658
X175.793Y-118.694
X176.047Y-109.601
X176.434Y-106.451
X176.759Y-96.545
X176.809Y-97.612
X177.216Y-113.716
X177.267Y-109.753
X177.775Y-106.096
X177.775Y-107.315
X177.876Y-111.227
X178.029Y-80.899
X178.029Y-84.252
X178.029Y-96.545
X178.079Y-95.275
X178.079Y-97.663
X178.333Y-125.451
X178.638Y-70.688
X178.689Y-120.117
X178.725Y-114.514
X178.943Y-110.617
X179.248Y-106.858
X179.4Y-81.102
X179.451Y-94.259
X179.451Y-96.596
X179.654Y-131.496
X179.705Y-95.529
X179.857Y-114.021
X179.857Y-115.24
X179.936Y-70.549
X180.111Y-112.09
X180.416Y-101.473
X180.67Y-108.89
X180.772Y-106.147
X180.772Y-107.671
X180.975Y-135.128
X181.026Y-88.011
X181.178Y-113.767
X181.229Y-119.151
X181.28Y-69.297
X181.432Y-82.829
X181.61Y-57.658
X181.737Y-108.28
X181.889Y-112.751
X182.093Y-88.316
X182.245Y-124.079
X182.347Y-113.868
X182.347Y-119.253
X182.499Y-70.688
X182.499Y-122.758
X182.804Y-121.133
X182.855Y-80.442
X182.956Y-112.954
X183.109Y-83.947
X183.159Y-90.907
X183.413Y-88.113
X183.464Y-98.679
X183.566Y-95.021
X183.82Y-68.199
X183.89Y-77.953
X183.89Y-79.172
X183.89Y-80.391
X183.972Y-72.873
X183.972Y-120.726
X184.429Y-92.227
X184.582Y-71.806
X184.582Y-125.572
X184.683Y-88.113
X184.734Y-73.889
X184.734Y-75.006
X184.734Y-104.978
X184.734Y-122.149
X184.765Y-123.531
X184.887Y-90.907
X184.988Y-120.929
X185.166Y-67.691
X185.191Y-129.769
X185.395Y-111.176
X185.496Y-91.872
X185.547Y-124.739
X185.852Y-114.224
X185.953Y-113.055
X186.055Y-65.557
X186.106Y-82.779
X186.157Y-102.591
X186.207Y-90.907
X186.461Y-89.789
X186.817Y-122.606
X186.919Y-98.12
X186.919Y-99.644
X186.929Y-114.153
X186.969Y-96.647
X187.136Y-124.471
X187.173Y-101.422
X187.223Y-88.722
X187.274Y-107.213
X187.528Y-58.75
X187.579Y-89.84
X187.884Y-123.469
X187.96Y-135.128
X187.985Y-120.117
X188.087Y-96.088
X188.087Y-97.409
X188.087Y-98.679
X188.087Y-100.203
X188.138Y-121.387
X188.239Y-108.941
X188.493Y-82.525
X188.544Y-104.521
X188.747Y-89.332
X189.052Y-123.114
X189.13Y-100.912
X189.154Y-88.265
X189.205Y-95.885
X189.205Y-97.765
X189.205Y-99.289
X189.255Y-83.947
X189.306Y-121.641
X189.662Y-82.321
X189.763Y-66.624
X189.789Y-119.888
X189.967Y-61.646
X190.17Y-59.411
X190.373Y-47.777
X190.475Y-94.463
X190.627Y-101.879
X190.83Y-82.271
X191.414Y-97.18
X191.592Y-87.96
X191.694Y-114.021
X191.948Y-58.699
X191.999Y-81.763
X192.303Y-108.636
X193.167Y-82.423
X193.167Y-87.909
X193.421Y-108.331
X193.624Y-100.457
X194.081Y-94.666
X194.183Y-113.563
X194.285Y-87.909
X194.335Y-109.753
X194.488Y-92.837
X194.488Y-95.58
X194.691Y-81.255
X194.793Y-64.592
X194.894Y-68.25
X194.91Y-108.601
X195.148Y-94.513
X195.199Y-111.43
X195.25Y-58.445
X195.453Y-110.007
X195.605Y-82.118
X195.656Y-83.693
X195.809Y-91.669
X196.012Y-95.936
X196.113Y-101.575
X196.113Y-108.382
X196.367Y-81.001
X196.977Y-82.017
X197.282Y-111.379
X197.333Y-90.856
X197.688Y-81.001
X197.993Y-47.777
X198.45Y-58.445
X198.628Y-60.325
X198.857Y-81.001
X200.33Y-123.368
X201.295Y-66.065
X201.295Y-80.391
X201.346Y-91.465
X201.447Y-123.368
X201.651Y-94.412
X201.854Y-105.283
X202.159Y-115.494
X202.348Y-112.502
X202.413Y-114.122
X202.463Y-111.582
X202.667Y-72.974
X202.667Y-103.353
X202.717Y-123.368
X202.768Y-97.714
X203.276Y-115.646
X203.429Y-120.625
X203.479Y-113.188
X203.53Y-110.109
X203.632Y-114.275
X203.683Y-111.582
X203.733Y-118.237
X203.835Y-123.215
X203.962Y-133.731
X204.29Y-109.02
X204.546Y-120.828
X204.953Y-123.063
X205.613Y-47.777
X205.74Y-109.982
X205.816Y-119.151
X205.867Y-120.898
X206.223Y-59.157
X206.629Y-100.813
X206.903Y-90.246
X206.985Y-119.355
X206.985Y-121.203
X207.035Y-56.007
X207.137Y-60.477
X207.137Y-106.934
X207.148Y-102.286
X207.157Y-91.364
X207.239Y-108.687
X207.411Y-88.621
X207.543Y-87.351
X207.645Y-122.84
X207.848Y-86.081
X208.407Y-121.488
X208.788Y-133.731
X209.677Y-122.606
X212.471Y-47.777
X212.573Y-124.587
X213.868Y-126.238
X214.147Y-124.18
X214.503Y-98.298
X214.503Y-107.264
X214.554Y-108.687
X215.621Y-123.52
X216.992Y-123.723
X218.364Y-123.723
X219.634Y-123.723
X220.599Y-104.572
X220.904Y-102.083
X220.904Y-123.723
X221.107Y-99.543
X221.209Y-100.813
X221.361Y-98.298
X221.488Y-126.238
X221.513Y-83.693
X221.564Y-110.312
X221.615Y-47.777
X221.742Y-80.518
X221.996Y-90.678
X222.25Y-133.223
X222.834Y-123.012
X222.885Y-108.458
X230.251Y-47.727
X230.251Y-54.356
X230.251Y-86.106
X230.378Y-67.818
X230.378Y-73.914
X230.378Y-96.52
X230.378Y-113.665
X230.378Y-118.618
T2
X55.245Y-81.026
X55.245Y-86.026
X56.642Y-120.98
X56.642Y-125.98
X57.15Y-91.279
X57.15Y-93.779
X57.15Y-96.279
X57.15Y-98.779
X57.15Y-101.279
X57.15Y-103.779
X57.15Y-106.279
X57.15Y-108.779
X57.15Y-111.279
X57.15Y-113.779
X57.15Y-116.279
X59.69Y-92.529
X59.69Y-95.029
X59.69Y-97.529
X59.69Y-100.029
X59.69Y-102.529
X59.69Y-105.029
X59.69Y-107.529
X59.69Y-110.029
X59.69Y-112.529
X59.69Y-115.029
X104.14Y-57.404
X104.14Y-72.644
X106.68Y-57.404
X106.68Y-72.644
X108.758Y-128.651
X109.22Y-57.404
X109.22Y-72.644
X110.008Y-126.111
X111.258Y-128.651
X111.76Y-57.404
X111.76Y-72.644
X112.508Y-126.111
X113.758Y-128.651
X114.3Y-57.404
X114.3Y-72.644
X115.008Y-126.111
X116.258Y-128.651
X116.84Y-57.404
X116.84Y-72.644
X117.508Y-126.111
X118.758Y-128.651
X119.38Y-57.404
X119.38Y-72.644
X119.38Y-110.312
X119.38Y-117.221
X120.008Y-126.111
X120.65Y-107.772
X120.65Y-114.681
X121.258Y-128.651
X121.92Y-57.404
X121.92Y-72.644
X121.92Y-110.312
X121.92Y-117.221
X122.508Y-126.111
X123.19Y-107.772
X123.19Y-114.681
X123.758Y-128.651
X124.46Y-57.404
X124.46Y-72.644
X124.46Y-110.312
X124.46Y-117.221
X125.008Y-126.111
X125.73Y-107.772
X125.73Y-114.681
X126.258Y-128.651
X127.0Y-57.404
X127.0Y-72.644
X127.0Y-110.312
X127.0Y-117.221
X127.508Y-126.111
X128.27Y-107.772
X128.27Y-114.681
X128.758Y-128.651
X129.54Y-57.404
X129.54Y-72.644
X129.54Y-110.312
X129.54Y-117.221
X130.008Y-126.111
X130.81Y-107.772
X130.81Y-114.681
X131.258Y-128.651
X132.08Y-57.404
X132.08Y-72.644
X132.08Y-110.312
X132.08Y-117.221
X132.508Y-126.111
X133.35Y-107.772
X133.35Y-114.681
X133.758Y-128.651
X134.62Y-57.404
X134.62Y-72.644
X134.62Y-110.312
X134.62Y-117.221
X135.008Y-126.111
X135.89Y-107.772
X135.89Y-114.681
X136.258Y-128.651
X137.16Y-57.404
X137.16Y-72.644
X137.16Y-110.312
X137.16Y-117.221
X137.508Y-126.111
X138.43Y-107.772
X138.43Y-114.681
X138.758Y-128.651
X139.7Y-57.404
X139.7Y-72.644
X139.7Y-110.312
X139.7Y-117.221
X140.97Y-107.772
X140.97Y-114.681
X142.24Y-57.404
X142.24Y-72.644
X142.24Y-110.312
X142.24Y-117.221
X143.51Y-107.772
X143.51Y-114.681
X144.78Y-57.404
X144.78Y-72.644
X147.32Y-57.404
X147.32Y-72.644
X148.209Y-124.79
X148.209Y-130.835
X149.479Y-122.25
X149.479Y-128.295
X149.86Y-57.404
X149.86Y-72.644
X150.749Y-124.79
X150.749Y-130.835
X152.019Y-122.25
X152.019Y-128.295
X152.4Y-57.404
X152.4Y-72.644
X153.289Y-124.79
X153.289Y-130.835
X154.559Y-122.25
X154.559Y-128.295
X155.829Y-124.79
X155.829Y-130.835
X157.099Y-122.25
X157.099Y-128.295
X157.839Y-118.389
X158.369Y-124.79
X158.369Y-130.835
X159.639Y-122.25
X159.639Y-128.295
X160.909Y-124.79
X160.909Y-130.835
X162.179Y-122.25
X162.179Y-128.295
X162.839Y-118.389
X163.449Y-124.79
X163.449Y-130.835
X164.719Y-122.25
X164.719Y-128.295
X165.989Y-124.79
X165.989Y-130.835
X167.259Y-122.25
X167.259Y-128.295
X168.529Y-124.79
X168.529Y-130.835
X169.799Y-122.25
X169.799Y-128.295
X171.069Y-124.79
X171.069Y-130.835
X172.339Y-122.25
X172.339Y-128.295
X176.077Y-78.461
X181.077Y-78.461
X184.988Y-128.016
X187.63Y-68.961
X187.63Y-76.581
X189.988Y-128.016
X202.87Y-68.961
X202.87Y-76.581
X205.359Y-94.314
X205.359Y-99.314
X209.423Y-71.628
X209.423Y-74.168
X209.423Y-76.708
X209.423Y-79.248
X209.423Y-81.788
X209.423Y-84.328
X209.423Y-86.868
X209.423Y-89.408
X209.423Y-91.948
X209.423Y-94.488
X209.423Y-97.028
X209.423Y-99.568
X209.423Y-102.108
X209.423Y-104.648
X209.423Y-107.188
X209.423Y-109.728
X209.423Y-112.268
X209.423Y-114.808
X209.423Y-117.348
X209.423Y-119.888
X211.963Y-72.898
X211.963Y-75.438
X211.963Y-77.978
X211.963Y-80.518
X211.963Y-83.058
X211.963Y-85.598
X211.963Y-88.138
X211.963Y-90.678
X211.963Y-93.218
X211.963Y-95.758
X211.963Y-98.298
X211.963Y-100.838
X211.963Y-103.378
X211.963Y-105.918
X211.963Y-108.458
X211.963Y-110.998
X211.963Y-113.538
X211.963Y-116.078
X211.963Y-118.618
X211.963Y-121.158
X216.408Y-71.628
X216.408Y-74.168
X216.408Y-76.708
X216.408Y-79.248
X216.408Y-81.788
X216.408Y-84.328
X216.408Y-86.868
X216.408Y-89.408
X216.408Y-91.948
X216.408Y-94.488
X216.408Y-97.028
X216.408Y-99.568
X216.408Y-102.108
X216.408Y-104.648
X216.408Y-107.188
X216.408Y-109.728
X216.408Y-112.268
X216.408Y-114.808
X216.408Y-117.348
X216.408Y-119.888
X218.948Y-72.898
X218.948Y-75.438
X218.948Y-77.978
X218.948Y-80.518
X218.948Y-83.058
X218.948Y-85.598
X218.948Y-88.138
X218.948Y-90.678
X218.948Y-93.218
X218.948Y-95.758
X218.948Y-98.298
X218.948Y-100.838
X218.948Y-103.378
X218.948Y-105.918
X218.948Y-108.458
X218.948Y-110.998
X218.948Y-113.538
X218.948Y-116.078
X218.948Y-118.618
X218.948Y-121.158
X225.628Y-84.861
X225.628Y-87.401
X225.628Y-127.838
X225.628Y-130.378
T3
X208.966Y-54.229
X208.966Y-64.389
X224.206Y-59.309
X226.746Y-59.309
T0
M30
