G04 #@! TF.GenerationSoftware,KiCad,Pcbnew,7.0.2-0*
G04 #@! TF.CreationDate,2023-07-22T12:22:20+02:00*
G04 #@! TF.ProjectId,MegaCD,4d656761-4344-42e6-9b69-6361645f7063,rev?*
G04 #@! TF.SameCoordinates,Original*
G04 #@! TF.FileFunction,Paste,Top*
G04 #@! TF.FilePolarity,Positive*
%FSLAX46Y46*%
G04 Gerber Fmt 4.6, Leading zero omitted, Abs format (unit mm)*
G04 Created by KiCad (PCBNEW 7.0.2-0) date 2023-07-22 12:22:20*
%MOMM*%
%LPD*%
G01*
G04 APERTURE LIST*
G04 Aperture macros list*
%AMRoundRect*
0 Rectangle with rounded corners*
0 $1 Rounding radius*
0 $2 $3 $4 $5 $6 $7 $8 $9 X,Y pos of 4 corners*
0 Add a 4 corners polygon primitive as box body*
4,1,4,$2,$3,$4,$5,$6,$7,$8,$9,$2,$3,0*
0 Add four circle primitives for the rounded corners*
1,1,$1+$1,$2,$3*
1,1,$1+$1,$4,$5*
1,1,$1+$1,$6,$7*
1,1,$1+$1,$8,$9*
0 Add four rect primitives between the rounded corners*
20,1,$1+$1,$2,$3,$4,$5,0*
20,1,$1+$1,$4,$5,$6,$7,0*
20,1,$1+$1,$6,$7,$8,$9,0*
20,1,$1+$1,$8,$9,$2,$3,0*%
G04 Aperture macros list end*
%ADD10R,0.600000X1.500000*%
%ADD11RoundRect,0.250000X0.947000X0.550000X-0.947000X0.550000X-0.947000X-0.550000X0.947000X-0.550000X0*%
%ADD12RoundRect,0.150000X0.150000X-0.850000X0.150000X0.850000X-0.150000X0.850000X-0.150000X-0.850000X0*%
%ADD13RoundRect,0.250000X0.550000X-0.947000X0.550000X0.947000X-0.550000X0.947000X-0.550000X-0.947000X0*%
%ADD14C,0.750000*%
%ADD15R,0.500000X3.160000*%
%ADD16R,3.160000X0.500000*%
%ADD17RoundRect,0.300000X0.300000X-0.450000X0.300000X0.450000X-0.300000X0.450000X-0.300000X-0.450000X0*%
%ADD18R,1.778000X8.000000*%
%ADD19R,2.425000X0.700000*%
%ADD20R,0.700000X2.425000*%
%ADD21RoundRect,0.075000X0.075000X-0.912500X0.075000X0.912500X-0.075000X0.912500X-0.075000X-0.912500X0*%
%ADD22RoundRect,0.075000X0.912500X-0.075000X0.912500X0.075000X-0.912500X0.075000X-0.912500X-0.075000X0*%
G04 APERTURE END LIST*
D10*
X197231000Y-63220600D03*
X198501000Y-63220600D03*
X199771000Y-63220600D03*
X201041000Y-63220600D03*
X202311000Y-63220600D03*
X203581000Y-63220600D03*
X204851000Y-63220600D03*
X204851000Y-56114600D03*
X203581000Y-56120600D03*
X202311000Y-56120600D03*
X201041000Y-56120600D03*
X199771000Y-56120600D03*
X198501000Y-56120600D03*
X197231000Y-56120600D03*
D11*
X179093600Y-129717800D03*
X175899600Y-129717800D03*
D12*
X165938200Y-75361800D03*
X167208200Y-75361800D03*
X168478200Y-75361800D03*
X169748200Y-75361800D03*
X171018200Y-75361800D03*
X172288200Y-75361800D03*
X173558200Y-75361800D03*
X174828200Y-75361800D03*
X176098200Y-75361800D03*
X177368200Y-75361800D03*
X178638200Y-75361800D03*
X179908200Y-75361800D03*
X181178200Y-75361800D03*
X182448200Y-75361800D03*
X182448200Y-63931800D03*
X181178200Y-63931800D03*
X179908200Y-63931800D03*
X178638200Y-63931800D03*
X177368200Y-63931800D03*
X176098200Y-63931800D03*
X174828200Y-63931800D03*
X173558200Y-63931800D03*
X172288200Y-63931800D03*
X171018200Y-63931800D03*
X169748200Y-63931800D03*
X168478200Y-63931800D03*
X167208200Y-63931800D03*
X165938200Y-63931800D03*
D13*
X59563000Y-85820000D03*
X59563000Y-82626000D03*
D11*
X179141600Y-123367800D03*
X175947600Y-123367800D03*
X150212400Y-107467400D03*
X147018400Y-107467400D03*
X138301200Y-120624600D03*
X135107200Y-120624600D03*
D14*
X87877000Y-119993000D03*
X112769000Y-119991000D03*
X87877000Y-101705000D03*
X112769000Y-101703000D03*
D15*
X91123000Y-119866000D03*
X91923000Y-119866000D03*
X92723000Y-119866000D03*
X93523000Y-119866000D03*
X94323000Y-119866000D03*
X95123000Y-119866000D03*
X95923000Y-119866000D03*
X96723000Y-119866000D03*
X97523000Y-119866000D03*
X98323000Y-119866000D03*
X99123000Y-119866000D03*
X99923000Y-119866000D03*
X100723000Y-119866000D03*
X101523000Y-119866000D03*
X102323000Y-119866000D03*
X103123000Y-119866000D03*
X103903000Y-119866000D03*
X104723000Y-119866000D03*
X105523000Y-119866000D03*
X106323000Y-119866000D03*
X107123000Y-119866000D03*
X107923000Y-119866000D03*
X108723000Y-119866000D03*
X109523000Y-119866000D03*
D16*
X112388000Y-116849000D03*
X112388000Y-116049000D03*
X112388000Y-115249000D03*
X112388000Y-114449000D03*
X112388000Y-113649000D03*
X112388000Y-112849000D03*
X112388000Y-112049000D03*
X112388000Y-111249000D03*
X112388000Y-110449000D03*
X112388000Y-109649000D03*
X112388000Y-108849000D03*
X112388000Y-108049000D03*
X112388000Y-107249000D03*
X112388000Y-106449000D03*
X112388000Y-105649000D03*
X112388000Y-104849000D03*
D15*
X109523000Y-101832000D03*
X108723000Y-101832000D03*
X107923000Y-101832000D03*
X107123000Y-101832000D03*
X106323000Y-101832000D03*
X105523000Y-101832000D03*
X104723000Y-101832000D03*
X103923000Y-101832000D03*
X103123000Y-101832000D03*
X102323000Y-101832000D03*
X101523000Y-101832000D03*
X100723000Y-101832000D03*
X99923000Y-101832000D03*
X99123000Y-101832000D03*
X98323000Y-101832000D03*
X97523000Y-101832000D03*
X96723000Y-101832000D03*
X95923000Y-101832000D03*
X95123000Y-101832000D03*
X94323000Y-101832000D03*
X93523000Y-101832000D03*
X92723000Y-101832000D03*
X91923000Y-101832000D03*
X91123000Y-101832000D03*
D16*
X88258000Y-104849000D03*
X88258000Y-105649000D03*
X88258000Y-106449000D03*
X88258000Y-107249000D03*
X88258000Y-108049000D03*
X88258000Y-108849000D03*
X88258000Y-109649000D03*
X88258000Y-110449000D03*
X88258000Y-111249000D03*
X88258000Y-112049000D03*
X88258000Y-112849000D03*
X88258000Y-113649000D03*
X88258000Y-114449000D03*
X88258000Y-115249000D03*
X88258000Y-116049000D03*
X88258000Y-116849000D03*
D13*
X65151000Y-59128000D03*
X65151000Y-55934000D03*
D10*
X90830400Y-69717000D03*
X92100400Y-69717000D03*
X93370400Y-69717000D03*
X94640400Y-69717000D03*
X95910400Y-69717000D03*
X97180400Y-69717000D03*
X98450400Y-69717000D03*
X98450400Y-62611000D03*
X97180400Y-62617000D03*
X95910400Y-62617000D03*
X94640400Y-62617000D03*
X93370400Y-62617000D03*
X92100400Y-62617000D03*
X90830400Y-62617000D03*
D17*
X223205000Y-115062000D03*
X225105000Y-115062000D03*
X224155000Y-113030000D03*
D12*
X64135000Y-122809000D03*
X65405000Y-122809000D03*
X66675000Y-122809000D03*
X67945000Y-122809000D03*
X69215000Y-122809000D03*
X70485000Y-122809000D03*
X71755000Y-122809000D03*
X73025000Y-122809000D03*
X74295000Y-122809000D03*
X75565000Y-122809000D03*
X76835000Y-122809000D03*
X78105000Y-122809000D03*
X79375000Y-122809000D03*
X80645000Y-122809000D03*
X80645000Y-111379000D03*
X79375000Y-111379000D03*
X78105000Y-111379000D03*
X76835000Y-111379000D03*
X75565000Y-111379000D03*
X74295000Y-111379000D03*
X73025000Y-111379000D03*
X71755000Y-111379000D03*
X70485000Y-111379000D03*
X69215000Y-111379000D03*
X67945000Y-111379000D03*
X66675000Y-111379000D03*
X65405000Y-111379000D03*
X64135000Y-111379000D03*
X65405000Y-74041000D03*
X66675000Y-74041000D03*
X67945000Y-74041000D03*
X69215000Y-74041000D03*
X70485000Y-74041000D03*
X71755000Y-74041000D03*
X73025000Y-74041000D03*
X74295000Y-74041000D03*
X75565000Y-74041000D03*
X76835000Y-74041000D03*
X78105000Y-74041000D03*
X79375000Y-74041000D03*
X80645000Y-74041000D03*
X81915000Y-74041000D03*
X81915000Y-62611000D03*
X80645000Y-62611000D03*
X79375000Y-62611000D03*
X78105000Y-62611000D03*
X76835000Y-62611000D03*
X75565000Y-62611000D03*
X74295000Y-62611000D03*
X73025000Y-62611000D03*
X71755000Y-62611000D03*
X70485000Y-62611000D03*
X69215000Y-62611000D03*
X67945000Y-62611000D03*
X66675000Y-62611000D03*
X65405000Y-62611000D03*
X64135000Y-106426000D03*
X65405000Y-106426000D03*
X66675000Y-106426000D03*
X67945000Y-106426000D03*
X69215000Y-106426000D03*
X70485000Y-106426000D03*
X71755000Y-106426000D03*
X73025000Y-106426000D03*
X74295000Y-106426000D03*
X75565000Y-106426000D03*
X76835000Y-106426000D03*
X78105000Y-106426000D03*
X79375000Y-106426000D03*
X80645000Y-106426000D03*
X80645000Y-94996000D03*
X79375000Y-94996000D03*
X78105000Y-94996000D03*
X76835000Y-94996000D03*
X75565000Y-94996000D03*
X74295000Y-94996000D03*
X73025000Y-94996000D03*
X71755000Y-94996000D03*
X70485000Y-94996000D03*
X69215000Y-94996000D03*
X67945000Y-94996000D03*
X66675000Y-94996000D03*
X65405000Y-94996000D03*
X64135000Y-94996000D03*
D18*
X157480000Y-50800000D03*
X154940000Y-50800000D03*
X152400000Y-50800000D03*
X149860000Y-50800000D03*
X147320000Y-50800000D03*
X144780000Y-50800000D03*
X142240000Y-50800000D03*
X139700000Y-50800000D03*
X137160000Y-50800000D03*
X134620000Y-50800000D03*
X132080000Y-50800000D03*
X129540000Y-50800000D03*
X127000000Y-50800000D03*
X124460000Y-50800000D03*
X121920000Y-50800000D03*
X119380000Y-50800000D03*
X116840000Y-50800000D03*
X114300000Y-50800000D03*
X111760000Y-50800000D03*
X109220000Y-50800000D03*
X106680000Y-50800000D03*
X104140000Y-50800000D03*
X101600000Y-50800000D03*
X99060000Y-50800000D03*
X96520000Y-50800000D03*
X93980000Y-50800000D03*
X91440000Y-50800000D03*
X88900000Y-50800000D03*
X86360000Y-50800000D03*
X83820000Y-50800000D03*
D10*
X184429400Y-63208600D03*
X185699400Y-63208600D03*
X186969400Y-63208600D03*
X188239400Y-63208600D03*
X189509400Y-63208600D03*
X190779400Y-63208600D03*
X192049400Y-63208600D03*
X193319400Y-63208600D03*
X193319400Y-56108600D03*
X192049400Y-56108600D03*
X190779400Y-56108600D03*
X189509400Y-56108600D03*
X188239400Y-56108600D03*
X186969400Y-56108600D03*
X185699400Y-56108600D03*
X184429400Y-56108600D03*
D17*
X223205000Y-120777000D03*
X225105000Y-120777000D03*
X224155000Y-118745000D03*
D13*
X158826200Y-104086000D03*
X158826200Y-100892000D03*
X204393800Y-106727600D03*
X204393800Y-103533600D03*
X118110000Y-85774000D03*
X118110000Y-82580000D03*
D11*
X96871000Y-125730000D03*
X93677000Y-125730000D03*
X211679000Y-126238000D03*
X208485000Y-126238000D03*
D14*
X87877000Y-94615000D03*
X112769000Y-94613000D03*
X87877000Y-76327000D03*
X112769000Y-76325000D03*
D15*
X91123000Y-94488000D03*
X91923000Y-94488000D03*
X92723000Y-94488000D03*
X93523000Y-94488000D03*
X94323000Y-94488000D03*
X95123000Y-94488000D03*
X95923000Y-94488000D03*
X96723000Y-94488000D03*
X97523000Y-94488000D03*
X98323000Y-94488000D03*
X99123000Y-94488000D03*
X99923000Y-94488000D03*
X100723000Y-94488000D03*
X101523000Y-94488000D03*
X102323000Y-94488000D03*
X103123000Y-94488000D03*
X103903000Y-94488000D03*
X104723000Y-94488000D03*
X105523000Y-94488000D03*
X106323000Y-94488000D03*
X107123000Y-94488000D03*
X107923000Y-94488000D03*
X108723000Y-94488000D03*
X109523000Y-94488000D03*
D16*
X112388000Y-91471000D03*
X112388000Y-90671000D03*
X112388000Y-89871000D03*
X112388000Y-89071000D03*
X112388000Y-88271000D03*
X112388000Y-87471000D03*
X112388000Y-86671000D03*
X112388000Y-85871000D03*
X112388000Y-85071000D03*
X112388000Y-84271000D03*
X112388000Y-83471000D03*
X112388000Y-82671000D03*
X112388000Y-81871000D03*
X112388000Y-81071000D03*
X112388000Y-80271000D03*
X112388000Y-79471000D03*
D15*
X109523000Y-76454000D03*
X108723000Y-76454000D03*
X107923000Y-76454000D03*
X107123000Y-76454000D03*
X106323000Y-76454000D03*
X105523000Y-76454000D03*
X104723000Y-76454000D03*
X103923000Y-76454000D03*
X103123000Y-76454000D03*
X102323000Y-76454000D03*
X101523000Y-76454000D03*
X100723000Y-76454000D03*
X99923000Y-76454000D03*
X99123000Y-76454000D03*
X98323000Y-76454000D03*
X97523000Y-76454000D03*
X96723000Y-76454000D03*
X95923000Y-76454000D03*
X95123000Y-76454000D03*
X94323000Y-76454000D03*
X93523000Y-76454000D03*
X92723000Y-76454000D03*
X91923000Y-76454000D03*
X91123000Y-76454000D03*
D16*
X88258000Y-79471000D03*
X88258000Y-80271000D03*
X88258000Y-81071000D03*
X88258000Y-81871000D03*
X88258000Y-82671000D03*
X88258000Y-83471000D03*
X88258000Y-84271000D03*
X88258000Y-85071000D03*
X88258000Y-85871000D03*
X88258000Y-86671000D03*
X88258000Y-87471000D03*
X88258000Y-88271000D03*
X88258000Y-89071000D03*
X88258000Y-89871000D03*
X88258000Y-90671000D03*
X88258000Y-91471000D03*
D14*
X150622000Y-102743000D03*
X123698000Y-75819000D03*
D19*
X125222000Y-89281000D03*
X125222000Y-90551000D03*
X125222000Y-91821000D03*
X125222000Y-93091000D03*
X125222000Y-94361000D03*
X125222000Y-95631000D03*
X125222000Y-96901000D03*
X125222000Y-98171000D03*
X125222000Y-99441000D03*
D20*
X127000000Y-101219000D03*
X128270000Y-101219000D03*
X129540000Y-101219000D03*
X130810000Y-101219000D03*
X132080000Y-101219000D03*
X133350000Y-101219000D03*
X134620000Y-101219000D03*
X135890000Y-101219000D03*
X137160000Y-101219000D03*
X138430000Y-101219000D03*
X139700000Y-101219000D03*
X140970000Y-101219000D03*
X142240000Y-101219000D03*
X143510000Y-101219000D03*
X144780000Y-101219000D03*
X146050000Y-101219000D03*
X147320000Y-101219000D03*
D19*
X149098000Y-99441000D03*
X149098000Y-98171000D03*
X149098000Y-96901000D03*
X149098000Y-95631000D03*
X149098000Y-94361000D03*
X149098000Y-93091000D03*
X149098000Y-91821000D03*
X149098000Y-90551000D03*
X149098000Y-89281000D03*
X149098000Y-88011000D03*
X149098000Y-86741000D03*
X149098000Y-85471000D03*
X149098000Y-84201000D03*
X149098000Y-82931000D03*
X149098000Y-81661000D03*
X149098000Y-80391000D03*
X149098000Y-79121000D03*
D20*
X147320000Y-77343000D03*
X146050000Y-77343000D03*
X144780000Y-77343000D03*
X143510000Y-77343000D03*
X142240000Y-77343000D03*
X140970000Y-77343000D03*
X139700000Y-77343000D03*
X138430000Y-77343000D03*
X137160000Y-77343000D03*
X135890000Y-77343000D03*
X134620000Y-77343000D03*
X133350000Y-77343000D03*
X132080000Y-77343000D03*
X130810000Y-77343000D03*
X129540000Y-77343000D03*
X128270000Y-77343000D03*
X127000000Y-77343000D03*
D19*
X125222000Y-79121000D03*
X125222000Y-80391000D03*
X125222000Y-81661000D03*
X125222000Y-82931000D03*
X125222000Y-84201000D03*
X125222000Y-85471000D03*
X125222000Y-86741000D03*
X125222000Y-88011000D03*
D11*
X219297000Y-126238000D03*
X216103000Y-126238000D03*
D13*
X118110000Y-79575000D03*
X118110000Y-76381000D03*
D14*
X167895400Y-117351400D03*
X199645400Y-117351400D03*
X167919400Y-85623400D03*
X199645400Y-85623400D03*
D21*
X171020400Y-116976400D03*
X171520400Y-116976400D03*
X172020400Y-116976400D03*
X172520400Y-116976400D03*
X173020400Y-116976400D03*
X173520400Y-116976400D03*
X174020400Y-116976400D03*
X174520400Y-116976400D03*
X175020400Y-116976400D03*
X175520400Y-116976400D03*
X176020400Y-116976400D03*
X176520400Y-116976400D03*
X177020400Y-116976400D03*
X177520400Y-116976400D03*
X178020400Y-116976400D03*
X178520400Y-116976400D03*
X179020400Y-116976400D03*
X179520400Y-116976400D03*
X180020400Y-116976400D03*
X180520400Y-116976400D03*
X181020400Y-116976400D03*
X181520400Y-116976400D03*
X182020400Y-116976400D03*
X182520400Y-116976400D03*
X183020400Y-116976400D03*
X183520400Y-116976400D03*
X184020400Y-116976400D03*
X184520400Y-116976400D03*
X185020400Y-116976400D03*
X185520400Y-116976400D03*
X186020400Y-116976400D03*
X186520400Y-116976400D03*
X187020400Y-116976400D03*
X187520400Y-116976400D03*
X188020400Y-116976400D03*
X188520400Y-116976400D03*
X189020400Y-116976400D03*
X189520400Y-116976400D03*
X190020400Y-116976400D03*
X190520400Y-116976400D03*
X191020400Y-116976400D03*
X191520400Y-116976400D03*
X192020400Y-116976400D03*
X192520400Y-116976400D03*
X193020400Y-116976400D03*
X193520400Y-116976400D03*
X194020400Y-116976400D03*
X194520400Y-116976400D03*
X195020400Y-116976400D03*
X195520400Y-116976400D03*
X196020400Y-116976400D03*
X196520400Y-116976400D03*
D22*
X199270400Y-114226400D03*
X199270400Y-113726400D03*
X199270400Y-113226400D03*
X199270400Y-112726400D03*
X199270400Y-112226400D03*
X199270400Y-111726400D03*
X199270400Y-111226400D03*
X199270400Y-110726400D03*
X199270400Y-110226400D03*
X199270400Y-109726400D03*
X199270400Y-109226400D03*
X199270400Y-108726400D03*
X199270400Y-108226400D03*
X199270400Y-107726400D03*
X199270400Y-107226400D03*
X199270400Y-106726400D03*
X199270400Y-106226400D03*
X199270400Y-105726400D03*
X199270400Y-105226400D03*
X199270400Y-104726400D03*
X199270400Y-104226400D03*
X199270400Y-103726400D03*
X199270400Y-103226400D03*
X199270400Y-102726400D03*
X199270400Y-102226400D03*
X199270400Y-101726400D03*
X199270400Y-101226400D03*
X199270400Y-100726400D03*
X199270400Y-100226400D03*
X199270400Y-99726400D03*
X199270400Y-99226400D03*
X199270400Y-98726400D03*
X199270400Y-98226400D03*
X199270400Y-97726400D03*
X199270400Y-97226400D03*
X199270400Y-96726400D03*
X199270400Y-96226400D03*
X199270400Y-95726400D03*
X199270400Y-95226400D03*
X199270400Y-94726400D03*
X199270400Y-94226400D03*
X199270400Y-93726400D03*
X199270400Y-93226400D03*
X199270400Y-92726400D03*
X199270400Y-92226400D03*
X199270400Y-91726400D03*
X199270400Y-91226400D03*
X199270400Y-90726400D03*
X199270400Y-90226400D03*
X199270400Y-89726400D03*
X199270400Y-89226400D03*
X199270400Y-88726400D03*
D21*
X196520400Y-85976400D03*
X196020400Y-85976400D03*
X195520400Y-85976400D03*
X195020400Y-85976400D03*
X194520400Y-85976400D03*
X194020400Y-85976400D03*
X193520400Y-85976400D03*
X193020400Y-85976400D03*
X192520400Y-85976400D03*
X192020400Y-85976400D03*
X191520400Y-85976400D03*
X191020400Y-85976400D03*
X190520400Y-85976400D03*
X190020400Y-85976400D03*
X189520400Y-85976400D03*
X189020400Y-85976400D03*
X188520400Y-85976400D03*
X188020400Y-85976400D03*
X187520400Y-85976400D03*
X187020400Y-85976400D03*
X186520400Y-85976400D03*
X186020400Y-85976400D03*
X185520400Y-85976400D03*
X185020400Y-85976400D03*
X184520400Y-85976400D03*
X184020400Y-85976400D03*
X183520400Y-85976400D03*
X183020400Y-85976400D03*
X182520400Y-85976400D03*
X182020400Y-85976400D03*
X181520400Y-85976400D03*
X181020400Y-85976400D03*
X180520400Y-85976400D03*
X180020400Y-85976400D03*
X179520400Y-85976400D03*
X179020400Y-85976400D03*
X178520400Y-85976400D03*
X178020400Y-85976400D03*
X177520400Y-85976400D03*
X177020400Y-85976400D03*
X176520400Y-85976400D03*
X176020400Y-85976400D03*
X175520400Y-85976400D03*
X175020400Y-85976400D03*
X174520400Y-85976400D03*
X174020400Y-85976400D03*
X173520400Y-85976400D03*
X173020400Y-85976400D03*
X172520400Y-85976400D03*
X172020400Y-85976400D03*
X171520400Y-85976400D03*
X171020400Y-85976400D03*
D22*
X168270400Y-88726400D03*
X168270400Y-89226400D03*
X168270400Y-89726400D03*
X168270400Y-90226400D03*
X168270400Y-90726400D03*
X168270400Y-91226400D03*
X168270400Y-91726400D03*
X168270400Y-92226400D03*
X168270400Y-92726400D03*
X168270400Y-93226400D03*
X168270400Y-93726400D03*
X168270400Y-94226400D03*
X168270400Y-94726400D03*
X168270400Y-95226400D03*
X168270400Y-95726400D03*
X168270400Y-96226400D03*
X168270400Y-96726400D03*
X168270400Y-97226400D03*
X168270400Y-97726400D03*
X168270400Y-98226400D03*
X168270400Y-98726400D03*
X168270400Y-99226400D03*
X168270400Y-99726400D03*
X168270400Y-100226400D03*
X168270400Y-100726400D03*
X168270400Y-101226400D03*
X168270400Y-101726400D03*
X168270400Y-102226400D03*
X168270400Y-102726400D03*
X168270400Y-103226400D03*
X168270400Y-103726400D03*
X168270400Y-104226400D03*
X168270400Y-104726400D03*
X168270400Y-105226400D03*
X168270400Y-105726400D03*
X168270400Y-106226400D03*
X168270400Y-106726400D03*
X168270400Y-107226400D03*
X168270400Y-107726400D03*
X168270400Y-108226400D03*
X168270400Y-108726400D03*
X168270400Y-109226400D03*
X168270400Y-109726400D03*
X168270400Y-110226400D03*
X168270400Y-110726400D03*
X168270400Y-111226400D03*
X168270400Y-111726400D03*
X168270400Y-112226400D03*
X168270400Y-112726400D03*
X168270400Y-113226400D03*
X168270400Y-113726400D03*
X168270400Y-114226400D03*
D12*
X64135000Y-89789000D03*
X65405000Y-89789000D03*
X66675000Y-89789000D03*
X67945000Y-89789000D03*
X69215000Y-89789000D03*
X70485000Y-89789000D03*
X71755000Y-89789000D03*
X73025000Y-89789000D03*
X74295000Y-89789000D03*
X75565000Y-89789000D03*
X76835000Y-89789000D03*
X78105000Y-89789000D03*
X79375000Y-89789000D03*
X80645000Y-89789000D03*
X80645000Y-78359000D03*
X79375000Y-78359000D03*
X78105000Y-78359000D03*
X76835000Y-78359000D03*
X75565000Y-78359000D03*
X74295000Y-78359000D03*
X73025000Y-78359000D03*
X71755000Y-78359000D03*
X70485000Y-78359000D03*
X69215000Y-78359000D03*
X67945000Y-78359000D03*
X66675000Y-78359000D03*
X65405000Y-78359000D03*
X64135000Y-78359000D03*
M02*
