G04 #@! TF.GenerationSoftware,KiCad,Pcbnew,7.0.2-0*
G04 #@! TF.CreationDate,2023-07-03T11:00:07+02:00*
G04 #@! TF.ProjectId,MegaCD,4d656761-4344-42e6-9b69-6361645f7063,rev?*
G04 #@! TF.SameCoordinates,Original*
G04 #@! TF.FileFunction,Soldermask,Bot*
G04 #@! TF.FilePolarity,Negative*
%FSLAX46Y46*%
G04 Gerber Fmt 4.6, Leading zero omitted, Abs format (unit mm)*
G04 Created by KiCad (PCBNEW 7.0.2-0) date 2023-07-03 11:00:07*
%MOMM*%
%LPD*%
G01*
G04 APERTURE LIST*
G04 Aperture macros list*
%AMRoundRect*
0 Rectangle with rounded corners*
0 $1 Rounding radius*
0 $2 $3 $4 $5 $6 $7 $8 $9 X,Y pos of 4 corners*
0 Add a 4 corners polygon primitive as box body*
4,1,4,$2,$3,$4,$5,$6,$7,$8,$9,$2,$3,0*
0 Add four circle primitives for the rounded corners*
1,1,$1+$1,$2,$3*
1,1,$1+$1,$4,$5*
1,1,$1+$1,$6,$7*
1,1,$1+$1,$8,$9*
0 Add four rect primitives between the rounded corners*
20,1,$1+$1,$2,$3,$4,$5,0*
20,1,$1+$1,$4,$5,$6,$7,0*
20,1,$1+$1,$6,$7,$8,$9,0*
20,1,$1+$1,$8,$9,$2,$3,0*%
G04 Aperture macros list end*
%ADD10C,2.767879*%
%ADD11C,0.150000*%
%ADD12R,1.600000X1.600000*%
%ADD13C,1.600000*%
%ADD14R,1.400000X1.400000*%
%ADD15O,1.400000X1.400000*%
%ADD16R,1.600000X1.200000*%
%ADD17RoundRect,0.300000X0.500000X-0.300000X0.500000X0.300000X-0.500000X0.300000X-0.500000X-0.300000X0*%
%ADD18R,1.400000X1.300000*%
%ADD19RoundRect,0.325000X0.375000X-0.325000X0.375000X0.325000X-0.375000X0.325000X-0.375000X-0.325000X0*%
%ADD20RoundRect,0.375000X-0.375000X0.375000X-0.375000X-0.375000X0.375000X-0.375000X0.375000X0.375000X0*%
%ADD21R,1.400000X1.600000*%
%ADD22RoundRect,0.350000X-0.350000X-0.450000X0.350000X-0.450000X0.350000X0.450000X-0.350000X0.450000X0*%
%ADD23O,2.000000X2.000000*%
%ADD24R,1.778000X8.000000*%
%ADD25RoundRect,0.375000X-0.375000X-0.375000X0.375000X-0.375000X0.375000X0.375000X-0.375000X0.375000X0*%
%ADD26RoundRect,0.375000X0.375000X-0.375000X0.375000X0.375000X-0.375000X0.375000X-0.375000X-0.375000X0*%
%ADD27RoundRect,0.255319X0.344681X-0.394681X0.344681X0.394681X-0.344681X0.394681X-0.344681X-0.394681X0*%
%ADD28C,1.500000*%
%ADD29RoundRect,0.255319X-0.344681X0.394681X-0.344681X-0.394681X0.344681X-0.394681X0.344681X0.394681X0*%
%ADD30RoundRect,0.255319X-0.394681X-0.344681X0.394681X-0.344681X0.394681X0.344681X-0.394681X0.344681X0*%
%ADD31RoundRect,0.255319X0.394681X0.344681X-0.394681X0.344681X-0.394681X-0.344681X0.394681X-0.344681X0*%
%ADD32RoundRect,0.150000X0.150000X-0.875000X0.150000X0.875000X-0.150000X0.875000X-0.150000X-0.875000X0*%
G04 APERTURE END LIST*
D10*
X231990539Y-107721400D02*
G75*
G03*
X231990539Y-107721400I-1383939J0D01*
G01*
G36*
X231105200Y-48285400D02*
G01*
X232105200Y-48285400D01*
X232105200Y-134696200D01*
X231105200Y-134696200D01*
X231105200Y-48285400D01*
G37*
D11*
X225145600Y-132435600D02*
X227914200Y-132435600D01*
X227914200Y-135255000D01*
X225145600Y-135255000D01*
X225145600Y-132435600D01*
G36*
X225145600Y-132435600D02*
G01*
X227914200Y-132435600D01*
X227914200Y-135255000D01*
X225145600Y-135255000D01*
X225145600Y-132435600D01*
G37*
G36*
X46202600Y-135728200D02*
G01*
X234086400Y-135728200D01*
X234086400Y-136702800D01*
X46202600Y-136702800D01*
X46202600Y-135728200D01*
G37*
G36*
X48234600Y-48742600D02*
G01*
X49242600Y-48742600D01*
X49242600Y-132816600D01*
X48234600Y-132816600D01*
X48234600Y-48742600D01*
G37*
G36*
X46202600Y-47091600D02*
G01*
X47202600Y-47091600D01*
X47202600Y-136702800D01*
X46202600Y-136702800D01*
X46202600Y-47091600D01*
G37*
G36*
X173202600Y-48285400D02*
G01*
X232105200Y-48285400D01*
X232105200Y-49269400D01*
X173202600Y-49269400D01*
X173202600Y-48285400D01*
G37*
G36*
X50749200Y-133696200D02*
G01*
X224561400Y-133696200D01*
X224561400Y-134696200D01*
X50749200Y-134696200D01*
X50749200Y-133696200D01*
G37*
G36*
X46202600Y-46253400D02*
G01*
X68097400Y-46253400D01*
X68097400Y-47253400D01*
X46202600Y-47253400D01*
X46202600Y-46253400D01*
G37*
G36*
X173202600Y-46278800D02*
G01*
X234086400Y-46278800D01*
X234086400Y-47261400D01*
X173202600Y-47261400D01*
X173202600Y-46278800D01*
G37*
X51714400Y-51231800D02*
X54483000Y-51231800D01*
X54483000Y-54051200D01*
X51714400Y-54051200D01*
X51714400Y-51231800D01*
G36*
X51714400Y-51231800D02*
G01*
X54483000Y-51231800D01*
X54483000Y-54051200D01*
X51714400Y-54051200D01*
X51714400Y-51231800D01*
G37*
G36*
X228473000Y-133696200D02*
G01*
X232105200Y-133696200D01*
X232105200Y-134696200D01*
X228473000Y-134696200D01*
X228473000Y-133696200D01*
G37*
G36*
X233086400Y-46278800D02*
G01*
X234086400Y-46278800D01*
X234086400Y-136702800D01*
X233086400Y-136702800D01*
X233086400Y-46278800D01*
G37*
G36*
X48234600Y-48242600D02*
G01*
X68148200Y-48242600D01*
X68148200Y-49242600D01*
X48234600Y-49242600D01*
X48234600Y-48242600D01*
G37*
D12*
X187629800Y-76581000D03*
D13*
X202869800Y-76581000D03*
X202869800Y-68961000D03*
X187629800Y-68961000D03*
D14*
X211963000Y-121158000D03*
D15*
X209423000Y-119888000D03*
X211963000Y-118618000D03*
X209423000Y-117348000D03*
X211963000Y-116078000D03*
X209423000Y-114808000D03*
X211963000Y-113538000D03*
X209423000Y-112268000D03*
X211963000Y-110998000D03*
X209423000Y-109728000D03*
X211963000Y-108458000D03*
X209423000Y-107188000D03*
X211963000Y-105918000D03*
X209423000Y-104648000D03*
X211963000Y-103378000D03*
X209423000Y-102108000D03*
X211963000Y-100838000D03*
X209423000Y-99568000D03*
X211963000Y-98298000D03*
X209423000Y-97028000D03*
X211963000Y-95758000D03*
X209423000Y-94488000D03*
X211963000Y-93218000D03*
X209423000Y-91948000D03*
X211963000Y-90678000D03*
X209423000Y-89408000D03*
X211963000Y-88138000D03*
X209423000Y-86868000D03*
X211963000Y-85598000D03*
X209423000Y-84328000D03*
X211963000Y-83058000D03*
X209423000Y-81788000D03*
X211963000Y-80518000D03*
X209423000Y-79248000D03*
X211963000Y-77978000D03*
X209423000Y-76708000D03*
X211963000Y-75438000D03*
X209423000Y-74168000D03*
X211963000Y-72898000D03*
X209423000Y-71628000D03*
D13*
X176076600Y-78460600D03*
X181076600Y-78460600D03*
X162839400Y-118389400D03*
X157839400Y-118389400D03*
D16*
X108758000Y-128651000D03*
D17*
X110008000Y-126111000D03*
X111258000Y-128651000D03*
X112508000Y-126111000D03*
X113758000Y-128651000D03*
X115008000Y-126111000D03*
X116258000Y-128651000D03*
X117508000Y-126111000D03*
X118758000Y-128651000D03*
X120008000Y-126111000D03*
X121258000Y-128651000D03*
X122508000Y-126111000D03*
X123758000Y-128651000D03*
X125008000Y-126111000D03*
X126258000Y-128651000D03*
X127508000Y-126111000D03*
X128758000Y-128651000D03*
X130008000Y-126111000D03*
X131258000Y-128651000D03*
X132508000Y-126111000D03*
X133758000Y-128651000D03*
X135008000Y-126111000D03*
X136258000Y-128651000D03*
X137508000Y-126111000D03*
X138758000Y-128651000D03*
D18*
X119380000Y-117221000D03*
D19*
X120650000Y-114681000D03*
X121920000Y-117221000D03*
X123190000Y-114681000D03*
X124460000Y-117221000D03*
X125730000Y-114681000D03*
X127000000Y-117221000D03*
X128270000Y-114681000D03*
X129540000Y-117221000D03*
X130810000Y-114681000D03*
X132080000Y-117221000D03*
X133350000Y-114681000D03*
X134620000Y-117221000D03*
X135890000Y-114681000D03*
X137160000Y-117221000D03*
X138430000Y-114681000D03*
X139700000Y-117221000D03*
X140970000Y-114681000D03*
X142240000Y-117221000D03*
X143510000Y-114681000D03*
D13*
X55245000Y-81026000D03*
X55245000Y-86026000D03*
D20*
X56642000Y-125980200D03*
X56642000Y-120980200D03*
D14*
X218948000Y-121158000D03*
D15*
X216408000Y-119888000D03*
X218948000Y-118618000D03*
X216408000Y-117348000D03*
X218948000Y-116078000D03*
X216408000Y-114808000D03*
X218948000Y-113538000D03*
X216408000Y-112268000D03*
X218948000Y-110998000D03*
X216408000Y-109728000D03*
X218948000Y-108458000D03*
X216408000Y-107188000D03*
X218948000Y-105918000D03*
X216408000Y-104648000D03*
X218948000Y-103378000D03*
X216408000Y-102108000D03*
X218948000Y-100838000D03*
X216408000Y-99568000D03*
X218948000Y-98298000D03*
X216408000Y-97028000D03*
X218948000Y-95758000D03*
X216408000Y-94488000D03*
X218948000Y-93218000D03*
X216408000Y-91948000D03*
X218948000Y-90678000D03*
X216408000Y-89408000D03*
X218948000Y-88138000D03*
X216408000Y-86868000D03*
X218948000Y-85598000D03*
X216408000Y-84328000D03*
X218948000Y-83058000D03*
X216408000Y-81788000D03*
X218948000Y-80518000D03*
X216408000Y-79248000D03*
X218948000Y-77978000D03*
X216408000Y-76708000D03*
X218948000Y-75438000D03*
X216408000Y-74168000D03*
X218948000Y-72898000D03*
X216408000Y-71628000D03*
D21*
X57150000Y-91279000D03*
D22*
X59690000Y-92529000D03*
X57150000Y-93779000D03*
X59690000Y-95029000D03*
X57150000Y-96279000D03*
X59690000Y-97529000D03*
X57150000Y-98779000D03*
X59690000Y-100029000D03*
X57150000Y-101279000D03*
X59690000Y-102529000D03*
X57150000Y-103779000D03*
X59690000Y-105029000D03*
X57150000Y-106279000D03*
X59690000Y-107529000D03*
X57150000Y-108779000D03*
X59690000Y-110029000D03*
X57150000Y-111279000D03*
X59690000Y-112529000D03*
X57150000Y-113779000D03*
X59690000Y-115029000D03*
X57150000Y-116279000D03*
D23*
X208965800Y-54229000D03*
X208965800Y-64389000D03*
X224205800Y-59309000D03*
X226745800Y-59309000D03*
D18*
X148209000Y-124790200D03*
D19*
X149479000Y-122250200D03*
X150749000Y-124790200D03*
X152019000Y-122250200D03*
X153289000Y-124790200D03*
X154559000Y-122250200D03*
X155829000Y-124790200D03*
X157099000Y-122250200D03*
X158369000Y-124790200D03*
X159639000Y-122250200D03*
X160909000Y-124790200D03*
X162179000Y-122250200D03*
X163449000Y-124790200D03*
X164719000Y-122250200D03*
X165989000Y-124790200D03*
X167259000Y-122250200D03*
X168529000Y-124790200D03*
X169799000Y-122250200D03*
X171069000Y-124790200D03*
X172339000Y-122250200D03*
D24*
X157480000Y-50800000D03*
X154940000Y-50800000D03*
X152400000Y-50800000D03*
X149860000Y-50800000D03*
X147320000Y-50800000D03*
X144780000Y-50800000D03*
X142240000Y-50800000D03*
X139700000Y-50800000D03*
X137160000Y-50800000D03*
X134620000Y-50800000D03*
X132080000Y-50800000D03*
X129540000Y-50800000D03*
X127000000Y-50800000D03*
X124460000Y-50800000D03*
X121920000Y-50800000D03*
X119380000Y-50800000D03*
X116840000Y-50800000D03*
X114300000Y-50800000D03*
X111760000Y-50800000D03*
X109220000Y-50800000D03*
X106680000Y-50800000D03*
X104140000Y-50800000D03*
X101600000Y-50800000D03*
X99060000Y-50800000D03*
X96520000Y-50800000D03*
X93980000Y-50800000D03*
X91440000Y-50800000D03*
X88900000Y-50800000D03*
X86360000Y-50800000D03*
X83820000Y-50800000D03*
D18*
X119380000Y-110312200D03*
D19*
X120650000Y-107772200D03*
X121920000Y-110312200D03*
X123190000Y-107772200D03*
X124460000Y-110312200D03*
X125730000Y-107772200D03*
X127000000Y-110312200D03*
X128270000Y-107772200D03*
X129540000Y-110312200D03*
X130810000Y-107772200D03*
X132080000Y-110312200D03*
X133350000Y-107772200D03*
X134620000Y-110312200D03*
X135890000Y-107772200D03*
X137160000Y-110312200D03*
X138430000Y-107772200D03*
X139700000Y-110312200D03*
X140970000Y-107772200D03*
X142240000Y-110312200D03*
X143510000Y-107772200D03*
D25*
X189988200Y-128016000D03*
X184988200Y-128016000D03*
D18*
X148209000Y-130835400D03*
D19*
X149479000Y-128295400D03*
X150749000Y-130835400D03*
X152019000Y-128295400D03*
X153289000Y-130835400D03*
X154559000Y-128295400D03*
X155829000Y-130835400D03*
X157099000Y-128295400D03*
X158369000Y-130835400D03*
X159639000Y-128295400D03*
X160909000Y-130835400D03*
X162179000Y-128295400D03*
X163449000Y-130835400D03*
X164719000Y-128295400D03*
X165989000Y-130835400D03*
X167259000Y-128295400D03*
X168529000Y-130835400D03*
X169799000Y-128295400D03*
X171069000Y-130835400D03*
X172339000Y-128295400D03*
D13*
X205359000Y-94314000D03*
X205359000Y-99314000D03*
D12*
X104140000Y-72644000D03*
D26*
X106680000Y-72644000D03*
X109220000Y-72644000D03*
X111760000Y-72644000D03*
X114300000Y-72644000D03*
X116840000Y-72644000D03*
X119380000Y-72644000D03*
X121920000Y-72644000D03*
X124460000Y-72644000D03*
X127000000Y-72644000D03*
X129540000Y-72644000D03*
X132080000Y-72644000D03*
X134620000Y-72644000D03*
X137160000Y-72644000D03*
X139700000Y-72644000D03*
X142240000Y-72644000D03*
X144780000Y-72644000D03*
X147320000Y-72644000D03*
X149860000Y-72644000D03*
X152400000Y-72644000D03*
X152400000Y-57404000D03*
X149860000Y-57404000D03*
X147320000Y-57404000D03*
X144780000Y-57404000D03*
X142240000Y-57404000D03*
X139700000Y-57404000D03*
X137160000Y-57404000D03*
X134620000Y-57404000D03*
X132080000Y-57404000D03*
X129540000Y-57404000D03*
X127000000Y-57404000D03*
X124460000Y-57404000D03*
X121920000Y-57404000D03*
X119380000Y-57404000D03*
X116840000Y-57404000D03*
X114300000Y-57404000D03*
X111760000Y-57404000D03*
X109220000Y-57404000D03*
X106680000Y-57404000D03*
X104140000Y-57404000D03*
D27*
X146024600Y-125145800D03*
X146024600Y-122859800D03*
X225806000Y-124968000D03*
X225806000Y-122682000D03*
D28*
X175590200Y-80492600D03*
D29*
X64008000Y-112141000D03*
X64008000Y-114427000D03*
D30*
X170053000Y-120421400D03*
X172339000Y-120421400D03*
D28*
X135966200Y-77241400D03*
X164515800Y-86791800D03*
D30*
X146329400Y-106451400D03*
X148615400Y-106451400D03*
X197485000Y-89408000D03*
X199771000Y-89408000D03*
D29*
X214198200Y-85775800D03*
X214198200Y-88061800D03*
D31*
X97002600Y-89230200D03*
X94716600Y-89230200D03*
D29*
X177927000Y-127533400D03*
X177927000Y-129819400D03*
D30*
X107111800Y-63982600D03*
X109397800Y-63982600D03*
D28*
X141478000Y-97536000D03*
D30*
X157937200Y-100457000D03*
X160223200Y-100457000D03*
D28*
X112649000Y-75311000D03*
X164465000Y-59867800D03*
D27*
X67945000Y-80899000D03*
X67945000Y-78613000D03*
D30*
X93345000Y-61214000D03*
X95631000Y-61214000D03*
D27*
X214198200Y-93091000D03*
X214198200Y-90805000D03*
D29*
X211963000Y-66040000D03*
X211963000Y-68326000D03*
D30*
X165989000Y-117373400D03*
X168275000Y-117373400D03*
D29*
X85928200Y-84201000D03*
X85928200Y-86487000D03*
D31*
X96647000Y-87096600D03*
X94361000Y-87096600D03*
D32*
X103454200Y-125044200D03*
X102184200Y-125044200D03*
X100914200Y-125044200D03*
X99644200Y-125044200D03*
X98374200Y-125044200D03*
X97104200Y-125044200D03*
X95834200Y-125044200D03*
X94564200Y-125044200D03*
X93294200Y-125044200D03*
X92024200Y-125044200D03*
X92024200Y-117678200D03*
X93294200Y-117678200D03*
X94564200Y-117678200D03*
X95834200Y-117678200D03*
X97104200Y-117678200D03*
X98374200Y-117678200D03*
X99644200Y-117678200D03*
X100914200Y-117678200D03*
X102184200Y-117678200D03*
X103454200Y-117678200D03*
D28*
X154178000Y-91567000D03*
D31*
X106807000Y-74803000D03*
X104521000Y-74803000D03*
D26*
X225628200Y-84861400D03*
X225628200Y-87401400D03*
D29*
X101473000Y-57658000D03*
X101473000Y-59944000D03*
D28*
X197866000Y-61849000D03*
D31*
X194437000Y-56007000D03*
X192151000Y-56007000D03*
D30*
X133985000Y-102870000D03*
X136271000Y-102870000D03*
D28*
X103911400Y-69875400D03*
D29*
X137668000Y-94488000D03*
X137668000Y-96774000D03*
D31*
X116840000Y-108635800D03*
X114554000Y-108635800D03*
D29*
X87376000Y-110871000D03*
X87376000Y-113157000D03*
X104775000Y-96647000D03*
X104775000Y-98933000D03*
D27*
X199771000Y-87122000D03*
X199771000Y-84836000D03*
D31*
X116840000Y-114731800D03*
X114554000Y-114731800D03*
X131394200Y-118999000D03*
X129108200Y-118999000D03*
D27*
X175387000Y-129819400D03*
X175387000Y-127533400D03*
D29*
X64008000Y-98806000D03*
X64008000Y-101092000D03*
D30*
X197358000Y-114173000D03*
X199644000Y-114173000D03*
D29*
X90043000Y-110871000D03*
X90043000Y-113157000D03*
D30*
X146329400Y-108635800D03*
X148615400Y-108635800D03*
D29*
X215163400Y-66040000D03*
X215163400Y-68326000D03*
D27*
X176809400Y-124231400D03*
X176809400Y-121945400D03*
D26*
X225628200Y-127838200D03*
X225628200Y-130378200D03*
D30*
X130810000Y-88646000D03*
X133096000Y-88646000D03*
X201041000Y-59182000D03*
X203327000Y-59182000D03*
X107162600Y-118186200D03*
X109448600Y-118186200D03*
D27*
X180568600Y-124231400D03*
X180568600Y-121945400D03*
D28*
X160655000Y-86791800D03*
D30*
X68834000Y-61976000D03*
X71120000Y-61976000D03*
D28*
X148463000Y-95631000D03*
D29*
X88163400Y-84201000D03*
X88163400Y-86487000D03*
D30*
X197358000Y-116713000D03*
X199644000Y-116713000D03*
D27*
X101981000Y-98933000D03*
X101981000Y-96647000D03*
X180467000Y-129819400D03*
X180467000Y-127533400D03*
X169037000Y-66929000D03*
X169037000Y-64643000D03*
X221361000Y-88011000D03*
X221361000Y-85725000D03*
D28*
X130784600Y-79324200D03*
X145288000Y-96901000D03*
D31*
X121869200Y-81965800D03*
X119583200Y-81965800D03*
D28*
X155702000Y-89408000D03*
D27*
X221488000Y-72792500D03*
X221488000Y-70506500D03*
D31*
X149733000Y-63119000D03*
X147447000Y-63119000D03*
D30*
X192532000Y-70358000D03*
X194818000Y-70358000D03*
D27*
X225298000Y-79994000D03*
X225298000Y-77708000D03*
D31*
X194437000Y-60198000D03*
X192151000Y-60198000D03*
D27*
X214198200Y-73431400D03*
X214198200Y-71145400D03*
X221361000Y-94996000D03*
X221361000Y-92710000D03*
M02*
