G04 #@! TF.GenerationSoftware,KiCad,Pcbnew,7.0.2-0*
G04 #@! TF.CreationDate,2023-07-03T11:00:07+02:00*
G04 #@! TF.ProjectId,MegaCD,4d656761-4344-42e6-9b69-6361645f7063,rev?*
G04 #@! TF.SameCoordinates,Original*
G04 #@! TF.FileFunction,Paste,Bot*
G04 #@! TF.FilePolarity,Positive*
%FSLAX46Y46*%
G04 Gerber Fmt 4.6, Leading zero omitted, Abs format (unit mm)*
G04 Created by KiCad (PCBNEW 7.0.2-0) date 2023-07-03 11:00:07*
%MOMM*%
%LPD*%
G01*
G04 APERTURE LIST*
G04 Aperture macros list*
%AMRoundRect*
0 Rectangle with rounded corners*
0 $1 Rounding radius*
0 $2 $3 $4 $5 $6 $7 $8 $9 X,Y pos of 4 corners*
0 Add a 4 corners polygon primitive as box body*
4,1,4,$2,$3,$4,$5,$6,$7,$8,$9,$2,$3,0*
0 Add four circle primitives for the rounded corners*
1,1,$1+$1,$2,$3*
1,1,$1+$1,$4,$5*
1,1,$1+$1,$6,$7*
1,1,$1+$1,$8,$9*
0 Add four rect primitives between the rounded corners*
20,1,$1+$1,$2,$3,$4,$5,0*
20,1,$1+$1,$4,$5,$6,$7,0*
20,1,$1+$1,$6,$7,$8,$9,0*
20,1,$1+$1,$8,$9,$2,$3,0*%
G04 Aperture macros list end*
%ADD10R,1.778000X8.000000*%
%ADD11RoundRect,0.255319X0.344681X-0.394681X0.344681X0.394681X-0.344681X0.394681X-0.344681X-0.394681X0*%
%ADD12C,1.500000*%
%ADD13RoundRect,0.255319X-0.344681X0.394681X-0.344681X-0.394681X0.344681X-0.394681X0.344681X0.394681X0*%
%ADD14RoundRect,0.255319X-0.394681X-0.344681X0.394681X-0.344681X0.394681X0.344681X-0.394681X0.344681X0*%
%ADD15RoundRect,0.255319X0.394681X0.344681X-0.394681X0.344681X-0.394681X-0.344681X0.394681X-0.344681X0*%
%ADD16RoundRect,0.150000X0.150000X-0.875000X0.150000X0.875000X-0.150000X0.875000X-0.150000X-0.875000X0*%
G04 APERTURE END LIST*
D10*
X157480000Y-50800000D03*
X154940000Y-50800000D03*
X152400000Y-50800000D03*
X149860000Y-50800000D03*
X147320000Y-50800000D03*
X144780000Y-50800000D03*
X142240000Y-50800000D03*
X139700000Y-50800000D03*
X137160000Y-50800000D03*
X134620000Y-50800000D03*
X132080000Y-50800000D03*
X129540000Y-50800000D03*
X127000000Y-50800000D03*
X124460000Y-50800000D03*
X121920000Y-50800000D03*
X119380000Y-50800000D03*
X116840000Y-50800000D03*
X114300000Y-50800000D03*
X111760000Y-50800000D03*
X109220000Y-50800000D03*
X106680000Y-50800000D03*
X104140000Y-50800000D03*
X101600000Y-50800000D03*
X99060000Y-50800000D03*
X96520000Y-50800000D03*
X93980000Y-50800000D03*
X91440000Y-50800000D03*
X88900000Y-50800000D03*
X86360000Y-50800000D03*
X83820000Y-50800000D03*
D11*
X146024600Y-125145800D03*
X146024600Y-122859800D03*
X225806000Y-124968000D03*
X225806000Y-122682000D03*
D12*
X175590200Y-80492600D03*
D13*
X64008000Y-112141000D03*
X64008000Y-114427000D03*
D14*
X170053000Y-120421400D03*
X172339000Y-120421400D03*
D12*
X135966200Y-77241400D03*
X164515800Y-86791800D03*
D14*
X146329400Y-106451400D03*
X148615400Y-106451400D03*
X197485000Y-89408000D03*
X199771000Y-89408000D03*
D13*
X214198200Y-85775800D03*
X214198200Y-88061800D03*
D15*
X97002600Y-89230200D03*
X94716600Y-89230200D03*
D13*
X177927000Y-127533400D03*
X177927000Y-129819400D03*
D14*
X107111800Y-63982600D03*
X109397800Y-63982600D03*
D12*
X141478000Y-97536000D03*
D14*
X157937200Y-100457000D03*
X160223200Y-100457000D03*
D12*
X112649000Y-75311000D03*
X164465000Y-59867800D03*
D11*
X67945000Y-80899000D03*
X67945000Y-78613000D03*
D14*
X93345000Y-61214000D03*
X95631000Y-61214000D03*
D11*
X214198200Y-93091000D03*
X214198200Y-90805000D03*
D13*
X211963000Y-66040000D03*
X211963000Y-68326000D03*
D14*
X165989000Y-117373400D03*
X168275000Y-117373400D03*
D13*
X85928200Y-84201000D03*
X85928200Y-86487000D03*
D15*
X96647000Y-87096600D03*
X94361000Y-87096600D03*
D16*
X103454200Y-125044200D03*
X102184200Y-125044200D03*
X100914200Y-125044200D03*
X99644200Y-125044200D03*
X98374200Y-125044200D03*
X97104200Y-125044200D03*
X95834200Y-125044200D03*
X94564200Y-125044200D03*
X93294200Y-125044200D03*
X92024200Y-125044200D03*
X92024200Y-117678200D03*
X93294200Y-117678200D03*
X94564200Y-117678200D03*
X95834200Y-117678200D03*
X97104200Y-117678200D03*
X98374200Y-117678200D03*
X99644200Y-117678200D03*
X100914200Y-117678200D03*
X102184200Y-117678200D03*
X103454200Y-117678200D03*
D12*
X154178000Y-91567000D03*
D15*
X106807000Y-74803000D03*
X104521000Y-74803000D03*
D13*
X101473000Y-57658000D03*
X101473000Y-59944000D03*
D12*
X197866000Y-61849000D03*
D15*
X194437000Y-56007000D03*
X192151000Y-56007000D03*
D14*
X133985000Y-102870000D03*
X136271000Y-102870000D03*
D12*
X103911400Y-69875400D03*
D13*
X137668000Y-94488000D03*
X137668000Y-96774000D03*
D15*
X116840000Y-108635800D03*
X114554000Y-108635800D03*
D13*
X87376000Y-110871000D03*
X87376000Y-113157000D03*
X104775000Y-96647000D03*
X104775000Y-98933000D03*
D11*
X199771000Y-87122000D03*
X199771000Y-84836000D03*
D15*
X116840000Y-114731800D03*
X114554000Y-114731800D03*
X131394200Y-118999000D03*
X129108200Y-118999000D03*
D11*
X175387000Y-129819400D03*
X175387000Y-127533400D03*
D13*
X64008000Y-98806000D03*
X64008000Y-101092000D03*
D14*
X197358000Y-114173000D03*
X199644000Y-114173000D03*
D13*
X90043000Y-110871000D03*
X90043000Y-113157000D03*
D14*
X146329400Y-108635800D03*
X148615400Y-108635800D03*
D13*
X215163400Y-66040000D03*
X215163400Y-68326000D03*
D11*
X176809400Y-124231400D03*
X176809400Y-121945400D03*
D14*
X130810000Y-88646000D03*
X133096000Y-88646000D03*
X201041000Y-59182000D03*
X203327000Y-59182000D03*
X107162600Y-118186200D03*
X109448600Y-118186200D03*
D11*
X180568600Y-124231400D03*
X180568600Y-121945400D03*
D12*
X160655000Y-86791800D03*
D14*
X68834000Y-61976000D03*
X71120000Y-61976000D03*
D12*
X148463000Y-95631000D03*
D13*
X88163400Y-84201000D03*
X88163400Y-86487000D03*
D14*
X197358000Y-116713000D03*
X199644000Y-116713000D03*
D11*
X101981000Y-98933000D03*
X101981000Y-96647000D03*
X180467000Y-129819400D03*
X180467000Y-127533400D03*
X169037000Y-66929000D03*
X169037000Y-64643000D03*
X221361000Y-88011000D03*
X221361000Y-85725000D03*
D12*
X130784600Y-79324200D03*
X145288000Y-96901000D03*
D15*
X121869200Y-81965800D03*
X119583200Y-81965800D03*
D12*
X155702000Y-89408000D03*
D11*
X221488000Y-72792500D03*
X221488000Y-70506500D03*
D15*
X149733000Y-63119000D03*
X147447000Y-63119000D03*
D14*
X192532000Y-70358000D03*
X194818000Y-70358000D03*
D11*
X225298000Y-79994000D03*
X225298000Y-77708000D03*
D15*
X194437000Y-60198000D03*
X192151000Y-60198000D03*
D11*
X214198200Y-73431400D03*
X214198200Y-71145400D03*
X221361000Y-94996000D03*
X221361000Y-92710000D03*
M02*
