%TF.GenerationSoftware,KiCad,Pcbnew,7.0.2-0*%
%TF.CreationDate,2023-08-19T01:30:59+02:00*%
%TF.ProjectId,MegaCD,4d656761-4344-42e6-9b69-6361645f7063,rev?*%
%TF.SameCoordinates,Original*%
%TF.FileFunction,Drillmap*%
%TF.FilePolarity,Positive*%
%FSLAX45Y45*%
G04 Gerber Fmt 4.5, Leading zero omitted, Abs format (unit mm)*
G04 Created by KiCad (PCBNEW 7.0.2-0) date 2023-08-19 01:30:59*
%MOMM*%
%LPD*%
G01*
G04 APERTURE LIST*
%ADD10C,0.100000*%
%ADD11C,0.200000*%
%ADD12C,0.040000*%
%ADD13C,0.080000*%
G04 APERTURE END LIST*
D10*
X17500600Y-10579100D02*
X17500600Y-12979400D01*
X11811000Y-10477500D02*
G75*
G03*
X11709400Y-10579100I0J-101600D01*
G01*
X11709400Y-12103100D02*
X11709400Y-10579100D01*
X11811000Y-10477500D02*
X17399000Y-10477500D01*
X14630400Y-12306300D02*
X14630400Y-12979400D01*
X17500600Y-10579100D02*
G75*
G03*
X17399000Y-10477500I-101600J0D01*
G01*
X11709400Y-12103100D02*
G75*
G03*
X11811000Y-12204700I101600J0D01*
G01*
X14732000Y-13081000D02*
X17399000Y-13081000D01*
X11811000Y-12204700D02*
X14528800Y-12204700D01*
X14630400Y-12306300D02*
G75*
G03*
X14528800Y-12204700I-101600J0D01*
G01*
X14630400Y-12979400D02*
G75*
G03*
X14732000Y-13081000I101600J0D01*
G01*
X17399000Y-13081000D02*
G75*
G03*
X17500600Y-12979400I0J101600D01*
G01*
D11*
D12*
X12172000Y-11143300D02*
X12212000Y-11183300D01*
X12212000Y-11143300D02*
X12172000Y-11183300D01*
X14580268Y-11779950D02*
X14620268Y-11819950D01*
X14620268Y-11779950D02*
X14580268Y-11819950D01*
X14661200Y-11710300D02*
X14701200Y-11750300D01*
X14701200Y-11710300D02*
X14661200Y-11750300D01*
X14686600Y-12070400D02*
X14726600Y-12110400D01*
X14726600Y-12070400D02*
X14686600Y-12110400D01*
X14851700Y-10635300D02*
X14891700Y-10675300D01*
X14891700Y-10635300D02*
X14851700Y-10675300D01*
X14851700Y-12476800D02*
X14891700Y-12516800D01*
X14891700Y-12476800D02*
X14851700Y-12516800D01*
X15080300Y-12324400D02*
X15120300Y-12364400D01*
X15120300Y-12324400D02*
X15080300Y-12364400D01*
X15143800Y-12235500D02*
X15183800Y-12275500D01*
X15183800Y-12235500D02*
X15143800Y-12275500D01*
X15214475Y-11287500D02*
X15254475Y-11327500D01*
X15254475Y-11287500D02*
X15214475Y-11327500D01*
X15486700Y-10635300D02*
X15526700Y-10675300D01*
X15526700Y-10635300D02*
X15486700Y-10675300D01*
X15601000Y-12324400D02*
X15641000Y-12364400D01*
X15641000Y-12324400D02*
X15601000Y-12364400D01*
X15613700Y-11702100D02*
X15653700Y-11742100D01*
X15653700Y-11702100D02*
X15613700Y-11742100D01*
X15740700Y-12228021D02*
X15780700Y-12268021D01*
X15780700Y-12228021D02*
X15740700Y-12268021D01*
X15867700Y-12235500D02*
X15907700Y-12275500D01*
X15907700Y-12235500D02*
X15867700Y-12275500D01*
X15994700Y-11702100D02*
X16034700Y-11742100D01*
X16034700Y-11702100D02*
X15994700Y-11742100D01*
X16058200Y-12260900D02*
X16098200Y-12300900D01*
X16098200Y-12260900D02*
X16058200Y-12300900D01*
X16375700Y-11219500D02*
X16415700Y-11259500D01*
X16415700Y-11219500D02*
X16375700Y-11259500D01*
X16375700Y-11549700D02*
X16415700Y-11589700D01*
X16415700Y-11549700D02*
X16375700Y-11589700D01*
X16502700Y-11219500D02*
X16542700Y-11259500D01*
X16542700Y-11219500D02*
X16502700Y-11259500D01*
X16629700Y-10686100D02*
X16669700Y-10726100D01*
X16669700Y-10686100D02*
X16629700Y-10726100D01*
X16756700Y-11219500D02*
X16796700Y-11259500D01*
X16796700Y-11219500D02*
X16756700Y-11259500D01*
X16883700Y-10686100D02*
X16923700Y-10726100D01*
X16923700Y-10686100D02*
X16883700Y-10726100D01*
X16998000Y-12984800D02*
X17038000Y-13024800D01*
X17038000Y-12984800D02*
X16998000Y-13024800D01*
X17010700Y-11219500D02*
X17050700Y-11259500D01*
X17050700Y-11219500D02*
X17010700Y-11259500D01*
X17137700Y-11219500D02*
X17177700Y-11259500D01*
X17177700Y-11219500D02*
X17137700Y-11259500D01*
X17264700Y-11435400D02*
X17304700Y-11475400D01*
X17304700Y-11435400D02*
X17264700Y-11475400D01*
X17404400Y-12337100D02*
X17444400Y-12377100D01*
X17444400Y-12337100D02*
X17404400Y-12377100D01*
D13*
X11978000Y-10960100D02*
G75*
G03*
X11978000Y-10960100I-40000J0D01*
G01*
X11978000Y-11475720D02*
G75*
G03*
X11978000Y-11475720I-40000J0D01*
G01*
X11978000Y-11988800D02*
G75*
G03*
X11978000Y-11988800I-40000J0D01*
G01*
X12105000Y-10706100D02*
G75*
G03*
X12105000Y-10706100I-40000J0D01*
G01*
X12105000Y-11221720D02*
G75*
G03*
X12105000Y-11221720I-40000J0D01*
G01*
X12105000Y-11734800D02*
G75*
G03*
X12105000Y-11734800I-40000J0D01*
G01*
X12232000Y-10960100D02*
G75*
G03*
X12232000Y-10960100I-40000J0D01*
G01*
X12232000Y-11475720D02*
G75*
G03*
X12232000Y-11475720I-40000J0D01*
G01*
X12232000Y-11988800D02*
G75*
G03*
X12232000Y-11988800I-40000J0D01*
G01*
X12359000Y-10706100D02*
G75*
G03*
X12359000Y-10706100I-40000J0D01*
G01*
X12359000Y-11221720D02*
G75*
G03*
X12359000Y-11221720I-40000J0D01*
G01*
X12359000Y-11734800D02*
G75*
G03*
X12359000Y-11734800I-40000J0D01*
G01*
X12486000Y-10960100D02*
G75*
G03*
X12486000Y-10960100I-40000J0D01*
G01*
X12486000Y-11475720D02*
G75*
G03*
X12486000Y-11475720I-40000J0D01*
G01*
X12486000Y-11988800D02*
G75*
G03*
X12486000Y-11988800I-40000J0D01*
G01*
X12613000Y-10706100D02*
G75*
G03*
X12613000Y-10706100I-40000J0D01*
G01*
X12613000Y-11221720D02*
G75*
G03*
X12613000Y-11221720I-40000J0D01*
G01*
X12613000Y-11734800D02*
G75*
G03*
X12613000Y-11734800I-40000J0D01*
G01*
X12740000Y-10960100D02*
G75*
G03*
X12740000Y-10960100I-40000J0D01*
G01*
X12740000Y-11475720D02*
G75*
G03*
X12740000Y-11475720I-40000J0D01*
G01*
X12740000Y-11988800D02*
G75*
G03*
X12740000Y-11988800I-40000J0D01*
G01*
X12867000Y-10706100D02*
G75*
G03*
X12867000Y-10706100I-40000J0D01*
G01*
X12867000Y-11221720D02*
G75*
G03*
X12867000Y-11221720I-40000J0D01*
G01*
X12867000Y-11734800D02*
G75*
G03*
X12867000Y-11734800I-40000J0D01*
G01*
X12994000Y-10960100D02*
G75*
G03*
X12994000Y-10960100I-40000J0D01*
G01*
X12994000Y-11475720D02*
G75*
G03*
X12994000Y-11475720I-40000J0D01*
G01*
X12994000Y-11988800D02*
G75*
G03*
X12994000Y-11988800I-40000J0D01*
G01*
X13121000Y-10706100D02*
G75*
G03*
X13121000Y-10706100I-40000J0D01*
G01*
X13121000Y-11221720D02*
G75*
G03*
X13121000Y-11221720I-40000J0D01*
G01*
X13121000Y-11734800D02*
G75*
G03*
X13121000Y-11734800I-40000J0D01*
G01*
X13248000Y-10960100D02*
G75*
G03*
X13248000Y-10960100I-40000J0D01*
G01*
X13248000Y-11475720D02*
G75*
G03*
X13248000Y-11475720I-40000J0D01*
G01*
X13248000Y-11988800D02*
G75*
G03*
X13248000Y-11988800I-40000J0D01*
G01*
X13375000Y-10706100D02*
G75*
G03*
X13375000Y-10706100I-40000J0D01*
G01*
X13375000Y-11221720D02*
G75*
G03*
X13375000Y-11221720I-40000J0D01*
G01*
X13375000Y-11734800D02*
G75*
G03*
X13375000Y-11734800I-40000J0D01*
G01*
X13502000Y-10960100D02*
G75*
G03*
X13502000Y-10960100I-40000J0D01*
G01*
X13502000Y-11475720D02*
G75*
G03*
X13502000Y-11475720I-40000J0D01*
G01*
X13502000Y-11988800D02*
G75*
G03*
X13502000Y-11988800I-40000J0D01*
G01*
X13629000Y-10706100D02*
G75*
G03*
X13629000Y-10706100I-40000J0D01*
G01*
X13629000Y-11221720D02*
G75*
G03*
X13629000Y-11221720I-40000J0D01*
G01*
X13629000Y-11734800D02*
G75*
G03*
X13629000Y-11734800I-40000J0D01*
G01*
X13756000Y-10960100D02*
G75*
G03*
X13756000Y-10960100I-40000J0D01*
G01*
X13756000Y-11475720D02*
G75*
G03*
X13756000Y-11475720I-40000J0D01*
G01*
X13756000Y-11988800D02*
G75*
G03*
X13756000Y-11988800I-40000J0D01*
G01*
X13883000Y-10706100D02*
G75*
G03*
X13883000Y-10706100I-40000J0D01*
G01*
X13883000Y-11221720D02*
G75*
G03*
X13883000Y-11221720I-40000J0D01*
G01*
X13883000Y-11734800D02*
G75*
G03*
X13883000Y-11734800I-40000J0D01*
G01*
X14010000Y-10960100D02*
G75*
G03*
X14010000Y-10960100I-40000J0D01*
G01*
X14010000Y-11475720D02*
G75*
G03*
X14010000Y-11475720I-40000J0D01*
G01*
X14010000Y-11988800D02*
G75*
G03*
X14010000Y-11988800I-40000J0D01*
G01*
X14137000Y-10706100D02*
G75*
G03*
X14137000Y-10706100I-40000J0D01*
G01*
X14137000Y-11221720D02*
G75*
G03*
X14137000Y-11221720I-40000J0D01*
G01*
X14137000Y-11734800D02*
G75*
G03*
X14137000Y-11734800I-40000J0D01*
G01*
X14264000Y-10960100D02*
G75*
G03*
X14264000Y-10960100I-40000J0D01*
G01*
X14264000Y-11475720D02*
G75*
G03*
X14264000Y-11475720I-40000J0D01*
G01*
X14264000Y-11988800D02*
G75*
G03*
X14264000Y-11988800I-40000J0D01*
G01*
X14391000Y-10706100D02*
G75*
G03*
X14391000Y-10706100I-40000J0D01*
G01*
X14391000Y-11221720D02*
G75*
G03*
X14391000Y-11221720I-40000J0D01*
G01*
X14391000Y-11734800D02*
G75*
G03*
X14391000Y-11734800I-40000J0D01*
G01*
X14899000Y-12865100D02*
G75*
G03*
X14899000Y-12865100I-40000J0D01*
G01*
X15026000Y-12611100D02*
G75*
G03*
X15026000Y-12611100I-40000J0D01*
G01*
X15153000Y-12865100D02*
G75*
G03*
X15153000Y-12865100I-40000J0D01*
G01*
X15280000Y-12611100D02*
G75*
G03*
X15280000Y-12611100I-40000J0D01*
G01*
X15407000Y-12865100D02*
G75*
G03*
X15407000Y-12865100I-40000J0D01*
G01*
X15534000Y-12611100D02*
G75*
G03*
X15534000Y-12611100I-40000J0D01*
G01*
X15661000Y-12865100D02*
G75*
G03*
X15661000Y-12865100I-40000J0D01*
G01*
X15788000Y-12611100D02*
G75*
G03*
X15788000Y-12611100I-40000J0D01*
G01*
X15915000Y-12865100D02*
G75*
G03*
X15915000Y-12865100I-40000J0D01*
G01*
X16042000Y-12611100D02*
G75*
G03*
X16042000Y-12611100I-40000J0D01*
G01*
X16169000Y-12865100D02*
G75*
G03*
X16169000Y-12865100I-40000J0D01*
G01*
X16296000Y-12611100D02*
G75*
G03*
X16296000Y-12611100I-40000J0D01*
G01*
X16423000Y-12865100D02*
G75*
G03*
X16423000Y-12865100I-40000J0D01*
G01*
X16550000Y-12611100D02*
G75*
G03*
X16550000Y-12611100I-40000J0D01*
G01*
X16677000Y-12865100D02*
G75*
G03*
X16677000Y-12865100I-40000J0D01*
G01*
X16804000Y-12611100D02*
G75*
G03*
X16804000Y-12611100I-40000J0D01*
G01*
X16931000Y-12865100D02*
G75*
G03*
X16931000Y-12865100I-40000J0D01*
G01*
X17058000Y-12611100D02*
G75*
G03*
X17058000Y-12611100I-40000J0D01*
G01*
X17125500Y-10642600D02*
G75*
G03*
X17125500Y-10642600I-40000J0D01*
G01*
X17185000Y-12865100D02*
G75*
G03*
X17185000Y-12865100I-40000J0D01*
G01*
X17312000Y-12611100D02*
G75*
G03*
X17312000Y-12611100I-40000J0D01*
G01*
X17375500Y-10642600D02*
G75*
G03*
X17375500Y-10642600I-40000J0D01*
G01*
D11*
X11952019Y-13398524D02*
X11952019Y-13198524D01*
X11952019Y-13198524D02*
X11999638Y-13198524D01*
X11999638Y-13198524D02*
X12028209Y-13208048D01*
X12028209Y-13208048D02*
X12047257Y-13227095D01*
X12047257Y-13227095D02*
X12056781Y-13246143D01*
X12056781Y-13246143D02*
X12066305Y-13284238D01*
X12066305Y-13284238D02*
X12066305Y-13312809D01*
X12066305Y-13312809D02*
X12056781Y-13350905D01*
X12056781Y-13350905D02*
X12047257Y-13369952D01*
X12047257Y-13369952D02*
X12028209Y-13389000D01*
X12028209Y-13389000D02*
X11999638Y-13398524D01*
X11999638Y-13398524D02*
X11952019Y-13398524D01*
X12152019Y-13398524D02*
X12152019Y-13265190D01*
X12152019Y-13303286D02*
X12161543Y-13284238D01*
X12161543Y-13284238D02*
X12171067Y-13274714D01*
X12171067Y-13274714D02*
X12190114Y-13265190D01*
X12190114Y-13265190D02*
X12209162Y-13265190D01*
X12275828Y-13398524D02*
X12275828Y-13265190D01*
X12275828Y-13198524D02*
X12266305Y-13208048D01*
X12266305Y-13208048D02*
X12275828Y-13217571D01*
X12275828Y-13217571D02*
X12285352Y-13208048D01*
X12285352Y-13208048D02*
X12275828Y-13198524D01*
X12275828Y-13198524D02*
X12275828Y-13217571D01*
X12399638Y-13398524D02*
X12380590Y-13389000D01*
X12380590Y-13389000D02*
X12371067Y-13369952D01*
X12371067Y-13369952D02*
X12371067Y-13198524D01*
X12504400Y-13398524D02*
X12485352Y-13389000D01*
X12485352Y-13389000D02*
X12475828Y-13369952D01*
X12475828Y-13369952D02*
X12475828Y-13198524D01*
X12732971Y-13398524D02*
X12732971Y-13198524D01*
X12732971Y-13198524D02*
X12799638Y-13341381D01*
X12799638Y-13341381D02*
X12866305Y-13198524D01*
X12866305Y-13198524D02*
X12866305Y-13398524D01*
X13047257Y-13398524D02*
X13047257Y-13293762D01*
X13047257Y-13293762D02*
X13037733Y-13274714D01*
X13037733Y-13274714D02*
X13018686Y-13265190D01*
X13018686Y-13265190D02*
X12980590Y-13265190D01*
X12980590Y-13265190D02*
X12961543Y-13274714D01*
X13047257Y-13389000D02*
X13028209Y-13398524D01*
X13028209Y-13398524D02*
X12980590Y-13398524D01*
X12980590Y-13398524D02*
X12961543Y-13389000D01*
X12961543Y-13389000D02*
X12952019Y-13369952D01*
X12952019Y-13369952D02*
X12952019Y-13350905D01*
X12952019Y-13350905D02*
X12961543Y-13331857D01*
X12961543Y-13331857D02*
X12980590Y-13322333D01*
X12980590Y-13322333D02*
X13028209Y-13322333D01*
X13028209Y-13322333D02*
X13047257Y-13312809D01*
X13142495Y-13265190D02*
X13142495Y-13465190D01*
X13142495Y-13274714D02*
X13161543Y-13265190D01*
X13161543Y-13265190D02*
X13199638Y-13265190D01*
X13199638Y-13265190D02*
X13218686Y-13274714D01*
X13218686Y-13274714D02*
X13228209Y-13284238D01*
X13228209Y-13284238D02*
X13237733Y-13303286D01*
X13237733Y-13303286D02*
X13237733Y-13360428D01*
X13237733Y-13360428D02*
X13228209Y-13379476D01*
X13228209Y-13379476D02*
X13218686Y-13389000D01*
X13218686Y-13389000D02*
X13199638Y-13398524D01*
X13199638Y-13398524D02*
X13161543Y-13398524D01*
X13161543Y-13398524D02*
X13142495Y-13389000D01*
X13323448Y-13379476D02*
X13332971Y-13389000D01*
X13332971Y-13389000D02*
X13323448Y-13398524D01*
X13323448Y-13398524D02*
X13313924Y-13389000D01*
X13313924Y-13389000D02*
X13323448Y-13379476D01*
X13323448Y-13379476D02*
X13323448Y-13398524D01*
X13323448Y-13274714D02*
X13332971Y-13284238D01*
X13332971Y-13284238D02*
X13323448Y-13293762D01*
X13323448Y-13293762D02*
X13313924Y-13284238D01*
X13313924Y-13284238D02*
X13323448Y-13274714D01*
X13323448Y-13274714D02*
X13323448Y-13293762D01*
D12*
X11664400Y-13706000D02*
X11704400Y-13746000D01*
X11704400Y-13706000D02*
X11664400Y-13746000D01*
D11*
X11990114Y-13618524D02*
X12009162Y-13618524D01*
X12009162Y-13618524D02*
X12028209Y-13628048D01*
X12028209Y-13628048D02*
X12037733Y-13637571D01*
X12037733Y-13637571D02*
X12047257Y-13656619D01*
X12047257Y-13656619D02*
X12056781Y-13694714D01*
X12056781Y-13694714D02*
X12056781Y-13742333D01*
X12056781Y-13742333D02*
X12047257Y-13780428D01*
X12047257Y-13780428D02*
X12037733Y-13799476D01*
X12037733Y-13799476D02*
X12028209Y-13809000D01*
X12028209Y-13809000D02*
X12009162Y-13818524D01*
X12009162Y-13818524D02*
X11990114Y-13818524D01*
X11990114Y-13818524D02*
X11971067Y-13809000D01*
X11971067Y-13809000D02*
X11961543Y-13799476D01*
X11961543Y-13799476D02*
X11952019Y-13780428D01*
X11952019Y-13780428D02*
X11942495Y-13742333D01*
X11942495Y-13742333D02*
X11942495Y-13694714D01*
X11942495Y-13694714D02*
X11952019Y-13656619D01*
X11952019Y-13656619D02*
X11961543Y-13637571D01*
X11961543Y-13637571D02*
X11971067Y-13628048D01*
X11971067Y-13628048D02*
X11990114Y-13618524D01*
X12142495Y-13799476D02*
X12152019Y-13809000D01*
X12152019Y-13809000D02*
X12142495Y-13818524D01*
X12142495Y-13818524D02*
X12132971Y-13809000D01*
X12132971Y-13809000D02*
X12142495Y-13799476D01*
X12142495Y-13799476D02*
X12142495Y-13818524D01*
X12323448Y-13685190D02*
X12323448Y-13818524D01*
X12275828Y-13609000D02*
X12228209Y-13751857D01*
X12228209Y-13751857D02*
X12352019Y-13751857D01*
X12466305Y-13618524D02*
X12485352Y-13618524D01*
X12485352Y-13618524D02*
X12504400Y-13628048D01*
X12504400Y-13628048D02*
X12513924Y-13637571D01*
X12513924Y-13637571D02*
X12523448Y-13656619D01*
X12523448Y-13656619D02*
X12532971Y-13694714D01*
X12532971Y-13694714D02*
X12532971Y-13742333D01*
X12532971Y-13742333D02*
X12523448Y-13780428D01*
X12523448Y-13780428D02*
X12513924Y-13799476D01*
X12513924Y-13799476D02*
X12504400Y-13809000D01*
X12504400Y-13809000D02*
X12485352Y-13818524D01*
X12485352Y-13818524D02*
X12466305Y-13818524D01*
X12466305Y-13818524D02*
X12447257Y-13809000D01*
X12447257Y-13809000D02*
X12437733Y-13799476D01*
X12437733Y-13799476D02*
X12428209Y-13780428D01*
X12428209Y-13780428D02*
X12418686Y-13742333D01*
X12418686Y-13742333D02*
X12418686Y-13694714D01*
X12418686Y-13694714D02*
X12428209Y-13656619D01*
X12428209Y-13656619D02*
X12437733Y-13637571D01*
X12437733Y-13637571D02*
X12447257Y-13628048D01*
X12447257Y-13628048D02*
X12466305Y-13618524D01*
X12656781Y-13618524D02*
X12675829Y-13618524D01*
X12675829Y-13618524D02*
X12694876Y-13628048D01*
X12694876Y-13628048D02*
X12704400Y-13637571D01*
X12704400Y-13637571D02*
X12713924Y-13656619D01*
X12713924Y-13656619D02*
X12723448Y-13694714D01*
X12723448Y-13694714D02*
X12723448Y-13742333D01*
X12723448Y-13742333D02*
X12713924Y-13780428D01*
X12713924Y-13780428D02*
X12704400Y-13799476D01*
X12704400Y-13799476D02*
X12694876Y-13809000D01*
X12694876Y-13809000D02*
X12675829Y-13818524D01*
X12675829Y-13818524D02*
X12656781Y-13818524D01*
X12656781Y-13818524D02*
X12637733Y-13809000D01*
X12637733Y-13809000D02*
X12628209Y-13799476D01*
X12628209Y-13799476D02*
X12618686Y-13780428D01*
X12618686Y-13780428D02*
X12609162Y-13742333D01*
X12609162Y-13742333D02*
X12609162Y-13694714D01*
X12609162Y-13694714D02*
X12618686Y-13656619D01*
X12618686Y-13656619D02*
X12628209Y-13637571D01*
X12628209Y-13637571D02*
X12637733Y-13628048D01*
X12637733Y-13628048D02*
X12656781Y-13618524D01*
X12809162Y-13818524D02*
X12809162Y-13685190D01*
X12809162Y-13704238D02*
X12818686Y-13694714D01*
X12818686Y-13694714D02*
X12837733Y-13685190D01*
X12837733Y-13685190D02*
X12866305Y-13685190D01*
X12866305Y-13685190D02*
X12885352Y-13694714D01*
X12885352Y-13694714D02*
X12894876Y-13713762D01*
X12894876Y-13713762D02*
X12894876Y-13818524D01*
X12894876Y-13713762D02*
X12904400Y-13694714D01*
X12904400Y-13694714D02*
X12923448Y-13685190D01*
X12923448Y-13685190D02*
X12952019Y-13685190D01*
X12952019Y-13685190D02*
X12971067Y-13694714D01*
X12971067Y-13694714D02*
X12980590Y-13713762D01*
X12980590Y-13713762D02*
X12980590Y-13818524D01*
X13075829Y-13818524D02*
X13075829Y-13685190D01*
X13075829Y-13704238D02*
X13085352Y-13694714D01*
X13085352Y-13694714D02*
X13104400Y-13685190D01*
X13104400Y-13685190D02*
X13132971Y-13685190D01*
X13132971Y-13685190D02*
X13152019Y-13694714D01*
X13152019Y-13694714D02*
X13161543Y-13713762D01*
X13161543Y-13713762D02*
X13161543Y-13818524D01*
X13161543Y-13713762D02*
X13171067Y-13694714D01*
X13171067Y-13694714D02*
X13190114Y-13685190D01*
X13190114Y-13685190D02*
X13218686Y-13685190D01*
X13218686Y-13685190D02*
X13237733Y-13694714D01*
X13237733Y-13694714D02*
X13247257Y-13713762D01*
X13247257Y-13713762D02*
X13247257Y-13818524D01*
X13637733Y-13609000D02*
X13466305Y-13866143D01*
X13894876Y-13618524D02*
X13913924Y-13618524D01*
X13913924Y-13618524D02*
X13932972Y-13628048D01*
X13932972Y-13628048D02*
X13942495Y-13637571D01*
X13942495Y-13637571D02*
X13952019Y-13656619D01*
X13952019Y-13656619D02*
X13961543Y-13694714D01*
X13961543Y-13694714D02*
X13961543Y-13742333D01*
X13961543Y-13742333D02*
X13952019Y-13780428D01*
X13952019Y-13780428D02*
X13942495Y-13799476D01*
X13942495Y-13799476D02*
X13932972Y-13809000D01*
X13932972Y-13809000D02*
X13913924Y-13818524D01*
X13913924Y-13818524D02*
X13894876Y-13818524D01*
X13894876Y-13818524D02*
X13875829Y-13809000D01*
X13875829Y-13809000D02*
X13866305Y-13799476D01*
X13866305Y-13799476D02*
X13856781Y-13780428D01*
X13856781Y-13780428D02*
X13847257Y-13742333D01*
X13847257Y-13742333D02*
X13847257Y-13694714D01*
X13847257Y-13694714D02*
X13856781Y-13656619D01*
X13856781Y-13656619D02*
X13866305Y-13637571D01*
X13866305Y-13637571D02*
X13875829Y-13628048D01*
X13875829Y-13628048D02*
X13894876Y-13618524D01*
X14047257Y-13799476D02*
X14056781Y-13809000D01*
X14056781Y-13809000D02*
X14047257Y-13818524D01*
X14047257Y-13818524D02*
X14037733Y-13809000D01*
X14037733Y-13809000D02*
X14047257Y-13799476D01*
X14047257Y-13799476D02*
X14047257Y-13818524D01*
X14180591Y-13618524D02*
X14199638Y-13618524D01*
X14199638Y-13618524D02*
X14218686Y-13628048D01*
X14218686Y-13628048D02*
X14228210Y-13637571D01*
X14228210Y-13637571D02*
X14237733Y-13656619D01*
X14237733Y-13656619D02*
X14247257Y-13694714D01*
X14247257Y-13694714D02*
X14247257Y-13742333D01*
X14247257Y-13742333D02*
X14237733Y-13780428D01*
X14237733Y-13780428D02*
X14228210Y-13799476D01*
X14228210Y-13799476D02*
X14218686Y-13809000D01*
X14218686Y-13809000D02*
X14199638Y-13818524D01*
X14199638Y-13818524D02*
X14180591Y-13818524D01*
X14180591Y-13818524D02*
X14161543Y-13809000D01*
X14161543Y-13809000D02*
X14152019Y-13799476D01*
X14152019Y-13799476D02*
X14142495Y-13780428D01*
X14142495Y-13780428D02*
X14132972Y-13742333D01*
X14132972Y-13742333D02*
X14132972Y-13694714D01*
X14132972Y-13694714D02*
X14142495Y-13656619D01*
X14142495Y-13656619D02*
X14152019Y-13637571D01*
X14152019Y-13637571D02*
X14161543Y-13628048D01*
X14161543Y-13628048D02*
X14180591Y-13618524D01*
X14437733Y-13818524D02*
X14323448Y-13818524D01*
X14380591Y-13818524D02*
X14380591Y-13618524D01*
X14380591Y-13618524D02*
X14361543Y-13647095D01*
X14361543Y-13647095D02*
X14342495Y-13666143D01*
X14342495Y-13666143D02*
X14323448Y-13675667D01*
X14618686Y-13618524D02*
X14523448Y-13618524D01*
X14523448Y-13618524D02*
X14513924Y-13713762D01*
X14513924Y-13713762D02*
X14523448Y-13704238D01*
X14523448Y-13704238D02*
X14542495Y-13694714D01*
X14542495Y-13694714D02*
X14590114Y-13694714D01*
X14590114Y-13694714D02*
X14609162Y-13704238D01*
X14609162Y-13704238D02*
X14618686Y-13713762D01*
X14618686Y-13713762D02*
X14628210Y-13732809D01*
X14628210Y-13732809D02*
X14628210Y-13780428D01*
X14628210Y-13780428D02*
X14618686Y-13799476D01*
X14618686Y-13799476D02*
X14609162Y-13809000D01*
X14609162Y-13809000D02*
X14590114Y-13818524D01*
X14590114Y-13818524D02*
X14542495Y-13818524D01*
X14542495Y-13818524D02*
X14523448Y-13809000D01*
X14523448Y-13809000D02*
X14513924Y-13799476D01*
X14694876Y-13618524D02*
X14828210Y-13618524D01*
X14828210Y-13618524D02*
X14742495Y-13818524D01*
X14894876Y-13618524D02*
X14894876Y-13656619D01*
X14971067Y-13618524D02*
X14971067Y-13656619D01*
X15266305Y-13894714D02*
X15256781Y-13885190D01*
X15256781Y-13885190D02*
X15237734Y-13856619D01*
X15237734Y-13856619D02*
X15228210Y-13837571D01*
X15228210Y-13837571D02*
X15218686Y-13809000D01*
X15218686Y-13809000D02*
X15209162Y-13761381D01*
X15209162Y-13761381D02*
X15209162Y-13723286D01*
X15209162Y-13723286D02*
X15218686Y-13675667D01*
X15218686Y-13675667D02*
X15228210Y-13647095D01*
X15228210Y-13647095D02*
X15237734Y-13628048D01*
X15237734Y-13628048D02*
X15256781Y-13599476D01*
X15256781Y-13599476D02*
X15266305Y-13589952D01*
X15332972Y-13637571D02*
X15342495Y-13628048D01*
X15342495Y-13628048D02*
X15361543Y-13618524D01*
X15361543Y-13618524D02*
X15409162Y-13618524D01*
X15409162Y-13618524D02*
X15428210Y-13628048D01*
X15428210Y-13628048D02*
X15437734Y-13637571D01*
X15437734Y-13637571D02*
X15447257Y-13656619D01*
X15447257Y-13656619D02*
X15447257Y-13675667D01*
X15447257Y-13675667D02*
X15437734Y-13704238D01*
X15437734Y-13704238D02*
X15323448Y-13818524D01*
X15323448Y-13818524D02*
X15447257Y-13818524D01*
X15513924Y-13618524D02*
X15647257Y-13618524D01*
X15647257Y-13618524D02*
X15561543Y-13818524D01*
X15875829Y-13818524D02*
X15875829Y-13618524D01*
X15961543Y-13818524D02*
X15961543Y-13713762D01*
X15961543Y-13713762D02*
X15952019Y-13694714D01*
X15952019Y-13694714D02*
X15932972Y-13685190D01*
X15932972Y-13685190D02*
X15904400Y-13685190D01*
X15904400Y-13685190D02*
X15885353Y-13694714D01*
X15885353Y-13694714D02*
X15875829Y-13704238D01*
X16085353Y-13818524D02*
X16066305Y-13809000D01*
X16066305Y-13809000D02*
X16056781Y-13799476D01*
X16056781Y-13799476D02*
X16047257Y-13780428D01*
X16047257Y-13780428D02*
X16047257Y-13723286D01*
X16047257Y-13723286D02*
X16056781Y-13704238D01*
X16056781Y-13704238D02*
X16066305Y-13694714D01*
X16066305Y-13694714D02*
X16085353Y-13685190D01*
X16085353Y-13685190D02*
X16113924Y-13685190D01*
X16113924Y-13685190D02*
X16132972Y-13694714D01*
X16132972Y-13694714D02*
X16142496Y-13704238D01*
X16142496Y-13704238D02*
X16152019Y-13723286D01*
X16152019Y-13723286D02*
X16152019Y-13780428D01*
X16152019Y-13780428D02*
X16142496Y-13799476D01*
X16142496Y-13799476D02*
X16132972Y-13809000D01*
X16132972Y-13809000D02*
X16113924Y-13818524D01*
X16113924Y-13818524D02*
X16085353Y-13818524D01*
X16266305Y-13818524D02*
X16247257Y-13809000D01*
X16247257Y-13809000D02*
X16237734Y-13789952D01*
X16237734Y-13789952D02*
X16237734Y-13618524D01*
X16418686Y-13809000D02*
X16399638Y-13818524D01*
X16399638Y-13818524D02*
X16361543Y-13818524D01*
X16361543Y-13818524D02*
X16342496Y-13809000D01*
X16342496Y-13809000D02*
X16332972Y-13789952D01*
X16332972Y-13789952D02*
X16332972Y-13713762D01*
X16332972Y-13713762D02*
X16342496Y-13694714D01*
X16342496Y-13694714D02*
X16361543Y-13685190D01*
X16361543Y-13685190D02*
X16399638Y-13685190D01*
X16399638Y-13685190D02*
X16418686Y-13694714D01*
X16418686Y-13694714D02*
X16428210Y-13713762D01*
X16428210Y-13713762D02*
X16428210Y-13732809D01*
X16428210Y-13732809D02*
X16332972Y-13751857D01*
X16504400Y-13809000D02*
X16523448Y-13818524D01*
X16523448Y-13818524D02*
X16561543Y-13818524D01*
X16561543Y-13818524D02*
X16580591Y-13809000D01*
X16580591Y-13809000D02*
X16590115Y-13789952D01*
X16590115Y-13789952D02*
X16590115Y-13780428D01*
X16590115Y-13780428D02*
X16580591Y-13761381D01*
X16580591Y-13761381D02*
X16561543Y-13751857D01*
X16561543Y-13751857D02*
X16532972Y-13751857D01*
X16532972Y-13751857D02*
X16513924Y-13742333D01*
X16513924Y-13742333D02*
X16504400Y-13723286D01*
X16504400Y-13723286D02*
X16504400Y-13713762D01*
X16504400Y-13713762D02*
X16513924Y-13694714D01*
X16513924Y-13694714D02*
X16532972Y-13685190D01*
X16532972Y-13685190D02*
X16561543Y-13685190D01*
X16561543Y-13685190D02*
X16580591Y-13694714D01*
X16656781Y-13894714D02*
X16666305Y-13885190D01*
X16666305Y-13885190D02*
X16685353Y-13856619D01*
X16685353Y-13856619D02*
X16694877Y-13837571D01*
X16694877Y-13837571D02*
X16704400Y-13809000D01*
X16704400Y-13809000D02*
X16713924Y-13761381D01*
X16713924Y-13761381D02*
X16713924Y-13723286D01*
X16713924Y-13723286D02*
X16704400Y-13675667D01*
X16704400Y-13675667D02*
X16694877Y-13647095D01*
X16694877Y-13647095D02*
X16685353Y-13628048D01*
X16685353Y-13628048D02*
X16666305Y-13599476D01*
X16666305Y-13599476D02*
X16656781Y-13589952D01*
D13*
X11704400Y-13990000D02*
G75*
G03*
X11704400Y-13990000I-40000J0D01*
G01*
D11*
X11990114Y-13882524D02*
X12009162Y-13882524D01*
X12009162Y-13882524D02*
X12028209Y-13892048D01*
X12028209Y-13892048D02*
X12037733Y-13901571D01*
X12037733Y-13901571D02*
X12047257Y-13920619D01*
X12047257Y-13920619D02*
X12056781Y-13958714D01*
X12056781Y-13958714D02*
X12056781Y-14006333D01*
X12056781Y-14006333D02*
X12047257Y-14044428D01*
X12047257Y-14044428D02*
X12037733Y-14063476D01*
X12037733Y-14063476D02*
X12028209Y-14073000D01*
X12028209Y-14073000D02*
X12009162Y-14082524D01*
X12009162Y-14082524D02*
X11990114Y-14082524D01*
X11990114Y-14082524D02*
X11971067Y-14073000D01*
X11971067Y-14073000D02*
X11961543Y-14063476D01*
X11961543Y-14063476D02*
X11952019Y-14044428D01*
X11952019Y-14044428D02*
X11942495Y-14006333D01*
X11942495Y-14006333D02*
X11942495Y-13958714D01*
X11942495Y-13958714D02*
X11952019Y-13920619D01*
X11952019Y-13920619D02*
X11961543Y-13901571D01*
X11961543Y-13901571D02*
X11971067Y-13892048D01*
X11971067Y-13892048D02*
X11990114Y-13882524D01*
X12142495Y-14063476D02*
X12152019Y-14073000D01*
X12152019Y-14073000D02*
X12142495Y-14082524D01*
X12142495Y-14082524D02*
X12132971Y-14073000D01*
X12132971Y-14073000D02*
X12142495Y-14063476D01*
X12142495Y-14063476D02*
X12142495Y-14082524D01*
X12266305Y-13968238D02*
X12247257Y-13958714D01*
X12247257Y-13958714D02*
X12237733Y-13949190D01*
X12237733Y-13949190D02*
X12228209Y-13930143D01*
X12228209Y-13930143D02*
X12228209Y-13920619D01*
X12228209Y-13920619D02*
X12237733Y-13901571D01*
X12237733Y-13901571D02*
X12247257Y-13892048D01*
X12247257Y-13892048D02*
X12266305Y-13882524D01*
X12266305Y-13882524D02*
X12304400Y-13882524D01*
X12304400Y-13882524D02*
X12323448Y-13892048D01*
X12323448Y-13892048D02*
X12332971Y-13901571D01*
X12332971Y-13901571D02*
X12342495Y-13920619D01*
X12342495Y-13920619D02*
X12342495Y-13930143D01*
X12342495Y-13930143D02*
X12332971Y-13949190D01*
X12332971Y-13949190D02*
X12323448Y-13958714D01*
X12323448Y-13958714D02*
X12304400Y-13968238D01*
X12304400Y-13968238D02*
X12266305Y-13968238D01*
X12266305Y-13968238D02*
X12247257Y-13977762D01*
X12247257Y-13977762D02*
X12237733Y-13987286D01*
X12237733Y-13987286D02*
X12228209Y-14006333D01*
X12228209Y-14006333D02*
X12228209Y-14044428D01*
X12228209Y-14044428D02*
X12237733Y-14063476D01*
X12237733Y-14063476D02*
X12247257Y-14073000D01*
X12247257Y-14073000D02*
X12266305Y-14082524D01*
X12266305Y-14082524D02*
X12304400Y-14082524D01*
X12304400Y-14082524D02*
X12323448Y-14073000D01*
X12323448Y-14073000D02*
X12332971Y-14063476D01*
X12332971Y-14063476D02*
X12342495Y-14044428D01*
X12342495Y-14044428D02*
X12342495Y-14006333D01*
X12342495Y-14006333D02*
X12332971Y-13987286D01*
X12332971Y-13987286D02*
X12323448Y-13977762D01*
X12323448Y-13977762D02*
X12304400Y-13968238D01*
X12466305Y-13882524D02*
X12485352Y-13882524D01*
X12485352Y-13882524D02*
X12504400Y-13892048D01*
X12504400Y-13892048D02*
X12513924Y-13901571D01*
X12513924Y-13901571D02*
X12523448Y-13920619D01*
X12523448Y-13920619D02*
X12532971Y-13958714D01*
X12532971Y-13958714D02*
X12532971Y-14006333D01*
X12532971Y-14006333D02*
X12523448Y-14044428D01*
X12523448Y-14044428D02*
X12513924Y-14063476D01*
X12513924Y-14063476D02*
X12504400Y-14073000D01*
X12504400Y-14073000D02*
X12485352Y-14082524D01*
X12485352Y-14082524D02*
X12466305Y-14082524D01*
X12466305Y-14082524D02*
X12447257Y-14073000D01*
X12447257Y-14073000D02*
X12437733Y-14063476D01*
X12437733Y-14063476D02*
X12428209Y-14044428D01*
X12428209Y-14044428D02*
X12418686Y-14006333D01*
X12418686Y-14006333D02*
X12418686Y-13958714D01*
X12418686Y-13958714D02*
X12428209Y-13920619D01*
X12428209Y-13920619D02*
X12437733Y-13901571D01*
X12437733Y-13901571D02*
X12447257Y-13892048D01*
X12447257Y-13892048D02*
X12466305Y-13882524D01*
X12656781Y-13882524D02*
X12675829Y-13882524D01*
X12675829Y-13882524D02*
X12694876Y-13892048D01*
X12694876Y-13892048D02*
X12704400Y-13901571D01*
X12704400Y-13901571D02*
X12713924Y-13920619D01*
X12713924Y-13920619D02*
X12723448Y-13958714D01*
X12723448Y-13958714D02*
X12723448Y-14006333D01*
X12723448Y-14006333D02*
X12713924Y-14044428D01*
X12713924Y-14044428D02*
X12704400Y-14063476D01*
X12704400Y-14063476D02*
X12694876Y-14073000D01*
X12694876Y-14073000D02*
X12675829Y-14082524D01*
X12675829Y-14082524D02*
X12656781Y-14082524D01*
X12656781Y-14082524D02*
X12637733Y-14073000D01*
X12637733Y-14073000D02*
X12628209Y-14063476D01*
X12628209Y-14063476D02*
X12618686Y-14044428D01*
X12618686Y-14044428D02*
X12609162Y-14006333D01*
X12609162Y-14006333D02*
X12609162Y-13958714D01*
X12609162Y-13958714D02*
X12618686Y-13920619D01*
X12618686Y-13920619D02*
X12628209Y-13901571D01*
X12628209Y-13901571D02*
X12637733Y-13892048D01*
X12637733Y-13892048D02*
X12656781Y-13882524D01*
X12809162Y-14082524D02*
X12809162Y-13949190D01*
X12809162Y-13968238D02*
X12818686Y-13958714D01*
X12818686Y-13958714D02*
X12837733Y-13949190D01*
X12837733Y-13949190D02*
X12866305Y-13949190D01*
X12866305Y-13949190D02*
X12885352Y-13958714D01*
X12885352Y-13958714D02*
X12894876Y-13977762D01*
X12894876Y-13977762D02*
X12894876Y-14082524D01*
X12894876Y-13977762D02*
X12904400Y-13958714D01*
X12904400Y-13958714D02*
X12923448Y-13949190D01*
X12923448Y-13949190D02*
X12952019Y-13949190D01*
X12952019Y-13949190D02*
X12971067Y-13958714D01*
X12971067Y-13958714D02*
X12980590Y-13977762D01*
X12980590Y-13977762D02*
X12980590Y-14082524D01*
X13075829Y-14082524D02*
X13075829Y-13949190D01*
X13075829Y-13968238D02*
X13085352Y-13958714D01*
X13085352Y-13958714D02*
X13104400Y-13949190D01*
X13104400Y-13949190D02*
X13132971Y-13949190D01*
X13132971Y-13949190D02*
X13152019Y-13958714D01*
X13152019Y-13958714D02*
X13161543Y-13977762D01*
X13161543Y-13977762D02*
X13161543Y-14082524D01*
X13161543Y-13977762D02*
X13171067Y-13958714D01*
X13171067Y-13958714D02*
X13190114Y-13949190D01*
X13190114Y-13949190D02*
X13218686Y-13949190D01*
X13218686Y-13949190D02*
X13237733Y-13958714D01*
X13237733Y-13958714D02*
X13247257Y-13977762D01*
X13247257Y-13977762D02*
X13247257Y-14082524D01*
X13637733Y-13873000D02*
X13466305Y-14130143D01*
X13894876Y-13882524D02*
X13913924Y-13882524D01*
X13913924Y-13882524D02*
X13932972Y-13892048D01*
X13932972Y-13892048D02*
X13942495Y-13901571D01*
X13942495Y-13901571D02*
X13952019Y-13920619D01*
X13952019Y-13920619D02*
X13961543Y-13958714D01*
X13961543Y-13958714D02*
X13961543Y-14006333D01*
X13961543Y-14006333D02*
X13952019Y-14044428D01*
X13952019Y-14044428D02*
X13942495Y-14063476D01*
X13942495Y-14063476D02*
X13932972Y-14073000D01*
X13932972Y-14073000D02*
X13913924Y-14082524D01*
X13913924Y-14082524D02*
X13894876Y-14082524D01*
X13894876Y-14082524D02*
X13875829Y-14073000D01*
X13875829Y-14073000D02*
X13866305Y-14063476D01*
X13866305Y-14063476D02*
X13856781Y-14044428D01*
X13856781Y-14044428D02*
X13847257Y-14006333D01*
X13847257Y-14006333D02*
X13847257Y-13958714D01*
X13847257Y-13958714D02*
X13856781Y-13920619D01*
X13856781Y-13920619D02*
X13866305Y-13901571D01*
X13866305Y-13901571D02*
X13875829Y-13892048D01*
X13875829Y-13892048D02*
X13894876Y-13882524D01*
X14047257Y-14063476D02*
X14056781Y-14073000D01*
X14056781Y-14073000D02*
X14047257Y-14082524D01*
X14047257Y-14082524D02*
X14037733Y-14073000D01*
X14037733Y-14073000D02*
X14047257Y-14063476D01*
X14047257Y-14063476D02*
X14047257Y-14082524D01*
X14180591Y-13882524D02*
X14199638Y-13882524D01*
X14199638Y-13882524D02*
X14218686Y-13892048D01*
X14218686Y-13892048D02*
X14228210Y-13901571D01*
X14228210Y-13901571D02*
X14237733Y-13920619D01*
X14237733Y-13920619D02*
X14247257Y-13958714D01*
X14247257Y-13958714D02*
X14247257Y-14006333D01*
X14247257Y-14006333D02*
X14237733Y-14044428D01*
X14237733Y-14044428D02*
X14228210Y-14063476D01*
X14228210Y-14063476D02*
X14218686Y-14073000D01*
X14218686Y-14073000D02*
X14199638Y-14082524D01*
X14199638Y-14082524D02*
X14180591Y-14082524D01*
X14180591Y-14082524D02*
X14161543Y-14073000D01*
X14161543Y-14073000D02*
X14152019Y-14063476D01*
X14152019Y-14063476D02*
X14142495Y-14044428D01*
X14142495Y-14044428D02*
X14132972Y-14006333D01*
X14132972Y-14006333D02*
X14132972Y-13958714D01*
X14132972Y-13958714D02*
X14142495Y-13920619D01*
X14142495Y-13920619D02*
X14152019Y-13901571D01*
X14152019Y-13901571D02*
X14161543Y-13892048D01*
X14161543Y-13892048D02*
X14180591Y-13882524D01*
X14313924Y-13882524D02*
X14437733Y-13882524D01*
X14437733Y-13882524D02*
X14371067Y-13958714D01*
X14371067Y-13958714D02*
X14399638Y-13958714D01*
X14399638Y-13958714D02*
X14418686Y-13968238D01*
X14418686Y-13968238D02*
X14428210Y-13977762D01*
X14428210Y-13977762D02*
X14437733Y-13996809D01*
X14437733Y-13996809D02*
X14437733Y-14044428D01*
X14437733Y-14044428D02*
X14428210Y-14063476D01*
X14428210Y-14063476D02*
X14418686Y-14073000D01*
X14418686Y-14073000D02*
X14399638Y-14082524D01*
X14399638Y-14082524D02*
X14342495Y-14082524D01*
X14342495Y-14082524D02*
X14323448Y-14073000D01*
X14323448Y-14073000D02*
X14313924Y-14063476D01*
X14628210Y-14082524D02*
X14513924Y-14082524D01*
X14571067Y-14082524D02*
X14571067Y-13882524D01*
X14571067Y-13882524D02*
X14552019Y-13911095D01*
X14552019Y-13911095D02*
X14532972Y-13930143D01*
X14532972Y-13930143D02*
X14513924Y-13939667D01*
X14809162Y-13882524D02*
X14713924Y-13882524D01*
X14713924Y-13882524D02*
X14704400Y-13977762D01*
X14704400Y-13977762D02*
X14713924Y-13968238D01*
X14713924Y-13968238D02*
X14732972Y-13958714D01*
X14732972Y-13958714D02*
X14780591Y-13958714D01*
X14780591Y-13958714D02*
X14799638Y-13968238D01*
X14799638Y-13968238D02*
X14809162Y-13977762D01*
X14809162Y-13977762D02*
X14818686Y-13996809D01*
X14818686Y-13996809D02*
X14818686Y-14044428D01*
X14818686Y-14044428D02*
X14809162Y-14063476D01*
X14809162Y-14063476D02*
X14799638Y-14073000D01*
X14799638Y-14073000D02*
X14780591Y-14082524D01*
X14780591Y-14082524D02*
X14732972Y-14082524D01*
X14732972Y-14082524D02*
X14713924Y-14073000D01*
X14713924Y-14073000D02*
X14704400Y-14063476D01*
X14894876Y-13882524D02*
X14894876Y-13920619D01*
X14971067Y-13882524D02*
X14971067Y-13920619D01*
X15266305Y-14158714D02*
X15256781Y-14149190D01*
X15256781Y-14149190D02*
X15237734Y-14120619D01*
X15237734Y-14120619D02*
X15228210Y-14101571D01*
X15228210Y-14101571D02*
X15218686Y-14073000D01*
X15218686Y-14073000D02*
X15209162Y-14025381D01*
X15209162Y-14025381D02*
X15209162Y-13987286D01*
X15209162Y-13987286D02*
X15218686Y-13939667D01*
X15218686Y-13939667D02*
X15228210Y-13911095D01*
X15228210Y-13911095D02*
X15237734Y-13892048D01*
X15237734Y-13892048D02*
X15256781Y-13863476D01*
X15256781Y-13863476D02*
X15266305Y-13853952D01*
X15371067Y-13968238D02*
X15352019Y-13958714D01*
X15352019Y-13958714D02*
X15342495Y-13949190D01*
X15342495Y-13949190D02*
X15332972Y-13930143D01*
X15332972Y-13930143D02*
X15332972Y-13920619D01*
X15332972Y-13920619D02*
X15342495Y-13901571D01*
X15342495Y-13901571D02*
X15352019Y-13892048D01*
X15352019Y-13892048D02*
X15371067Y-13882524D01*
X15371067Y-13882524D02*
X15409162Y-13882524D01*
X15409162Y-13882524D02*
X15428210Y-13892048D01*
X15428210Y-13892048D02*
X15437734Y-13901571D01*
X15437734Y-13901571D02*
X15447257Y-13920619D01*
X15447257Y-13920619D02*
X15447257Y-13930143D01*
X15447257Y-13930143D02*
X15437734Y-13949190D01*
X15437734Y-13949190D02*
X15428210Y-13958714D01*
X15428210Y-13958714D02*
X15409162Y-13968238D01*
X15409162Y-13968238D02*
X15371067Y-13968238D01*
X15371067Y-13968238D02*
X15352019Y-13977762D01*
X15352019Y-13977762D02*
X15342495Y-13987286D01*
X15342495Y-13987286D02*
X15332972Y-14006333D01*
X15332972Y-14006333D02*
X15332972Y-14044428D01*
X15332972Y-14044428D02*
X15342495Y-14063476D01*
X15342495Y-14063476D02*
X15352019Y-14073000D01*
X15352019Y-14073000D02*
X15371067Y-14082524D01*
X15371067Y-14082524D02*
X15409162Y-14082524D01*
X15409162Y-14082524D02*
X15428210Y-14073000D01*
X15428210Y-14073000D02*
X15437734Y-14063476D01*
X15437734Y-14063476D02*
X15447257Y-14044428D01*
X15447257Y-14044428D02*
X15447257Y-14006333D01*
X15447257Y-14006333D02*
X15437734Y-13987286D01*
X15437734Y-13987286D02*
X15428210Y-13977762D01*
X15428210Y-13977762D02*
X15409162Y-13968238D01*
X15523448Y-13901571D02*
X15532972Y-13892048D01*
X15532972Y-13892048D02*
X15552019Y-13882524D01*
X15552019Y-13882524D02*
X15599638Y-13882524D01*
X15599638Y-13882524D02*
X15618686Y-13892048D01*
X15618686Y-13892048D02*
X15628210Y-13901571D01*
X15628210Y-13901571D02*
X15637734Y-13920619D01*
X15637734Y-13920619D02*
X15637734Y-13939667D01*
X15637734Y-13939667D02*
X15628210Y-13968238D01*
X15628210Y-13968238D02*
X15513924Y-14082524D01*
X15513924Y-14082524D02*
X15637734Y-14082524D01*
X15875829Y-14082524D02*
X15875829Y-13882524D01*
X15961543Y-14082524D02*
X15961543Y-13977762D01*
X15961543Y-13977762D02*
X15952019Y-13958714D01*
X15952019Y-13958714D02*
X15932972Y-13949190D01*
X15932972Y-13949190D02*
X15904400Y-13949190D01*
X15904400Y-13949190D02*
X15885353Y-13958714D01*
X15885353Y-13958714D02*
X15875829Y-13968238D01*
X16085353Y-14082524D02*
X16066305Y-14073000D01*
X16066305Y-14073000D02*
X16056781Y-14063476D01*
X16056781Y-14063476D02*
X16047257Y-14044428D01*
X16047257Y-14044428D02*
X16047257Y-13987286D01*
X16047257Y-13987286D02*
X16056781Y-13968238D01*
X16056781Y-13968238D02*
X16066305Y-13958714D01*
X16066305Y-13958714D02*
X16085353Y-13949190D01*
X16085353Y-13949190D02*
X16113924Y-13949190D01*
X16113924Y-13949190D02*
X16132972Y-13958714D01*
X16132972Y-13958714D02*
X16142496Y-13968238D01*
X16142496Y-13968238D02*
X16152019Y-13987286D01*
X16152019Y-13987286D02*
X16152019Y-14044428D01*
X16152019Y-14044428D02*
X16142496Y-14063476D01*
X16142496Y-14063476D02*
X16132972Y-14073000D01*
X16132972Y-14073000D02*
X16113924Y-14082524D01*
X16113924Y-14082524D02*
X16085353Y-14082524D01*
X16266305Y-14082524D02*
X16247257Y-14073000D01*
X16247257Y-14073000D02*
X16237734Y-14053952D01*
X16237734Y-14053952D02*
X16237734Y-13882524D01*
X16418686Y-14073000D02*
X16399638Y-14082524D01*
X16399638Y-14082524D02*
X16361543Y-14082524D01*
X16361543Y-14082524D02*
X16342496Y-14073000D01*
X16342496Y-14073000D02*
X16332972Y-14053952D01*
X16332972Y-14053952D02*
X16332972Y-13977762D01*
X16332972Y-13977762D02*
X16342496Y-13958714D01*
X16342496Y-13958714D02*
X16361543Y-13949190D01*
X16361543Y-13949190D02*
X16399638Y-13949190D01*
X16399638Y-13949190D02*
X16418686Y-13958714D01*
X16418686Y-13958714D02*
X16428210Y-13977762D01*
X16428210Y-13977762D02*
X16428210Y-13996809D01*
X16428210Y-13996809D02*
X16332972Y-14015857D01*
X16504400Y-14073000D02*
X16523448Y-14082524D01*
X16523448Y-14082524D02*
X16561543Y-14082524D01*
X16561543Y-14082524D02*
X16580591Y-14073000D01*
X16580591Y-14073000D02*
X16590115Y-14053952D01*
X16590115Y-14053952D02*
X16590115Y-14044428D01*
X16590115Y-14044428D02*
X16580591Y-14025381D01*
X16580591Y-14025381D02*
X16561543Y-14015857D01*
X16561543Y-14015857D02*
X16532972Y-14015857D01*
X16532972Y-14015857D02*
X16513924Y-14006333D01*
X16513924Y-14006333D02*
X16504400Y-13987286D01*
X16504400Y-13987286D02*
X16504400Y-13977762D01*
X16504400Y-13977762D02*
X16513924Y-13958714D01*
X16513924Y-13958714D02*
X16532972Y-13949190D01*
X16532972Y-13949190D02*
X16561543Y-13949190D01*
X16561543Y-13949190D02*
X16580591Y-13958714D01*
X16656781Y-14158714D02*
X16666305Y-14149190D01*
X16666305Y-14149190D02*
X16685353Y-14120619D01*
X16685353Y-14120619D02*
X16694877Y-14101571D01*
X16694877Y-14101571D02*
X16704400Y-14073000D01*
X16704400Y-14073000D02*
X16713924Y-14025381D01*
X16713924Y-14025381D02*
X16713924Y-13987286D01*
X16713924Y-13987286D02*
X16704400Y-13939667D01*
X16704400Y-13939667D02*
X16694877Y-13911095D01*
X16694877Y-13911095D02*
X16685353Y-13892048D01*
X16685353Y-13892048D02*
X16666305Y-13863476D01*
X16666305Y-13863476D02*
X16656781Y-13853952D01*
M02*
