G04 #@! TF.GenerationSoftware,KiCad,Pcbnew,7.0.2-0*
G04 #@! TF.CreationDate,2023-08-19T01:07:35+02:00*
G04 #@! TF.ProjectId,MegaCD,4d656761-4344-42e6-9b69-6361645f7063,rev?*
G04 #@! TF.SameCoordinates,Original*
G04 #@! TF.FileFunction,Soldermask,Bot*
G04 #@! TF.FilePolarity,Negative*
%FSLAX46Y46*%
G04 Gerber Fmt 4.6, Leading zero omitted, Abs format (unit mm)*
G04 Created by KiCad (PCBNEW 7.0.2-0) date 2023-08-19 01:07:35*
%MOMM*%
%LPD*%
G01*
G04 APERTURE LIST*
G04 Aperture macros list*
%AMRoundRect*
0 Rectangle with rounded corners*
0 $1 Rounding radius*
0 $2 $3 $4 $5 $6 $7 $8 $9 X,Y pos of 4 corners*
0 Add a 4 corners polygon primitive as box body*
4,1,4,$2,$3,$4,$5,$6,$7,$8,$9,$2,$3,0*
0 Add four circle primitives for the rounded corners*
1,1,$1+$1,$2,$3*
1,1,$1+$1,$4,$5*
1,1,$1+$1,$6,$7*
1,1,$1+$1,$8,$9*
0 Add four rect primitives between the rounded corners*
20,1,$1+$1,$2,$3,$4,$5,0*
20,1,$1+$1,$4,$5,$6,$7,0*
20,1,$1+$1,$6,$7,$8,$9,0*
20,1,$1+$1,$8,$9,$2,$3,0*%
G04 Aperture macros list end*
%ADD10RoundRect,0.255319X-0.344681X0.394681X-0.344681X-0.394681X0.344681X-0.394681X0.344681X0.394681X0*%
%ADD11R,1.400000X1.300000*%
%ADD12RoundRect,0.325000X0.375000X-0.325000X0.375000X0.325000X-0.375000X0.325000X-0.375000X-0.325000X0*%
%ADD13C,1.600000*%
G04 APERTURE END LIST*
D10*
X148717000Y-120904000D03*
X148717000Y-123190000D03*
D11*
X119380000Y-114757200D03*
D12*
X120650000Y-112217200D03*
X121920000Y-114757200D03*
X123190000Y-112217200D03*
X124460000Y-114757200D03*
X125730000Y-112217200D03*
X127000000Y-114757200D03*
X128270000Y-112217200D03*
X129540000Y-114757200D03*
X130810000Y-112217200D03*
X132080000Y-114757200D03*
X133350000Y-112217200D03*
X134620000Y-114757200D03*
X135890000Y-112217200D03*
X137160000Y-114757200D03*
X138430000Y-112217200D03*
X139700000Y-114757200D03*
X140970000Y-112217200D03*
X142240000Y-114757200D03*
X143510000Y-112217200D03*
D11*
X119380000Y-119888000D03*
D12*
X120650000Y-117348000D03*
X121920000Y-119888000D03*
X123190000Y-117348000D03*
X124460000Y-119888000D03*
X125730000Y-117348000D03*
X127000000Y-119888000D03*
X128270000Y-117348000D03*
X129540000Y-119888000D03*
X130810000Y-117348000D03*
X132080000Y-119888000D03*
X133350000Y-117348000D03*
X134620000Y-119888000D03*
X135890000Y-117348000D03*
X137160000Y-119888000D03*
X138430000Y-117348000D03*
X139700000Y-119888000D03*
X140970000Y-117348000D03*
X142240000Y-119888000D03*
X143510000Y-117348000D03*
D11*
X119380000Y-109601000D03*
D12*
X120650000Y-107061000D03*
X121920000Y-109601000D03*
X123190000Y-107061000D03*
X124460000Y-109601000D03*
X125730000Y-107061000D03*
X127000000Y-109601000D03*
X128270000Y-107061000D03*
X129540000Y-109601000D03*
X130810000Y-107061000D03*
X132080000Y-109601000D03*
X133350000Y-107061000D03*
X134620000Y-109601000D03*
X135890000Y-107061000D03*
X137160000Y-109601000D03*
X138430000Y-107061000D03*
X139700000Y-109601000D03*
X140970000Y-107061000D03*
X142240000Y-109601000D03*
X143510000Y-107061000D03*
D11*
X148590000Y-128651000D03*
D12*
X149860000Y-126111000D03*
X151130000Y-128651000D03*
X152400000Y-126111000D03*
X153670000Y-128651000D03*
X154940000Y-126111000D03*
X156210000Y-128651000D03*
X157480000Y-126111000D03*
X158750000Y-128651000D03*
X160020000Y-126111000D03*
X161290000Y-128651000D03*
X162560000Y-126111000D03*
X163830000Y-128651000D03*
X165100000Y-126111000D03*
X166370000Y-128651000D03*
X167640000Y-126111000D03*
X168910000Y-128651000D03*
X170180000Y-126111000D03*
X171450000Y-128651000D03*
X172720000Y-126111000D03*
D13*
X173355000Y-106426000D03*
X170855000Y-106426000D03*
M02*
