G04 #@! TF.GenerationSoftware,KiCad,Pcbnew,7.0.2-0*
G04 #@! TF.CreationDate,2023-08-19T01:07:34+02:00*
G04 #@! TF.ProjectId,MegaCD,4d656761-4344-42e6-9b69-6361645f7063,rev?*
G04 #@! TF.SameCoordinates,Original*
G04 #@! TF.FileFunction,Copper,L1,Top*
G04 #@! TF.FilePolarity,Positive*
%FSLAX46Y46*%
G04 Gerber Fmt 4.6, Leading zero omitted, Abs format (unit mm)*
G04 Created by KiCad (PCBNEW 7.0.2-0) date 2023-08-19 01:07:34*
%MOMM*%
%LPD*%
G01*
G04 APERTURE LIST*
G04 Aperture macros list*
%AMRoundRect*
0 Rectangle with rounded corners*
0 $1 Rounding radius*
0 $2 $3 $4 $5 $6 $7 $8 $9 X,Y pos of 4 corners*
0 Add a 4 corners polygon primitive as box body*
4,1,4,$2,$3,$4,$5,$6,$7,$8,$9,$2,$3,0*
0 Add four circle primitives for the rounded corners*
1,1,$1+$1,$2,$3*
1,1,$1+$1,$4,$5*
1,1,$1+$1,$6,$7*
1,1,$1+$1,$8,$9*
0 Add four rect primitives between the rounded corners*
20,1,$1+$1,$2,$3,$4,$5,0*
20,1,$1+$1,$4,$5,$6,$7,0*
20,1,$1+$1,$6,$7,$8,$9,0*
20,1,$1+$1,$8,$9,$2,$3,0*%
G04 Aperture macros list end*
G04 #@! TA.AperFunction,SMDPad,CuDef*
%ADD10R,0.700000X3.400000*%
G04 #@! TD*
G04 #@! TA.AperFunction,ComponentPad*
%ADD11R,1.400000X1.300000*%
G04 #@! TD*
G04 #@! TA.AperFunction,ComponentPad*
%ADD12RoundRect,0.325000X0.375000X-0.325000X0.375000X0.325000X-0.375000X0.325000X-0.375000X-0.325000X0*%
G04 #@! TD*
G04 #@! TA.AperFunction,ComponentPad*
%ADD13C,1.600000*%
G04 #@! TD*
G04 #@! TA.AperFunction,ViaPad*
%ADD14C,0.800000*%
G04 #@! TD*
G04 #@! TA.AperFunction,Conductor*
%ADD15C,0.500000*%
G04 #@! TD*
G04 #@! TA.AperFunction,Conductor*
%ADD16C,0.250000*%
G04 #@! TD*
G04 APERTURE END LIST*
D10*
X148717000Y-119888000D03*
X149987000Y-119888000D03*
X151257000Y-119888000D03*
X152527000Y-119888000D03*
X153797000Y-119888000D03*
X155067000Y-119888000D03*
X156337000Y-119888000D03*
X157607000Y-119888000D03*
X158877000Y-119888000D03*
X160147000Y-119888000D03*
X161417000Y-119888000D03*
X162687000Y-119888000D03*
X163957000Y-119888000D03*
X165227000Y-119888000D03*
X166497000Y-119888000D03*
X167767000Y-119888000D03*
X169037000Y-119888000D03*
X170307000Y-119888000D03*
X171577000Y-119888000D03*
X172847000Y-119888000D03*
X172847000Y-109728000D03*
X171577000Y-109728000D03*
X170307000Y-109728000D03*
X169037000Y-109728000D03*
X167767000Y-109728000D03*
X166497000Y-109728000D03*
X165227000Y-109728000D03*
X163957000Y-109728000D03*
X162687000Y-109728000D03*
X161417000Y-109728000D03*
X160147000Y-109728000D03*
X158877000Y-109728000D03*
X157607000Y-109728000D03*
X156337000Y-109728000D03*
X155067000Y-109728000D03*
X153797000Y-109728000D03*
X152527000Y-109728000D03*
X151257000Y-109728000D03*
X149987000Y-109728000D03*
X148717000Y-109728000D03*
D11*
X119380000Y-114757200D03*
D12*
X120650000Y-112217200D03*
X121920000Y-114757200D03*
X123190000Y-112217200D03*
X124460000Y-114757200D03*
X125730000Y-112217200D03*
X127000000Y-114757200D03*
X128270000Y-112217200D03*
X129540000Y-114757200D03*
X130810000Y-112217200D03*
X132080000Y-114757200D03*
X133350000Y-112217200D03*
X134620000Y-114757200D03*
X135890000Y-112217200D03*
X137160000Y-114757200D03*
X138430000Y-112217200D03*
X139700000Y-114757200D03*
X140970000Y-112217200D03*
X142240000Y-114757200D03*
X143510000Y-112217200D03*
D11*
X119380000Y-119888000D03*
D12*
X120650000Y-117348000D03*
X121920000Y-119888000D03*
X123190000Y-117348000D03*
X124460000Y-119888000D03*
X125730000Y-117348000D03*
X127000000Y-119888000D03*
X128270000Y-117348000D03*
X129540000Y-119888000D03*
X130810000Y-117348000D03*
X132080000Y-119888000D03*
X133350000Y-117348000D03*
X134620000Y-119888000D03*
X135890000Y-117348000D03*
X137160000Y-119888000D03*
X138430000Y-117348000D03*
X139700000Y-119888000D03*
X140970000Y-117348000D03*
X142240000Y-119888000D03*
X143510000Y-117348000D03*
D11*
X119380000Y-109601000D03*
D12*
X120650000Y-107061000D03*
X121920000Y-109601000D03*
X123190000Y-107061000D03*
X124460000Y-109601000D03*
X125730000Y-107061000D03*
X127000000Y-109601000D03*
X128270000Y-107061000D03*
X129540000Y-109601000D03*
X130810000Y-107061000D03*
X132080000Y-109601000D03*
X133350000Y-107061000D03*
X134620000Y-109601000D03*
X135890000Y-107061000D03*
X137160000Y-109601000D03*
X138430000Y-107061000D03*
X139700000Y-109601000D03*
X140970000Y-107061000D03*
X142240000Y-109601000D03*
X143510000Y-107061000D03*
D11*
X148590000Y-128651000D03*
D12*
X149860000Y-126111000D03*
X151130000Y-128651000D03*
X152400000Y-126111000D03*
X153670000Y-128651000D03*
X154940000Y-126111000D03*
X156210000Y-128651000D03*
X157480000Y-126111000D03*
X158750000Y-128651000D03*
X160020000Y-126111000D03*
X161290000Y-128651000D03*
X162560000Y-126111000D03*
X163830000Y-128651000D03*
X165100000Y-126111000D03*
X166370000Y-128651000D03*
X167640000Y-126111000D03*
X168910000Y-128651000D03*
X170180000Y-126111000D03*
X171450000Y-128651000D03*
X172720000Y-126111000D03*
D13*
X173355000Y-106426000D03*
X170855000Y-106426000D03*
D14*
X174244000Y-123571000D03*
X170180000Y-130048000D03*
X160782000Y-122809000D03*
X156210000Y-123444000D03*
X148717000Y-124968000D03*
X147066000Y-120904000D03*
X172847000Y-114554000D03*
X155067000Y-106553000D03*
X148717000Y-106553000D03*
X146812000Y-117303000D03*
X156337000Y-117221000D03*
X151638000Y-122555000D03*
X151003000Y-123444000D03*
X121920000Y-111633000D03*
X152344750Y-113075000D03*
X146002681Y-117999500D03*
X160147000Y-117221000D03*
X158877000Y-122555000D03*
X157607000Y-122480207D03*
X165227000Y-112395000D03*
X166497000Y-107061000D03*
X167767000Y-112395000D03*
X169037000Y-107061000D03*
X170307000Y-112395000D03*
X171577000Y-112395000D03*
X163957000Y-112395000D03*
X163957000Y-115697000D03*
D15*
X166370000Y-128651000D02*
X166370000Y-125158500D01*
X166814500Y-124714000D02*
X170053000Y-124714000D01*
X172847000Y-121920000D02*
X172847000Y-119888000D01*
X166370000Y-125158500D02*
X166814500Y-124714000D01*
X170053000Y-124714000D02*
X172847000Y-121920000D01*
X172847000Y-119888000D02*
X172847000Y-116713000D01*
X172847000Y-116713000D02*
X173863000Y-115697000D01*
X173863000Y-115697000D02*
X173863000Y-106934000D01*
X173863000Y-106934000D02*
X173355000Y-106426000D01*
X147066000Y-120478000D02*
X147656000Y-119888000D01*
X147066000Y-120904000D02*
X147066000Y-120478000D01*
X147656000Y-119888000D02*
X148717000Y-119888000D01*
X166370000Y-128651000D02*
X164973000Y-130048000D01*
X147574000Y-130048000D02*
X147066000Y-129540000D01*
X147066000Y-129540000D02*
X147066000Y-120904000D01*
X164973000Y-130048000D02*
X147574000Y-130048000D01*
D16*
X146002681Y-117999500D02*
X145130181Y-118872000D01*
X124714000Y-117602000D02*
X124460000Y-117348000D01*
X145130181Y-118872000D02*
X125095000Y-118872000D01*
X125095000Y-118872000D02*
X124714000Y-118491000D01*
X124460000Y-117348000D02*
X123190000Y-117348000D01*
X124714000Y-118491000D02*
X124714000Y-117602000D01*
X123190000Y-112217200D02*
X124129800Y-112217200D01*
X154686000Y-111887000D02*
X156083000Y-111887000D01*
X124129800Y-112217200D02*
X125095000Y-111252000D01*
X146812000Y-113792000D02*
X152781000Y-113792000D01*
X156337000Y-111633000D02*
X156337000Y-109728000D01*
X144272000Y-111252000D02*
X146812000Y-113792000D01*
X125095000Y-111252000D02*
X144272000Y-111252000D01*
X152781000Y-113792000D02*
X154686000Y-111887000D01*
X156083000Y-111887000D02*
X156337000Y-111633000D01*
X125730000Y-112217200D02*
X125730000Y-112268000D01*
X125730000Y-112268000D02*
X124714000Y-113284000D01*
X124714000Y-113284000D02*
X121666000Y-113284000D01*
X121666000Y-113284000D02*
X120650000Y-114300000D01*
X120650000Y-114300000D02*
X120650000Y-115316000D01*
X120650000Y-115316000D02*
X121666000Y-116332000D01*
X121666000Y-116332000D02*
X143397815Y-116332000D01*
X143397815Y-116332000D02*
X144413815Y-115316000D01*
X158623000Y-113411000D02*
X160147000Y-111887000D01*
X153543000Y-115316000D02*
X155448000Y-113411000D01*
X144413815Y-115316000D02*
X153543000Y-115316000D01*
X155448000Y-113411000D02*
X158623000Y-113411000D01*
X160147000Y-111887000D02*
X160147000Y-109728000D01*
X127000000Y-114757200D02*
X128066800Y-115824000D01*
X143163101Y-115824000D02*
X144179101Y-114808000D01*
X128066800Y-115824000D02*
X143163101Y-115824000D01*
X144179101Y-114808000D02*
X153289000Y-114808000D01*
X153289000Y-114808000D02*
X155194000Y-112903000D01*
X157861000Y-112903000D02*
X158877000Y-111887000D01*
X155194000Y-112903000D02*
X157861000Y-112903000D01*
X158877000Y-111887000D02*
X158877000Y-109728000D01*
X121920000Y-114757200D02*
X122885200Y-113792000D01*
X146558000Y-114300000D02*
X153035000Y-114300000D01*
X122885200Y-113792000D02*
X124891680Y-113792000D01*
X124891680Y-113792000D02*
X125526680Y-113157000D01*
X157607000Y-111887000D02*
X157607000Y-109728000D01*
X125526680Y-113157000D02*
X145415000Y-113157000D01*
X145415000Y-113157000D02*
X146558000Y-114300000D01*
X153035000Y-114300000D02*
X154940000Y-112395000D01*
X157099000Y-112395000D02*
X157607000Y-111887000D01*
X154940000Y-112395000D02*
X157099000Y-112395000D01*
X146812000Y-117303000D02*
X145714000Y-117303000D01*
X145714000Y-117303000D02*
X144653000Y-118364000D01*
X144653000Y-118364000D02*
X126746000Y-118364000D01*
X126746000Y-118364000D02*
X125730000Y-117348000D01*
X152344750Y-113075000D02*
X153797000Y-111622750D01*
X153797000Y-111622750D02*
X153797000Y-109728000D01*
X160782000Y-124460000D02*
X162687000Y-122555000D01*
X158496000Y-124460000D02*
X160782000Y-124460000D01*
X162687000Y-122555000D02*
X162687000Y-119888000D01*
X157480000Y-125476000D02*
X158496000Y-124460000D01*
X157480000Y-126111000D02*
X157480000Y-125476000D01*
D15*
X172847000Y-109728000D02*
X172847000Y-114554000D01*
X155067000Y-109728000D02*
X155067000Y-106553000D01*
X148717000Y-109728000D02*
X148717000Y-106553000D01*
X155067000Y-117729000D02*
X155067000Y-119888000D01*
X148717000Y-117729000D02*
X149352000Y-117094000D01*
X148717000Y-119888000D02*
X148717000Y-117729000D01*
X154432000Y-117094000D02*
X155067000Y-117729000D01*
X149352000Y-117094000D02*
X154432000Y-117094000D01*
D16*
X156337000Y-117221000D02*
X156337000Y-119888000D01*
X152400000Y-124841000D02*
X153035000Y-124206000D01*
X153035000Y-122555000D02*
X153797000Y-121793000D01*
X153797000Y-121793000D02*
X153797000Y-119888000D01*
X152400000Y-126111000D02*
X152400000Y-124841000D01*
X153035000Y-124206000D02*
X153035000Y-122555000D01*
X151130000Y-125349000D02*
X152527000Y-123952000D01*
X151130000Y-128651000D02*
X151130000Y-125349000D01*
X152527000Y-123952000D02*
X152527000Y-119888000D01*
X151257000Y-122174000D02*
X151257000Y-119888000D01*
X151638000Y-122555000D02*
X151257000Y-122174000D01*
X151003000Y-123444000D02*
X149987000Y-122428000D01*
X149987000Y-122428000D02*
X149987000Y-119888000D01*
X149987000Y-111633000D02*
X149987000Y-109728000D01*
X123190000Y-107061000D02*
X123190000Y-106426000D01*
X148463000Y-112268000D02*
X149352000Y-112268000D01*
X123571000Y-106045000D02*
X144399000Y-106045000D01*
X144399000Y-106045000D02*
X144907000Y-106553000D01*
X144907000Y-108712000D02*
X148463000Y-112268000D01*
X149352000Y-112268000D02*
X149987000Y-111633000D01*
X144907000Y-106553000D02*
X144907000Y-108712000D01*
X123190000Y-106426000D02*
X123571000Y-106045000D01*
X121920000Y-109601000D02*
X121920000Y-109474000D01*
X151257000Y-111760000D02*
X151257000Y-109728000D01*
X121920000Y-109474000D02*
X122809000Y-108585000D01*
X143510000Y-108077000D02*
X148209000Y-112776000D01*
X148209000Y-112776000D02*
X150241000Y-112776000D01*
X127635000Y-108077000D02*
X143510000Y-108077000D01*
X150241000Y-112776000D02*
X151257000Y-111760000D01*
X127127000Y-108585000D02*
X127635000Y-108077000D01*
X122809000Y-108585000D02*
X127127000Y-108585000D01*
X147955000Y-113284000D02*
X151003000Y-113284000D01*
X127000000Y-109601000D02*
X128016000Y-108585000D01*
X152527000Y-111760000D02*
X152527000Y-109728000D01*
X143256000Y-108585000D02*
X147955000Y-113284000D01*
X151003000Y-113284000D02*
X152527000Y-111760000D01*
X128016000Y-108585000D02*
X143256000Y-108585000D01*
X120777000Y-108966000D02*
X121666000Y-108077000D01*
X121920000Y-111633000D02*
X120777000Y-110490000D01*
X120777000Y-110490000D02*
X120777000Y-108966000D01*
X121666000Y-108077000D02*
X124714000Y-108077000D01*
X124714000Y-108077000D02*
X125730000Y-107061000D01*
X160147000Y-119888000D02*
X160147000Y-117221000D01*
X158877000Y-122555000D02*
X158877000Y-119888000D01*
X157607000Y-122480207D02*
X157607000Y-119888000D01*
X165227000Y-109728000D02*
X165227000Y-112395000D01*
X166497000Y-107061000D02*
X166497000Y-109728000D01*
X167767000Y-112395000D02*
X167767000Y-109728000D01*
X169037000Y-107061000D02*
X169037000Y-109728000D01*
X170307000Y-112395000D02*
X170307000Y-109728000D01*
X171577000Y-112395000D02*
X171577000Y-109728000D01*
X165100000Y-126111000D02*
X165100000Y-124460000D01*
X169291000Y-124079000D02*
X171577000Y-121793000D01*
X171577000Y-121793000D02*
X171577000Y-119888000D01*
X165100000Y-124460000D02*
X165481000Y-124079000D01*
X165481000Y-124079000D02*
X169291000Y-124079000D01*
X170307000Y-121793000D02*
X170307000Y-119888000D01*
X163830000Y-124714000D02*
X164973000Y-123571000D01*
X164973000Y-123571000D02*
X168529000Y-123571000D01*
X168529000Y-123571000D02*
X170307000Y-121793000D01*
X163830000Y-128651000D02*
X163830000Y-124714000D01*
X164465000Y-123063000D02*
X167767000Y-123063000D01*
X167767000Y-123063000D02*
X169037000Y-121793000D01*
X162560000Y-124968000D02*
X164465000Y-123063000D01*
X162560000Y-126111000D02*
X162560000Y-124968000D01*
X169037000Y-121793000D02*
X169037000Y-119888000D01*
X167005000Y-122555000D02*
X167767000Y-121793000D01*
X161290000Y-128651000D02*
X161290000Y-125476000D01*
X161290000Y-125476000D02*
X164211000Y-122555000D01*
X167767000Y-121793000D02*
X167767000Y-119888000D01*
X164211000Y-122555000D02*
X167005000Y-122555000D01*
X163957000Y-122047000D02*
X164909500Y-122047000D01*
X164909500Y-122047000D02*
X165227000Y-121729500D01*
X159131000Y-124968000D02*
X161036000Y-124968000D01*
X161036000Y-124968000D02*
X163957000Y-122047000D01*
X165227000Y-121729500D02*
X165227000Y-119888000D01*
X158750000Y-128651000D02*
X158750000Y-125349000D01*
X158750000Y-125349000D02*
X159131000Y-124968000D01*
X163957000Y-112395000D02*
X163957000Y-109728000D01*
X163957000Y-115697000D02*
X163957000Y-119888000D01*
G04 #@! TA.AperFunction,Conductor*
G36*
X148059539Y-120408185D02*
G01*
X148105294Y-120460989D01*
X148116500Y-120512500D01*
X148116500Y-121612674D01*
X148131033Y-121685738D01*
X148131033Y-121685739D01*
X148131034Y-121685740D01*
X148186399Y-121768601D01*
X148269260Y-121823966D01*
X148285297Y-121827156D01*
X148342325Y-121838500D01*
X148342326Y-121838500D01*
X149091675Y-121838500D01*
X149116029Y-121833655D01*
X149164740Y-121823966D01*
X149247601Y-121768601D01*
X149248898Y-121766658D01*
X149302508Y-121721855D01*
X149371833Y-121713146D01*
X149434861Y-121743300D01*
X149455098Y-121766654D01*
X149456399Y-121768601D01*
X149539260Y-121823966D01*
X149539261Y-121823966D01*
X149556390Y-121835411D01*
X149601195Y-121889023D01*
X149611500Y-121938514D01*
X149611500Y-122376196D01*
X149608861Y-122401642D01*
X149606633Y-122412267D01*
X149610548Y-122443676D01*
X149611500Y-122459013D01*
X149611500Y-122459116D01*
X149614918Y-122479602D01*
X149615657Y-122484670D01*
X149623107Y-122544438D01*
X149623185Y-122544682D01*
X149651827Y-122597608D01*
X149654171Y-122602162D01*
X149680634Y-122656292D01*
X149680779Y-122656485D01*
X149725080Y-122697267D01*
X149728779Y-122700816D01*
X150318481Y-123290518D01*
X150351966Y-123351841D01*
X150353896Y-123393144D01*
X150347721Y-123443998D01*
X150366763Y-123600818D01*
X150422780Y-123748523D01*
X150512515Y-123878528D01*
X150512516Y-123878529D01*
X150512517Y-123878530D01*
X150630760Y-123983283D01*
X150770635Y-124056696D01*
X150924015Y-124094500D01*
X151081985Y-124094500D01*
X151235365Y-124056696D01*
X151375240Y-123983283D01*
X151493483Y-123878530D01*
X151583220Y-123748523D01*
X151639237Y-123600818D01*
X151658278Y-123444000D01*
X151645107Y-123335530D01*
X151656567Y-123266610D01*
X151703471Y-123214823D01*
X151738525Y-123200190D01*
X151870365Y-123167696D01*
X151969874Y-123115468D01*
X152038381Y-123101743D01*
X152103435Y-123127235D01*
X152144380Y-123183850D01*
X152151500Y-123225265D01*
X152151500Y-123745099D01*
X152131815Y-123812138D01*
X152115181Y-123832780D01*
X150901108Y-125046852D01*
X150881254Y-125062976D01*
X150872165Y-125068914D01*
X150852722Y-125093894D01*
X150842563Y-125105398D01*
X150842484Y-125105476D01*
X150842479Y-125105482D01*
X150842480Y-125105482D01*
X150830390Y-125122414D01*
X150827341Y-125126504D01*
X150790354Y-125174024D01*
X150790237Y-125174253D01*
X150773057Y-125231955D01*
X150771495Y-125236832D01*
X150763506Y-125260104D01*
X150723121Y-125317120D01*
X150658322Y-125343251D01*
X150589681Y-125330201D01*
X150570737Y-125318219D01*
X150569305Y-125317120D01*
X150525233Y-125283302D01*
X150385236Y-125225313D01*
X150286484Y-125212312D01*
X150276739Y-125211029D01*
X150276737Y-125211028D01*
X150272720Y-125210500D01*
X149447280Y-125210500D01*
X149443263Y-125211028D01*
X149443260Y-125211029D01*
X149334764Y-125225313D01*
X149194768Y-125283301D01*
X149074549Y-125375549D01*
X148982301Y-125495768D01*
X148978669Y-125504537D01*
X148924313Y-125635764D01*
X148909500Y-125748280D01*
X148909500Y-126473720D01*
X148924313Y-126586236D01*
X148982302Y-126726233D01*
X149074549Y-126846451D01*
X149194767Y-126938698D01*
X149334764Y-126996687D01*
X149447280Y-127011500D01*
X149451333Y-127011500D01*
X150268667Y-127011500D01*
X150272720Y-127011500D01*
X150385236Y-126996687D01*
X150525233Y-126938698D01*
X150555012Y-126915847D01*
X150620182Y-126890652D01*
X150688627Y-126904690D01*
X150738617Y-126953503D01*
X150754500Y-127014222D01*
X150754500Y-127636855D01*
X150734815Y-127703894D01*
X150682011Y-127749649D01*
X150646685Y-127759794D01*
X150604764Y-127765312D01*
X150464768Y-127823301D01*
X150344549Y-127915549D01*
X150252301Y-128035768D01*
X150194312Y-128175764D01*
X150194313Y-128175764D01*
X150179500Y-128288280D01*
X150179500Y-129013720D01*
X150180028Y-129017737D01*
X150180029Y-129017739D01*
X150194313Y-129126235D01*
X150250621Y-129262176D01*
X150252302Y-129266233D01*
X150315055Y-129348014D01*
X150340249Y-129413182D01*
X150326211Y-129481627D01*
X150277397Y-129531617D01*
X150216679Y-129547500D01*
X149647470Y-129547500D01*
X149580431Y-129527815D01*
X149534676Y-129475011D01*
X149524732Y-129405853D01*
X149525853Y-129399308D01*
X149540500Y-129325674D01*
X149540500Y-127976325D01*
X149525966Y-127903261D01*
X149525966Y-127903260D01*
X149470601Y-127820399D01*
X149387740Y-127765034D01*
X149387739Y-127765033D01*
X149387738Y-127765033D01*
X149314675Y-127750500D01*
X149314674Y-127750500D01*
X147865326Y-127750500D01*
X147865325Y-127750500D01*
X147792259Y-127765034D01*
X147759389Y-127786997D01*
X147692712Y-127807874D01*
X147625332Y-127789389D01*
X147578642Y-127737409D01*
X147566500Y-127683894D01*
X147566500Y-121362657D01*
X147586185Y-121295618D01*
X147588450Y-121292217D01*
X147646220Y-121208523D01*
X147646669Y-121207340D01*
X147702237Y-121060818D01*
X147721278Y-120904000D01*
X147702237Y-120747182D01*
X147676329Y-120678871D01*
X147670963Y-120609211D01*
X147704110Y-120547704D01*
X147704228Y-120547584D01*
X147826996Y-120424817D01*
X147888319Y-120391334D01*
X147914676Y-120388500D01*
X147992500Y-120388500D01*
X148059539Y-120408185D01*
G37*
G04 #@! TD.AperFunction*
G04 #@! TA.AperFunction,Conductor*
G36*
X162134861Y-121743300D02*
G01*
X162155098Y-121766654D01*
X162156399Y-121768601D01*
X162239260Y-121823966D01*
X162239261Y-121823966D01*
X162256390Y-121835411D01*
X162301195Y-121889023D01*
X162311500Y-121938514D01*
X162311500Y-122348100D01*
X162291815Y-122415139D01*
X162275181Y-122435781D01*
X160662781Y-124048181D01*
X160601458Y-124081666D01*
X160575100Y-124084500D01*
X158547805Y-124084500D01*
X158522359Y-124081861D01*
X158511733Y-124079633D01*
X158511732Y-124079633D01*
X158495422Y-124081666D01*
X158480323Y-124083548D01*
X158464986Y-124084500D01*
X158464884Y-124084500D01*
X158444399Y-124087918D01*
X158439332Y-124088657D01*
X158379567Y-124096107D01*
X158379312Y-124096189D01*
X158326370Y-124124838D01*
X158321820Y-124127180D01*
X158267715Y-124153632D01*
X158267505Y-124153788D01*
X158226719Y-124198093D01*
X158223172Y-124201789D01*
X157251108Y-125173852D01*
X157231397Y-125189882D01*
X157230895Y-125190211D01*
X157164035Y-125210495D01*
X157162925Y-125210500D01*
X157067280Y-125210500D01*
X157063263Y-125211028D01*
X157063260Y-125211029D01*
X156954764Y-125225313D01*
X156814768Y-125283301D01*
X156694549Y-125375549D01*
X156602301Y-125495768D01*
X156598669Y-125504537D01*
X156544313Y-125635764D01*
X156529500Y-125748280D01*
X156529500Y-126473720D01*
X156544313Y-126586236D01*
X156602302Y-126726233D01*
X156694549Y-126846451D01*
X156814767Y-126938698D01*
X156954764Y-126996687D01*
X157067280Y-127011500D01*
X157071333Y-127011500D01*
X157888667Y-127011500D01*
X157892720Y-127011500D01*
X158005236Y-126996687D01*
X158145233Y-126938698D01*
X158175012Y-126915847D01*
X158240182Y-126890652D01*
X158308627Y-126904690D01*
X158358617Y-126953503D01*
X158374500Y-127014222D01*
X158374500Y-127636855D01*
X158354815Y-127703894D01*
X158302011Y-127749649D01*
X158266685Y-127759794D01*
X158224764Y-127765312D01*
X158084768Y-127823301D01*
X157964549Y-127915549D01*
X157872301Y-128035768D01*
X157814312Y-128175763D01*
X157814313Y-128175764D01*
X157799500Y-128288280D01*
X157799500Y-129013720D01*
X157800028Y-129017737D01*
X157800029Y-129017739D01*
X157814313Y-129126235D01*
X157870621Y-129262176D01*
X157872302Y-129266233D01*
X157935055Y-129348014D01*
X157960249Y-129413182D01*
X157946211Y-129481627D01*
X157897397Y-129531617D01*
X157836679Y-129547500D01*
X157123321Y-129547500D01*
X157056282Y-129527815D01*
X157010527Y-129475011D01*
X157000583Y-129405853D01*
X157024944Y-129348014D01*
X157087698Y-129266233D01*
X157145687Y-129126236D01*
X157160500Y-129013720D01*
X157160500Y-128288280D01*
X157145687Y-128175764D01*
X157087698Y-128035767D01*
X156995451Y-127915549D01*
X156875233Y-127823302D01*
X156735236Y-127765313D01*
X156676356Y-127757561D01*
X156626739Y-127751029D01*
X156626737Y-127751028D01*
X156622720Y-127750500D01*
X155797280Y-127750500D01*
X155793263Y-127751028D01*
X155793260Y-127751029D01*
X155684764Y-127765313D01*
X155544768Y-127823301D01*
X155424549Y-127915549D01*
X155332301Y-128035768D01*
X155274312Y-128175763D01*
X155274313Y-128175764D01*
X155259500Y-128288280D01*
X155259500Y-129013720D01*
X155260028Y-129017737D01*
X155260029Y-129017739D01*
X155274313Y-129126235D01*
X155330621Y-129262176D01*
X155332302Y-129266233D01*
X155395055Y-129348014D01*
X155420249Y-129413182D01*
X155406211Y-129481627D01*
X155357397Y-129531617D01*
X155296679Y-129547500D01*
X154882363Y-129547500D01*
X154815324Y-129527815D01*
X154769569Y-129475011D01*
X154759625Y-129405853D01*
X154771275Y-129368405D01*
X154823959Y-129262176D01*
X154867268Y-129088031D01*
X154869858Y-129049835D01*
X154870000Y-129045646D01*
X154870000Y-128901000D01*
X153985686Y-128901000D01*
X153997641Y-128889045D01*
X154055165Y-128776148D01*
X154074986Y-128651000D01*
X154055165Y-128525852D01*
X153997641Y-128412955D01*
X153985686Y-128401000D01*
X154870000Y-128401000D01*
X154870000Y-128256353D01*
X154869858Y-128252164D01*
X154867268Y-128213968D01*
X154823959Y-128039823D01*
X154744228Y-127879059D01*
X154631802Y-127739197D01*
X154491940Y-127626771D01*
X154331176Y-127547040D01*
X154157031Y-127503731D01*
X154118835Y-127501141D01*
X154114646Y-127501000D01*
X153920000Y-127501000D01*
X153920000Y-128335313D01*
X153908045Y-128323359D01*
X153795148Y-128265835D01*
X153701481Y-128251000D01*
X153638519Y-128251000D01*
X153544852Y-128265835D01*
X153431955Y-128323359D01*
X153420000Y-128335314D01*
X153420000Y-127501000D01*
X153225354Y-127501000D01*
X153221164Y-127501141D01*
X153182968Y-127503731D01*
X153008823Y-127547040D01*
X152848059Y-127626771D01*
X152708197Y-127739197D01*
X152595771Y-127879059D01*
X152516040Y-128039823D01*
X152472731Y-128213968D01*
X152470141Y-128252164D01*
X152470000Y-128256353D01*
X152470000Y-128401000D01*
X153354314Y-128401000D01*
X153342359Y-128412955D01*
X153284835Y-128525852D01*
X153265014Y-128651000D01*
X153284835Y-128776148D01*
X153342359Y-128889045D01*
X153354314Y-128901000D01*
X152470000Y-128901000D01*
X152470000Y-129045646D01*
X152470141Y-129049835D01*
X152472731Y-129088031D01*
X152516040Y-129262176D01*
X152568725Y-129368405D01*
X152580877Y-129437210D01*
X152553901Y-129501662D01*
X152496361Y-129541298D01*
X152457637Y-129547500D01*
X152043321Y-129547500D01*
X151976282Y-129527815D01*
X151930527Y-129475011D01*
X151920583Y-129405853D01*
X151944944Y-129348014D01*
X152007698Y-129266233D01*
X152065687Y-129126236D01*
X152080500Y-129013720D01*
X152080500Y-128288280D01*
X152065687Y-128175764D01*
X152007698Y-128035767D01*
X151915451Y-127915549D01*
X151795233Y-127823302D01*
X151757987Y-127807874D01*
X151655235Y-127765312D01*
X151613315Y-127759794D01*
X151549418Y-127731528D01*
X151510947Y-127673203D01*
X151505500Y-127636855D01*
X151505500Y-127014222D01*
X151525185Y-126947183D01*
X151577989Y-126901428D01*
X151647147Y-126891484D01*
X151704987Y-126915847D01*
X151734767Y-126938698D01*
X151874764Y-126996687D01*
X151987280Y-127011500D01*
X151991333Y-127011500D01*
X152808667Y-127011500D01*
X152812720Y-127011500D01*
X152925236Y-126996687D01*
X153065233Y-126938698D01*
X153185451Y-126846451D01*
X153277698Y-126726233D01*
X153335687Y-126586236D01*
X153350500Y-126473720D01*
X153989500Y-126473720D01*
X154004313Y-126586236D01*
X154062302Y-126726233D01*
X154154549Y-126846451D01*
X154274767Y-126938698D01*
X154414764Y-126996687D01*
X154527280Y-127011500D01*
X154531333Y-127011500D01*
X155348667Y-127011500D01*
X155352720Y-127011500D01*
X155465236Y-126996687D01*
X155605233Y-126938698D01*
X155725451Y-126846451D01*
X155817698Y-126726233D01*
X155875687Y-126586236D01*
X155890500Y-126473720D01*
X155890500Y-125748280D01*
X155875687Y-125635764D01*
X155817698Y-125495767D01*
X155725451Y-125375549D01*
X155605233Y-125283302D01*
X155465236Y-125225313D01*
X155366484Y-125212312D01*
X155356739Y-125211029D01*
X155356737Y-125211028D01*
X155352720Y-125210500D01*
X154527280Y-125210500D01*
X154523263Y-125211028D01*
X154523260Y-125211029D01*
X154414764Y-125225313D01*
X154274768Y-125283301D01*
X154154549Y-125375549D01*
X154062301Y-125495768D01*
X154058669Y-125504537D01*
X154004313Y-125635764D01*
X153989500Y-125748280D01*
X153989500Y-126473720D01*
X153350500Y-126473720D01*
X153350500Y-125748280D01*
X153335687Y-125635764D01*
X153277698Y-125495767D01*
X153185451Y-125375549D01*
X153065233Y-125283302D01*
X153058162Y-125280373D01*
X152925235Y-125225312D01*
X152883315Y-125219794D01*
X152819418Y-125191528D01*
X152780947Y-125133203D01*
X152775500Y-125096855D01*
X152775500Y-125047898D01*
X152795185Y-124980859D01*
X152811815Y-124960221D01*
X153263889Y-124508146D01*
X153283741Y-124492025D01*
X153292836Y-124486084D01*
X153312277Y-124461104D01*
X153322449Y-124449587D01*
X153322520Y-124449517D01*
X153334614Y-124432576D01*
X153337648Y-124428508D01*
X153369809Y-124387189D01*
X153369809Y-124387187D01*
X153374666Y-124380948D01*
X153374752Y-124380781D01*
X153377008Y-124373200D01*
X153377010Y-124373199D01*
X153391954Y-124323001D01*
X153393491Y-124318202D01*
X153410500Y-124268660D01*
X153410499Y-124268656D01*
X153413068Y-124261176D01*
X153413096Y-124260989D01*
X153410606Y-124200793D01*
X153410500Y-124195668D01*
X153410500Y-122761898D01*
X153430185Y-122694859D01*
X153446815Y-122674221D01*
X154025889Y-122095146D01*
X154045741Y-122079025D01*
X154054836Y-122073084D01*
X154074277Y-122048104D01*
X154084449Y-122036587D01*
X154084520Y-122036517D01*
X154096614Y-122019576D01*
X154099648Y-122015508D01*
X154131809Y-121974189D01*
X154131809Y-121974187D01*
X154136666Y-121967948D01*
X154136753Y-121967779D01*
X154139009Y-121960200D01*
X154139010Y-121960199D01*
X154153951Y-121910009D01*
X154155489Y-121905209D01*
X154155731Y-121904503D01*
X154196117Y-121847492D01*
X154239546Y-121827437D01*
X154327598Y-121768603D01*
X154327597Y-121768603D01*
X154327601Y-121768601D01*
X154328898Y-121766658D01*
X154382508Y-121721855D01*
X154451833Y-121713146D01*
X154514861Y-121743300D01*
X154535098Y-121766654D01*
X154536399Y-121768601D01*
X154619260Y-121823966D01*
X154635297Y-121827156D01*
X154692325Y-121838500D01*
X154692326Y-121838500D01*
X155441675Y-121838500D01*
X155466029Y-121833655D01*
X155514740Y-121823966D01*
X155597601Y-121768601D01*
X155598898Y-121766659D01*
X155652503Y-121721857D01*
X155721828Y-121713146D01*
X155784857Y-121743297D01*
X155805100Y-121766658D01*
X155806397Y-121768599D01*
X155806398Y-121768599D01*
X155806399Y-121768601D01*
X155889260Y-121823966D01*
X155905297Y-121827156D01*
X155962325Y-121838500D01*
X155962326Y-121838500D01*
X156711675Y-121838500D01*
X156736029Y-121833655D01*
X156784740Y-121823966D01*
X156867601Y-121768601D01*
X156868898Y-121766658D01*
X156922508Y-121721855D01*
X156991833Y-121713146D01*
X157054861Y-121743300D01*
X157075098Y-121766654D01*
X157076399Y-121768601D01*
X157136739Y-121808918D01*
X157143887Y-121813694D01*
X157188693Y-121867306D01*
X157197400Y-121936631D01*
X157167246Y-121999659D01*
X157157226Y-122009611D01*
X157116517Y-122045677D01*
X157026780Y-122175683D01*
X156970763Y-122323388D01*
X156951721Y-122480206D01*
X156970763Y-122637025D01*
X157026780Y-122784730D01*
X157116515Y-122914735D01*
X157116516Y-122914736D01*
X157116517Y-122914737D01*
X157234760Y-123019490D01*
X157374635Y-123092903D01*
X157528015Y-123130707D01*
X157685985Y-123130707D01*
X157839365Y-123092903D01*
X157979240Y-123019490D01*
X158097483Y-122914737D01*
X158114137Y-122890608D01*
X158168419Y-122846619D01*
X158237868Y-122838959D01*
X158300433Y-122870062D01*
X158318237Y-122890609D01*
X158386515Y-122989528D01*
X158386516Y-122989529D01*
X158386517Y-122989530D01*
X158504760Y-123094283D01*
X158644635Y-123167696D01*
X158798015Y-123205500D01*
X158955985Y-123205500D01*
X159109365Y-123167696D01*
X159249240Y-123094283D01*
X159367483Y-122989530D01*
X159457220Y-122859523D01*
X159513237Y-122711818D01*
X159532278Y-122555000D01*
X159513237Y-122398182D01*
X159457220Y-122250477D01*
X159412308Y-122185410D01*
X159367482Y-122120468D01*
X159294273Y-122055611D01*
X159257146Y-121996422D01*
X159252500Y-121962796D01*
X159252500Y-121938514D01*
X159272185Y-121871475D01*
X159307610Y-121835411D01*
X159324738Y-121823966D01*
X159324740Y-121823966D01*
X159407601Y-121768601D01*
X159408898Y-121766658D01*
X159462508Y-121721855D01*
X159531833Y-121713146D01*
X159594861Y-121743300D01*
X159615098Y-121766654D01*
X159616399Y-121768601D01*
X159699260Y-121823966D01*
X159715297Y-121827156D01*
X159772325Y-121838500D01*
X159772326Y-121838500D01*
X160521675Y-121838500D01*
X160546029Y-121833655D01*
X160594740Y-121823966D01*
X160677601Y-121768601D01*
X160678898Y-121766658D01*
X160732508Y-121721855D01*
X160801833Y-121713146D01*
X160864861Y-121743300D01*
X160885098Y-121766654D01*
X160886399Y-121768601D01*
X160969260Y-121823966D01*
X160985297Y-121827156D01*
X161042325Y-121838500D01*
X161042326Y-121838500D01*
X161791675Y-121838500D01*
X161816029Y-121833655D01*
X161864740Y-121823966D01*
X161947601Y-121768601D01*
X161948898Y-121766658D01*
X162002508Y-121721855D01*
X162071833Y-121713146D01*
X162134861Y-121743300D01*
G37*
G04 #@! TD.AperFunction*
G04 #@! TA.AperFunction,Conductor*
G36*
X123209123Y-114187185D02*
G01*
X123254878Y-114239989D01*
X123264822Y-114309147D01*
X123262766Y-114319647D01*
X123260141Y-114358364D01*
X123260000Y-114362553D01*
X123259999Y-114507199D01*
X123260000Y-114507200D01*
X124144314Y-114507200D01*
X124132359Y-114519155D01*
X124074835Y-114632052D01*
X124055014Y-114757200D01*
X124074835Y-114882348D01*
X124132359Y-114995245D01*
X124144314Y-115007200D01*
X123260000Y-115007200D01*
X123260000Y-115151846D01*
X123260141Y-115156035D01*
X123262731Y-115194231D01*
X123306040Y-115368376D01*
X123385771Y-115529140D01*
X123498197Y-115669002D01*
X123581362Y-115735853D01*
X123621281Y-115793196D01*
X123623861Y-115863018D01*
X123588282Y-115923151D01*
X123525842Y-115954503D01*
X123503675Y-115956500D01*
X121872899Y-115956500D01*
X121805860Y-115936815D01*
X121785218Y-115920181D01*
X121734418Y-115869381D01*
X121700933Y-115808058D01*
X121705917Y-115738366D01*
X121747789Y-115682433D01*
X121813253Y-115658016D01*
X121822099Y-115657700D01*
X122328667Y-115657700D01*
X122332720Y-115657700D01*
X122445236Y-115642887D01*
X122585233Y-115584898D01*
X122705451Y-115492651D01*
X122797698Y-115372433D01*
X122855687Y-115232436D01*
X122870500Y-115119920D01*
X122870500Y-114394480D01*
X122870579Y-114396895D01*
X122885692Y-114329357D01*
X122906489Y-114301748D01*
X123004421Y-114203818D01*
X123065744Y-114170334D01*
X123092101Y-114167500D01*
X123142084Y-114167500D01*
X123209123Y-114187185D01*
G37*
G04 #@! TD.AperFunction*
G04 #@! TA.AperFunction,Conductor*
G36*
X145275140Y-113552185D02*
G01*
X145295782Y-113568819D01*
X145947782Y-114220819D01*
X145981267Y-114282142D01*
X145976283Y-114351834D01*
X145934411Y-114407767D01*
X145868947Y-114432184D01*
X145860101Y-114432500D01*
X144230906Y-114432500D01*
X144205460Y-114429861D01*
X144194834Y-114427633D01*
X144194833Y-114427633D01*
X144176959Y-114429861D01*
X144163424Y-114431548D01*
X144148087Y-114432500D01*
X144147985Y-114432500D01*
X144127500Y-114435918D01*
X144122433Y-114436657D01*
X144062668Y-114444107D01*
X144062413Y-114444189D01*
X144009471Y-114472838D01*
X144004921Y-114475180D01*
X143950816Y-114501632D01*
X143950606Y-114501788D01*
X143909820Y-114546093D01*
X143906273Y-114549789D01*
X143402181Y-115053881D01*
X143340858Y-115087366D01*
X143271166Y-115082382D01*
X143215233Y-115040510D01*
X143190816Y-114975046D01*
X143190500Y-114966200D01*
X143190500Y-114398533D01*
X143190500Y-114398531D01*
X143190500Y-114394480D01*
X143175687Y-114281964D01*
X143117698Y-114141967D01*
X143025451Y-114021749D01*
X142905233Y-113929502D01*
X142765236Y-113871513D01*
X142706356Y-113863761D01*
X142656739Y-113857229D01*
X142656737Y-113857228D01*
X142652720Y-113856700D01*
X141827280Y-113856700D01*
X141823263Y-113857228D01*
X141823260Y-113857229D01*
X141714764Y-113871513D01*
X141574768Y-113929501D01*
X141454549Y-114021749D01*
X141362301Y-114141968D01*
X141304313Y-114281964D01*
X141298074Y-114329357D01*
X141289500Y-114394480D01*
X141289500Y-115119920D01*
X141290028Y-115123937D01*
X141290029Y-115123939D01*
X141304312Y-115232435D01*
X141322792Y-115277047D01*
X141330261Y-115346516D01*
X141298986Y-115408995D01*
X141238898Y-115444648D01*
X141208231Y-115448500D01*
X140731769Y-115448500D01*
X140664730Y-115428815D01*
X140618975Y-115376011D01*
X140609031Y-115306853D01*
X140617208Y-115277047D01*
X140635687Y-115232435D01*
X140638292Y-115212650D01*
X140650500Y-115119920D01*
X140650500Y-114394480D01*
X140635687Y-114281964D01*
X140577698Y-114141967D01*
X140485451Y-114021749D01*
X140365233Y-113929502D01*
X140225236Y-113871513D01*
X140166356Y-113863761D01*
X140116739Y-113857229D01*
X140116737Y-113857228D01*
X140112720Y-113856700D01*
X139287280Y-113856700D01*
X139283263Y-113857228D01*
X139283260Y-113857229D01*
X139174764Y-113871513D01*
X139034768Y-113929501D01*
X138914549Y-114021749D01*
X138822301Y-114141968D01*
X138764313Y-114281964D01*
X138758074Y-114329357D01*
X138749500Y-114394480D01*
X138749500Y-115119920D01*
X138750028Y-115123937D01*
X138750029Y-115123939D01*
X138764312Y-115232435D01*
X138782792Y-115277047D01*
X138790261Y-115346516D01*
X138758986Y-115408995D01*
X138698898Y-115444648D01*
X138668231Y-115448500D01*
X138191769Y-115448500D01*
X138124730Y-115428815D01*
X138078975Y-115376011D01*
X138069031Y-115306853D01*
X138077208Y-115277047D01*
X138095687Y-115232435D01*
X138098292Y-115212650D01*
X138110500Y-115119920D01*
X138110500Y-114394480D01*
X138095687Y-114281964D01*
X138037698Y-114141967D01*
X137945451Y-114021749D01*
X137825233Y-113929502D01*
X137685236Y-113871513D01*
X137626356Y-113863761D01*
X137576739Y-113857229D01*
X137576737Y-113857228D01*
X137572720Y-113856700D01*
X136747280Y-113856700D01*
X136743263Y-113857228D01*
X136743260Y-113857229D01*
X136634764Y-113871513D01*
X136494768Y-113929501D01*
X136374549Y-114021749D01*
X136282301Y-114141968D01*
X136224313Y-114281964D01*
X136218074Y-114329357D01*
X136209500Y-114394480D01*
X136209500Y-115119920D01*
X136210028Y-115123937D01*
X136210029Y-115123939D01*
X136224312Y-115232435D01*
X136242792Y-115277047D01*
X136250261Y-115346516D01*
X136218986Y-115408995D01*
X136158898Y-115444648D01*
X136128231Y-115448500D01*
X135651769Y-115448500D01*
X135584730Y-115428815D01*
X135538975Y-115376011D01*
X135529031Y-115306853D01*
X135537208Y-115277047D01*
X135555687Y-115232435D01*
X135558292Y-115212650D01*
X135570500Y-115119920D01*
X135570500Y-114394480D01*
X135555687Y-114281964D01*
X135497698Y-114141967D01*
X135405451Y-114021749D01*
X135285233Y-113929502D01*
X135145236Y-113871513D01*
X135086356Y-113863761D01*
X135036739Y-113857229D01*
X135036737Y-113857228D01*
X135032720Y-113856700D01*
X134207280Y-113856700D01*
X134203263Y-113857228D01*
X134203260Y-113857229D01*
X134094764Y-113871513D01*
X133954768Y-113929501D01*
X133834549Y-114021749D01*
X133742301Y-114141968D01*
X133684313Y-114281964D01*
X133678074Y-114329357D01*
X133669500Y-114394480D01*
X133669500Y-115119920D01*
X133670028Y-115123937D01*
X133670029Y-115123939D01*
X133684312Y-115232435D01*
X133702792Y-115277047D01*
X133710261Y-115346516D01*
X133678986Y-115408995D01*
X133618898Y-115444648D01*
X133588231Y-115448500D01*
X133111769Y-115448500D01*
X133044730Y-115428815D01*
X132998975Y-115376011D01*
X132989031Y-115306853D01*
X132997208Y-115277047D01*
X133015687Y-115232435D01*
X133018292Y-115212650D01*
X133030500Y-115119920D01*
X133030500Y-114394480D01*
X133015687Y-114281964D01*
X132957698Y-114141967D01*
X132865451Y-114021749D01*
X132745233Y-113929502D01*
X132605236Y-113871513D01*
X132546356Y-113863761D01*
X132496739Y-113857229D01*
X132496737Y-113857228D01*
X132492720Y-113856700D01*
X131667280Y-113856700D01*
X131663263Y-113857228D01*
X131663260Y-113857229D01*
X131554764Y-113871513D01*
X131414768Y-113929501D01*
X131294549Y-114021749D01*
X131202301Y-114141968D01*
X131144313Y-114281964D01*
X131138074Y-114329357D01*
X131129500Y-114394480D01*
X131129500Y-115119920D01*
X131130028Y-115123937D01*
X131130029Y-115123939D01*
X131144312Y-115232435D01*
X131162792Y-115277047D01*
X131170261Y-115346516D01*
X131138986Y-115408995D01*
X131078898Y-115444648D01*
X131048231Y-115448500D01*
X130571769Y-115448500D01*
X130504730Y-115428815D01*
X130458975Y-115376011D01*
X130449031Y-115306853D01*
X130457208Y-115277047D01*
X130475687Y-115232435D01*
X130478292Y-115212650D01*
X130490500Y-115119920D01*
X130490500Y-114394480D01*
X130475687Y-114281964D01*
X130417698Y-114141967D01*
X130325451Y-114021749D01*
X130205233Y-113929502D01*
X130065236Y-113871513D01*
X130006356Y-113863761D01*
X129956739Y-113857229D01*
X129956737Y-113857228D01*
X129952720Y-113856700D01*
X129127280Y-113856700D01*
X129123263Y-113857228D01*
X129123260Y-113857229D01*
X129014764Y-113871513D01*
X128874768Y-113929501D01*
X128754549Y-114021749D01*
X128662301Y-114141968D01*
X128604313Y-114281964D01*
X128598074Y-114329357D01*
X128589500Y-114394480D01*
X128589500Y-115119920D01*
X128590028Y-115123937D01*
X128590029Y-115123939D01*
X128604312Y-115232435D01*
X128622792Y-115277047D01*
X128630261Y-115346516D01*
X128598986Y-115408995D01*
X128538898Y-115444648D01*
X128508231Y-115448500D01*
X128273699Y-115448500D01*
X128206660Y-115428815D01*
X128186018Y-115412181D01*
X127986487Y-115212650D01*
X127953002Y-115151327D01*
X127950550Y-115118383D01*
X127950500Y-115119920D01*
X127950500Y-114394480D01*
X127935687Y-114281964D01*
X127877698Y-114141967D01*
X127785451Y-114021749D01*
X127665233Y-113929502D01*
X127525236Y-113871513D01*
X127466356Y-113863761D01*
X127416739Y-113857229D01*
X127416737Y-113857228D01*
X127412720Y-113856700D01*
X126587280Y-113856700D01*
X126583263Y-113857228D01*
X126583260Y-113857229D01*
X126474764Y-113871513D01*
X126334768Y-113929501D01*
X126214549Y-114021749D01*
X126122301Y-114141968D01*
X126064313Y-114281964D01*
X126058074Y-114329357D01*
X126049500Y-114394480D01*
X126049500Y-115119920D01*
X126050028Y-115123937D01*
X126050029Y-115123939D01*
X126064313Y-115232435D01*
X126120621Y-115368376D01*
X126122302Y-115372433D01*
X126214549Y-115492651D01*
X126334767Y-115584898D01*
X126474764Y-115642887D01*
X126587280Y-115657700D01*
X127318101Y-115657700D01*
X127385140Y-115677385D01*
X127405782Y-115694019D01*
X127456582Y-115744819D01*
X127490067Y-115806142D01*
X127485083Y-115875834D01*
X127443211Y-115931767D01*
X127377747Y-115956184D01*
X127368901Y-115956500D01*
X125416325Y-115956500D01*
X125349286Y-115936815D01*
X125303531Y-115884011D01*
X125293587Y-115814853D01*
X125322612Y-115751297D01*
X125338638Y-115735853D01*
X125421802Y-115669002D01*
X125534228Y-115529140D01*
X125613959Y-115368376D01*
X125657268Y-115194231D01*
X125659858Y-115156035D01*
X125660000Y-115151846D01*
X125660000Y-115007200D01*
X124775686Y-115007200D01*
X124787641Y-114995245D01*
X124845165Y-114882348D01*
X124864986Y-114757200D01*
X124845165Y-114632052D01*
X124787641Y-114519155D01*
X124775686Y-114507200D01*
X125659999Y-114507200D01*
X125660000Y-114362553D01*
X125659858Y-114358364D01*
X125657268Y-114320168D01*
X125613959Y-114146023D01*
X125534228Y-113985259D01*
X125468111Y-113903007D01*
X125441452Y-113838424D01*
X125453942Y-113769679D01*
X125477072Y-113737643D01*
X125645900Y-113568816D01*
X125707221Y-113535334D01*
X125733579Y-113532500D01*
X145208101Y-113532500D01*
X145275140Y-113552185D01*
G37*
G04 #@! TD.AperFunction*
G04 #@! TA.AperFunction,Conductor*
G36*
X123221757Y-108980185D02*
G01*
X123267512Y-109032989D01*
X123277456Y-109102147D01*
X123275052Y-109114427D01*
X123262731Y-109163965D01*
X123260141Y-109202164D01*
X123260000Y-109206353D01*
X123259999Y-109351000D01*
X124144314Y-109351000D01*
X124132359Y-109362955D01*
X124074835Y-109475852D01*
X124055014Y-109601000D01*
X124074835Y-109726148D01*
X124132359Y-109839045D01*
X124144314Y-109851000D01*
X123260000Y-109851000D01*
X123260000Y-109995646D01*
X123260141Y-109999835D01*
X123262731Y-110038031D01*
X123306040Y-110212176D01*
X123385771Y-110372940D01*
X123498197Y-110512802D01*
X123638059Y-110625228D01*
X123798823Y-110704959D01*
X123972968Y-110748268D01*
X124011164Y-110750858D01*
X124015354Y-110751000D01*
X124210000Y-110751000D01*
X124210000Y-109916686D01*
X124221955Y-109928641D01*
X124334852Y-109986165D01*
X124428519Y-110001000D01*
X124491481Y-110001000D01*
X124585148Y-109986165D01*
X124698045Y-109928641D01*
X124710000Y-109916686D01*
X124710000Y-110751000D01*
X124763130Y-110751000D01*
X124830169Y-110770685D01*
X124875924Y-110823489D01*
X124885868Y-110892647D01*
X124856843Y-110956203D01*
X124854357Y-110958986D01*
X124825718Y-110990094D01*
X124822172Y-110993789D01*
X124231197Y-111584763D01*
X124169874Y-111618248D01*
X124100182Y-111613264D01*
X124045141Y-111572569D01*
X123975453Y-111481751D01*
X123975451Y-111481750D01*
X123975451Y-111481749D01*
X123855233Y-111389502D01*
X123715236Y-111331513D01*
X123656356Y-111323761D01*
X123606739Y-111317229D01*
X123606737Y-111317228D01*
X123602720Y-111316700D01*
X122777280Y-111316700D01*
X122773263Y-111317228D01*
X122773260Y-111317229D01*
X122664762Y-111331513D01*
X122631010Y-111345493D01*
X122561541Y-111352960D01*
X122499062Y-111321684D01*
X122481510Y-111301371D01*
X122410484Y-111198471D01*
X122410483Y-111198470D01*
X122292240Y-111093717D01*
X122278994Y-111086764D01*
X122152364Y-111020303D01*
X121998985Y-110982500D01*
X121851900Y-110982500D01*
X121784861Y-110962815D01*
X121764219Y-110946181D01*
X121531219Y-110713181D01*
X121497734Y-110651858D01*
X121502718Y-110582166D01*
X121544590Y-110526233D01*
X121610054Y-110501816D01*
X121618900Y-110501500D01*
X122328667Y-110501500D01*
X122332720Y-110501500D01*
X122445236Y-110486687D01*
X122585233Y-110428698D01*
X122705451Y-110336451D01*
X122797698Y-110216233D01*
X122855687Y-110076236D01*
X122870500Y-109963720D01*
X122870500Y-109238280D01*
X122857105Y-109136538D01*
X122867870Y-109067506D01*
X122892364Y-109032673D01*
X122928220Y-108996818D01*
X122989544Y-108963333D01*
X123015900Y-108960500D01*
X123154718Y-108960500D01*
X123221757Y-108980185D01*
G37*
G04 #@! TD.AperFunction*
G04 #@! TA.AperFunction,Conductor*
G36*
X126014228Y-108980185D02*
G01*
X126059983Y-109032989D01*
X126069927Y-109102147D01*
X126065111Y-109119696D01*
X126050029Y-109234260D01*
X126049500Y-109238280D01*
X126049500Y-109963720D01*
X126050028Y-109967737D01*
X126050029Y-109967739D01*
X126064313Y-110076235D01*
X126120621Y-110212176D01*
X126122302Y-110216233D01*
X126214549Y-110336451D01*
X126334767Y-110428698D01*
X126474764Y-110486687D01*
X126587280Y-110501500D01*
X126591333Y-110501500D01*
X127408667Y-110501500D01*
X127412720Y-110501500D01*
X127525236Y-110486687D01*
X127665233Y-110428698D01*
X127785451Y-110336451D01*
X127877698Y-110216233D01*
X127935687Y-110076236D01*
X127950500Y-109963720D01*
X127950500Y-109238280D01*
X127950579Y-109240695D01*
X127965692Y-109173157D01*
X127986488Y-109145548D01*
X128006273Y-109125764D01*
X128087418Y-109044619D01*
X128135220Y-108996818D01*
X128196544Y-108963334D01*
X128222901Y-108960500D01*
X128487189Y-108960500D01*
X128554228Y-108980185D01*
X128599983Y-109032989D01*
X128609927Y-109102147D01*
X128605111Y-109119696D01*
X128590029Y-109234260D01*
X128589500Y-109238280D01*
X128589500Y-109963720D01*
X128590028Y-109967737D01*
X128590029Y-109967739D01*
X128604313Y-110076235D01*
X128660621Y-110212176D01*
X128662302Y-110216233D01*
X128754549Y-110336451D01*
X128874767Y-110428698D01*
X129014764Y-110486687D01*
X129127280Y-110501500D01*
X129131333Y-110501500D01*
X129948667Y-110501500D01*
X129952720Y-110501500D01*
X130065236Y-110486687D01*
X130205233Y-110428698D01*
X130325451Y-110336451D01*
X130417698Y-110216233D01*
X130475687Y-110076236D01*
X130490500Y-109963720D01*
X130490500Y-109238280D01*
X130475687Y-109125764D01*
X130475686Y-109125763D01*
X130473556Y-109109578D01*
X130475812Y-109109280D01*
X130470780Y-109062488D01*
X130502053Y-109000008D01*
X130562140Y-108964353D01*
X130592811Y-108960500D01*
X131027189Y-108960500D01*
X131094228Y-108980185D01*
X131139983Y-109032989D01*
X131149927Y-109102147D01*
X131145111Y-109119696D01*
X131130029Y-109234260D01*
X131129500Y-109238280D01*
X131129500Y-109963720D01*
X131130028Y-109967737D01*
X131130029Y-109967739D01*
X131144313Y-110076235D01*
X131200621Y-110212176D01*
X131202302Y-110216233D01*
X131294549Y-110336451D01*
X131414767Y-110428698D01*
X131554764Y-110486687D01*
X131667280Y-110501500D01*
X131671333Y-110501500D01*
X132488667Y-110501500D01*
X132492720Y-110501500D01*
X132605236Y-110486687D01*
X132745233Y-110428698D01*
X132865451Y-110336451D01*
X132957698Y-110216233D01*
X133015687Y-110076236D01*
X133030500Y-109963720D01*
X133030500Y-109238280D01*
X133015687Y-109125764D01*
X133015686Y-109125763D01*
X133013556Y-109109578D01*
X133015812Y-109109280D01*
X133010780Y-109062488D01*
X133042053Y-109000008D01*
X133102140Y-108964353D01*
X133132811Y-108960500D01*
X133567189Y-108960500D01*
X133634228Y-108980185D01*
X133679983Y-109032989D01*
X133689927Y-109102147D01*
X133685111Y-109119696D01*
X133670029Y-109234260D01*
X133669500Y-109238280D01*
X133669500Y-109963720D01*
X133670028Y-109967737D01*
X133670029Y-109967739D01*
X133684313Y-110076235D01*
X133740621Y-110212176D01*
X133742302Y-110216233D01*
X133834549Y-110336451D01*
X133954767Y-110428698D01*
X134094764Y-110486687D01*
X134207280Y-110501500D01*
X134211333Y-110501500D01*
X135028667Y-110501500D01*
X135032720Y-110501500D01*
X135145236Y-110486687D01*
X135285233Y-110428698D01*
X135405451Y-110336451D01*
X135497698Y-110216233D01*
X135555687Y-110076236D01*
X135570500Y-109963720D01*
X135570500Y-109238280D01*
X135555687Y-109125764D01*
X135555686Y-109125763D01*
X135553556Y-109109578D01*
X135555812Y-109109280D01*
X135550780Y-109062488D01*
X135582053Y-109000008D01*
X135642140Y-108964353D01*
X135672811Y-108960500D01*
X136107189Y-108960500D01*
X136174228Y-108980185D01*
X136219983Y-109032989D01*
X136229927Y-109102147D01*
X136225111Y-109119696D01*
X136210029Y-109234260D01*
X136209500Y-109238280D01*
X136209500Y-109963720D01*
X136210028Y-109967737D01*
X136210029Y-109967739D01*
X136224313Y-110076235D01*
X136280621Y-110212176D01*
X136282302Y-110216233D01*
X136374549Y-110336451D01*
X136494767Y-110428698D01*
X136634764Y-110486687D01*
X136747280Y-110501500D01*
X136751333Y-110501500D01*
X137568667Y-110501500D01*
X137572720Y-110501500D01*
X137685236Y-110486687D01*
X137825233Y-110428698D01*
X137945451Y-110336451D01*
X138037698Y-110216233D01*
X138095687Y-110076236D01*
X138110500Y-109963720D01*
X138110500Y-109238280D01*
X138095687Y-109125764D01*
X138095686Y-109125763D01*
X138093556Y-109109578D01*
X138095812Y-109109280D01*
X138090780Y-109062488D01*
X138122053Y-109000008D01*
X138182140Y-108964353D01*
X138212811Y-108960500D01*
X138647189Y-108960500D01*
X138714228Y-108980185D01*
X138759983Y-109032989D01*
X138769927Y-109102147D01*
X138765111Y-109119696D01*
X138750029Y-109234260D01*
X138749500Y-109238280D01*
X138749500Y-109963720D01*
X138750028Y-109967737D01*
X138750029Y-109967739D01*
X138764313Y-110076235D01*
X138820621Y-110212176D01*
X138822302Y-110216233D01*
X138914549Y-110336451D01*
X139034767Y-110428698D01*
X139174764Y-110486687D01*
X139287280Y-110501500D01*
X139291333Y-110501500D01*
X140108667Y-110501500D01*
X140112720Y-110501500D01*
X140225236Y-110486687D01*
X140365233Y-110428698D01*
X140485451Y-110336451D01*
X140577698Y-110216233D01*
X140635687Y-110076236D01*
X140650500Y-109963720D01*
X140650500Y-109238280D01*
X140635687Y-109125764D01*
X140635686Y-109125763D01*
X140633556Y-109109578D01*
X140635812Y-109109280D01*
X140630780Y-109062488D01*
X140662053Y-109000008D01*
X140722140Y-108964353D01*
X140752811Y-108960500D01*
X141187189Y-108960500D01*
X141254228Y-108980185D01*
X141299983Y-109032989D01*
X141309927Y-109102147D01*
X141305111Y-109119696D01*
X141290029Y-109234260D01*
X141289500Y-109238280D01*
X141289500Y-109963720D01*
X141290028Y-109967737D01*
X141290029Y-109967739D01*
X141304313Y-110076235D01*
X141360621Y-110212176D01*
X141362302Y-110216233D01*
X141454549Y-110336451D01*
X141574767Y-110428698D01*
X141714764Y-110486687D01*
X141827280Y-110501500D01*
X141831333Y-110501500D01*
X142648667Y-110501500D01*
X142652720Y-110501500D01*
X142765236Y-110486687D01*
X142905233Y-110428698D01*
X143025451Y-110336451D01*
X143117698Y-110216233D01*
X143175687Y-110076236D01*
X143190500Y-109963720D01*
X143190500Y-109349899D01*
X143210185Y-109282860D01*
X143262989Y-109237105D01*
X143332147Y-109227161D01*
X143395703Y-109256186D01*
X143402181Y-109262218D01*
X147344782Y-113204819D01*
X147378267Y-113266142D01*
X147373283Y-113335834D01*
X147331411Y-113391767D01*
X147265947Y-113416184D01*
X147257101Y-113416500D01*
X147018900Y-113416500D01*
X146951861Y-113396815D01*
X146931219Y-113380181D01*
X144574149Y-111023111D01*
X144558022Y-111003253D01*
X144552083Y-110994162D01*
X144527110Y-110974725D01*
X144515593Y-110964554D01*
X144515519Y-110964480D01*
X144498594Y-110952397D01*
X144494480Y-110949330D01*
X144453189Y-110917191D01*
X144453186Y-110917190D01*
X144446963Y-110912346D01*
X144446761Y-110912242D01*
X144439200Y-110909990D01*
X144439199Y-110909990D01*
X144389036Y-110895055D01*
X144384174Y-110893497D01*
X144365637Y-110887134D01*
X144327202Y-110873939D01*
X144326969Y-110873906D01*
X144281910Y-110875769D01*
X144266806Y-110876394D01*
X144261684Y-110876500D01*
X125304403Y-110876500D01*
X125237364Y-110856815D01*
X125191609Y-110804011D01*
X125181665Y-110734853D01*
X125210690Y-110671297D01*
X125249309Y-110641412D01*
X125281938Y-110625229D01*
X125421802Y-110512802D01*
X125534228Y-110372940D01*
X125613959Y-110212176D01*
X125657268Y-110038031D01*
X125659858Y-109999835D01*
X125660000Y-109995646D01*
X125660000Y-109851000D01*
X124775686Y-109851000D01*
X124787641Y-109839045D01*
X124845165Y-109726148D01*
X124864986Y-109601000D01*
X124845165Y-109475852D01*
X124787641Y-109362955D01*
X124775686Y-109351000D01*
X125659999Y-109351000D01*
X125660000Y-109206353D01*
X125659858Y-109202164D01*
X125657268Y-109163965D01*
X125644948Y-109114427D01*
X125647870Y-109044619D01*
X125688071Y-108987472D01*
X125752785Y-108961131D01*
X125765282Y-108960500D01*
X125947189Y-108960500D01*
X126014228Y-108980185D01*
G37*
G04 #@! TD.AperFunction*
G04 #@! TA.AperFunction,Conductor*
G36*
X170469835Y-106551148D02*
G01*
X170527359Y-106664045D01*
X170616955Y-106753641D01*
X170729852Y-106811165D01*
X170810599Y-106823953D01*
X170129526Y-107505025D01*
X170129526Y-107505026D01*
X170196506Y-107551925D01*
X170240131Y-107606501D01*
X170247325Y-107676000D01*
X170215803Y-107738354D01*
X170155573Y-107773769D01*
X170125383Y-107777500D01*
X169932325Y-107777500D01*
X169859261Y-107792033D01*
X169776398Y-107847400D01*
X169775102Y-107849340D01*
X169721490Y-107894145D01*
X169652165Y-107902852D01*
X169589137Y-107872697D01*
X169568898Y-107849340D01*
X169567602Y-107847401D01*
X169567601Y-107847399D01*
X169484740Y-107792034D01*
X169484738Y-107792033D01*
X169467610Y-107780589D01*
X169422805Y-107726977D01*
X169412500Y-107677486D01*
X169412500Y-107653202D01*
X169432185Y-107586163D01*
X169454269Y-107560390D01*
X169527483Y-107495530D01*
X169617220Y-107365523D01*
X169667617Y-107232636D01*
X169709793Y-107176936D01*
X169774091Y-107153354D01*
X170457046Y-106470399D01*
X170469835Y-106551148D01*
G37*
G04 #@! TD.AperFunction*
G04 #@! TA.AperFunction,Conductor*
G36*
X171934025Y-107151472D02*
G01*
X171985134Y-107078480D01*
X172081266Y-106872325D01*
X172114912Y-106746759D01*
X172151277Y-106687098D01*
X172214124Y-106656569D01*
X172283499Y-106664864D01*
X172337377Y-106709349D01*
X172353346Y-106742852D01*
X172379768Y-106829954D01*
X172477315Y-107012450D01*
X172517159Y-107061000D01*
X172608589Y-107172410D01*
X172773986Y-107308146D01*
X172813321Y-107365892D01*
X172815192Y-107435736D01*
X172779005Y-107495505D01*
X172716249Y-107526221D01*
X172695322Y-107528000D01*
X172452482Y-107528000D01*
X172445867Y-107528354D01*
X172389628Y-107534400D01*
X172254910Y-107584647D01*
X172139810Y-107670811D01*
X172092736Y-107733695D01*
X172036802Y-107775566D01*
X171969279Y-107781002D01*
X171951674Y-107777500D01*
X171584617Y-107777500D01*
X171517578Y-107757815D01*
X171471823Y-107705011D01*
X171461879Y-107635853D01*
X171490904Y-107572297D01*
X171513493Y-107551925D01*
X171580472Y-107505025D01*
X170899401Y-106823953D01*
X170980148Y-106811165D01*
X171093045Y-106753641D01*
X171182641Y-106664045D01*
X171240165Y-106551148D01*
X171252953Y-106470400D01*
X171934025Y-107151472D01*
G37*
G04 #@! TD.AperFunction*
G04 #@! TA.AperFunction,Conductor*
G36*
X173995393Y-104775971D02*
G01*
X174035477Y-104779478D01*
X174164732Y-104792209D01*
X174184644Y-104795832D01*
X174250302Y-104813425D01*
X174254179Y-104814532D01*
X174347384Y-104842806D01*
X174363778Y-104849079D01*
X174430720Y-104880294D01*
X174436710Y-104883288D01*
X174517535Y-104926490D01*
X174530173Y-104934254D01*
X174592366Y-104977802D01*
X174599886Y-104983508D01*
X174669299Y-105040474D01*
X174678315Y-105048646D01*
X174732352Y-105102683D01*
X174740524Y-105111699D01*
X174797490Y-105181112D01*
X174803203Y-105188641D01*
X174846739Y-105250817D01*
X174854514Y-105263474D01*
X174897696Y-105344261D01*
X174900712Y-105350295D01*
X174931917Y-105417215D01*
X174938196Y-105433625D01*
X174966462Y-105526808D01*
X174967576Y-105530708D01*
X174985163Y-105596343D01*
X174988791Y-105616282D01*
X175001523Y-105745546D01*
X175005031Y-105785640D01*
X175005500Y-105796403D01*
X175005500Y-129788585D01*
X175005028Y-129799393D01*
X175001523Y-129839451D01*
X174988791Y-129968719D01*
X174985164Y-129988652D01*
X174967576Y-130054290D01*
X174966462Y-130058190D01*
X174938196Y-130151373D01*
X174931917Y-130167783D01*
X174900712Y-130234703D01*
X174897688Y-130240753D01*
X174854516Y-130321521D01*
X174846733Y-130334191D01*
X174803212Y-130396345D01*
X174797490Y-130403886D01*
X174740524Y-130473299D01*
X174732352Y-130482315D01*
X174678315Y-130536352D01*
X174669299Y-130544524D01*
X174599886Y-130601490D01*
X174592345Y-130607212D01*
X174530191Y-130650733D01*
X174517521Y-130658516D01*
X174436753Y-130701688D01*
X174430703Y-130704712D01*
X174363783Y-130735917D01*
X174347373Y-130742196D01*
X174254190Y-130770462D01*
X174250290Y-130771576D01*
X174184655Y-130789163D01*
X174164716Y-130792791D01*
X174035453Y-130805523D01*
X174026215Y-130806331D01*
X173995360Y-130809031D01*
X173984596Y-130809500D01*
X147325414Y-130809500D01*
X147314606Y-130809028D01*
X147274547Y-130805523D01*
X147145279Y-130792791D01*
X147125346Y-130789164D01*
X147059708Y-130771576D01*
X147055808Y-130770462D01*
X146962625Y-130742196D01*
X146946215Y-130735917D01*
X146879295Y-130704712D01*
X146873261Y-130701696D01*
X146792474Y-130658514D01*
X146779817Y-130650739D01*
X146717641Y-130607203D01*
X146710112Y-130601490D01*
X146640699Y-130544524D01*
X146631683Y-130536352D01*
X146577646Y-130482315D01*
X146569474Y-130473299D01*
X146518873Y-130411642D01*
X146512506Y-130403884D01*
X146506802Y-130396366D01*
X146463254Y-130334173D01*
X146455490Y-130321535D01*
X146412288Y-130240710D01*
X146409294Y-130234720D01*
X146378079Y-130167778D01*
X146371806Y-130151384D01*
X146343532Y-130058179D01*
X146342422Y-130054290D01*
X146324835Y-129988655D01*
X146324834Y-129988652D01*
X146324834Y-129988649D01*
X146321208Y-129968719D01*
X146308478Y-129839477D01*
X146304968Y-129799359D01*
X146304500Y-129788599D01*
X146304500Y-123130088D01*
X146309072Y-123114514D01*
X146305097Y-123074145D01*
X146304500Y-123061991D01*
X146304500Y-122974066D01*
X146292924Y-122908416D01*
X146294210Y-122896878D01*
X146288439Y-122877852D01*
X146284984Y-122863389D01*
X146273614Y-122798905D01*
X146250422Y-122735186D01*
X146244347Y-122718494D01*
X146243538Y-122705767D01*
X146235707Y-122691117D01*
X146228544Y-122675078D01*
X146212781Y-122631768D01*
X146212780Y-122631765D01*
X146162382Y-122544473D01*
X146158988Y-122530485D01*
X146149646Y-122519102D01*
X146138111Y-122502435D01*
X146121311Y-122473336D01*
X146111713Y-122459141D01*
X146110015Y-122455964D01*
X146091989Y-122439763D01*
X146050046Y-122389777D01*
X146043630Y-122375117D01*
X146033641Y-122366919D01*
X146017317Y-122350772D01*
X146015075Y-122348100D01*
X146009520Y-122341480D01*
X146000222Y-122333678D01*
X145984078Y-122317357D01*
X145980220Y-122312656D01*
X145961221Y-122300952D01*
X145911236Y-122259010D01*
X145901564Y-122244473D01*
X145891857Y-122239285D01*
X145877664Y-122229689D01*
X145848566Y-122212889D01*
X145831901Y-122201355D01*
X145825320Y-122195954D01*
X145806525Y-122188617D01*
X145719232Y-122138218D01*
X145675925Y-122122456D01*
X145659882Y-122115292D01*
X145650137Y-122110083D01*
X145632504Y-122106652D01*
X145556584Y-122079020D01*
X145552095Y-122077386D01*
X145525192Y-122072642D01*
X145487614Y-122066016D01*
X145473153Y-122062561D01*
X145459028Y-122058276D01*
X145442581Y-122058075D01*
X145376934Y-122046500D01*
X145376932Y-122046500D01*
X145289019Y-122046500D01*
X145276865Y-122045903D01*
X145243708Y-122042637D01*
X145220911Y-122046500D01*
X118115414Y-122046500D01*
X118104606Y-122046028D01*
X118064547Y-122042523D01*
X117935279Y-122029791D01*
X117915346Y-122026164D01*
X117849708Y-122008576D01*
X117845808Y-122007462D01*
X117752625Y-121979196D01*
X117736215Y-121972917D01*
X117669295Y-121941712D01*
X117663261Y-121938696D01*
X117582474Y-121895514D01*
X117569817Y-121887739D01*
X117507641Y-121844203D01*
X117500112Y-121838490D01*
X117430699Y-121781524D01*
X117421683Y-121773352D01*
X117367646Y-121719315D01*
X117359474Y-121710299D01*
X117302508Y-121640886D01*
X117296802Y-121633366D01*
X117253254Y-121571173D01*
X117245490Y-121558535D01*
X117202288Y-121477710D01*
X117199294Y-121471720D01*
X117168079Y-121404778D01*
X117161806Y-121388384D01*
X117133532Y-121295179D01*
X117132422Y-121291290D01*
X117114835Y-121225655D01*
X117111208Y-121205724D01*
X117098478Y-121076477D01*
X117094968Y-121036359D01*
X117094500Y-121025599D01*
X117094500Y-120562674D01*
X118429500Y-120562674D01*
X118444033Y-120635738D01*
X118444033Y-120635739D01*
X118444034Y-120635740D01*
X118499399Y-120718601D01*
X118582260Y-120773966D01*
X118618792Y-120781233D01*
X118655325Y-120788500D01*
X118655326Y-120788500D01*
X120104675Y-120788500D01*
X120129029Y-120783655D01*
X120177740Y-120773966D01*
X120260601Y-120718601D01*
X120315966Y-120635740D01*
X120330500Y-120562674D01*
X120330500Y-120250720D01*
X120969500Y-120250720D01*
X120984313Y-120363236D01*
X121009821Y-120424818D01*
X121040621Y-120499176D01*
X121042302Y-120503233D01*
X121134549Y-120623451D01*
X121254767Y-120715698D01*
X121394764Y-120773687D01*
X121507280Y-120788500D01*
X121511333Y-120788500D01*
X122328667Y-120788500D01*
X122332720Y-120788500D01*
X122445236Y-120773687D01*
X122585233Y-120715698D01*
X122705451Y-120623451D01*
X122797698Y-120503233D01*
X122855687Y-120363236D01*
X122870500Y-120250720D01*
X122870500Y-119525280D01*
X122855687Y-119412764D01*
X122797698Y-119272767D01*
X122705451Y-119152549D01*
X122585233Y-119060302D01*
X122445236Y-119002313D01*
X122386356Y-118994561D01*
X122336739Y-118988029D01*
X122336737Y-118988028D01*
X122332720Y-118987500D01*
X121507280Y-118987500D01*
X121503263Y-118988028D01*
X121503260Y-118988029D01*
X121394764Y-119002313D01*
X121254768Y-119060301D01*
X121134549Y-119152549D01*
X121042301Y-119272768D01*
X120984313Y-119412764D01*
X120971673Y-119508777D01*
X120969500Y-119525280D01*
X120969500Y-120250720D01*
X120330500Y-120250720D01*
X120330500Y-119213326D01*
X120315966Y-119140260D01*
X120260601Y-119057399D01*
X120177740Y-119002034D01*
X120177739Y-119002033D01*
X120177738Y-119002033D01*
X120104675Y-118987500D01*
X120104674Y-118987500D01*
X118655326Y-118987500D01*
X118655325Y-118987500D01*
X118582261Y-119002033D01*
X118499399Y-119057399D01*
X118444033Y-119140261D01*
X118429500Y-119213325D01*
X118429500Y-120562674D01*
X117094500Y-120562674D01*
X117094500Y-115431874D01*
X118429500Y-115431874D01*
X118444033Y-115504938D01*
X118444033Y-115504939D01*
X118444034Y-115504940D01*
X118499399Y-115587801D01*
X118582260Y-115643166D01*
X118610634Y-115648810D01*
X118655325Y-115657700D01*
X118655326Y-115657700D01*
X120104675Y-115657700D01*
X120143665Y-115649944D01*
X120177740Y-115643166D01*
X120254018Y-115592199D01*
X120320690Y-115571323D01*
X120388071Y-115589807D01*
X120410585Y-115607622D01*
X121038781Y-116235819D01*
X121072266Y-116297142D01*
X121067282Y-116366834D01*
X121025410Y-116422767D01*
X120959946Y-116447184D01*
X120951100Y-116447500D01*
X120237280Y-116447500D01*
X120233263Y-116448028D01*
X120233260Y-116448029D01*
X120124764Y-116462313D01*
X119984768Y-116520301D01*
X119864549Y-116612549D01*
X119772301Y-116732768D01*
X119714313Y-116872764D01*
X119701183Y-116972500D01*
X119699500Y-116985280D01*
X119699500Y-117710720D01*
X119700028Y-117714737D01*
X119700029Y-117714739D01*
X119702834Y-117736045D01*
X119714313Y-117823236D01*
X119752611Y-117915696D01*
X119770196Y-117958150D01*
X119772302Y-117963233D01*
X119864549Y-118083451D01*
X119984767Y-118175698D01*
X120124764Y-118233687D01*
X120237280Y-118248500D01*
X120241333Y-118248500D01*
X121058667Y-118248500D01*
X121062720Y-118248500D01*
X121175236Y-118233687D01*
X121315233Y-118175698D01*
X121435451Y-118083451D01*
X121527698Y-117963233D01*
X121585687Y-117823236D01*
X121600500Y-117710720D01*
X121600500Y-116985280D01*
X121585687Y-116872764D01*
X121585686Y-116872763D01*
X121583556Y-116856578D01*
X121585812Y-116856280D01*
X121580780Y-116809488D01*
X121612053Y-116747008D01*
X121672140Y-116711353D01*
X121702811Y-116707500D01*
X122137189Y-116707500D01*
X122204228Y-116727185D01*
X122249983Y-116779989D01*
X122259927Y-116849147D01*
X122255111Y-116866696D01*
X122240029Y-116981260D01*
X122239500Y-116985280D01*
X122239500Y-117710720D01*
X122240028Y-117714737D01*
X122240029Y-117714739D01*
X122242834Y-117736045D01*
X122254313Y-117823236D01*
X122292611Y-117915696D01*
X122310196Y-117958150D01*
X122312302Y-117963233D01*
X122404549Y-118083451D01*
X122524767Y-118175698D01*
X122664764Y-118233687D01*
X122777280Y-118248500D01*
X122781333Y-118248500D01*
X123598667Y-118248500D01*
X123602720Y-118248500D01*
X123715236Y-118233687D01*
X123855233Y-118175698D01*
X123975451Y-118083451D01*
X124067698Y-117963233D01*
X124092016Y-117904525D01*
X124099939Y-117885397D01*
X124143780Y-117830993D01*
X124210074Y-117808928D01*
X124277773Y-117826207D01*
X124325384Y-117877344D01*
X124338500Y-117932849D01*
X124338500Y-118439195D01*
X124335861Y-118464642D01*
X124333632Y-118475270D01*
X124337547Y-118506683D01*
X124338499Y-118521992D01*
X124338499Y-118522110D01*
X124341918Y-118542602D01*
X124342656Y-118547669D01*
X124349013Y-118598659D01*
X124337774Y-118667619D01*
X124291036Y-118719555D01*
X124225966Y-118738000D01*
X124015354Y-118738000D01*
X124011164Y-118738141D01*
X123972968Y-118740731D01*
X123798823Y-118784040D01*
X123638059Y-118863771D01*
X123498197Y-118976197D01*
X123385771Y-119116059D01*
X123306040Y-119276823D01*
X123262731Y-119450968D01*
X123260141Y-119489164D01*
X123260000Y-119493353D01*
X123259999Y-119638000D01*
X124144314Y-119638000D01*
X124132359Y-119649955D01*
X124074835Y-119762852D01*
X124055014Y-119888000D01*
X124074835Y-120013148D01*
X124132359Y-120126045D01*
X124144314Y-120138000D01*
X123260000Y-120138000D01*
X123260000Y-120282646D01*
X123260141Y-120286835D01*
X123262731Y-120325031D01*
X123306040Y-120499176D01*
X123385771Y-120659940D01*
X123498197Y-120799802D01*
X123638059Y-120912228D01*
X123798823Y-120991959D01*
X123972968Y-121035268D01*
X124011164Y-121037858D01*
X124015354Y-121038000D01*
X124210000Y-121038000D01*
X124210000Y-120203686D01*
X124221955Y-120215641D01*
X124334852Y-120273165D01*
X124428519Y-120288000D01*
X124491481Y-120288000D01*
X124585148Y-120273165D01*
X124698045Y-120215641D01*
X124710000Y-120203686D01*
X124710000Y-121038000D01*
X124904646Y-121038000D01*
X124908835Y-121037858D01*
X124947031Y-121035268D01*
X125121176Y-120991959D01*
X125281940Y-120912228D01*
X125421802Y-120799802D01*
X125534228Y-120659940D01*
X125613959Y-120499176D01*
X125657268Y-120325031D01*
X125659858Y-120286835D01*
X125660000Y-120282646D01*
X125660000Y-120138000D01*
X124775686Y-120138000D01*
X124787641Y-120126045D01*
X124845165Y-120013148D01*
X124864986Y-119888000D01*
X124845165Y-119762852D01*
X124787641Y-119649955D01*
X124775686Y-119638000D01*
X125659999Y-119638000D01*
X125660000Y-119493353D01*
X125659858Y-119489164D01*
X125657268Y-119450965D01*
X125644948Y-119401427D01*
X125647870Y-119331619D01*
X125688071Y-119274472D01*
X125752785Y-119248131D01*
X125765282Y-119247500D01*
X125947189Y-119247500D01*
X126014228Y-119267185D01*
X126059983Y-119319989D01*
X126069927Y-119389147D01*
X126065111Y-119406696D01*
X126051672Y-119508779D01*
X126049500Y-119525280D01*
X126049500Y-120250720D01*
X126064313Y-120363236D01*
X126089821Y-120424818D01*
X126120621Y-120499176D01*
X126122302Y-120503233D01*
X126214549Y-120623451D01*
X126334767Y-120715698D01*
X126474764Y-120773687D01*
X126587280Y-120788500D01*
X126591333Y-120788500D01*
X127408667Y-120788500D01*
X127412720Y-120788500D01*
X127525236Y-120773687D01*
X127665233Y-120715698D01*
X127785451Y-120623451D01*
X127877698Y-120503233D01*
X127935687Y-120363236D01*
X127950500Y-120250720D01*
X127950500Y-119525280D01*
X127935687Y-119412764D01*
X127935686Y-119412763D01*
X127933556Y-119396578D01*
X127935812Y-119396280D01*
X127930780Y-119349488D01*
X127962053Y-119287008D01*
X128022140Y-119251353D01*
X128052811Y-119247500D01*
X128487189Y-119247500D01*
X128554228Y-119267185D01*
X128599983Y-119319989D01*
X128609927Y-119389147D01*
X128605111Y-119406696D01*
X128591672Y-119508779D01*
X128589500Y-119525280D01*
X128589500Y-120250720D01*
X128604313Y-120363236D01*
X128629821Y-120424818D01*
X128660621Y-120499176D01*
X128662302Y-120503233D01*
X128754549Y-120623451D01*
X128874767Y-120715698D01*
X129014764Y-120773687D01*
X129127280Y-120788500D01*
X129131333Y-120788500D01*
X129948667Y-120788500D01*
X129952720Y-120788500D01*
X130065236Y-120773687D01*
X130205233Y-120715698D01*
X130325451Y-120623451D01*
X130417698Y-120503233D01*
X130475687Y-120363236D01*
X130490500Y-120250720D01*
X130490500Y-119525280D01*
X130475687Y-119412764D01*
X130475686Y-119412763D01*
X130473556Y-119396578D01*
X130475812Y-119396280D01*
X130470780Y-119349488D01*
X130502053Y-119287008D01*
X130562140Y-119251353D01*
X130592811Y-119247500D01*
X131027189Y-119247500D01*
X131094228Y-119267185D01*
X131139983Y-119319989D01*
X131149927Y-119389147D01*
X131145111Y-119406696D01*
X131131672Y-119508779D01*
X131129500Y-119525280D01*
X131129500Y-120250720D01*
X131144313Y-120363236D01*
X131169821Y-120424818D01*
X131200621Y-120499176D01*
X131202302Y-120503233D01*
X131294549Y-120623451D01*
X131414767Y-120715698D01*
X131554764Y-120773687D01*
X131667280Y-120788500D01*
X131671333Y-120788500D01*
X132488667Y-120788500D01*
X132492720Y-120788500D01*
X132605236Y-120773687D01*
X132745233Y-120715698D01*
X132865451Y-120623451D01*
X132957698Y-120503233D01*
X133015687Y-120363236D01*
X133030500Y-120250720D01*
X133030500Y-119525280D01*
X133015687Y-119412764D01*
X133015686Y-119412763D01*
X133013556Y-119396578D01*
X133015812Y-119396280D01*
X133010780Y-119349488D01*
X133042053Y-119287008D01*
X133102140Y-119251353D01*
X133132811Y-119247500D01*
X133567189Y-119247500D01*
X133634228Y-119267185D01*
X133679983Y-119319989D01*
X133689927Y-119389147D01*
X133685111Y-119406696D01*
X133671672Y-119508779D01*
X133669500Y-119525280D01*
X133669500Y-120250720D01*
X133684313Y-120363236D01*
X133709821Y-120424818D01*
X133740621Y-120499176D01*
X133742302Y-120503233D01*
X133834549Y-120623451D01*
X133954767Y-120715698D01*
X134094764Y-120773687D01*
X134207280Y-120788500D01*
X134211333Y-120788500D01*
X135028667Y-120788500D01*
X135032720Y-120788500D01*
X135145236Y-120773687D01*
X135285233Y-120715698D01*
X135405451Y-120623451D01*
X135497698Y-120503233D01*
X135555687Y-120363236D01*
X135570500Y-120250720D01*
X135570500Y-119525280D01*
X135555687Y-119412764D01*
X135555686Y-119412763D01*
X135553556Y-119396578D01*
X135555812Y-119396280D01*
X135550780Y-119349488D01*
X135582053Y-119287008D01*
X135642140Y-119251353D01*
X135672811Y-119247500D01*
X136107189Y-119247500D01*
X136174228Y-119267185D01*
X136219983Y-119319989D01*
X136229927Y-119389147D01*
X136225111Y-119406696D01*
X136211672Y-119508779D01*
X136209500Y-119525280D01*
X136209500Y-120250720D01*
X136224313Y-120363236D01*
X136249821Y-120424818D01*
X136280621Y-120499176D01*
X136282302Y-120503233D01*
X136374549Y-120623451D01*
X136494767Y-120715698D01*
X136634764Y-120773687D01*
X136747280Y-120788500D01*
X136751333Y-120788500D01*
X137568667Y-120788500D01*
X137572720Y-120788500D01*
X137685236Y-120773687D01*
X137825233Y-120715698D01*
X137945451Y-120623451D01*
X138037698Y-120503233D01*
X138095687Y-120363236D01*
X138110500Y-120250720D01*
X138110500Y-119525280D01*
X138095687Y-119412764D01*
X138095686Y-119412763D01*
X138093556Y-119396578D01*
X138095812Y-119396280D01*
X138090780Y-119349488D01*
X138122053Y-119287008D01*
X138182140Y-119251353D01*
X138212811Y-119247500D01*
X138647189Y-119247500D01*
X138714228Y-119267185D01*
X138759983Y-119319989D01*
X138769927Y-119389147D01*
X138765111Y-119406696D01*
X138751672Y-119508779D01*
X138749500Y-119525280D01*
X138749500Y-120250720D01*
X138764313Y-120363236D01*
X138789821Y-120424818D01*
X138820621Y-120499176D01*
X138822302Y-120503233D01*
X138914549Y-120623451D01*
X139034767Y-120715698D01*
X139174764Y-120773687D01*
X139287280Y-120788500D01*
X139291333Y-120788500D01*
X140108667Y-120788500D01*
X140112720Y-120788500D01*
X140225236Y-120773687D01*
X140365233Y-120715698D01*
X140485451Y-120623451D01*
X140577698Y-120503233D01*
X140635687Y-120363236D01*
X140650500Y-120250720D01*
X140650500Y-119525280D01*
X140635687Y-119412764D01*
X140635686Y-119412763D01*
X140633556Y-119396578D01*
X140635812Y-119396280D01*
X140630780Y-119349488D01*
X140662053Y-119287008D01*
X140722140Y-119251353D01*
X140752811Y-119247500D01*
X141187189Y-119247500D01*
X141254228Y-119267185D01*
X141299983Y-119319989D01*
X141309927Y-119389147D01*
X141305111Y-119406696D01*
X141291672Y-119508779D01*
X141289500Y-119525280D01*
X141289500Y-120250720D01*
X141304313Y-120363236D01*
X141329821Y-120424818D01*
X141360621Y-120499176D01*
X141362302Y-120503233D01*
X141454549Y-120623451D01*
X141574767Y-120715698D01*
X141714764Y-120773687D01*
X141827280Y-120788500D01*
X141831333Y-120788500D01*
X142648667Y-120788500D01*
X142652720Y-120788500D01*
X142765236Y-120773687D01*
X142905233Y-120715698D01*
X143025451Y-120623451D01*
X143117698Y-120503233D01*
X143175687Y-120363236D01*
X143190500Y-120250720D01*
X143190500Y-119525280D01*
X143175687Y-119412764D01*
X143175686Y-119412763D01*
X143173556Y-119396578D01*
X143175812Y-119396280D01*
X143170780Y-119349488D01*
X143202053Y-119287008D01*
X143262140Y-119251353D01*
X143292811Y-119247500D01*
X145078376Y-119247500D01*
X145103822Y-119250139D01*
X145107621Y-119250935D01*
X145114449Y-119252367D01*
X145144319Y-119248643D01*
X145145858Y-119248452D01*
X145161195Y-119247500D01*
X145161292Y-119247500D01*
X145161295Y-119247500D01*
X145181824Y-119244073D01*
X145186840Y-119243342D01*
X145238807Y-119236866D01*
X145238809Y-119236864D01*
X145246638Y-119235889D01*
X145246847Y-119235822D01*
X145253788Y-119232065D01*
X145253791Y-119232065D01*
X145299847Y-119207140D01*
X145304325Y-119204835D01*
X145351392Y-119181826D01*
X145351393Y-119181824D01*
X145358489Y-119178356D01*
X145358657Y-119178230D01*
X145364005Y-119172419D01*
X145364007Y-119172419D01*
X145399475Y-119133889D01*
X145402976Y-119130240D01*
X145846898Y-118686319D01*
X145908221Y-118652834D01*
X145934579Y-118650000D01*
X146081666Y-118650000D01*
X146235046Y-118612196D01*
X146374921Y-118538783D01*
X146493164Y-118434030D01*
X146582901Y-118304023D01*
X146638918Y-118156318D01*
X146650303Y-118062552D01*
X146677925Y-117998375D01*
X146735859Y-117959319D01*
X146773399Y-117953500D01*
X146890985Y-117953500D01*
X147044365Y-117915696D01*
X147184240Y-117842283D01*
X147302483Y-117737530D01*
X147392220Y-117607523D01*
X147448237Y-117459818D01*
X147467278Y-117303000D01*
X147448237Y-117146182D01*
X147392220Y-116998477D01*
X147327489Y-116904697D01*
X147302484Y-116868471D01*
X147302483Y-116868470D01*
X147184240Y-116763717D01*
X147170994Y-116756764D01*
X147044364Y-116690303D01*
X146890985Y-116652500D01*
X146733015Y-116652500D01*
X146579635Y-116690303D01*
X146439761Y-116763716D01*
X146321515Y-116868471D01*
X146317743Y-116873938D01*
X146263462Y-116917929D01*
X146215692Y-116927500D01*
X145765804Y-116927500D01*
X145740358Y-116924861D01*
X145729732Y-116922633D01*
X145698323Y-116926548D01*
X145682986Y-116927500D01*
X145682884Y-116927500D01*
X145662381Y-116930920D01*
X145657320Y-116931657D01*
X145597572Y-116939105D01*
X145597308Y-116939190D01*
X145544365Y-116967840D01*
X145539814Y-116970183D01*
X145485718Y-116996630D01*
X145485505Y-116996788D01*
X145444719Y-117041093D01*
X145441172Y-117044789D01*
X144671081Y-117814880D01*
X144609758Y-117848365D01*
X144540066Y-117843381D01*
X144484133Y-117801509D01*
X144459716Y-117736045D01*
X144460472Y-117711037D01*
X144459705Y-117718794D01*
X144459971Y-117714739D01*
X144460500Y-117710720D01*
X144460500Y-116985280D01*
X144445687Y-116872764D01*
X144387698Y-116732767D01*
X144295451Y-116612549D01*
X144175233Y-116520302D01*
X144167722Y-116517191D01*
X144055409Y-116470669D01*
X144039317Y-116464003D01*
X143984915Y-116420163D01*
X143962850Y-116353869D01*
X143980129Y-116286170D01*
X143999090Y-116261762D01*
X144219228Y-116041625D01*
X144533033Y-115727819D01*
X144594357Y-115694334D01*
X144620715Y-115691500D01*
X153491195Y-115691500D01*
X153516641Y-115694139D01*
X153520440Y-115694935D01*
X153527268Y-115696367D01*
X153557138Y-115692643D01*
X153558677Y-115692452D01*
X153574014Y-115691500D01*
X153574111Y-115691500D01*
X153574114Y-115691500D01*
X153594643Y-115688073D01*
X153599659Y-115687342D01*
X153651626Y-115680866D01*
X153651628Y-115680864D01*
X153659457Y-115679889D01*
X153659666Y-115679822D01*
X153666607Y-115676065D01*
X153666610Y-115676065D01*
X153712666Y-115651140D01*
X153717144Y-115648835D01*
X153764211Y-115625826D01*
X153764212Y-115625824D01*
X153771308Y-115622356D01*
X153771476Y-115622230D01*
X153776824Y-115616419D01*
X153776826Y-115616419D01*
X153812293Y-115577890D01*
X153815794Y-115574241D01*
X155567218Y-113822819D01*
X155628542Y-113789334D01*
X155654900Y-113786500D01*
X158571195Y-113786500D01*
X158596641Y-113789139D01*
X158600440Y-113789935D01*
X158607268Y-113791367D01*
X158637138Y-113787643D01*
X158638677Y-113787452D01*
X158654014Y-113786500D01*
X158654111Y-113786500D01*
X158654114Y-113786500D01*
X158674643Y-113783073D01*
X158679659Y-113782342D01*
X158731626Y-113775866D01*
X158731628Y-113775864D01*
X158739457Y-113774889D01*
X158739666Y-113774822D01*
X158746607Y-113771065D01*
X158746610Y-113771065D01*
X158792666Y-113746140D01*
X158797144Y-113743835D01*
X158844211Y-113720826D01*
X158844212Y-113720824D01*
X158851308Y-113717356D01*
X158851476Y-113717230D01*
X158856824Y-113711419D01*
X158856826Y-113711419D01*
X158892294Y-113672889D01*
X158895795Y-113669240D01*
X160375889Y-112189146D01*
X160395741Y-112173025D01*
X160404836Y-112167084D01*
X160424273Y-112142110D01*
X160434453Y-112130583D01*
X160434519Y-112130518D01*
X160446624Y-112113561D01*
X160449627Y-112109534D01*
X160481809Y-112068189D01*
X160481810Y-112068185D01*
X160486666Y-112061947D01*
X160486753Y-112061779D01*
X160489010Y-112054199D01*
X160503955Y-112003997D01*
X160505486Y-111999218D01*
X160522500Y-111949660D01*
X160522500Y-111949656D01*
X160525060Y-111942200D01*
X160525093Y-111941970D01*
X160524767Y-111934091D01*
X160524768Y-111934089D01*
X160522606Y-111881807D01*
X160522500Y-111876684D01*
X160522500Y-111778514D01*
X160542185Y-111711475D01*
X160577610Y-111675411D01*
X160594738Y-111663966D01*
X160594740Y-111663966D01*
X160677601Y-111608601D01*
X160678898Y-111606658D01*
X160732508Y-111561855D01*
X160801833Y-111553146D01*
X160864861Y-111583300D01*
X160885098Y-111606654D01*
X160886399Y-111608601D01*
X160969260Y-111663966D01*
X161005792Y-111671233D01*
X161042325Y-111678500D01*
X161042326Y-111678500D01*
X161791675Y-111678500D01*
X161816029Y-111673655D01*
X161864740Y-111663966D01*
X161947601Y-111608601D01*
X161948898Y-111606658D01*
X162002508Y-111561855D01*
X162071833Y-111553146D01*
X162134861Y-111583300D01*
X162155098Y-111606654D01*
X162156399Y-111608601D01*
X162239260Y-111663966D01*
X162275792Y-111671233D01*
X162312325Y-111678500D01*
X162312326Y-111678500D01*
X163061675Y-111678500D01*
X163086029Y-111673655D01*
X163134740Y-111663966D01*
X163217601Y-111608601D01*
X163218898Y-111606658D01*
X163272508Y-111561855D01*
X163341833Y-111553146D01*
X163404861Y-111583300D01*
X163425098Y-111606654D01*
X163426399Y-111608601D01*
X163509260Y-111663966D01*
X163509261Y-111663966D01*
X163526390Y-111675411D01*
X163571195Y-111729023D01*
X163581500Y-111778514D01*
X163581500Y-111802796D01*
X163561815Y-111869835D01*
X163539727Y-111895611D01*
X163466517Y-111960468D01*
X163376780Y-112090476D01*
X163320763Y-112238181D01*
X163301721Y-112394999D01*
X163320763Y-112551818D01*
X163376780Y-112699523D01*
X163466515Y-112829528D01*
X163466516Y-112829529D01*
X163466517Y-112829530D01*
X163584760Y-112934283D01*
X163724635Y-113007696D01*
X163878015Y-113045500D01*
X164035985Y-113045500D01*
X164189365Y-113007696D01*
X164329240Y-112934283D01*
X164447483Y-112829530D01*
X164489951Y-112768004D01*
X164544232Y-112724015D01*
X164613681Y-112716355D01*
X164676246Y-112747458D01*
X164694047Y-112768002D01*
X164736517Y-112829530D01*
X164854760Y-112934283D01*
X164994635Y-113007696D01*
X165148015Y-113045500D01*
X165305985Y-113045500D01*
X165459365Y-113007696D01*
X165599240Y-112934283D01*
X165717483Y-112829530D01*
X165807220Y-112699523D01*
X165863237Y-112551818D01*
X165882278Y-112395000D01*
X165863237Y-112238182D01*
X165807220Y-112090477D01*
X165760267Y-112022454D01*
X165717482Y-111960468D01*
X165644273Y-111895611D01*
X165607146Y-111836422D01*
X165602500Y-111802796D01*
X165602500Y-111778514D01*
X165622185Y-111711475D01*
X165657610Y-111675411D01*
X165674738Y-111663966D01*
X165674740Y-111663966D01*
X165757601Y-111608601D01*
X165758898Y-111606658D01*
X165812508Y-111561855D01*
X165881833Y-111553146D01*
X165944861Y-111583300D01*
X165965098Y-111606654D01*
X165966399Y-111608601D01*
X166049260Y-111663966D01*
X166085792Y-111671233D01*
X166122325Y-111678500D01*
X166122326Y-111678500D01*
X166871675Y-111678500D01*
X166896029Y-111673655D01*
X166944740Y-111663966D01*
X167027601Y-111608601D01*
X167028898Y-111606659D01*
X167082503Y-111561857D01*
X167151828Y-111553146D01*
X167214857Y-111583297D01*
X167235100Y-111606658D01*
X167236397Y-111608599D01*
X167236398Y-111608599D01*
X167236399Y-111608601D01*
X167319260Y-111663966D01*
X167319261Y-111663966D01*
X167336390Y-111675411D01*
X167381195Y-111729023D01*
X167391500Y-111778514D01*
X167391500Y-111802796D01*
X167371815Y-111869835D01*
X167349727Y-111895611D01*
X167276517Y-111960468D01*
X167186780Y-112090476D01*
X167130763Y-112238181D01*
X167111721Y-112394999D01*
X167130763Y-112551818D01*
X167186780Y-112699523D01*
X167276515Y-112829528D01*
X167276516Y-112829529D01*
X167276517Y-112829530D01*
X167394760Y-112934283D01*
X167534635Y-113007696D01*
X167688015Y-113045500D01*
X167845985Y-113045500D01*
X167999365Y-113007696D01*
X168139240Y-112934283D01*
X168257483Y-112829530D01*
X168347220Y-112699523D01*
X168403237Y-112551818D01*
X168422278Y-112395000D01*
X168403237Y-112238182D01*
X168347220Y-112090477D01*
X168300267Y-112022454D01*
X168257482Y-111960468D01*
X168184273Y-111895611D01*
X168147146Y-111836422D01*
X168142500Y-111802796D01*
X168142500Y-111778514D01*
X168162185Y-111711475D01*
X168197610Y-111675411D01*
X168214738Y-111663966D01*
X168214740Y-111663966D01*
X168297601Y-111608601D01*
X168298898Y-111606658D01*
X168352508Y-111561855D01*
X168421833Y-111553146D01*
X168484861Y-111583300D01*
X168505098Y-111606654D01*
X168506399Y-111608601D01*
X168589260Y-111663966D01*
X168625792Y-111671233D01*
X168662325Y-111678500D01*
X168662326Y-111678500D01*
X169411675Y-111678500D01*
X169436029Y-111673655D01*
X169484740Y-111663966D01*
X169567601Y-111608601D01*
X169568898Y-111606658D01*
X169622508Y-111561855D01*
X169691833Y-111553146D01*
X169754861Y-111583300D01*
X169775098Y-111606654D01*
X169776399Y-111608601D01*
X169859260Y-111663966D01*
X169859261Y-111663966D01*
X169876390Y-111675411D01*
X169921195Y-111729023D01*
X169931500Y-111778514D01*
X169931500Y-111802796D01*
X169911815Y-111869835D01*
X169889727Y-111895611D01*
X169816517Y-111960468D01*
X169726780Y-112090476D01*
X169670763Y-112238181D01*
X169651721Y-112394999D01*
X169670763Y-112551818D01*
X169726780Y-112699523D01*
X169816515Y-112829528D01*
X169816516Y-112829529D01*
X169816517Y-112829530D01*
X169934760Y-112934283D01*
X170074635Y-113007696D01*
X170228015Y-113045500D01*
X170385985Y-113045500D01*
X170539365Y-113007696D01*
X170679240Y-112934283D01*
X170797483Y-112829530D01*
X170839952Y-112768002D01*
X170894230Y-112724015D01*
X170963679Y-112716355D01*
X171026244Y-112747457D01*
X171044049Y-112768005D01*
X171086515Y-112829528D01*
X171086516Y-112829529D01*
X171086517Y-112829530D01*
X171204760Y-112934283D01*
X171344635Y-113007696D01*
X171498015Y-113045500D01*
X171655985Y-113045500D01*
X171809365Y-113007696D01*
X171949240Y-112934283D01*
X172067483Y-112829530D01*
X172157220Y-112699523D01*
X172213237Y-112551818D01*
X172232278Y-112395000D01*
X172213237Y-112238182D01*
X172165199Y-112111516D01*
X172157220Y-112090476D01*
X172143542Y-112070661D01*
X172121659Y-112004307D01*
X172139124Y-111936655D01*
X172190392Y-111889185D01*
X172259185Y-111876968D01*
X172288926Y-111884039D01*
X172389628Y-111921599D01*
X172445867Y-111927645D01*
X172452482Y-111928000D01*
X173238500Y-111928000D01*
X173305539Y-111947685D01*
X173351294Y-112000489D01*
X173362500Y-112052000D01*
X173362500Y-115438323D01*
X173342815Y-115505362D01*
X173326181Y-115526004D01*
X172540569Y-116311615D01*
X172519936Y-116328244D01*
X172515872Y-116330855D01*
X172483351Y-116368386D01*
X172477330Y-116374854D01*
X172467777Y-116384408D01*
X172459677Y-116395227D01*
X172454132Y-116402107D01*
X172421624Y-116439624D01*
X172419618Y-116444017D01*
X172406098Y-116466802D01*
X172403203Y-116470668D01*
X172385851Y-116517191D01*
X172382466Y-116525365D01*
X172361834Y-116570545D01*
X172361147Y-116575323D01*
X172354596Y-116600990D01*
X172352909Y-116605513D01*
X172349365Y-116655053D01*
X172348420Y-116663837D01*
X172348021Y-116666620D01*
X172346500Y-116677203D01*
X172346500Y-116690691D01*
X172346184Y-116699538D01*
X172342641Y-116749072D01*
X172343666Y-116753784D01*
X172346500Y-116780143D01*
X172346500Y-117924733D01*
X172326815Y-117991772D01*
X172325600Y-117993626D01*
X172315099Y-118009341D01*
X172261486Y-118054145D01*
X172192161Y-118062851D01*
X172129134Y-118032695D01*
X172108898Y-118009340D01*
X172107601Y-118007399D01*
X172024740Y-117952034D01*
X172024739Y-117952033D01*
X172024738Y-117952033D01*
X171951675Y-117937500D01*
X171951674Y-117937500D01*
X171202326Y-117937500D01*
X171202325Y-117937500D01*
X171129261Y-117952033D01*
X171046398Y-118007400D01*
X171045102Y-118009340D01*
X170991490Y-118054145D01*
X170922165Y-118062852D01*
X170859137Y-118032697D01*
X170838898Y-118009340D01*
X170837602Y-118007401D01*
X170837601Y-118007399D01*
X170754740Y-117952034D01*
X170754739Y-117952033D01*
X170754738Y-117952033D01*
X170681675Y-117937500D01*
X170681674Y-117937500D01*
X169932326Y-117937500D01*
X169932325Y-117937500D01*
X169859261Y-117952033D01*
X169776398Y-118007400D01*
X169775102Y-118009340D01*
X169721490Y-118054145D01*
X169652165Y-118062852D01*
X169589137Y-118032697D01*
X169568898Y-118009340D01*
X169567602Y-118007401D01*
X169567601Y-118007399D01*
X169484740Y-117952034D01*
X169484739Y-117952033D01*
X169484738Y-117952033D01*
X169411675Y-117937500D01*
X169411674Y-117937500D01*
X168662326Y-117937500D01*
X168662325Y-117937500D01*
X168589261Y-117952033D01*
X168506396Y-118007401D01*
X168505099Y-118009343D01*
X168451485Y-118054146D01*
X168382160Y-118062852D01*
X168319134Y-118032695D01*
X168298898Y-118009341D01*
X168297601Y-118007399D01*
X168214740Y-117952034D01*
X168214739Y-117952033D01*
X168214738Y-117952033D01*
X168141675Y-117937500D01*
X168141674Y-117937500D01*
X167392326Y-117937500D01*
X167392325Y-117937500D01*
X167319261Y-117952033D01*
X167236398Y-118007400D01*
X167235102Y-118009340D01*
X167181490Y-118054145D01*
X167112165Y-118062852D01*
X167049137Y-118032697D01*
X167028898Y-118009340D01*
X167027602Y-118007401D01*
X167027601Y-118007399D01*
X166944740Y-117952034D01*
X166944739Y-117952033D01*
X166944738Y-117952033D01*
X166871675Y-117937500D01*
X166871674Y-117937500D01*
X166122326Y-117937500D01*
X166122325Y-117937500D01*
X166049261Y-117952033D01*
X165966398Y-118007400D01*
X165965102Y-118009340D01*
X165911490Y-118054145D01*
X165842165Y-118062852D01*
X165779137Y-118032697D01*
X165758898Y-118009340D01*
X165757602Y-118007401D01*
X165757601Y-118007399D01*
X165674740Y-117952034D01*
X165674739Y-117952033D01*
X165674738Y-117952033D01*
X165601675Y-117937500D01*
X165601674Y-117937500D01*
X164852326Y-117937500D01*
X164852325Y-117937500D01*
X164779261Y-117952033D01*
X164696398Y-118007400D01*
X164695102Y-118009340D01*
X164641490Y-118054145D01*
X164572165Y-118062852D01*
X164509137Y-118032697D01*
X164488898Y-118009340D01*
X164487602Y-118007401D01*
X164487601Y-118007399D01*
X164404740Y-117952034D01*
X164404738Y-117952033D01*
X164387610Y-117940589D01*
X164342805Y-117886977D01*
X164332500Y-117837486D01*
X164332500Y-116289202D01*
X164352185Y-116222163D01*
X164374269Y-116196390D01*
X164447483Y-116131530D01*
X164537220Y-116001523D01*
X164593237Y-115853818D01*
X164612278Y-115697000D01*
X164593237Y-115540182D01*
X164537220Y-115392477D01*
X164447483Y-115262470D01*
X164329240Y-115157717D01*
X164299990Y-115142365D01*
X164189364Y-115084303D01*
X164035985Y-115046500D01*
X163878015Y-115046500D01*
X163724635Y-115084303D01*
X163584761Y-115157716D01*
X163466515Y-115262471D01*
X163376780Y-115392476D01*
X163320763Y-115540181D01*
X163301721Y-115697000D01*
X163320763Y-115853818D01*
X163376780Y-116001523D01*
X163466515Y-116131528D01*
X163466516Y-116131529D01*
X163466517Y-116131530D01*
X163539727Y-116196387D01*
X163576853Y-116255574D01*
X163581500Y-116289202D01*
X163581500Y-117837486D01*
X163561815Y-117904525D01*
X163526390Y-117940589D01*
X163509261Y-117952033D01*
X163509260Y-117952034D01*
X163439905Y-117998375D01*
X163426398Y-118007400D01*
X163425102Y-118009340D01*
X163371490Y-118054145D01*
X163302165Y-118062852D01*
X163239137Y-118032697D01*
X163218898Y-118009340D01*
X163217602Y-118007401D01*
X163217601Y-118007399D01*
X163134740Y-117952034D01*
X163134739Y-117952033D01*
X163134738Y-117952033D01*
X163061675Y-117937500D01*
X163061674Y-117937500D01*
X162312326Y-117937500D01*
X162312325Y-117937500D01*
X162239261Y-117952033D01*
X162156398Y-118007400D01*
X162155102Y-118009340D01*
X162101490Y-118054145D01*
X162032165Y-118062852D01*
X161969137Y-118032697D01*
X161948898Y-118009340D01*
X161947602Y-118007401D01*
X161947601Y-118007399D01*
X161864740Y-117952034D01*
X161864739Y-117952033D01*
X161864738Y-117952033D01*
X161791675Y-117937500D01*
X161791674Y-117937500D01*
X161042326Y-117937500D01*
X161042325Y-117937500D01*
X160969261Y-117952033D01*
X160886398Y-118007400D01*
X160885102Y-118009340D01*
X160831490Y-118054145D01*
X160762165Y-118062852D01*
X160699137Y-118032697D01*
X160678898Y-118009340D01*
X160677602Y-118007401D01*
X160677601Y-118007399D01*
X160594740Y-117952034D01*
X160594738Y-117952033D01*
X160577610Y-117940589D01*
X160532805Y-117886977D01*
X160522500Y-117837486D01*
X160522500Y-117813202D01*
X160542185Y-117746163D01*
X160564269Y-117720390D01*
X160637483Y-117655530D01*
X160727220Y-117525523D01*
X160783237Y-117377818D01*
X160802278Y-117221000D01*
X160783237Y-117064182D01*
X160727220Y-116916477D01*
X160637483Y-116786470D01*
X160519240Y-116681717D01*
X160490836Y-116666809D01*
X160379364Y-116608303D01*
X160225985Y-116570500D01*
X160068015Y-116570500D01*
X159914635Y-116608303D01*
X159774761Y-116681716D01*
X159656515Y-116786471D01*
X159566780Y-116916476D01*
X159510763Y-117064181D01*
X159491721Y-117221000D01*
X159510763Y-117377818D01*
X159566780Y-117525523D01*
X159656515Y-117655528D01*
X159656516Y-117655529D01*
X159656517Y-117655530D01*
X159729727Y-117720387D01*
X159766853Y-117779574D01*
X159771500Y-117813202D01*
X159771500Y-117837486D01*
X159751815Y-117904525D01*
X159716390Y-117940589D01*
X159699261Y-117952033D01*
X159699260Y-117952034D01*
X159629905Y-117998375D01*
X159616398Y-118007400D01*
X159615102Y-118009340D01*
X159561490Y-118054145D01*
X159492165Y-118062852D01*
X159429137Y-118032697D01*
X159408898Y-118009340D01*
X159407602Y-118007401D01*
X159407601Y-118007399D01*
X159324740Y-117952034D01*
X159324739Y-117952033D01*
X159324738Y-117952033D01*
X159251675Y-117937500D01*
X159251674Y-117937500D01*
X158502326Y-117937500D01*
X158502325Y-117937500D01*
X158429261Y-117952033D01*
X158346396Y-118007401D01*
X158345099Y-118009343D01*
X158291485Y-118054146D01*
X158222160Y-118062852D01*
X158159134Y-118032695D01*
X158138898Y-118009341D01*
X158137601Y-118007399D01*
X158054740Y-117952034D01*
X158054739Y-117952033D01*
X158054738Y-117952033D01*
X157981675Y-117937500D01*
X157981674Y-117937500D01*
X157232326Y-117937500D01*
X157232325Y-117937500D01*
X157159261Y-117952033D01*
X157076398Y-118007400D01*
X157075102Y-118009340D01*
X157021490Y-118054145D01*
X156952165Y-118062852D01*
X156889137Y-118032697D01*
X156868898Y-118009340D01*
X156867602Y-118007401D01*
X156867601Y-118007399D01*
X156784740Y-117952034D01*
X156784738Y-117952033D01*
X156767610Y-117940589D01*
X156722805Y-117886977D01*
X156712500Y-117837486D01*
X156712500Y-117813202D01*
X156732185Y-117746163D01*
X156754269Y-117720390D01*
X156827483Y-117655530D01*
X156917220Y-117525523D01*
X156973237Y-117377818D01*
X156992278Y-117221000D01*
X156973237Y-117064182D01*
X156917220Y-116916477D01*
X156827483Y-116786470D01*
X156709240Y-116681717D01*
X156680836Y-116666809D01*
X156569364Y-116608303D01*
X156415985Y-116570500D01*
X156258015Y-116570500D01*
X156104635Y-116608303D01*
X155964761Y-116681716D01*
X155846515Y-116786471D01*
X155756780Y-116916476D01*
X155700763Y-117064181D01*
X155681721Y-117221000D01*
X155696800Y-117345184D01*
X155685339Y-117414107D01*
X155638435Y-117465893D01*
X155570980Y-117484100D01*
X155504389Y-117462947D01*
X155479990Y-117441331D01*
X155459860Y-117418099D01*
X155454306Y-117411207D01*
X155446221Y-117400406D01*
X155436679Y-117390865D01*
X155430659Y-117384401D01*
X155398128Y-117346857D01*
X155398127Y-117346856D01*
X155398125Y-117346854D01*
X155394067Y-117344246D01*
X155373427Y-117327613D01*
X154833385Y-116787571D01*
X154816749Y-116766927D01*
X154814142Y-116762870D01*
X154776615Y-116730354D01*
X154770135Y-116724321D01*
X154760593Y-116714779D01*
X154749786Y-116706689D01*
X154742907Y-116701147D01*
X154705373Y-116668623D01*
X154705372Y-116668622D01*
X154700987Y-116666620D01*
X154678194Y-116653095D01*
X154674331Y-116650204D01*
X154674329Y-116650203D01*
X154627790Y-116632845D01*
X154619622Y-116629461D01*
X154582590Y-116612549D01*
X154574458Y-116608835D01*
X154573603Y-116608712D01*
X154569676Y-116608147D01*
X154544001Y-116601594D01*
X154542381Y-116600990D01*
X154539483Y-116599909D01*
X154539482Y-116599909D01*
X154489947Y-116596365D01*
X154481153Y-116595419D01*
X154467803Y-116593500D01*
X154467799Y-116593500D01*
X154454308Y-116593500D01*
X154445461Y-116593184D01*
X154395926Y-116589640D01*
X154391214Y-116590666D01*
X154364856Y-116593500D01*
X149419144Y-116593500D01*
X149392786Y-116590666D01*
X149388073Y-116589640D01*
X149338539Y-116593184D01*
X149329692Y-116593500D01*
X149316201Y-116593500D01*
X149302837Y-116595420D01*
X149294053Y-116596365D01*
X149244513Y-116599909D01*
X149239990Y-116601596D01*
X149214323Y-116608147D01*
X149209545Y-116608834D01*
X149164365Y-116629466D01*
X149156191Y-116632851D01*
X149109668Y-116650203D01*
X149105802Y-116653098D01*
X149083017Y-116666617D01*
X149082599Y-116666809D01*
X149078624Y-116668624D01*
X149041107Y-116701132D01*
X149034227Y-116706677D01*
X149023408Y-116714777D01*
X149013854Y-116724330D01*
X149007386Y-116730351D01*
X148969855Y-116762872D01*
X148967244Y-116766936D01*
X148950615Y-116787569D01*
X148410569Y-117327615D01*
X148389936Y-117344244D01*
X148385872Y-117346855D01*
X148353351Y-117384386D01*
X148347330Y-117390854D01*
X148337777Y-117400408D01*
X148329677Y-117411227D01*
X148324132Y-117418107D01*
X148291624Y-117455624D01*
X148289618Y-117460017D01*
X148276098Y-117482802D01*
X148273203Y-117486668D01*
X148255851Y-117533191D01*
X148252466Y-117541365D01*
X148231834Y-117586545D01*
X148231147Y-117591323D01*
X148224596Y-117616990D01*
X148222909Y-117621513D01*
X148219365Y-117671053D01*
X148218420Y-117679846D01*
X148216500Y-117693203D01*
X148216500Y-117706691D01*
X148216184Y-117715538D01*
X148212641Y-117765072D01*
X148213666Y-117769784D01*
X148216500Y-117796143D01*
X148216500Y-117924733D01*
X148196815Y-117991772D01*
X148195603Y-117993622D01*
X148131034Y-118090259D01*
X148116500Y-118163325D01*
X148116500Y-119263500D01*
X148096815Y-119330539D01*
X148044011Y-119376294D01*
X147992500Y-119387500D01*
X147723144Y-119387500D01*
X147696786Y-119384666D01*
X147692073Y-119383640D01*
X147642539Y-119387184D01*
X147633692Y-119387500D01*
X147620201Y-119387500D01*
X147606837Y-119389420D01*
X147598053Y-119390365D01*
X147548513Y-119393909D01*
X147543990Y-119395596D01*
X147518323Y-119402147D01*
X147513545Y-119402834D01*
X147468365Y-119423466D01*
X147460191Y-119426851D01*
X147413668Y-119444203D01*
X147409802Y-119447098D01*
X147387017Y-119460618D01*
X147382624Y-119462624D01*
X147345107Y-119495132D01*
X147338227Y-119500677D01*
X147327408Y-119508777D01*
X147317854Y-119518330D01*
X147311386Y-119524351D01*
X147273855Y-119556872D01*
X147271244Y-119560936D01*
X147254615Y-119581569D01*
X146759569Y-120076615D01*
X146738936Y-120093244D01*
X146734872Y-120095855D01*
X146702351Y-120133386D01*
X146696330Y-120139854D01*
X146686777Y-120149408D01*
X146678677Y-120160227D01*
X146673132Y-120167107D01*
X146640624Y-120204624D01*
X146638618Y-120209017D01*
X146625098Y-120231802D01*
X146622203Y-120235668D01*
X146604851Y-120282191D01*
X146601466Y-120290365D01*
X146580834Y-120335545D01*
X146580147Y-120340323D01*
X146573596Y-120365990D01*
X146571909Y-120370513D01*
X146568365Y-120420053D01*
X146567420Y-120428846D01*
X146565500Y-120442203D01*
X146565500Y-120445340D01*
X146564617Y-120448347D01*
X146564239Y-120450977D01*
X146563860Y-120450922D01*
X146545815Y-120512379D01*
X146543551Y-120515778D01*
X146485780Y-120599475D01*
X146429763Y-120747181D01*
X146410721Y-120904000D01*
X146429763Y-121060818D01*
X146485779Y-121208523D01*
X146543550Y-121292217D01*
X146565433Y-121358571D01*
X146565500Y-121362657D01*
X146565500Y-129472857D01*
X146562666Y-129499215D01*
X146561640Y-129503926D01*
X146565184Y-129553461D01*
X146565500Y-129562308D01*
X146565500Y-129575802D01*
X146567419Y-129589153D01*
X146568365Y-129597947D01*
X146571909Y-129647483D01*
X146573594Y-129652001D01*
X146580147Y-129677676D01*
X146580712Y-129681603D01*
X146580835Y-129682458D01*
X146601457Y-129727612D01*
X146604845Y-129735790D01*
X146622204Y-129782331D01*
X146625095Y-129786194D01*
X146638620Y-129808987D01*
X146640622Y-129813372D01*
X146640623Y-129813373D01*
X146673147Y-129850907D01*
X146678689Y-129857786D01*
X146686779Y-129868593D01*
X146696321Y-129878135D01*
X146702354Y-129884615D01*
X146734870Y-129922142D01*
X146738927Y-129924749D01*
X146759571Y-129941385D01*
X147172613Y-130354427D01*
X147189246Y-130375067D01*
X147191854Y-130379125D01*
X147191856Y-130379127D01*
X147191857Y-130379128D01*
X147229401Y-130411659D01*
X147235865Y-130417679D01*
X147245403Y-130427218D01*
X147256207Y-130435305D01*
X147263103Y-130440862D01*
X147300627Y-130473377D01*
X147305014Y-130475380D01*
X147327811Y-130488907D01*
X147331669Y-130491795D01*
X147378203Y-130509151D01*
X147386366Y-130512533D01*
X147431543Y-130533165D01*
X147436316Y-130533851D01*
X147462005Y-130540408D01*
X147466517Y-130542091D01*
X147516039Y-130545632D01*
X147524839Y-130546578D01*
X147538201Y-130548500D01*
X147551701Y-130548500D01*
X147560547Y-130548816D01*
X147610072Y-130552358D01*
X147610072Y-130552357D01*
X147610073Y-130552358D01*
X147614780Y-130551333D01*
X147641139Y-130548500D01*
X164905856Y-130548500D01*
X164932214Y-130551334D01*
X164936926Y-130552359D01*
X164936926Y-130552358D01*
X164936927Y-130552359D01*
X164986461Y-130548815D01*
X164995308Y-130548500D01*
X165008797Y-130548500D01*
X165008799Y-130548500D01*
X165022159Y-130546578D01*
X165030951Y-130545633D01*
X165080483Y-130542091D01*
X165085001Y-130540405D01*
X165110681Y-130533851D01*
X165115457Y-130533165D01*
X165160637Y-130512530D01*
X165168791Y-130509153D01*
X165215331Y-130491796D01*
X165219189Y-130488907D01*
X165241997Y-130475375D01*
X165246373Y-130473377D01*
X165283906Y-130440853D01*
X165290782Y-130435313D01*
X165301593Y-130427221D01*
X165311155Y-130417658D01*
X165317603Y-130411654D01*
X165355143Y-130379128D01*
X165357753Y-130375067D01*
X165374382Y-130354430D01*
X166140994Y-129587818D01*
X166202317Y-129554334D01*
X166228675Y-129551500D01*
X166778667Y-129551500D01*
X166782720Y-129551500D01*
X166895236Y-129536687D01*
X167035233Y-129478698D01*
X167155451Y-129386451D01*
X167247698Y-129266233D01*
X167305687Y-129126236D01*
X167320500Y-129013720D01*
X167959500Y-129013720D01*
X167960028Y-129017737D01*
X167960029Y-129017739D01*
X167974313Y-129126235D01*
X168030621Y-129262176D01*
X168032302Y-129266233D01*
X168124549Y-129386451D01*
X168244767Y-129478698D01*
X168384764Y-129536687D01*
X168497280Y-129551500D01*
X168501333Y-129551500D01*
X169318667Y-129551500D01*
X169322720Y-129551500D01*
X169435236Y-129536687D01*
X169575233Y-129478698D01*
X169695451Y-129386451D01*
X169787698Y-129266233D01*
X169845687Y-129126236D01*
X169860500Y-129013720D01*
X170499500Y-129013720D01*
X170500028Y-129017737D01*
X170500029Y-129017739D01*
X170514313Y-129126235D01*
X170570621Y-129262176D01*
X170572302Y-129266233D01*
X170664549Y-129386451D01*
X170784767Y-129478698D01*
X170924764Y-129536687D01*
X171037280Y-129551500D01*
X171041333Y-129551500D01*
X171858667Y-129551500D01*
X171862720Y-129551500D01*
X171975236Y-129536687D01*
X172115233Y-129478698D01*
X172235451Y-129386451D01*
X172327698Y-129266233D01*
X172385687Y-129126236D01*
X172400500Y-129013720D01*
X172400500Y-128288280D01*
X172385687Y-128175764D01*
X172327698Y-128035767D01*
X172235451Y-127915549D01*
X172115233Y-127823302D01*
X171975236Y-127765313D01*
X171916356Y-127757561D01*
X171866739Y-127751029D01*
X171866737Y-127751028D01*
X171862720Y-127750500D01*
X171037280Y-127750500D01*
X171033263Y-127751028D01*
X171033260Y-127751029D01*
X170924764Y-127765313D01*
X170784768Y-127823301D01*
X170664549Y-127915549D01*
X170572301Y-128035768D01*
X170514312Y-128175764D01*
X170514313Y-128175764D01*
X170499500Y-128288280D01*
X170499500Y-129013720D01*
X169860500Y-129013720D01*
X169860500Y-128288280D01*
X169845687Y-128175764D01*
X169787698Y-128035767D01*
X169695451Y-127915549D01*
X169575233Y-127823302D01*
X169435236Y-127765313D01*
X169376356Y-127757561D01*
X169326739Y-127751029D01*
X169326737Y-127751028D01*
X169322720Y-127750500D01*
X168497280Y-127750500D01*
X168493263Y-127751028D01*
X168493260Y-127751029D01*
X168384764Y-127765313D01*
X168244768Y-127823301D01*
X168124549Y-127915549D01*
X168032301Y-128035768D01*
X167974312Y-128175763D01*
X167974313Y-128175764D01*
X167959500Y-128288280D01*
X167959500Y-129013720D01*
X167320500Y-129013720D01*
X167320500Y-128288280D01*
X167305687Y-128175764D01*
X167247698Y-128035767D01*
X167155451Y-127915549D01*
X167035233Y-127823302D01*
X167028225Y-127820399D01*
X166947046Y-127786773D01*
X166892643Y-127742931D01*
X166870579Y-127676637D01*
X166870500Y-127672212D01*
X166870500Y-127081088D01*
X166890185Y-127014049D01*
X166942989Y-126968294D01*
X167012147Y-126958350D01*
X167041949Y-126966525D01*
X167114764Y-126996687D01*
X167227280Y-127011500D01*
X167231333Y-127011500D01*
X168048667Y-127011500D01*
X168052720Y-127011500D01*
X168165236Y-126996687D01*
X168305233Y-126938698D01*
X168425451Y-126846451D01*
X168517698Y-126726233D01*
X168575687Y-126586236D01*
X168590500Y-126473720D01*
X168590500Y-125748280D01*
X168575687Y-125635764D01*
X168517698Y-125495767D01*
X168454944Y-125413985D01*
X168429751Y-125348818D01*
X168443789Y-125280373D01*
X168492603Y-125230383D01*
X168553321Y-125214500D01*
X169266679Y-125214500D01*
X169333718Y-125234185D01*
X169379473Y-125286989D01*
X169389417Y-125356147D01*
X169365055Y-125413985D01*
X169353602Y-125428912D01*
X169302301Y-125495768D01*
X169298669Y-125504537D01*
X169244313Y-125635764D01*
X169229500Y-125748280D01*
X169229500Y-126473720D01*
X169244313Y-126586236D01*
X169302302Y-126726233D01*
X169394549Y-126846451D01*
X169514767Y-126938698D01*
X169654764Y-126996687D01*
X169767280Y-127011500D01*
X169771333Y-127011500D01*
X170588667Y-127011500D01*
X170592720Y-127011500D01*
X170705236Y-126996687D01*
X170845233Y-126938698D01*
X170965451Y-126846451D01*
X171057698Y-126726233D01*
X171115687Y-126586236D01*
X171130500Y-126473720D01*
X171769500Y-126473720D01*
X171784313Y-126586236D01*
X171842302Y-126726233D01*
X171934549Y-126846451D01*
X172054767Y-126938698D01*
X172194764Y-126996687D01*
X172307280Y-127011500D01*
X172311333Y-127011500D01*
X173128667Y-127011500D01*
X173132720Y-127011500D01*
X173245236Y-126996687D01*
X173385233Y-126938698D01*
X173505451Y-126846451D01*
X173597698Y-126726233D01*
X173655687Y-126586236D01*
X173670500Y-126473720D01*
X173670500Y-125748280D01*
X173655687Y-125635764D01*
X173597698Y-125495767D01*
X173505451Y-125375549D01*
X173385233Y-125283302D01*
X173245236Y-125225313D01*
X173146484Y-125212312D01*
X173136739Y-125211029D01*
X173136737Y-125211028D01*
X173132720Y-125210500D01*
X172307280Y-125210500D01*
X172303263Y-125211028D01*
X172303260Y-125211029D01*
X172194764Y-125225313D01*
X172054768Y-125283301D01*
X171934549Y-125375549D01*
X171842301Y-125495768D01*
X171838669Y-125504537D01*
X171784313Y-125635764D01*
X171769500Y-125748280D01*
X171769500Y-126473720D01*
X171130500Y-126473720D01*
X171130500Y-125748280D01*
X171115687Y-125635764D01*
X171057698Y-125495767D01*
X170965451Y-125375549D01*
X170845233Y-125283302D01*
X170705236Y-125225313D01*
X170606484Y-125212312D01*
X170596739Y-125211029D01*
X170596737Y-125211028D01*
X170592720Y-125210500D01*
X170588667Y-125210500D01*
X170563675Y-125210500D01*
X170496636Y-125190815D01*
X170450881Y-125138011D01*
X170440937Y-125068853D01*
X170469962Y-125005297D01*
X170475994Y-124998819D01*
X171771313Y-123703500D01*
X173153430Y-122321382D01*
X173174069Y-122304751D01*
X173178128Y-122302143D01*
X173210654Y-122264603D01*
X173216658Y-122258155D01*
X173226221Y-122248593D01*
X173234313Y-122237782D01*
X173239853Y-122230906D01*
X173272377Y-122193373D01*
X173274375Y-122188997D01*
X173287907Y-122166190D01*
X173288692Y-122165141D01*
X173290796Y-122162331D01*
X173308153Y-122115791D01*
X173311534Y-122107630D01*
X173311981Y-122106652D01*
X173332165Y-122062457D01*
X173332851Y-122057681D01*
X173339405Y-122032001D01*
X173341091Y-122027483D01*
X173344633Y-121977951D01*
X173345580Y-121969147D01*
X173345753Y-121967948D01*
X173347500Y-121955799D01*
X173347500Y-121942304D01*
X173347816Y-121933461D01*
X173350530Y-121895514D01*
X173351359Y-121883927D01*
X173350334Y-121879215D01*
X173347500Y-121852857D01*
X173347500Y-121851266D01*
X173367185Y-121784227D01*
X173368397Y-121782377D01*
X173394508Y-121743297D01*
X173432966Y-121685740D01*
X173447500Y-121612674D01*
X173447500Y-118163326D01*
X173432966Y-118090260D01*
X173377601Y-118007399D01*
X173377600Y-118007398D01*
X173368396Y-117993623D01*
X173347519Y-117926945D01*
X173347499Y-117924837D01*
X173347499Y-116971674D01*
X173367184Y-116904636D01*
X173383813Y-116883999D01*
X174169430Y-116098382D01*
X174190069Y-116081751D01*
X174194128Y-116079143D01*
X174226654Y-116041603D01*
X174232658Y-116035155D01*
X174242221Y-116025593D01*
X174250313Y-116014782D01*
X174255853Y-116007906D01*
X174288377Y-115970373D01*
X174290375Y-115965997D01*
X174303907Y-115943190D01*
X174303920Y-115943172D01*
X174306796Y-115939331D01*
X174324153Y-115892791D01*
X174327534Y-115884630D01*
X174331551Y-115875834D01*
X174348165Y-115839457D01*
X174348851Y-115834681D01*
X174355405Y-115809001D01*
X174357091Y-115804483D01*
X174360633Y-115754951D01*
X174361580Y-115746147D01*
X174363061Y-115735853D01*
X174363500Y-115732799D01*
X174363500Y-115719308D01*
X174363816Y-115710461D01*
X174364824Y-115696366D01*
X174367359Y-115660927D01*
X174366334Y-115656215D01*
X174363500Y-115629857D01*
X174363500Y-107001139D01*
X174366334Y-106974779D01*
X174367358Y-106970071D01*
X174363816Y-106920547D01*
X174363500Y-106911701D01*
X174363500Y-106898201D01*
X174361579Y-106884844D01*
X174360632Y-106876037D01*
X174355819Y-106808732D01*
X174356140Y-106808708D01*
X174352506Y-106757901D01*
X174355012Y-106748262D01*
X174366816Y-106709349D01*
X174390300Y-106631934D01*
X174410583Y-106426000D01*
X174390300Y-106220066D01*
X174330232Y-106022046D01*
X174232685Y-105839550D01*
X174155590Y-105745609D01*
X174101410Y-105679589D01*
X173999973Y-105596343D01*
X173941450Y-105548315D01*
X173758954Y-105450768D01*
X173648343Y-105417215D01*
X173560932Y-105390699D01*
X173355000Y-105370417D01*
X173149067Y-105390699D01*
X172951043Y-105450769D01*
X172768551Y-105548314D01*
X172608589Y-105679589D01*
X172477314Y-105839551D01*
X172379767Y-106022046D01*
X172353347Y-106109143D01*
X172315050Y-106167581D01*
X172251237Y-106196038D01*
X172182170Y-106185477D01*
X172129777Y-106139252D01*
X172114912Y-106105240D01*
X172081266Y-105979674D01*
X171985133Y-105773515D01*
X171934025Y-105700526D01*
X171252953Y-106381598D01*
X171240165Y-106300852D01*
X171182641Y-106187955D01*
X171093045Y-106098359D01*
X170980148Y-106040835D01*
X170899400Y-106028046D01*
X171580472Y-105346974D01*
X171580471Y-105346972D01*
X171507484Y-105295866D01*
X171301326Y-105199733D01*
X171081602Y-105140858D01*
X170854999Y-105121033D01*
X170628397Y-105140858D01*
X170408672Y-105199733D01*
X170202516Y-105295865D01*
X170129527Y-105346973D01*
X170129526Y-105346973D01*
X170810600Y-106028046D01*
X170729852Y-106040835D01*
X170616955Y-106098359D01*
X170527359Y-106187955D01*
X170469835Y-106300852D01*
X170457046Y-106381599D01*
X169775973Y-105700526D01*
X169775973Y-105700527D01*
X169724865Y-105773516D01*
X169628733Y-105979672D01*
X169569858Y-106199397D01*
X169552079Y-106402618D01*
X169526627Y-106467687D01*
X169470036Y-106508666D01*
X169400274Y-106512544D01*
X169370925Y-106501607D01*
X169269366Y-106448303D01*
X169115985Y-106410500D01*
X168958015Y-106410500D01*
X168804635Y-106448303D01*
X168664761Y-106521716D01*
X168546515Y-106626471D01*
X168456780Y-106756476D01*
X168400763Y-106904181D01*
X168381721Y-107061000D01*
X168400763Y-107217818D01*
X168456780Y-107365523D01*
X168546515Y-107495528D01*
X168546516Y-107495529D01*
X168546517Y-107495530D01*
X168619727Y-107560387D01*
X168656853Y-107619574D01*
X168661500Y-107653202D01*
X168661500Y-107677486D01*
X168641815Y-107744525D01*
X168606390Y-107780589D01*
X168589261Y-107792033D01*
X168589260Y-107792034D01*
X168549236Y-107818777D01*
X168506398Y-107847400D01*
X168505102Y-107849340D01*
X168451490Y-107894145D01*
X168382165Y-107902852D01*
X168319137Y-107872697D01*
X168298898Y-107849340D01*
X168297602Y-107847401D01*
X168297601Y-107847399D01*
X168214740Y-107792034D01*
X168214739Y-107792033D01*
X168214738Y-107792033D01*
X168141675Y-107777500D01*
X168141674Y-107777500D01*
X167392326Y-107777500D01*
X167392325Y-107777500D01*
X167319261Y-107792033D01*
X167236396Y-107847401D01*
X167235099Y-107849343D01*
X167181485Y-107894146D01*
X167112160Y-107902852D01*
X167049134Y-107872695D01*
X167028898Y-107849340D01*
X167027601Y-107847399D01*
X166944740Y-107792034D01*
X166944738Y-107792033D01*
X166927610Y-107780589D01*
X166882805Y-107726977D01*
X166872500Y-107677486D01*
X166872500Y-107653202D01*
X166892185Y-107586163D01*
X166914269Y-107560390D01*
X166987483Y-107495530D01*
X167077220Y-107365523D01*
X167133237Y-107217818D01*
X167152278Y-107061000D01*
X167133237Y-106904182D01*
X167077220Y-106756477D01*
X166987483Y-106626470D01*
X166869240Y-106521717D01*
X166830520Y-106501395D01*
X166729364Y-106448303D01*
X166575985Y-106410500D01*
X166418015Y-106410500D01*
X166264635Y-106448303D01*
X166124761Y-106521716D01*
X166006515Y-106626471D01*
X165916780Y-106756476D01*
X165860763Y-106904181D01*
X165841721Y-107061000D01*
X165860763Y-107217818D01*
X165916780Y-107365523D01*
X166006515Y-107495528D01*
X166006516Y-107495529D01*
X166006517Y-107495530D01*
X166079727Y-107560387D01*
X166116853Y-107619574D01*
X166121500Y-107653202D01*
X166121500Y-107677486D01*
X166101815Y-107744525D01*
X166066390Y-107780589D01*
X166049261Y-107792033D01*
X166049260Y-107792034D01*
X166009236Y-107818777D01*
X165966398Y-107847400D01*
X165965102Y-107849340D01*
X165911490Y-107894145D01*
X165842165Y-107902852D01*
X165779137Y-107872697D01*
X165758898Y-107849340D01*
X165757602Y-107847401D01*
X165757601Y-107847399D01*
X165674740Y-107792034D01*
X165674739Y-107792033D01*
X165674738Y-107792033D01*
X165601675Y-107777500D01*
X165601674Y-107777500D01*
X164852326Y-107777500D01*
X164852325Y-107777500D01*
X164779261Y-107792033D01*
X164696396Y-107847401D01*
X164695099Y-107849343D01*
X164641485Y-107894146D01*
X164572160Y-107902852D01*
X164509134Y-107872695D01*
X164488898Y-107849340D01*
X164487601Y-107847399D01*
X164404740Y-107792034D01*
X164404739Y-107792033D01*
X164404738Y-107792033D01*
X164331675Y-107777500D01*
X164331674Y-107777500D01*
X163582326Y-107777500D01*
X163582325Y-107777500D01*
X163509261Y-107792033D01*
X163426398Y-107847400D01*
X163425102Y-107849340D01*
X163371490Y-107894145D01*
X163302165Y-107902852D01*
X163239137Y-107872697D01*
X163218898Y-107849340D01*
X163217602Y-107847401D01*
X163217601Y-107847399D01*
X163134740Y-107792034D01*
X163134739Y-107792033D01*
X163134738Y-107792033D01*
X163061675Y-107777500D01*
X163061674Y-107777500D01*
X162312326Y-107777500D01*
X162312325Y-107777500D01*
X162239261Y-107792033D01*
X162156398Y-107847400D01*
X162155102Y-107849340D01*
X162101490Y-107894145D01*
X162032165Y-107902852D01*
X161969137Y-107872697D01*
X161948898Y-107849340D01*
X161947602Y-107847401D01*
X161947601Y-107847399D01*
X161864740Y-107792034D01*
X161864739Y-107792033D01*
X161864738Y-107792033D01*
X161791675Y-107777500D01*
X161791674Y-107777500D01*
X161042326Y-107777500D01*
X161042325Y-107777500D01*
X160969261Y-107792033D01*
X160886398Y-107847400D01*
X160885102Y-107849340D01*
X160831490Y-107894145D01*
X160762165Y-107902852D01*
X160699137Y-107872697D01*
X160678898Y-107849340D01*
X160677602Y-107847401D01*
X160677601Y-107847399D01*
X160594740Y-107792034D01*
X160594739Y-107792033D01*
X160594738Y-107792033D01*
X160521675Y-107777500D01*
X160521674Y-107777500D01*
X159772326Y-107777500D01*
X159772325Y-107777500D01*
X159699261Y-107792033D01*
X159616398Y-107847400D01*
X159615102Y-107849340D01*
X159561490Y-107894145D01*
X159492165Y-107902852D01*
X159429137Y-107872697D01*
X159408898Y-107849340D01*
X159407602Y-107847401D01*
X159407601Y-107847399D01*
X159324740Y-107792034D01*
X159324739Y-107792033D01*
X159324738Y-107792033D01*
X159251675Y-107777500D01*
X159251674Y-107777500D01*
X158502326Y-107777500D01*
X158502325Y-107777500D01*
X158429261Y-107792033D01*
X158346396Y-107847401D01*
X158345099Y-107849343D01*
X158291485Y-107894146D01*
X158222160Y-107902852D01*
X158159134Y-107872695D01*
X158138898Y-107849340D01*
X158137601Y-107847399D01*
X158054740Y-107792034D01*
X158054739Y-107792033D01*
X158054738Y-107792033D01*
X157981675Y-107777500D01*
X157981674Y-107777500D01*
X157232326Y-107777500D01*
X157232325Y-107777500D01*
X157159261Y-107792033D01*
X157076398Y-107847400D01*
X157075102Y-107849340D01*
X157021490Y-107894145D01*
X156952165Y-107902852D01*
X156889137Y-107872697D01*
X156868898Y-107849340D01*
X156867602Y-107847401D01*
X156867601Y-107847399D01*
X156784740Y-107792034D01*
X156784739Y-107792033D01*
X156784738Y-107792033D01*
X156711675Y-107777500D01*
X156711674Y-107777500D01*
X155962326Y-107777500D01*
X155944721Y-107781002D01*
X155875130Y-107774773D01*
X155821264Y-107733695D01*
X155774189Y-107670811D01*
X155659089Y-107584647D01*
X155524371Y-107534400D01*
X155468132Y-107528354D01*
X155461518Y-107528000D01*
X154672482Y-107528000D01*
X154665867Y-107528354D01*
X154609628Y-107534400D01*
X154474910Y-107584647D01*
X154359810Y-107670811D01*
X154312736Y-107733695D01*
X154256802Y-107775566D01*
X154189279Y-107781002D01*
X154171674Y-107777500D01*
X153422326Y-107777500D01*
X153422325Y-107777500D01*
X153349261Y-107792033D01*
X153266398Y-107847400D01*
X153265102Y-107849340D01*
X153211490Y-107894145D01*
X153142165Y-107902852D01*
X153079137Y-107872697D01*
X153058898Y-107849340D01*
X153057602Y-107847401D01*
X153057601Y-107847399D01*
X152974740Y-107792034D01*
X152974739Y-107792033D01*
X152974738Y-107792033D01*
X152901675Y-107777500D01*
X152901674Y-107777500D01*
X152152326Y-107777500D01*
X152152325Y-107777500D01*
X152079261Y-107792033D01*
X151996398Y-107847400D01*
X151995102Y-107849340D01*
X151941490Y-107894145D01*
X151872165Y-107902852D01*
X151809137Y-107872697D01*
X151788898Y-107849340D01*
X151787602Y-107847401D01*
X151787601Y-107847399D01*
X151704740Y-107792034D01*
X151704739Y-107792033D01*
X151704738Y-107792033D01*
X151631675Y-107777500D01*
X151631674Y-107777500D01*
X150882326Y-107777500D01*
X150882325Y-107777500D01*
X150809261Y-107792033D01*
X150726398Y-107847400D01*
X150725102Y-107849340D01*
X150671490Y-107894145D01*
X150602165Y-107902852D01*
X150539137Y-107872697D01*
X150518898Y-107849340D01*
X150517602Y-107847401D01*
X150517601Y-107847399D01*
X150434740Y-107792034D01*
X150434739Y-107792033D01*
X150434738Y-107792033D01*
X150361675Y-107777500D01*
X150361674Y-107777500D01*
X149612326Y-107777500D01*
X149594721Y-107781002D01*
X149525130Y-107774773D01*
X149471264Y-107733695D01*
X149424189Y-107670811D01*
X149309089Y-107584647D01*
X149174371Y-107534400D01*
X149118132Y-107528354D01*
X149111518Y-107528000D01*
X148322482Y-107528000D01*
X148315867Y-107528354D01*
X148259628Y-107534400D01*
X148124910Y-107584647D01*
X148009811Y-107670811D01*
X147923647Y-107785910D01*
X147873400Y-107920628D01*
X147867354Y-107976867D01*
X147867000Y-107983481D01*
X147867000Y-108524446D01*
X148717000Y-109374447D01*
X148982872Y-109640319D01*
X149016357Y-109701642D01*
X149011373Y-109771334D01*
X148982872Y-109815681D01*
X147849976Y-110948576D01*
X147788653Y-110982061D01*
X147718961Y-110977077D01*
X147674614Y-110948576D01*
X145957589Y-109231552D01*
X147867000Y-109231552D01*
X147867000Y-110224447D01*
X148363447Y-109728000D01*
X148363447Y-109727999D01*
X147867000Y-109231552D01*
X145957589Y-109231552D01*
X145318818Y-108592781D01*
X145285333Y-108531458D01*
X145282499Y-108505100D01*
X145282499Y-107584647D01*
X145282499Y-106604793D01*
X145285138Y-106579359D01*
X145287367Y-106568731D01*
X145283452Y-106537323D01*
X145282500Y-106521986D01*
X145282500Y-106521889D01*
X145282500Y-106521888D01*
X145282500Y-106521886D01*
X145279070Y-106501336D01*
X145278342Y-106496340D01*
X145271865Y-106444374D01*
X145271864Y-106444373D01*
X145270888Y-106436538D01*
X145270821Y-106436331D01*
X145242160Y-106383368D01*
X145239814Y-106378812D01*
X145213361Y-106324701D01*
X145213225Y-106324519D01*
X145187516Y-106300852D01*
X145168904Y-106283718D01*
X145165231Y-106280193D01*
X144701149Y-105816111D01*
X144685022Y-105796253D01*
X144679083Y-105787162D01*
X144654110Y-105767725D01*
X144642593Y-105757554D01*
X144642519Y-105757480D01*
X144625594Y-105745397D01*
X144621480Y-105742330D01*
X144619512Y-105740798D01*
X144580189Y-105710191D01*
X144580186Y-105710190D01*
X144573963Y-105705346D01*
X144573761Y-105705242D01*
X144566200Y-105702990D01*
X144566199Y-105702990D01*
X144516036Y-105688055D01*
X144511174Y-105686497D01*
X144499780Y-105682586D01*
X144454202Y-105666939D01*
X144453969Y-105666906D01*
X144414265Y-105668548D01*
X144393806Y-105669394D01*
X144388684Y-105669500D01*
X123622803Y-105669500D01*
X123597357Y-105666861D01*
X123586731Y-105664633D01*
X123555324Y-105668548D01*
X123539987Y-105669500D01*
X123539886Y-105669500D01*
X123519359Y-105672924D01*
X123514300Y-105673661D01*
X123454556Y-105681109D01*
X123454316Y-105681186D01*
X123401359Y-105709844D01*
X123396805Y-105712188D01*
X123342721Y-105738628D01*
X123342506Y-105738788D01*
X123301729Y-105783082D01*
X123298183Y-105786777D01*
X122961108Y-106123852D01*
X122941397Y-106139882D01*
X122940895Y-106140211D01*
X122874035Y-106160495D01*
X122872925Y-106160500D01*
X122777280Y-106160500D01*
X122773263Y-106161028D01*
X122773260Y-106161029D01*
X122664764Y-106175313D01*
X122524768Y-106233301D01*
X122404549Y-106325549D01*
X122312301Y-106445768D01*
X122256969Y-106579353D01*
X122254313Y-106585764D01*
X122239500Y-106698280D01*
X122239500Y-107423720D01*
X122240028Y-107427737D01*
X122240029Y-107427739D01*
X122256444Y-107552422D01*
X122254187Y-107552719D01*
X122259220Y-107599512D01*
X122227947Y-107661992D01*
X122167860Y-107697647D01*
X122137189Y-107701500D01*
X121717804Y-107701500D01*
X121692353Y-107698860D01*
X121678558Y-107695967D01*
X121616986Y-107662942D01*
X121583043Y-107601871D01*
X121586185Y-107552768D01*
X121583556Y-107552422D01*
X121585929Y-107534400D01*
X121600500Y-107423720D01*
X121600500Y-106698280D01*
X121585687Y-106585764D01*
X121527698Y-106445767D01*
X121435451Y-106325549D01*
X121315233Y-106233302D01*
X121175236Y-106175313D01*
X121116356Y-106167561D01*
X121066739Y-106161029D01*
X121066737Y-106161028D01*
X121062720Y-106160500D01*
X120237280Y-106160500D01*
X120233263Y-106161028D01*
X120233260Y-106161029D01*
X120124764Y-106175313D01*
X119984768Y-106233301D01*
X119864549Y-106325549D01*
X119772301Y-106445768D01*
X119716969Y-106579353D01*
X119714313Y-106585764D01*
X119699500Y-106698280D01*
X119699500Y-107423720D01*
X119714313Y-107536236D01*
X119772302Y-107676233D01*
X119864549Y-107796451D01*
X119984767Y-107888698D01*
X120124764Y-107946687D01*
X120237280Y-107961500D01*
X120241333Y-107961500D01*
X120951099Y-107961500D01*
X121018138Y-107981185D01*
X121063893Y-108033989D01*
X121073837Y-108103147D01*
X121044812Y-108166703D01*
X121038780Y-108173181D01*
X120548108Y-108663852D01*
X120528254Y-108679976D01*
X120519165Y-108685914D01*
X120499722Y-108710894D01*
X120489563Y-108722398D01*
X120489484Y-108722476D01*
X120489479Y-108722482D01*
X120489480Y-108722482D01*
X120477390Y-108739414D01*
X120474339Y-108743506D01*
X120455176Y-108768126D01*
X120398466Y-108808938D01*
X120328693Y-108812611D01*
X120268010Y-108777979D01*
X120263429Y-108772289D01*
X120260601Y-108770399D01*
X120177740Y-108715034D01*
X120177739Y-108715033D01*
X120177738Y-108715033D01*
X120104675Y-108700500D01*
X120104674Y-108700500D01*
X118655326Y-108700500D01*
X118655325Y-108700500D01*
X118582261Y-108715033D01*
X118499399Y-108770399D01*
X118444033Y-108853261D01*
X118429500Y-108926325D01*
X118429500Y-110275674D01*
X118444033Y-110348738D01*
X118444033Y-110348739D01*
X118444034Y-110348740D01*
X118499399Y-110431601D01*
X118582260Y-110486966D01*
X118618792Y-110494233D01*
X118655325Y-110501500D01*
X118655326Y-110501500D01*
X120104675Y-110501500D01*
X120129029Y-110496655D01*
X120177740Y-110486966D01*
X120214182Y-110462616D01*
X120280858Y-110441739D01*
X120348238Y-110460224D01*
X120394928Y-110512203D01*
X120406118Y-110550379D01*
X120413106Y-110606433D01*
X120413185Y-110606682D01*
X120441827Y-110659608D01*
X120444171Y-110664162D01*
X120470634Y-110718292D01*
X120470777Y-110718482D01*
X120476579Y-110723824D01*
X120476581Y-110723826D01*
X120515108Y-110759293D01*
X120518780Y-110762817D01*
X120860982Y-111105019D01*
X120894467Y-111166342D01*
X120889483Y-111236034D01*
X120847611Y-111291967D01*
X120782147Y-111316384D01*
X120773301Y-111316700D01*
X120237280Y-111316700D01*
X120233263Y-111317228D01*
X120233260Y-111317229D01*
X120124764Y-111331513D01*
X119984768Y-111389501D01*
X119864549Y-111481749D01*
X119772301Y-111601968D01*
X119714313Y-111741964D01*
X119705627Y-111807944D01*
X119699500Y-111854480D01*
X119699500Y-112579920D01*
X119700028Y-112583937D01*
X119700029Y-112583939D01*
X119705517Y-112625627D01*
X119714313Y-112692436D01*
X119724221Y-112716355D01*
X119771099Y-112829530D01*
X119772302Y-112832433D01*
X119864549Y-112952651D01*
X119984767Y-113044898D01*
X120124764Y-113102887D01*
X120237280Y-113117700D01*
X120241333Y-113117700D01*
X121001900Y-113117700D01*
X121068939Y-113137385D01*
X121114694Y-113190189D01*
X121124638Y-113259347D01*
X121095613Y-113322903D01*
X121089585Y-113329376D01*
X120759461Y-113659500D01*
X120460271Y-113958690D01*
X120398948Y-113992175D01*
X120329256Y-113987191D01*
X120273323Y-113945319D01*
X120269498Y-113939914D01*
X120260601Y-113926599D01*
X120177740Y-113871234D01*
X120177739Y-113871233D01*
X120177738Y-113871233D01*
X120104675Y-113856700D01*
X120104674Y-113856700D01*
X118655326Y-113856700D01*
X118655325Y-113856700D01*
X118582261Y-113871233D01*
X118499399Y-113926599D01*
X118444033Y-114009461D01*
X118429500Y-114082525D01*
X118429500Y-115431874D01*
X117094500Y-115431874D01*
X117094500Y-105796410D01*
X117094972Y-105785604D01*
X117098481Y-105745494D01*
X117111209Y-105616264D01*
X117114831Y-105596359D01*
X117132434Y-105530664D01*
X117133523Y-105526852D01*
X117161809Y-105433605D01*
X117168074Y-105417230D01*
X117199308Y-105350249D01*
X117202273Y-105344318D01*
X117245498Y-105263449D01*
X117253244Y-105250840D01*
X117296820Y-105188607D01*
X117302486Y-105181140D01*
X117359492Y-105111678D01*
X117367626Y-105102704D01*
X117421704Y-105048626D01*
X117430678Y-105040492D01*
X117500140Y-104983486D01*
X117507607Y-104977820D01*
X117569840Y-104934244D01*
X117582449Y-104926498D01*
X117663318Y-104883273D01*
X117669249Y-104880308D01*
X117736230Y-104849074D01*
X117752605Y-104842809D01*
X117845852Y-104814523D01*
X117849664Y-104813434D01*
X117915354Y-104795832D01*
X117935271Y-104792209D01*
X118064494Y-104779481D01*
X118104641Y-104775968D01*
X118115400Y-104775500D01*
X173984590Y-104775500D01*
X173995393Y-104775971D01*
G37*
G04 #@! TD.AperFunction*
M02*
