G04 #@! TF.GenerationSoftware,KiCad,Pcbnew,7.0.2-0*
G04 #@! TF.CreationDate,2023-06-03T15:31:31+02:00*
G04 #@! TF.ProjectId,MegaCD,4d656761-4344-42e6-9b69-6361645f7063,rev?*
G04 #@! TF.SameCoordinates,Original*
G04 #@! TF.FileFunction,Copper,L4,Bot*
G04 #@! TF.FilePolarity,Positive*
%FSLAX46Y46*%
G04 Gerber Fmt 4.6, Leading zero omitted, Abs format (unit mm)*
G04 Created by KiCad (PCBNEW 7.0.2-0) date 2023-06-03 15:31:31*
%MOMM*%
%LPD*%
G01*
G04 APERTURE LIST*
G04 Aperture macros list*
%AMRoundRect*
0 Rectangle with rounded corners*
0 $1 Rounding radius*
0 $2 $3 $4 $5 $6 $7 $8 $9 X,Y pos of 4 corners*
0 Add a 4 corners polygon primitive as box body*
4,1,4,$2,$3,$4,$5,$6,$7,$8,$9,$2,$3,0*
0 Add four circle primitives for the rounded corners*
1,1,$1+$1,$2,$3*
1,1,$1+$1,$4,$5*
1,1,$1+$1,$6,$7*
1,1,$1+$1,$8,$9*
0 Add four rect primitives between the rounded corners*
20,1,$1+$1,$2,$3,$4,$5,0*
20,1,$1+$1,$4,$5,$6,$7,0*
20,1,$1+$1,$6,$7,$8,$9,0*
20,1,$1+$1,$8,$9,$2,$3,0*%
G04 Aperture macros list end*
G04 #@! TA.AperFunction,ComponentPad*
%ADD10R,1.400000X1.300000*%
G04 #@! TD*
G04 #@! TA.AperFunction,ComponentPad*
%ADD11RoundRect,0.325000X0.375000X-0.325000X0.375000X0.325000X-0.375000X0.325000X-0.375000X-0.325000X0*%
G04 #@! TD*
G04 #@! TA.AperFunction,ComponentPad*
%ADD12C,1.600000*%
G04 #@! TD*
G04 #@! TA.AperFunction,SMDPad,CuDef*
%ADD13RoundRect,0.255319X-0.344681X0.394681X-0.344681X-0.394681X0.344681X-0.394681X0.344681X0.394681X0*%
G04 #@! TD*
G04 #@! TA.AperFunction,ViaPad*
%ADD14C,0.800000*%
G04 #@! TD*
G04 #@! TA.AperFunction,Conductor*
%ADD15C,0.500000*%
G04 #@! TD*
G04 #@! TA.AperFunction,Conductor*
%ADD16C,0.250000*%
G04 #@! TD*
G04 APERTURE END LIST*
D10*
X119380000Y-114757200D03*
D11*
X120650000Y-112217200D03*
X121920000Y-114757200D03*
X123190000Y-112217200D03*
X124460000Y-114757200D03*
X125730000Y-112217200D03*
X127000000Y-114757200D03*
X128270000Y-112217200D03*
X129540000Y-114757200D03*
X130810000Y-112217200D03*
X132080000Y-114757200D03*
X133350000Y-112217200D03*
X134620000Y-114757200D03*
X135890000Y-112217200D03*
X137160000Y-114757200D03*
X138430000Y-112217200D03*
X139700000Y-114757200D03*
X140970000Y-112217200D03*
X142240000Y-114757200D03*
X143510000Y-112217200D03*
D10*
X119380000Y-119888000D03*
D11*
X120650000Y-117348000D03*
X121920000Y-119888000D03*
X123190000Y-117348000D03*
X124460000Y-119888000D03*
X125730000Y-117348000D03*
X127000000Y-119888000D03*
X128270000Y-117348000D03*
X129540000Y-119888000D03*
X130810000Y-117348000D03*
X132080000Y-119888000D03*
X133350000Y-117348000D03*
X134620000Y-119888000D03*
X135890000Y-117348000D03*
X137160000Y-119888000D03*
X138430000Y-117348000D03*
X139700000Y-119888000D03*
X140970000Y-117348000D03*
X142240000Y-119888000D03*
X143510000Y-117348000D03*
D10*
X119380000Y-109601000D03*
D11*
X120650000Y-107061000D03*
X121920000Y-109601000D03*
X123190000Y-107061000D03*
X124460000Y-109601000D03*
X125730000Y-107061000D03*
X127000000Y-109601000D03*
X128270000Y-107061000D03*
X129540000Y-109601000D03*
X130810000Y-107061000D03*
X132080000Y-109601000D03*
X133350000Y-107061000D03*
X134620000Y-109601000D03*
X135890000Y-107061000D03*
X137160000Y-109601000D03*
X138430000Y-107061000D03*
X139700000Y-109601000D03*
X140970000Y-107061000D03*
X142240000Y-109601000D03*
X143510000Y-107061000D03*
D10*
X148590000Y-128651000D03*
D11*
X149860000Y-126111000D03*
X151130000Y-128651000D03*
X152400000Y-126111000D03*
X153670000Y-128651000D03*
X154940000Y-126111000D03*
X156210000Y-128651000D03*
X157480000Y-126111000D03*
X158750000Y-128651000D03*
X160020000Y-126111000D03*
X161290000Y-128651000D03*
X162560000Y-126111000D03*
X163830000Y-128651000D03*
X165100000Y-126111000D03*
X166370000Y-128651000D03*
X167640000Y-126111000D03*
X168910000Y-128651000D03*
X170180000Y-126111000D03*
X171450000Y-128651000D03*
X172720000Y-126111000D03*
D12*
X160000000Y-106426000D03*
X157500000Y-106426000D03*
D13*
X148717000Y-120904000D03*
X148717000Y-123190000D03*
D14*
X172847000Y-114554000D03*
X155067000Y-106553000D03*
X148717000Y-106553000D03*
X146812000Y-121158000D03*
X147574000Y-117221000D03*
X156337000Y-117221000D03*
X151638000Y-122555000D03*
X151003000Y-123444000D03*
X121920000Y-111633000D03*
X152654000Y-112792500D03*
X146566250Y-117991250D03*
X160147000Y-117221000D03*
X158877000Y-122555000D03*
X157607000Y-122480207D03*
X165227000Y-112395000D03*
X166497000Y-107061000D03*
X167767000Y-112395000D03*
X169037000Y-107061000D03*
X170307000Y-112395000D03*
X171577000Y-112395000D03*
X163957000Y-112395000D03*
X163957000Y-115697000D03*
D15*
X174371000Y-129540000D02*
X173609000Y-130302000D01*
X173609000Y-130302000D02*
X154051000Y-130302000D01*
X148717000Y-124587000D02*
X148717000Y-123444000D01*
X154051000Y-130302000D02*
X153670000Y-129921000D01*
X153670000Y-129921000D02*
X153289000Y-130302000D01*
X146812000Y-126492000D02*
X148717000Y-124587000D01*
X153289000Y-130302000D02*
X147193000Y-130302000D01*
X148717000Y-106553000D02*
X155067000Y-106553000D01*
D16*
X156484000Y-105537000D02*
X157500000Y-106553000D01*
X155067000Y-105664000D02*
X155194000Y-105537000D01*
D15*
X174371000Y-116078000D02*
X174371000Y-129540000D01*
X153670000Y-128651000D02*
X153670000Y-129921000D01*
D16*
X155067000Y-106553000D02*
X155067000Y-105664000D01*
X155194000Y-105537000D02*
X156484000Y-105537000D01*
D15*
X172847000Y-114554000D02*
X174371000Y-116078000D01*
X147193000Y-130302000D02*
X146812000Y-129921000D01*
X146812000Y-129921000D02*
X146812000Y-126492000D01*
X147066000Y-120904000D02*
X148717000Y-120904000D01*
X146812000Y-121158000D02*
X147066000Y-120904000D01*
D16*
X148209000Y-117856000D02*
X155702000Y-117856000D01*
X147574000Y-117221000D02*
X148209000Y-117856000D01*
X155702000Y-117856000D02*
X156337000Y-117221000D01*
X152019000Y-122936000D02*
X153797000Y-122936000D01*
X156210000Y-125349000D02*
X156210000Y-128651000D01*
X153797000Y-122936000D02*
X156210000Y-125349000D01*
X151638000Y-122555000D02*
X152019000Y-122936000D01*
X153543000Y-123444000D02*
X154940000Y-124841000D01*
X151003000Y-123444000D02*
X153543000Y-123444000D01*
X154940000Y-124841000D02*
X154940000Y-126111000D01*
X121920000Y-111633000D02*
X121920000Y-112776000D01*
X121920000Y-112776000D02*
X123317000Y-114173000D01*
X123571000Y-115697000D02*
X149749500Y-115697000D01*
X123317000Y-115443000D02*
X123571000Y-115697000D01*
X149749500Y-115697000D02*
X152654000Y-112792500D01*
X123317000Y-114173000D02*
X123317000Y-115443000D01*
X159004000Y-118364000D02*
X160147000Y-117221000D01*
X146566250Y-117991250D02*
X146939000Y-118364000D01*
X146939000Y-118364000D02*
X159004000Y-118364000D01*
X123444000Y-118364000D02*
X143764000Y-118364000D01*
X144272000Y-118872000D02*
X155194000Y-118872000D01*
X155194000Y-118872000D02*
X158877000Y-122555000D01*
X143764000Y-118364000D02*
X144272000Y-118872000D01*
X121920000Y-119888000D02*
X123444000Y-118364000D01*
X144018000Y-119380000D02*
X143510000Y-118872000D01*
X157607000Y-122047000D02*
X154940000Y-119380000D01*
X128016000Y-118872000D02*
X127000000Y-119888000D01*
X157607000Y-122480207D02*
X157607000Y-122047000D01*
X154940000Y-119380000D02*
X144018000Y-119380000D01*
X143510000Y-118872000D02*
X128016000Y-118872000D01*
X145034000Y-111125000D02*
X138049000Y-111125000D01*
X137541000Y-110617000D02*
X136398000Y-110617000D01*
X164465000Y-113157000D02*
X163576000Y-113157000D01*
X145415000Y-111506000D02*
X145034000Y-111125000D01*
X163576000Y-113157000D02*
X161925000Y-111506000D01*
X138049000Y-111125000D02*
X137541000Y-110617000D01*
X135502001Y-108585000D02*
X120396000Y-108585000D01*
X161925000Y-111506000D02*
X145415000Y-111506000D01*
X135890000Y-110109000D02*
X135890000Y-108972999D01*
X136398000Y-110617000D02*
X135890000Y-110109000D01*
X165227000Y-112395000D02*
X164465000Y-113157000D01*
X120396000Y-108585000D02*
X119380000Y-109601000D01*
X135890000Y-108972999D02*
X135502001Y-108585000D01*
X165227000Y-107061000D02*
X163322000Y-108966000D01*
X166497000Y-107061000D02*
X165227000Y-107061000D01*
X146685000Y-108966000D02*
X144780000Y-107061000D01*
X163322000Y-108966000D02*
X146685000Y-108966000D01*
X144780000Y-107061000D02*
X143510000Y-107061000D01*
X145923000Y-110490000D02*
X145034000Y-109601000D01*
X167767000Y-111252000D02*
X167005000Y-110490000D01*
X167767000Y-112395000D02*
X167767000Y-111252000D01*
X167005000Y-110490000D02*
X145923000Y-110490000D01*
X145034000Y-109601000D02*
X142240000Y-109601000D01*
X165100000Y-106299000D02*
X168275000Y-106299000D01*
X146939000Y-108458000D02*
X162941000Y-108458000D01*
X168275000Y-106299000D02*
X169037000Y-107061000D01*
X140970000Y-107061000D02*
X141986000Y-106045000D01*
X144526000Y-106045000D02*
X146939000Y-108458000D01*
X162941000Y-108458000D02*
X165100000Y-106299000D01*
X141986000Y-106045000D02*
X144526000Y-106045000D01*
X169545000Y-109982000D02*
X146177000Y-109982000D01*
X170307000Y-112395000D02*
X170307000Y-110744000D01*
X144780000Y-108585000D02*
X140716000Y-108585000D01*
X146177000Y-109982000D02*
X144780000Y-108585000D01*
X170307000Y-110744000D02*
X169545000Y-109982000D01*
X140716000Y-108585000D02*
X139700000Y-109601000D01*
X171577000Y-112395000D02*
X170815000Y-111633000D01*
X146431000Y-109474000D02*
X145034000Y-108077000D01*
X139446000Y-108077000D02*
X138430000Y-107061000D01*
X169799000Y-109474000D02*
X146431000Y-109474000D01*
X145034000Y-108077000D02*
X139446000Y-108077000D01*
X170815000Y-110490000D02*
X169799000Y-109474000D01*
X170815000Y-111633000D02*
X170815000Y-110490000D01*
X163449000Y-112395000D02*
X162052000Y-110998000D01*
X138938000Y-110617000D02*
X138430000Y-110109000D01*
X138430000Y-108718999D02*
X137788001Y-108077000D01*
X138430000Y-110109000D02*
X138430000Y-108718999D01*
X162052000Y-110998000D02*
X145669000Y-110998000D01*
X145669000Y-110998000D02*
X145288000Y-110617000D01*
X163957000Y-112395000D02*
X163449000Y-112395000D01*
X145288000Y-110617000D02*
X138938000Y-110617000D01*
X137788001Y-108077000D02*
X121666000Y-108077000D01*
X121666000Y-108077000D02*
X120650000Y-107061000D01*
X160528000Y-115316000D02*
X163576000Y-115316000D01*
X137541000Y-113157000D02*
X144272000Y-113157000D01*
X144272000Y-113157000D02*
X145415000Y-112014000D01*
X136652000Y-111252000D02*
X137160000Y-111760000D01*
X163576000Y-115316000D02*
X163957000Y-115697000D01*
X128270000Y-112217200D02*
X129235200Y-111252000D01*
X137160000Y-111760000D02*
X137160000Y-112776000D01*
X145415000Y-112014000D02*
X157226000Y-112014000D01*
X137160000Y-112776000D02*
X137541000Y-113157000D01*
X157226000Y-112014000D02*
X160528000Y-115316000D01*
X129235200Y-111252000D02*
X136652000Y-111252000D01*
G04 #@! TA.AperFunction,Conductor*
G36*
X173995393Y-104775971D02*
G01*
X174035477Y-104779478D01*
X174164732Y-104792209D01*
X174184644Y-104795832D01*
X174250302Y-104813425D01*
X174254179Y-104814532D01*
X174347384Y-104842806D01*
X174363778Y-104849079D01*
X174430720Y-104880294D01*
X174436710Y-104883288D01*
X174517535Y-104926490D01*
X174530173Y-104934254D01*
X174592366Y-104977802D01*
X174599886Y-104983508D01*
X174669299Y-105040474D01*
X174678315Y-105048646D01*
X174732352Y-105102683D01*
X174740524Y-105111699D01*
X174797490Y-105181112D01*
X174803203Y-105188641D01*
X174846739Y-105250817D01*
X174854514Y-105263474D01*
X174897696Y-105344261D01*
X174900712Y-105350295D01*
X174931917Y-105417215D01*
X174938196Y-105433625D01*
X174966462Y-105526808D01*
X174967576Y-105530708D01*
X174985163Y-105596343D01*
X174988791Y-105616282D01*
X175001523Y-105745546D01*
X175005031Y-105785640D01*
X175005500Y-105796403D01*
X175005500Y-129788585D01*
X175005028Y-129799393D01*
X175001523Y-129839451D01*
X174988791Y-129968719D01*
X174985164Y-129988652D01*
X174967576Y-130054290D01*
X174966462Y-130058190D01*
X174938196Y-130151373D01*
X174931917Y-130167783D01*
X174900712Y-130234703D01*
X174897688Y-130240753D01*
X174854516Y-130321521D01*
X174846733Y-130334191D01*
X174803212Y-130396345D01*
X174797490Y-130403886D01*
X174740524Y-130473299D01*
X174732352Y-130482315D01*
X174678315Y-130536352D01*
X174669299Y-130544524D01*
X174599886Y-130601490D01*
X174592345Y-130607212D01*
X174530191Y-130650733D01*
X174517521Y-130658516D01*
X174436753Y-130701688D01*
X174430703Y-130704712D01*
X174363783Y-130735917D01*
X174347373Y-130742196D01*
X174254190Y-130770462D01*
X174250290Y-130771576D01*
X174184655Y-130789163D01*
X174164716Y-130792791D01*
X174035453Y-130805523D01*
X174026215Y-130806331D01*
X173995360Y-130809031D01*
X173984596Y-130809500D01*
X147325414Y-130809500D01*
X147314606Y-130809028D01*
X147274547Y-130805523D01*
X147145279Y-130792791D01*
X147125346Y-130789164D01*
X147059708Y-130771576D01*
X147055808Y-130770462D01*
X146962625Y-130742196D01*
X146946215Y-130735917D01*
X146879295Y-130704712D01*
X146873261Y-130701696D01*
X146792474Y-130658514D01*
X146779817Y-130650739D01*
X146717641Y-130607203D01*
X146710112Y-130601490D01*
X146640699Y-130544524D01*
X146631683Y-130536352D01*
X146577646Y-130482315D01*
X146569474Y-130473299D01*
X146512508Y-130403886D01*
X146506802Y-130396366D01*
X146463254Y-130334173D01*
X146455490Y-130321535D01*
X146412288Y-130240710D01*
X146409294Y-130234720D01*
X146378079Y-130167778D01*
X146371806Y-130151384D01*
X146343532Y-130058179D01*
X146342422Y-130054290D01*
X146324835Y-129988655D01*
X146324834Y-129988652D01*
X146324834Y-129988649D01*
X146321208Y-129968719D01*
X146308478Y-129839477D01*
X146304968Y-129799359D01*
X146304500Y-129788599D01*
X146304500Y-129325674D01*
X147639500Y-129325674D01*
X147654033Y-129398738D01*
X147654033Y-129398739D01*
X147654034Y-129398740D01*
X147709399Y-129481601D01*
X147792260Y-129536966D01*
X147828792Y-129544233D01*
X147865325Y-129551500D01*
X147865326Y-129551500D01*
X149314675Y-129551500D01*
X149339029Y-129546655D01*
X149387740Y-129536966D01*
X149470601Y-129481601D01*
X149525966Y-129398740D01*
X149540500Y-129325674D01*
X149540500Y-129013720D01*
X150179500Y-129013720D01*
X150180028Y-129017737D01*
X150180029Y-129017739D01*
X150194313Y-129126235D01*
X150250621Y-129262176D01*
X150252302Y-129266233D01*
X150344549Y-129386451D01*
X150464767Y-129478698D01*
X150604764Y-129536687D01*
X150717280Y-129551500D01*
X150721333Y-129551500D01*
X151538667Y-129551500D01*
X151542720Y-129551500D01*
X151655236Y-129536687D01*
X151795233Y-129478698D01*
X151915451Y-129386451D01*
X152007698Y-129266233D01*
X152065687Y-129126236D01*
X152076297Y-129045646D01*
X152470000Y-129045646D01*
X152470141Y-129049835D01*
X152472731Y-129088031D01*
X152516040Y-129262176D01*
X152595771Y-129422940D01*
X152708197Y-129562802D01*
X152848059Y-129675228D01*
X153008823Y-129754959D01*
X153182968Y-129798268D01*
X153221164Y-129800858D01*
X153225354Y-129801000D01*
X153420000Y-129801000D01*
X153420000Y-128966686D01*
X153431955Y-128978641D01*
X153544852Y-129036165D01*
X153638519Y-129051000D01*
X153701481Y-129051000D01*
X153795148Y-129036165D01*
X153908045Y-128978641D01*
X153920000Y-128966686D01*
X153920000Y-129801000D01*
X154114646Y-129801000D01*
X154118835Y-129800858D01*
X154157031Y-129798268D01*
X154331176Y-129754959D01*
X154491940Y-129675228D01*
X154631802Y-129562802D01*
X154744228Y-129422940D01*
X154823959Y-129262176D01*
X154867268Y-129088031D01*
X154869858Y-129049835D01*
X154870000Y-129045646D01*
X154870000Y-128901000D01*
X153985686Y-128901000D01*
X153997641Y-128889045D01*
X154055165Y-128776148D01*
X154074986Y-128651000D01*
X154055165Y-128525852D01*
X153997641Y-128412955D01*
X153985686Y-128401000D01*
X154870000Y-128401000D01*
X154870000Y-128256353D01*
X154869858Y-128252164D01*
X154867268Y-128213968D01*
X154823959Y-128039823D01*
X154744228Y-127879059D01*
X154631802Y-127739197D01*
X154491940Y-127626771D01*
X154331176Y-127547040D01*
X154157031Y-127503731D01*
X154118835Y-127501141D01*
X154114646Y-127501000D01*
X153920000Y-127501000D01*
X153920000Y-128335313D01*
X153908045Y-128323359D01*
X153795148Y-128265835D01*
X153701481Y-128251000D01*
X153638519Y-128251000D01*
X153544852Y-128265835D01*
X153431955Y-128323359D01*
X153420000Y-128335314D01*
X153420000Y-127501000D01*
X153225354Y-127501000D01*
X153221164Y-127501141D01*
X153182968Y-127503731D01*
X153008823Y-127547040D01*
X152848059Y-127626771D01*
X152708197Y-127739197D01*
X152595771Y-127879059D01*
X152516040Y-128039823D01*
X152472731Y-128213968D01*
X152470141Y-128252164D01*
X152470000Y-128256353D01*
X152470000Y-128401000D01*
X153354314Y-128401000D01*
X153342359Y-128412955D01*
X153284835Y-128525852D01*
X153265014Y-128651000D01*
X153284835Y-128776148D01*
X153342359Y-128889045D01*
X153354314Y-128901000D01*
X152470000Y-128901000D01*
X152470000Y-129045646D01*
X152076297Y-129045646D01*
X152080500Y-129013720D01*
X152080500Y-128288280D01*
X152065687Y-128175764D01*
X152007698Y-128035767D01*
X151915451Y-127915549D01*
X151795233Y-127823302D01*
X151655236Y-127765313D01*
X151596356Y-127757561D01*
X151546739Y-127751029D01*
X151546737Y-127751028D01*
X151542720Y-127750500D01*
X150717280Y-127750500D01*
X150713263Y-127751028D01*
X150713260Y-127751029D01*
X150604764Y-127765313D01*
X150464768Y-127823301D01*
X150344549Y-127915549D01*
X150252301Y-128035768D01*
X150194312Y-128175764D01*
X150194313Y-128175764D01*
X150179500Y-128288280D01*
X150179500Y-129013720D01*
X149540500Y-129013720D01*
X149540500Y-127976326D01*
X149525966Y-127903260D01*
X149470601Y-127820399D01*
X149387740Y-127765034D01*
X149387739Y-127765033D01*
X149387738Y-127765033D01*
X149314675Y-127750500D01*
X149314674Y-127750500D01*
X147865326Y-127750500D01*
X147865325Y-127750500D01*
X147792261Y-127765033D01*
X147709399Y-127820399D01*
X147654033Y-127903261D01*
X147639500Y-127976325D01*
X147639500Y-129325674D01*
X146304500Y-129325674D01*
X146304500Y-126473720D01*
X148909500Y-126473720D01*
X148924313Y-126586236D01*
X148982302Y-126726233D01*
X149074549Y-126846451D01*
X149194767Y-126938698D01*
X149334764Y-126996687D01*
X149447280Y-127011500D01*
X149451333Y-127011500D01*
X150268667Y-127011500D01*
X150272720Y-127011500D01*
X150385236Y-126996687D01*
X150525233Y-126938698D01*
X150645451Y-126846451D01*
X150737698Y-126726233D01*
X150795687Y-126586236D01*
X150810500Y-126473720D01*
X151449500Y-126473720D01*
X151464313Y-126586236D01*
X151522302Y-126726233D01*
X151614549Y-126846451D01*
X151734767Y-126938698D01*
X151874764Y-126996687D01*
X151987280Y-127011500D01*
X151991333Y-127011500D01*
X152808667Y-127011500D01*
X152812720Y-127011500D01*
X152925236Y-126996687D01*
X153065233Y-126938698D01*
X153185451Y-126846451D01*
X153277698Y-126726233D01*
X153335687Y-126586236D01*
X153350500Y-126473720D01*
X153350500Y-125748280D01*
X153335687Y-125635764D01*
X153277698Y-125495767D01*
X153185451Y-125375549D01*
X153065233Y-125283302D01*
X152925236Y-125225313D01*
X152866356Y-125217561D01*
X152816739Y-125211029D01*
X152816737Y-125211028D01*
X152812720Y-125210500D01*
X151987280Y-125210500D01*
X151983263Y-125211028D01*
X151983260Y-125211029D01*
X151874764Y-125225313D01*
X151734768Y-125283301D01*
X151614549Y-125375549D01*
X151522301Y-125495768D01*
X151518669Y-125504537D01*
X151464313Y-125635764D01*
X151449500Y-125748280D01*
X151449500Y-126473720D01*
X150810500Y-126473720D01*
X150810500Y-125748280D01*
X150795687Y-125635764D01*
X150737698Y-125495767D01*
X150645451Y-125375549D01*
X150525233Y-125283302D01*
X150385236Y-125225313D01*
X150326356Y-125217561D01*
X150276739Y-125211029D01*
X150276737Y-125211028D01*
X150272720Y-125210500D01*
X149447280Y-125210500D01*
X149443263Y-125211028D01*
X149443260Y-125211029D01*
X149334764Y-125225313D01*
X149194768Y-125283301D01*
X149074549Y-125375549D01*
X148982301Y-125495768D01*
X148978669Y-125504537D01*
X148924313Y-125635764D01*
X148909500Y-125748280D01*
X148909500Y-126473720D01*
X146304500Y-126473720D01*
X146304500Y-123440000D01*
X147617001Y-123440000D01*
X147617001Y-123631861D01*
X147617320Y-123638142D01*
X147627569Y-123738461D01*
X147683106Y-123906063D01*
X147775802Y-124056348D01*
X147900651Y-124181197D01*
X148050935Y-124273893D01*
X148218539Y-124329431D01*
X148318858Y-124339680D01*
X148325136Y-124339999D01*
X148466999Y-124339999D01*
X148467000Y-124339998D01*
X148467000Y-123440000D01*
X148967000Y-123440000D01*
X148967000Y-124339999D01*
X149108861Y-124339999D01*
X149115142Y-124339679D01*
X149215461Y-124329430D01*
X149383063Y-124273893D01*
X149533348Y-124181197D01*
X149658197Y-124056348D01*
X149750893Y-123906064D01*
X149806431Y-123738460D01*
X149816680Y-123638141D01*
X149817000Y-123631863D01*
X149817000Y-123443999D01*
X150347721Y-123443999D01*
X150366763Y-123600818D01*
X150422780Y-123748523D01*
X150512515Y-123878528D01*
X150512516Y-123878529D01*
X150512517Y-123878530D01*
X150630760Y-123983283D01*
X150770635Y-124056696D01*
X150924015Y-124094500D01*
X151081985Y-124094500D01*
X151235365Y-124056696D01*
X151375240Y-123983283D01*
X151493483Y-123878530D01*
X151497257Y-123873061D01*
X151551538Y-123829071D01*
X151599308Y-123819500D01*
X153336101Y-123819500D01*
X153403140Y-123839185D01*
X153423782Y-123855819D01*
X154528180Y-124960217D01*
X154561665Y-125021540D01*
X154564499Y-125047898D01*
X154564499Y-125096855D01*
X154544814Y-125163894D01*
X154492010Y-125209649D01*
X154456685Y-125219794D01*
X154414764Y-125225313D01*
X154274768Y-125283301D01*
X154154549Y-125375549D01*
X154062301Y-125495768D01*
X154058669Y-125504537D01*
X154004313Y-125635764D01*
X153989500Y-125748280D01*
X153989500Y-126473720D01*
X154004313Y-126586236D01*
X154062302Y-126726233D01*
X154154549Y-126846451D01*
X154274767Y-126938698D01*
X154414764Y-126996687D01*
X154527280Y-127011500D01*
X154531333Y-127011500D01*
X155348667Y-127011500D01*
X155352720Y-127011500D01*
X155465236Y-126996687D01*
X155605233Y-126938698D01*
X155635012Y-126915847D01*
X155700182Y-126890652D01*
X155768627Y-126904690D01*
X155818617Y-126953503D01*
X155834500Y-127014222D01*
X155834500Y-127636855D01*
X155814815Y-127703894D01*
X155762011Y-127749649D01*
X155726685Y-127759794D01*
X155684764Y-127765312D01*
X155544768Y-127823301D01*
X155424549Y-127915549D01*
X155332301Y-128035768D01*
X155274312Y-128175763D01*
X155274313Y-128175764D01*
X155259500Y-128288280D01*
X155259500Y-129013720D01*
X155260028Y-129017737D01*
X155260029Y-129017739D01*
X155274313Y-129126235D01*
X155330621Y-129262176D01*
X155332302Y-129266233D01*
X155424549Y-129386451D01*
X155544767Y-129478698D01*
X155684764Y-129536687D01*
X155797280Y-129551500D01*
X155801333Y-129551500D01*
X156618667Y-129551500D01*
X156622720Y-129551500D01*
X156735236Y-129536687D01*
X156875233Y-129478698D01*
X156995451Y-129386451D01*
X157087698Y-129266233D01*
X157145687Y-129126236D01*
X157160500Y-129013720D01*
X157799500Y-129013720D01*
X157800028Y-129017737D01*
X157800029Y-129017739D01*
X157814313Y-129126235D01*
X157870621Y-129262176D01*
X157872302Y-129266233D01*
X157964549Y-129386451D01*
X158084767Y-129478698D01*
X158224764Y-129536687D01*
X158337280Y-129551500D01*
X158341333Y-129551500D01*
X159158667Y-129551500D01*
X159162720Y-129551500D01*
X159275236Y-129536687D01*
X159415233Y-129478698D01*
X159535451Y-129386451D01*
X159627698Y-129266233D01*
X159685687Y-129126236D01*
X159700500Y-129013720D01*
X160339500Y-129013720D01*
X160340028Y-129017737D01*
X160340029Y-129017739D01*
X160354313Y-129126235D01*
X160410621Y-129262176D01*
X160412302Y-129266233D01*
X160504549Y-129386451D01*
X160624767Y-129478698D01*
X160764764Y-129536687D01*
X160877280Y-129551500D01*
X160881333Y-129551500D01*
X161698667Y-129551500D01*
X161702720Y-129551500D01*
X161815236Y-129536687D01*
X161955233Y-129478698D01*
X162075451Y-129386451D01*
X162167698Y-129266233D01*
X162225687Y-129126236D01*
X162240500Y-129013720D01*
X162879500Y-129013720D01*
X162880028Y-129017737D01*
X162880029Y-129017739D01*
X162894313Y-129126235D01*
X162950621Y-129262176D01*
X162952302Y-129266233D01*
X163044549Y-129386451D01*
X163164767Y-129478698D01*
X163304764Y-129536687D01*
X163417280Y-129551500D01*
X163421333Y-129551500D01*
X164238667Y-129551500D01*
X164242720Y-129551500D01*
X164355236Y-129536687D01*
X164495233Y-129478698D01*
X164615451Y-129386451D01*
X164707698Y-129266233D01*
X164765687Y-129126236D01*
X164780500Y-129013720D01*
X165419500Y-129013720D01*
X165420028Y-129017737D01*
X165420029Y-129017739D01*
X165434313Y-129126235D01*
X165490621Y-129262176D01*
X165492302Y-129266233D01*
X165584549Y-129386451D01*
X165704767Y-129478698D01*
X165844764Y-129536687D01*
X165957280Y-129551500D01*
X165961333Y-129551500D01*
X166778667Y-129551500D01*
X166782720Y-129551500D01*
X166895236Y-129536687D01*
X167035233Y-129478698D01*
X167155451Y-129386451D01*
X167247698Y-129266233D01*
X167305687Y-129126236D01*
X167320500Y-129013720D01*
X167959500Y-129013720D01*
X167960028Y-129017737D01*
X167960029Y-129017739D01*
X167974313Y-129126235D01*
X168030621Y-129262176D01*
X168032302Y-129266233D01*
X168124549Y-129386451D01*
X168244767Y-129478698D01*
X168384764Y-129536687D01*
X168497280Y-129551500D01*
X168501333Y-129551500D01*
X169318667Y-129551500D01*
X169322720Y-129551500D01*
X169435236Y-129536687D01*
X169575233Y-129478698D01*
X169695451Y-129386451D01*
X169787698Y-129266233D01*
X169845687Y-129126236D01*
X169860500Y-129013720D01*
X170499500Y-129013720D01*
X170500028Y-129017737D01*
X170500029Y-129017739D01*
X170514313Y-129126235D01*
X170570621Y-129262176D01*
X170572302Y-129266233D01*
X170664549Y-129386451D01*
X170784767Y-129478698D01*
X170924764Y-129536687D01*
X171037280Y-129551500D01*
X171041333Y-129551500D01*
X171858667Y-129551500D01*
X171862720Y-129551500D01*
X171975236Y-129536687D01*
X172115233Y-129478698D01*
X172235451Y-129386451D01*
X172327698Y-129266233D01*
X172385687Y-129126236D01*
X172400500Y-129013720D01*
X172400500Y-128288280D01*
X172385687Y-128175764D01*
X172327698Y-128035767D01*
X172235451Y-127915549D01*
X172115233Y-127823302D01*
X171975236Y-127765313D01*
X171916356Y-127757561D01*
X171866739Y-127751029D01*
X171866737Y-127751028D01*
X171862720Y-127750500D01*
X171037280Y-127750500D01*
X171033263Y-127751028D01*
X171033260Y-127751029D01*
X170924764Y-127765313D01*
X170784768Y-127823301D01*
X170664549Y-127915549D01*
X170572301Y-128035768D01*
X170514312Y-128175764D01*
X170514313Y-128175764D01*
X170499500Y-128288280D01*
X170499500Y-129013720D01*
X169860500Y-129013720D01*
X169860500Y-128288280D01*
X169845687Y-128175764D01*
X169787698Y-128035767D01*
X169695451Y-127915549D01*
X169575233Y-127823302D01*
X169435236Y-127765313D01*
X169376356Y-127757561D01*
X169326739Y-127751029D01*
X169326737Y-127751028D01*
X169322720Y-127750500D01*
X168497280Y-127750500D01*
X168493263Y-127751028D01*
X168493260Y-127751029D01*
X168384764Y-127765313D01*
X168244768Y-127823301D01*
X168124549Y-127915549D01*
X168032301Y-128035768D01*
X167974312Y-128175763D01*
X167974313Y-128175764D01*
X167959500Y-128288280D01*
X167959500Y-129013720D01*
X167320500Y-129013720D01*
X167320500Y-128288280D01*
X167305687Y-128175764D01*
X167247698Y-128035767D01*
X167155451Y-127915549D01*
X167035233Y-127823302D01*
X166895236Y-127765313D01*
X166836356Y-127757561D01*
X166786739Y-127751029D01*
X166786737Y-127751028D01*
X166782720Y-127750500D01*
X165957280Y-127750500D01*
X165953263Y-127751028D01*
X165953260Y-127751029D01*
X165844764Y-127765313D01*
X165704768Y-127823301D01*
X165584549Y-127915549D01*
X165492301Y-128035768D01*
X165434312Y-128175763D01*
X165434313Y-128175764D01*
X165419500Y-128288280D01*
X165419500Y-129013720D01*
X164780500Y-129013720D01*
X164780500Y-128288280D01*
X164765687Y-128175764D01*
X164707698Y-128035767D01*
X164615451Y-127915549D01*
X164495233Y-127823302D01*
X164355236Y-127765313D01*
X164296356Y-127757561D01*
X164246739Y-127751029D01*
X164246737Y-127751028D01*
X164242720Y-127750500D01*
X163417280Y-127750500D01*
X163413263Y-127751028D01*
X163413260Y-127751029D01*
X163304764Y-127765313D01*
X163164768Y-127823301D01*
X163044549Y-127915549D01*
X162952301Y-128035768D01*
X162894312Y-128175764D01*
X162894313Y-128175764D01*
X162879500Y-128288280D01*
X162879500Y-129013720D01*
X162240500Y-129013720D01*
X162240500Y-128288280D01*
X162225687Y-128175764D01*
X162167698Y-128035767D01*
X162075451Y-127915549D01*
X161955233Y-127823302D01*
X161815236Y-127765313D01*
X161756356Y-127757561D01*
X161706739Y-127751029D01*
X161706737Y-127751028D01*
X161702720Y-127750500D01*
X160877280Y-127750500D01*
X160873263Y-127751028D01*
X160873260Y-127751029D01*
X160764764Y-127765313D01*
X160624768Y-127823301D01*
X160504549Y-127915549D01*
X160412301Y-128035768D01*
X160354312Y-128175764D01*
X160354313Y-128175764D01*
X160339500Y-128288280D01*
X160339500Y-129013720D01*
X159700500Y-129013720D01*
X159700500Y-128288280D01*
X159685687Y-128175764D01*
X159627698Y-128035767D01*
X159535451Y-127915549D01*
X159415233Y-127823302D01*
X159275236Y-127765313D01*
X159216356Y-127757561D01*
X159166739Y-127751029D01*
X159166737Y-127751028D01*
X159162720Y-127750500D01*
X158337280Y-127750500D01*
X158333263Y-127751028D01*
X158333260Y-127751029D01*
X158224764Y-127765313D01*
X158084768Y-127823301D01*
X157964549Y-127915549D01*
X157872301Y-128035768D01*
X157814312Y-128175763D01*
X157814313Y-128175764D01*
X157799500Y-128288280D01*
X157799500Y-129013720D01*
X157160500Y-129013720D01*
X157160500Y-128288280D01*
X157145687Y-128175764D01*
X157087698Y-128035767D01*
X156995451Y-127915549D01*
X156875233Y-127823302D01*
X156868225Y-127820399D01*
X156735235Y-127765312D01*
X156693315Y-127759794D01*
X156629418Y-127731528D01*
X156590947Y-127673203D01*
X156585500Y-127636855D01*
X156585500Y-127014222D01*
X156605185Y-126947183D01*
X156657989Y-126901428D01*
X156727147Y-126891484D01*
X156784987Y-126915847D01*
X156814767Y-126938698D01*
X156954764Y-126996687D01*
X157067280Y-127011500D01*
X157071333Y-127011500D01*
X157888667Y-127011500D01*
X157892720Y-127011500D01*
X158005236Y-126996687D01*
X158145233Y-126938698D01*
X158265451Y-126846451D01*
X158357698Y-126726233D01*
X158415687Y-126586236D01*
X158430500Y-126473720D01*
X159069500Y-126473720D01*
X159084313Y-126586236D01*
X159142302Y-126726233D01*
X159234549Y-126846451D01*
X159354767Y-126938698D01*
X159494764Y-126996687D01*
X159607280Y-127011500D01*
X159611333Y-127011500D01*
X160428667Y-127011500D01*
X160432720Y-127011500D01*
X160545236Y-126996687D01*
X160685233Y-126938698D01*
X160805451Y-126846451D01*
X160897698Y-126726233D01*
X160955687Y-126586236D01*
X160970500Y-126473720D01*
X161609500Y-126473720D01*
X161624313Y-126586236D01*
X161682302Y-126726233D01*
X161774549Y-126846451D01*
X161894767Y-126938698D01*
X162034764Y-126996687D01*
X162147280Y-127011500D01*
X162151333Y-127011500D01*
X162968667Y-127011500D01*
X162972720Y-127011500D01*
X163085236Y-126996687D01*
X163225233Y-126938698D01*
X163345451Y-126846451D01*
X163437698Y-126726233D01*
X163495687Y-126586236D01*
X163510500Y-126473720D01*
X164149500Y-126473720D01*
X164164313Y-126586236D01*
X164222302Y-126726233D01*
X164314549Y-126846451D01*
X164434767Y-126938698D01*
X164574764Y-126996687D01*
X164687280Y-127011500D01*
X164691333Y-127011500D01*
X165508667Y-127011500D01*
X165512720Y-127011500D01*
X165625236Y-126996687D01*
X165765233Y-126938698D01*
X165885451Y-126846451D01*
X165977698Y-126726233D01*
X166035687Y-126586236D01*
X166050500Y-126473720D01*
X166689500Y-126473720D01*
X166704313Y-126586236D01*
X166762302Y-126726233D01*
X166854549Y-126846451D01*
X166974767Y-126938698D01*
X167114764Y-126996687D01*
X167227280Y-127011500D01*
X167231333Y-127011500D01*
X168048667Y-127011500D01*
X168052720Y-127011500D01*
X168165236Y-126996687D01*
X168305233Y-126938698D01*
X168425451Y-126846451D01*
X168517698Y-126726233D01*
X168575687Y-126586236D01*
X168590500Y-126473720D01*
X169229500Y-126473720D01*
X169244313Y-126586236D01*
X169302302Y-126726233D01*
X169394549Y-126846451D01*
X169514767Y-126938698D01*
X169654764Y-126996687D01*
X169767280Y-127011500D01*
X169771333Y-127011500D01*
X170588667Y-127011500D01*
X170592720Y-127011500D01*
X170705236Y-126996687D01*
X170845233Y-126938698D01*
X170965451Y-126846451D01*
X171057698Y-126726233D01*
X171115687Y-126586236D01*
X171130500Y-126473720D01*
X171769500Y-126473720D01*
X171784313Y-126586236D01*
X171842302Y-126726233D01*
X171934549Y-126846451D01*
X172054767Y-126938698D01*
X172194764Y-126996687D01*
X172307280Y-127011500D01*
X172311333Y-127011500D01*
X173128667Y-127011500D01*
X173132720Y-127011500D01*
X173245236Y-126996687D01*
X173385233Y-126938698D01*
X173505451Y-126846451D01*
X173597698Y-126726233D01*
X173655687Y-126586236D01*
X173670500Y-126473720D01*
X173670500Y-125748280D01*
X173655687Y-125635764D01*
X173597698Y-125495767D01*
X173505451Y-125375549D01*
X173385233Y-125283302D01*
X173245236Y-125225313D01*
X173186356Y-125217561D01*
X173136739Y-125211029D01*
X173136737Y-125211028D01*
X173132720Y-125210500D01*
X172307280Y-125210500D01*
X172303263Y-125211028D01*
X172303260Y-125211029D01*
X172194764Y-125225313D01*
X172054768Y-125283301D01*
X171934549Y-125375549D01*
X171842301Y-125495768D01*
X171838669Y-125504537D01*
X171784313Y-125635764D01*
X171769500Y-125748280D01*
X171769500Y-126473720D01*
X171130500Y-126473720D01*
X171130500Y-125748280D01*
X171115687Y-125635764D01*
X171057698Y-125495767D01*
X170965451Y-125375549D01*
X170845233Y-125283302D01*
X170705236Y-125225313D01*
X170646356Y-125217561D01*
X170596739Y-125211029D01*
X170596737Y-125211028D01*
X170592720Y-125210500D01*
X169767280Y-125210500D01*
X169763263Y-125211028D01*
X169763260Y-125211029D01*
X169654764Y-125225313D01*
X169514768Y-125283301D01*
X169394549Y-125375549D01*
X169302301Y-125495768D01*
X169298669Y-125504537D01*
X169244313Y-125635764D01*
X169229500Y-125748280D01*
X169229500Y-126473720D01*
X168590500Y-126473720D01*
X168590500Y-125748280D01*
X168575687Y-125635764D01*
X168517698Y-125495767D01*
X168425451Y-125375549D01*
X168305233Y-125283302D01*
X168165236Y-125225313D01*
X168106356Y-125217561D01*
X168056739Y-125211029D01*
X168056737Y-125211028D01*
X168052720Y-125210500D01*
X167227280Y-125210500D01*
X167223263Y-125211028D01*
X167223260Y-125211029D01*
X167114764Y-125225313D01*
X166974768Y-125283301D01*
X166854549Y-125375549D01*
X166762301Y-125495768D01*
X166758669Y-125504537D01*
X166704313Y-125635764D01*
X166689500Y-125748280D01*
X166689500Y-126473720D01*
X166050500Y-126473720D01*
X166050500Y-125748280D01*
X166035687Y-125635764D01*
X165977698Y-125495767D01*
X165885451Y-125375549D01*
X165765233Y-125283302D01*
X165625236Y-125225313D01*
X165566356Y-125217561D01*
X165516739Y-125211029D01*
X165516737Y-125211028D01*
X165512720Y-125210500D01*
X164687280Y-125210500D01*
X164683263Y-125211028D01*
X164683260Y-125211029D01*
X164574764Y-125225313D01*
X164434768Y-125283301D01*
X164314549Y-125375549D01*
X164222301Y-125495768D01*
X164218669Y-125504537D01*
X164164313Y-125635764D01*
X164149500Y-125748280D01*
X164149500Y-126473720D01*
X163510500Y-126473720D01*
X163510500Y-125748280D01*
X163495687Y-125635764D01*
X163437698Y-125495767D01*
X163345451Y-125375549D01*
X163225233Y-125283302D01*
X163085236Y-125225313D01*
X163026356Y-125217561D01*
X162976739Y-125211029D01*
X162976737Y-125211028D01*
X162972720Y-125210500D01*
X162147280Y-125210500D01*
X162143263Y-125211028D01*
X162143260Y-125211029D01*
X162034764Y-125225313D01*
X161894768Y-125283301D01*
X161774549Y-125375549D01*
X161682301Y-125495768D01*
X161678669Y-125504537D01*
X161624313Y-125635764D01*
X161609500Y-125748280D01*
X161609500Y-126473720D01*
X160970500Y-126473720D01*
X160970500Y-125748280D01*
X160955687Y-125635764D01*
X160897698Y-125495767D01*
X160805451Y-125375549D01*
X160685233Y-125283302D01*
X160545236Y-125225313D01*
X160486356Y-125217561D01*
X160436739Y-125211029D01*
X160436737Y-125211028D01*
X160432720Y-125210500D01*
X159607280Y-125210500D01*
X159603263Y-125211028D01*
X159603260Y-125211029D01*
X159494764Y-125225313D01*
X159354768Y-125283301D01*
X159234549Y-125375549D01*
X159142301Y-125495768D01*
X159138669Y-125504537D01*
X159084313Y-125635764D01*
X159069500Y-125748280D01*
X159069500Y-126473720D01*
X158430500Y-126473720D01*
X158430500Y-125748280D01*
X158415687Y-125635764D01*
X158357698Y-125495767D01*
X158265451Y-125375549D01*
X158145233Y-125283302D01*
X158005236Y-125225313D01*
X157946356Y-125217561D01*
X157896739Y-125211029D01*
X157896737Y-125211028D01*
X157892720Y-125210500D01*
X157067280Y-125210500D01*
X157063263Y-125211028D01*
X157063260Y-125211029D01*
X156954764Y-125225313D01*
X156814766Y-125283302D01*
X156772446Y-125315775D01*
X156707276Y-125340969D01*
X156638832Y-125326930D01*
X156588842Y-125278116D01*
X156579635Y-125250131D01*
X156579312Y-125249469D01*
X156575369Y-125237163D01*
X156573911Y-125232729D01*
X156573886Y-125232533D01*
X156573821Y-125232331D01*
X156545160Y-125179368D01*
X156542814Y-125174812D01*
X156516361Y-125120701D01*
X156516225Y-125120519D01*
X156490519Y-125096855D01*
X156471904Y-125079718D01*
X156468231Y-125076193D01*
X154099149Y-122707111D01*
X154083022Y-122687253D01*
X154077083Y-122678162D01*
X154052110Y-122658725D01*
X154040593Y-122648554D01*
X154040519Y-122648480D01*
X154023594Y-122636397D01*
X154019480Y-122633330D01*
X153978189Y-122601191D01*
X153978186Y-122601190D01*
X153971963Y-122596346D01*
X153971761Y-122596242D01*
X153964200Y-122593990D01*
X153964199Y-122593990D01*
X153914036Y-122579055D01*
X153909174Y-122577497D01*
X153897780Y-122573586D01*
X153852202Y-122557939D01*
X153851969Y-122557906D01*
X153806910Y-122559769D01*
X153791806Y-122560394D01*
X153786684Y-122560500D01*
X152403800Y-122560500D01*
X152336761Y-122540815D01*
X152291006Y-122488011D01*
X152280704Y-122451446D01*
X152274237Y-122398182D01*
X152218220Y-122250477D01*
X152173351Y-122185473D01*
X152128484Y-122120471D01*
X152116758Y-122110083D01*
X152010240Y-122015717D01*
X151940656Y-121979196D01*
X151870364Y-121942303D01*
X151716985Y-121904500D01*
X151559015Y-121904500D01*
X151405635Y-121942303D01*
X151265761Y-122015716D01*
X151147515Y-122120471D01*
X151057780Y-122250476D01*
X151001763Y-122398181D01*
X150982721Y-122555000D01*
X150995892Y-122663467D01*
X150984432Y-122732390D01*
X150937528Y-122784176D01*
X150902470Y-122798810D01*
X150770636Y-122831303D01*
X150630761Y-122904716D01*
X150512515Y-123009471D01*
X150422780Y-123139476D01*
X150366763Y-123287181D01*
X150347721Y-123443999D01*
X149817000Y-123443999D01*
X149817000Y-123440000D01*
X148967000Y-123440000D01*
X148467000Y-123440000D01*
X147617001Y-123440000D01*
X146304500Y-123440000D01*
X146304500Y-123130088D01*
X146309072Y-123114514D01*
X146305097Y-123074145D01*
X146304500Y-123061991D01*
X146304500Y-122974066D01*
X146292924Y-122908416D01*
X146294210Y-122896878D01*
X146288439Y-122877852D01*
X146284984Y-122863389D01*
X146273614Y-122798905D01*
X146250422Y-122735186D01*
X146244347Y-122718494D01*
X146243538Y-122705767D01*
X146235707Y-122691117D01*
X146228544Y-122675078D01*
X146212781Y-122631768D01*
X146212780Y-122631765D01*
X146162382Y-122544473D01*
X146158988Y-122530485D01*
X146149646Y-122519102D01*
X146138111Y-122502435D01*
X146129783Y-122488011D01*
X146123849Y-122477732D01*
X146123848Y-122477731D01*
X146121311Y-122473336D01*
X146111713Y-122459141D01*
X146110015Y-122455964D01*
X146091989Y-122439763D01*
X146050046Y-122389777D01*
X146043630Y-122375117D01*
X146033641Y-122366919D01*
X146017317Y-122350772D01*
X146016435Y-122349721D01*
X146009520Y-122341480D01*
X146000222Y-122333678D01*
X145984078Y-122317357D01*
X145980220Y-122312656D01*
X145961221Y-122300952D01*
X145911236Y-122259010D01*
X145901564Y-122244473D01*
X145891857Y-122239285D01*
X145877664Y-122229689D01*
X145848566Y-122212889D01*
X145831901Y-122201355D01*
X145825320Y-122195954D01*
X145806525Y-122188617D01*
X145719232Y-122138218D01*
X145675925Y-122122456D01*
X145659882Y-122115292D01*
X145650137Y-122110083D01*
X145632504Y-122106652D01*
X145584685Y-122089247D01*
X145552095Y-122077386D01*
X145525192Y-122072642D01*
X145487614Y-122066016D01*
X145473153Y-122062561D01*
X145459028Y-122058276D01*
X145442581Y-122058075D01*
X145376934Y-122046500D01*
X145376932Y-122046500D01*
X145289019Y-122046500D01*
X145276865Y-122045903D01*
X145243708Y-122042637D01*
X145220911Y-122046500D01*
X118115414Y-122046500D01*
X118104606Y-122046028D01*
X118064547Y-122042523D01*
X117935279Y-122029791D01*
X117915346Y-122026164D01*
X117849708Y-122008576D01*
X117845808Y-122007462D01*
X117752625Y-121979196D01*
X117736215Y-121972917D01*
X117669295Y-121941712D01*
X117663261Y-121938696D01*
X117582474Y-121895514D01*
X117569817Y-121887739D01*
X117507641Y-121844203D01*
X117500112Y-121838490D01*
X117430699Y-121781524D01*
X117421683Y-121773352D01*
X117367646Y-121719315D01*
X117359474Y-121710299D01*
X117302508Y-121640886D01*
X117296802Y-121633366D01*
X117253254Y-121571173D01*
X117245490Y-121558535D01*
X117202288Y-121477710D01*
X117199294Y-121471720D01*
X117168079Y-121404778D01*
X117161806Y-121388384D01*
X117133532Y-121295179D01*
X117132422Y-121291290D01*
X117114835Y-121225655D01*
X117111208Y-121205724D01*
X117106507Y-121158000D01*
X146156721Y-121158000D01*
X146175763Y-121314818D01*
X146231780Y-121462523D01*
X146321515Y-121592528D01*
X146321516Y-121592529D01*
X146321517Y-121592530D01*
X146439760Y-121697283D01*
X146579635Y-121770696D01*
X146733015Y-121808500D01*
X146890985Y-121808500D01*
X147044365Y-121770696D01*
X147184240Y-121697283D01*
X147302483Y-121592530D01*
X147376590Y-121485167D01*
X147395301Y-121458060D01*
X147449584Y-121414070D01*
X147497351Y-121404500D01*
X147785836Y-121404500D01*
X147852875Y-121424185D01*
X147898630Y-121476989D01*
X147902018Y-121485167D01*
X147923807Y-121543588D01*
X148010972Y-121660027D01*
X148078128Y-121710299D01*
X148127413Y-121747193D01*
X148263694Y-121798023D01*
X148270142Y-121798716D01*
X148334693Y-121825454D01*
X148374541Y-121882847D01*
X148377035Y-121952672D01*
X148341383Y-122012761D01*
X148278904Y-122044036D01*
X148269489Y-122045364D01*
X148218538Y-122050568D01*
X148050936Y-122106106D01*
X147900651Y-122198802D01*
X147775802Y-122323651D01*
X147683106Y-122473935D01*
X147627568Y-122641539D01*
X147617319Y-122741858D01*
X147617000Y-122748136D01*
X147617000Y-122940000D01*
X149816999Y-122940000D01*
X149816999Y-122748138D01*
X149816679Y-122741857D01*
X149806430Y-122641538D01*
X149750893Y-122473936D01*
X149658197Y-122323651D01*
X149533348Y-122198802D01*
X149383064Y-122106106D01*
X149215460Y-122050568D01*
X149164509Y-122045363D01*
X149099818Y-122018966D01*
X149059667Y-121961785D01*
X149056804Y-121891974D01*
X149092139Y-121831698D01*
X149154452Y-121800093D01*
X149163848Y-121798717D01*
X149170306Y-121798023D01*
X149306587Y-121747193D01*
X149423027Y-121660027D01*
X149510193Y-121543587D01*
X149561023Y-121407306D01*
X149567500Y-121347059D01*
X149567499Y-120460942D01*
X149561023Y-120400694D01*
X149510193Y-120264413D01*
X149510192Y-120264411D01*
X149423027Y-120147972D01*
X149306589Y-120060808D01*
X149306587Y-120060807D01*
X149170306Y-120009977D01*
X149154058Y-120008230D01*
X149113345Y-120003853D01*
X149113340Y-120003852D01*
X149110059Y-120003500D01*
X149106749Y-120003500D01*
X148327253Y-120003500D01*
X148327234Y-120003500D01*
X148323942Y-120003501D01*
X148320662Y-120003853D01*
X148320653Y-120003854D01*
X148263693Y-120009977D01*
X148127411Y-120060807D01*
X148010972Y-120147972D01*
X147923807Y-120264411D01*
X147902018Y-120322833D01*
X147860147Y-120378767D01*
X147794682Y-120403184D01*
X147785836Y-120403500D01*
X147133144Y-120403500D01*
X147106786Y-120400666D01*
X147102073Y-120399640D01*
X147052539Y-120403184D01*
X147043692Y-120403500D01*
X147030201Y-120403500D01*
X147016837Y-120405420D01*
X147008053Y-120406365D01*
X146958513Y-120409909D01*
X146953990Y-120411596D01*
X146928323Y-120418147D01*
X146923545Y-120418834D01*
X146878365Y-120439466D01*
X146870191Y-120442851D01*
X146823668Y-120460203D01*
X146819802Y-120463098D01*
X146797017Y-120476618D01*
X146792623Y-120478624D01*
X146792298Y-120478907D01*
X146740775Y-120505587D01*
X146579635Y-120545303D01*
X146439761Y-120618716D01*
X146321515Y-120723471D01*
X146231780Y-120853476D01*
X146175763Y-121001181D01*
X146156721Y-121158000D01*
X117106507Y-121158000D01*
X117098478Y-121076477D01*
X117094968Y-121036359D01*
X117094500Y-121025599D01*
X117094500Y-120562674D01*
X118429500Y-120562674D01*
X118444033Y-120635738D01*
X118444033Y-120635739D01*
X118444034Y-120635740D01*
X118499399Y-120718601D01*
X118582260Y-120773966D01*
X118618792Y-120781233D01*
X118655325Y-120788500D01*
X118655326Y-120788500D01*
X120104675Y-120788500D01*
X120129029Y-120783655D01*
X120177740Y-120773966D01*
X120260601Y-120718601D01*
X120315966Y-120635740D01*
X120330500Y-120562674D01*
X120330500Y-120250720D01*
X120969500Y-120250720D01*
X120984313Y-120363236D01*
X121006273Y-120416251D01*
X121040621Y-120499176D01*
X121042302Y-120503233D01*
X121134549Y-120623451D01*
X121254767Y-120715698D01*
X121394764Y-120773687D01*
X121507280Y-120788500D01*
X121511333Y-120788500D01*
X122328667Y-120788500D01*
X122332720Y-120788500D01*
X122445236Y-120773687D01*
X122585233Y-120715698D01*
X122705451Y-120623451D01*
X122797698Y-120503233D01*
X122855687Y-120363236D01*
X122870500Y-120250720D01*
X122870500Y-119525280D01*
X122870579Y-119527713D01*
X122885680Y-119460176D01*
X122906480Y-119432555D01*
X123070951Y-119268084D01*
X123132272Y-119234602D01*
X123201964Y-119239586D01*
X123257897Y-119281458D01*
X123282314Y-119346922D01*
X123278965Y-119385694D01*
X123262731Y-119450968D01*
X123260141Y-119489164D01*
X123260000Y-119493353D01*
X123259999Y-119638000D01*
X124144314Y-119638000D01*
X124132359Y-119649955D01*
X124074835Y-119762852D01*
X124055014Y-119888000D01*
X124074835Y-120013148D01*
X124132359Y-120126045D01*
X124144314Y-120138000D01*
X123260000Y-120138000D01*
X123260000Y-120282646D01*
X123260141Y-120286835D01*
X123262731Y-120325031D01*
X123306040Y-120499176D01*
X123385771Y-120659940D01*
X123498197Y-120799802D01*
X123638059Y-120912228D01*
X123798823Y-120991959D01*
X123972968Y-121035268D01*
X124011164Y-121037858D01*
X124015354Y-121038000D01*
X124210000Y-121038000D01*
X124210000Y-120203686D01*
X124221955Y-120215641D01*
X124334852Y-120273165D01*
X124428519Y-120288000D01*
X124491481Y-120288000D01*
X124585148Y-120273165D01*
X124698045Y-120215641D01*
X124710000Y-120203686D01*
X124710000Y-121038000D01*
X124904646Y-121038000D01*
X124908835Y-121037858D01*
X124947031Y-121035268D01*
X125121176Y-120991959D01*
X125281940Y-120912228D01*
X125421802Y-120799802D01*
X125534228Y-120659940D01*
X125613959Y-120499176D01*
X125657268Y-120325031D01*
X125659858Y-120286835D01*
X125660000Y-120282646D01*
X125660000Y-120138000D01*
X124775686Y-120138000D01*
X124787641Y-120126045D01*
X124845165Y-120013148D01*
X124864986Y-119888000D01*
X124845165Y-119762852D01*
X124787641Y-119649955D01*
X124775686Y-119638000D01*
X125659999Y-119638000D01*
X125660000Y-119493353D01*
X125659858Y-119489164D01*
X125657268Y-119450968D01*
X125613959Y-119276823D01*
X125534228Y-119116059D01*
X125421802Y-118976196D01*
X125401836Y-118960147D01*
X125361917Y-118902804D01*
X125359337Y-118832982D01*
X125394916Y-118772849D01*
X125457356Y-118741497D01*
X125479523Y-118739500D01*
X126587280Y-118739500D01*
X126654319Y-118759185D01*
X126700074Y-118811989D01*
X126710018Y-118881147D01*
X126680993Y-118944703D01*
X126622215Y-118982477D01*
X126595391Y-118987234D01*
X126591332Y-118987500D01*
X126587280Y-118987500D01*
X126583263Y-118988028D01*
X126583260Y-118988029D01*
X126474764Y-119002313D01*
X126334768Y-119060301D01*
X126214549Y-119152549D01*
X126122301Y-119272768D01*
X126064313Y-119412764D01*
X126058074Y-119460157D01*
X126049500Y-119525280D01*
X126049500Y-120250720D01*
X126064313Y-120363236D01*
X126086273Y-120416251D01*
X126120621Y-120499176D01*
X126122302Y-120503233D01*
X126214549Y-120623451D01*
X126334767Y-120715698D01*
X126474764Y-120773687D01*
X126587280Y-120788500D01*
X126591333Y-120788500D01*
X127408667Y-120788500D01*
X127412720Y-120788500D01*
X127525236Y-120773687D01*
X127665233Y-120715698D01*
X127785451Y-120623451D01*
X127877698Y-120503233D01*
X127935687Y-120363236D01*
X127950500Y-120250720D01*
X127950500Y-119525280D01*
X127950579Y-119527695D01*
X127965692Y-119460157D01*
X127986488Y-119432548D01*
X128006273Y-119412764D01*
X128072115Y-119346922D01*
X128135220Y-119283818D01*
X128196544Y-119250334D01*
X128222901Y-119247500D01*
X128487189Y-119247500D01*
X128554228Y-119267185D01*
X128599983Y-119319989D01*
X128609927Y-119389147D01*
X128605111Y-119406696D01*
X128593703Y-119493353D01*
X128589500Y-119525280D01*
X128589500Y-120250720D01*
X128604313Y-120363236D01*
X128626273Y-120416251D01*
X128660621Y-120499176D01*
X128662302Y-120503233D01*
X128754549Y-120623451D01*
X128874767Y-120715698D01*
X129014764Y-120773687D01*
X129127280Y-120788500D01*
X129131333Y-120788500D01*
X129948667Y-120788500D01*
X129952720Y-120788500D01*
X130065236Y-120773687D01*
X130205233Y-120715698D01*
X130325451Y-120623451D01*
X130417698Y-120503233D01*
X130475687Y-120363236D01*
X130490500Y-120250720D01*
X130490500Y-119525280D01*
X130475687Y-119412764D01*
X130475686Y-119412763D01*
X130473556Y-119396578D01*
X130475812Y-119396280D01*
X130470780Y-119349488D01*
X130502053Y-119287008D01*
X130562140Y-119251353D01*
X130592811Y-119247500D01*
X131027189Y-119247500D01*
X131094228Y-119267185D01*
X131139983Y-119319989D01*
X131149927Y-119389147D01*
X131145111Y-119406696D01*
X131133703Y-119493353D01*
X131129500Y-119525280D01*
X131129500Y-120250720D01*
X131144313Y-120363236D01*
X131166273Y-120416251D01*
X131200621Y-120499176D01*
X131202302Y-120503233D01*
X131294549Y-120623451D01*
X131414767Y-120715698D01*
X131554764Y-120773687D01*
X131667280Y-120788500D01*
X131671333Y-120788500D01*
X132488667Y-120788500D01*
X132492720Y-120788500D01*
X132605236Y-120773687D01*
X132745233Y-120715698D01*
X132865451Y-120623451D01*
X132957698Y-120503233D01*
X133015687Y-120363236D01*
X133030500Y-120250720D01*
X133030500Y-119525280D01*
X133015687Y-119412764D01*
X133015686Y-119412763D01*
X133013556Y-119396578D01*
X133015812Y-119396280D01*
X133010780Y-119349488D01*
X133042053Y-119287008D01*
X133102140Y-119251353D01*
X133132811Y-119247500D01*
X133567189Y-119247500D01*
X133634228Y-119267185D01*
X133679983Y-119319989D01*
X133689927Y-119389147D01*
X133685111Y-119406696D01*
X133673703Y-119493353D01*
X133669500Y-119525280D01*
X133669500Y-120250720D01*
X133684313Y-120363236D01*
X133706273Y-120416251D01*
X133740621Y-120499176D01*
X133742302Y-120503233D01*
X133834549Y-120623451D01*
X133954767Y-120715698D01*
X134094764Y-120773687D01*
X134207280Y-120788500D01*
X134211333Y-120788500D01*
X135028667Y-120788500D01*
X135032720Y-120788500D01*
X135145236Y-120773687D01*
X135285233Y-120715698D01*
X135405451Y-120623451D01*
X135497698Y-120503233D01*
X135555687Y-120363236D01*
X135570500Y-120250720D01*
X135570500Y-119525280D01*
X135555687Y-119412764D01*
X135555686Y-119412763D01*
X135553556Y-119396578D01*
X135555812Y-119396280D01*
X135550780Y-119349488D01*
X135582053Y-119287008D01*
X135642140Y-119251353D01*
X135672811Y-119247500D01*
X136107189Y-119247500D01*
X136174228Y-119267185D01*
X136219983Y-119319989D01*
X136229927Y-119389147D01*
X136225111Y-119406696D01*
X136213703Y-119493353D01*
X136209500Y-119525280D01*
X136209500Y-120250720D01*
X136224313Y-120363236D01*
X136246273Y-120416251D01*
X136280621Y-120499176D01*
X136282302Y-120503233D01*
X136374549Y-120623451D01*
X136494767Y-120715698D01*
X136634764Y-120773687D01*
X136747280Y-120788500D01*
X136751333Y-120788500D01*
X137568667Y-120788500D01*
X137572720Y-120788500D01*
X137685236Y-120773687D01*
X137825233Y-120715698D01*
X137945451Y-120623451D01*
X138037698Y-120503233D01*
X138095687Y-120363236D01*
X138110500Y-120250720D01*
X138110500Y-119525280D01*
X138095687Y-119412764D01*
X138095686Y-119412763D01*
X138093556Y-119396578D01*
X138095812Y-119396280D01*
X138090780Y-119349488D01*
X138122053Y-119287008D01*
X138182140Y-119251353D01*
X138212811Y-119247500D01*
X138647189Y-119247500D01*
X138714228Y-119267185D01*
X138759983Y-119319989D01*
X138769927Y-119389147D01*
X138765111Y-119406696D01*
X138753703Y-119493353D01*
X138749500Y-119525280D01*
X138749500Y-120250720D01*
X138764313Y-120363236D01*
X138786273Y-120416251D01*
X138820621Y-120499176D01*
X138822302Y-120503233D01*
X138914549Y-120623451D01*
X139034767Y-120715698D01*
X139174764Y-120773687D01*
X139287280Y-120788500D01*
X139291333Y-120788500D01*
X140108667Y-120788500D01*
X140112720Y-120788500D01*
X140225236Y-120773687D01*
X140365233Y-120715698D01*
X140485451Y-120623451D01*
X140577698Y-120503233D01*
X140635687Y-120363236D01*
X140650500Y-120250720D01*
X140650500Y-119525280D01*
X140635687Y-119412764D01*
X140635686Y-119412763D01*
X140633556Y-119396578D01*
X140635812Y-119396280D01*
X140630780Y-119349488D01*
X140662053Y-119287008D01*
X140722140Y-119251353D01*
X140752811Y-119247500D01*
X141187189Y-119247500D01*
X141254228Y-119267185D01*
X141299983Y-119319989D01*
X141309927Y-119389147D01*
X141305111Y-119406696D01*
X141293703Y-119493353D01*
X141289500Y-119525280D01*
X141289500Y-120250720D01*
X141304313Y-120363236D01*
X141326273Y-120416251D01*
X141360621Y-120499176D01*
X141362302Y-120503233D01*
X141454549Y-120623451D01*
X141574767Y-120715698D01*
X141714764Y-120773687D01*
X141827280Y-120788500D01*
X141831333Y-120788500D01*
X142648667Y-120788500D01*
X142652720Y-120788500D01*
X142765236Y-120773687D01*
X142905233Y-120715698D01*
X143025451Y-120623451D01*
X143117698Y-120503233D01*
X143175687Y-120363236D01*
X143190500Y-120250720D01*
X143190500Y-119525280D01*
X143175687Y-119412764D01*
X143175686Y-119412763D01*
X143173556Y-119396578D01*
X143175812Y-119396280D01*
X143170780Y-119349488D01*
X143202053Y-119287008D01*
X143262140Y-119251353D01*
X143292811Y-119247500D01*
X143303101Y-119247500D01*
X143370140Y-119267185D01*
X143390782Y-119283819D01*
X143715850Y-119608887D01*
X143731977Y-119628746D01*
X143737915Y-119637835D01*
X143762894Y-119657277D01*
X143774412Y-119667449D01*
X143774481Y-119667518D01*
X143791389Y-119679590D01*
X143795499Y-119682654D01*
X143843044Y-119719660D01*
X143843233Y-119719757D01*
X143850801Y-119722010D01*
X143900959Y-119736943D01*
X143905819Y-119738499D01*
X143955340Y-119755500D01*
X143955342Y-119755500D01*
X143962796Y-119758059D01*
X143963029Y-119758093D01*
X143970908Y-119757767D01*
X143970911Y-119757768D01*
X144023192Y-119755605D01*
X144028315Y-119755500D01*
X154733101Y-119755500D01*
X154800140Y-119775185D01*
X154820782Y-119791819D01*
X157026342Y-121997379D01*
X157059827Y-122058702D01*
X157054843Y-122128394D01*
X157040713Y-122155497D01*
X157026780Y-122175682D01*
X156970763Y-122323388D01*
X156951721Y-122480206D01*
X156970763Y-122637025D01*
X157026780Y-122784730D01*
X157116515Y-122914735D01*
X157116516Y-122914736D01*
X157116517Y-122914737D01*
X157234760Y-123019490D01*
X157374635Y-123092903D01*
X157528015Y-123130707D01*
X157685985Y-123130707D01*
X157839365Y-123092903D01*
X157979240Y-123019490D01*
X158097483Y-122914737D01*
X158114137Y-122890608D01*
X158168419Y-122846619D01*
X158237868Y-122838959D01*
X158300433Y-122870062D01*
X158318237Y-122890609D01*
X158386515Y-122989528D01*
X158386516Y-122989529D01*
X158386517Y-122989530D01*
X158504760Y-123094283D01*
X158644635Y-123167696D01*
X158798015Y-123205500D01*
X158955985Y-123205500D01*
X159109365Y-123167696D01*
X159249240Y-123094283D01*
X159367483Y-122989530D01*
X159457220Y-122859523D01*
X159513237Y-122711818D01*
X159532278Y-122555000D01*
X159513237Y-122398182D01*
X159457220Y-122250477D01*
X159412351Y-122185473D01*
X159367484Y-122120471D01*
X159355758Y-122110083D01*
X159249240Y-122015717D01*
X159179656Y-121979196D01*
X159109364Y-121942303D01*
X158955985Y-121904500D01*
X158808900Y-121904500D01*
X158741861Y-121884815D01*
X158721219Y-121868181D01*
X155804219Y-118951181D01*
X155770734Y-118889858D01*
X155775718Y-118820166D01*
X155817590Y-118764233D01*
X155883054Y-118739816D01*
X155891900Y-118739500D01*
X158952195Y-118739500D01*
X158977641Y-118742139D01*
X158981440Y-118742935D01*
X158988268Y-118744367D01*
X159018138Y-118740643D01*
X159019677Y-118740452D01*
X159035014Y-118739500D01*
X159035111Y-118739500D01*
X159035114Y-118739500D01*
X159055643Y-118736073D01*
X159060659Y-118735342D01*
X159112626Y-118728866D01*
X159112628Y-118728864D01*
X159120457Y-118727889D01*
X159120666Y-118727822D01*
X159127607Y-118724065D01*
X159127610Y-118724065D01*
X159173666Y-118699140D01*
X159178144Y-118696835D01*
X159225211Y-118673826D01*
X159225212Y-118673824D01*
X159232308Y-118670356D01*
X159232476Y-118670230D01*
X159237824Y-118664419D01*
X159237826Y-118664419D01*
X159273294Y-118625889D01*
X159276795Y-118622240D01*
X159991216Y-117907819D01*
X160052540Y-117874334D01*
X160078898Y-117871500D01*
X160225985Y-117871500D01*
X160379365Y-117833696D01*
X160519240Y-117760283D01*
X160637483Y-117655530D01*
X160727220Y-117525523D01*
X160783237Y-117377818D01*
X160802278Y-117221000D01*
X160783237Y-117064182D01*
X160727220Y-116916477D01*
X160637483Y-116786470D01*
X160519240Y-116681717D01*
X160505994Y-116674764D01*
X160379364Y-116608303D01*
X160225985Y-116570500D01*
X160068015Y-116570500D01*
X159914635Y-116608303D01*
X159774761Y-116681716D01*
X159656515Y-116786471D01*
X159566780Y-116916476D01*
X159510763Y-117064181D01*
X159491721Y-117221000D01*
X159497896Y-117271853D01*
X159486435Y-117340777D01*
X159462481Y-117374480D01*
X158884781Y-117952181D01*
X158823458Y-117985666D01*
X158797100Y-117988500D01*
X156777495Y-117988500D01*
X156710456Y-117968815D01*
X156664701Y-117916011D01*
X156654757Y-117846853D01*
X156683782Y-117783297D01*
X156698901Y-117771317D01*
X156697970Y-117770266D01*
X156709236Y-117760284D01*
X156709240Y-117760283D01*
X156827483Y-117655530D01*
X156917220Y-117525523D01*
X156973237Y-117377818D01*
X156992278Y-117221000D01*
X156973237Y-117064182D01*
X156917220Y-116916477D01*
X156827483Y-116786470D01*
X156709240Y-116681717D01*
X156695994Y-116674764D01*
X156569364Y-116608303D01*
X156415985Y-116570500D01*
X156258015Y-116570500D01*
X156104635Y-116608303D01*
X155964761Y-116681716D01*
X155846515Y-116786471D01*
X155756780Y-116916476D01*
X155700763Y-117064181D01*
X155681721Y-117221000D01*
X155687896Y-117271853D01*
X155676435Y-117340777D01*
X155652481Y-117374480D01*
X155582779Y-117444182D01*
X155521459Y-117477666D01*
X155495100Y-117480500D01*
X148415899Y-117480500D01*
X148348860Y-117460815D01*
X148328218Y-117444181D01*
X148258518Y-117374481D01*
X148225033Y-117313158D01*
X148223103Y-117271852D01*
X148229278Y-117221000D01*
X148210237Y-117064182D01*
X148154220Y-116916477D01*
X148064483Y-116786470D01*
X147946240Y-116681717D01*
X147932994Y-116674764D01*
X147806364Y-116608303D01*
X147652985Y-116570500D01*
X147495015Y-116570500D01*
X147341635Y-116608303D01*
X147201761Y-116681716D01*
X147083515Y-116786471D01*
X146993780Y-116916476D01*
X146937763Y-117064181D01*
X146918721Y-117221000D01*
X146920494Y-117235596D01*
X146909033Y-117304519D01*
X146862130Y-117356305D01*
X146794674Y-117374512D01*
X146767724Y-117370939D01*
X146645236Y-117340750D01*
X146645235Y-117340750D01*
X146487265Y-117340750D01*
X146333885Y-117378553D01*
X146194011Y-117451966D01*
X146075765Y-117556721D01*
X145986030Y-117686726D01*
X145930013Y-117834431D01*
X145910971Y-117991249D01*
X145930013Y-118148068D01*
X145986030Y-118295775D01*
X145990370Y-118302062D01*
X146012252Y-118368417D01*
X145994785Y-118436068D01*
X145943517Y-118483537D01*
X145888319Y-118496500D01*
X144478900Y-118496500D01*
X144411861Y-118476815D01*
X144391219Y-118460181D01*
X144236456Y-118305418D01*
X144202971Y-118244095D01*
X144207955Y-118174403D01*
X144248649Y-118119363D01*
X144295451Y-118083451D01*
X144387698Y-117963233D01*
X144445687Y-117823236D01*
X144460500Y-117710720D01*
X144460500Y-116985280D01*
X144445687Y-116872764D01*
X144387698Y-116732767D01*
X144295451Y-116612549D01*
X144175233Y-116520302D01*
X144035236Y-116462313D01*
X143976356Y-116454561D01*
X143926739Y-116448029D01*
X143926737Y-116448028D01*
X143922720Y-116447500D01*
X143097280Y-116447500D01*
X143093263Y-116448028D01*
X143093260Y-116448029D01*
X142984764Y-116462313D01*
X142844768Y-116520301D01*
X142724549Y-116612549D01*
X142632301Y-116732768D01*
X142610057Y-116786470D01*
X142574313Y-116872764D01*
X142559500Y-116985280D01*
X142559500Y-117710720D01*
X142560028Y-117714737D01*
X142560029Y-117714739D01*
X142576444Y-117839422D01*
X142574187Y-117839719D01*
X142579220Y-117886512D01*
X142547947Y-117948992D01*
X142487860Y-117984647D01*
X142457189Y-117988500D01*
X142022811Y-117988500D01*
X141955772Y-117968815D01*
X141910017Y-117916011D01*
X141900073Y-117846853D01*
X141904888Y-117829303D01*
X141912522Y-117771317D01*
X141920500Y-117710720D01*
X141920500Y-116985280D01*
X141905687Y-116872764D01*
X141847698Y-116732767D01*
X141755451Y-116612549D01*
X141635233Y-116520302D01*
X141495236Y-116462313D01*
X141436356Y-116454561D01*
X141386739Y-116448029D01*
X141386737Y-116448028D01*
X141382720Y-116447500D01*
X140557280Y-116447500D01*
X140553263Y-116448028D01*
X140553260Y-116448029D01*
X140444764Y-116462313D01*
X140304768Y-116520301D01*
X140184549Y-116612549D01*
X140092301Y-116732768D01*
X140070057Y-116786470D01*
X140034313Y-116872764D01*
X140019500Y-116985280D01*
X140019500Y-117710720D01*
X140020028Y-117714737D01*
X140020029Y-117714739D01*
X140036444Y-117839422D01*
X140034187Y-117839719D01*
X140039220Y-117886512D01*
X140007947Y-117948992D01*
X139947860Y-117984647D01*
X139917189Y-117988500D01*
X139482811Y-117988500D01*
X139415772Y-117968815D01*
X139370017Y-117916011D01*
X139360073Y-117846853D01*
X139364888Y-117829303D01*
X139372522Y-117771317D01*
X139380500Y-117710720D01*
X139380500Y-116985280D01*
X139365687Y-116872764D01*
X139307698Y-116732767D01*
X139215451Y-116612549D01*
X139095233Y-116520302D01*
X138955236Y-116462313D01*
X138896356Y-116454561D01*
X138846739Y-116448029D01*
X138846737Y-116448028D01*
X138842720Y-116447500D01*
X138017280Y-116447500D01*
X138013263Y-116448028D01*
X138013260Y-116448029D01*
X137904764Y-116462313D01*
X137764768Y-116520301D01*
X137644549Y-116612549D01*
X137552301Y-116732768D01*
X137530057Y-116786470D01*
X137494313Y-116872764D01*
X137479500Y-116985280D01*
X137479500Y-117710720D01*
X137480028Y-117714737D01*
X137480029Y-117714739D01*
X137496444Y-117839422D01*
X137494187Y-117839719D01*
X137499220Y-117886512D01*
X137467947Y-117948992D01*
X137407860Y-117984647D01*
X137377189Y-117988500D01*
X136942811Y-117988500D01*
X136875772Y-117968815D01*
X136830017Y-117916011D01*
X136820073Y-117846853D01*
X136824888Y-117829303D01*
X136832522Y-117771317D01*
X136840500Y-117710720D01*
X136840500Y-116985280D01*
X136825687Y-116872764D01*
X136767698Y-116732767D01*
X136675451Y-116612549D01*
X136555233Y-116520302D01*
X136415236Y-116462313D01*
X136356356Y-116454561D01*
X136306739Y-116448029D01*
X136306737Y-116448028D01*
X136302720Y-116447500D01*
X135477280Y-116447500D01*
X135473263Y-116448028D01*
X135473260Y-116448029D01*
X135364764Y-116462313D01*
X135224768Y-116520301D01*
X135104549Y-116612549D01*
X135012301Y-116732768D01*
X134990057Y-116786470D01*
X134954313Y-116872764D01*
X134939500Y-116985280D01*
X134939500Y-117710720D01*
X134940028Y-117714737D01*
X134940029Y-117714739D01*
X134956444Y-117839422D01*
X134954187Y-117839719D01*
X134959220Y-117886512D01*
X134927947Y-117948992D01*
X134867860Y-117984647D01*
X134837189Y-117988500D01*
X134402811Y-117988500D01*
X134335772Y-117968815D01*
X134290017Y-117916011D01*
X134280073Y-117846853D01*
X134284888Y-117829303D01*
X134292522Y-117771317D01*
X134300500Y-117710720D01*
X134300500Y-116985280D01*
X134285687Y-116872764D01*
X134227698Y-116732767D01*
X134135451Y-116612549D01*
X134015233Y-116520302D01*
X133875236Y-116462313D01*
X133816356Y-116454561D01*
X133766739Y-116448029D01*
X133766737Y-116448028D01*
X133762720Y-116447500D01*
X132937280Y-116447500D01*
X132933263Y-116448028D01*
X132933260Y-116448029D01*
X132824764Y-116462313D01*
X132684768Y-116520301D01*
X132564549Y-116612549D01*
X132472301Y-116732768D01*
X132450057Y-116786470D01*
X132414313Y-116872764D01*
X132399500Y-116985280D01*
X132399500Y-117710720D01*
X132400028Y-117714737D01*
X132400029Y-117714739D01*
X132416444Y-117839422D01*
X132414187Y-117839719D01*
X132419220Y-117886512D01*
X132387947Y-117948992D01*
X132327860Y-117984647D01*
X132297189Y-117988500D01*
X131862811Y-117988500D01*
X131795772Y-117968815D01*
X131750017Y-117916011D01*
X131740073Y-117846853D01*
X131744888Y-117829303D01*
X131752522Y-117771317D01*
X131760500Y-117710720D01*
X131760500Y-116985280D01*
X131745687Y-116872764D01*
X131687698Y-116732767D01*
X131595451Y-116612549D01*
X131475233Y-116520302D01*
X131335236Y-116462313D01*
X131276356Y-116454561D01*
X131226739Y-116448029D01*
X131226737Y-116448028D01*
X131222720Y-116447500D01*
X130397280Y-116447500D01*
X130393263Y-116448028D01*
X130393260Y-116448029D01*
X130284764Y-116462313D01*
X130144768Y-116520301D01*
X130024549Y-116612549D01*
X129932301Y-116732768D01*
X129910057Y-116786470D01*
X129874313Y-116872764D01*
X129859500Y-116985280D01*
X129859500Y-117710720D01*
X129860028Y-117714737D01*
X129860029Y-117714739D01*
X129876444Y-117839422D01*
X129874187Y-117839719D01*
X129879220Y-117886512D01*
X129847947Y-117948992D01*
X129787860Y-117984647D01*
X129757189Y-117988500D01*
X129322811Y-117988500D01*
X129255772Y-117968815D01*
X129210017Y-117916011D01*
X129200073Y-117846853D01*
X129204888Y-117829303D01*
X129212522Y-117771317D01*
X129220500Y-117710720D01*
X129220500Y-116985280D01*
X129205687Y-116872764D01*
X129147698Y-116732767D01*
X129055451Y-116612549D01*
X128935233Y-116520302D01*
X128795236Y-116462313D01*
X128736356Y-116454561D01*
X128686739Y-116448029D01*
X128686737Y-116448028D01*
X128682720Y-116447500D01*
X127857280Y-116447500D01*
X127853263Y-116448028D01*
X127853260Y-116448029D01*
X127744764Y-116462313D01*
X127604768Y-116520301D01*
X127484549Y-116612549D01*
X127392301Y-116732768D01*
X127370057Y-116786470D01*
X127334313Y-116872764D01*
X127319500Y-116985280D01*
X127319500Y-117710720D01*
X127320028Y-117714737D01*
X127320029Y-117714739D01*
X127336444Y-117839422D01*
X127334187Y-117839719D01*
X127339220Y-117886512D01*
X127307947Y-117948992D01*
X127247860Y-117984647D01*
X127217189Y-117988500D01*
X126782811Y-117988500D01*
X126715772Y-117968815D01*
X126670017Y-117916011D01*
X126660073Y-117846853D01*
X126664888Y-117829303D01*
X126672522Y-117771317D01*
X126680500Y-117710720D01*
X126680500Y-116985280D01*
X126665687Y-116872764D01*
X126607698Y-116732767D01*
X126515451Y-116612549D01*
X126395233Y-116520302D01*
X126255236Y-116462313D01*
X126196356Y-116454561D01*
X126146739Y-116448029D01*
X126146737Y-116448028D01*
X126142720Y-116447500D01*
X125317280Y-116447500D01*
X125313263Y-116448028D01*
X125313260Y-116448029D01*
X125204764Y-116462313D01*
X125064768Y-116520301D01*
X124944549Y-116612549D01*
X124852301Y-116732768D01*
X124830057Y-116786470D01*
X124794313Y-116872764D01*
X124779500Y-116985280D01*
X124779500Y-117710720D01*
X124780028Y-117714737D01*
X124780029Y-117714739D01*
X124796444Y-117839422D01*
X124794187Y-117839719D01*
X124799220Y-117886512D01*
X124767947Y-117948992D01*
X124707860Y-117984647D01*
X124677189Y-117988500D01*
X124242811Y-117988500D01*
X124175772Y-117968815D01*
X124130017Y-117916011D01*
X124120073Y-117846853D01*
X124124888Y-117829303D01*
X124132522Y-117771317D01*
X124140500Y-117710720D01*
X124140500Y-116985280D01*
X124125687Y-116872764D01*
X124067698Y-116732767D01*
X123975451Y-116612549D01*
X123855233Y-116520302D01*
X123715236Y-116462313D01*
X123656356Y-116454561D01*
X123606739Y-116448029D01*
X123606737Y-116448028D01*
X123602720Y-116447500D01*
X122777280Y-116447500D01*
X122773263Y-116448028D01*
X122773260Y-116448029D01*
X122664764Y-116462313D01*
X122524768Y-116520301D01*
X122404549Y-116612549D01*
X122312301Y-116732768D01*
X122290057Y-116786470D01*
X122254313Y-116872764D01*
X122239500Y-116985280D01*
X122239500Y-117710720D01*
X122254313Y-117823236D01*
X122312302Y-117963233D01*
X122404549Y-118083451D01*
X122524767Y-118175698D01*
X122664764Y-118233687D01*
X122749944Y-118244901D01*
X122813841Y-118273167D01*
X122852312Y-118331492D01*
X122853143Y-118401356D01*
X122821440Y-118455521D01*
X122325781Y-118951181D01*
X122264458Y-118984666D01*
X122238100Y-118987500D01*
X121507280Y-118987500D01*
X121503263Y-118988028D01*
X121503260Y-118988029D01*
X121394764Y-119002313D01*
X121254768Y-119060301D01*
X121134549Y-119152549D01*
X121042301Y-119272768D01*
X120984313Y-119412764D01*
X120978074Y-119460157D01*
X120969500Y-119525280D01*
X120969500Y-120250720D01*
X120330500Y-120250720D01*
X120330500Y-119213326D01*
X120315966Y-119140260D01*
X120260601Y-119057399D01*
X120177740Y-119002034D01*
X120177739Y-119002033D01*
X120177738Y-119002033D01*
X120104675Y-118987500D01*
X120104674Y-118987500D01*
X118655326Y-118987500D01*
X118655325Y-118987500D01*
X118582261Y-119002033D01*
X118499399Y-119057399D01*
X118444033Y-119140261D01*
X118429500Y-119213325D01*
X118429500Y-120562674D01*
X117094500Y-120562674D01*
X117094500Y-117710720D01*
X119699500Y-117710720D01*
X119714313Y-117823236D01*
X119772302Y-117963233D01*
X119864549Y-118083451D01*
X119984767Y-118175698D01*
X120124764Y-118233687D01*
X120237280Y-118248500D01*
X120241333Y-118248500D01*
X121058667Y-118248500D01*
X121062720Y-118248500D01*
X121175236Y-118233687D01*
X121315233Y-118175698D01*
X121435451Y-118083451D01*
X121527698Y-117963233D01*
X121585687Y-117823236D01*
X121600500Y-117710720D01*
X121600500Y-116985280D01*
X121585687Y-116872764D01*
X121527698Y-116732767D01*
X121435451Y-116612549D01*
X121315233Y-116520302D01*
X121175236Y-116462313D01*
X121116356Y-116454561D01*
X121066739Y-116448029D01*
X121066737Y-116448028D01*
X121062720Y-116447500D01*
X120237280Y-116447500D01*
X120233263Y-116448028D01*
X120233260Y-116448029D01*
X120124764Y-116462313D01*
X119984768Y-116520301D01*
X119864549Y-116612549D01*
X119772301Y-116732768D01*
X119750057Y-116786470D01*
X119714313Y-116872764D01*
X119699500Y-116985280D01*
X119699500Y-117710720D01*
X117094500Y-117710720D01*
X117094500Y-115431874D01*
X118429500Y-115431874D01*
X118444033Y-115504938D01*
X118444033Y-115504939D01*
X118444034Y-115504940D01*
X118499399Y-115587801D01*
X118582260Y-115643166D01*
X118618792Y-115650433D01*
X118655325Y-115657700D01*
X118655326Y-115657700D01*
X120104675Y-115657700D01*
X120129029Y-115652855D01*
X120177740Y-115643166D01*
X120260601Y-115587801D01*
X120315966Y-115504940D01*
X120330500Y-115431874D01*
X120330500Y-114082526D01*
X120315966Y-114009460D01*
X120260601Y-113926599D01*
X120177740Y-113871234D01*
X120177739Y-113871233D01*
X120177738Y-113871233D01*
X120104675Y-113856700D01*
X120104674Y-113856700D01*
X118655326Y-113856700D01*
X118655325Y-113856700D01*
X118582261Y-113871233D01*
X118499399Y-113926599D01*
X118444033Y-114009461D01*
X118429500Y-114082525D01*
X118429500Y-115431874D01*
X117094500Y-115431874D01*
X117094500Y-110275674D01*
X118429500Y-110275674D01*
X118444033Y-110348738D01*
X118444033Y-110348739D01*
X118444034Y-110348740D01*
X118499399Y-110431601D01*
X118582260Y-110486966D01*
X118618792Y-110494233D01*
X118655325Y-110501500D01*
X118655326Y-110501500D01*
X120104675Y-110501500D01*
X120129029Y-110496655D01*
X120177740Y-110486966D01*
X120260601Y-110431601D01*
X120315966Y-110348740D01*
X120330500Y-110275674D01*
X120330500Y-109232898D01*
X120350185Y-109165860D01*
X120366814Y-109145222D01*
X120515220Y-108996816D01*
X120576542Y-108963334D01*
X120602900Y-108960500D01*
X120867189Y-108960500D01*
X120934228Y-108980185D01*
X120979983Y-109032989D01*
X120989927Y-109102147D01*
X120985111Y-109119696D01*
X120970208Y-109232899D01*
X120969500Y-109238280D01*
X120969500Y-109963720D01*
X120970028Y-109967737D01*
X120970029Y-109967739D01*
X120971900Y-109981948D01*
X120984313Y-110076236D01*
X120991018Y-110092422D01*
X121040621Y-110212176D01*
X121042302Y-110216233D01*
X121134549Y-110336451D01*
X121254767Y-110428698D01*
X121394764Y-110486687D01*
X121507280Y-110501500D01*
X121511333Y-110501500D01*
X122328667Y-110501500D01*
X122332720Y-110501500D01*
X122445236Y-110486687D01*
X122585233Y-110428698D01*
X122705451Y-110336451D01*
X122797698Y-110216233D01*
X122855687Y-110076236D01*
X122870500Y-109963720D01*
X122870500Y-109238280D01*
X122855687Y-109125764D01*
X122855686Y-109125763D01*
X122853556Y-109109578D01*
X122855812Y-109109280D01*
X122850780Y-109062488D01*
X122882053Y-109000008D01*
X122942140Y-108964353D01*
X122972811Y-108960500D01*
X123154718Y-108960500D01*
X123221757Y-108980185D01*
X123267512Y-109032989D01*
X123277456Y-109102147D01*
X123275052Y-109114427D01*
X123262731Y-109163965D01*
X123260141Y-109202164D01*
X123260000Y-109206353D01*
X123259999Y-109351000D01*
X124144314Y-109351000D01*
X124132359Y-109362955D01*
X124074835Y-109475852D01*
X124055014Y-109601000D01*
X124074835Y-109726148D01*
X124132359Y-109839045D01*
X124144314Y-109851000D01*
X123260000Y-109851000D01*
X123260000Y-109995646D01*
X123260141Y-109999835D01*
X123262731Y-110038031D01*
X123306040Y-110212176D01*
X123385771Y-110372940D01*
X123498197Y-110512802D01*
X123638059Y-110625228D01*
X123798823Y-110704959D01*
X123972968Y-110748268D01*
X124011164Y-110750858D01*
X124015354Y-110751000D01*
X124210000Y-110751000D01*
X124210000Y-109916686D01*
X124221955Y-109928641D01*
X124334852Y-109986165D01*
X124428519Y-110001000D01*
X124491481Y-110001000D01*
X124585148Y-109986165D01*
X124698045Y-109928641D01*
X124710000Y-109916686D01*
X124710000Y-110751000D01*
X124904646Y-110751000D01*
X124908835Y-110750858D01*
X124947031Y-110748268D01*
X125121176Y-110704959D01*
X125281940Y-110625228D01*
X125421802Y-110512802D01*
X125534228Y-110372940D01*
X125613959Y-110212176D01*
X125657268Y-110038031D01*
X125659858Y-109999835D01*
X125660000Y-109995646D01*
X125660000Y-109851000D01*
X124775686Y-109851000D01*
X124787641Y-109839045D01*
X124845165Y-109726148D01*
X124864986Y-109601000D01*
X124845165Y-109475852D01*
X124787641Y-109362955D01*
X124775686Y-109351000D01*
X125659999Y-109351000D01*
X125660000Y-109206353D01*
X125659858Y-109202164D01*
X125657268Y-109163965D01*
X125644948Y-109114427D01*
X125647870Y-109044619D01*
X125688071Y-108987472D01*
X125752785Y-108961131D01*
X125765282Y-108960500D01*
X125947189Y-108960500D01*
X126014228Y-108980185D01*
X126059983Y-109032989D01*
X126069927Y-109102147D01*
X126065111Y-109119696D01*
X126050208Y-109232899D01*
X126049500Y-109238280D01*
X126049500Y-109963720D01*
X126050028Y-109967737D01*
X126050029Y-109967739D01*
X126051900Y-109981948D01*
X126064313Y-110076236D01*
X126071018Y-110092422D01*
X126120621Y-110212176D01*
X126122302Y-110216233D01*
X126214549Y-110336451D01*
X126334767Y-110428698D01*
X126474764Y-110486687D01*
X126587280Y-110501500D01*
X126591333Y-110501500D01*
X127408667Y-110501500D01*
X127412720Y-110501500D01*
X127525236Y-110486687D01*
X127665233Y-110428698D01*
X127785451Y-110336451D01*
X127877698Y-110216233D01*
X127935687Y-110076236D01*
X127950500Y-109963720D01*
X127950500Y-109238280D01*
X127935687Y-109125764D01*
X127935686Y-109125763D01*
X127933556Y-109109578D01*
X127935812Y-109109280D01*
X127930780Y-109062488D01*
X127962053Y-109000008D01*
X128022140Y-108964353D01*
X128052811Y-108960500D01*
X128487189Y-108960500D01*
X128554228Y-108980185D01*
X128599983Y-109032989D01*
X128609927Y-109102147D01*
X128605111Y-109119696D01*
X128590208Y-109232899D01*
X128589500Y-109238280D01*
X128589500Y-109963720D01*
X128590028Y-109967737D01*
X128590029Y-109967739D01*
X128591900Y-109981948D01*
X128604313Y-110076236D01*
X128611018Y-110092422D01*
X128660621Y-110212176D01*
X128662302Y-110216233D01*
X128754549Y-110336451D01*
X128874767Y-110428698D01*
X129014764Y-110486687D01*
X129127280Y-110501500D01*
X129131333Y-110501500D01*
X129948667Y-110501500D01*
X129952720Y-110501500D01*
X130065236Y-110486687D01*
X130205233Y-110428698D01*
X130325451Y-110336451D01*
X130417698Y-110216233D01*
X130475687Y-110076236D01*
X130490500Y-109963720D01*
X130490500Y-109238280D01*
X130475687Y-109125764D01*
X130475686Y-109125763D01*
X130473556Y-109109578D01*
X130475812Y-109109280D01*
X130470780Y-109062488D01*
X130502053Y-109000008D01*
X130562140Y-108964353D01*
X130592811Y-108960500D01*
X131027189Y-108960500D01*
X131094228Y-108980185D01*
X131139983Y-109032989D01*
X131149927Y-109102147D01*
X131145111Y-109119696D01*
X131130208Y-109232899D01*
X131129500Y-109238280D01*
X131129500Y-109963720D01*
X131130028Y-109967737D01*
X131130029Y-109967739D01*
X131131900Y-109981948D01*
X131144313Y-110076236D01*
X131151018Y-110092422D01*
X131200621Y-110212176D01*
X131202302Y-110216233D01*
X131294549Y-110336451D01*
X131414767Y-110428698D01*
X131554764Y-110486687D01*
X131667280Y-110501500D01*
X131671333Y-110501500D01*
X132488667Y-110501500D01*
X132492720Y-110501500D01*
X132605236Y-110486687D01*
X132745233Y-110428698D01*
X132865451Y-110336451D01*
X132957698Y-110216233D01*
X133015687Y-110076236D01*
X133030500Y-109963720D01*
X133030500Y-109238280D01*
X133015687Y-109125764D01*
X133015686Y-109125763D01*
X133013556Y-109109578D01*
X133015812Y-109109280D01*
X133010780Y-109062488D01*
X133042053Y-109000008D01*
X133102140Y-108964353D01*
X133132811Y-108960500D01*
X133567189Y-108960500D01*
X133634228Y-108980185D01*
X133679983Y-109032989D01*
X133689927Y-109102147D01*
X133685111Y-109119696D01*
X133670208Y-109232899D01*
X133669500Y-109238280D01*
X133669500Y-109963720D01*
X133670028Y-109967737D01*
X133670029Y-109967739D01*
X133671900Y-109981948D01*
X133684313Y-110076236D01*
X133691018Y-110092422D01*
X133740621Y-110212176D01*
X133742302Y-110216233D01*
X133834549Y-110336451D01*
X133954767Y-110428698D01*
X134094764Y-110486687D01*
X134207280Y-110501500D01*
X134211333Y-110501500D01*
X135028667Y-110501500D01*
X135032720Y-110501500D01*
X135145236Y-110486687D01*
X135285233Y-110428698D01*
X135405451Y-110336451D01*
X135405451Y-110336449D01*
X135418402Y-110326513D01*
X135421236Y-110330207D01*
X135452578Y-110307286D01*
X135522321Y-110303079D01*
X135578595Y-110332713D01*
X135589581Y-110342826D01*
X135628109Y-110378294D01*
X135631780Y-110381817D01*
X135914782Y-110664819D01*
X135948267Y-110726142D01*
X135943283Y-110795834D01*
X135901411Y-110851767D01*
X135835947Y-110876184D01*
X135827101Y-110876500D01*
X129287005Y-110876500D01*
X129261559Y-110873861D01*
X129250933Y-110871633D01*
X129250932Y-110871633D01*
X129233058Y-110873861D01*
X129219523Y-110875548D01*
X129204186Y-110876500D01*
X129204084Y-110876500D01*
X129183599Y-110879918D01*
X129178532Y-110880657D01*
X129118767Y-110888107D01*
X129118512Y-110888189D01*
X129065570Y-110916838D01*
X129061020Y-110919180D01*
X129006915Y-110945632D01*
X129006705Y-110945788D01*
X128965919Y-110990093D01*
X128962372Y-110993789D01*
X128675780Y-111280382D01*
X128614460Y-111313866D01*
X128588101Y-111316700D01*
X127857280Y-111316700D01*
X127853263Y-111317228D01*
X127853260Y-111317229D01*
X127744764Y-111331513D01*
X127604768Y-111389501D01*
X127484549Y-111481749D01*
X127392301Y-111601968D01*
X127334313Y-111741964D01*
X127321298Y-111840826D01*
X127319500Y-111854480D01*
X127319500Y-112579920D01*
X127334313Y-112692436D01*
X127344221Y-112716355D01*
X127391099Y-112829530D01*
X127392302Y-112832433D01*
X127484549Y-112952651D01*
X127604767Y-113044898D01*
X127744764Y-113102887D01*
X127857280Y-113117700D01*
X127861333Y-113117700D01*
X128678667Y-113117700D01*
X128682720Y-113117700D01*
X128795236Y-113102887D01*
X128935233Y-113044898D01*
X129055451Y-112952651D01*
X129147698Y-112832433D01*
X129205687Y-112692436D01*
X129220500Y-112579920D01*
X129220500Y-111854480D01*
X129220579Y-111856895D01*
X129235692Y-111789357D01*
X129256489Y-111761748D01*
X129354421Y-111663818D01*
X129415744Y-111630334D01*
X129442101Y-111627500D01*
X129747988Y-111627500D01*
X129815027Y-111647185D01*
X129860782Y-111699989D01*
X129870926Y-111767684D01*
X129859500Y-111854480D01*
X129859500Y-112579920D01*
X129874313Y-112692436D01*
X129884221Y-112716355D01*
X129931099Y-112829530D01*
X129932302Y-112832433D01*
X130024549Y-112952651D01*
X130144767Y-113044898D01*
X130284764Y-113102887D01*
X130397280Y-113117700D01*
X130401333Y-113117700D01*
X131218667Y-113117700D01*
X131222720Y-113117700D01*
X131335236Y-113102887D01*
X131475233Y-113044898D01*
X131595451Y-112952651D01*
X131687698Y-112832433D01*
X131745687Y-112692436D01*
X131760500Y-112579920D01*
X131760500Y-111854480D01*
X131749073Y-111767684D01*
X131759838Y-111698650D01*
X131806218Y-111646394D01*
X131872012Y-111627500D01*
X132287988Y-111627500D01*
X132355027Y-111647185D01*
X132400782Y-111699989D01*
X132410926Y-111767684D01*
X132399500Y-111854480D01*
X132399500Y-112579920D01*
X132414313Y-112692436D01*
X132424221Y-112716355D01*
X132471099Y-112829530D01*
X132472302Y-112832433D01*
X132564549Y-112952651D01*
X132684767Y-113044898D01*
X132824764Y-113102887D01*
X132937280Y-113117700D01*
X132941333Y-113117700D01*
X133758667Y-113117700D01*
X133762720Y-113117700D01*
X133875236Y-113102887D01*
X134015233Y-113044898D01*
X134135451Y-112952651D01*
X134227698Y-112832433D01*
X134285687Y-112692436D01*
X134300500Y-112579920D01*
X134300500Y-111854480D01*
X134289073Y-111767684D01*
X134299838Y-111698650D01*
X134346218Y-111646394D01*
X134412012Y-111627500D01*
X134827988Y-111627500D01*
X134895027Y-111647185D01*
X134940782Y-111699989D01*
X134950926Y-111767684D01*
X134939500Y-111854480D01*
X134939500Y-112579920D01*
X134954313Y-112692436D01*
X134964221Y-112716355D01*
X135011099Y-112829530D01*
X135012302Y-112832433D01*
X135104549Y-112952651D01*
X135224767Y-113044898D01*
X135364764Y-113102887D01*
X135477280Y-113117700D01*
X135481333Y-113117700D01*
X136298667Y-113117700D01*
X136302720Y-113117700D01*
X136415236Y-113102887D01*
X136555233Y-113044898D01*
X136666375Y-112959614D01*
X136731544Y-112934420D01*
X136799989Y-112948458D01*
X136835242Y-112982881D01*
X136835543Y-112982581D01*
X136843022Y-112990060D01*
X136844170Y-112991600D01*
X136849979Y-112997272D01*
X136853260Y-113003525D01*
X136853635Y-113004292D01*
X136853777Y-113004482D01*
X136859579Y-113009824D01*
X136859581Y-113009826D01*
X136898108Y-113045293D01*
X136901780Y-113048817D01*
X137238850Y-113385887D01*
X137254977Y-113405746D01*
X137260916Y-113414836D01*
X137285894Y-113434277D01*
X137297411Y-113444448D01*
X137297482Y-113444519D01*
X137299324Y-113445834D01*
X137314389Y-113456590D01*
X137318494Y-113459650D01*
X137327713Y-113466826D01*
X137366044Y-113496660D01*
X137366233Y-113496757D01*
X137373801Y-113499010D01*
X137423959Y-113513943D01*
X137428819Y-113515499D01*
X137478340Y-113532500D01*
X137478342Y-113532500D01*
X137485796Y-113535059D01*
X137486029Y-113535093D01*
X137493908Y-113534767D01*
X137493911Y-113534768D01*
X137546192Y-113532605D01*
X137551315Y-113532500D01*
X144220195Y-113532500D01*
X144245641Y-113535139D01*
X144249440Y-113535935D01*
X144256268Y-113537367D01*
X144286138Y-113533643D01*
X144287677Y-113533452D01*
X144303014Y-113532500D01*
X144303111Y-113532500D01*
X144303114Y-113532500D01*
X144323643Y-113529073D01*
X144328659Y-113528342D01*
X144380626Y-113521866D01*
X144380628Y-113521864D01*
X144388457Y-113520889D01*
X144388666Y-113520822D01*
X144395607Y-113517065D01*
X144395610Y-113517065D01*
X144441666Y-113492140D01*
X144446144Y-113489835D01*
X144493211Y-113466826D01*
X144493212Y-113466824D01*
X144500308Y-113463356D01*
X144500476Y-113463230D01*
X144505824Y-113457419D01*
X144505826Y-113457419D01*
X144541294Y-113418889D01*
X144544795Y-113415240D01*
X145534217Y-112425819D01*
X145595541Y-112392334D01*
X145621899Y-112389500D01*
X151931482Y-112389500D01*
X151998521Y-112409185D01*
X152044276Y-112461989D01*
X152054220Y-112531147D01*
X152047424Y-112557470D01*
X152017763Y-112635679D01*
X151998721Y-112792500D01*
X152004896Y-112843353D01*
X151993435Y-112912277D01*
X151969481Y-112945980D01*
X149630281Y-115285181D01*
X149568958Y-115318666D01*
X149542600Y-115321500D01*
X143305356Y-115321500D01*
X143238317Y-115301815D01*
X143192562Y-115249011D01*
X143182417Y-115181314D01*
X143190500Y-115119920D01*
X143190500Y-114394480D01*
X143175687Y-114281964D01*
X143117698Y-114141967D01*
X143025451Y-114021749D01*
X142905233Y-113929502D01*
X142765236Y-113871513D01*
X142706356Y-113863761D01*
X142656739Y-113857229D01*
X142656737Y-113857228D01*
X142652720Y-113856700D01*
X141827280Y-113856700D01*
X141823263Y-113857228D01*
X141823260Y-113857229D01*
X141714764Y-113871513D01*
X141574768Y-113929501D01*
X141454549Y-114021749D01*
X141362301Y-114141968D01*
X141304313Y-114281964D01*
X141298182Y-114328537D01*
X141289500Y-114394480D01*
X141289500Y-115119920D01*
X141294255Y-115156040D01*
X141297583Y-115181314D01*
X141286818Y-115250350D01*
X141240438Y-115302606D01*
X141174644Y-115321500D01*
X140765356Y-115321500D01*
X140698317Y-115301815D01*
X140652562Y-115249011D01*
X140642417Y-115181314D01*
X140650500Y-115119920D01*
X140650500Y-114394480D01*
X140635687Y-114281964D01*
X140577698Y-114141967D01*
X140485451Y-114021749D01*
X140365233Y-113929502D01*
X140225236Y-113871513D01*
X140166356Y-113863761D01*
X140116739Y-113857229D01*
X140116737Y-113857228D01*
X140112720Y-113856700D01*
X139287280Y-113856700D01*
X139283263Y-113857228D01*
X139283260Y-113857229D01*
X139174764Y-113871513D01*
X139034768Y-113929501D01*
X138914549Y-114021749D01*
X138822301Y-114141968D01*
X138764313Y-114281964D01*
X138758182Y-114328537D01*
X138749500Y-114394480D01*
X138749500Y-115119920D01*
X138754255Y-115156040D01*
X138757583Y-115181314D01*
X138746818Y-115250350D01*
X138700438Y-115302606D01*
X138634644Y-115321500D01*
X138225356Y-115321500D01*
X138158317Y-115301815D01*
X138112562Y-115249011D01*
X138102417Y-115181314D01*
X138110500Y-115119920D01*
X138110500Y-114394480D01*
X138095687Y-114281964D01*
X138037698Y-114141967D01*
X137945451Y-114021749D01*
X137825233Y-113929502D01*
X137685236Y-113871513D01*
X137626356Y-113863761D01*
X137576739Y-113857229D01*
X137576737Y-113857228D01*
X137572720Y-113856700D01*
X136747280Y-113856700D01*
X136743263Y-113857228D01*
X136743260Y-113857229D01*
X136634764Y-113871513D01*
X136494768Y-113929501D01*
X136374549Y-114021749D01*
X136282301Y-114141968D01*
X136224313Y-114281964D01*
X136218182Y-114328537D01*
X136209500Y-114394480D01*
X136209500Y-115119920D01*
X136214255Y-115156040D01*
X136217583Y-115181314D01*
X136206818Y-115250350D01*
X136160438Y-115302606D01*
X136094644Y-115321500D01*
X135685356Y-115321500D01*
X135618317Y-115301815D01*
X135572562Y-115249011D01*
X135562417Y-115181314D01*
X135570500Y-115119920D01*
X135570500Y-114394480D01*
X135555687Y-114281964D01*
X135497698Y-114141967D01*
X135405451Y-114021749D01*
X135285233Y-113929502D01*
X135145236Y-113871513D01*
X135086356Y-113863761D01*
X135036739Y-113857229D01*
X135036737Y-113857228D01*
X135032720Y-113856700D01*
X134207280Y-113856700D01*
X134203263Y-113857228D01*
X134203260Y-113857229D01*
X134094764Y-113871513D01*
X133954768Y-113929501D01*
X133834549Y-114021749D01*
X133742301Y-114141968D01*
X133684313Y-114281964D01*
X133678182Y-114328537D01*
X133669500Y-114394480D01*
X133669500Y-115119920D01*
X133674255Y-115156040D01*
X133677583Y-115181314D01*
X133666818Y-115250350D01*
X133620438Y-115302606D01*
X133554644Y-115321500D01*
X133145356Y-115321500D01*
X133078317Y-115301815D01*
X133032562Y-115249011D01*
X133022417Y-115181314D01*
X133030500Y-115119920D01*
X133030500Y-114394480D01*
X133015687Y-114281964D01*
X132957698Y-114141967D01*
X132865451Y-114021749D01*
X132745233Y-113929502D01*
X132605236Y-113871513D01*
X132546356Y-113863761D01*
X132496739Y-113857229D01*
X132496737Y-113857228D01*
X132492720Y-113856700D01*
X131667280Y-113856700D01*
X131663263Y-113857228D01*
X131663260Y-113857229D01*
X131554764Y-113871513D01*
X131414768Y-113929501D01*
X131294549Y-114021749D01*
X131202301Y-114141968D01*
X131144313Y-114281964D01*
X131138182Y-114328537D01*
X131129500Y-114394480D01*
X131129500Y-115119920D01*
X131134255Y-115156040D01*
X131137583Y-115181314D01*
X131126818Y-115250350D01*
X131080438Y-115302606D01*
X131014644Y-115321500D01*
X130605356Y-115321500D01*
X130538317Y-115301815D01*
X130492562Y-115249011D01*
X130482417Y-115181314D01*
X130490500Y-115119920D01*
X130490500Y-114394480D01*
X130475687Y-114281964D01*
X130417698Y-114141967D01*
X130325451Y-114021749D01*
X130205233Y-113929502D01*
X130065236Y-113871513D01*
X130006356Y-113863761D01*
X129956739Y-113857229D01*
X129956737Y-113857228D01*
X129952720Y-113856700D01*
X129127280Y-113856700D01*
X129123263Y-113857228D01*
X129123260Y-113857229D01*
X129014764Y-113871513D01*
X128874768Y-113929501D01*
X128754549Y-114021749D01*
X128662301Y-114141968D01*
X128604313Y-114281964D01*
X128598182Y-114328537D01*
X128589500Y-114394480D01*
X128589500Y-115119920D01*
X128594255Y-115156040D01*
X128597583Y-115181314D01*
X128586818Y-115250350D01*
X128540438Y-115302606D01*
X128474644Y-115321500D01*
X128065356Y-115321500D01*
X127998317Y-115301815D01*
X127952562Y-115249011D01*
X127942417Y-115181314D01*
X127950500Y-115119920D01*
X127950500Y-114394480D01*
X127935687Y-114281964D01*
X127877698Y-114141967D01*
X127785451Y-114021749D01*
X127665233Y-113929502D01*
X127525236Y-113871513D01*
X127466356Y-113863761D01*
X127416739Y-113857229D01*
X127416737Y-113857228D01*
X127412720Y-113856700D01*
X126587280Y-113856700D01*
X126583263Y-113857228D01*
X126583260Y-113857229D01*
X126474764Y-113871513D01*
X126334768Y-113929501D01*
X126214549Y-114021749D01*
X126122301Y-114141968D01*
X126064313Y-114281964D01*
X126058182Y-114328537D01*
X126049500Y-114394480D01*
X126049500Y-115119920D01*
X126054255Y-115156040D01*
X126057583Y-115181314D01*
X126046818Y-115250350D01*
X126000438Y-115302606D01*
X125934644Y-115321500D01*
X125781332Y-115321500D01*
X125714293Y-115301815D01*
X125668538Y-115249011D01*
X125657616Y-115189113D01*
X125659858Y-115156040D01*
X125660000Y-115151846D01*
X125660000Y-115007200D01*
X124775686Y-115007200D01*
X124787641Y-114995245D01*
X124845165Y-114882348D01*
X124864986Y-114757200D01*
X124845165Y-114632052D01*
X124787641Y-114519155D01*
X124775686Y-114507200D01*
X125659999Y-114507200D01*
X125660000Y-114362553D01*
X125659858Y-114358364D01*
X125657268Y-114320168D01*
X125613959Y-114146023D01*
X125534228Y-113985259D01*
X125421802Y-113845397D01*
X125281940Y-113732971D01*
X125121176Y-113653240D01*
X124947031Y-113609931D01*
X124908835Y-113607341D01*
X124904646Y-113607200D01*
X124710000Y-113607200D01*
X124710000Y-114441514D01*
X124698045Y-114429559D01*
X124585148Y-114372035D01*
X124491481Y-114357200D01*
X124428519Y-114357200D01*
X124334852Y-114372035D01*
X124221955Y-114429559D01*
X124210000Y-114441514D01*
X124210000Y-113607200D01*
X124015354Y-113607200D01*
X124011164Y-113607341D01*
X123972968Y-113609931D01*
X123798823Y-113653240D01*
X123638059Y-113732971D01*
X123597228Y-113765792D01*
X123532644Y-113792449D01*
X123463900Y-113779957D01*
X123431862Y-113756824D01*
X123004419Y-113329381D01*
X122970934Y-113268058D01*
X122975918Y-113198366D01*
X123017790Y-113142433D01*
X123083254Y-113118016D01*
X123092100Y-113117700D01*
X123598667Y-113117700D01*
X123602720Y-113117700D01*
X123715236Y-113102887D01*
X123855233Y-113044898D01*
X123975451Y-112952651D01*
X124067698Y-112832433D01*
X124125687Y-112692436D01*
X124140500Y-112579920D01*
X124779500Y-112579920D01*
X124794313Y-112692436D01*
X124804221Y-112716355D01*
X124851099Y-112829530D01*
X124852302Y-112832433D01*
X124944549Y-112952651D01*
X125064767Y-113044898D01*
X125204764Y-113102887D01*
X125317280Y-113117700D01*
X125321333Y-113117700D01*
X126138667Y-113117700D01*
X126142720Y-113117700D01*
X126255236Y-113102887D01*
X126395233Y-113044898D01*
X126515451Y-112952651D01*
X126607698Y-112832433D01*
X126665687Y-112692436D01*
X126680500Y-112579920D01*
X126680500Y-111854480D01*
X126665687Y-111741964D01*
X126607698Y-111601967D01*
X126515451Y-111481749D01*
X126395233Y-111389502D01*
X126255236Y-111331513D01*
X126196356Y-111323761D01*
X126146739Y-111317229D01*
X126146737Y-111317228D01*
X126142720Y-111316700D01*
X125317280Y-111316700D01*
X125313263Y-111317228D01*
X125313260Y-111317229D01*
X125204764Y-111331513D01*
X125064768Y-111389501D01*
X124944549Y-111481749D01*
X124852301Y-111601968D01*
X124794313Y-111741964D01*
X124781298Y-111840826D01*
X124779500Y-111854480D01*
X124779500Y-112579920D01*
X124140500Y-112579920D01*
X124140500Y-111854480D01*
X124125687Y-111741964D01*
X124067698Y-111601967D01*
X123975451Y-111481749D01*
X123855233Y-111389502D01*
X123715236Y-111331513D01*
X123656356Y-111323761D01*
X123606739Y-111317229D01*
X123606737Y-111317228D01*
X123602720Y-111316700D01*
X122777280Y-111316700D01*
X122773263Y-111317228D01*
X122773260Y-111317229D01*
X122664762Y-111331513D01*
X122631010Y-111345493D01*
X122561541Y-111352960D01*
X122499062Y-111321684D01*
X122481510Y-111301371D01*
X122410484Y-111198471D01*
X122406933Y-111195325D01*
X122292240Y-111093717D01*
X122253084Y-111073166D01*
X122152364Y-111020303D01*
X121998985Y-110982500D01*
X121841015Y-110982500D01*
X121687635Y-111020303D01*
X121547761Y-111093716D01*
X121429514Y-111198472D01*
X121358487Y-111301372D01*
X121304204Y-111345362D01*
X121234755Y-111353021D01*
X121208986Y-111345492D01*
X121175237Y-111331513D01*
X121066739Y-111317229D01*
X121066737Y-111317228D01*
X121062720Y-111316700D01*
X120237280Y-111316700D01*
X120233263Y-111317228D01*
X120233260Y-111317229D01*
X120124764Y-111331513D01*
X119984768Y-111389501D01*
X119864549Y-111481749D01*
X119772301Y-111601968D01*
X119714313Y-111741964D01*
X119701298Y-111840826D01*
X119699500Y-111854480D01*
X119699500Y-112579920D01*
X119714313Y-112692436D01*
X119724221Y-112716355D01*
X119771099Y-112829530D01*
X119772302Y-112832433D01*
X119864549Y-112952651D01*
X119984767Y-113044898D01*
X120124764Y-113102887D01*
X120237280Y-113117700D01*
X120241333Y-113117700D01*
X121058667Y-113117700D01*
X121062720Y-113117700D01*
X121175236Y-113102887D01*
X121315233Y-113044898D01*
X121426375Y-112959614D01*
X121491544Y-112934420D01*
X121559989Y-112948458D01*
X121595242Y-112982881D01*
X121595543Y-112982581D01*
X121603022Y-112990060D01*
X121604170Y-112991600D01*
X121609979Y-112997272D01*
X121613260Y-113003525D01*
X121613635Y-113004292D01*
X121613777Y-113004482D01*
X121619579Y-113009824D01*
X121619581Y-113009826D01*
X121658108Y-113045293D01*
X121661780Y-113048817D01*
X122257982Y-113645019D01*
X122291467Y-113706342D01*
X122286483Y-113776034D01*
X122244611Y-113831967D01*
X122179147Y-113856384D01*
X122170301Y-113856700D01*
X121507280Y-113856700D01*
X121503263Y-113857228D01*
X121503260Y-113857229D01*
X121394764Y-113871513D01*
X121254768Y-113929501D01*
X121134549Y-114021749D01*
X121042301Y-114141968D01*
X120984313Y-114281964D01*
X120978182Y-114328537D01*
X120969500Y-114394480D01*
X120969500Y-115119920D01*
X120984313Y-115232436D01*
X121042302Y-115372433D01*
X121134549Y-115492651D01*
X121254767Y-115584898D01*
X121394764Y-115642887D01*
X121507280Y-115657700D01*
X121511333Y-115657700D01*
X122328667Y-115657700D01*
X122332720Y-115657700D01*
X122445236Y-115642887D01*
X122585233Y-115584898D01*
X122705451Y-115492651D01*
X122727305Y-115464170D01*
X122783732Y-115422967D01*
X122853478Y-115418812D01*
X122914399Y-115453023D01*
X122947152Y-115514740D01*
X122948728Y-115524316D01*
X122953106Y-115559433D01*
X122953185Y-115559682D01*
X122981827Y-115612608D01*
X122984171Y-115617162D01*
X123010634Y-115671292D01*
X123010777Y-115671482D01*
X123016579Y-115676824D01*
X123016581Y-115676826D01*
X123055108Y-115712293D01*
X123058780Y-115715817D01*
X123268850Y-115925887D01*
X123284977Y-115945746D01*
X123290916Y-115954836D01*
X123315894Y-115974277D01*
X123327412Y-115984449D01*
X123327481Y-115984518D01*
X123344389Y-115996590D01*
X123348494Y-115999650D01*
X123357713Y-116006826D01*
X123396044Y-116036660D01*
X123396233Y-116036757D01*
X123403801Y-116039010D01*
X123453959Y-116053943D01*
X123458819Y-116055499D01*
X123508340Y-116072500D01*
X123508342Y-116072500D01*
X123515796Y-116075059D01*
X123516029Y-116075093D01*
X123523908Y-116074767D01*
X123523911Y-116074768D01*
X123576192Y-116072605D01*
X123581315Y-116072500D01*
X149697695Y-116072500D01*
X149723141Y-116075139D01*
X149726940Y-116075935D01*
X149733768Y-116077367D01*
X149763638Y-116073643D01*
X149765177Y-116073452D01*
X149780514Y-116072500D01*
X149780611Y-116072500D01*
X149780614Y-116072500D01*
X149801143Y-116069073D01*
X149806159Y-116068342D01*
X149858126Y-116061866D01*
X149858128Y-116061864D01*
X149865957Y-116060889D01*
X149866166Y-116060822D01*
X149873107Y-116057065D01*
X149873110Y-116057065D01*
X149919166Y-116032140D01*
X149923644Y-116029835D01*
X149970711Y-116006826D01*
X149970712Y-116006824D01*
X149977808Y-116003356D01*
X149977976Y-116003230D01*
X149983324Y-115997419D01*
X149983326Y-115997419D01*
X150018794Y-115958889D01*
X150022295Y-115955240D01*
X152498216Y-113479318D01*
X152559540Y-113445834D01*
X152585898Y-113443000D01*
X152732985Y-113443000D01*
X152886365Y-113405196D01*
X153026240Y-113331783D01*
X153144483Y-113227030D01*
X153234220Y-113097023D01*
X153290237Y-112949318D01*
X153309278Y-112792500D01*
X153290237Y-112635682D01*
X153270613Y-112583937D01*
X153260576Y-112557470D01*
X153255209Y-112487807D01*
X153288357Y-112426301D01*
X153349496Y-112392480D01*
X153376518Y-112389500D01*
X157019101Y-112389500D01*
X157086140Y-112409185D01*
X157106782Y-112425819D01*
X160225850Y-115544887D01*
X160241977Y-115564746D01*
X160247915Y-115573835D01*
X160272894Y-115593277D01*
X160284412Y-115603449D01*
X160284481Y-115603518D01*
X160301389Y-115615590D01*
X160305494Y-115618650D01*
X160346811Y-115650809D01*
X160346812Y-115650809D01*
X160353043Y-115655659D01*
X160353234Y-115655757D01*
X160360800Y-115658009D01*
X160360801Y-115658010D01*
X160410955Y-115672941D01*
X160415792Y-115674490D01*
X160465340Y-115691500D01*
X160472797Y-115694060D01*
X160473030Y-115694093D01*
X160480909Y-115693767D01*
X160480912Y-115693768D01*
X160533193Y-115691605D01*
X160538316Y-115691500D01*
X163191200Y-115691500D01*
X163258239Y-115711185D01*
X163303994Y-115763989D01*
X163314296Y-115800554D01*
X163320763Y-115853818D01*
X163376780Y-116001523D01*
X163466515Y-116131528D01*
X163466516Y-116131529D01*
X163466517Y-116131530D01*
X163584760Y-116236283D01*
X163724635Y-116309696D01*
X163878015Y-116347500D01*
X164035985Y-116347500D01*
X164189365Y-116309696D01*
X164329240Y-116236283D01*
X164447483Y-116131530D01*
X164537220Y-116001523D01*
X164593237Y-115853818D01*
X164612278Y-115697000D01*
X164593237Y-115540182D01*
X164537220Y-115392477D01*
X164447483Y-115262470D01*
X164329240Y-115157717D01*
X164299990Y-115142365D01*
X164189364Y-115084303D01*
X164035985Y-115046500D01*
X163884481Y-115046500D01*
X163817442Y-115026815D01*
X163812436Y-115023423D01*
X163802598Y-115016400D01*
X163798480Y-115013330D01*
X163757189Y-114981191D01*
X163757186Y-114981190D01*
X163750963Y-114976346D01*
X163750761Y-114976242D01*
X163743200Y-114973990D01*
X163743199Y-114973990D01*
X163693036Y-114959055D01*
X163688174Y-114957497D01*
X163676780Y-114953586D01*
X163631202Y-114937939D01*
X163630969Y-114937906D01*
X163585910Y-114939769D01*
X163570806Y-114940394D01*
X163565684Y-114940500D01*
X160734899Y-114940500D01*
X160667860Y-114920815D01*
X160647218Y-114904181D01*
X157836219Y-112093181D01*
X157802734Y-112031858D01*
X157807718Y-111962166D01*
X157849590Y-111906233D01*
X157915054Y-111881816D01*
X157923900Y-111881500D01*
X161718101Y-111881500D01*
X161785140Y-111901185D01*
X161805782Y-111917819D01*
X163273850Y-113385887D01*
X163289977Y-113405746D01*
X163295915Y-113414836D01*
X163320893Y-113434277D01*
X163332410Y-113444448D01*
X163332481Y-113444519D01*
X163349397Y-113456597D01*
X163353505Y-113459660D01*
X163401041Y-113496659D01*
X163401232Y-113496756D01*
X163408799Y-113499009D01*
X163408801Y-113499010D01*
X163458974Y-113513947D01*
X163463804Y-113515494D01*
X163513340Y-113532500D01*
X163513342Y-113532500D01*
X163520799Y-113535060D01*
X163521033Y-113535094D01*
X163528909Y-113534768D01*
X163528912Y-113534769D01*
X163579227Y-113532687D01*
X163581207Y-113532606D01*
X163586331Y-113532500D01*
X164413195Y-113532500D01*
X164438641Y-113535139D01*
X164442440Y-113535935D01*
X164449268Y-113537367D01*
X164479138Y-113533643D01*
X164480677Y-113533452D01*
X164496014Y-113532500D01*
X164496111Y-113532500D01*
X164496114Y-113532500D01*
X164516643Y-113529073D01*
X164521659Y-113528342D01*
X164573626Y-113521866D01*
X164573628Y-113521864D01*
X164581457Y-113520889D01*
X164581666Y-113520822D01*
X164588607Y-113517065D01*
X164588610Y-113517065D01*
X164634666Y-113492140D01*
X164639144Y-113489835D01*
X164686211Y-113466826D01*
X164686212Y-113466824D01*
X164693308Y-113463356D01*
X164693476Y-113463230D01*
X164698824Y-113457419D01*
X164698826Y-113457419D01*
X164734294Y-113418889D01*
X164737795Y-113415240D01*
X165071216Y-113081819D01*
X165132540Y-113048334D01*
X165158898Y-113045500D01*
X165305985Y-113045500D01*
X165459365Y-113007696D01*
X165599240Y-112934283D01*
X165717483Y-112829530D01*
X165807220Y-112699523D01*
X165863237Y-112551818D01*
X165882278Y-112395000D01*
X165863237Y-112238182D01*
X165807220Y-112090477D01*
X165717483Y-111960470D01*
X165599240Y-111855717D01*
X165501347Y-111804338D01*
X165459364Y-111782303D01*
X165305985Y-111744500D01*
X165148015Y-111744500D01*
X164994635Y-111782303D01*
X164854761Y-111855716D01*
X164736515Y-111960471D01*
X164694050Y-112021994D01*
X164639767Y-112065984D01*
X164570318Y-112073644D01*
X164507754Y-112042540D01*
X164489950Y-112021994D01*
X164447484Y-111960471D01*
X164380563Y-111901185D01*
X164329240Y-111855717D01*
X164231347Y-111804338D01*
X164189364Y-111782303D01*
X164035985Y-111744500D01*
X163878015Y-111744500D01*
X163724633Y-111782303D01*
X163571429Y-111862713D01*
X163569196Y-111858459D01*
X163532388Y-111875705D01*
X163463136Y-111866436D01*
X163425864Y-111840826D01*
X162662219Y-111077181D01*
X162628734Y-111015858D01*
X162633718Y-110946166D01*
X162675590Y-110890233D01*
X162741054Y-110865816D01*
X162749900Y-110865500D01*
X166798101Y-110865500D01*
X166865140Y-110885185D01*
X166885782Y-110901819D01*
X167355181Y-111371218D01*
X167388666Y-111432541D01*
X167391500Y-111458899D01*
X167391500Y-111802796D01*
X167371815Y-111869835D01*
X167349727Y-111895611D01*
X167276517Y-111960468D01*
X167186780Y-112090476D01*
X167130763Y-112238181D01*
X167111721Y-112394999D01*
X167130763Y-112551818D01*
X167186780Y-112699523D01*
X167276515Y-112829528D01*
X167276516Y-112829529D01*
X167276517Y-112829530D01*
X167394760Y-112934283D01*
X167534635Y-113007696D01*
X167688015Y-113045500D01*
X167845985Y-113045500D01*
X167999365Y-113007696D01*
X168139240Y-112934283D01*
X168257483Y-112829530D01*
X168347220Y-112699523D01*
X168403237Y-112551818D01*
X168422278Y-112395000D01*
X168403237Y-112238182D01*
X168347220Y-112090477D01*
X168257483Y-111960470D01*
X168257482Y-111960468D01*
X168184273Y-111895611D01*
X168147146Y-111836422D01*
X168142500Y-111802796D01*
X168142500Y-111303803D01*
X168145139Y-111278356D01*
X168147367Y-111267732D01*
X168143452Y-111236322D01*
X168142500Y-111220985D01*
X168142500Y-111220887D01*
X168142500Y-111220886D01*
X168139075Y-111200369D01*
X168138341Y-111195325D01*
X168130891Y-111135550D01*
X168130821Y-111135332D01*
X168127065Y-111128392D01*
X168127065Y-111128390D01*
X168102148Y-111082348D01*
X168099828Y-111077840D01*
X168076826Y-111030789D01*
X168076825Y-111030788D01*
X168073360Y-111023700D01*
X168073225Y-111023519D01*
X168041337Y-110994164D01*
X168028892Y-110982707D01*
X168025219Y-110979182D01*
X167615219Y-110569181D01*
X167581734Y-110507858D01*
X167586718Y-110438166D01*
X167628590Y-110382233D01*
X167694054Y-110357816D01*
X167702900Y-110357500D01*
X169338101Y-110357500D01*
X169405140Y-110377185D01*
X169425782Y-110393819D01*
X169895181Y-110863217D01*
X169928666Y-110924540D01*
X169931500Y-110950898D01*
X169931500Y-111802796D01*
X169911815Y-111869835D01*
X169889727Y-111895611D01*
X169816517Y-111960468D01*
X169726780Y-112090476D01*
X169670763Y-112238181D01*
X169651721Y-112394999D01*
X169670763Y-112551818D01*
X169726780Y-112699523D01*
X169816515Y-112829528D01*
X169816516Y-112829529D01*
X169816517Y-112829530D01*
X169934760Y-112934283D01*
X170074635Y-113007696D01*
X170228015Y-113045500D01*
X170385985Y-113045500D01*
X170539365Y-113007696D01*
X170679240Y-112934283D01*
X170797483Y-112829530D01*
X170839952Y-112768002D01*
X170894230Y-112724015D01*
X170963679Y-112716355D01*
X171026244Y-112747457D01*
X171044049Y-112768005D01*
X171086515Y-112829528D01*
X171086516Y-112829529D01*
X171086517Y-112829530D01*
X171204760Y-112934283D01*
X171344635Y-113007696D01*
X171498015Y-113045500D01*
X171655985Y-113045500D01*
X171809365Y-113007696D01*
X171949240Y-112934283D01*
X172067483Y-112829530D01*
X172157220Y-112699523D01*
X172213237Y-112551818D01*
X172232278Y-112395000D01*
X172213237Y-112238182D01*
X172157220Y-112090477D01*
X172067483Y-111960470D01*
X171949240Y-111855717D01*
X171851347Y-111804338D01*
X171809364Y-111782303D01*
X171655985Y-111744500D01*
X171508900Y-111744500D01*
X171441861Y-111724815D01*
X171421219Y-111708181D01*
X171226819Y-111513781D01*
X171193334Y-111452458D01*
X171190500Y-111426100D01*
X171190500Y-110541804D01*
X171193139Y-110516357D01*
X171195367Y-110505732D01*
X171191452Y-110474323D01*
X171190500Y-110458986D01*
X171190500Y-110458887D01*
X171190500Y-110458886D01*
X171187075Y-110438369D01*
X171186341Y-110433325D01*
X171178891Y-110373550D01*
X171178821Y-110373332D01*
X171175065Y-110366392D01*
X171175065Y-110366390D01*
X171150148Y-110320348D01*
X171147828Y-110315840D01*
X171124826Y-110268789D01*
X171124825Y-110268788D01*
X171121360Y-110261700D01*
X171121225Y-110261519D01*
X171115419Y-110256174D01*
X171076892Y-110220707D01*
X171073219Y-110217182D01*
X170101149Y-109245111D01*
X170085022Y-109225253D01*
X170079083Y-109216162D01*
X170054110Y-109196725D01*
X170042593Y-109186554D01*
X170042519Y-109186480D01*
X170025594Y-109174397D01*
X170021480Y-109171330D01*
X169980189Y-109139191D01*
X169980186Y-109139190D01*
X169973963Y-109134346D01*
X169973761Y-109134242D01*
X169966200Y-109131990D01*
X169966199Y-109131990D01*
X169916036Y-109117055D01*
X169911174Y-109115497D01*
X169899780Y-109111586D01*
X169854202Y-109095939D01*
X169853969Y-109095906D01*
X169808910Y-109097769D01*
X169793806Y-109098394D01*
X169788684Y-109098500D01*
X164019899Y-109098500D01*
X163952860Y-109078815D01*
X163907105Y-109026011D01*
X163897161Y-108956853D01*
X163926186Y-108893297D01*
X163932218Y-108886819D01*
X164566858Y-108252180D01*
X165346218Y-107472819D01*
X165407542Y-107439334D01*
X165433900Y-107436500D01*
X165900692Y-107436500D01*
X165967731Y-107456185D01*
X166002743Y-107490062D01*
X166006515Y-107495528D01*
X166006516Y-107495529D01*
X166006517Y-107495530D01*
X166124760Y-107600283D01*
X166264635Y-107673696D01*
X166418015Y-107711500D01*
X166575985Y-107711500D01*
X166729365Y-107673696D01*
X166869240Y-107600283D01*
X166987483Y-107495530D01*
X167077220Y-107365523D01*
X167133237Y-107217818D01*
X167152278Y-107061000D01*
X167133237Y-106904182D01*
X167109832Y-106842470D01*
X167104466Y-106772808D01*
X167137613Y-106711302D01*
X167198752Y-106677480D01*
X167225775Y-106674500D01*
X168068101Y-106674500D01*
X168135140Y-106694185D01*
X168155782Y-106710819D01*
X168352481Y-106907518D01*
X168385966Y-106968841D01*
X168387896Y-107010144D01*
X168381721Y-107060998D01*
X168400763Y-107217818D01*
X168456780Y-107365523D01*
X168546515Y-107495528D01*
X168546516Y-107495529D01*
X168546517Y-107495530D01*
X168664760Y-107600283D01*
X168804635Y-107673696D01*
X168958015Y-107711500D01*
X169115985Y-107711500D01*
X169269365Y-107673696D01*
X169409240Y-107600283D01*
X169527483Y-107495530D01*
X169617220Y-107365523D01*
X169673237Y-107217818D01*
X169692278Y-107061000D01*
X169673237Y-106904182D01*
X169617220Y-106756477D01*
X169527483Y-106626470D01*
X169409240Y-106521717D01*
X169354504Y-106492989D01*
X169269364Y-106448303D01*
X169115985Y-106410500D01*
X168968900Y-106410500D01*
X168901861Y-106390815D01*
X168881219Y-106374181D01*
X168577149Y-106070111D01*
X168561022Y-106050253D01*
X168555083Y-106041162D01*
X168530110Y-106021725D01*
X168518593Y-106011554D01*
X168518519Y-106011480D01*
X168501594Y-105999397D01*
X168497480Y-105996330D01*
X168456189Y-105964191D01*
X168456186Y-105964190D01*
X168449963Y-105959346D01*
X168449761Y-105959242D01*
X168442200Y-105956990D01*
X168442199Y-105956990D01*
X168392036Y-105942055D01*
X168387174Y-105940497D01*
X168368637Y-105934134D01*
X168330202Y-105920939D01*
X168329969Y-105920906D01*
X168290265Y-105922548D01*
X168269806Y-105923394D01*
X168264684Y-105923500D01*
X165151805Y-105923500D01*
X165126359Y-105920861D01*
X165115733Y-105918633D01*
X165115732Y-105918633D01*
X165097858Y-105920861D01*
X165084323Y-105922548D01*
X165068986Y-105923500D01*
X165068884Y-105923500D01*
X165048399Y-105926918D01*
X165043332Y-105927657D01*
X164983567Y-105935107D01*
X164983312Y-105935189D01*
X164930370Y-105963838D01*
X164925820Y-105966180D01*
X164871715Y-105992632D01*
X164871505Y-105992788D01*
X164830719Y-106037093D01*
X164827172Y-106040789D01*
X162821781Y-108046181D01*
X162760458Y-108079666D01*
X162734100Y-108082500D01*
X147145900Y-108082500D01*
X147078861Y-108062815D01*
X147058219Y-108046181D01*
X145438037Y-106425999D01*
X156195033Y-106425999D01*
X156214858Y-106652602D01*
X156273733Y-106872326D01*
X156369866Y-107078484D01*
X156420972Y-107151471D01*
X156420974Y-107151472D01*
X157102046Y-106470399D01*
X157114835Y-106551148D01*
X157172359Y-106664045D01*
X157261955Y-106753641D01*
X157374852Y-106811165D01*
X157455599Y-106823953D01*
X156774526Y-107505025D01*
X156774526Y-107505026D01*
X156847515Y-107556133D01*
X157053673Y-107652266D01*
X157273397Y-107711141D01*
X157500000Y-107730966D01*
X157726602Y-107711141D01*
X157946326Y-107652266D01*
X158152480Y-107556134D01*
X158225472Y-107505025D01*
X157544401Y-106823953D01*
X157625148Y-106811165D01*
X157738045Y-106753641D01*
X157827641Y-106664045D01*
X157885165Y-106551148D01*
X157897953Y-106470400D01*
X158579025Y-107151472D01*
X158630134Y-107078480D01*
X158726266Y-106872325D01*
X158759912Y-106746759D01*
X158796277Y-106687098D01*
X158859124Y-106656569D01*
X158928499Y-106664864D01*
X158982377Y-106709349D01*
X158998346Y-106742852D01*
X159024768Y-106829954D01*
X159122315Y-107012450D01*
X159162157Y-107060998D01*
X159253589Y-107172410D01*
X159308920Y-107217818D01*
X159413550Y-107303685D01*
X159596046Y-107401232D01*
X159794066Y-107461300D01*
X160000000Y-107481583D01*
X160205934Y-107461300D01*
X160403954Y-107401232D01*
X160586450Y-107303685D01*
X160746410Y-107172410D01*
X160877685Y-107012450D01*
X160975232Y-106829954D01*
X161035300Y-106631934D01*
X161055583Y-106426000D01*
X161035300Y-106220066D01*
X160975232Y-106022046D01*
X160877685Y-105839550D01*
X160800590Y-105745609D01*
X160746410Y-105679589D01*
X160644973Y-105596343D01*
X160586450Y-105548315D01*
X160403954Y-105450768D01*
X160293343Y-105417215D01*
X160205932Y-105390699D01*
X160000000Y-105370417D01*
X159794067Y-105390699D01*
X159596043Y-105450769D01*
X159413551Y-105548314D01*
X159253589Y-105679589D01*
X159122314Y-105839551D01*
X159024767Y-106022046D01*
X158998347Y-106109143D01*
X158960050Y-106167581D01*
X158896237Y-106196038D01*
X158827170Y-106185477D01*
X158774777Y-106139252D01*
X158759912Y-106105240D01*
X158726266Y-105979674D01*
X158630133Y-105773515D01*
X158579025Y-105700526D01*
X157897953Y-106381598D01*
X157885165Y-106300852D01*
X157827641Y-106187955D01*
X157738045Y-106098359D01*
X157625148Y-106040835D01*
X157544400Y-106028046D01*
X158225472Y-105346974D01*
X158225471Y-105346972D01*
X158152484Y-105295866D01*
X157946326Y-105199733D01*
X157726602Y-105140858D01*
X157500000Y-105121033D01*
X157273397Y-105140858D01*
X157053672Y-105199733D01*
X156847516Y-105295865D01*
X156774527Y-105346973D01*
X156774526Y-105346973D01*
X157455600Y-106028046D01*
X157374852Y-106040835D01*
X157261955Y-106098359D01*
X157172359Y-106187955D01*
X157114835Y-106300852D01*
X157102046Y-106381599D01*
X156420973Y-105700526D01*
X156420973Y-105700527D01*
X156369865Y-105773516D01*
X156273733Y-105979672D01*
X156214858Y-106199397D01*
X156195033Y-106425999D01*
X145438037Y-106425999D01*
X144828149Y-105816111D01*
X144812022Y-105796253D01*
X144806083Y-105787162D01*
X144781110Y-105767725D01*
X144769593Y-105757554D01*
X144769519Y-105757480D01*
X144752594Y-105745397D01*
X144748480Y-105742330D01*
X144707189Y-105710191D01*
X144707186Y-105710190D01*
X144700963Y-105705346D01*
X144700761Y-105705242D01*
X144693200Y-105702990D01*
X144693199Y-105702990D01*
X144643036Y-105688055D01*
X144638174Y-105686497D01*
X144619637Y-105680134D01*
X144581202Y-105666939D01*
X144580969Y-105666906D01*
X144541265Y-105668548D01*
X144520806Y-105669394D01*
X144515684Y-105669500D01*
X142037805Y-105669500D01*
X142012359Y-105666861D01*
X142001733Y-105664633D01*
X142001732Y-105664633D01*
X141983858Y-105666861D01*
X141970323Y-105668548D01*
X141954986Y-105669500D01*
X141954884Y-105669500D01*
X141934399Y-105672918D01*
X141929332Y-105673657D01*
X141869567Y-105681107D01*
X141869312Y-105681189D01*
X141816370Y-105709838D01*
X141811820Y-105712180D01*
X141757715Y-105738632D01*
X141757505Y-105738788D01*
X141716719Y-105783093D01*
X141713172Y-105786789D01*
X141375780Y-106124182D01*
X141314459Y-106157666D01*
X141288101Y-106160500D01*
X140557280Y-106160500D01*
X140553263Y-106161028D01*
X140553260Y-106161029D01*
X140444764Y-106175313D01*
X140304768Y-106233301D01*
X140184549Y-106325549D01*
X140092301Y-106445768D01*
X140034313Y-106585764D01*
X140021183Y-106685500D01*
X140019500Y-106698280D01*
X140019500Y-107423720D01*
X140020028Y-107427737D01*
X140020029Y-107427739D01*
X140036444Y-107552422D01*
X140034187Y-107552719D01*
X140039220Y-107599512D01*
X140007947Y-107661992D01*
X139947860Y-107697647D01*
X139917189Y-107701500D01*
X139652899Y-107701500D01*
X139585860Y-107681815D01*
X139565218Y-107665181D01*
X139416487Y-107516450D01*
X139383002Y-107455127D01*
X139380550Y-107422183D01*
X139380500Y-107423720D01*
X139380500Y-106698280D01*
X139365687Y-106585764D01*
X139307698Y-106445767D01*
X139215451Y-106325549D01*
X139095233Y-106233302D01*
X138955236Y-106175313D01*
X138896356Y-106167561D01*
X138846739Y-106161029D01*
X138846737Y-106161028D01*
X138842720Y-106160500D01*
X138017280Y-106160500D01*
X138013263Y-106161028D01*
X138013260Y-106161029D01*
X137904764Y-106175313D01*
X137764768Y-106233301D01*
X137644549Y-106325549D01*
X137552301Y-106445768D01*
X137494313Y-106585764D01*
X137481183Y-106685500D01*
X137479500Y-106698280D01*
X137479500Y-107423720D01*
X137480028Y-107427737D01*
X137480029Y-107427739D01*
X137496444Y-107552422D01*
X137494187Y-107552719D01*
X137499220Y-107599512D01*
X137467947Y-107661992D01*
X137407860Y-107697647D01*
X137377189Y-107701500D01*
X136942811Y-107701500D01*
X136875772Y-107681815D01*
X136830017Y-107629011D01*
X136820073Y-107559853D01*
X136824888Y-107542303D01*
X136825687Y-107536235D01*
X136840500Y-107423720D01*
X136840500Y-106698280D01*
X136825687Y-106585764D01*
X136767698Y-106445767D01*
X136675451Y-106325549D01*
X136555233Y-106233302D01*
X136415236Y-106175313D01*
X136356356Y-106167561D01*
X136306739Y-106161029D01*
X136306737Y-106161028D01*
X136302720Y-106160500D01*
X135477280Y-106160500D01*
X135473263Y-106161028D01*
X135473260Y-106161029D01*
X135364764Y-106175313D01*
X135224768Y-106233301D01*
X135104549Y-106325549D01*
X135012301Y-106445768D01*
X134954313Y-106585764D01*
X134941183Y-106685500D01*
X134939500Y-106698280D01*
X134939500Y-107423720D01*
X134940028Y-107427737D01*
X134940029Y-107427739D01*
X134956444Y-107552422D01*
X134954187Y-107552719D01*
X134959220Y-107599512D01*
X134927947Y-107661992D01*
X134867860Y-107697647D01*
X134837189Y-107701500D01*
X134402811Y-107701500D01*
X134335772Y-107681815D01*
X134290017Y-107629011D01*
X134280073Y-107559853D01*
X134284888Y-107542303D01*
X134285687Y-107536235D01*
X134300500Y-107423720D01*
X134300500Y-106698280D01*
X134285687Y-106585764D01*
X134227698Y-106445767D01*
X134135451Y-106325549D01*
X134015233Y-106233302D01*
X133875236Y-106175313D01*
X133816356Y-106167561D01*
X133766739Y-106161029D01*
X133766737Y-106161028D01*
X133762720Y-106160500D01*
X132937280Y-106160500D01*
X132933263Y-106161028D01*
X132933260Y-106161029D01*
X132824764Y-106175313D01*
X132684768Y-106233301D01*
X132564549Y-106325549D01*
X132472301Y-106445768D01*
X132414313Y-106585764D01*
X132401183Y-106685500D01*
X132399500Y-106698280D01*
X132399500Y-107423720D01*
X132400028Y-107427737D01*
X132400029Y-107427739D01*
X132416444Y-107552422D01*
X132414187Y-107552719D01*
X132419220Y-107599512D01*
X132387947Y-107661992D01*
X132327860Y-107697647D01*
X132297189Y-107701500D01*
X131862811Y-107701500D01*
X131795772Y-107681815D01*
X131750017Y-107629011D01*
X131740073Y-107559853D01*
X131744888Y-107542303D01*
X131745687Y-107536235D01*
X131760500Y-107423720D01*
X131760500Y-106698280D01*
X131745687Y-106585764D01*
X131687698Y-106445767D01*
X131595451Y-106325549D01*
X131475233Y-106233302D01*
X131335236Y-106175313D01*
X131276356Y-106167561D01*
X131226739Y-106161029D01*
X131226737Y-106161028D01*
X131222720Y-106160500D01*
X130397280Y-106160500D01*
X130393263Y-106161028D01*
X130393260Y-106161029D01*
X130284764Y-106175313D01*
X130144768Y-106233301D01*
X130024549Y-106325549D01*
X129932301Y-106445768D01*
X129874313Y-106585764D01*
X129861183Y-106685500D01*
X129859500Y-106698280D01*
X129859500Y-107423720D01*
X129860028Y-107427737D01*
X129860029Y-107427739D01*
X129876444Y-107552422D01*
X129874187Y-107552719D01*
X129879220Y-107599512D01*
X129847947Y-107661992D01*
X129787860Y-107697647D01*
X129757189Y-107701500D01*
X129322811Y-107701500D01*
X129255772Y-107681815D01*
X129210017Y-107629011D01*
X129200073Y-107559853D01*
X129204888Y-107542303D01*
X129205687Y-107536235D01*
X129220500Y-107423720D01*
X129220500Y-106698280D01*
X129205687Y-106585764D01*
X129147698Y-106445767D01*
X129055451Y-106325549D01*
X128935233Y-106233302D01*
X128795236Y-106175313D01*
X128736356Y-106167561D01*
X128686739Y-106161029D01*
X128686737Y-106161028D01*
X128682720Y-106160500D01*
X127857280Y-106160500D01*
X127853263Y-106161028D01*
X127853260Y-106161029D01*
X127744764Y-106175313D01*
X127604768Y-106233301D01*
X127484549Y-106325549D01*
X127392301Y-106445768D01*
X127334313Y-106585764D01*
X127321183Y-106685500D01*
X127319500Y-106698280D01*
X127319500Y-107423720D01*
X127320028Y-107427737D01*
X127320029Y-107427739D01*
X127336444Y-107552422D01*
X127334187Y-107552719D01*
X127339220Y-107599512D01*
X127307947Y-107661992D01*
X127247860Y-107697647D01*
X127217189Y-107701500D01*
X126782811Y-107701500D01*
X126715772Y-107681815D01*
X126670017Y-107629011D01*
X126660073Y-107559853D01*
X126664888Y-107542303D01*
X126665687Y-107536235D01*
X126680500Y-107423720D01*
X126680500Y-106698280D01*
X126665687Y-106585764D01*
X126607698Y-106445767D01*
X126515451Y-106325549D01*
X126395233Y-106233302D01*
X126255236Y-106175313D01*
X126196356Y-106167561D01*
X126146739Y-106161029D01*
X126146737Y-106161028D01*
X126142720Y-106160500D01*
X125317280Y-106160500D01*
X125313263Y-106161028D01*
X125313260Y-106161029D01*
X125204764Y-106175313D01*
X125064768Y-106233301D01*
X124944549Y-106325549D01*
X124852301Y-106445768D01*
X124794313Y-106585764D01*
X124781183Y-106685500D01*
X124779500Y-106698280D01*
X124779500Y-107423720D01*
X124780028Y-107427737D01*
X124780029Y-107427739D01*
X124796444Y-107552422D01*
X124794187Y-107552719D01*
X124799220Y-107599512D01*
X124767947Y-107661992D01*
X124707860Y-107697647D01*
X124677189Y-107701500D01*
X124242811Y-107701500D01*
X124175772Y-107681815D01*
X124130017Y-107629011D01*
X124120073Y-107559853D01*
X124124888Y-107542303D01*
X124125687Y-107536235D01*
X124140500Y-107423720D01*
X124140500Y-106698280D01*
X124125687Y-106585764D01*
X124067698Y-106445767D01*
X123975451Y-106325549D01*
X123855233Y-106233302D01*
X123715236Y-106175313D01*
X123656356Y-106167561D01*
X123606739Y-106161029D01*
X123606737Y-106161028D01*
X123602720Y-106160500D01*
X122777280Y-106160500D01*
X122773263Y-106161028D01*
X122773260Y-106161029D01*
X122664764Y-106175313D01*
X122524768Y-106233301D01*
X122404549Y-106325549D01*
X122312301Y-106445768D01*
X122254313Y-106585764D01*
X122241183Y-106685500D01*
X122239500Y-106698280D01*
X122239500Y-107423720D01*
X122240028Y-107427737D01*
X122240029Y-107427739D01*
X122256444Y-107552422D01*
X122254187Y-107552719D01*
X122259220Y-107599512D01*
X122227947Y-107661992D01*
X122167860Y-107697647D01*
X122137189Y-107701500D01*
X121872899Y-107701500D01*
X121805860Y-107681815D01*
X121785218Y-107665181D01*
X121636487Y-107516450D01*
X121603002Y-107455127D01*
X121600550Y-107422183D01*
X121600500Y-107423720D01*
X121600500Y-106698280D01*
X121585687Y-106585764D01*
X121527698Y-106445767D01*
X121435451Y-106325549D01*
X121315233Y-106233302D01*
X121175236Y-106175313D01*
X121116356Y-106167561D01*
X121066739Y-106161029D01*
X121066737Y-106161028D01*
X121062720Y-106160500D01*
X120237280Y-106160500D01*
X120233263Y-106161028D01*
X120233260Y-106161029D01*
X120124764Y-106175313D01*
X119984768Y-106233301D01*
X119864549Y-106325549D01*
X119772301Y-106445768D01*
X119714313Y-106585764D01*
X119701183Y-106685500D01*
X119699500Y-106698280D01*
X119699500Y-107423720D01*
X119700028Y-107427737D01*
X119700029Y-107427739D01*
X119701556Y-107439334D01*
X119714313Y-107536236D01*
X119772302Y-107676233D01*
X119864549Y-107796451D01*
X119984767Y-107888698D01*
X120124764Y-107946687D01*
X120237280Y-107961500D01*
X120354612Y-107961500D01*
X120421651Y-107981185D01*
X120467406Y-108033989D01*
X120477350Y-108103147D01*
X120448325Y-108166703D01*
X120389547Y-108204477D01*
X120375019Y-108207809D01*
X120344399Y-108212918D01*
X120339332Y-108213657D01*
X120279567Y-108221107D01*
X120279312Y-108221189D01*
X120226370Y-108249838D01*
X120221820Y-108252180D01*
X120167715Y-108278632D01*
X120167505Y-108278788D01*
X120126719Y-108323093D01*
X120123172Y-108326789D01*
X119785780Y-108664182D01*
X119724459Y-108697666D01*
X119698101Y-108700500D01*
X118655325Y-108700500D01*
X118582261Y-108715033D01*
X118499399Y-108770399D01*
X118444033Y-108853261D01*
X118429500Y-108926325D01*
X118429500Y-110275674D01*
X117094500Y-110275674D01*
X117094500Y-105796410D01*
X117094972Y-105785604D01*
X117098481Y-105745494D01*
X117111209Y-105616264D01*
X117114831Y-105596359D01*
X117132434Y-105530664D01*
X117133523Y-105526852D01*
X117161809Y-105433605D01*
X117168074Y-105417230D01*
X117199308Y-105350249D01*
X117202273Y-105344318D01*
X117245498Y-105263449D01*
X117253244Y-105250840D01*
X117296820Y-105188607D01*
X117302486Y-105181140D01*
X117359492Y-105111678D01*
X117367626Y-105102704D01*
X117421704Y-105048626D01*
X117430678Y-105040492D01*
X117500140Y-104983486D01*
X117507607Y-104977820D01*
X117569840Y-104934244D01*
X117582449Y-104926498D01*
X117663318Y-104883273D01*
X117669249Y-104880308D01*
X117736230Y-104849074D01*
X117752605Y-104842809D01*
X117845852Y-104814523D01*
X117849664Y-104813434D01*
X117915354Y-104795832D01*
X117935271Y-104792209D01*
X118064494Y-104779481D01*
X118104641Y-104775968D01*
X118115400Y-104775500D01*
X173984590Y-104775500D01*
X173995393Y-104775971D01*
G37*
G04 #@! TD.AperFunction*
M02*
