G04 #@! TF.GenerationSoftware,KiCad,Pcbnew,7.0.2-0*
G04 #@! TF.CreationDate,2023-06-03T15:31:31+02:00*
G04 #@! TF.ProjectId,MegaCD,4d656761-4344-42e6-9b69-6361645f7063,rev?*
G04 #@! TF.SameCoordinates,Original*
G04 #@! TF.FileFunction,Legend,Bot*
G04 #@! TF.FilePolarity,Positive*
%FSLAX46Y46*%
G04 Gerber Fmt 4.6, Leading zero omitted, Abs format (unit mm)*
G04 Created by KiCad (PCBNEW 7.0.2-0) date 2023-06-03 15:31:31*
%MOMM*%
%LPD*%
G01*
G04 APERTURE LIST*
G04 Aperture macros list*
%AMRoundRect*
0 Rectangle with rounded corners*
0 $1 Rounding radius*
0 $2 $3 $4 $5 $6 $7 $8 $9 X,Y pos of 4 corners*
0 Add a 4 corners polygon primitive as box body*
4,1,4,$2,$3,$4,$5,$6,$7,$8,$9,$2,$3,0*
0 Add four circle primitives for the rounded corners*
1,1,$1+$1,$2,$3*
1,1,$1+$1,$4,$5*
1,1,$1+$1,$6,$7*
1,1,$1+$1,$8,$9*
0 Add four rect primitives between the rounded corners*
20,1,$1+$1,$2,$3,$4,$5,0*
20,1,$1+$1,$4,$5,$6,$7,0*
20,1,$1+$1,$6,$7,$8,$9,0*
20,1,$1+$1,$8,$9,$2,$3,0*%
G04 Aperture macros list end*
%ADD10C,0.150000*%
%ADD11C,0.250000*%
%ADD12C,0.300000*%
%ADD13C,0.100000*%
%ADD14R,1.400000X1.300000*%
%ADD15RoundRect,0.325000X0.375000X-0.325000X0.375000X0.325000X-0.375000X0.325000X-0.375000X-0.325000X0*%
%ADD16C,1.600000*%
%ADD17RoundRect,0.255319X-0.344681X0.394681X-0.344681X-0.394681X0.344681X-0.394681X0.344681X0.394681X0*%
G04 APERTURE END LIST*
D10*
X153524634Y-126111000D02*
G75*
G03*
X153524634Y-126111000I-1150034J0D01*
G01*
X167545434Y-128651000D02*
G75*
G03*
X167545434Y-128651000I-1150034J0D01*
G01*
X121800034Y-107061000D02*
G75*
G03*
X121800034Y-107061000I-1150034J0D01*
G01*
X129420034Y-112217200D02*
G75*
G03*
X129420034Y-112217200I-1150034J0D01*
G01*
X123070034Y-114782600D02*
G75*
G03*
X123070034Y-114782600I-1150034J0D01*
G01*
X166257068Y-126111000D02*
G75*
G03*
X166257068Y-126111000I-1150034J0D01*
G01*
X124340034Y-117348000D02*
G75*
G03*
X124340034Y-117348000I-1150034J0D01*
G01*
X125610034Y-114782600D02*
G75*
G03*
X125610034Y-114782600I-1150034J0D01*
G01*
X138310034Y-119888000D02*
G75*
G03*
X138310034Y-119888000I-1150034J0D01*
G01*
X142120034Y-107061000D02*
G75*
G03*
X142120034Y-107061000I-1150034J0D01*
G01*
X126880034Y-117348000D02*
G75*
G03*
X126880034Y-117348000I-1150034J0D01*
G01*
X164987068Y-128651000D02*
G75*
G03*
X164987068Y-128651000I-1150034J0D01*
G01*
X124340034Y-107061000D02*
G75*
G03*
X124340034Y-107061000I-1150034J0D01*
G01*
X120530034Y-109601000D02*
G75*
G03*
X120530034Y-109601000I-1150034J0D01*
G01*
X154827068Y-128651000D02*
G75*
G03*
X154827068Y-128651000I-1150034J0D01*
G01*
X123070034Y-119888000D02*
G75*
G03*
X123070034Y-119888000I-1150034J0D01*
G01*
X144660034Y-107061000D02*
G75*
G03*
X144660034Y-107061000I-1150034J0D01*
G01*
X139580034Y-107061000D02*
G75*
G03*
X139580034Y-107061000I-1150034J0D01*
G01*
X138335434Y-114782600D02*
G75*
G03*
X138335434Y-114782600I-1150034J0D01*
G01*
X126880034Y-112217200D02*
G75*
G03*
X126880034Y-112217200I-1150034J0D01*
G01*
X140850034Y-109619366D02*
G75*
G03*
X140850034Y-109619366I-1150034J0D01*
G01*
X138335434Y-109619366D02*
G75*
G03*
X138335434Y-109619366I-1150034J0D01*
G01*
X162447068Y-128651000D02*
G75*
G03*
X162447068Y-128651000I-1150034J0D01*
G01*
X157385434Y-128651000D02*
G75*
G03*
X157385434Y-128651000I-1150034J0D01*
G01*
X124340034Y-112217200D02*
G75*
G03*
X124340034Y-112217200I-1150034J0D01*
G01*
X152254634Y-128651000D02*
G75*
G03*
X152254634Y-128651000I-1150034J0D01*
G01*
X163684634Y-126111000D02*
G75*
G03*
X163684634Y-126111000I-1150034J0D01*
G01*
X125610034Y-119888000D02*
G75*
G03*
X125610034Y-119888000I-1150034J0D01*
G01*
X128150034Y-119888000D02*
G75*
G03*
X128150034Y-119888000I-1150034J0D01*
G01*
X123070034Y-109601000D02*
G75*
G03*
X123070034Y-109601000I-1150034J0D01*
G01*
X125610034Y-109619366D02*
G75*
G03*
X125610034Y-109619366I-1150034J0D01*
G01*
X126880034Y-107061000D02*
G75*
G03*
X126880034Y-107061000I-1150034J0D01*
G01*
X156064634Y-126111000D02*
G75*
G03*
X156064634Y-126111000I-1150034J0D01*
G01*
X128150034Y-114782600D02*
G75*
G03*
X128150034Y-114782600I-1150034J0D01*
G01*
X159907068Y-128651000D02*
G75*
G03*
X159907068Y-128651000I-1150034J0D01*
G01*
X143390034Y-109619366D02*
G75*
G03*
X143390034Y-109619366I-1150034J0D01*
G01*
X128143000Y-109619366D02*
G75*
G03*
X128143000Y-109619366I-1150034J0D01*
G01*
X158604634Y-126111000D02*
G75*
G03*
X158604634Y-126111000I-1150034J0D01*
G01*
D11*
X172604429Y-119956142D02*
X173004429Y-119384714D01*
X173290143Y-119956142D02*
X173290143Y-118756142D01*
X173290143Y-118756142D02*
X172833000Y-118756142D01*
X172833000Y-118756142D02*
X172718715Y-118813285D01*
X172718715Y-118813285D02*
X172661572Y-118870428D01*
X172661572Y-118870428D02*
X172604429Y-118984714D01*
X172604429Y-118984714D02*
X172604429Y-119156142D01*
X172604429Y-119156142D02*
X172661572Y-119270428D01*
X172661572Y-119270428D02*
X172718715Y-119327571D01*
X172718715Y-119327571D02*
X172833000Y-119384714D01*
X172833000Y-119384714D02*
X173290143Y-119384714D01*
X172090143Y-119327571D02*
X171690143Y-119327571D01*
X171518715Y-119956142D02*
X172090143Y-119956142D01*
X172090143Y-119956142D02*
X172090143Y-118756142D01*
X172090143Y-118756142D02*
X171518715Y-118756142D01*
X170204429Y-120070428D02*
X170318715Y-120013285D01*
X170318715Y-120013285D02*
X170433001Y-119899000D01*
X170433001Y-119899000D02*
X170604429Y-119727571D01*
X170604429Y-119727571D02*
X170718715Y-119670428D01*
X170718715Y-119670428D02*
X170833001Y-119670428D01*
X170775858Y-119956142D02*
X170890144Y-119899000D01*
X170890144Y-119899000D02*
X171004429Y-119784714D01*
X171004429Y-119784714D02*
X171061572Y-119556142D01*
X171061572Y-119556142D02*
X171061572Y-119156142D01*
X171061572Y-119156142D02*
X171004429Y-118927571D01*
X171004429Y-118927571D02*
X170890144Y-118813285D01*
X170890144Y-118813285D02*
X170775858Y-118756142D01*
X170775858Y-118756142D02*
X170547286Y-118756142D01*
X170547286Y-118756142D02*
X170433001Y-118813285D01*
X170433001Y-118813285D02*
X170318715Y-118927571D01*
X170318715Y-118927571D02*
X170261572Y-119156142D01*
X170261572Y-119156142D02*
X170261572Y-119556142D01*
X170261572Y-119556142D02*
X170318715Y-119784714D01*
X170318715Y-119784714D02*
X170433001Y-119899000D01*
X170433001Y-119899000D02*
X170547286Y-119956142D01*
X170547286Y-119956142D02*
X170775858Y-119956142D01*
X169747286Y-118756142D02*
X169747286Y-119727571D01*
X169747286Y-119727571D02*
X169690143Y-119841857D01*
X169690143Y-119841857D02*
X169633001Y-119899000D01*
X169633001Y-119899000D02*
X169518715Y-119956142D01*
X169518715Y-119956142D02*
X169290143Y-119956142D01*
X169290143Y-119956142D02*
X169175858Y-119899000D01*
X169175858Y-119899000D02*
X169118715Y-119841857D01*
X169118715Y-119841857D02*
X169061572Y-119727571D01*
X169061572Y-119727571D02*
X169061572Y-118756142D01*
X168490143Y-119956142D02*
X168490143Y-118756142D01*
X167233000Y-119956142D02*
X167633000Y-119384714D01*
X167918714Y-119956142D02*
X167918714Y-118756142D01*
X167918714Y-118756142D02*
X167461571Y-118756142D01*
X167461571Y-118756142D02*
X167347286Y-118813285D01*
X167347286Y-118813285D02*
X167290143Y-118870428D01*
X167290143Y-118870428D02*
X167233000Y-118984714D01*
X167233000Y-118984714D02*
X167233000Y-119156142D01*
X167233000Y-119156142D02*
X167290143Y-119270428D01*
X167290143Y-119270428D02*
X167347286Y-119327571D01*
X167347286Y-119327571D02*
X167461571Y-119384714D01*
X167461571Y-119384714D02*
X167918714Y-119384714D01*
X166718714Y-119327571D02*
X166318714Y-119327571D01*
X166147286Y-119956142D02*
X166718714Y-119956142D01*
X166718714Y-119956142D02*
X166718714Y-118756142D01*
X166718714Y-118756142D02*
X166147286Y-118756142D01*
X165633000Y-119956142D02*
X165633000Y-118756142D01*
X165633000Y-118756142D02*
X165347286Y-118756142D01*
X165347286Y-118756142D02*
X165175857Y-118813285D01*
X165175857Y-118813285D02*
X165061572Y-118927571D01*
X165061572Y-118927571D02*
X165004429Y-119041857D01*
X165004429Y-119041857D02*
X164947286Y-119270428D01*
X164947286Y-119270428D02*
X164947286Y-119441857D01*
X164947286Y-119441857D02*
X165004429Y-119670428D01*
X165004429Y-119670428D02*
X165061572Y-119784714D01*
X165061572Y-119784714D02*
X165175857Y-119899000D01*
X165175857Y-119899000D02*
X165347286Y-119956142D01*
X165347286Y-119956142D02*
X165633000Y-119956142D01*
X163518714Y-119956142D02*
X163518714Y-118756142D01*
X163518714Y-118756142D02*
X163061571Y-118756142D01*
X163061571Y-118756142D02*
X162947286Y-118813285D01*
X162947286Y-118813285D02*
X162890143Y-118870428D01*
X162890143Y-118870428D02*
X162833000Y-118984714D01*
X162833000Y-118984714D02*
X162833000Y-119156142D01*
X162833000Y-119156142D02*
X162890143Y-119270428D01*
X162890143Y-119270428D02*
X162947286Y-119327571D01*
X162947286Y-119327571D02*
X163061571Y-119384714D01*
X163061571Y-119384714D02*
X163518714Y-119384714D01*
X162318714Y-119956142D02*
X162318714Y-118756142D01*
X161747285Y-119956142D02*
X161747285Y-118756142D01*
X161747285Y-118756142D02*
X161061571Y-119956142D01*
X161061571Y-119956142D02*
X161061571Y-118756142D01*
X160547285Y-119899000D02*
X160375857Y-119956142D01*
X160375857Y-119956142D02*
X160090142Y-119956142D01*
X160090142Y-119956142D02*
X159975857Y-119899000D01*
X159975857Y-119899000D02*
X159918714Y-119841857D01*
X159918714Y-119841857D02*
X159861571Y-119727571D01*
X159861571Y-119727571D02*
X159861571Y-119613285D01*
X159861571Y-119613285D02*
X159918714Y-119499000D01*
X159918714Y-119499000D02*
X159975857Y-119441857D01*
X159975857Y-119441857D02*
X160090142Y-119384714D01*
X160090142Y-119384714D02*
X160318714Y-119327571D01*
X160318714Y-119327571D02*
X160432999Y-119270428D01*
X160432999Y-119270428D02*
X160490142Y-119213285D01*
X160490142Y-119213285D02*
X160547285Y-119099000D01*
X160547285Y-119099000D02*
X160547285Y-118984714D01*
X160547285Y-118984714D02*
X160490142Y-118870428D01*
X160490142Y-118870428D02*
X160432999Y-118813285D01*
X160432999Y-118813285D02*
X160318714Y-118756142D01*
X160318714Y-118756142D02*
X160032999Y-118756142D01*
X160032999Y-118756142D02*
X159861571Y-118813285D01*
X157747285Y-119841857D02*
X157804428Y-119899000D01*
X157804428Y-119899000D02*
X157975856Y-119956142D01*
X157975856Y-119956142D02*
X158090142Y-119956142D01*
X158090142Y-119956142D02*
X158261571Y-119899000D01*
X158261571Y-119899000D02*
X158375856Y-119784714D01*
X158375856Y-119784714D02*
X158432999Y-119670428D01*
X158432999Y-119670428D02*
X158490142Y-119441857D01*
X158490142Y-119441857D02*
X158490142Y-119270428D01*
X158490142Y-119270428D02*
X158432999Y-119041857D01*
X158432999Y-119041857D02*
X158375856Y-118927571D01*
X158375856Y-118927571D02*
X158261571Y-118813285D01*
X158261571Y-118813285D02*
X158090142Y-118756142D01*
X158090142Y-118756142D02*
X157975856Y-118756142D01*
X157975856Y-118756142D02*
X157804428Y-118813285D01*
X157804428Y-118813285D02*
X157747285Y-118870428D01*
X157232999Y-119956142D02*
X157232999Y-118756142D01*
X155975856Y-119956142D02*
X156375856Y-119384714D01*
X156661570Y-119956142D02*
X156661570Y-118756142D01*
X156661570Y-118756142D02*
X156204427Y-118756142D01*
X156204427Y-118756142D02*
X156090142Y-118813285D01*
X156090142Y-118813285D02*
X156032999Y-118870428D01*
X156032999Y-118870428D02*
X155975856Y-118984714D01*
X155975856Y-118984714D02*
X155975856Y-119156142D01*
X155975856Y-119156142D02*
X156032999Y-119270428D01*
X156032999Y-119270428D02*
X156090142Y-119327571D01*
X156090142Y-119327571D02*
X156204427Y-119384714D01*
X156204427Y-119384714D02*
X156661570Y-119384714D01*
X154775856Y-119841857D02*
X154832999Y-119899000D01*
X154832999Y-119899000D02*
X155004427Y-119956142D01*
X155004427Y-119956142D02*
X155118713Y-119956142D01*
X155118713Y-119956142D02*
X155290142Y-119899000D01*
X155290142Y-119899000D02*
X155404427Y-119784714D01*
X155404427Y-119784714D02*
X155461570Y-119670428D01*
X155461570Y-119670428D02*
X155518713Y-119441857D01*
X155518713Y-119441857D02*
X155518713Y-119270428D01*
X155518713Y-119270428D02*
X155461570Y-119041857D01*
X155461570Y-119041857D02*
X155404427Y-118927571D01*
X155404427Y-118927571D02*
X155290142Y-118813285D01*
X155290142Y-118813285D02*
X155118713Y-118756142D01*
X155118713Y-118756142D02*
X155004427Y-118756142D01*
X155004427Y-118756142D02*
X154832999Y-118813285D01*
X154832999Y-118813285D02*
X154775856Y-118870428D01*
X153690142Y-119956142D02*
X154261570Y-119956142D01*
X154261570Y-119956142D02*
X154261570Y-118756142D01*
X153290141Y-119327571D02*
X152890141Y-119327571D01*
X152718713Y-119956142D02*
X153290141Y-119956142D01*
X153290141Y-119956142D02*
X153290141Y-118756142D01*
X153290141Y-118756142D02*
X152718713Y-118756142D01*
X152204427Y-119956142D02*
X152204427Y-118756142D01*
X152204427Y-118756142D02*
X151918713Y-118756142D01*
X151918713Y-118756142D02*
X151747284Y-118813285D01*
X151747284Y-118813285D02*
X151632999Y-118927571D01*
X151632999Y-118927571D02*
X151575856Y-119041857D01*
X151575856Y-119041857D02*
X151518713Y-119270428D01*
X151518713Y-119270428D02*
X151518713Y-119441857D01*
X151518713Y-119441857D02*
X151575856Y-119670428D01*
X151575856Y-119670428D02*
X151632999Y-119784714D01*
X151632999Y-119784714D02*
X151747284Y-119899000D01*
X151747284Y-119899000D02*
X151918713Y-119956142D01*
X151918713Y-119956142D02*
X152204427Y-119956142D01*
X172261572Y-121557285D02*
X171690144Y-121557285D01*
X172375858Y-121900142D02*
X171975858Y-120700142D01*
X171975858Y-120700142D02*
X171575858Y-121900142D01*
X170604430Y-121900142D02*
X171175858Y-121900142D01*
X171175858Y-121900142D02*
X171175858Y-120700142D01*
X169633001Y-121900142D02*
X170204429Y-121900142D01*
X170204429Y-121900142D02*
X170204429Y-120700142D01*
X168090143Y-120700142D02*
X167861571Y-120700142D01*
X167861571Y-120700142D02*
X167747286Y-120757285D01*
X167747286Y-120757285D02*
X167633000Y-120871571D01*
X167633000Y-120871571D02*
X167575857Y-121100142D01*
X167575857Y-121100142D02*
X167575857Y-121500142D01*
X167575857Y-121500142D02*
X167633000Y-121728714D01*
X167633000Y-121728714D02*
X167747286Y-121843000D01*
X167747286Y-121843000D02*
X167861571Y-121900142D01*
X167861571Y-121900142D02*
X168090143Y-121900142D01*
X168090143Y-121900142D02*
X168204429Y-121843000D01*
X168204429Y-121843000D02*
X168318714Y-121728714D01*
X168318714Y-121728714D02*
X168375857Y-121500142D01*
X168375857Y-121500142D02*
X168375857Y-121100142D01*
X168375857Y-121100142D02*
X168318714Y-120871571D01*
X168318714Y-120871571D02*
X168204429Y-120757285D01*
X168204429Y-120757285D02*
X168090143Y-120700142D01*
X167233000Y-120700142D02*
X166547286Y-120700142D01*
X166890143Y-121900142D02*
X166890143Y-120700142D01*
X166147285Y-121900142D02*
X166147285Y-120700142D01*
X166147285Y-121271571D02*
X165461571Y-121271571D01*
X165461571Y-121900142D02*
X165461571Y-120700142D01*
X164890142Y-121271571D02*
X164490142Y-121271571D01*
X164318714Y-121900142D02*
X164890142Y-121900142D01*
X164890142Y-121900142D02*
X164890142Y-120700142D01*
X164890142Y-120700142D02*
X164318714Y-120700142D01*
X163118714Y-121900142D02*
X163518714Y-121328714D01*
X163804428Y-121900142D02*
X163804428Y-120700142D01*
X163804428Y-120700142D02*
X163347285Y-120700142D01*
X163347285Y-120700142D02*
X163233000Y-120757285D01*
X163233000Y-120757285D02*
X163175857Y-120814428D01*
X163175857Y-120814428D02*
X163118714Y-120928714D01*
X163118714Y-120928714D02*
X163118714Y-121100142D01*
X163118714Y-121100142D02*
X163175857Y-121214428D01*
X163175857Y-121214428D02*
X163233000Y-121271571D01*
X163233000Y-121271571D02*
X163347285Y-121328714D01*
X163347285Y-121328714D02*
X163804428Y-121328714D01*
X162661571Y-121843000D02*
X162490143Y-121900142D01*
X162490143Y-121900142D02*
X162204428Y-121900142D01*
X162204428Y-121900142D02*
X162090143Y-121843000D01*
X162090143Y-121843000D02*
X162033000Y-121785857D01*
X162033000Y-121785857D02*
X161975857Y-121671571D01*
X161975857Y-121671571D02*
X161975857Y-121557285D01*
X161975857Y-121557285D02*
X162033000Y-121443000D01*
X162033000Y-121443000D02*
X162090143Y-121385857D01*
X162090143Y-121385857D02*
X162204428Y-121328714D01*
X162204428Y-121328714D02*
X162433000Y-121271571D01*
X162433000Y-121271571D02*
X162547285Y-121214428D01*
X162547285Y-121214428D02*
X162604428Y-121157285D01*
X162604428Y-121157285D02*
X162661571Y-121043000D01*
X162661571Y-121043000D02*
X162661571Y-120928714D01*
X162661571Y-120928714D02*
X162604428Y-120814428D01*
X162604428Y-120814428D02*
X162547285Y-120757285D01*
X162547285Y-120757285D02*
X162433000Y-120700142D01*
X162433000Y-120700142D02*
X162147285Y-120700142D01*
X162147285Y-120700142D02*
X161975857Y-120757285D01*
X160318714Y-120700142D02*
X160090142Y-120700142D01*
X160090142Y-120700142D02*
X159975857Y-120757285D01*
X159975857Y-120757285D02*
X159861571Y-120871571D01*
X159861571Y-120871571D02*
X159804428Y-121100142D01*
X159804428Y-121100142D02*
X159804428Y-121500142D01*
X159804428Y-121500142D02*
X159861571Y-121728714D01*
X159861571Y-121728714D02*
X159975857Y-121843000D01*
X159975857Y-121843000D02*
X160090142Y-121900142D01*
X160090142Y-121900142D02*
X160318714Y-121900142D01*
X160318714Y-121900142D02*
X160433000Y-121843000D01*
X160433000Y-121843000D02*
X160547285Y-121728714D01*
X160547285Y-121728714D02*
X160604428Y-121500142D01*
X160604428Y-121500142D02*
X160604428Y-121100142D01*
X160604428Y-121100142D02*
X160547285Y-120871571D01*
X160547285Y-120871571D02*
X160433000Y-120757285D01*
X160433000Y-120757285D02*
X160318714Y-120700142D01*
X159290142Y-121900142D02*
X159290142Y-120700142D01*
X159290142Y-120700142D02*
X158832999Y-120700142D01*
X158832999Y-120700142D02*
X158718714Y-120757285D01*
X158718714Y-120757285D02*
X158661571Y-120814428D01*
X158661571Y-120814428D02*
X158604428Y-120928714D01*
X158604428Y-120928714D02*
X158604428Y-121100142D01*
X158604428Y-121100142D02*
X158661571Y-121214428D01*
X158661571Y-121214428D02*
X158718714Y-121271571D01*
X158718714Y-121271571D02*
X158832999Y-121328714D01*
X158832999Y-121328714D02*
X159290142Y-121328714D01*
X158261571Y-120700142D02*
X157575857Y-120700142D01*
X157918714Y-121900142D02*
X157918714Y-120700142D01*
X157175856Y-121900142D02*
X157175856Y-120700142D01*
X156375856Y-120700142D02*
X156147284Y-120700142D01*
X156147284Y-120700142D02*
X156032999Y-120757285D01*
X156032999Y-120757285D02*
X155918713Y-120871571D01*
X155918713Y-120871571D02*
X155861570Y-121100142D01*
X155861570Y-121100142D02*
X155861570Y-121500142D01*
X155861570Y-121500142D02*
X155918713Y-121728714D01*
X155918713Y-121728714D02*
X156032999Y-121843000D01*
X156032999Y-121843000D02*
X156147284Y-121900142D01*
X156147284Y-121900142D02*
X156375856Y-121900142D01*
X156375856Y-121900142D02*
X156490142Y-121843000D01*
X156490142Y-121843000D02*
X156604427Y-121728714D01*
X156604427Y-121728714D02*
X156661570Y-121500142D01*
X156661570Y-121500142D02*
X156661570Y-121100142D01*
X156661570Y-121100142D02*
X156604427Y-120871571D01*
X156604427Y-120871571D02*
X156490142Y-120757285D01*
X156490142Y-120757285D02*
X156375856Y-120700142D01*
X155347284Y-121900142D02*
X155347284Y-120700142D01*
X155347284Y-120700142D02*
X154661570Y-121900142D01*
X154661570Y-121900142D02*
X154661570Y-120700142D01*
X154147284Y-121557285D02*
X153575856Y-121557285D01*
X154261570Y-121900142D02*
X153861570Y-120700142D01*
X153861570Y-120700142D02*
X153461570Y-121900142D01*
X152490142Y-121900142D02*
X153061570Y-121900142D01*
X153061570Y-121900142D02*
X153061570Y-120700142D01*
D12*
X173858904Y-108594628D02*
X172992238Y-108594628D01*
X172992238Y-108594628D02*
X173858904Y-110094628D01*
X173858904Y-110094628D02*
X172992238Y-110094628D01*
X172497000Y-110094628D02*
X172497000Y-108594628D01*
X171877952Y-110094628D02*
X171877952Y-108594628D01*
X171877952Y-108594628D02*
X171382714Y-108594628D01*
X171382714Y-108594628D02*
X171258904Y-108666057D01*
X171258904Y-108666057D02*
X171196999Y-108737485D01*
X171196999Y-108737485D02*
X171135095Y-108880342D01*
X171135095Y-108880342D02*
X171135095Y-109094628D01*
X171135095Y-109094628D02*
X171196999Y-109237485D01*
X171196999Y-109237485D02*
X171258904Y-109308914D01*
X171258904Y-109308914D02*
X171382714Y-109380342D01*
X171382714Y-109380342D02*
X171877952Y-109380342D01*
X170577952Y-109523200D02*
X169587476Y-109523200D01*
X169154142Y-108594628D02*
X168411285Y-108594628D01*
X168782713Y-110094628D02*
X168782713Y-108594628D01*
X167730333Y-108594628D02*
X167482714Y-108594628D01*
X167482714Y-108594628D02*
X167358904Y-108666057D01*
X167358904Y-108666057D02*
X167235095Y-108808914D01*
X167235095Y-108808914D02*
X167173190Y-109094628D01*
X167173190Y-109094628D02*
X167173190Y-109594628D01*
X167173190Y-109594628D02*
X167235095Y-109880342D01*
X167235095Y-109880342D02*
X167358904Y-110023200D01*
X167358904Y-110023200D02*
X167482714Y-110094628D01*
X167482714Y-110094628D02*
X167730333Y-110094628D01*
X167730333Y-110094628D02*
X167854142Y-110023200D01*
X167854142Y-110023200D02*
X167977952Y-109880342D01*
X167977952Y-109880342D02*
X168039856Y-109594628D01*
X168039856Y-109594628D02*
X168039856Y-109094628D01*
X168039856Y-109094628D02*
X167977952Y-108808914D01*
X167977952Y-108808914D02*
X167854142Y-108666057D01*
X167854142Y-108666057D02*
X167730333Y-108594628D01*
X166616047Y-109523200D02*
X165625571Y-109523200D01*
X165068427Y-110023200D02*
X164882713Y-110094628D01*
X164882713Y-110094628D02*
X164573189Y-110094628D01*
X164573189Y-110094628D02*
X164449380Y-110023200D01*
X164449380Y-110023200D02*
X164387475Y-109951771D01*
X164387475Y-109951771D02*
X164325570Y-109808914D01*
X164325570Y-109808914D02*
X164325570Y-109666057D01*
X164325570Y-109666057D02*
X164387475Y-109523200D01*
X164387475Y-109523200D02*
X164449380Y-109451771D01*
X164449380Y-109451771D02*
X164573189Y-109380342D01*
X164573189Y-109380342D02*
X164820808Y-109308914D01*
X164820808Y-109308914D02*
X164944618Y-109237485D01*
X164944618Y-109237485D02*
X165006523Y-109166057D01*
X165006523Y-109166057D02*
X165068427Y-109023200D01*
X165068427Y-109023200D02*
X165068427Y-108880342D01*
X165068427Y-108880342D02*
X165006523Y-108737485D01*
X165006523Y-108737485D02*
X164944618Y-108666057D01*
X164944618Y-108666057D02*
X164820808Y-108594628D01*
X164820808Y-108594628D02*
X164511285Y-108594628D01*
X164511285Y-108594628D02*
X164325570Y-108666057D01*
X163520809Y-108594628D02*
X163273190Y-108594628D01*
X163273190Y-108594628D02*
X163149380Y-108666057D01*
X163149380Y-108666057D02*
X163025571Y-108808914D01*
X163025571Y-108808914D02*
X162963666Y-109094628D01*
X162963666Y-109094628D02*
X162963666Y-109594628D01*
X162963666Y-109594628D02*
X163025571Y-109880342D01*
X163025571Y-109880342D02*
X163149380Y-110023200D01*
X163149380Y-110023200D02*
X163273190Y-110094628D01*
X163273190Y-110094628D02*
X163520809Y-110094628D01*
X163520809Y-110094628D02*
X163644618Y-110023200D01*
X163644618Y-110023200D02*
X163768428Y-109880342D01*
X163768428Y-109880342D02*
X163830332Y-109594628D01*
X163830332Y-109594628D02*
X163830332Y-109094628D01*
X163830332Y-109094628D02*
X163768428Y-108808914D01*
X163768428Y-108808914D02*
X163644618Y-108666057D01*
X163644618Y-108666057D02*
X163520809Y-108594628D01*
X162035094Y-108594628D02*
X162035094Y-109666057D01*
X162035094Y-109666057D02*
X162096999Y-109880342D01*
X162096999Y-109880342D02*
X162220808Y-110023200D01*
X162220808Y-110023200D02*
X162406523Y-110094628D01*
X162406523Y-110094628D02*
X162530332Y-110094628D01*
X160425571Y-110094628D02*
X160425571Y-108594628D01*
X160425571Y-108594628D02*
X160116047Y-108594628D01*
X160116047Y-108594628D02*
X159930333Y-108666057D01*
X159930333Y-108666057D02*
X159806523Y-108808914D01*
X159806523Y-108808914D02*
X159744618Y-108951771D01*
X159744618Y-108951771D02*
X159682714Y-109237485D01*
X159682714Y-109237485D02*
X159682714Y-109451771D01*
X159682714Y-109451771D02*
X159744618Y-109737485D01*
X159744618Y-109737485D02*
X159806523Y-109880342D01*
X159806523Y-109880342D02*
X159930333Y-110023200D01*
X159930333Y-110023200D02*
X160116047Y-110094628D01*
X160116047Y-110094628D02*
X160425571Y-110094628D01*
X158382714Y-110094628D02*
X158816047Y-109380342D01*
X159125571Y-110094628D02*
X159125571Y-108594628D01*
X159125571Y-108594628D02*
X158630333Y-108594628D01*
X158630333Y-108594628D02*
X158506523Y-108666057D01*
X158506523Y-108666057D02*
X158444618Y-108737485D01*
X158444618Y-108737485D02*
X158382714Y-108880342D01*
X158382714Y-108880342D02*
X158382714Y-109094628D01*
X158382714Y-109094628D02*
X158444618Y-109237485D01*
X158444618Y-109237485D02*
X158506523Y-109308914D01*
X158506523Y-109308914D02*
X158630333Y-109380342D01*
X158630333Y-109380342D02*
X159125571Y-109380342D01*
X157887475Y-109666057D02*
X157268428Y-109666057D01*
X158011285Y-110094628D02*
X157577952Y-108594628D01*
X157577952Y-108594628D02*
X157144618Y-110094628D01*
X156711285Y-110094628D02*
X156711285Y-108594628D01*
X156711285Y-108594628D02*
X156277951Y-109666057D01*
X156277951Y-109666057D02*
X155844618Y-108594628D01*
X155844618Y-108594628D02*
X155844618Y-110094628D01*
X154296999Y-109666057D02*
X153677952Y-109666057D01*
X154420809Y-110094628D02*
X153987476Y-108594628D01*
X153987476Y-108594628D02*
X153554142Y-110094628D01*
X153120809Y-110094628D02*
X153120809Y-108594628D01*
X153120809Y-108594628D02*
X152811285Y-108594628D01*
X152811285Y-108594628D02*
X152625571Y-108666057D01*
X152625571Y-108666057D02*
X152501761Y-108808914D01*
X152501761Y-108808914D02*
X152439856Y-108951771D01*
X152439856Y-108951771D02*
X152377952Y-109237485D01*
X152377952Y-109237485D02*
X152377952Y-109451771D01*
X152377952Y-109451771D02*
X152439856Y-109737485D01*
X152439856Y-109737485D02*
X152501761Y-109880342D01*
X152501761Y-109880342D02*
X152625571Y-110023200D01*
X152625571Y-110023200D02*
X152811285Y-110094628D01*
X152811285Y-110094628D02*
X153120809Y-110094628D01*
X151882713Y-109666057D02*
X151263666Y-109666057D01*
X152006523Y-110094628D02*
X151573190Y-108594628D01*
X151573190Y-108594628D02*
X151139856Y-110094628D01*
X150706523Y-110094628D02*
X150706523Y-108594628D01*
X150706523Y-108594628D02*
X150211285Y-108594628D01*
X150211285Y-108594628D02*
X150087475Y-108666057D01*
X150087475Y-108666057D02*
X150025570Y-108737485D01*
X150025570Y-108737485D02*
X149963666Y-108880342D01*
X149963666Y-108880342D02*
X149963666Y-109094628D01*
X149963666Y-109094628D02*
X150025570Y-109237485D01*
X150025570Y-109237485D02*
X150087475Y-109308914D01*
X150087475Y-109308914D02*
X150211285Y-109380342D01*
X150211285Y-109380342D02*
X150706523Y-109380342D01*
X149592237Y-108594628D02*
X148849380Y-108594628D01*
X149220808Y-110094628D02*
X149220808Y-108594628D01*
X148416047Y-109308914D02*
X147982713Y-109308914D01*
X147796999Y-110094628D02*
X148416047Y-110094628D01*
X148416047Y-110094628D02*
X148416047Y-108594628D01*
X148416047Y-108594628D02*
X147796999Y-108594628D01*
X146497000Y-110094628D02*
X146930333Y-109380342D01*
X147239857Y-110094628D02*
X147239857Y-108594628D01*
X147239857Y-108594628D02*
X146744619Y-108594628D01*
X146744619Y-108594628D02*
X146620809Y-108666057D01*
X146620809Y-108666057D02*
X146558904Y-108737485D01*
X146558904Y-108737485D02*
X146497000Y-108880342D01*
X146497000Y-108880342D02*
X146497000Y-109094628D01*
X146497000Y-109094628D02*
X146558904Y-109237485D01*
X146558904Y-109237485D02*
X146620809Y-109308914D01*
X146620809Y-109308914D02*
X146744619Y-109380342D01*
X146744619Y-109380342D02*
X147239857Y-109380342D01*
X172063665Y-111738914D02*
X172496999Y-111738914D01*
X172496999Y-112524628D02*
X172496999Y-111024628D01*
X172496999Y-111024628D02*
X171877951Y-111024628D01*
X171135094Y-111024628D02*
X170887475Y-111024628D01*
X170887475Y-111024628D02*
X170763665Y-111096057D01*
X170763665Y-111096057D02*
X170639856Y-111238914D01*
X170639856Y-111238914D02*
X170577951Y-111524628D01*
X170577951Y-111524628D02*
X170577951Y-112024628D01*
X170577951Y-112024628D02*
X170639856Y-112310342D01*
X170639856Y-112310342D02*
X170763665Y-112453200D01*
X170763665Y-112453200D02*
X170887475Y-112524628D01*
X170887475Y-112524628D02*
X171135094Y-112524628D01*
X171135094Y-112524628D02*
X171258903Y-112453200D01*
X171258903Y-112453200D02*
X171382713Y-112310342D01*
X171382713Y-112310342D02*
X171444617Y-112024628D01*
X171444617Y-112024628D02*
X171444617Y-111524628D01*
X171444617Y-111524628D02*
X171382713Y-111238914D01*
X171382713Y-111238914D02*
X171258903Y-111096057D01*
X171258903Y-111096057D02*
X171135094Y-111024628D01*
X169277951Y-112524628D02*
X169711284Y-111810342D01*
X170020808Y-112524628D02*
X170020808Y-111024628D01*
X170020808Y-111024628D02*
X169525570Y-111024628D01*
X169525570Y-111024628D02*
X169401760Y-111096057D01*
X169401760Y-111096057D02*
X169339855Y-111167485D01*
X169339855Y-111167485D02*
X169277951Y-111310342D01*
X169277951Y-111310342D02*
X169277951Y-111524628D01*
X169277951Y-111524628D02*
X169339855Y-111667485D01*
X169339855Y-111667485D02*
X169401760Y-111738914D01*
X169401760Y-111738914D02*
X169525570Y-111810342D01*
X169525570Y-111810342D02*
X170020808Y-111810342D01*
X167730332Y-112524628D02*
X167730332Y-111024628D01*
X167730332Y-111024628D02*
X167296998Y-112096057D01*
X167296998Y-112096057D02*
X166863665Y-111024628D01*
X166863665Y-111024628D02*
X166863665Y-112524628D01*
X166244618Y-111738914D02*
X165811284Y-111738914D01*
X165625570Y-112524628D02*
X166244618Y-112524628D01*
X166244618Y-112524628D02*
X166244618Y-111024628D01*
X166244618Y-111024628D02*
X165625570Y-111024628D01*
X164387475Y-111096057D02*
X164511285Y-111024628D01*
X164511285Y-111024628D02*
X164696999Y-111024628D01*
X164696999Y-111024628D02*
X164882713Y-111096057D01*
X164882713Y-111096057D02*
X165006523Y-111238914D01*
X165006523Y-111238914D02*
X165068428Y-111381771D01*
X165068428Y-111381771D02*
X165130332Y-111667485D01*
X165130332Y-111667485D02*
X165130332Y-111881771D01*
X165130332Y-111881771D02*
X165068428Y-112167485D01*
X165068428Y-112167485D02*
X165006523Y-112310342D01*
X165006523Y-112310342D02*
X164882713Y-112453200D01*
X164882713Y-112453200D02*
X164696999Y-112524628D01*
X164696999Y-112524628D02*
X164573190Y-112524628D01*
X164573190Y-112524628D02*
X164387475Y-112453200D01*
X164387475Y-112453200D02*
X164325571Y-112381771D01*
X164325571Y-112381771D02*
X164325571Y-111881771D01*
X164325571Y-111881771D02*
X164573190Y-111881771D01*
X163830332Y-112096057D02*
X163211285Y-112096057D01*
X163954142Y-112524628D02*
X163520809Y-111024628D01*
X163520809Y-111024628D02*
X163087475Y-112524628D01*
X162654142Y-111953200D02*
X161663666Y-111953200D01*
X160301761Y-112381771D02*
X160363665Y-112453200D01*
X160363665Y-112453200D02*
X160549380Y-112524628D01*
X160549380Y-112524628D02*
X160673189Y-112524628D01*
X160673189Y-112524628D02*
X160858903Y-112453200D01*
X160858903Y-112453200D02*
X160982713Y-112310342D01*
X160982713Y-112310342D02*
X161044618Y-112167485D01*
X161044618Y-112167485D02*
X161106522Y-111881771D01*
X161106522Y-111881771D02*
X161106522Y-111667485D01*
X161106522Y-111667485D02*
X161044618Y-111381771D01*
X161044618Y-111381771D02*
X160982713Y-111238914D01*
X160982713Y-111238914D02*
X160858903Y-111096057D01*
X160858903Y-111096057D02*
X160673189Y-111024628D01*
X160673189Y-111024628D02*
X160549380Y-111024628D01*
X160549380Y-111024628D02*
X160363665Y-111096057D01*
X160363665Y-111096057D02*
X160301761Y-111167485D01*
X159744618Y-112524628D02*
X159744618Y-111024628D01*
X159744618Y-111024628D02*
X159435094Y-111024628D01*
X159435094Y-111024628D02*
X159249380Y-111096057D01*
X159249380Y-111096057D02*
X159125570Y-111238914D01*
X159125570Y-111238914D02*
X159063665Y-111381771D01*
X159063665Y-111381771D02*
X159001761Y-111667485D01*
X159001761Y-111667485D02*
X159001761Y-111881771D01*
X159001761Y-111881771D02*
X159063665Y-112167485D01*
X159063665Y-112167485D02*
X159125570Y-112310342D01*
X159125570Y-112310342D02*
X159249380Y-112453200D01*
X159249380Y-112453200D02*
X159435094Y-112524628D01*
X159435094Y-112524628D02*
X159744618Y-112524628D01*
X157268427Y-111667485D02*
X157392237Y-111596057D01*
X157392237Y-111596057D02*
X157454142Y-111524628D01*
X157454142Y-111524628D02*
X157516046Y-111381771D01*
X157516046Y-111381771D02*
X157516046Y-111310342D01*
X157516046Y-111310342D02*
X157454142Y-111167485D01*
X157454142Y-111167485D02*
X157392237Y-111096057D01*
X157392237Y-111096057D02*
X157268427Y-111024628D01*
X157268427Y-111024628D02*
X157020808Y-111024628D01*
X157020808Y-111024628D02*
X156896999Y-111096057D01*
X156896999Y-111096057D02*
X156835094Y-111167485D01*
X156835094Y-111167485D02*
X156773189Y-111310342D01*
X156773189Y-111310342D02*
X156773189Y-111381771D01*
X156773189Y-111381771D02*
X156835094Y-111524628D01*
X156835094Y-111524628D02*
X156896999Y-111596057D01*
X156896999Y-111596057D02*
X157020808Y-111667485D01*
X157020808Y-111667485D02*
X157268427Y-111667485D01*
X157268427Y-111667485D02*
X157392237Y-111738914D01*
X157392237Y-111738914D02*
X157454142Y-111810342D01*
X157454142Y-111810342D02*
X157516046Y-111953200D01*
X157516046Y-111953200D02*
X157516046Y-112238914D01*
X157516046Y-112238914D02*
X157454142Y-112381771D01*
X157454142Y-112381771D02*
X157392237Y-112453200D01*
X157392237Y-112453200D02*
X157268427Y-112524628D01*
X157268427Y-112524628D02*
X157020808Y-112524628D01*
X157020808Y-112524628D02*
X156896999Y-112453200D01*
X156896999Y-112453200D02*
X156835094Y-112381771D01*
X156835094Y-112381771D02*
X156773189Y-112238914D01*
X156773189Y-112238914D02*
X156773189Y-111953200D01*
X156773189Y-111953200D02*
X156835094Y-111810342D01*
X156835094Y-111810342D02*
X156896999Y-111738914D01*
X156896999Y-111738914D02*
X157020808Y-111667485D01*
X156339856Y-111024628D02*
X155535094Y-111024628D01*
X155535094Y-111024628D02*
X155968428Y-111596057D01*
X155968428Y-111596057D02*
X155782713Y-111596057D01*
X155782713Y-111596057D02*
X155658904Y-111667485D01*
X155658904Y-111667485D02*
X155596999Y-111738914D01*
X155596999Y-111738914D02*
X155535094Y-111881771D01*
X155535094Y-111881771D02*
X155535094Y-112238914D01*
X155535094Y-112238914D02*
X155596999Y-112381771D01*
X155596999Y-112381771D02*
X155658904Y-112453200D01*
X155658904Y-112453200D02*
X155782713Y-112524628D01*
X155782713Y-112524628D02*
X156154142Y-112524628D01*
X156154142Y-112524628D02*
X156277951Y-112453200D01*
X156277951Y-112453200D02*
X156339856Y-112381771D01*
X155101761Y-111024628D02*
X154235095Y-111024628D01*
X154235095Y-111024628D02*
X154792237Y-112524628D01*
X153739857Y-111953200D02*
X152749381Y-111953200D01*
X151944618Y-111667485D02*
X152068428Y-111596057D01*
X152068428Y-111596057D02*
X152130333Y-111524628D01*
X152130333Y-111524628D02*
X152192237Y-111381771D01*
X152192237Y-111381771D02*
X152192237Y-111310342D01*
X152192237Y-111310342D02*
X152130333Y-111167485D01*
X152130333Y-111167485D02*
X152068428Y-111096057D01*
X152068428Y-111096057D02*
X151944618Y-111024628D01*
X151944618Y-111024628D02*
X151696999Y-111024628D01*
X151696999Y-111024628D02*
X151573190Y-111096057D01*
X151573190Y-111096057D02*
X151511285Y-111167485D01*
X151511285Y-111167485D02*
X151449380Y-111310342D01*
X151449380Y-111310342D02*
X151449380Y-111381771D01*
X151449380Y-111381771D02*
X151511285Y-111524628D01*
X151511285Y-111524628D02*
X151573190Y-111596057D01*
X151573190Y-111596057D02*
X151696999Y-111667485D01*
X151696999Y-111667485D02*
X151944618Y-111667485D01*
X151944618Y-111667485D02*
X152068428Y-111738914D01*
X152068428Y-111738914D02*
X152130333Y-111810342D01*
X152130333Y-111810342D02*
X152192237Y-111953200D01*
X152192237Y-111953200D02*
X152192237Y-112238914D01*
X152192237Y-112238914D02*
X152130333Y-112381771D01*
X152130333Y-112381771D02*
X152068428Y-112453200D01*
X152068428Y-112453200D02*
X151944618Y-112524628D01*
X151944618Y-112524628D02*
X151696999Y-112524628D01*
X151696999Y-112524628D02*
X151573190Y-112453200D01*
X151573190Y-112453200D02*
X151511285Y-112381771D01*
X151511285Y-112381771D02*
X151449380Y-112238914D01*
X151449380Y-112238914D02*
X151449380Y-111953200D01*
X151449380Y-111953200D02*
X151511285Y-111810342D01*
X151511285Y-111810342D02*
X151573190Y-111738914D01*
X151573190Y-111738914D02*
X151696999Y-111667485D01*
X150644619Y-111024628D02*
X150520809Y-111024628D01*
X150520809Y-111024628D02*
X150397000Y-111096057D01*
X150397000Y-111096057D02*
X150335095Y-111167485D01*
X150335095Y-111167485D02*
X150273190Y-111310342D01*
X150273190Y-111310342D02*
X150211285Y-111596057D01*
X150211285Y-111596057D02*
X150211285Y-111953200D01*
X150211285Y-111953200D02*
X150273190Y-112238914D01*
X150273190Y-112238914D02*
X150335095Y-112381771D01*
X150335095Y-112381771D02*
X150397000Y-112453200D01*
X150397000Y-112453200D02*
X150520809Y-112524628D01*
X150520809Y-112524628D02*
X150644619Y-112524628D01*
X150644619Y-112524628D02*
X150768428Y-112453200D01*
X150768428Y-112453200D02*
X150830333Y-112381771D01*
X150830333Y-112381771D02*
X150892238Y-112238914D01*
X150892238Y-112238914D02*
X150954142Y-111953200D01*
X150954142Y-111953200D02*
X150954142Y-111596057D01*
X150954142Y-111596057D02*
X150892238Y-111310342D01*
X150892238Y-111310342D02*
X150830333Y-111167485D01*
X150830333Y-111167485D02*
X150768428Y-111096057D01*
X150768428Y-111096057D02*
X150644619Y-111024628D01*
X148973190Y-112524628D02*
X149716047Y-112524628D01*
X149344619Y-112524628D02*
X149344619Y-111024628D01*
X149344619Y-111024628D02*
X149468428Y-111238914D01*
X149468428Y-111238914D02*
X149592238Y-111381771D01*
X149592238Y-111381771D02*
X149716047Y-111453200D01*
X147797000Y-111024628D02*
X148416048Y-111024628D01*
X148416048Y-111024628D02*
X148477952Y-111738914D01*
X148477952Y-111738914D02*
X148416048Y-111667485D01*
X148416048Y-111667485D02*
X148292238Y-111596057D01*
X148292238Y-111596057D02*
X147982714Y-111596057D01*
X147982714Y-111596057D02*
X147858905Y-111667485D01*
X147858905Y-111667485D02*
X147797000Y-111738914D01*
X147797000Y-111738914D02*
X147735095Y-111881771D01*
X147735095Y-111881771D02*
X147735095Y-112238914D01*
X147735095Y-112238914D02*
X147797000Y-112381771D01*
X147797000Y-112381771D02*
X147858905Y-112453200D01*
X147858905Y-112453200D02*
X147982714Y-112524628D01*
X147982714Y-112524628D02*
X148292238Y-112524628D01*
X148292238Y-112524628D02*
X148416048Y-112453200D01*
X148416048Y-112453200D02*
X148477952Y-112381771D01*
X173270808Y-114954628D02*
X173704141Y-114240342D01*
X174013665Y-114954628D02*
X174013665Y-113454628D01*
X174013665Y-113454628D02*
X173518427Y-113454628D01*
X173518427Y-113454628D02*
X173394617Y-113526057D01*
X173394617Y-113526057D02*
X173332712Y-113597485D01*
X173332712Y-113597485D02*
X173270808Y-113740342D01*
X173270808Y-113740342D02*
X173270808Y-113954628D01*
X173270808Y-113954628D02*
X173332712Y-114097485D01*
X173332712Y-114097485D02*
X173394617Y-114168914D01*
X173394617Y-114168914D02*
X173518427Y-114240342D01*
X173518427Y-114240342D02*
X174013665Y-114240342D01*
X172713665Y-114168914D02*
X172280331Y-114168914D01*
X172094617Y-114954628D02*
X172713665Y-114954628D01*
X172713665Y-114954628D02*
X172713665Y-113454628D01*
X172713665Y-113454628D02*
X172094617Y-113454628D01*
X171723189Y-113454628D02*
X171289856Y-114954628D01*
X171289856Y-114954628D02*
X170856522Y-113454628D01*
X168751760Y-114954628D02*
X169494617Y-114954628D01*
X169123189Y-114954628D02*
X169123189Y-113454628D01*
X169123189Y-113454628D02*
X169246998Y-113668914D01*
X169246998Y-113668914D02*
X169370808Y-113811771D01*
X169370808Y-113811771D02*
X169494617Y-113883200D01*
X168194618Y-114811771D02*
X168132713Y-114883200D01*
X168132713Y-114883200D02*
X168194618Y-114954628D01*
X168194618Y-114954628D02*
X168256522Y-114883200D01*
X168256522Y-114883200D02*
X168194618Y-114811771D01*
X168194618Y-114811771D02*
X168194618Y-114954628D01*
X167327951Y-113454628D02*
X167204141Y-113454628D01*
X167204141Y-113454628D02*
X167080332Y-113526057D01*
X167080332Y-113526057D02*
X167018427Y-113597485D01*
X167018427Y-113597485D02*
X166956522Y-113740342D01*
X166956522Y-113740342D02*
X166894617Y-114026057D01*
X166894617Y-114026057D02*
X166894617Y-114383200D01*
X166894617Y-114383200D02*
X166956522Y-114668914D01*
X166956522Y-114668914D02*
X167018427Y-114811771D01*
X167018427Y-114811771D02*
X167080332Y-114883200D01*
X167080332Y-114883200D02*
X167204141Y-114954628D01*
X167204141Y-114954628D02*
X167327951Y-114954628D01*
X167327951Y-114954628D02*
X167451760Y-114883200D01*
X167451760Y-114883200D02*
X167513665Y-114811771D01*
X167513665Y-114811771D02*
X167575570Y-114668914D01*
X167575570Y-114668914D02*
X167637474Y-114383200D01*
X167637474Y-114383200D02*
X167637474Y-114026057D01*
X167637474Y-114026057D02*
X167575570Y-113740342D01*
X167575570Y-113740342D02*
X167513665Y-113597485D01*
X167513665Y-113597485D02*
X167451760Y-113526057D01*
X167451760Y-113526057D02*
X167327951Y-113454628D01*
X164913665Y-114168914D02*
X164727951Y-114240342D01*
X164727951Y-114240342D02*
X164666046Y-114311771D01*
X164666046Y-114311771D02*
X164604142Y-114454628D01*
X164604142Y-114454628D02*
X164604142Y-114668914D01*
X164604142Y-114668914D02*
X164666046Y-114811771D01*
X164666046Y-114811771D02*
X164727951Y-114883200D01*
X164727951Y-114883200D02*
X164851761Y-114954628D01*
X164851761Y-114954628D02*
X165346999Y-114954628D01*
X165346999Y-114954628D02*
X165346999Y-113454628D01*
X165346999Y-113454628D02*
X164913665Y-113454628D01*
X164913665Y-113454628D02*
X164789856Y-113526057D01*
X164789856Y-113526057D02*
X164727951Y-113597485D01*
X164727951Y-113597485D02*
X164666046Y-113740342D01*
X164666046Y-113740342D02*
X164666046Y-113883200D01*
X164666046Y-113883200D02*
X164727951Y-114026057D01*
X164727951Y-114026057D02*
X164789856Y-114097485D01*
X164789856Y-114097485D02*
X164913665Y-114168914D01*
X164913665Y-114168914D02*
X165346999Y-114168914D01*
X163799380Y-114240342D02*
X163799380Y-114954628D01*
X164232713Y-113454628D02*
X163799380Y-114240342D01*
X163799380Y-114240342D02*
X163366046Y-113454628D01*
X161199380Y-114811771D02*
X161261284Y-114883200D01*
X161261284Y-114883200D02*
X161446999Y-114954628D01*
X161446999Y-114954628D02*
X161570808Y-114954628D01*
X161570808Y-114954628D02*
X161756522Y-114883200D01*
X161756522Y-114883200D02*
X161880332Y-114740342D01*
X161880332Y-114740342D02*
X161942237Y-114597485D01*
X161942237Y-114597485D02*
X162004141Y-114311771D01*
X162004141Y-114311771D02*
X162004141Y-114097485D01*
X162004141Y-114097485D02*
X161942237Y-113811771D01*
X161942237Y-113811771D02*
X161880332Y-113668914D01*
X161880332Y-113668914D02*
X161756522Y-113526057D01*
X161756522Y-113526057D02*
X161570808Y-113454628D01*
X161570808Y-113454628D02*
X161446999Y-113454628D01*
X161446999Y-113454628D02*
X161261284Y-113526057D01*
X161261284Y-113526057D02*
X161199380Y-113597485D01*
X160394618Y-113454628D02*
X160146999Y-113454628D01*
X160146999Y-113454628D02*
X160023189Y-113526057D01*
X160023189Y-113526057D02*
X159899380Y-113668914D01*
X159899380Y-113668914D02*
X159837475Y-113954628D01*
X159837475Y-113954628D02*
X159837475Y-114454628D01*
X159837475Y-114454628D02*
X159899380Y-114740342D01*
X159899380Y-114740342D02*
X160023189Y-114883200D01*
X160023189Y-114883200D02*
X160146999Y-114954628D01*
X160146999Y-114954628D02*
X160394618Y-114954628D01*
X160394618Y-114954628D02*
X160518427Y-114883200D01*
X160518427Y-114883200D02*
X160642237Y-114740342D01*
X160642237Y-114740342D02*
X160704141Y-114454628D01*
X160704141Y-114454628D02*
X160704141Y-113954628D01*
X160704141Y-113954628D02*
X160642237Y-113668914D01*
X160642237Y-113668914D02*
X160518427Y-113526057D01*
X160518427Y-113526057D02*
X160394618Y-113454628D01*
X159342236Y-114883200D02*
X159156522Y-114954628D01*
X159156522Y-114954628D02*
X158846998Y-114954628D01*
X158846998Y-114954628D02*
X158723189Y-114883200D01*
X158723189Y-114883200D02*
X158661284Y-114811771D01*
X158661284Y-114811771D02*
X158599379Y-114668914D01*
X158599379Y-114668914D02*
X158599379Y-114526057D01*
X158599379Y-114526057D02*
X158661284Y-114383200D01*
X158661284Y-114383200D02*
X158723189Y-114311771D01*
X158723189Y-114311771D02*
X158846998Y-114240342D01*
X158846998Y-114240342D02*
X159094617Y-114168914D01*
X159094617Y-114168914D02*
X159218427Y-114097485D01*
X159218427Y-114097485D02*
X159280332Y-114026057D01*
X159280332Y-114026057D02*
X159342236Y-113883200D01*
X159342236Y-113883200D02*
X159342236Y-113740342D01*
X159342236Y-113740342D02*
X159280332Y-113597485D01*
X159280332Y-113597485D02*
X159218427Y-113526057D01*
X159218427Y-113526057D02*
X159094617Y-113454628D01*
X159094617Y-113454628D02*
X158785094Y-113454628D01*
X158785094Y-113454628D02*
X158599379Y-113526057D01*
X158104141Y-114526057D02*
X157485094Y-114526057D01*
X158227951Y-114954628D02*
X157794618Y-113454628D01*
X157794618Y-113454628D02*
X157361284Y-114954628D01*
X156927951Y-114954628D02*
X156927951Y-113454628D01*
X156927951Y-113454628D02*
X156494617Y-114526057D01*
X156494617Y-114526057D02*
X156061284Y-113454628D01*
X156061284Y-113454628D02*
X156061284Y-114954628D01*
X154204142Y-113454628D02*
X154080332Y-113454628D01*
X154080332Y-113454628D02*
X153956523Y-113526057D01*
X153956523Y-113526057D02*
X153894618Y-113597485D01*
X153894618Y-113597485D02*
X153832713Y-113740342D01*
X153832713Y-113740342D02*
X153770808Y-114026057D01*
X153770808Y-114026057D02*
X153770808Y-114383200D01*
X153770808Y-114383200D02*
X153832713Y-114668914D01*
X153832713Y-114668914D02*
X153894618Y-114811771D01*
X153894618Y-114811771D02*
X153956523Y-114883200D01*
X153956523Y-114883200D02*
X154080332Y-114954628D01*
X154080332Y-114954628D02*
X154204142Y-114954628D01*
X154204142Y-114954628D02*
X154327951Y-114883200D01*
X154327951Y-114883200D02*
X154389856Y-114811771D01*
X154389856Y-114811771D02*
X154451761Y-114668914D01*
X154451761Y-114668914D02*
X154513665Y-114383200D01*
X154513665Y-114383200D02*
X154513665Y-114026057D01*
X154513665Y-114026057D02*
X154451761Y-113740342D01*
X154451761Y-113740342D02*
X154389856Y-113597485D01*
X154389856Y-113597485D02*
X154327951Y-113526057D01*
X154327951Y-113526057D02*
X154204142Y-113454628D01*
X152656523Y-113454628D02*
X152904142Y-113454628D01*
X152904142Y-113454628D02*
X153027951Y-113526057D01*
X153027951Y-113526057D02*
X153089856Y-113597485D01*
X153089856Y-113597485D02*
X153213666Y-113811771D01*
X153213666Y-113811771D02*
X153275570Y-114097485D01*
X153275570Y-114097485D02*
X153275570Y-114668914D01*
X153275570Y-114668914D02*
X153213666Y-114811771D01*
X153213666Y-114811771D02*
X153151761Y-114883200D01*
X153151761Y-114883200D02*
X153027951Y-114954628D01*
X153027951Y-114954628D02*
X152780332Y-114954628D01*
X152780332Y-114954628D02*
X152656523Y-114883200D01*
X152656523Y-114883200D02*
X152594618Y-114811771D01*
X152594618Y-114811771D02*
X152532713Y-114668914D01*
X152532713Y-114668914D02*
X152532713Y-114311771D01*
X152532713Y-114311771D02*
X152594618Y-114168914D01*
X152594618Y-114168914D02*
X152656523Y-114097485D01*
X152656523Y-114097485D02*
X152780332Y-114026057D01*
X152780332Y-114026057D02*
X153027951Y-114026057D01*
X153027951Y-114026057D02*
X153151761Y-114097485D01*
X153151761Y-114097485D02*
X153213666Y-114168914D01*
X153213666Y-114168914D02*
X153275570Y-114311771D01*
X151046999Y-113383200D02*
X152161285Y-115311771D01*
X150675570Y-113597485D02*
X150613666Y-113526057D01*
X150613666Y-113526057D02*
X150489856Y-113454628D01*
X150489856Y-113454628D02*
X150180332Y-113454628D01*
X150180332Y-113454628D02*
X150056523Y-113526057D01*
X150056523Y-113526057D02*
X149994618Y-113597485D01*
X149994618Y-113597485D02*
X149932713Y-113740342D01*
X149932713Y-113740342D02*
X149932713Y-113883200D01*
X149932713Y-113883200D02*
X149994618Y-114097485D01*
X149994618Y-114097485D02*
X150737475Y-114954628D01*
X150737475Y-114954628D02*
X149932713Y-114954628D01*
X149127952Y-113454628D02*
X149004142Y-113454628D01*
X149004142Y-113454628D02*
X148880333Y-113526057D01*
X148880333Y-113526057D02*
X148818428Y-113597485D01*
X148818428Y-113597485D02*
X148756523Y-113740342D01*
X148756523Y-113740342D02*
X148694618Y-114026057D01*
X148694618Y-114026057D02*
X148694618Y-114383200D01*
X148694618Y-114383200D02*
X148756523Y-114668914D01*
X148756523Y-114668914D02*
X148818428Y-114811771D01*
X148818428Y-114811771D02*
X148880333Y-114883200D01*
X148880333Y-114883200D02*
X149004142Y-114954628D01*
X149004142Y-114954628D02*
X149127952Y-114954628D01*
X149127952Y-114954628D02*
X149251761Y-114883200D01*
X149251761Y-114883200D02*
X149313666Y-114811771D01*
X149313666Y-114811771D02*
X149375571Y-114668914D01*
X149375571Y-114668914D02*
X149437475Y-114383200D01*
X149437475Y-114383200D02*
X149437475Y-114026057D01*
X149437475Y-114026057D02*
X149375571Y-113740342D01*
X149375571Y-113740342D02*
X149313666Y-113597485D01*
X149313666Y-113597485D02*
X149251761Y-113526057D01*
X149251761Y-113526057D02*
X149127952Y-113454628D01*
X148199380Y-113597485D02*
X148137476Y-113526057D01*
X148137476Y-113526057D02*
X148013666Y-113454628D01*
X148013666Y-113454628D02*
X147704142Y-113454628D01*
X147704142Y-113454628D02*
X147580333Y-113526057D01*
X147580333Y-113526057D02*
X147518428Y-113597485D01*
X147518428Y-113597485D02*
X147456523Y-113740342D01*
X147456523Y-113740342D02*
X147456523Y-113883200D01*
X147456523Y-113883200D02*
X147518428Y-114097485D01*
X147518428Y-114097485D02*
X148261285Y-114954628D01*
X148261285Y-114954628D02*
X147456523Y-114954628D01*
X147023190Y-113454628D02*
X146218428Y-113454628D01*
X146218428Y-113454628D02*
X146651762Y-114026057D01*
X146651762Y-114026057D02*
X146466047Y-114026057D01*
X146466047Y-114026057D02*
X146342238Y-114097485D01*
X146342238Y-114097485D02*
X146280333Y-114168914D01*
X146280333Y-114168914D02*
X146218428Y-114311771D01*
X146218428Y-114311771D02*
X146218428Y-114668914D01*
X146218428Y-114668914D02*
X146280333Y-114811771D01*
X146280333Y-114811771D02*
X146342238Y-114883200D01*
X146342238Y-114883200D02*
X146466047Y-114954628D01*
X146466047Y-114954628D02*
X146837476Y-114954628D01*
X146837476Y-114954628D02*
X146961285Y-114883200D01*
X146961285Y-114883200D02*
X147023190Y-114811771D01*
D10*
X145401380Y-119594333D02*
X145449000Y-119546714D01*
X145449000Y-119546714D02*
X145496619Y-119403857D01*
X145496619Y-119403857D02*
X145496619Y-119308619D01*
X145496619Y-119308619D02*
X145449000Y-119165762D01*
X145449000Y-119165762D02*
X145353761Y-119070524D01*
X145353761Y-119070524D02*
X145258523Y-119022905D01*
X145258523Y-119022905D02*
X145068047Y-118975286D01*
X145068047Y-118975286D02*
X144925190Y-118975286D01*
X144925190Y-118975286D02*
X144734714Y-119022905D01*
X144734714Y-119022905D02*
X144639476Y-119070524D01*
X144639476Y-119070524D02*
X144544238Y-119165762D01*
X144544238Y-119165762D02*
X144496619Y-119308619D01*
X144496619Y-119308619D02*
X144496619Y-119403857D01*
X144496619Y-119403857D02*
X144544238Y-119546714D01*
X144544238Y-119546714D02*
X144591857Y-119594333D01*
X145496619Y-120546714D02*
X145496619Y-119975286D01*
X145496619Y-120261000D02*
X144496619Y-120261000D01*
X144496619Y-120261000D02*
X144639476Y-120165762D01*
X144639476Y-120165762D02*
X144734714Y-120070524D01*
X144734714Y-120070524D02*
X144782333Y-119975286D01*
X146115857Y-118118143D02*
X146068238Y-118165762D01*
X146068238Y-118165762D02*
X146020619Y-118261000D01*
X146020619Y-118261000D02*
X146020619Y-118499095D01*
X146020619Y-118499095D02*
X146068238Y-118594333D01*
X146068238Y-118594333D02*
X146115857Y-118641952D01*
X146115857Y-118641952D02*
X146211095Y-118689571D01*
X146211095Y-118689571D02*
X146306333Y-118689571D01*
X146306333Y-118689571D02*
X146449190Y-118641952D01*
X146449190Y-118641952D02*
X147020619Y-118070524D01*
X147020619Y-118070524D02*
X147020619Y-118689571D01*
X146115857Y-119070524D02*
X146068238Y-119118143D01*
X146068238Y-119118143D02*
X146020619Y-119213381D01*
X146020619Y-119213381D02*
X146020619Y-119451476D01*
X146020619Y-119451476D02*
X146068238Y-119546714D01*
X146068238Y-119546714D02*
X146115857Y-119594333D01*
X146115857Y-119594333D02*
X146211095Y-119641952D01*
X146211095Y-119641952D02*
X146306333Y-119641952D01*
X146306333Y-119641952D02*
X146449190Y-119594333D01*
X146449190Y-119594333D02*
X147020619Y-119022905D01*
X147020619Y-119022905D02*
X147020619Y-119641952D01*
X146353952Y-120070524D02*
X147020619Y-120070524D01*
X146449190Y-120070524D02*
X146401571Y-120118143D01*
X146401571Y-120118143D02*
X146353952Y-120213381D01*
X146353952Y-120213381D02*
X146353952Y-120356238D01*
X146353952Y-120356238D02*
X146401571Y-120451476D01*
X146401571Y-120451476D02*
X146496809Y-120499095D01*
X146496809Y-120499095D02*
X147020619Y-120499095D01*
X146496809Y-121308619D02*
X146496809Y-120975286D01*
X147020619Y-120975286D02*
X146020619Y-120975286D01*
X146020619Y-120975286D02*
X146020619Y-121451476D01*
D13*
X147701000Y-119970000D02*
X149733000Y-119970000D01*
X149733000Y-119970000D02*
X149733000Y-124124000D01*
X149733000Y-124124000D02*
X147701000Y-124124000D01*
X147701000Y-124124000D02*
X147701000Y-119970000D01*
%LPC*%
D14*
X119380000Y-114757200D03*
D15*
X120650000Y-112217200D03*
X121920000Y-114757200D03*
X123190000Y-112217200D03*
X124460000Y-114757200D03*
X125730000Y-112217200D03*
X127000000Y-114757200D03*
X128270000Y-112217200D03*
X129540000Y-114757200D03*
X130810000Y-112217200D03*
X132080000Y-114757200D03*
X133350000Y-112217200D03*
X134620000Y-114757200D03*
X135890000Y-112217200D03*
X137160000Y-114757200D03*
X138430000Y-112217200D03*
X139700000Y-114757200D03*
X140970000Y-112217200D03*
X142240000Y-114757200D03*
X143510000Y-112217200D03*
D14*
X119380000Y-119888000D03*
D15*
X120650000Y-117348000D03*
X121920000Y-119888000D03*
X123190000Y-117348000D03*
X124460000Y-119888000D03*
X125730000Y-117348000D03*
X127000000Y-119888000D03*
X128270000Y-117348000D03*
X129540000Y-119888000D03*
X130810000Y-117348000D03*
X132080000Y-119888000D03*
X133350000Y-117348000D03*
X134620000Y-119888000D03*
X135890000Y-117348000D03*
X137160000Y-119888000D03*
X138430000Y-117348000D03*
X139700000Y-119888000D03*
X140970000Y-117348000D03*
X142240000Y-119888000D03*
X143510000Y-117348000D03*
D14*
X119380000Y-109601000D03*
D15*
X120650000Y-107061000D03*
X121920000Y-109601000D03*
X123190000Y-107061000D03*
X124460000Y-109601000D03*
X125730000Y-107061000D03*
X127000000Y-109601000D03*
X128270000Y-107061000D03*
X129540000Y-109601000D03*
X130810000Y-107061000D03*
X132080000Y-109601000D03*
X133350000Y-107061000D03*
X134620000Y-109601000D03*
X135890000Y-107061000D03*
X137160000Y-109601000D03*
X138430000Y-107061000D03*
X139700000Y-109601000D03*
X140970000Y-107061000D03*
X142240000Y-109601000D03*
X143510000Y-107061000D03*
D14*
X148590000Y-128651000D03*
D15*
X149860000Y-126111000D03*
X151130000Y-128651000D03*
X152400000Y-126111000D03*
X153670000Y-128651000D03*
X154940000Y-126111000D03*
X156210000Y-128651000D03*
X157480000Y-126111000D03*
X158750000Y-128651000D03*
X160020000Y-126111000D03*
X161290000Y-128651000D03*
X162560000Y-126111000D03*
X163830000Y-128651000D03*
X165100000Y-126111000D03*
X166370000Y-128651000D03*
X167640000Y-126111000D03*
X168910000Y-128651000D03*
X170180000Y-126111000D03*
X171450000Y-128651000D03*
X172720000Y-126111000D03*
D16*
X160000000Y-106426000D03*
X157500000Y-106426000D03*
D17*
X148717000Y-120904000D03*
X148717000Y-123190000D03*
%LPD*%
M02*
