M48
; DRILL file {KiCad 7.0.2-0} date 2023 August 19, Saturday 01:07:38
; FORMAT={-:-/ absolute / metric / decimal}
; #@! TF.CreationDate,2023-08-19T01:07:38+02:00
; #@! TF.GenerationSoftware,Kicad,Pcbnew,7.0.2-0
; #@! TF.FileFunction,Plated,1,4,PTH
FMAT,2
METRIC
; #@! TA.AperFunction,Plated,PTH,ViaDrill
T1C0.400
; #@! TA.AperFunction,Plated,PTH,ComponentDrill
T2C0.800
%
G90
G05
T1
X121.92Y-111.633
X146.003Y-117.999
X146.812Y-117.303
X147.066Y-120.904
X148.717Y-106.553
X148.717Y-124.968
X151.003Y-123.444
X151.638Y-122.555
X152.345Y-113.075
X155.067Y-106.553
X156.21Y-123.444
X156.337Y-117.221
X157.607Y-122.48
X158.877Y-122.555
X160.147Y-117.221
X160.782Y-122.809
X163.957Y-112.395
X163.957Y-115.697
X165.227Y-112.395
X166.497Y-107.061
X167.767Y-112.395
X169.037Y-107.061
X170.18Y-130.048
X170.307Y-112.395
X171.577Y-112.395
X172.847Y-114.554
X174.244Y-123.571
T2
X119.38Y-109.601
X119.38Y-114.757
X119.38Y-119.888
X120.65Y-107.061
X120.65Y-112.217
X120.65Y-117.348
X121.92Y-109.601
X121.92Y-114.757
X121.92Y-119.888
X123.19Y-107.061
X123.19Y-112.217
X123.19Y-117.348
X124.46Y-109.601
X124.46Y-114.757
X124.46Y-119.888
X125.73Y-107.061
X125.73Y-112.217
X125.73Y-117.348
X127.0Y-109.601
X127.0Y-114.757
X127.0Y-119.888
X128.27Y-107.061
X128.27Y-112.217
X128.27Y-117.348
X129.54Y-109.601
X129.54Y-114.757
X129.54Y-119.888
X130.81Y-107.061
X130.81Y-112.217
X130.81Y-117.348
X132.08Y-109.601
X132.08Y-114.757
X132.08Y-119.888
X133.35Y-107.061
X133.35Y-112.217
X133.35Y-117.348
X134.62Y-109.601
X134.62Y-114.757
X134.62Y-119.888
X135.89Y-107.061
X135.89Y-112.217
X135.89Y-117.348
X137.16Y-109.601
X137.16Y-114.757
X137.16Y-119.888
X138.43Y-107.061
X138.43Y-112.217
X138.43Y-117.348
X139.7Y-109.601
X139.7Y-114.757
X139.7Y-119.888
X140.97Y-107.061
X140.97Y-112.217
X140.97Y-117.348
X142.24Y-109.601
X142.24Y-114.757
X142.24Y-119.888
X143.51Y-107.061
X143.51Y-112.217
X143.51Y-117.348
X148.59Y-128.651
X149.86Y-126.111
X151.13Y-128.651
X152.4Y-126.111
X153.67Y-128.651
X154.94Y-126.111
X156.21Y-128.651
X157.48Y-126.111
X158.75Y-128.651
X160.02Y-126.111
X161.29Y-128.651
X162.56Y-126.111
X163.83Y-128.651
X165.1Y-126.111
X166.37Y-128.651
X167.64Y-126.111
X168.91Y-128.651
X170.18Y-126.111
X170.855Y-106.426
X171.45Y-128.651
X172.72Y-126.111
X173.355Y-106.426
T0
M30
