M48
; DRILL file {KiCad 7.0.8} date Thu May 22 18:39:11 2025
; FORMAT={-:-/ absolute / metric / decimal}
; #@! TF.CreationDate,2025-05-22T18:39:11-07:00
; #@! TF.GenerationSoftware,Kicad,Pcbnew,7.0.8
; #@! TF.FileFunction,Plated,1,4,PTH
FMAT,2
METRIC
; #@! TA.AperFunction,Plated,PTH,ViaDrill
T1C0.400
; #@! TA.AperFunction,Plated,PTH,ComponentDrill
T2C0.800
; #@! TA.AperFunction,Plated,PTH,ComponentDrill
T3C1.200
%
G90
G05
T1
X50.165Y-57.023
X50.165Y-64.262
X50.165Y-95.758
X50.165Y-102.743
X50.165Y-110.236
X50.165Y-117.348
X50.165Y-124.968
X52.705Y-67.183
X53.721Y-90.297
X54.483Y-105.029
X55.753Y-78.486
X55.804Y-71.196
X55.804Y-72.415
X55.855Y-73.736
X56.769Y-74.651
X57.125Y-73.279
X57.175Y-72.111
X57.277Y-83.566
X57.785Y-67.183
X58.41Y-74.666
X59.004Y-73.025
X59.69Y-74.676
X59.969Y-88.671
X60.96Y-74.676
X61.595Y-78.74
X61.849Y-109.195
X61.9Y-92.024
X62.23Y-135.128
X62.357Y-128.041
X62.56Y-90.754
X62.56Y-93.243
X62.56Y-94.564
X62.916Y-126.721
X63.119Y-67.691
X63.754Y-64.008
X64.135Y-81.28
X64.135Y-84.15
X64.135Y-97.028
X64.135Y-109.601
X64.42Y-67.691
X64.44Y-66.37
X64.44Y-91.719
X64.491Y-126.721
X65.405Y-82.804
X65.405Y-118.364
X65.659Y-114.3
X66.015Y-71.145
X66.675Y-83.439
X66.675Y-84.836
X66.675Y-98.984
X66.675Y-118.11
X66.675Y-127.127
X67.31Y-113.919
X67.945Y-91.719
X67.945Y-117.729
X68.58Y-59.436
X68.58Y-70.129
X68.58Y-103.124
X69.215Y-91.77
X69.215Y-117.475
X69.85Y-70.104
X69.85Y-102.489
X69.977Y-135.128
X70.485Y-82.931
X70.485Y-91.77
X70.485Y-117.221
X70.485Y-127.127
X71.12Y-102.108
X71.755Y-91.719
X71.755Y-116.84
X72.39Y-70.815
X72.39Y-101.854
X73.025Y-91.77
X73.025Y-116.586
X73.66Y-69.596
X73.66Y-101.473
X74.295Y-91.77
X74.295Y-116.205
X74.295Y-127.127
X74.93Y-59.436
X74.93Y-66.675
X74.93Y-101.219
X74.955Y-82.829
X75.565Y-91.77
X75.565Y-115.951
X76.124Y-66.675
X76.2Y-100.838
X76.835Y-81.661
X76.835Y-84.201
X77.47Y-100.584
X77.47Y-135.128
X78.105Y-81.61
X78.105Y-115.316
X78.74Y-84.201
X79.375Y-81.61
X79.375Y-115.951
X80.594Y-84.201
X80.645Y-80.95
X80.645Y-91.948
X80.645Y-104.521
X80.645Y-125.349
X81.001Y-115.951
X81.051Y-114.63
X81.153Y-59.436
X81.28Y-108.966
X81.915Y-66.726
X81.915Y-75.946
X81.985Y-97.358
X82.22Y-65.507
X82.22Y-130.226
X82.779Y-110.515
X82.931Y-86.315
X82.949Y-85.135
X83.236Y-107.315
X83.236Y-111.735
X83.49Y-100.254
X83.541Y-65.151
X83.541Y-105.08
X83.744Y-85.725
X83.795Y-84.455
X83.795Y-89.535
X83.82Y-91.186
X83.82Y-126.492
X83.845Y-87.96
X84.201Y-93.65
X84.328Y-56.261
X84.455Y-115.595
X84.709Y-116.865
X84.811Y-114.275
X85.014Y-74.041
X85.065Y-87.3
X85.065Y-88.875
X85.09Y-98.552
X85.115Y-118.186
X85.217Y-135.128
X85.344Y-91.313
X85.369Y-119.456
X85.369Y-123.165
X85.384Y-105.116
X85.598Y-107.823
X85.674Y-120.675
X86.284Y-122.555
X86.385Y-73.685
X86.614Y-64.135
X86.639Y-55.905
X86.741Y-126.492
X86.995Y-98.552
X87.605Y-73.685
X87.884Y-59.182
X88.57Y-122.25
X89.154Y-70.739
X89.23Y-123.165
X89.535Y-64.516
X89.535Y-74.041
X89.662Y-126.492
X90.17Y-57.15
X90.449Y-123.215
X90.805Y-61.087
X90.805Y-68.351
X90.805Y-97.46
X91.821Y-115.316
X91.821Y-116.967
X92.024Y-65.761
X92.024Y-73.736
X92.075Y-85.471
X92.075Y-97.46
X92.177Y-68.047
X92.38Y-105.435
X92.685Y-72.771
X92.685Y-98.425
X92.71Y-82.423
X92.837Y-135.128
X93.218Y-56.261
X93.294Y-65.761
X93.345Y-67.996
X93.345Y-97.46
X93.599Y-113.97
X93.639Y-112.751
X93.853Y-85.471
X94.005Y-98.425
X94.056Y-89.891
X94.056Y-91.161
X94.31Y-105.385
X94.488Y-82.423
X94.564Y-65.761
X94.564Y-73.685
X94.615Y-68.301
X94.615Y-97.46
X95.174Y-90.5
X95.174Y-91.77
X95.225Y-72.771
X95.225Y-106.045
X95.225Y-107.925
X95.25Y-57.531
X95.275Y-98.425
X95.58Y-112.751
X95.611Y-114.021
X95.834Y-73.685
X95.885Y-67.64
X95.936Y-66.421
X96.19Y-97.46
X96.19Y-106.705
X96.495Y-72.822
X96.495Y-107.925
X96.647Y-81.153
X96.799Y-68.301
X96.85Y-98.425
X97.028Y-115.316
X97.028Y-116.967
X97.155Y-55.601
X97.155Y-109.855
X97.409Y-73.736
X97.511Y-106.655
X97.765Y-97.155
X97.815Y-107.925
X98.12Y-72.822
X98.12Y-98.425
X98.298Y-59.182
X98.298Y-111.506
X98.425Y-67.183
X98.476Y-109.855
X98.679Y-81.026
X98.73Y-106.705
X99.035Y-73.787
X99.06Y-104.394
X99.085Y-107.925
X99.314Y-97.155
X99.441Y-124.485
X99.644Y-114.325
X99.644Y-115.545
X99.695Y-55.601
X100.254Y-80.747
X100.305Y-111.43
X100.33Y-72.517
X100.33Y-73.787
X100.33Y-135.128
X100.711Y-69.825
X100.711Y-85.115
X100.711Y-122.555
X100.838Y-62.738
X100.838Y-64.262
X100.914Y-96.85
X100.965Y-114.325
X101.371Y-70.79
X101.6Y-109.982
X101.829Y-79.781
X101.829Y-80.95
X101.93Y-97.46
X101.93Y-99.085
X102.032Y-69.825
X102.235Y-104.775
X102.286Y-106.045
X102.286Y-115.9
X102.641Y-71.145
X102.845Y-83.795
X102.845Y-112.09
X102.895Y-55.601
X102.895Y-126.009
X102.895Y-129.007
X103.2Y-99.035
X103.505Y-115.9
X103.556Y-104.775
X103.556Y-106.045
X103.556Y-113.005
X103.759Y-97.282
X104.064Y-79.731
X104.14Y-66.548
X104.165Y-111.43
X104.267Y-84.15
X104.47Y-126.111
X104.724Y-78.816
X104.826Y-113.055
X105.029Y-97.282
X105.385Y-79.731
X105.435Y-71.095
X105.537Y-69.875
X105.664Y-105.537
X105.689Y-55.55
X105.74Y-111.125
X105.918Y-90.678
X105.994Y-113.716
X106.045Y-78.816
X106.35Y-115.24
X106.655Y-79.731
X106.991Y-69.85
X107.01Y-114.275
X107.01Y-124.485
X107.366Y-71.196
X107.62Y-90.805
X107.975Y-55.55
X108.077Y-135.128
X108.28Y-91.77
X108.941Y-90.856
X109.195Y-79.985
X109.347Y-122.936
X109.474Y-111.76
X109.55Y-91.821
X109.55Y-109.906
X109.601Y-113.284
X109.601Y-114.275
X110.16Y-124.181
X110.49Y-55.499
X111.887Y-123.774
X112.776Y-98.806
X113.03Y-55.626
X113.208Y-123.723
X114.376Y-123.774
X114.554Y-98.044
X114.884Y-74.701
X114.935Y-78.105
X114.935Y-90.195
X114.935Y-91.465
X114.986Y-80.696
X115.316Y-95.885
X115.443Y-119.05
X115.545Y-120.218
X115.57Y-55.626
X115.697Y-124.231
X115.697Y-135.128
X115.9Y-89.535
X115.9Y-90.805
X115.9Y-99.136
X115.951Y-88.392
X116.205Y-104.14
X116.205Y-105.41
X116.459Y-121.234
X116.51Y-100.051
X116.815Y-107.975
X116.967Y-111.989
X117.17Y-99.136
X117.221Y-123.977
X117.475Y-115.291
X117.78Y-100.051
X117.78Y-103.861
X118.085Y-106.045
X118.085Y-107.366
X118.11Y-55.626
X118.389Y-112.141
X118.44Y-99.136
X118.491Y-123.977
X118.745Y-92.583
X119.05Y-100.051
X119.05Y-103.911
X119.456Y-123.215
X119.71Y-99.136
X119.888Y-80.391
X120.066Y-75.322
X120.32Y-100.051
X120.625Y-122.758
X120.65Y-55.626
X120.65Y-67.183
X120.675Y-102.215
X120.675Y-104.47
X121.031Y-99.085
X121.387Y-74.651
X121.844Y-102.337
X121.844Y-122.504
X122.555Y-103.861
X123.012Y-122.25
X123.19Y-55.626
X123.419Y-101.016
X123.469Y-102.235
X123.825Y-135.128
X124.739Y-100.965
X124.79Y-102.235
X125.73Y-55.626
X126.06Y-104.775
X127.635Y-65.659
X127.635Y-80.518
X127.635Y-86.995
X127.635Y-88.316
X127.635Y-90.195
X127.635Y-91.516
X127.635Y-92.735
X128.27Y-55.626
X128.905Y-87.046
X128.905Y-88.316
X128.905Y-92.735
X129.159Y-80.518
X129.159Y-91.465
X129.261Y-68.91
X130.175Y-55.753
X130.175Y-65.659
X130.175Y-86.741
X130.48Y-68.91
X130.785Y-91.821
X130.835Y-90.5
X131.089Y-93.091
X131.699Y-80.696
X131.978Y-96.545
X132.004Y-91.821
X132.08Y-103.454
X132.207Y-135.128
X132.359Y-79.731
X132.588Y-93.091
X132.766Y-69.215
X132.969Y-80.747
X133.274Y-87.3
X133.35Y-55.626
X133.35Y-60.706
X133.35Y-68.072
X133.579Y-79.781
X133.579Y-90.551
X133.579Y-93.751
X134.239Y-80.747
X134.239Y-96.393
X134.239Y-98.298
X134.849Y-79.832
X135.509Y-80.747
X135.89Y-55.626
X135.966Y-68.91
X136.169Y-79.832
X136.83Y-80.747
X137.185Y-89.23
X137.185Y-90.551
X138.201Y-68.961
X138.405Y-103.2
X138.43Y-55.626
X138.455Y-80.366
X138.455Y-89.281
X138.455Y-90.5
X138.455Y-98.425
X139.675Y-89.281
X139.675Y-90.5
X139.725Y-80.442
X139.725Y-98.425
X140.335Y-135.128
X140.437Y-128.803
X140.437Y-130.734
X140.894Y-81.051
X140.945Y-68.91
X140.945Y-79.731
X140.945Y-90.5
X140.945Y-95.275
X140.97Y-55.626
X140.995Y-89.281
X141.859Y-86.487
X141.91Y-131.343
X142.164Y-81.051
X142.215Y-79.781
X142.215Y-94.412
X142.265Y-89.281
X143.434Y-86.741
X143.485Y-79.781
X143.51Y-55.626
X143.789Y-90.551
X144.094Y-85.471
X144.094Y-94.005
X144.196Y-123.317
X144.196Y-127.076
X144.45Y-80.391
X144.45Y-89.281
X144.45Y-115.291
X144.526Y-130.302
X144.755Y-110.515
X145.313Y-87.097
X145.364Y-79.781
X145.466Y-84.201
X145.466Y-123.063
X145.466Y-127.076
X145.669Y-89.23
X145.72Y-94.717
X146.025Y-85.115
X146.025Y-129.413
X146.05Y-55.626
X146.279Y-80.442
X146.685Y-83.845
X146.685Y-122.758
X147.041Y-126.822
X147.955Y-122.504
X148.59Y-55.626
X148.59Y-135.128
X150.19Y-64.389
X150.241Y-114.325
X150.952Y-120.828
X151.105Y-89.941
X151.105Y-91.161
X151.105Y-92.837
X151.105Y-94.005
X151.13Y-55.626
X151.155Y-88.265
X151.359Y-64.338
X151.409Y-95.275
X151.663Y-110.82
X152.019Y-79.477
X152.019Y-80.747
X152.019Y-83.236
X152.03Y-81.946
X152.171Y-120.777
X152.375Y-92.532
X152.425Y-88.621
X152.425Y-89.922
X152.425Y-91.192
X152.629Y-64.338
X152.933Y-63.017
X153.031Y-80.067
X153.035Y-81.356
X153.035Y-82.575
X153.137Y-61.341
X153.67Y-55.626
X153.848Y-118.491
X153.899Y-64.338
X154.0Y-88.417
X154.051Y-68.383
X154.203Y-63.017
X154.559Y-57.277
X154.559Y-58.547
X154.661Y-120.269
X155.067Y-116.205
X155.321Y-64.338
X155.473Y-68.758
X155.524Y-57.887
X155.524Y-62.967
X156.337Y-120.066
X156.489Y-69.367
X156.489Y-70.637
X156.794Y-62.763
X156.794Y-64.338
X156.845Y-135.128
X157.099Y-56.007
X157.099Y-59.563
X157.404Y-71.298
X158.013Y-62.713
X158.064Y-64.287
X158.369Y-71.857
X158.369Y-73.177
X158.42Y-74.447
X158.725Y-113.513
X158.725Y-114.833
X159.283Y-62.713
X159.334Y-72.517
X159.334Y-73.787
X159.334Y-75.006
X159.893Y-122.555
X161.208Y-122.657
X161.569Y-106.096
X161.925Y-116.332
X162.433Y-122.555
X163.093Y-123.927
X164.922Y-109.449
X165.1Y-135.128
X166.243Y-66.548
X166.243Y-73.406
X166.599Y-77.597
X166.7Y-92.837
X166.7Y-94.005
X167.005Y-85.217
X168.224Y-79.832
X168.275Y-72.816
X168.834Y-78.867
X169.443Y-80.137
X170.104Y-78.613
X170.612Y-102.337
X170.688Y-115.062
X170.713Y-80.442
X170.764Y-94.107
X170.815Y-105.537
X170.815Y-111.76
X171.323Y-77.902
X171.323Y-113.309
X171.374Y-108.331
X171.425Y-98.171
X171.729Y-101.981
X171.979Y-80.778
X172.593Y-86.106
X172.644Y-73.488
X172.644Y-77.902
X172.644Y-82.067
X172.999Y-101.371
X173.05Y-98.222
X173.355Y-135.128
X173.64Y-97.257
X173.66Y-128.854
X173.965Y-82.372
X173.965Y-99.441
X174.219Y-98.171
X174.676Y-129.311
X174.879Y-96.952
X175.235Y-100.101
X175.235Y-110.566
X175.489Y-84.912
X175.539Y-98.527
X175.641Y-129.819
X175.692Y-111.629
X175.692Y-113.259
X175.768Y-57.658
X176.149Y-82.677
X176.454Y-116.611
X176.505Y-100.101
X176.505Y-103.251
X176.505Y-105.486
X176.962Y-110.566
X177.038Y-122.428
X177.165Y-96.901
X177.419Y-83.033
X177.47Y-98.171
X177.47Y-104.673
X177.736Y-85.407
X178.054Y-129.794
X178.06Y-116.633
X178.079Y-108.026
X178.079Y-115.392
X178.435Y-96.952
X178.689Y-98.171
X178.689Y-111.836
X178.943Y-70.383
X178.943Y-103.251
X179.349Y-94.564
X179.349Y-105.486
X179.349Y-108.687
X179.705Y-95.631
X179.705Y-96.952
X179.959Y-106.451
X179.959Y-122.352
X180.01Y-111.836
X180.01Y-116.611
X180.061Y-92.786
X180.213Y-70.358
X180.264Y-83.287
X180.315Y-121.082
X180.467Y-105.486
X180.619Y-108.687
X180.619Y-123.571
X180.619Y-129.616
X180.67Y-127.686
X180.924Y-85.522
X180.924Y-115.951
X180.924Y-124.841
X180.975Y-135.128
X181.178Y-111.887
X181.28Y-122.657
X181.483Y-69.088
X181.534Y-83.287
X181.534Y-121.031
X181.61Y-57.658
X181.94Y-123.571
X182.194Y-85.573
X182.194Y-115.951
X182.499Y-120.421
X182.804Y-70.79
X182.804Y-80.442
X182.804Y-82.982
X182.804Y-86.487
X183.109Y-89.992
X183.159Y-123.266
X183.21Y-124.536
X183.363Y-85.573
X183.382Y-78.238
X183.413Y-79.426
X183.464Y-115.341
X183.769Y-83.611
X183.896Y-95.123
X184.074Y-68.453
X184.125Y-73.127
X184.531Y-124.841
X184.734Y-86.182
X184.785Y-72.212
X184.785Y-74.092
X184.785Y-75.362
X185.344Y-67.539
X185.699Y-92.532
X185.699Y-98.527
X186.004Y-91.262
X186.055Y-60.833
X186.055Y-96.647
X186.055Y-124.282
X186.665Y-100.813
X186.69Y-102.489
X186.969Y-97.866
X187.071Y-84.963
X187.223Y-91.364
X187.274Y-121.996
X187.325Y-123.266
X187.63Y-124.536
X187.96Y-135.128
X188.265Y-101.092
X188.468Y-84.963
X188.493Y-91.618
X188.544Y-121.082
X188.544Y-122.301
X188.544Y-123.571
X188.849Y-100.101
X189.099Y-83.611
X189.103Y-97.028
X189.713Y-91.618
X189.738Y-66.04
X189.738Y-120.396
X190.119Y-100.406
X190.119Y-111.252
X190.119Y-112.903
X190.373Y-47.777
X190.373Y-83.642
X190.649Y-90.655
X191.008Y-96.901
X191.033Y-93.802
X191.287Y-91.618
X191.389Y-101.067
X191.643Y-66.04
X191.643Y-83.642
X191.694Y-97.886
X191.795Y-115.494
X191.948Y-90.297
X192.303Y-86.182
X192.303Y-104.267
X192.354Y-108.413
X192.405Y-58.699
X192.659Y-101.067
X192.913Y-64.643
X192.913Y-83.693
X193.573Y-104.267
X193.573Y-108.413
X193.675Y-101.854
X193.98Y-96.342
X194.234Y-95.072
X194.793Y-53.162
X194.894Y-104.267
X194.894Y-109.042
X195.117Y-82.423
X195.199Y-96.342
X195.504Y-95.021
X195.504Y-97.612
X195.707Y-83.337
X195.809Y-112.192
X195.834Y-110.363
X196.113Y-64.643
X196.164Y-84.861
X196.164Y-108.413
X196.215Y-103.632
X196.418Y-82.423
X196.469Y-96.647
X196.723Y-57.531
X197.028Y-83.337
X197.079Y-110.566
X197.129Y-98.577
X197.383Y-91.313
X197.434Y-97.257
X197.434Y-103.962
X197.688Y-82.423
X197.993Y-47.777
X197.993Y-57.531
X198.349Y-83.337
X200.736Y-123.196
X200.889Y-97.307
X200.889Y-104.318
X201.168Y-109.474
X201.244Y-112.293
X201.295Y-102.743
X201.422Y-100.203
X201.549Y-94.488
X201.955Y-123.215
X202.159Y-97.307
X202.209Y-104.267
X202.209Y-115.951
X202.463Y-111.582
X202.514Y-112.852
X202.514Y-114.681
X202.565Y-92.837
X202.565Y-109.042
X202.819Y-95.885
X202.819Y-100.203
X203.022Y-118.897
X203.124Y-123.215
X203.429Y-115.646
X203.683Y-117.576
X203.733Y-111.633
X203.733Y-113.157
X203.733Y-114.376
X203.962Y-133.731
X204.038Y-120.472
X204.343Y-118.948
X204.394Y-109.093
X204.394Y-122.961
X204.851Y-101.473
X205.308Y-120.523
X205.613Y-47.777
X205.613Y-118.948
X205.715Y-91.618
X205.715Y-123.012
X205.74Y-109.982
X206.223Y-121.133
X206.324Y-92.532
X206.629Y-89.992
X206.934Y-86.182
X206.934Y-88.113
X207.137Y-106.934
X207.239Y-108.687
X207.493Y-121.133
X207.645Y-77.953
X208.204Y-122.383
X208.788Y-133.731
X209.779Y-122.047
X212.471Y-47.777
X212.573Y-124.587
X213.868Y-126.238
X213.893Y-124.333
X215.214Y-123.673
X216.992Y-123.723
X218.364Y-123.723
X219.634Y-123.723
X220.904Y-102.083
X220.904Y-104.623
X220.904Y-123.723
X221.209Y-100.813
X221.259Y-99.543
X221.463Y-83.795
X221.488Y-126.238
X221.513Y-98.273
X221.564Y-110.312
X221.615Y-47.777
X221.742Y-80.518
X221.996Y-90.678
X222.25Y-133.223
X222.834Y-123.012
X222.885Y-108.458
X230.251Y-47.727
X230.251Y-54.356
X230.251Y-86.106
X230.378Y-67.818
X230.378Y-73.914
X230.378Y-96.52
X230.378Y-113.665
X230.378Y-118.618
T2
X55.245Y-81.026
X55.245Y-86.026
X56.642Y-120.98
X56.642Y-125.98
X57.15Y-91.279
X57.15Y-93.779
X57.15Y-96.279
X57.15Y-98.779
X57.15Y-101.279
X57.15Y-103.779
X57.15Y-106.279
X57.15Y-108.779
X57.15Y-111.279
X57.15Y-113.779
X57.15Y-116.279
X59.69Y-92.529
X59.69Y-95.029
X59.69Y-97.529
X59.69Y-100.029
X59.69Y-102.529
X59.69Y-105.029
X59.69Y-107.529
X59.69Y-110.029
X59.69Y-112.529
X59.69Y-115.029
X104.14Y-57.404
X104.14Y-72.644
X106.68Y-57.404
X106.68Y-72.644
X108.758Y-128.651
X109.22Y-57.404
X109.22Y-72.644
X110.008Y-126.111
X111.258Y-128.651
X111.76Y-57.404
X111.76Y-72.644
X112.508Y-126.111
X113.758Y-128.651
X114.3Y-57.404
X114.3Y-72.644
X115.008Y-126.111
X116.258Y-128.651
X116.84Y-57.404
X116.84Y-72.644
X117.508Y-126.111
X118.758Y-128.651
X119.38Y-57.404
X119.38Y-72.644
X119.38Y-109.601
X119.38Y-114.757
X119.38Y-119.888
X120.008Y-126.111
X120.65Y-107.061
X120.65Y-112.217
X120.65Y-117.348
X121.258Y-128.651
X121.92Y-57.404
X121.92Y-72.644
X121.92Y-109.601
X121.92Y-114.757
X121.92Y-119.888
X122.508Y-126.111
X123.19Y-107.061
X123.19Y-112.217
X123.19Y-117.348
X123.758Y-128.651
X124.46Y-57.404
X124.46Y-72.644
X124.46Y-109.601
X124.46Y-114.757
X124.46Y-119.888
X125.008Y-126.111
X125.73Y-107.061
X125.73Y-112.217
X125.73Y-117.348
X126.258Y-128.651
X127.0Y-57.404
X127.0Y-72.644
X127.0Y-109.601
X127.0Y-114.757
X127.0Y-119.888
X127.508Y-126.111
X128.27Y-107.061
X128.27Y-112.217
X128.27Y-117.348
X128.758Y-128.651
X129.54Y-57.404
X129.54Y-72.644
X129.54Y-109.601
X129.54Y-114.757
X129.54Y-119.888
X130.008Y-126.111
X130.81Y-107.061
X130.81Y-112.217
X130.81Y-117.348
X131.258Y-128.651
X132.08Y-57.404
X132.08Y-72.644
X132.08Y-109.601
X132.08Y-114.757
X132.08Y-119.888
X132.508Y-126.111
X133.35Y-107.061
X133.35Y-112.217
X133.35Y-117.348
X133.758Y-128.651
X134.62Y-57.404
X134.62Y-72.644
X134.62Y-109.601
X134.62Y-114.757
X134.62Y-119.888
X135.008Y-126.111
X135.89Y-107.061
X135.89Y-112.217
X135.89Y-117.348
X136.258Y-128.651
X137.16Y-57.404
X137.16Y-72.644
X137.16Y-109.601
X137.16Y-114.757
X137.16Y-119.888
X137.508Y-126.111
X138.43Y-107.061
X138.43Y-112.217
X138.43Y-117.348
X138.758Y-128.651
X139.7Y-57.404
X139.7Y-72.644
X139.7Y-109.601
X139.7Y-114.757
X139.7Y-119.888
X140.97Y-107.061
X140.97Y-112.217
X140.97Y-117.348
X142.24Y-57.404
X142.24Y-72.644
X142.24Y-109.601
X142.24Y-114.757
X142.24Y-119.888
X143.51Y-107.061
X143.51Y-112.217
X143.51Y-117.348
X144.78Y-57.404
X144.78Y-72.644
X147.32Y-57.404
X147.32Y-72.644
X148.59Y-128.651
X149.86Y-57.404
X149.86Y-72.644
X149.86Y-126.111
X151.13Y-128.651
X152.4Y-57.404
X152.4Y-72.644
X152.4Y-126.111
X153.67Y-128.651
X154.94Y-126.111
X156.21Y-128.651
X157.48Y-126.111
X158.195Y-118.618
X158.75Y-128.651
X160.02Y-126.111
X161.29Y-128.651
X162.56Y-126.111
X163.195Y-118.618
X163.83Y-128.651
X164.418Y-60.198
X165.1Y-126.111
X166.37Y-128.651
X167.64Y-126.111
X168.91Y-128.651
X169.418Y-60.198
X170.18Y-126.111
X171.45Y-128.651
X172.72Y-126.111
X175.848Y-80.442
X180.848Y-80.442
X185.344Y-128.016
X187.833Y-70.358
X187.833Y-77.978
X190.344Y-128.016
X203.073Y-70.358
X203.073Y-77.978
X205.613Y-94.314
X205.613Y-99.314
X209.423Y-71.628
X209.423Y-74.168
X209.423Y-76.708
X209.423Y-79.248
X209.423Y-81.788
X209.423Y-84.328
X209.423Y-86.868
X209.423Y-89.408
X209.423Y-91.948
X209.423Y-94.488
X209.423Y-97.028
X209.423Y-99.568
X209.423Y-102.108
X209.423Y-104.648
X209.423Y-107.188
X209.423Y-109.728
X209.423Y-112.268
X209.423Y-114.808
X209.423Y-117.348
X209.423Y-119.888
X211.963Y-72.898
X211.963Y-75.438
X211.963Y-77.978
X211.963Y-80.518
X211.963Y-83.058
X211.963Y-85.598
X211.963Y-88.138
X211.963Y-90.678
X211.963Y-93.218
X211.963Y-95.758
X211.963Y-98.298
X211.963Y-100.838
X211.963Y-103.378
X211.963Y-105.918
X211.963Y-108.458
X211.963Y-110.998
X211.963Y-113.538
X211.963Y-116.078
X211.963Y-118.618
X211.963Y-121.158
X216.408Y-71.628
X216.408Y-74.168
X216.408Y-76.708
X216.408Y-79.248
X216.408Y-81.788
X216.408Y-84.328
X216.408Y-86.868
X216.408Y-89.408
X216.408Y-91.948
X216.408Y-94.488
X216.408Y-97.028
X216.408Y-99.568
X216.408Y-102.108
X216.408Y-104.648
X216.408Y-107.188
X216.408Y-109.728
X216.408Y-112.268
X216.408Y-114.808
X216.408Y-117.348
X216.408Y-119.888
X218.948Y-72.898
X218.948Y-75.438
X218.948Y-77.978
X218.948Y-80.518
X218.948Y-83.058
X218.948Y-85.598
X218.948Y-88.138
X218.948Y-90.678
X218.948Y-93.218
X218.948Y-95.758
X218.948Y-98.298
X218.948Y-100.838
X218.948Y-103.378
X218.948Y-105.918
X218.948Y-108.458
X218.948Y-110.998
X218.948Y-113.538
X218.948Y-116.078
X218.948Y-118.618
X218.948Y-121.158
X225.628Y-84.861
X225.628Y-87.401
X225.628Y-127.838
X225.628Y-130.378
T3
X202.565Y-53.721
X202.565Y-63.881
X217.805Y-58.801
X220.345Y-58.801
T0
M30
