G04 #@! TF.GenerationSoftware,KiCad,Pcbnew,7.0.8*
G04 #@! TF.CreationDate,2025-05-22T18:38:08-07:00*
G04 #@! TF.ProjectId,MegaCD,4d656761-4344-42e6-9b69-6361645f7063,rev?*
G04 #@! TF.SameCoordinates,Original*
G04 #@! TF.FileFunction,Legend,Bot*
G04 #@! TF.FilePolarity,Positive*
%FSLAX46Y46*%
G04 Gerber Fmt 4.6, Leading zero omitted, Abs format (unit mm)*
G04 Created by KiCad (PCBNEW 7.0.8) date 2025-05-22 18:38:08*
%MOMM*%
%LPD*%
G01*
G04 APERTURE LIST*
G04 Aperture macros list*
%AMRoundRect*
0 Rectangle with rounded corners*
0 $1 Rounding radius*
0 $2 $3 $4 $5 $6 $7 $8 $9 X,Y pos of 4 corners*
0 Add a 4 corners polygon primitive as box body*
4,1,4,$2,$3,$4,$5,$6,$7,$8,$9,$2,$3,0*
0 Add four circle primitives for the rounded corners*
1,1,$1+$1,$2,$3*
1,1,$1+$1,$4,$5*
1,1,$1+$1,$6,$7*
1,1,$1+$1,$8,$9*
0 Add four rect primitives between the rounded corners*
20,1,$1+$1,$2,$3,$4,$5,0*
20,1,$1+$1,$4,$5,$6,$7,0*
20,1,$1+$1,$6,$7,$8,$9,0*
20,1,$1+$1,$8,$9,$2,$3,0*%
G04 Aperture macros list end*
%ADD10C,0.150000*%
%ADD11C,0.100000*%
%ADD12C,0.409210*%
%ADD13C,2.767879*%
%ADD14R,1.600000X1.600000*%
%ADD15C,1.600000*%
%ADD16R,1.400000X1.400000*%
%ADD17O,1.400000X1.400000*%
%ADD18R,1.600000X1.200000*%
%ADD19RoundRect,0.300000X0.500000X-0.300000X0.500000X0.300000X-0.500000X0.300000X-0.500000X-0.300000X0*%
%ADD20R,1.400000X1.300000*%
%ADD21RoundRect,0.325000X0.375000X-0.325000X0.375000X0.325000X-0.375000X0.325000X-0.375000X-0.325000X0*%
%ADD22RoundRect,0.375000X-0.375000X0.375000X-0.375000X-0.375000X0.375000X-0.375000X0.375000X0.375000X0*%
%ADD23RoundRect,0.375000X0.375000X-0.375000X0.375000X0.375000X-0.375000X0.375000X-0.375000X-0.375000X0*%
%ADD24R,1.400000X1.600000*%
%ADD25RoundRect,0.350000X-0.350000X-0.450000X0.350000X-0.450000X0.350000X0.450000X-0.350000X0.450000X0*%
%ADD26O,2.000000X2.000000*%
%ADD27R,1.778000X8.000000*%
%ADD28RoundRect,0.375000X-0.375000X-0.375000X0.375000X-0.375000X0.375000X0.375000X-0.375000X0.375000X0*%
%ADD29RoundRect,0.255319X-0.344681X0.394681X-0.344681X-0.394681X0.344681X-0.394681X0.344681X0.394681X0*%
%ADD30RoundRect,0.255319X0.344681X-0.394681X0.344681X0.394681X-0.344681X0.394681X-0.344681X-0.394681X0*%
%ADD31C,1.500000*%
%ADD32RoundRect,0.255319X-0.394681X-0.344681X0.394681X-0.344681X0.394681X0.344681X-0.394681X0.344681X0*%
%ADD33RoundRect,0.150000X0.875000X0.150000X-0.875000X0.150000X-0.875000X-0.150000X0.875000X-0.150000X0*%
%ADD34RoundRect,0.500000X2.000000X0.500000X-2.000000X0.500000X-2.000000X-0.500000X2.000000X-0.500000X0*%
%ADD35RoundRect,0.255319X0.394681X0.344681X-0.394681X0.344681X-0.394681X-0.344681X0.394681X-0.344681X0*%
G04 APERTURE END LIST*
D10*
X227231580Y-86696392D02*
X227707771Y-87029725D01*
X227231580Y-87267820D02*
X228231580Y-87267820D01*
X228231580Y-87267820D02*
X228231580Y-86886868D01*
X228231580Y-86886868D02*
X228183961Y-86791630D01*
X228183961Y-86791630D02*
X228136342Y-86744011D01*
X228136342Y-86744011D02*
X228041104Y-86696392D01*
X228041104Y-86696392D02*
X227898247Y-86696392D01*
X227898247Y-86696392D02*
X227803009Y-86744011D01*
X227803009Y-86744011D02*
X227755390Y-86791630D01*
X227755390Y-86791630D02*
X227707771Y-86886868D01*
X227707771Y-86886868D02*
X227707771Y-87267820D01*
X227755390Y-86267820D02*
X227755390Y-85934487D01*
X227231580Y-85791630D02*
X227231580Y-86267820D01*
X227231580Y-86267820D02*
X228231580Y-86267820D01*
X228231580Y-86267820D02*
X228231580Y-85791630D01*
X227231580Y-85363058D02*
X228231580Y-85363058D01*
X228231580Y-85363058D02*
X228231580Y-85124963D01*
X228231580Y-85124963D02*
X228183961Y-84982106D01*
X228183961Y-84982106D02*
X228088723Y-84886868D01*
X228088723Y-84886868D02*
X227993485Y-84839249D01*
X227993485Y-84839249D02*
X227803009Y-84791630D01*
X227803009Y-84791630D02*
X227660152Y-84791630D01*
X227660152Y-84791630D02*
X227469676Y-84839249D01*
X227469676Y-84839249D02*
X227374438Y-84886868D01*
X227374438Y-84886868D02*
X227279200Y-84982106D01*
X227279200Y-84982106D02*
X227231580Y-85124963D01*
X227231580Y-85124963D02*
X227231580Y-85363058D01*
X228183961Y-130736811D02*
X228231580Y-130832049D01*
X228231580Y-130832049D02*
X228231580Y-130974906D01*
X228231580Y-130974906D02*
X228183961Y-131117763D01*
X228183961Y-131117763D02*
X228088723Y-131213001D01*
X228088723Y-131213001D02*
X227993485Y-131260620D01*
X227993485Y-131260620D02*
X227803009Y-131308239D01*
X227803009Y-131308239D02*
X227660152Y-131308239D01*
X227660152Y-131308239D02*
X227469676Y-131260620D01*
X227469676Y-131260620D02*
X227374438Y-131213001D01*
X227374438Y-131213001D02*
X227279200Y-131117763D01*
X227279200Y-131117763D02*
X227231580Y-130974906D01*
X227231580Y-130974906D02*
X227231580Y-130879668D01*
X227231580Y-130879668D02*
X227279200Y-130736811D01*
X227279200Y-130736811D02*
X227326819Y-130689192D01*
X227326819Y-130689192D02*
X227660152Y-130689192D01*
X227660152Y-130689192D02*
X227660152Y-130879668D01*
X227231580Y-129689192D02*
X227707771Y-130022525D01*
X227231580Y-130260620D02*
X228231580Y-130260620D01*
X228231580Y-130260620D02*
X228231580Y-129879668D01*
X228231580Y-129879668D02*
X228183961Y-129784430D01*
X228183961Y-129784430D02*
X228136342Y-129736811D01*
X228136342Y-129736811D02*
X228041104Y-129689192D01*
X228041104Y-129689192D02*
X227898247Y-129689192D01*
X227898247Y-129689192D02*
X227803009Y-129736811D01*
X227803009Y-129736811D02*
X227755390Y-129784430D01*
X227755390Y-129784430D02*
X227707771Y-129879668D01*
X227707771Y-129879668D02*
X227707771Y-130260620D01*
X227755390Y-129260620D02*
X227755390Y-128927287D01*
X227231580Y-128784430D02*
X227231580Y-129260620D01*
X227231580Y-129260620D02*
X228231580Y-129260620D01*
X228231580Y-129260620D02*
X228231580Y-128784430D01*
X227755390Y-128355858D02*
X227755390Y-128022525D01*
X227231580Y-127879668D02*
X227231580Y-128355858D01*
X227231580Y-128355858D02*
X228231580Y-128355858D01*
X228231580Y-128355858D02*
X228231580Y-127879668D01*
X227231580Y-127451096D02*
X228231580Y-127451096D01*
X228231580Y-127451096D02*
X227231580Y-126879668D01*
X227231580Y-126879668D02*
X228231580Y-126879668D01*
D11*
X84782934Y-57930504D02*
X84306744Y-57930504D01*
X84878172Y-58216219D02*
X84544839Y-57216219D01*
X84544839Y-57216219D02*
X84211506Y-58216219D01*
X83973410Y-57216219D02*
X83354363Y-57216219D01*
X83354363Y-57216219D02*
X83687696Y-57597171D01*
X83687696Y-57597171D02*
X83544839Y-57597171D01*
X83544839Y-57597171D02*
X83449601Y-57644790D01*
X83449601Y-57644790D02*
X83401982Y-57692409D01*
X83401982Y-57692409D02*
X83354363Y-57787647D01*
X83354363Y-57787647D02*
X83354363Y-58025742D01*
X83354363Y-58025742D02*
X83401982Y-58120980D01*
X83401982Y-58120980D02*
X83449601Y-58168600D01*
X83449601Y-58168600D02*
X83544839Y-58216219D01*
X83544839Y-58216219D02*
X83830553Y-58216219D01*
X83830553Y-58216219D02*
X83925791Y-58168600D01*
X83925791Y-58168600D02*
X83973410Y-58120980D01*
X82735315Y-57216219D02*
X82640077Y-57216219D01*
X82640077Y-57216219D02*
X82544839Y-57263838D01*
X82544839Y-57263838D02*
X82497220Y-57311457D01*
X82497220Y-57311457D02*
X82449601Y-57406695D01*
X82449601Y-57406695D02*
X82401982Y-57597171D01*
X82401982Y-57597171D02*
X82401982Y-57835266D01*
X82401982Y-57835266D02*
X82449601Y-58025742D01*
X82449601Y-58025742D02*
X82497220Y-58120980D01*
X82497220Y-58120980D02*
X82544839Y-58168600D01*
X82544839Y-58168600D02*
X82640077Y-58216219D01*
X82640077Y-58216219D02*
X82735315Y-58216219D01*
X82735315Y-58216219D02*
X82830553Y-58168600D01*
X82830553Y-58168600D02*
X82878172Y-58120980D01*
X82878172Y-58120980D02*
X82925791Y-58025742D01*
X82925791Y-58025742D02*
X82973410Y-57835266D01*
X82973410Y-57835266D02*
X82973410Y-57597171D01*
X82973410Y-57597171D02*
X82925791Y-57406695D01*
X82925791Y-57406695D02*
X82878172Y-57311457D01*
X82878172Y-57311457D02*
X82830553Y-57263838D01*
X82830553Y-57263838D02*
X82735315Y-57216219D01*
X159103334Y-57447904D02*
X158627144Y-57447904D01*
X159198572Y-57733619D02*
X158865239Y-56733619D01*
X158865239Y-56733619D02*
X158531906Y-57733619D01*
X157674763Y-57733619D02*
X158246191Y-57733619D01*
X157960477Y-57733619D02*
X157960477Y-56733619D01*
X157960477Y-56733619D02*
X158055715Y-56876476D01*
X158055715Y-56876476D02*
X158150953Y-56971714D01*
X158150953Y-56971714D02*
X158246191Y-57019333D01*
D10*
X112079066Y-110011380D02*
X112126685Y-110059000D01*
X112126685Y-110059000D02*
X112269542Y-110106619D01*
X112269542Y-110106619D02*
X112364780Y-110106619D01*
X112364780Y-110106619D02*
X112507637Y-110059000D01*
X112507637Y-110059000D02*
X112602875Y-109963761D01*
X112602875Y-109963761D02*
X112650494Y-109868523D01*
X112650494Y-109868523D02*
X112698113Y-109678047D01*
X112698113Y-109678047D02*
X112698113Y-109535190D01*
X112698113Y-109535190D02*
X112650494Y-109344714D01*
X112650494Y-109344714D02*
X112602875Y-109249476D01*
X112602875Y-109249476D02*
X112507637Y-109154238D01*
X112507637Y-109154238D02*
X112364780Y-109106619D01*
X112364780Y-109106619D02*
X112269542Y-109106619D01*
X112269542Y-109106619D02*
X112126685Y-109154238D01*
X112126685Y-109154238D02*
X112079066Y-109201857D01*
X111507637Y-109535190D02*
X111602875Y-109487571D01*
X111602875Y-109487571D02*
X111650494Y-109439952D01*
X111650494Y-109439952D02*
X111698113Y-109344714D01*
X111698113Y-109344714D02*
X111698113Y-109297095D01*
X111698113Y-109297095D02*
X111650494Y-109201857D01*
X111650494Y-109201857D02*
X111602875Y-109154238D01*
X111602875Y-109154238D02*
X111507637Y-109106619D01*
X111507637Y-109106619D02*
X111317161Y-109106619D01*
X111317161Y-109106619D02*
X111221923Y-109154238D01*
X111221923Y-109154238D02*
X111174304Y-109201857D01*
X111174304Y-109201857D02*
X111126685Y-109297095D01*
X111126685Y-109297095D02*
X111126685Y-109344714D01*
X111126685Y-109344714D02*
X111174304Y-109439952D01*
X111174304Y-109439952D02*
X111221923Y-109487571D01*
X111221923Y-109487571D02*
X111317161Y-109535190D01*
X111317161Y-109535190D02*
X111507637Y-109535190D01*
X111507637Y-109535190D02*
X111602875Y-109582809D01*
X111602875Y-109582809D02*
X111650494Y-109630428D01*
X111650494Y-109630428D02*
X111698113Y-109725666D01*
X111698113Y-109725666D02*
X111698113Y-109916142D01*
X111698113Y-109916142D02*
X111650494Y-110011380D01*
X111650494Y-110011380D02*
X111602875Y-110059000D01*
X111602875Y-110059000D02*
X111507637Y-110106619D01*
X111507637Y-110106619D02*
X111317161Y-110106619D01*
X111317161Y-110106619D02*
X111221923Y-110059000D01*
X111221923Y-110059000D02*
X111174304Y-110011380D01*
X111174304Y-110011380D02*
X111126685Y-109916142D01*
X111126685Y-109916142D02*
X111126685Y-109725666D01*
X111126685Y-109725666D02*
X111174304Y-109630428D01*
X111174304Y-109630428D02*
X111221923Y-109582809D01*
X111221923Y-109582809D02*
X111317161Y-109535190D01*
X111873380Y-70461047D02*
X111873380Y-70937237D01*
X111873380Y-70937237D02*
X111397190Y-70984856D01*
X111397190Y-70984856D02*
X111444809Y-70937237D01*
X111444809Y-70937237D02*
X111492428Y-70841999D01*
X111492428Y-70841999D02*
X111492428Y-70603904D01*
X111492428Y-70603904D02*
X111444809Y-70508666D01*
X111444809Y-70508666D02*
X111397190Y-70461047D01*
X111397190Y-70461047D02*
X111301952Y-70413428D01*
X111301952Y-70413428D02*
X111063857Y-70413428D01*
X111063857Y-70413428D02*
X110968619Y-70461047D01*
X110968619Y-70461047D02*
X110921000Y-70508666D01*
X110921000Y-70508666D02*
X110873380Y-70603904D01*
X110873380Y-70603904D02*
X110873380Y-70841999D01*
X110873380Y-70841999D02*
X110921000Y-70937237D01*
X110921000Y-70937237D02*
X110968619Y-70984856D01*
X110873380Y-69461047D02*
X110873380Y-70032475D01*
X110873380Y-69746761D02*
X111873380Y-69746761D01*
X111873380Y-69746761D02*
X111730523Y-69841999D01*
X111730523Y-69841999D02*
X111635285Y-69937237D01*
X111635285Y-69937237D02*
X111587666Y-70032475D01*
X111540047Y-69032475D02*
X110540047Y-69032475D01*
X111492428Y-69032475D02*
X111540047Y-68937237D01*
X111540047Y-68937237D02*
X111540047Y-68746761D01*
X111540047Y-68746761D02*
X111492428Y-68651523D01*
X111492428Y-68651523D02*
X111444809Y-68603904D01*
X111444809Y-68603904D02*
X111349571Y-68556285D01*
X111349571Y-68556285D02*
X111063857Y-68556285D01*
X111063857Y-68556285D02*
X110968619Y-68603904D01*
X110968619Y-68603904D02*
X110921000Y-68651523D01*
X110921000Y-68651523D02*
X110873380Y-68746761D01*
X110873380Y-68746761D02*
X110873380Y-68937237D01*
X110873380Y-68937237D02*
X110921000Y-69032475D01*
X111397190Y-67794380D02*
X111397190Y-68127713D01*
X110873380Y-68127713D02*
X111873380Y-68127713D01*
X111873380Y-68127713D02*
X111873380Y-67651523D01*
X225769466Y-120901619D02*
X226102799Y-120425428D01*
X226340894Y-120901619D02*
X226340894Y-119901619D01*
X226340894Y-119901619D02*
X225959942Y-119901619D01*
X225959942Y-119901619D02*
X225864704Y-119949238D01*
X225864704Y-119949238D02*
X225817085Y-119996857D01*
X225817085Y-119996857D02*
X225769466Y-120092095D01*
X225769466Y-120092095D02*
X225769466Y-120234952D01*
X225769466Y-120234952D02*
X225817085Y-120330190D01*
X225817085Y-120330190D02*
X225864704Y-120377809D01*
X225864704Y-120377809D02*
X225959942Y-120425428D01*
X225959942Y-120425428D02*
X226340894Y-120425428D01*
X224864704Y-119901619D02*
X225340894Y-119901619D01*
X225340894Y-119901619D02*
X225388513Y-120377809D01*
X225388513Y-120377809D02*
X225340894Y-120330190D01*
X225340894Y-120330190D02*
X225245656Y-120282571D01*
X225245656Y-120282571D02*
X225007561Y-120282571D01*
X225007561Y-120282571D02*
X224912323Y-120330190D01*
X224912323Y-120330190D02*
X224864704Y-120377809D01*
X224864704Y-120377809D02*
X224817085Y-120473047D01*
X224817085Y-120473047D02*
X224817085Y-120711142D01*
X224817085Y-120711142D02*
X224864704Y-120806380D01*
X224864704Y-120806380D02*
X224912323Y-120854000D01*
X224912323Y-120854000D02*
X225007561Y-120901619D01*
X225007561Y-120901619D02*
X225245656Y-120901619D01*
X225245656Y-120901619D02*
X225340894Y-120854000D01*
X225340894Y-120854000D02*
X225388513Y-120806380D01*
X60078857Y-81690380D02*
X60126476Y-81738000D01*
X60126476Y-81738000D02*
X60269333Y-81785619D01*
X60269333Y-81785619D02*
X60364571Y-81785619D01*
X60364571Y-81785619D02*
X60507428Y-81738000D01*
X60507428Y-81738000D02*
X60602666Y-81642761D01*
X60602666Y-81642761D02*
X60650285Y-81547523D01*
X60650285Y-81547523D02*
X60697904Y-81357047D01*
X60697904Y-81357047D02*
X60697904Y-81214190D01*
X60697904Y-81214190D02*
X60650285Y-81023714D01*
X60650285Y-81023714D02*
X60602666Y-80928476D01*
X60602666Y-80928476D02*
X60507428Y-80833238D01*
X60507428Y-80833238D02*
X60364571Y-80785619D01*
X60364571Y-80785619D02*
X60269333Y-80785619D01*
X60269333Y-80785619D02*
X60126476Y-80833238D01*
X60126476Y-80833238D02*
X60078857Y-80880857D01*
X59174095Y-80785619D02*
X59650285Y-80785619D01*
X59650285Y-80785619D02*
X59697904Y-81261809D01*
X59697904Y-81261809D02*
X59650285Y-81214190D01*
X59650285Y-81214190D02*
X59555047Y-81166571D01*
X59555047Y-81166571D02*
X59316952Y-81166571D01*
X59316952Y-81166571D02*
X59221714Y-81214190D01*
X59221714Y-81214190D02*
X59174095Y-81261809D01*
X59174095Y-81261809D02*
X59126476Y-81357047D01*
X59126476Y-81357047D02*
X59126476Y-81595142D01*
X59126476Y-81595142D02*
X59174095Y-81690380D01*
X59174095Y-81690380D02*
X59221714Y-81738000D01*
X59221714Y-81738000D02*
X59316952Y-81785619D01*
X59316952Y-81785619D02*
X59555047Y-81785619D01*
X59555047Y-81785619D02*
X59650285Y-81738000D01*
X59650285Y-81738000D02*
X59697904Y-81690380D01*
X58507428Y-80785619D02*
X58412190Y-80785619D01*
X58412190Y-80785619D02*
X58316952Y-80833238D01*
X58316952Y-80833238D02*
X58269333Y-80880857D01*
X58269333Y-80880857D02*
X58221714Y-80976095D01*
X58221714Y-80976095D02*
X58174095Y-81166571D01*
X58174095Y-81166571D02*
X58174095Y-81404666D01*
X58174095Y-81404666D02*
X58221714Y-81595142D01*
X58221714Y-81595142D02*
X58269333Y-81690380D01*
X58269333Y-81690380D02*
X58316952Y-81738000D01*
X58316952Y-81738000D02*
X58412190Y-81785619D01*
X58412190Y-81785619D02*
X58507428Y-81785619D01*
X58507428Y-81785619D02*
X58602666Y-81738000D01*
X58602666Y-81738000D02*
X58650285Y-81690380D01*
X58650285Y-81690380D02*
X58697904Y-81595142D01*
X58697904Y-81595142D02*
X58745523Y-81404666D01*
X58745523Y-81404666D02*
X58745523Y-81166571D01*
X58745523Y-81166571D02*
X58697904Y-80976095D01*
X58697904Y-80976095D02*
X58650285Y-80880857D01*
X58650285Y-80880857D02*
X58602666Y-80833238D01*
X58602666Y-80833238D02*
X58507428Y-80785619D01*
X67571857Y-112017980D02*
X67619476Y-112065600D01*
X67619476Y-112065600D02*
X67762333Y-112113219D01*
X67762333Y-112113219D02*
X67857571Y-112113219D01*
X67857571Y-112113219D02*
X68000428Y-112065600D01*
X68000428Y-112065600D02*
X68095666Y-111970361D01*
X68095666Y-111970361D02*
X68143285Y-111875123D01*
X68143285Y-111875123D02*
X68190904Y-111684647D01*
X68190904Y-111684647D02*
X68190904Y-111541790D01*
X68190904Y-111541790D02*
X68143285Y-111351314D01*
X68143285Y-111351314D02*
X68095666Y-111256076D01*
X68095666Y-111256076D02*
X68000428Y-111160838D01*
X68000428Y-111160838D02*
X67857571Y-111113219D01*
X67857571Y-111113219D02*
X67762333Y-111113219D01*
X67762333Y-111113219D02*
X67619476Y-111160838D01*
X67619476Y-111160838D02*
X67571857Y-111208457D01*
X66714714Y-111446552D02*
X66714714Y-112113219D01*
X66952809Y-111065600D02*
X67190904Y-111779885D01*
X67190904Y-111779885D02*
X66571857Y-111779885D01*
X65762333Y-111446552D02*
X65762333Y-112113219D01*
X66000428Y-111065600D02*
X66238523Y-111779885D01*
X66238523Y-111779885D02*
X65619476Y-111779885D01*
X145905457Y-121263580D02*
X145953076Y-121311200D01*
X145953076Y-121311200D02*
X146095933Y-121358819D01*
X146095933Y-121358819D02*
X146191171Y-121358819D01*
X146191171Y-121358819D02*
X146334028Y-121311200D01*
X146334028Y-121311200D02*
X146429266Y-121215961D01*
X146429266Y-121215961D02*
X146476885Y-121120723D01*
X146476885Y-121120723D02*
X146524504Y-120930247D01*
X146524504Y-120930247D02*
X146524504Y-120787390D01*
X146524504Y-120787390D02*
X146476885Y-120596914D01*
X146476885Y-120596914D02*
X146429266Y-120501676D01*
X146429266Y-120501676D02*
X146334028Y-120406438D01*
X146334028Y-120406438D02*
X146191171Y-120358819D01*
X146191171Y-120358819D02*
X146095933Y-120358819D01*
X146095933Y-120358819D02*
X145953076Y-120406438D01*
X145953076Y-120406438D02*
X145905457Y-120454057D01*
X144953076Y-121358819D02*
X145524504Y-121358819D01*
X145238790Y-121358819D02*
X145238790Y-120358819D01*
X145238790Y-120358819D02*
X145334028Y-120501676D01*
X145334028Y-120501676D02*
X145429266Y-120596914D01*
X145429266Y-120596914D02*
X145524504Y-120644533D01*
X144381647Y-120787390D02*
X144476885Y-120739771D01*
X144476885Y-120739771D02*
X144524504Y-120692152D01*
X144524504Y-120692152D02*
X144572123Y-120596914D01*
X144572123Y-120596914D02*
X144572123Y-120549295D01*
X144572123Y-120549295D02*
X144524504Y-120454057D01*
X144524504Y-120454057D02*
X144476885Y-120406438D01*
X144476885Y-120406438D02*
X144381647Y-120358819D01*
X144381647Y-120358819D02*
X144191171Y-120358819D01*
X144191171Y-120358819D02*
X144095933Y-120406438D01*
X144095933Y-120406438D02*
X144048314Y-120454057D01*
X144048314Y-120454057D02*
X144000695Y-120549295D01*
X144000695Y-120549295D02*
X144000695Y-120596914D01*
X144000695Y-120596914D02*
X144048314Y-120692152D01*
X144048314Y-120692152D02*
X144095933Y-120739771D01*
X144095933Y-120739771D02*
X144191171Y-120787390D01*
X144191171Y-120787390D02*
X144381647Y-120787390D01*
X144381647Y-120787390D02*
X144476885Y-120835009D01*
X144476885Y-120835009D02*
X144524504Y-120882628D01*
X144524504Y-120882628D02*
X144572123Y-120977866D01*
X144572123Y-120977866D02*
X144572123Y-121168342D01*
X144572123Y-121168342D02*
X144524504Y-121263580D01*
X144524504Y-121263580D02*
X144476885Y-121311200D01*
X144476885Y-121311200D02*
X144381647Y-121358819D01*
X144381647Y-121358819D02*
X144191171Y-121358819D01*
X144191171Y-121358819D02*
X144095933Y-121311200D01*
X144095933Y-121311200D02*
X144048314Y-121263580D01*
X144048314Y-121263580D02*
X144000695Y-121168342D01*
X144000695Y-121168342D02*
X144000695Y-120977866D01*
X144000695Y-120977866D02*
X144048314Y-120882628D01*
X144048314Y-120882628D02*
X144095933Y-120835009D01*
X144095933Y-120835009D02*
X144191171Y-120787390D01*
D11*
X139264923Y-76581219D02*
X139264923Y-75581219D01*
X139264923Y-75581219D02*
X138931590Y-76295504D01*
X138931590Y-76295504D02*
X138598257Y-75581219D01*
X138598257Y-75581219D02*
X138598257Y-76581219D01*
X138074447Y-76581219D02*
X137883971Y-76581219D01*
X137883971Y-76581219D02*
X137788733Y-76533600D01*
X137788733Y-76533600D02*
X137741114Y-76485980D01*
X137741114Y-76485980D02*
X137645876Y-76343123D01*
X137645876Y-76343123D02*
X137598257Y-76152647D01*
X137598257Y-76152647D02*
X137598257Y-75771695D01*
X137598257Y-75771695D02*
X137645876Y-75676457D01*
X137645876Y-75676457D02*
X137693495Y-75628838D01*
X137693495Y-75628838D02*
X137788733Y-75581219D01*
X137788733Y-75581219D02*
X137979209Y-75581219D01*
X137979209Y-75581219D02*
X138074447Y-75628838D01*
X138074447Y-75628838D02*
X138122066Y-75676457D01*
X138122066Y-75676457D02*
X138169685Y-75771695D01*
X138169685Y-75771695D02*
X138169685Y-76009790D01*
X138169685Y-76009790D02*
X138122066Y-76105028D01*
X138122066Y-76105028D02*
X138074447Y-76152647D01*
X138074447Y-76152647D02*
X137979209Y-76200266D01*
X137979209Y-76200266D02*
X137788733Y-76200266D01*
X137788733Y-76200266D02*
X137693495Y-76152647D01*
X137693495Y-76152647D02*
X137645876Y-76105028D01*
X137645876Y-76105028D02*
X137598257Y-76009790D01*
X165325323Y-85166419D02*
X165325323Y-84166419D01*
X165325323Y-84166419D02*
X164991990Y-84880704D01*
X164991990Y-84880704D02*
X164658657Y-84166419D01*
X164658657Y-84166419D02*
X164658657Y-85166419D01*
X163706276Y-84166419D02*
X164182466Y-84166419D01*
X164182466Y-84166419D02*
X164230085Y-84642609D01*
X164230085Y-84642609D02*
X164182466Y-84594990D01*
X164182466Y-84594990D02*
X164087228Y-84547371D01*
X164087228Y-84547371D02*
X163849133Y-84547371D01*
X163849133Y-84547371D02*
X163753895Y-84594990D01*
X163753895Y-84594990D02*
X163706276Y-84642609D01*
X163706276Y-84642609D02*
X163658657Y-84737847D01*
X163658657Y-84737847D02*
X163658657Y-84975942D01*
X163658657Y-84975942D02*
X163706276Y-85071180D01*
X163706276Y-85071180D02*
X163753895Y-85118800D01*
X163753895Y-85118800D02*
X163849133Y-85166419D01*
X163849133Y-85166419D02*
X164087228Y-85166419D01*
X164087228Y-85166419D02*
X164182466Y-85118800D01*
X164182466Y-85118800D02*
X164230085Y-85071180D01*
D10*
X153373057Y-108411180D02*
X153420676Y-108458800D01*
X153420676Y-108458800D02*
X153563533Y-108506419D01*
X153563533Y-108506419D02*
X153658771Y-108506419D01*
X153658771Y-108506419D02*
X153801628Y-108458800D01*
X153801628Y-108458800D02*
X153896866Y-108363561D01*
X153896866Y-108363561D02*
X153944485Y-108268323D01*
X153944485Y-108268323D02*
X153992104Y-108077847D01*
X153992104Y-108077847D02*
X153992104Y-107934990D01*
X153992104Y-107934990D02*
X153944485Y-107744514D01*
X153944485Y-107744514D02*
X153896866Y-107649276D01*
X153896866Y-107649276D02*
X153801628Y-107554038D01*
X153801628Y-107554038D02*
X153658771Y-107506419D01*
X153658771Y-107506419D02*
X153563533Y-107506419D01*
X153563533Y-107506419D02*
X153420676Y-107554038D01*
X153420676Y-107554038D02*
X153373057Y-107601657D01*
X152992104Y-107601657D02*
X152944485Y-107554038D01*
X152944485Y-107554038D02*
X152849247Y-107506419D01*
X152849247Y-107506419D02*
X152611152Y-107506419D01*
X152611152Y-107506419D02*
X152515914Y-107554038D01*
X152515914Y-107554038D02*
X152468295Y-107601657D01*
X152468295Y-107601657D02*
X152420676Y-107696895D01*
X152420676Y-107696895D02*
X152420676Y-107792133D01*
X152420676Y-107792133D02*
X152468295Y-107934990D01*
X152468295Y-107934990D02*
X153039723Y-108506419D01*
X153039723Y-108506419D02*
X152420676Y-108506419D01*
X151468295Y-108506419D02*
X152039723Y-108506419D01*
X151754009Y-108506419D02*
X151754009Y-107506419D01*
X151754009Y-107506419D02*
X151849247Y-107649276D01*
X151849247Y-107649276D02*
X151944485Y-107744514D01*
X151944485Y-107744514D02*
X152039723Y-107792133D01*
X199607466Y-91996419D02*
X199940799Y-91520228D01*
X200178894Y-91996419D02*
X200178894Y-90996419D01*
X200178894Y-90996419D02*
X199797942Y-90996419D01*
X199797942Y-90996419D02*
X199702704Y-91044038D01*
X199702704Y-91044038D02*
X199655085Y-91091657D01*
X199655085Y-91091657D02*
X199607466Y-91186895D01*
X199607466Y-91186895D02*
X199607466Y-91329752D01*
X199607466Y-91329752D02*
X199655085Y-91424990D01*
X199655085Y-91424990D02*
X199702704Y-91472609D01*
X199702704Y-91472609D02*
X199797942Y-91520228D01*
X199797942Y-91520228D02*
X200178894Y-91520228D01*
X199274132Y-90996419D02*
X198655085Y-90996419D01*
X198655085Y-90996419D02*
X198988418Y-91377371D01*
X198988418Y-91377371D02*
X198845561Y-91377371D01*
X198845561Y-91377371D02*
X198750323Y-91424990D01*
X198750323Y-91424990D02*
X198702704Y-91472609D01*
X198702704Y-91472609D02*
X198655085Y-91567847D01*
X198655085Y-91567847D02*
X198655085Y-91805942D01*
X198655085Y-91805942D02*
X198702704Y-91901180D01*
X198702704Y-91901180D02*
X198750323Y-91948800D01*
X198750323Y-91948800D02*
X198845561Y-91996419D01*
X198845561Y-91996419D02*
X199131275Y-91996419D01*
X199131275Y-91996419D02*
X199226513Y-91948800D01*
X199226513Y-91948800D02*
X199274132Y-91901180D01*
X213889419Y-83650057D02*
X213841800Y-83697676D01*
X213841800Y-83697676D02*
X213794180Y-83840533D01*
X213794180Y-83840533D02*
X213794180Y-83935771D01*
X213794180Y-83935771D02*
X213841800Y-84078628D01*
X213841800Y-84078628D02*
X213937038Y-84173866D01*
X213937038Y-84173866D02*
X214032276Y-84221485D01*
X214032276Y-84221485D02*
X214222752Y-84269104D01*
X214222752Y-84269104D02*
X214365609Y-84269104D01*
X214365609Y-84269104D02*
X214556085Y-84221485D01*
X214556085Y-84221485D02*
X214651323Y-84173866D01*
X214651323Y-84173866D02*
X214746561Y-84078628D01*
X214746561Y-84078628D02*
X214794180Y-83935771D01*
X214794180Y-83935771D02*
X214794180Y-83840533D01*
X214794180Y-83840533D02*
X214746561Y-83697676D01*
X214746561Y-83697676D02*
X214698942Y-83650057D01*
X214698942Y-83269104D02*
X214746561Y-83221485D01*
X214746561Y-83221485D02*
X214794180Y-83126247D01*
X214794180Y-83126247D02*
X214794180Y-82888152D01*
X214794180Y-82888152D02*
X214746561Y-82792914D01*
X214746561Y-82792914D02*
X214698942Y-82745295D01*
X214698942Y-82745295D02*
X214603704Y-82697676D01*
X214603704Y-82697676D02*
X214508466Y-82697676D01*
X214508466Y-82697676D02*
X214365609Y-82745295D01*
X214365609Y-82745295D02*
X213794180Y-83316723D01*
X213794180Y-83316723D02*
X213794180Y-82697676D01*
X213794180Y-82221485D02*
X213794180Y-82031009D01*
X213794180Y-82031009D02*
X213841800Y-81935771D01*
X213841800Y-81935771D02*
X213889419Y-81888152D01*
X213889419Y-81888152D02*
X214032276Y-81792914D01*
X214032276Y-81792914D02*
X214222752Y-81745295D01*
X214222752Y-81745295D02*
X214603704Y-81745295D01*
X214603704Y-81745295D02*
X214698942Y-81792914D01*
X214698942Y-81792914D02*
X214746561Y-81840533D01*
X214746561Y-81840533D02*
X214794180Y-81935771D01*
X214794180Y-81935771D02*
X214794180Y-82126247D01*
X214794180Y-82126247D02*
X214746561Y-82221485D01*
X214746561Y-82221485D02*
X214698942Y-82269104D01*
X214698942Y-82269104D02*
X214603704Y-82316723D01*
X214603704Y-82316723D02*
X214365609Y-82316723D01*
X214365609Y-82316723D02*
X214270371Y-82269104D01*
X214270371Y-82269104D02*
X214222752Y-82221485D01*
X214222752Y-82221485D02*
X214175133Y-82126247D01*
X214175133Y-82126247D02*
X214175133Y-81935771D01*
X214175133Y-81935771D02*
X214222752Y-81840533D01*
X214222752Y-81840533D02*
X214270371Y-81792914D01*
X214270371Y-81792914D02*
X214365609Y-81745295D01*
X181186057Y-131118780D02*
X181233676Y-131166400D01*
X181233676Y-131166400D02*
X181376533Y-131214019D01*
X181376533Y-131214019D02*
X181471771Y-131214019D01*
X181471771Y-131214019D02*
X181614628Y-131166400D01*
X181614628Y-131166400D02*
X181709866Y-131071161D01*
X181709866Y-131071161D02*
X181757485Y-130975923D01*
X181757485Y-130975923D02*
X181805104Y-130785447D01*
X181805104Y-130785447D02*
X181805104Y-130642590D01*
X181805104Y-130642590D02*
X181757485Y-130452114D01*
X181757485Y-130452114D02*
X181709866Y-130356876D01*
X181709866Y-130356876D02*
X181614628Y-130261638D01*
X181614628Y-130261638D02*
X181471771Y-130214019D01*
X181471771Y-130214019D02*
X181376533Y-130214019D01*
X181376533Y-130214019D02*
X181233676Y-130261638D01*
X181233676Y-130261638D02*
X181186057Y-130309257D01*
X180233676Y-131214019D02*
X180805104Y-131214019D01*
X180519390Y-131214019D02*
X180519390Y-130214019D01*
X180519390Y-130214019D02*
X180614628Y-130356876D01*
X180614628Y-130356876D02*
X180709866Y-130452114D01*
X180709866Y-130452114D02*
X180805104Y-130499733D01*
X179376533Y-130214019D02*
X179567009Y-130214019D01*
X179567009Y-130214019D02*
X179662247Y-130261638D01*
X179662247Y-130261638D02*
X179709866Y-130309257D01*
X179709866Y-130309257D02*
X179805104Y-130452114D01*
X179805104Y-130452114D02*
X179852723Y-130642590D01*
X179852723Y-130642590D02*
X179852723Y-131023542D01*
X179852723Y-131023542D02*
X179805104Y-131118780D01*
X179805104Y-131118780D02*
X179757485Y-131166400D01*
X179757485Y-131166400D02*
X179662247Y-131214019D01*
X179662247Y-131214019D02*
X179471771Y-131214019D01*
X179471771Y-131214019D02*
X179376533Y-131166400D01*
X179376533Y-131166400D02*
X179328914Y-131118780D01*
X179328914Y-131118780D02*
X179281295Y-131023542D01*
X179281295Y-131023542D02*
X179281295Y-130785447D01*
X179281295Y-130785447D02*
X179328914Y-130690209D01*
X179328914Y-130690209D02*
X179376533Y-130642590D01*
X179376533Y-130642590D02*
X179471771Y-130594971D01*
X179471771Y-130594971D02*
X179662247Y-130594971D01*
X179662247Y-130594971D02*
X179757485Y-130642590D01*
X179757485Y-130642590D02*
X179805104Y-130690209D01*
X179805104Y-130690209D02*
X179852723Y-130785447D01*
D11*
X142668523Y-100304819D02*
X142668523Y-99304819D01*
X142668523Y-99304819D02*
X142335190Y-100019104D01*
X142335190Y-100019104D02*
X142001857Y-99304819D01*
X142001857Y-99304819D02*
X142001857Y-100304819D01*
X141620904Y-99304819D02*
X140954238Y-99304819D01*
X140954238Y-99304819D02*
X141382809Y-100304819D01*
X113934713Y-77952819D02*
X113934713Y-76952819D01*
X113934713Y-76952819D02*
X113601380Y-77667104D01*
X113601380Y-77667104D02*
X113268047Y-76952819D01*
X113268047Y-76952819D02*
X113268047Y-77952819D01*
X112268047Y-77952819D02*
X112839475Y-77952819D01*
X112553761Y-77952819D02*
X112553761Y-76952819D01*
X112553761Y-76952819D02*
X112648999Y-77095676D01*
X112648999Y-77095676D02*
X112744237Y-77190914D01*
X112744237Y-77190914D02*
X112839475Y-77238533D01*
X111648999Y-76952819D02*
X111553761Y-76952819D01*
X111553761Y-76952819D02*
X111458523Y-77000438D01*
X111458523Y-77000438D02*
X111410904Y-77048057D01*
X111410904Y-77048057D02*
X111363285Y-77143295D01*
X111363285Y-77143295D02*
X111315666Y-77333771D01*
X111315666Y-77333771D02*
X111315666Y-77571866D01*
X111315666Y-77571866D02*
X111363285Y-77762342D01*
X111363285Y-77762342D02*
X111410904Y-77857580D01*
X111410904Y-77857580D02*
X111458523Y-77905200D01*
X111458523Y-77905200D02*
X111553761Y-77952819D01*
X111553761Y-77952819D02*
X111648999Y-77952819D01*
X111648999Y-77952819D02*
X111744237Y-77905200D01*
X111744237Y-77905200D02*
X111791856Y-77857580D01*
X111791856Y-77857580D02*
X111839475Y-77762342D01*
X111839475Y-77762342D02*
X111887094Y-77571866D01*
X111887094Y-77571866D02*
X111887094Y-77333771D01*
X111887094Y-77333771D02*
X111839475Y-77143295D01*
X111839475Y-77143295D02*
X111791856Y-77048057D01*
X111791856Y-77048057D02*
X111744237Y-77000438D01*
X111744237Y-77000438D02*
X111648999Y-76952819D01*
D10*
X68613257Y-77016780D02*
X68660876Y-77064400D01*
X68660876Y-77064400D02*
X68803733Y-77112019D01*
X68803733Y-77112019D02*
X68898971Y-77112019D01*
X68898971Y-77112019D02*
X69041828Y-77064400D01*
X69041828Y-77064400D02*
X69137066Y-76969161D01*
X69137066Y-76969161D02*
X69184685Y-76873923D01*
X69184685Y-76873923D02*
X69232304Y-76683447D01*
X69232304Y-76683447D02*
X69232304Y-76540590D01*
X69232304Y-76540590D02*
X69184685Y-76350114D01*
X69184685Y-76350114D02*
X69137066Y-76254876D01*
X69137066Y-76254876D02*
X69041828Y-76159638D01*
X69041828Y-76159638D02*
X68898971Y-76112019D01*
X68898971Y-76112019D02*
X68803733Y-76112019D01*
X68803733Y-76112019D02*
X68660876Y-76159638D01*
X68660876Y-76159638D02*
X68613257Y-76207257D01*
X67756114Y-76445352D02*
X67756114Y-77112019D01*
X67994209Y-76064400D02*
X68232304Y-76778685D01*
X68232304Y-76778685D02*
X67613257Y-76778685D01*
X67041828Y-76112019D02*
X66946590Y-76112019D01*
X66946590Y-76112019D02*
X66851352Y-76159638D01*
X66851352Y-76159638D02*
X66803733Y-76207257D01*
X66803733Y-76207257D02*
X66756114Y-76302495D01*
X66756114Y-76302495D02*
X66708495Y-76492971D01*
X66708495Y-76492971D02*
X66708495Y-76731066D01*
X66708495Y-76731066D02*
X66756114Y-76921542D01*
X66756114Y-76921542D02*
X66803733Y-77016780D01*
X66803733Y-77016780D02*
X66851352Y-77064400D01*
X66851352Y-77064400D02*
X66946590Y-77112019D01*
X66946590Y-77112019D02*
X67041828Y-77112019D01*
X67041828Y-77112019D02*
X67137066Y-77064400D01*
X67137066Y-77064400D02*
X67184685Y-77016780D01*
X67184685Y-77016780D02*
X67232304Y-76921542D01*
X67232304Y-76921542D02*
X67279923Y-76731066D01*
X67279923Y-76731066D02*
X67279923Y-76492971D01*
X67279923Y-76492971D02*
X67232304Y-76302495D01*
X67232304Y-76302495D02*
X67184685Y-76207257D01*
X67184685Y-76207257D02*
X67137066Y-76159638D01*
X67137066Y-76159638D02*
X67041828Y-76112019D01*
X213914819Y-96883457D02*
X213867200Y-96931076D01*
X213867200Y-96931076D02*
X213819580Y-97073933D01*
X213819580Y-97073933D02*
X213819580Y-97169171D01*
X213819580Y-97169171D02*
X213867200Y-97312028D01*
X213867200Y-97312028D02*
X213962438Y-97407266D01*
X213962438Y-97407266D02*
X214057676Y-97454885D01*
X214057676Y-97454885D02*
X214248152Y-97502504D01*
X214248152Y-97502504D02*
X214391009Y-97502504D01*
X214391009Y-97502504D02*
X214581485Y-97454885D01*
X214581485Y-97454885D02*
X214676723Y-97407266D01*
X214676723Y-97407266D02*
X214771961Y-97312028D01*
X214771961Y-97312028D02*
X214819580Y-97169171D01*
X214819580Y-97169171D02*
X214819580Y-97073933D01*
X214819580Y-97073933D02*
X214771961Y-96931076D01*
X214771961Y-96931076D02*
X214724342Y-96883457D01*
X214819580Y-96550123D02*
X214819580Y-95931076D01*
X214819580Y-95931076D02*
X214438628Y-96264409D01*
X214438628Y-96264409D02*
X214438628Y-96121552D01*
X214438628Y-96121552D02*
X214391009Y-96026314D01*
X214391009Y-96026314D02*
X214343390Y-95978695D01*
X214343390Y-95978695D02*
X214248152Y-95931076D01*
X214248152Y-95931076D02*
X214010057Y-95931076D01*
X214010057Y-95931076D02*
X213914819Y-95978695D01*
X213914819Y-95978695D02*
X213867200Y-96026314D01*
X213867200Y-96026314D02*
X213819580Y-96121552D01*
X213819580Y-96121552D02*
X213819580Y-96407266D01*
X213819580Y-96407266D02*
X213867200Y-96502504D01*
X213867200Y-96502504D02*
X213914819Y-96550123D01*
X214819580Y-95073933D02*
X214819580Y-95264409D01*
X214819580Y-95264409D02*
X214771961Y-95359647D01*
X214771961Y-95359647D02*
X214724342Y-95407266D01*
X214724342Y-95407266D02*
X214581485Y-95502504D01*
X214581485Y-95502504D02*
X214391009Y-95550123D01*
X214391009Y-95550123D02*
X214010057Y-95550123D01*
X214010057Y-95550123D02*
X213914819Y-95502504D01*
X213914819Y-95502504D02*
X213867200Y-95454885D01*
X213867200Y-95454885D02*
X213819580Y-95359647D01*
X213819580Y-95359647D02*
X213819580Y-95169171D01*
X213819580Y-95169171D02*
X213867200Y-95073933D01*
X213867200Y-95073933D02*
X213914819Y-95026314D01*
X213914819Y-95026314D02*
X214010057Y-94978695D01*
X214010057Y-94978695D02*
X214248152Y-94978695D01*
X214248152Y-94978695D02*
X214343390Y-95026314D01*
X214343390Y-95026314D02*
X214391009Y-95073933D01*
X214391009Y-95073933D02*
X214438628Y-95169171D01*
X214438628Y-95169171D02*
X214438628Y-95359647D01*
X214438628Y-95359647D02*
X214391009Y-95454885D01*
X214391009Y-95454885D02*
X214343390Y-95502504D01*
X214343390Y-95502504D02*
X214248152Y-95550123D01*
X209888057Y-67542580D02*
X209935676Y-67590200D01*
X209935676Y-67590200D02*
X210078533Y-67637819D01*
X210078533Y-67637819D02*
X210173771Y-67637819D01*
X210173771Y-67637819D02*
X210316628Y-67590200D01*
X210316628Y-67590200D02*
X210411866Y-67494961D01*
X210411866Y-67494961D02*
X210459485Y-67399723D01*
X210459485Y-67399723D02*
X210507104Y-67209247D01*
X210507104Y-67209247D02*
X210507104Y-67066390D01*
X210507104Y-67066390D02*
X210459485Y-66875914D01*
X210459485Y-66875914D02*
X210411866Y-66780676D01*
X210411866Y-66780676D02*
X210316628Y-66685438D01*
X210316628Y-66685438D02*
X210173771Y-66637819D01*
X210173771Y-66637819D02*
X210078533Y-66637819D01*
X210078533Y-66637819D02*
X209935676Y-66685438D01*
X209935676Y-66685438D02*
X209888057Y-66733057D01*
X209507104Y-66733057D02*
X209459485Y-66685438D01*
X209459485Y-66685438D02*
X209364247Y-66637819D01*
X209364247Y-66637819D02*
X209126152Y-66637819D01*
X209126152Y-66637819D02*
X209030914Y-66685438D01*
X209030914Y-66685438D02*
X208983295Y-66733057D01*
X208983295Y-66733057D02*
X208935676Y-66828295D01*
X208935676Y-66828295D02*
X208935676Y-66923533D01*
X208935676Y-66923533D02*
X208983295Y-67066390D01*
X208983295Y-67066390D02*
X209554723Y-67637819D01*
X209554723Y-67637819D02*
X208935676Y-67637819D01*
X208602342Y-66637819D02*
X207935676Y-66637819D01*
X207935676Y-66637819D02*
X208364247Y-67637819D01*
X180344580Y-119504619D02*
X180344580Y-118504619D01*
X179296962Y-119409380D02*
X179344581Y-119457000D01*
X179344581Y-119457000D02*
X179487438Y-119504619D01*
X179487438Y-119504619D02*
X179582676Y-119504619D01*
X179582676Y-119504619D02*
X179725533Y-119457000D01*
X179725533Y-119457000D02*
X179820771Y-119361761D01*
X179820771Y-119361761D02*
X179868390Y-119266523D01*
X179868390Y-119266523D02*
X179916009Y-119076047D01*
X179916009Y-119076047D02*
X179916009Y-118933190D01*
X179916009Y-118933190D02*
X179868390Y-118742714D01*
X179868390Y-118742714D02*
X179820771Y-118647476D01*
X179820771Y-118647476D02*
X179725533Y-118552238D01*
X179725533Y-118552238D02*
X179582676Y-118504619D01*
X179582676Y-118504619D02*
X179487438Y-118504619D01*
X179487438Y-118504619D02*
X179344581Y-118552238D01*
X179344581Y-118552238D02*
X179296962Y-118599857D01*
X178916009Y-118599857D02*
X178868390Y-118552238D01*
X178868390Y-118552238D02*
X178773152Y-118504619D01*
X178773152Y-118504619D02*
X178535057Y-118504619D01*
X178535057Y-118504619D02*
X178439819Y-118552238D01*
X178439819Y-118552238D02*
X178392200Y-118599857D01*
X178392200Y-118599857D02*
X178344581Y-118695095D01*
X178344581Y-118695095D02*
X178344581Y-118790333D01*
X178344581Y-118790333D02*
X178392200Y-118933190D01*
X178392200Y-118933190D02*
X178963628Y-119504619D01*
X178963628Y-119504619D02*
X178344581Y-119504619D01*
X177725533Y-118504619D02*
X177630295Y-118504619D01*
X177630295Y-118504619D02*
X177535057Y-118552238D01*
X177535057Y-118552238D02*
X177487438Y-118599857D01*
X177487438Y-118599857D02*
X177439819Y-118695095D01*
X177439819Y-118695095D02*
X177392200Y-118885571D01*
X177392200Y-118885571D02*
X177392200Y-119123666D01*
X177392200Y-119123666D02*
X177439819Y-119314142D01*
X177439819Y-119314142D02*
X177487438Y-119409380D01*
X177487438Y-119409380D02*
X177535057Y-119457000D01*
X177535057Y-119457000D02*
X177630295Y-119504619D01*
X177630295Y-119504619D02*
X177725533Y-119504619D01*
X177725533Y-119504619D02*
X177820771Y-119457000D01*
X177820771Y-119457000D02*
X177868390Y-119409380D01*
X177868390Y-119409380D02*
X177916009Y-119314142D01*
X177916009Y-119314142D02*
X177963628Y-119123666D01*
X177963628Y-119123666D02*
X177963628Y-118885571D01*
X177963628Y-118885571D02*
X177916009Y-118695095D01*
X177916009Y-118695095D02*
X177868390Y-118599857D01*
X177868390Y-118599857D02*
X177820771Y-118552238D01*
X177820771Y-118552238D02*
X177725533Y-118504619D01*
D11*
X177099306Y-112775419D02*
X177670734Y-112775419D01*
X177385020Y-112775419D02*
X177385020Y-111775419D01*
X177385020Y-111775419D02*
X177480258Y-111918276D01*
X177480258Y-111918276D02*
X177575496Y-112013514D01*
X177575496Y-112013514D02*
X177670734Y-112061133D01*
X162430734Y-111362657D02*
X162383115Y-111315038D01*
X162383115Y-111315038D02*
X162287877Y-111267419D01*
X162287877Y-111267419D02*
X162049782Y-111267419D01*
X162049782Y-111267419D02*
X161954544Y-111315038D01*
X161954544Y-111315038D02*
X161906925Y-111362657D01*
X161906925Y-111362657D02*
X161859306Y-111457895D01*
X161859306Y-111457895D02*
X161859306Y-111553133D01*
X161859306Y-111553133D02*
X161906925Y-111695990D01*
X161906925Y-111695990D02*
X162478353Y-112267419D01*
X162478353Y-112267419D02*
X161859306Y-112267419D01*
X161240258Y-111267419D02*
X161145020Y-111267419D01*
X161145020Y-111267419D02*
X161049782Y-111315038D01*
X161049782Y-111315038D02*
X161002163Y-111362657D01*
X161002163Y-111362657D02*
X160954544Y-111457895D01*
X160954544Y-111457895D02*
X160906925Y-111648371D01*
X160906925Y-111648371D02*
X160906925Y-111886466D01*
X160906925Y-111886466D02*
X160954544Y-112076942D01*
X160954544Y-112076942D02*
X161002163Y-112172180D01*
X161002163Y-112172180D02*
X161049782Y-112219800D01*
X161049782Y-112219800D02*
X161145020Y-112267419D01*
X161145020Y-112267419D02*
X161240258Y-112267419D01*
X161240258Y-112267419D02*
X161335496Y-112219800D01*
X161335496Y-112219800D02*
X161383115Y-112172180D01*
X161383115Y-112172180D02*
X161430734Y-112076942D01*
X161430734Y-112076942D02*
X161478353Y-111886466D01*
X161478353Y-111886466D02*
X161478353Y-111648371D01*
X161478353Y-111648371D02*
X161430734Y-111457895D01*
X161430734Y-111457895D02*
X161383115Y-111362657D01*
X161383115Y-111362657D02*
X161335496Y-111315038D01*
X161335496Y-111315038D02*
X161240258Y-111267419D01*
D10*
X169126819Y-114340095D02*
X169126819Y-115006761D01*
X169126819Y-115006761D02*
X170126819Y-114578190D01*
X169460152Y-115816285D02*
X170126819Y-115816285D01*
X169079200Y-115578190D02*
X169793485Y-115340095D01*
X169793485Y-115340095D02*
X169793485Y-115959142D01*
X170126819Y-116340095D02*
X169126819Y-116340095D01*
X169603009Y-116340095D02*
X169603009Y-116911523D01*
X170126819Y-116911523D02*
X169126819Y-116911523D01*
X170031580Y-117959142D02*
X170079200Y-117911523D01*
X170079200Y-117911523D02*
X170126819Y-117768666D01*
X170126819Y-117768666D02*
X170126819Y-117673428D01*
X170126819Y-117673428D02*
X170079200Y-117530571D01*
X170079200Y-117530571D02*
X169983961Y-117435333D01*
X169983961Y-117435333D02*
X169888723Y-117387714D01*
X169888723Y-117387714D02*
X169698247Y-117340095D01*
X169698247Y-117340095D02*
X169555390Y-117340095D01*
X169555390Y-117340095D02*
X169364914Y-117387714D01*
X169364914Y-117387714D02*
X169269676Y-117435333D01*
X169269676Y-117435333D02*
X169174438Y-117530571D01*
X169174438Y-117530571D02*
X169126819Y-117673428D01*
X169126819Y-117673428D02*
X169126819Y-117768666D01*
X169126819Y-117768666D02*
X169174438Y-117911523D01*
X169174438Y-117911523D02*
X169222057Y-117959142D01*
X169222057Y-118340095D02*
X169174438Y-118387714D01*
X169174438Y-118387714D02*
X169126819Y-118482952D01*
X169126819Y-118482952D02*
X169126819Y-118721047D01*
X169126819Y-118721047D02*
X169174438Y-118816285D01*
X169174438Y-118816285D02*
X169222057Y-118863904D01*
X169222057Y-118863904D02*
X169317295Y-118911523D01*
X169317295Y-118911523D02*
X169412533Y-118911523D01*
X169412533Y-118911523D02*
X169555390Y-118863904D01*
X169555390Y-118863904D02*
X170126819Y-118292476D01*
X170126819Y-118292476D02*
X170126819Y-118911523D01*
X169460152Y-119768666D02*
X170126819Y-119768666D01*
X169079200Y-119530571D02*
X169793485Y-119292476D01*
X169793485Y-119292476D02*
X169793485Y-119911523D01*
X169126819Y-120768666D02*
X169126819Y-120292476D01*
X169126819Y-120292476D02*
X169603009Y-120244857D01*
X169603009Y-120244857D02*
X169555390Y-120292476D01*
X169555390Y-120292476D02*
X169507771Y-120387714D01*
X169507771Y-120387714D02*
X169507771Y-120625809D01*
X169507771Y-120625809D02*
X169555390Y-120721047D01*
X169555390Y-120721047D02*
X169603009Y-120768666D01*
X169603009Y-120768666D02*
X169698247Y-120816285D01*
X169698247Y-120816285D02*
X169936342Y-120816285D01*
X169936342Y-120816285D02*
X170031580Y-120768666D01*
X170031580Y-120768666D02*
X170079200Y-120721047D01*
X170079200Y-120721047D02*
X170126819Y-120625809D01*
X170126819Y-120625809D02*
X170126819Y-120387714D01*
X170126819Y-120387714D02*
X170079200Y-120292476D01*
X170079200Y-120292476D02*
X170031580Y-120244857D01*
D11*
X163129306Y-124205419D02*
X163700734Y-124205419D01*
X163415020Y-124205419D02*
X163415020Y-123205419D01*
X163415020Y-123205419D02*
X163510258Y-123348276D01*
X163510258Y-123348276D02*
X163605496Y-123443514D01*
X163605496Y-123443514D02*
X163700734Y-123491133D01*
X162176925Y-124205419D02*
X162748353Y-124205419D01*
X162462639Y-124205419D02*
X162462639Y-123205419D01*
X162462639Y-123205419D02*
X162557877Y-123348276D01*
X162557877Y-123348276D02*
X162653115Y-123443514D01*
X162653115Y-123443514D02*
X162748353Y-123491133D01*
X155927323Y-94310419D02*
X155927323Y-93310419D01*
X155927323Y-93310419D02*
X155593990Y-94024704D01*
X155593990Y-94024704D02*
X155260657Y-93310419D01*
X155260657Y-93310419D02*
X155260657Y-94310419D01*
X154879704Y-93310419D02*
X154260657Y-93310419D01*
X154260657Y-93310419D02*
X154593990Y-93691371D01*
X154593990Y-93691371D02*
X154451133Y-93691371D01*
X154451133Y-93691371D02*
X154355895Y-93738990D01*
X154355895Y-93738990D02*
X154308276Y-93786609D01*
X154308276Y-93786609D02*
X154260657Y-93881847D01*
X154260657Y-93881847D02*
X154260657Y-94119942D01*
X154260657Y-94119942D02*
X154308276Y-94215180D01*
X154308276Y-94215180D02*
X154355895Y-94262800D01*
X154355895Y-94262800D02*
X154451133Y-94310419D01*
X154451133Y-94310419D02*
X154736847Y-94310419D01*
X154736847Y-94310419D02*
X154832085Y-94262800D01*
X154832085Y-94262800D02*
X154879704Y-94215180D01*
D10*
X104027266Y-60354380D02*
X104074885Y-60402000D01*
X104074885Y-60402000D02*
X104217742Y-60449619D01*
X104217742Y-60449619D02*
X104312980Y-60449619D01*
X104312980Y-60449619D02*
X104455837Y-60402000D01*
X104455837Y-60402000D02*
X104551075Y-60306761D01*
X104551075Y-60306761D02*
X104598694Y-60211523D01*
X104598694Y-60211523D02*
X104646313Y-60021047D01*
X104646313Y-60021047D02*
X104646313Y-59878190D01*
X104646313Y-59878190D02*
X104598694Y-59687714D01*
X104598694Y-59687714D02*
X104551075Y-59592476D01*
X104551075Y-59592476D02*
X104455837Y-59497238D01*
X104455837Y-59497238D02*
X104312980Y-59449619D01*
X104312980Y-59449619D02*
X104217742Y-59449619D01*
X104217742Y-59449619D02*
X104074885Y-59497238D01*
X104074885Y-59497238D02*
X104027266Y-59544857D01*
X103170123Y-59782952D02*
X103170123Y-60449619D01*
X103408218Y-59402000D02*
X103646313Y-60116285D01*
X103646313Y-60116285D02*
X103027266Y-60116285D01*
D11*
X198802523Y-60782419D02*
X198802523Y-59782419D01*
X198802523Y-59782419D02*
X198469190Y-60496704D01*
X198469190Y-60496704D02*
X198135857Y-59782419D01*
X198135857Y-59782419D02*
X198135857Y-60782419D01*
X197469190Y-59782419D02*
X197373952Y-59782419D01*
X197373952Y-59782419D02*
X197278714Y-59830038D01*
X197278714Y-59830038D02*
X197231095Y-59877657D01*
X197231095Y-59877657D02*
X197183476Y-59972895D01*
X197183476Y-59972895D02*
X197135857Y-60163371D01*
X197135857Y-60163371D02*
X197135857Y-60401466D01*
X197135857Y-60401466D02*
X197183476Y-60591942D01*
X197183476Y-60591942D02*
X197231095Y-60687180D01*
X197231095Y-60687180D02*
X197278714Y-60734800D01*
X197278714Y-60734800D02*
X197373952Y-60782419D01*
X197373952Y-60782419D02*
X197469190Y-60782419D01*
X197469190Y-60782419D02*
X197564428Y-60734800D01*
X197564428Y-60734800D02*
X197612047Y-60687180D01*
X197612047Y-60687180D02*
X197659666Y-60591942D01*
X197659666Y-60591942D02*
X197707285Y-60401466D01*
X197707285Y-60401466D02*
X197707285Y-60163371D01*
X197707285Y-60163371D02*
X197659666Y-59972895D01*
X197659666Y-59972895D02*
X197612047Y-59877657D01*
X197612047Y-59877657D02*
X197564428Y-59830038D01*
X197564428Y-59830038D02*
X197469190Y-59782419D01*
D10*
X193327257Y-54563180D02*
X193374876Y-54610800D01*
X193374876Y-54610800D02*
X193517733Y-54658419D01*
X193517733Y-54658419D02*
X193612971Y-54658419D01*
X193612971Y-54658419D02*
X193755828Y-54610800D01*
X193755828Y-54610800D02*
X193851066Y-54515561D01*
X193851066Y-54515561D02*
X193898685Y-54420323D01*
X193898685Y-54420323D02*
X193946304Y-54229847D01*
X193946304Y-54229847D02*
X193946304Y-54086990D01*
X193946304Y-54086990D02*
X193898685Y-53896514D01*
X193898685Y-53896514D02*
X193851066Y-53801276D01*
X193851066Y-53801276D02*
X193755828Y-53706038D01*
X193755828Y-53706038D02*
X193612971Y-53658419D01*
X193612971Y-53658419D02*
X193517733Y-53658419D01*
X193517733Y-53658419D02*
X193374876Y-53706038D01*
X193374876Y-53706038D02*
X193327257Y-53753657D01*
X192374876Y-54658419D02*
X192946304Y-54658419D01*
X192660590Y-54658419D02*
X192660590Y-53658419D01*
X192660590Y-53658419D02*
X192755828Y-53801276D01*
X192755828Y-53801276D02*
X192851066Y-53896514D01*
X192851066Y-53896514D02*
X192946304Y-53944133D01*
X191517733Y-53991752D02*
X191517733Y-54658419D01*
X191755828Y-53610800D02*
X191993923Y-54325085D01*
X191993923Y-54325085D02*
X191374876Y-54325085D01*
X135091466Y-101292819D02*
X135424799Y-100816628D01*
X135662894Y-101292819D02*
X135662894Y-100292819D01*
X135662894Y-100292819D02*
X135281942Y-100292819D01*
X135281942Y-100292819D02*
X135186704Y-100340438D01*
X135186704Y-100340438D02*
X135139085Y-100388057D01*
X135139085Y-100388057D02*
X135091466Y-100483295D01*
X135091466Y-100483295D02*
X135091466Y-100626152D01*
X135091466Y-100626152D02*
X135139085Y-100721390D01*
X135139085Y-100721390D02*
X135186704Y-100769009D01*
X135186704Y-100769009D02*
X135281942Y-100816628D01*
X135281942Y-100816628D02*
X135662894Y-100816628D01*
X134710513Y-100388057D02*
X134662894Y-100340438D01*
X134662894Y-100340438D02*
X134567656Y-100292819D01*
X134567656Y-100292819D02*
X134329561Y-100292819D01*
X134329561Y-100292819D02*
X134234323Y-100340438D01*
X134234323Y-100340438D02*
X134186704Y-100388057D01*
X134186704Y-100388057D02*
X134139085Y-100483295D01*
X134139085Y-100483295D02*
X134139085Y-100578533D01*
X134139085Y-100578533D02*
X134186704Y-100721390D01*
X134186704Y-100721390D02*
X134758132Y-101292819D01*
X134758132Y-101292819D02*
X134139085Y-101292819D01*
D11*
X107711713Y-68859619D02*
X107711713Y-67859619D01*
X107711713Y-67859619D02*
X107378380Y-68573904D01*
X107378380Y-68573904D02*
X107045047Y-67859619D01*
X107045047Y-67859619D02*
X107045047Y-68859619D01*
X106045047Y-68859619D02*
X106616475Y-68859619D01*
X106330761Y-68859619D02*
X106330761Y-67859619D01*
X106330761Y-67859619D02*
X106425999Y-68002476D01*
X106425999Y-68002476D02*
X106521237Y-68097714D01*
X106521237Y-68097714D02*
X106616475Y-68145333D01*
X105092666Y-68859619D02*
X105664094Y-68859619D01*
X105378380Y-68859619D02*
X105378380Y-67859619D01*
X105378380Y-67859619D02*
X105473618Y-68002476D01*
X105473618Y-68002476D02*
X105568856Y-68097714D01*
X105568856Y-68097714D02*
X105664094Y-68145333D01*
D10*
X136818666Y-93012419D02*
X137151999Y-92536228D01*
X137390094Y-93012419D02*
X137390094Y-92012419D01*
X137390094Y-92012419D02*
X137009142Y-92012419D01*
X137009142Y-92012419D02*
X136913904Y-92060038D01*
X136913904Y-92060038D02*
X136866285Y-92107657D01*
X136866285Y-92107657D02*
X136818666Y-92202895D01*
X136818666Y-92202895D02*
X136818666Y-92345752D01*
X136818666Y-92345752D02*
X136866285Y-92440990D01*
X136866285Y-92440990D02*
X136913904Y-92488609D01*
X136913904Y-92488609D02*
X137009142Y-92536228D01*
X137009142Y-92536228D02*
X137390094Y-92536228D01*
X135866285Y-93012419D02*
X136437713Y-93012419D01*
X136151999Y-93012419D02*
X136151999Y-92012419D01*
X136151999Y-92012419D02*
X136247237Y-92155276D01*
X136247237Y-92155276D02*
X136342475Y-92250514D01*
X136342475Y-92250514D02*
X136437713Y-92298133D01*
X153779457Y-117326580D02*
X153827076Y-117374200D01*
X153827076Y-117374200D02*
X153969933Y-117421819D01*
X153969933Y-117421819D02*
X154065171Y-117421819D01*
X154065171Y-117421819D02*
X154208028Y-117374200D01*
X154208028Y-117374200D02*
X154303266Y-117278961D01*
X154303266Y-117278961D02*
X154350885Y-117183723D01*
X154350885Y-117183723D02*
X154398504Y-116993247D01*
X154398504Y-116993247D02*
X154398504Y-116850390D01*
X154398504Y-116850390D02*
X154350885Y-116659914D01*
X154350885Y-116659914D02*
X154303266Y-116564676D01*
X154303266Y-116564676D02*
X154208028Y-116469438D01*
X154208028Y-116469438D02*
X154065171Y-116421819D01*
X154065171Y-116421819D02*
X153969933Y-116421819D01*
X153969933Y-116421819D02*
X153827076Y-116469438D01*
X153827076Y-116469438D02*
X153779457Y-116517057D01*
X153398504Y-116517057D02*
X153350885Y-116469438D01*
X153350885Y-116469438D02*
X153255647Y-116421819D01*
X153255647Y-116421819D02*
X153017552Y-116421819D01*
X153017552Y-116421819D02*
X152922314Y-116469438D01*
X152922314Y-116469438D02*
X152874695Y-116517057D01*
X152874695Y-116517057D02*
X152827076Y-116612295D01*
X152827076Y-116612295D02*
X152827076Y-116707533D01*
X152827076Y-116707533D02*
X152874695Y-116850390D01*
X152874695Y-116850390D02*
X153446123Y-117421819D01*
X153446123Y-117421819D02*
X152827076Y-117421819D01*
X152446123Y-116517057D02*
X152398504Y-116469438D01*
X152398504Y-116469438D02*
X152303266Y-116421819D01*
X152303266Y-116421819D02*
X152065171Y-116421819D01*
X152065171Y-116421819D02*
X151969933Y-116469438D01*
X151969933Y-116469438D02*
X151922314Y-116517057D01*
X151922314Y-116517057D02*
X151874695Y-116612295D01*
X151874695Y-116612295D02*
X151874695Y-116707533D01*
X151874695Y-116707533D02*
X151922314Y-116850390D01*
X151922314Y-116850390D02*
X152493742Y-117421819D01*
X152493742Y-117421819D02*
X151874695Y-117421819D01*
X87764857Y-115802580D02*
X87812476Y-115850200D01*
X87812476Y-115850200D02*
X87955333Y-115897819D01*
X87955333Y-115897819D02*
X88050571Y-115897819D01*
X88050571Y-115897819D02*
X88193428Y-115850200D01*
X88193428Y-115850200D02*
X88288666Y-115754961D01*
X88288666Y-115754961D02*
X88336285Y-115659723D01*
X88336285Y-115659723D02*
X88383904Y-115469247D01*
X88383904Y-115469247D02*
X88383904Y-115326390D01*
X88383904Y-115326390D02*
X88336285Y-115135914D01*
X88336285Y-115135914D02*
X88288666Y-115040676D01*
X88288666Y-115040676D02*
X88193428Y-114945438D01*
X88193428Y-114945438D02*
X88050571Y-114897819D01*
X88050571Y-114897819D02*
X87955333Y-114897819D01*
X87955333Y-114897819D02*
X87812476Y-114945438D01*
X87812476Y-114945438D02*
X87764857Y-114993057D01*
X86907714Y-115231152D02*
X86907714Y-115897819D01*
X87145809Y-114850200D02*
X87383904Y-115564485D01*
X87383904Y-115564485D02*
X86764857Y-115564485D01*
X86479142Y-114897819D02*
X85860095Y-114897819D01*
X85860095Y-114897819D02*
X86193428Y-115278771D01*
X86193428Y-115278771D02*
X86050571Y-115278771D01*
X86050571Y-115278771D02*
X85955333Y-115326390D01*
X85955333Y-115326390D02*
X85907714Y-115374009D01*
X85907714Y-115374009D02*
X85860095Y-115469247D01*
X85860095Y-115469247D02*
X85860095Y-115707342D01*
X85860095Y-115707342D02*
X85907714Y-115802580D01*
X85907714Y-115802580D02*
X85955333Y-115850200D01*
X85955333Y-115850200D02*
X86050571Y-115897819D01*
X86050571Y-115897819D02*
X86336285Y-115897819D01*
X86336285Y-115897819D02*
X86431523Y-115850200D01*
X86431523Y-115850200D02*
X86479142Y-115802580D01*
X201379057Y-82985780D02*
X201426676Y-83033400D01*
X201426676Y-83033400D02*
X201569533Y-83081019D01*
X201569533Y-83081019D02*
X201664771Y-83081019D01*
X201664771Y-83081019D02*
X201807628Y-83033400D01*
X201807628Y-83033400D02*
X201902866Y-82938161D01*
X201902866Y-82938161D02*
X201950485Y-82842923D01*
X201950485Y-82842923D02*
X201998104Y-82652447D01*
X201998104Y-82652447D02*
X201998104Y-82509590D01*
X201998104Y-82509590D02*
X201950485Y-82319114D01*
X201950485Y-82319114D02*
X201902866Y-82223876D01*
X201902866Y-82223876D02*
X201807628Y-82128638D01*
X201807628Y-82128638D02*
X201664771Y-82081019D01*
X201664771Y-82081019D02*
X201569533Y-82081019D01*
X201569533Y-82081019D02*
X201426676Y-82128638D01*
X201426676Y-82128638D02*
X201379057Y-82176257D01*
X200998104Y-82176257D02*
X200950485Y-82128638D01*
X200950485Y-82128638D02*
X200855247Y-82081019D01*
X200855247Y-82081019D02*
X200617152Y-82081019D01*
X200617152Y-82081019D02*
X200521914Y-82128638D01*
X200521914Y-82128638D02*
X200474295Y-82176257D01*
X200474295Y-82176257D02*
X200426676Y-82271495D01*
X200426676Y-82271495D02*
X200426676Y-82366733D01*
X200426676Y-82366733D02*
X200474295Y-82509590D01*
X200474295Y-82509590D02*
X201045723Y-83081019D01*
X201045723Y-83081019D02*
X200426676Y-83081019D01*
X199569533Y-82414352D02*
X199569533Y-83081019D01*
X199807628Y-82033400D02*
X200045723Y-82747685D01*
X200045723Y-82747685D02*
X199426676Y-82747685D01*
X148953457Y-121263580D02*
X149001076Y-121311200D01*
X149001076Y-121311200D02*
X149143933Y-121358819D01*
X149143933Y-121358819D02*
X149239171Y-121358819D01*
X149239171Y-121358819D02*
X149382028Y-121311200D01*
X149382028Y-121311200D02*
X149477266Y-121215961D01*
X149477266Y-121215961D02*
X149524885Y-121120723D01*
X149524885Y-121120723D02*
X149572504Y-120930247D01*
X149572504Y-120930247D02*
X149572504Y-120787390D01*
X149572504Y-120787390D02*
X149524885Y-120596914D01*
X149524885Y-120596914D02*
X149477266Y-120501676D01*
X149477266Y-120501676D02*
X149382028Y-120406438D01*
X149382028Y-120406438D02*
X149239171Y-120358819D01*
X149239171Y-120358819D02*
X149143933Y-120358819D01*
X149143933Y-120358819D02*
X149001076Y-120406438D01*
X149001076Y-120406438D02*
X148953457Y-120454057D01*
X148572504Y-120454057D02*
X148524885Y-120406438D01*
X148524885Y-120406438D02*
X148429647Y-120358819D01*
X148429647Y-120358819D02*
X148191552Y-120358819D01*
X148191552Y-120358819D02*
X148096314Y-120406438D01*
X148096314Y-120406438D02*
X148048695Y-120454057D01*
X148048695Y-120454057D02*
X148001076Y-120549295D01*
X148001076Y-120549295D02*
X148001076Y-120644533D01*
X148001076Y-120644533D02*
X148048695Y-120787390D01*
X148048695Y-120787390D02*
X148620123Y-121358819D01*
X148620123Y-121358819D02*
X148001076Y-121358819D01*
X147382028Y-120358819D02*
X147286790Y-120358819D01*
X147286790Y-120358819D02*
X147191552Y-120406438D01*
X147191552Y-120406438D02*
X147143933Y-120454057D01*
X147143933Y-120454057D02*
X147096314Y-120549295D01*
X147096314Y-120549295D02*
X147048695Y-120739771D01*
X147048695Y-120739771D02*
X147048695Y-120977866D01*
X147048695Y-120977866D02*
X147096314Y-121168342D01*
X147096314Y-121168342D02*
X147143933Y-121263580D01*
X147143933Y-121263580D02*
X147191552Y-121311200D01*
X147191552Y-121311200D02*
X147286790Y-121358819D01*
X147286790Y-121358819D02*
X147382028Y-121358819D01*
X147382028Y-121358819D02*
X147477266Y-121311200D01*
X147477266Y-121311200D02*
X147524885Y-121263580D01*
X147524885Y-121263580D02*
X147572504Y-121168342D01*
X147572504Y-121168342D02*
X147620123Y-120977866D01*
X147620123Y-120977866D02*
X147620123Y-120739771D01*
X147620123Y-120739771D02*
X147572504Y-120549295D01*
X147572504Y-120549295D02*
X147524885Y-120454057D01*
X147524885Y-120454057D02*
X147477266Y-120406438D01*
X147477266Y-120406438D02*
X147382028Y-120358819D01*
X153423857Y-110138380D02*
X153471476Y-110186000D01*
X153471476Y-110186000D02*
X153614333Y-110233619D01*
X153614333Y-110233619D02*
X153709571Y-110233619D01*
X153709571Y-110233619D02*
X153852428Y-110186000D01*
X153852428Y-110186000D02*
X153947666Y-110090761D01*
X153947666Y-110090761D02*
X153995285Y-109995523D01*
X153995285Y-109995523D02*
X154042904Y-109805047D01*
X154042904Y-109805047D02*
X154042904Y-109662190D01*
X154042904Y-109662190D02*
X153995285Y-109471714D01*
X153995285Y-109471714D02*
X153947666Y-109376476D01*
X153947666Y-109376476D02*
X153852428Y-109281238D01*
X153852428Y-109281238D02*
X153709571Y-109233619D01*
X153709571Y-109233619D02*
X153614333Y-109233619D01*
X153614333Y-109233619D02*
X153471476Y-109281238D01*
X153471476Y-109281238D02*
X153423857Y-109328857D01*
X152471476Y-110233619D02*
X153042904Y-110233619D01*
X152757190Y-110233619D02*
X152757190Y-109233619D01*
X152757190Y-109233619D02*
X152852428Y-109376476D01*
X152852428Y-109376476D02*
X152947666Y-109471714D01*
X152947666Y-109471714D02*
X153042904Y-109519333D01*
X151995285Y-110233619D02*
X151804809Y-110233619D01*
X151804809Y-110233619D02*
X151709571Y-110186000D01*
X151709571Y-110186000D02*
X151661952Y-110138380D01*
X151661952Y-110138380D02*
X151566714Y-109995523D01*
X151566714Y-109995523D02*
X151519095Y-109805047D01*
X151519095Y-109805047D02*
X151519095Y-109424095D01*
X151519095Y-109424095D02*
X151566714Y-109328857D01*
X151566714Y-109328857D02*
X151614333Y-109281238D01*
X151614333Y-109281238D02*
X151709571Y-109233619D01*
X151709571Y-109233619D02*
X151900047Y-109233619D01*
X151900047Y-109233619D02*
X151995285Y-109281238D01*
X151995285Y-109281238D02*
X152042904Y-109328857D01*
X152042904Y-109328857D02*
X152090523Y-109424095D01*
X152090523Y-109424095D02*
X152090523Y-109662190D01*
X152090523Y-109662190D02*
X152042904Y-109757428D01*
X152042904Y-109757428D02*
X151995285Y-109805047D01*
X151995285Y-109805047D02*
X151900047Y-109852666D01*
X151900047Y-109852666D02*
X151709571Y-109852666D01*
X151709571Y-109852666D02*
X151614333Y-109805047D01*
X151614333Y-109805047D02*
X151566714Y-109757428D01*
X151566714Y-109757428D02*
X151519095Y-109662190D01*
X113628466Y-117555180D02*
X113676085Y-117602800D01*
X113676085Y-117602800D02*
X113818942Y-117650419D01*
X113818942Y-117650419D02*
X113914180Y-117650419D01*
X113914180Y-117650419D02*
X114057037Y-117602800D01*
X114057037Y-117602800D02*
X114152275Y-117507561D01*
X114152275Y-117507561D02*
X114199894Y-117412323D01*
X114199894Y-117412323D02*
X114247513Y-117221847D01*
X114247513Y-117221847D02*
X114247513Y-117078990D01*
X114247513Y-117078990D02*
X114199894Y-116888514D01*
X114199894Y-116888514D02*
X114152275Y-116793276D01*
X114152275Y-116793276D02*
X114057037Y-116698038D01*
X114057037Y-116698038D02*
X113914180Y-116650419D01*
X113914180Y-116650419D02*
X113818942Y-116650419D01*
X113818942Y-116650419D02*
X113676085Y-116698038D01*
X113676085Y-116698038D02*
X113628466Y-116745657D01*
X112723704Y-116650419D02*
X113199894Y-116650419D01*
X113199894Y-116650419D02*
X113247513Y-117126609D01*
X113247513Y-117126609D02*
X113199894Y-117078990D01*
X113199894Y-117078990D02*
X113104656Y-117031371D01*
X113104656Y-117031371D02*
X112866561Y-117031371D01*
X112866561Y-117031371D02*
X112771323Y-117078990D01*
X112771323Y-117078990D02*
X112723704Y-117126609D01*
X112723704Y-117126609D02*
X112676085Y-117221847D01*
X112676085Y-117221847D02*
X112676085Y-117459942D01*
X112676085Y-117459942D02*
X112723704Y-117555180D01*
X112723704Y-117555180D02*
X112771323Y-117602800D01*
X112771323Y-117602800D02*
X112866561Y-117650419D01*
X112866561Y-117650419D02*
X113104656Y-117650419D01*
X113104656Y-117650419D02*
X113199894Y-117602800D01*
X113199894Y-117602800D02*
X113247513Y-117555180D01*
X67775057Y-101476980D02*
X67822676Y-101524600D01*
X67822676Y-101524600D02*
X67965533Y-101572219D01*
X67965533Y-101572219D02*
X68060771Y-101572219D01*
X68060771Y-101572219D02*
X68203628Y-101524600D01*
X68203628Y-101524600D02*
X68298866Y-101429361D01*
X68298866Y-101429361D02*
X68346485Y-101334123D01*
X68346485Y-101334123D02*
X68394104Y-101143647D01*
X68394104Y-101143647D02*
X68394104Y-101000790D01*
X68394104Y-101000790D02*
X68346485Y-100810314D01*
X68346485Y-100810314D02*
X68298866Y-100715076D01*
X68298866Y-100715076D02*
X68203628Y-100619838D01*
X68203628Y-100619838D02*
X68060771Y-100572219D01*
X68060771Y-100572219D02*
X67965533Y-100572219D01*
X67965533Y-100572219D02*
X67822676Y-100619838D01*
X67822676Y-100619838D02*
X67775057Y-100667457D01*
X66917914Y-100905552D02*
X66917914Y-101572219D01*
X67156009Y-100524600D02*
X67394104Y-101238885D01*
X67394104Y-101238885D02*
X66775057Y-101238885D01*
X65917914Y-100572219D02*
X66394104Y-100572219D01*
X66394104Y-100572219D02*
X66441723Y-101048409D01*
X66441723Y-101048409D02*
X66394104Y-101000790D01*
X66394104Y-101000790D02*
X66298866Y-100953171D01*
X66298866Y-100953171D02*
X66060771Y-100953171D01*
X66060771Y-100953171D02*
X65965533Y-101000790D01*
X65965533Y-101000790D02*
X65917914Y-101048409D01*
X65917914Y-101048409D02*
X65870295Y-101143647D01*
X65870295Y-101143647D02*
X65870295Y-101381742D01*
X65870295Y-101381742D02*
X65917914Y-101476980D01*
X65917914Y-101476980D02*
X65965533Y-101524600D01*
X65965533Y-101524600D02*
X66060771Y-101572219D01*
X66060771Y-101572219D02*
X66298866Y-101572219D01*
X66298866Y-101572219D02*
X66394104Y-101524600D01*
X66394104Y-101524600D02*
X66441723Y-101476980D01*
X198870866Y-112646619D02*
X199204199Y-112170428D01*
X199442294Y-112646619D02*
X199442294Y-111646619D01*
X199442294Y-111646619D02*
X199061342Y-111646619D01*
X199061342Y-111646619D02*
X198966104Y-111694238D01*
X198966104Y-111694238D02*
X198918485Y-111741857D01*
X198918485Y-111741857D02*
X198870866Y-111837095D01*
X198870866Y-111837095D02*
X198870866Y-111979952D01*
X198870866Y-111979952D02*
X198918485Y-112075190D01*
X198918485Y-112075190D02*
X198966104Y-112122809D01*
X198966104Y-112122809D02*
X199061342Y-112170428D01*
X199061342Y-112170428D02*
X199442294Y-112170428D01*
X198013723Y-111646619D02*
X198204199Y-111646619D01*
X198204199Y-111646619D02*
X198299437Y-111694238D01*
X198299437Y-111694238D02*
X198347056Y-111741857D01*
X198347056Y-111741857D02*
X198442294Y-111884714D01*
X198442294Y-111884714D02*
X198489913Y-112075190D01*
X198489913Y-112075190D02*
X198489913Y-112456142D01*
X198489913Y-112456142D02*
X198442294Y-112551380D01*
X198442294Y-112551380D02*
X198394675Y-112599000D01*
X198394675Y-112599000D02*
X198299437Y-112646619D01*
X198299437Y-112646619D02*
X198108961Y-112646619D01*
X198108961Y-112646619D02*
X198013723Y-112599000D01*
X198013723Y-112599000D02*
X197966104Y-112551380D01*
X197966104Y-112551380D02*
X197918485Y-112456142D01*
X197918485Y-112456142D02*
X197918485Y-112218047D01*
X197918485Y-112218047D02*
X197966104Y-112122809D01*
X197966104Y-112122809D02*
X198013723Y-112075190D01*
X198013723Y-112075190D02*
X198108961Y-112027571D01*
X198108961Y-112027571D02*
X198299437Y-112027571D01*
X198299437Y-112027571D02*
X198394675Y-112075190D01*
X198394675Y-112075190D02*
X198442294Y-112122809D01*
X198442294Y-112122809D02*
X198489913Y-112218047D01*
X91193857Y-109122380D02*
X91241476Y-109170000D01*
X91241476Y-109170000D02*
X91384333Y-109217619D01*
X91384333Y-109217619D02*
X91479571Y-109217619D01*
X91479571Y-109217619D02*
X91622428Y-109170000D01*
X91622428Y-109170000D02*
X91717666Y-109074761D01*
X91717666Y-109074761D02*
X91765285Y-108979523D01*
X91765285Y-108979523D02*
X91812904Y-108789047D01*
X91812904Y-108789047D02*
X91812904Y-108646190D01*
X91812904Y-108646190D02*
X91765285Y-108455714D01*
X91765285Y-108455714D02*
X91717666Y-108360476D01*
X91717666Y-108360476D02*
X91622428Y-108265238D01*
X91622428Y-108265238D02*
X91479571Y-108217619D01*
X91479571Y-108217619D02*
X91384333Y-108217619D01*
X91384333Y-108217619D02*
X91241476Y-108265238D01*
X91241476Y-108265238D02*
X91193857Y-108312857D01*
X90336714Y-108550952D02*
X90336714Y-109217619D01*
X90574809Y-108170000D02*
X90812904Y-108884285D01*
X90812904Y-108884285D02*
X90193857Y-108884285D01*
X89908142Y-108217619D02*
X89241476Y-108217619D01*
X89241476Y-108217619D02*
X89670047Y-109217619D01*
X114746066Y-110062180D02*
X114793685Y-110109800D01*
X114793685Y-110109800D02*
X114936542Y-110157419D01*
X114936542Y-110157419D02*
X115031780Y-110157419D01*
X115031780Y-110157419D02*
X115174637Y-110109800D01*
X115174637Y-110109800D02*
X115269875Y-110014561D01*
X115269875Y-110014561D02*
X115317494Y-109919323D01*
X115317494Y-109919323D02*
X115365113Y-109728847D01*
X115365113Y-109728847D02*
X115365113Y-109585990D01*
X115365113Y-109585990D02*
X115317494Y-109395514D01*
X115317494Y-109395514D02*
X115269875Y-109300276D01*
X115269875Y-109300276D02*
X115174637Y-109205038D01*
X115174637Y-109205038D02*
X115031780Y-109157419D01*
X115031780Y-109157419D02*
X114936542Y-109157419D01*
X114936542Y-109157419D02*
X114793685Y-109205038D01*
X114793685Y-109205038D02*
X114746066Y-109252657D01*
X114412732Y-109157419D02*
X113746066Y-109157419D01*
X113746066Y-109157419D02*
X114174637Y-110157419D01*
X218600257Y-67542580D02*
X218647876Y-67590200D01*
X218647876Y-67590200D02*
X218790733Y-67637819D01*
X218790733Y-67637819D02*
X218885971Y-67637819D01*
X218885971Y-67637819D02*
X219028828Y-67590200D01*
X219028828Y-67590200D02*
X219124066Y-67494961D01*
X219124066Y-67494961D02*
X219171685Y-67399723D01*
X219171685Y-67399723D02*
X219219304Y-67209247D01*
X219219304Y-67209247D02*
X219219304Y-67066390D01*
X219219304Y-67066390D02*
X219171685Y-66875914D01*
X219171685Y-66875914D02*
X219124066Y-66780676D01*
X219124066Y-66780676D02*
X219028828Y-66685438D01*
X219028828Y-66685438D02*
X218885971Y-66637819D01*
X218885971Y-66637819D02*
X218790733Y-66637819D01*
X218790733Y-66637819D02*
X218647876Y-66685438D01*
X218647876Y-66685438D02*
X218600257Y-66733057D01*
X218266923Y-66637819D02*
X217647876Y-66637819D01*
X217647876Y-66637819D02*
X217981209Y-67018771D01*
X217981209Y-67018771D02*
X217838352Y-67018771D01*
X217838352Y-67018771D02*
X217743114Y-67066390D01*
X217743114Y-67066390D02*
X217695495Y-67114009D01*
X217695495Y-67114009D02*
X217647876Y-67209247D01*
X217647876Y-67209247D02*
X217647876Y-67447342D01*
X217647876Y-67447342D02*
X217695495Y-67542580D01*
X217695495Y-67542580D02*
X217743114Y-67590200D01*
X217743114Y-67590200D02*
X217838352Y-67637819D01*
X217838352Y-67637819D02*
X218124066Y-67637819D01*
X218124066Y-67637819D02*
X218219304Y-67590200D01*
X218219304Y-67590200D02*
X218266923Y-67542580D01*
X217028828Y-66637819D02*
X216933590Y-66637819D01*
X216933590Y-66637819D02*
X216838352Y-66685438D01*
X216838352Y-66685438D02*
X216790733Y-66733057D01*
X216790733Y-66733057D02*
X216743114Y-66828295D01*
X216743114Y-66828295D02*
X216695495Y-67018771D01*
X216695495Y-67018771D02*
X216695495Y-67256866D01*
X216695495Y-67256866D02*
X216743114Y-67447342D01*
X216743114Y-67447342D02*
X216790733Y-67542580D01*
X216790733Y-67542580D02*
X216838352Y-67590200D01*
X216838352Y-67590200D02*
X216933590Y-67637819D01*
X216933590Y-67637819D02*
X217028828Y-67637819D01*
X217028828Y-67637819D02*
X217124066Y-67590200D01*
X217124066Y-67590200D02*
X217171685Y-67542580D01*
X217171685Y-67542580D02*
X217219304Y-67447342D01*
X217219304Y-67447342D02*
X217266923Y-67256866D01*
X217266923Y-67256866D02*
X217266923Y-67018771D01*
X217266923Y-67018771D02*
X217219304Y-66828295D01*
X217219304Y-66828295D02*
X217171685Y-66733057D01*
X217171685Y-66733057D02*
X217124066Y-66685438D01*
X217124066Y-66685438D02*
X217028828Y-66637819D01*
X111063066Y-117529780D02*
X111110685Y-117577400D01*
X111110685Y-117577400D02*
X111253542Y-117625019D01*
X111253542Y-117625019D02*
X111348780Y-117625019D01*
X111348780Y-117625019D02*
X111491637Y-117577400D01*
X111491637Y-117577400D02*
X111586875Y-117482161D01*
X111586875Y-117482161D02*
X111634494Y-117386923D01*
X111634494Y-117386923D02*
X111682113Y-117196447D01*
X111682113Y-117196447D02*
X111682113Y-117053590D01*
X111682113Y-117053590D02*
X111634494Y-116863114D01*
X111634494Y-116863114D02*
X111586875Y-116767876D01*
X111586875Y-116767876D02*
X111491637Y-116672638D01*
X111491637Y-116672638D02*
X111348780Y-116625019D01*
X111348780Y-116625019D02*
X111253542Y-116625019D01*
X111253542Y-116625019D02*
X111110685Y-116672638D01*
X111110685Y-116672638D02*
X111063066Y-116720257D01*
X110205923Y-116625019D02*
X110396399Y-116625019D01*
X110396399Y-116625019D02*
X110491637Y-116672638D01*
X110491637Y-116672638D02*
X110539256Y-116720257D01*
X110539256Y-116720257D02*
X110634494Y-116863114D01*
X110634494Y-116863114D02*
X110682113Y-117053590D01*
X110682113Y-117053590D02*
X110682113Y-117434542D01*
X110682113Y-117434542D02*
X110634494Y-117529780D01*
X110634494Y-117529780D02*
X110586875Y-117577400D01*
X110586875Y-117577400D02*
X110491637Y-117625019D01*
X110491637Y-117625019D02*
X110301161Y-117625019D01*
X110301161Y-117625019D02*
X110205923Y-117577400D01*
X110205923Y-117577400D02*
X110158304Y-117529780D01*
X110158304Y-117529780D02*
X110110685Y-117434542D01*
X110110685Y-117434542D02*
X110110685Y-117196447D01*
X110110685Y-117196447D02*
X110158304Y-117101209D01*
X110158304Y-117101209D02*
X110205923Y-117053590D01*
X110205923Y-117053590D02*
X110301161Y-117005971D01*
X110301161Y-117005971D02*
X110491637Y-117005971D01*
X110491637Y-117005971D02*
X110586875Y-117053590D01*
X110586875Y-117053590D02*
X110634494Y-117101209D01*
X110634494Y-117101209D02*
X110682113Y-117196447D01*
X132526066Y-86973580D02*
X132573685Y-87021200D01*
X132573685Y-87021200D02*
X132716542Y-87068819D01*
X132716542Y-87068819D02*
X132811780Y-87068819D01*
X132811780Y-87068819D02*
X132954637Y-87021200D01*
X132954637Y-87021200D02*
X133049875Y-86925961D01*
X133049875Y-86925961D02*
X133097494Y-86830723D01*
X133097494Y-86830723D02*
X133145113Y-86640247D01*
X133145113Y-86640247D02*
X133145113Y-86497390D01*
X133145113Y-86497390D02*
X133097494Y-86306914D01*
X133097494Y-86306914D02*
X133049875Y-86211676D01*
X133049875Y-86211676D02*
X132954637Y-86116438D01*
X132954637Y-86116438D02*
X132811780Y-86068819D01*
X132811780Y-86068819D02*
X132716542Y-86068819D01*
X132716542Y-86068819D02*
X132573685Y-86116438D01*
X132573685Y-86116438D02*
X132526066Y-86164057D01*
X132145113Y-86164057D02*
X132097494Y-86116438D01*
X132097494Y-86116438D02*
X132002256Y-86068819D01*
X132002256Y-86068819D02*
X131764161Y-86068819D01*
X131764161Y-86068819D02*
X131668923Y-86116438D01*
X131668923Y-86116438D02*
X131621304Y-86164057D01*
X131621304Y-86164057D02*
X131573685Y-86259295D01*
X131573685Y-86259295D02*
X131573685Y-86354533D01*
X131573685Y-86354533D02*
X131621304Y-86497390D01*
X131621304Y-86497390D02*
X132192732Y-87068819D01*
X132192732Y-87068819D02*
X131573685Y-87068819D01*
X166809657Y-107903180D02*
X166857276Y-107950800D01*
X166857276Y-107950800D02*
X167000133Y-107998419D01*
X167000133Y-107998419D02*
X167095371Y-107998419D01*
X167095371Y-107998419D02*
X167238228Y-107950800D01*
X167238228Y-107950800D02*
X167333466Y-107855561D01*
X167333466Y-107855561D02*
X167381085Y-107760323D01*
X167381085Y-107760323D02*
X167428704Y-107569847D01*
X167428704Y-107569847D02*
X167428704Y-107426990D01*
X167428704Y-107426990D02*
X167381085Y-107236514D01*
X167381085Y-107236514D02*
X167333466Y-107141276D01*
X167333466Y-107141276D02*
X167238228Y-107046038D01*
X167238228Y-107046038D02*
X167095371Y-106998419D01*
X167095371Y-106998419D02*
X167000133Y-106998419D01*
X167000133Y-106998419D02*
X166857276Y-107046038D01*
X166857276Y-107046038D02*
X166809657Y-107093657D01*
X165904895Y-106998419D02*
X166381085Y-106998419D01*
X166381085Y-106998419D02*
X166428704Y-107474609D01*
X166428704Y-107474609D02*
X166381085Y-107426990D01*
X166381085Y-107426990D02*
X166285847Y-107379371D01*
X166285847Y-107379371D02*
X166047752Y-107379371D01*
X166047752Y-107379371D02*
X165952514Y-107426990D01*
X165952514Y-107426990D02*
X165904895Y-107474609D01*
X165904895Y-107474609D02*
X165857276Y-107569847D01*
X165857276Y-107569847D02*
X165857276Y-107807942D01*
X165857276Y-107807942D02*
X165904895Y-107903180D01*
X165904895Y-107903180D02*
X165952514Y-107950800D01*
X165952514Y-107950800D02*
X166047752Y-107998419D01*
X166047752Y-107998419D02*
X166285847Y-107998419D01*
X166285847Y-107998419D02*
X166381085Y-107950800D01*
X166381085Y-107950800D02*
X166428704Y-107903180D01*
X164904895Y-107998419D02*
X165476323Y-107998419D01*
X165190609Y-107998419D02*
X165190609Y-106998419D01*
X165190609Y-106998419D02*
X165285847Y-107141276D01*
X165285847Y-107141276D02*
X165381085Y-107236514D01*
X165381085Y-107236514D02*
X165476323Y-107284133D01*
X153474657Y-112525980D02*
X153522276Y-112573600D01*
X153522276Y-112573600D02*
X153665133Y-112621219D01*
X153665133Y-112621219D02*
X153760371Y-112621219D01*
X153760371Y-112621219D02*
X153903228Y-112573600D01*
X153903228Y-112573600D02*
X153998466Y-112478361D01*
X153998466Y-112478361D02*
X154046085Y-112383123D01*
X154046085Y-112383123D02*
X154093704Y-112192647D01*
X154093704Y-112192647D02*
X154093704Y-112049790D01*
X154093704Y-112049790D02*
X154046085Y-111859314D01*
X154046085Y-111859314D02*
X153998466Y-111764076D01*
X153998466Y-111764076D02*
X153903228Y-111668838D01*
X153903228Y-111668838D02*
X153760371Y-111621219D01*
X153760371Y-111621219D02*
X153665133Y-111621219D01*
X153665133Y-111621219D02*
X153522276Y-111668838D01*
X153522276Y-111668838D02*
X153474657Y-111716457D01*
X152522276Y-112621219D02*
X153093704Y-112621219D01*
X152807990Y-112621219D02*
X152807990Y-111621219D01*
X152807990Y-111621219D02*
X152903228Y-111764076D01*
X152903228Y-111764076D02*
X152998466Y-111859314D01*
X152998466Y-111859314D02*
X153093704Y-111906933D01*
X152188942Y-111621219D02*
X151522276Y-111621219D01*
X151522276Y-111621219D02*
X151950847Y-112621219D01*
D11*
X161159723Y-85166419D02*
X161159723Y-84166419D01*
X161159723Y-84166419D02*
X160826390Y-84880704D01*
X160826390Y-84880704D02*
X160493057Y-84166419D01*
X160493057Y-84166419D02*
X160493057Y-85166419D01*
X159588295Y-84166419D02*
X159778771Y-84166419D01*
X159778771Y-84166419D02*
X159874009Y-84214038D01*
X159874009Y-84214038D02*
X159921628Y-84261657D01*
X159921628Y-84261657D02*
X160016866Y-84404514D01*
X160016866Y-84404514D02*
X160064485Y-84594990D01*
X160064485Y-84594990D02*
X160064485Y-84975942D01*
X160064485Y-84975942D02*
X160016866Y-85071180D01*
X160016866Y-85071180D02*
X159969247Y-85118800D01*
X159969247Y-85118800D02*
X159874009Y-85166419D01*
X159874009Y-85166419D02*
X159683533Y-85166419D01*
X159683533Y-85166419D02*
X159588295Y-85118800D01*
X159588295Y-85118800D02*
X159540676Y-85071180D01*
X159540676Y-85071180D02*
X159493057Y-84975942D01*
X159493057Y-84975942D02*
X159493057Y-84737847D01*
X159493057Y-84737847D02*
X159540676Y-84642609D01*
X159540676Y-84642609D02*
X159588295Y-84594990D01*
X159588295Y-84594990D02*
X159683533Y-84547371D01*
X159683533Y-84547371D02*
X159874009Y-84547371D01*
X159874009Y-84547371D02*
X159969247Y-84594990D01*
X159969247Y-84594990D02*
X160016866Y-84642609D01*
X160016866Y-84642609D02*
X160064485Y-84737847D01*
D10*
X70619857Y-64443780D02*
X70667476Y-64491400D01*
X70667476Y-64491400D02*
X70810333Y-64539019D01*
X70810333Y-64539019D02*
X70905571Y-64539019D01*
X70905571Y-64539019D02*
X71048428Y-64491400D01*
X71048428Y-64491400D02*
X71143666Y-64396161D01*
X71143666Y-64396161D02*
X71191285Y-64300923D01*
X71191285Y-64300923D02*
X71238904Y-64110447D01*
X71238904Y-64110447D02*
X71238904Y-63967590D01*
X71238904Y-63967590D02*
X71191285Y-63777114D01*
X71191285Y-63777114D02*
X71143666Y-63681876D01*
X71143666Y-63681876D02*
X71048428Y-63586638D01*
X71048428Y-63586638D02*
X70905571Y-63539019D01*
X70905571Y-63539019D02*
X70810333Y-63539019D01*
X70810333Y-63539019D02*
X70667476Y-63586638D01*
X70667476Y-63586638D02*
X70619857Y-63634257D01*
X70286523Y-63539019D02*
X69667476Y-63539019D01*
X69667476Y-63539019D02*
X70000809Y-63919971D01*
X70000809Y-63919971D02*
X69857952Y-63919971D01*
X69857952Y-63919971D02*
X69762714Y-63967590D01*
X69762714Y-63967590D02*
X69715095Y-64015209D01*
X69715095Y-64015209D02*
X69667476Y-64110447D01*
X69667476Y-64110447D02*
X69667476Y-64348542D01*
X69667476Y-64348542D02*
X69715095Y-64443780D01*
X69715095Y-64443780D02*
X69762714Y-64491400D01*
X69762714Y-64491400D02*
X69857952Y-64539019D01*
X69857952Y-64539019D02*
X70143666Y-64539019D01*
X70143666Y-64539019D02*
X70238904Y-64491400D01*
X70238904Y-64491400D02*
X70286523Y-64443780D01*
X69191285Y-64539019D02*
X69000809Y-64539019D01*
X69000809Y-64539019D02*
X68905571Y-64491400D01*
X68905571Y-64491400D02*
X68857952Y-64443780D01*
X68857952Y-64443780D02*
X68762714Y-64300923D01*
X68762714Y-64300923D02*
X68715095Y-64110447D01*
X68715095Y-64110447D02*
X68715095Y-63729495D01*
X68715095Y-63729495D02*
X68762714Y-63634257D01*
X68762714Y-63634257D02*
X68810333Y-63586638D01*
X68810333Y-63586638D02*
X68905571Y-63539019D01*
X68905571Y-63539019D02*
X69096047Y-63539019D01*
X69096047Y-63539019D02*
X69191285Y-63586638D01*
X69191285Y-63586638D02*
X69238904Y-63634257D01*
X69238904Y-63634257D02*
X69286523Y-63729495D01*
X69286523Y-63729495D02*
X69286523Y-63967590D01*
X69286523Y-63967590D02*
X69238904Y-64062828D01*
X69238904Y-64062828D02*
X69191285Y-64110447D01*
X69191285Y-64110447D02*
X69096047Y-64158066D01*
X69096047Y-64158066D02*
X68905571Y-64158066D01*
X68905571Y-64158066D02*
X68810333Y-64110447D01*
X68810333Y-64110447D02*
X68762714Y-64062828D01*
X68762714Y-64062828D02*
X68715095Y-63967590D01*
D11*
X149526523Y-98222019D02*
X149526523Y-97222019D01*
X149526523Y-97222019D02*
X149193190Y-97936304D01*
X149193190Y-97936304D02*
X148859857Y-97222019D01*
X148859857Y-97222019D02*
X148859857Y-98222019D01*
X147955095Y-97555352D02*
X147955095Y-98222019D01*
X148193190Y-97174400D02*
X148431285Y-97888685D01*
X148431285Y-97888685D02*
X147812238Y-97888685D01*
D10*
X90406457Y-84687580D02*
X90454076Y-84735200D01*
X90454076Y-84735200D02*
X90596933Y-84782819D01*
X90596933Y-84782819D02*
X90692171Y-84782819D01*
X90692171Y-84782819D02*
X90835028Y-84735200D01*
X90835028Y-84735200D02*
X90930266Y-84639961D01*
X90930266Y-84639961D02*
X90977885Y-84544723D01*
X90977885Y-84544723D02*
X91025504Y-84354247D01*
X91025504Y-84354247D02*
X91025504Y-84211390D01*
X91025504Y-84211390D02*
X90977885Y-84020914D01*
X90977885Y-84020914D02*
X90930266Y-83925676D01*
X90930266Y-83925676D02*
X90835028Y-83830438D01*
X90835028Y-83830438D02*
X90692171Y-83782819D01*
X90692171Y-83782819D02*
X90596933Y-83782819D01*
X90596933Y-83782819D02*
X90454076Y-83830438D01*
X90454076Y-83830438D02*
X90406457Y-83878057D01*
X90073123Y-83782819D02*
X89454076Y-83782819D01*
X89454076Y-83782819D02*
X89787409Y-84163771D01*
X89787409Y-84163771D02*
X89644552Y-84163771D01*
X89644552Y-84163771D02*
X89549314Y-84211390D01*
X89549314Y-84211390D02*
X89501695Y-84259009D01*
X89501695Y-84259009D02*
X89454076Y-84354247D01*
X89454076Y-84354247D02*
X89454076Y-84592342D01*
X89454076Y-84592342D02*
X89501695Y-84687580D01*
X89501695Y-84687580D02*
X89549314Y-84735200D01*
X89549314Y-84735200D02*
X89644552Y-84782819D01*
X89644552Y-84782819D02*
X89930266Y-84782819D01*
X89930266Y-84782819D02*
X90025504Y-84735200D01*
X90025504Y-84735200D02*
X90073123Y-84687580D01*
X88882647Y-84211390D02*
X88977885Y-84163771D01*
X88977885Y-84163771D02*
X89025504Y-84116152D01*
X89025504Y-84116152D02*
X89073123Y-84020914D01*
X89073123Y-84020914D02*
X89073123Y-83973295D01*
X89073123Y-83973295D02*
X89025504Y-83878057D01*
X89025504Y-83878057D02*
X88977885Y-83830438D01*
X88977885Y-83830438D02*
X88882647Y-83782819D01*
X88882647Y-83782819D02*
X88692171Y-83782819D01*
X88692171Y-83782819D02*
X88596933Y-83830438D01*
X88596933Y-83830438D02*
X88549314Y-83878057D01*
X88549314Y-83878057D02*
X88501695Y-83973295D01*
X88501695Y-83973295D02*
X88501695Y-84020914D01*
X88501695Y-84020914D02*
X88549314Y-84116152D01*
X88549314Y-84116152D02*
X88596933Y-84163771D01*
X88596933Y-84163771D02*
X88692171Y-84211390D01*
X88692171Y-84211390D02*
X88882647Y-84211390D01*
X88882647Y-84211390D02*
X88977885Y-84259009D01*
X88977885Y-84259009D02*
X89025504Y-84306628D01*
X89025504Y-84306628D02*
X89073123Y-84401866D01*
X89073123Y-84401866D02*
X89073123Y-84592342D01*
X89073123Y-84592342D02*
X89025504Y-84687580D01*
X89025504Y-84687580D02*
X88977885Y-84735200D01*
X88977885Y-84735200D02*
X88882647Y-84782819D01*
X88882647Y-84782819D02*
X88692171Y-84782819D01*
X88692171Y-84782819D02*
X88596933Y-84735200D01*
X88596933Y-84735200D02*
X88549314Y-84687580D01*
X88549314Y-84687580D02*
X88501695Y-84592342D01*
X88501695Y-84592342D02*
X88501695Y-84401866D01*
X88501695Y-84401866D02*
X88549314Y-84306628D01*
X88549314Y-84306628D02*
X88596933Y-84259009D01*
X88596933Y-84259009D02*
X88692171Y-84211390D01*
X198667666Y-119301419D02*
X199000999Y-118825228D01*
X199239094Y-119301419D02*
X199239094Y-118301419D01*
X199239094Y-118301419D02*
X198858142Y-118301419D01*
X198858142Y-118301419D02*
X198762904Y-118349038D01*
X198762904Y-118349038D02*
X198715285Y-118396657D01*
X198715285Y-118396657D02*
X198667666Y-118491895D01*
X198667666Y-118491895D02*
X198667666Y-118634752D01*
X198667666Y-118634752D02*
X198715285Y-118729990D01*
X198715285Y-118729990D02*
X198762904Y-118777609D01*
X198762904Y-118777609D02*
X198858142Y-118825228D01*
X198858142Y-118825228D02*
X199239094Y-118825228D01*
X198334332Y-118301419D02*
X197667666Y-118301419D01*
X197667666Y-118301419D02*
X198096237Y-119301419D01*
X181948057Y-126724580D02*
X181995676Y-126772200D01*
X181995676Y-126772200D02*
X182138533Y-126819819D01*
X182138533Y-126819819D02*
X182233771Y-126819819D01*
X182233771Y-126819819D02*
X182376628Y-126772200D01*
X182376628Y-126772200D02*
X182471866Y-126676961D01*
X182471866Y-126676961D02*
X182519485Y-126581723D01*
X182519485Y-126581723D02*
X182567104Y-126391247D01*
X182567104Y-126391247D02*
X182567104Y-126248390D01*
X182567104Y-126248390D02*
X182519485Y-126057914D01*
X182519485Y-126057914D02*
X182471866Y-125962676D01*
X182471866Y-125962676D02*
X182376628Y-125867438D01*
X182376628Y-125867438D02*
X182233771Y-125819819D01*
X182233771Y-125819819D02*
X182138533Y-125819819D01*
X182138533Y-125819819D02*
X181995676Y-125867438D01*
X181995676Y-125867438D02*
X181948057Y-125915057D01*
X180995676Y-126819819D02*
X181567104Y-126819819D01*
X181281390Y-126819819D02*
X181281390Y-125819819D01*
X181281390Y-125819819D02*
X181376628Y-125962676D01*
X181376628Y-125962676D02*
X181471866Y-126057914D01*
X181471866Y-126057914D02*
X181567104Y-126105533D01*
X180090914Y-125819819D02*
X180567104Y-125819819D01*
X180567104Y-125819819D02*
X180614723Y-126296009D01*
X180614723Y-126296009D02*
X180567104Y-126248390D01*
X180567104Y-126248390D02*
X180471866Y-126200771D01*
X180471866Y-126200771D02*
X180233771Y-126200771D01*
X180233771Y-126200771D02*
X180138533Y-126248390D01*
X180138533Y-126248390D02*
X180090914Y-126296009D01*
X180090914Y-126296009D02*
X180043295Y-126391247D01*
X180043295Y-126391247D02*
X180043295Y-126629342D01*
X180043295Y-126629342D02*
X180090914Y-126724580D01*
X180090914Y-126724580D02*
X180138533Y-126772200D01*
X180138533Y-126772200D02*
X180233771Y-126819819D01*
X180233771Y-126819819D02*
X180471866Y-126819819D01*
X180471866Y-126819819D02*
X180567104Y-126772200D01*
X180567104Y-126772200D02*
X180614723Y-126724580D01*
X169660866Y-69523780D02*
X169708485Y-69571400D01*
X169708485Y-69571400D02*
X169851342Y-69619019D01*
X169851342Y-69619019D02*
X169946580Y-69619019D01*
X169946580Y-69619019D02*
X170089437Y-69571400D01*
X170089437Y-69571400D02*
X170184675Y-69476161D01*
X170184675Y-69476161D02*
X170232294Y-69380923D01*
X170232294Y-69380923D02*
X170279913Y-69190447D01*
X170279913Y-69190447D02*
X170279913Y-69047590D01*
X170279913Y-69047590D02*
X170232294Y-68857114D01*
X170232294Y-68857114D02*
X170184675Y-68761876D01*
X170184675Y-68761876D02*
X170089437Y-68666638D01*
X170089437Y-68666638D02*
X169946580Y-68619019D01*
X169946580Y-68619019D02*
X169851342Y-68619019D01*
X169851342Y-68619019D02*
X169708485Y-68666638D01*
X169708485Y-68666638D02*
X169660866Y-68714257D01*
X169327532Y-68619019D02*
X168708485Y-68619019D01*
X168708485Y-68619019D02*
X169041818Y-68999971D01*
X169041818Y-68999971D02*
X168898961Y-68999971D01*
X168898961Y-68999971D02*
X168803723Y-69047590D01*
X168803723Y-69047590D02*
X168756104Y-69095209D01*
X168756104Y-69095209D02*
X168708485Y-69190447D01*
X168708485Y-69190447D02*
X168708485Y-69428542D01*
X168708485Y-69428542D02*
X168756104Y-69523780D01*
X168756104Y-69523780D02*
X168803723Y-69571400D01*
X168803723Y-69571400D02*
X168898961Y-69619019D01*
X168898961Y-69619019D02*
X169184675Y-69619019D01*
X169184675Y-69619019D02*
X169279913Y-69571400D01*
X169279913Y-69571400D02*
X169327532Y-69523780D01*
X222308657Y-83519180D02*
X222356276Y-83566800D01*
X222356276Y-83566800D02*
X222499133Y-83614419D01*
X222499133Y-83614419D02*
X222594371Y-83614419D01*
X222594371Y-83614419D02*
X222737228Y-83566800D01*
X222737228Y-83566800D02*
X222832466Y-83471561D01*
X222832466Y-83471561D02*
X222880085Y-83376323D01*
X222880085Y-83376323D02*
X222927704Y-83185847D01*
X222927704Y-83185847D02*
X222927704Y-83042990D01*
X222927704Y-83042990D02*
X222880085Y-82852514D01*
X222880085Y-82852514D02*
X222832466Y-82757276D01*
X222832466Y-82757276D02*
X222737228Y-82662038D01*
X222737228Y-82662038D02*
X222594371Y-82614419D01*
X222594371Y-82614419D02*
X222499133Y-82614419D01*
X222499133Y-82614419D02*
X222356276Y-82662038D01*
X222356276Y-82662038D02*
X222308657Y-82709657D01*
X221975323Y-82614419D02*
X221356276Y-82614419D01*
X221356276Y-82614419D02*
X221689609Y-82995371D01*
X221689609Y-82995371D02*
X221546752Y-82995371D01*
X221546752Y-82995371D02*
X221451514Y-83042990D01*
X221451514Y-83042990D02*
X221403895Y-83090609D01*
X221403895Y-83090609D02*
X221356276Y-83185847D01*
X221356276Y-83185847D02*
X221356276Y-83423942D01*
X221356276Y-83423942D02*
X221403895Y-83519180D01*
X221403895Y-83519180D02*
X221451514Y-83566800D01*
X221451514Y-83566800D02*
X221546752Y-83614419D01*
X221546752Y-83614419D02*
X221832466Y-83614419D01*
X221832466Y-83614419D02*
X221927704Y-83566800D01*
X221927704Y-83566800D02*
X221975323Y-83519180D01*
X220975323Y-82709657D02*
X220927704Y-82662038D01*
X220927704Y-82662038D02*
X220832466Y-82614419D01*
X220832466Y-82614419D02*
X220594371Y-82614419D01*
X220594371Y-82614419D02*
X220499133Y-82662038D01*
X220499133Y-82662038D02*
X220451514Y-82709657D01*
X220451514Y-82709657D02*
X220403895Y-82804895D01*
X220403895Y-82804895D02*
X220403895Y-82900133D01*
X220403895Y-82900133D02*
X220451514Y-83042990D01*
X220451514Y-83042990D02*
X221022942Y-83614419D01*
X221022942Y-83614419D02*
X220403895Y-83614419D01*
D11*
X131136923Y-82270819D02*
X131136923Y-81270819D01*
X131136923Y-81270819D02*
X130803590Y-81985104D01*
X130803590Y-81985104D02*
X130470257Y-81270819D01*
X130470257Y-81270819D02*
X130470257Y-82270819D01*
X129851209Y-81699390D02*
X129946447Y-81651771D01*
X129946447Y-81651771D02*
X129994066Y-81604152D01*
X129994066Y-81604152D02*
X130041685Y-81508914D01*
X130041685Y-81508914D02*
X130041685Y-81461295D01*
X130041685Y-81461295D02*
X129994066Y-81366057D01*
X129994066Y-81366057D02*
X129946447Y-81318438D01*
X129946447Y-81318438D02*
X129851209Y-81270819D01*
X129851209Y-81270819D02*
X129660733Y-81270819D01*
X129660733Y-81270819D02*
X129565495Y-81318438D01*
X129565495Y-81318438D02*
X129517876Y-81366057D01*
X129517876Y-81366057D02*
X129470257Y-81461295D01*
X129470257Y-81461295D02*
X129470257Y-81508914D01*
X129470257Y-81508914D02*
X129517876Y-81604152D01*
X129517876Y-81604152D02*
X129565495Y-81651771D01*
X129565495Y-81651771D02*
X129660733Y-81699390D01*
X129660733Y-81699390D02*
X129851209Y-81699390D01*
X129851209Y-81699390D02*
X129946447Y-81747009D01*
X129946447Y-81747009D02*
X129994066Y-81794628D01*
X129994066Y-81794628D02*
X130041685Y-81889866D01*
X130041685Y-81889866D02*
X130041685Y-82080342D01*
X130041685Y-82080342D02*
X129994066Y-82175580D01*
X129994066Y-82175580D02*
X129946447Y-82223200D01*
X129946447Y-82223200D02*
X129851209Y-82270819D01*
X129851209Y-82270819D02*
X129660733Y-82270819D01*
X129660733Y-82270819D02*
X129565495Y-82223200D01*
X129565495Y-82223200D02*
X129517876Y-82175580D01*
X129517876Y-82175580D02*
X129470257Y-82080342D01*
X129470257Y-82080342D02*
X129470257Y-81889866D01*
X129470257Y-81889866D02*
X129517876Y-81794628D01*
X129517876Y-81794628D02*
X129565495Y-81747009D01*
X129565495Y-81747009D02*
X129660733Y-81699390D01*
X146580123Y-99695219D02*
X146580123Y-98695219D01*
X146580123Y-98695219D02*
X146246790Y-99409504D01*
X146246790Y-99409504D02*
X145913457Y-98695219D01*
X145913457Y-98695219D02*
X145913457Y-99695219D01*
X144913457Y-99695219D02*
X145484885Y-99695219D01*
X145199171Y-99695219D02*
X145199171Y-98695219D01*
X145199171Y-98695219D02*
X145294409Y-98838076D01*
X145294409Y-98838076D02*
X145389647Y-98933314D01*
X145389647Y-98933314D02*
X145484885Y-98980933D01*
X157425923Y-87706419D02*
X157425923Y-86706419D01*
X157425923Y-86706419D02*
X157092590Y-87420704D01*
X157092590Y-87420704D02*
X156759257Y-86706419D01*
X156759257Y-86706419D02*
X156759257Y-87706419D01*
X156330685Y-86801657D02*
X156283066Y-86754038D01*
X156283066Y-86754038D02*
X156187828Y-86706419D01*
X156187828Y-86706419D02*
X155949733Y-86706419D01*
X155949733Y-86706419D02*
X155854495Y-86754038D01*
X155854495Y-86754038D02*
X155806876Y-86801657D01*
X155806876Y-86801657D02*
X155759257Y-86896895D01*
X155759257Y-86896895D02*
X155759257Y-86992133D01*
X155759257Y-86992133D02*
X155806876Y-87134990D01*
X155806876Y-87134990D02*
X156378304Y-87706419D01*
X156378304Y-87706419D02*
X155759257Y-87706419D01*
D10*
X223389019Y-72292357D02*
X223341400Y-72339976D01*
X223341400Y-72339976D02*
X223293780Y-72482833D01*
X223293780Y-72482833D02*
X223293780Y-72578071D01*
X223293780Y-72578071D02*
X223341400Y-72720928D01*
X223341400Y-72720928D02*
X223436638Y-72816166D01*
X223436638Y-72816166D02*
X223531876Y-72863785D01*
X223531876Y-72863785D02*
X223722352Y-72911404D01*
X223722352Y-72911404D02*
X223865209Y-72911404D01*
X223865209Y-72911404D02*
X224055685Y-72863785D01*
X224055685Y-72863785D02*
X224150923Y-72816166D01*
X224150923Y-72816166D02*
X224246161Y-72720928D01*
X224246161Y-72720928D02*
X224293780Y-72578071D01*
X224293780Y-72578071D02*
X224293780Y-72482833D01*
X224293780Y-72482833D02*
X224246161Y-72339976D01*
X224246161Y-72339976D02*
X224198542Y-72292357D01*
X224293780Y-71959023D02*
X224293780Y-71339976D01*
X224293780Y-71339976D02*
X223912828Y-71673309D01*
X223912828Y-71673309D02*
X223912828Y-71530452D01*
X223912828Y-71530452D02*
X223865209Y-71435214D01*
X223865209Y-71435214D02*
X223817590Y-71387595D01*
X223817590Y-71387595D02*
X223722352Y-71339976D01*
X223722352Y-71339976D02*
X223484257Y-71339976D01*
X223484257Y-71339976D02*
X223389019Y-71387595D01*
X223389019Y-71387595D02*
X223341400Y-71435214D01*
X223341400Y-71435214D02*
X223293780Y-71530452D01*
X223293780Y-71530452D02*
X223293780Y-71816166D01*
X223293780Y-71816166D02*
X223341400Y-71911404D01*
X223341400Y-71911404D02*
X223389019Y-71959023D01*
X224293780Y-71006642D02*
X224293780Y-70387595D01*
X224293780Y-70387595D02*
X223912828Y-70720928D01*
X223912828Y-70720928D02*
X223912828Y-70578071D01*
X223912828Y-70578071D02*
X223865209Y-70482833D01*
X223865209Y-70482833D02*
X223817590Y-70435214D01*
X223817590Y-70435214D02*
X223722352Y-70387595D01*
X223722352Y-70387595D02*
X223484257Y-70387595D01*
X223484257Y-70387595D02*
X223389019Y-70435214D01*
X223389019Y-70435214D02*
X223341400Y-70482833D01*
X223341400Y-70482833D02*
X223293780Y-70578071D01*
X223293780Y-70578071D02*
X223293780Y-70863785D01*
X223293780Y-70863785D02*
X223341400Y-70959023D01*
X223341400Y-70959023D02*
X223389019Y-71006642D01*
X194317857Y-72622580D02*
X194365476Y-72670200D01*
X194365476Y-72670200D02*
X194508333Y-72717819D01*
X194508333Y-72717819D02*
X194603571Y-72717819D01*
X194603571Y-72717819D02*
X194746428Y-72670200D01*
X194746428Y-72670200D02*
X194841666Y-72574961D01*
X194841666Y-72574961D02*
X194889285Y-72479723D01*
X194889285Y-72479723D02*
X194936904Y-72289247D01*
X194936904Y-72289247D02*
X194936904Y-72146390D01*
X194936904Y-72146390D02*
X194889285Y-71955914D01*
X194889285Y-71955914D02*
X194841666Y-71860676D01*
X194841666Y-71860676D02*
X194746428Y-71765438D01*
X194746428Y-71765438D02*
X194603571Y-71717819D01*
X194603571Y-71717819D02*
X194508333Y-71717819D01*
X194508333Y-71717819D02*
X194365476Y-71765438D01*
X194365476Y-71765438D02*
X194317857Y-71813057D01*
X193936904Y-71813057D02*
X193889285Y-71765438D01*
X193889285Y-71765438D02*
X193794047Y-71717819D01*
X193794047Y-71717819D02*
X193555952Y-71717819D01*
X193555952Y-71717819D02*
X193460714Y-71765438D01*
X193460714Y-71765438D02*
X193413095Y-71813057D01*
X193413095Y-71813057D02*
X193365476Y-71908295D01*
X193365476Y-71908295D02*
X193365476Y-72003533D01*
X193365476Y-72003533D02*
X193413095Y-72146390D01*
X193413095Y-72146390D02*
X193984523Y-72717819D01*
X193984523Y-72717819D02*
X193365476Y-72717819D01*
X192460714Y-71717819D02*
X192936904Y-71717819D01*
X192936904Y-71717819D02*
X192984523Y-72194009D01*
X192984523Y-72194009D02*
X192936904Y-72146390D01*
X192936904Y-72146390D02*
X192841666Y-72098771D01*
X192841666Y-72098771D02*
X192603571Y-72098771D01*
X192603571Y-72098771D02*
X192508333Y-72146390D01*
X192508333Y-72146390D02*
X192460714Y-72194009D01*
X192460714Y-72194009D02*
X192413095Y-72289247D01*
X192413095Y-72289247D02*
X192413095Y-72527342D01*
X192413095Y-72527342D02*
X192460714Y-72622580D01*
X192460714Y-72622580D02*
X192508333Y-72670200D01*
X192508333Y-72670200D02*
X192603571Y-72717819D01*
X192603571Y-72717819D02*
X192841666Y-72717819D01*
X192841666Y-72717819D02*
X192936904Y-72670200D01*
X192936904Y-72670200D02*
X192984523Y-72622580D01*
X226976780Y-80583066D02*
X227452971Y-80916399D01*
X226976780Y-81154494D02*
X227976780Y-81154494D01*
X227976780Y-81154494D02*
X227976780Y-80773542D01*
X227976780Y-80773542D02*
X227929161Y-80678304D01*
X227929161Y-80678304D02*
X227881542Y-80630685D01*
X227881542Y-80630685D02*
X227786304Y-80583066D01*
X227786304Y-80583066D02*
X227643447Y-80583066D01*
X227643447Y-80583066D02*
X227548209Y-80630685D01*
X227548209Y-80630685D02*
X227500590Y-80678304D01*
X227500590Y-80678304D02*
X227452971Y-80773542D01*
X227452971Y-80773542D02*
X227452971Y-81154494D01*
X227643447Y-79725923D02*
X226976780Y-79725923D01*
X228024400Y-79964018D02*
X227310114Y-80202113D01*
X227310114Y-80202113D02*
X227310114Y-79583066D01*
X193714666Y-62970580D02*
X193762285Y-63018200D01*
X193762285Y-63018200D02*
X193905142Y-63065819D01*
X193905142Y-63065819D02*
X194000380Y-63065819D01*
X194000380Y-63065819D02*
X194143237Y-63018200D01*
X194143237Y-63018200D02*
X194238475Y-62922961D01*
X194238475Y-62922961D02*
X194286094Y-62827723D01*
X194286094Y-62827723D02*
X194333713Y-62637247D01*
X194333713Y-62637247D02*
X194333713Y-62494390D01*
X194333713Y-62494390D02*
X194286094Y-62303914D01*
X194286094Y-62303914D02*
X194238475Y-62208676D01*
X194238475Y-62208676D02*
X194143237Y-62113438D01*
X194143237Y-62113438D02*
X194000380Y-62065819D01*
X194000380Y-62065819D02*
X193905142Y-62065819D01*
X193905142Y-62065819D02*
X193762285Y-62113438D01*
X193762285Y-62113438D02*
X193714666Y-62161057D01*
X192762285Y-63065819D02*
X193333713Y-63065819D01*
X193047999Y-63065819D02*
X193047999Y-62065819D01*
X193047999Y-62065819D02*
X193143237Y-62208676D01*
X193143237Y-62208676D02*
X193238475Y-62303914D01*
X193238475Y-62303914D02*
X193333713Y-62351533D01*
X95156257Y-59439980D02*
X95203876Y-59487600D01*
X95203876Y-59487600D02*
X95346733Y-59535219D01*
X95346733Y-59535219D02*
X95441971Y-59535219D01*
X95441971Y-59535219D02*
X95584828Y-59487600D01*
X95584828Y-59487600D02*
X95680066Y-59392361D01*
X95680066Y-59392361D02*
X95727685Y-59297123D01*
X95727685Y-59297123D02*
X95775304Y-59106647D01*
X95775304Y-59106647D02*
X95775304Y-58963790D01*
X95775304Y-58963790D02*
X95727685Y-58773314D01*
X95727685Y-58773314D02*
X95680066Y-58678076D01*
X95680066Y-58678076D02*
X95584828Y-58582838D01*
X95584828Y-58582838D02*
X95441971Y-58535219D01*
X95441971Y-58535219D02*
X95346733Y-58535219D01*
X95346733Y-58535219D02*
X95203876Y-58582838D01*
X95203876Y-58582838D02*
X95156257Y-58630457D01*
X94299114Y-58868552D02*
X94299114Y-59535219D01*
X94537209Y-58487600D02*
X94775304Y-59201885D01*
X94775304Y-59201885D02*
X94156257Y-59201885D01*
X93727685Y-59535219D02*
X93537209Y-59535219D01*
X93537209Y-59535219D02*
X93441971Y-59487600D01*
X93441971Y-59487600D02*
X93394352Y-59439980D01*
X93394352Y-59439980D02*
X93299114Y-59297123D01*
X93299114Y-59297123D02*
X93251495Y-59106647D01*
X93251495Y-59106647D02*
X93251495Y-58725695D01*
X93251495Y-58725695D02*
X93299114Y-58630457D01*
X93299114Y-58630457D02*
X93346733Y-58582838D01*
X93346733Y-58582838D02*
X93441971Y-58535219D01*
X93441971Y-58535219D02*
X93632447Y-58535219D01*
X93632447Y-58535219D02*
X93727685Y-58582838D01*
X93727685Y-58582838D02*
X93775304Y-58630457D01*
X93775304Y-58630457D02*
X93822923Y-58725695D01*
X93822923Y-58725695D02*
X93822923Y-58963790D01*
X93822923Y-58963790D02*
X93775304Y-59059028D01*
X93775304Y-59059028D02*
X93727685Y-59106647D01*
X93727685Y-59106647D02*
X93632447Y-59154266D01*
X93632447Y-59154266D02*
X93441971Y-59154266D01*
X93441971Y-59154266D02*
X93346733Y-59106647D01*
X93346733Y-59106647D02*
X93299114Y-59059028D01*
X93299114Y-59059028D02*
X93251495Y-58963790D01*
X213940219Y-76995257D02*
X213892600Y-77042876D01*
X213892600Y-77042876D02*
X213844980Y-77185733D01*
X213844980Y-77185733D02*
X213844980Y-77280971D01*
X213844980Y-77280971D02*
X213892600Y-77423828D01*
X213892600Y-77423828D02*
X213987838Y-77519066D01*
X213987838Y-77519066D02*
X214083076Y-77566685D01*
X214083076Y-77566685D02*
X214273552Y-77614304D01*
X214273552Y-77614304D02*
X214416409Y-77614304D01*
X214416409Y-77614304D02*
X214606885Y-77566685D01*
X214606885Y-77566685D02*
X214702123Y-77519066D01*
X214702123Y-77519066D02*
X214797361Y-77423828D01*
X214797361Y-77423828D02*
X214844980Y-77280971D01*
X214844980Y-77280971D02*
X214844980Y-77185733D01*
X214844980Y-77185733D02*
X214797361Y-77042876D01*
X214797361Y-77042876D02*
X214749742Y-76995257D01*
X214844980Y-76661923D02*
X214844980Y-76042876D01*
X214844980Y-76042876D02*
X214464028Y-76376209D01*
X214464028Y-76376209D02*
X214464028Y-76233352D01*
X214464028Y-76233352D02*
X214416409Y-76138114D01*
X214416409Y-76138114D02*
X214368790Y-76090495D01*
X214368790Y-76090495D02*
X214273552Y-76042876D01*
X214273552Y-76042876D02*
X214035457Y-76042876D01*
X214035457Y-76042876D02*
X213940219Y-76090495D01*
X213940219Y-76090495D02*
X213892600Y-76138114D01*
X213892600Y-76138114D02*
X213844980Y-76233352D01*
X213844980Y-76233352D02*
X213844980Y-76519066D01*
X213844980Y-76519066D02*
X213892600Y-76614304D01*
X213892600Y-76614304D02*
X213940219Y-76661923D01*
X214844980Y-75138114D02*
X214844980Y-75614304D01*
X214844980Y-75614304D02*
X214368790Y-75661923D01*
X214368790Y-75661923D02*
X214416409Y-75614304D01*
X214416409Y-75614304D02*
X214464028Y-75519066D01*
X214464028Y-75519066D02*
X214464028Y-75280971D01*
X214464028Y-75280971D02*
X214416409Y-75185733D01*
X214416409Y-75185733D02*
X214368790Y-75138114D01*
X214368790Y-75138114D02*
X214273552Y-75090495D01*
X214273552Y-75090495D02*
X214035457Y-75090495D01*
X214035457Y-75090495D02*
X213940219Y-75138114D01*
X213940219Y-75138114D02*
X213892600Y-75185733D01*
X213892600Y-75185733D02*
X213844980Y-75280971D01*
X213844980Y-75280971D02*
X213844980Y-75519066D01*
X213844980Y-75519066D02*
X213892600Y-75614304D01*
X213892600Y-75614304D02*
X213940219Y-75661923D01*
X225178857Y-93272780D02*
X225226476Y-93320400D01*
X225226476Y-93320400D02*
X225369333Y-93368019D01*
X225369333Y-93368019D02*
X225464571Y-93368019D01*
X225464571Y-93368019D02*
X225607428Y-93320400D01*
X225607428Y-93320400D02*
X225702666Y-93225161D01*
X225702666Y-93225161D02*
X225750285Y-93129923D01*
X225750285Y-93129923D02*
X225797904Y-92939447D01*
X225797904Y-92939447D02*
X225797904Y-92796590D01*
X225797904Y-92796590D02*
X225750285Y-92606114D01*
X225750285Y-92606114D02*
X225702666Y-92510876D01*
X225702666Y-92510876D02*
X225607428Y-92415638D01*
X225607428Y-92415638D02*
X225464571Y-92368019D01*
X225464571Y-92368019D02*
X225369333Y-92368019D01*
X225369333Y-92368019D02*
X225226476Y-92415638D01*
X225226476Y-92415638D02*
X225178857Y-92463257D01*
X224845523Y-92368019D02*
X224226476Y-92368019D01*
X224226476Y-92368019D02*
X224559809Y-92748971D01*
X224559809Y-92748971D02*
X224416952Y-92748971D01*
X224416952Y-92748971D02*
X224321714Y-92796590D01*
X224321714Y-92796590D02*
X224274095Y-92844209D01*
X224274095Y-92844209D02*
X224226476Y-92939447D01*
X224226476Y-92939447D02*
X224226476Y-93177542D01*
X224226476Y-93177542D02*
X224274095Y-93272780D01*
X224274095Y-93272780D02*
X224321714Y-93320400D01*
X224321714Y-93320400D02*
X224416952Y-93368019D01*
X224416952Y-93368019D02*
X224702666Y-93368019D01*
X224702666Y-93368019D02*
X224797904Y-93320400D01*
X224797904Y-93320400D02*
X224845523Y-93272780D01*
X223369333Y-92701352D02*
X223369333Y-93368019D01*
X223607428Y-92320400D02*
X223845523Y-93034685D01*
X223845523Y-93034685D02*
X223226476Y-93034685D01*
X111218000Y-110576000D02*
X113318000Y-110576000D01*
X113318000Y-110576000D02*
X113318000Y-114976000D01*
X113318000Y-114976000D02*
X111218000Y-114976000D01*
X111218000Y-114976000D02*
X111218000Y-110576000D01*
X110270000Y-71542000D02*
X108170000Y-71542000D01*
X108170000Y-71542000D02*
X108170000Y-67142000D01*
X108170000Y-67142000D02*
X110270000Y-67142000D01*
X110270000Y-67142000D02*
X110270000Y-71542000D01*
X226856000Y-126025000D02*
X224756000Y-126025000D01*
X224756000Y-126025000D02*
X224756000Y-121625000D01*
X224756000Y-121625000D02*
X226856000Y-121625000D01*
X226856000Y-121625000D02*
X226856000Y-126025000D01*
X60105000Y-80051000D02*
X58005000Y-80051000D01*
X58005000Y-80051000D02*
X58005000Y-75651000D01*
X58005000Y-75651000D02*
X60105000Y-75651000D01*
X60105000Y-75651000D02*
X60105000Y-80051000D01*
X62958000Y-111084000D02*
X65058000Y-111084000D01*
X65058000Y-111084000D02*
X65058000Y-115484000D01*
X65058000Y-115484000D02*
X62958000Y-115484000D01*
X62958000Y-115484000D02*
X62958000Y-111084000D01*
X146846000Y-119167000D02*
X144746000Y-119167000D01*
X144746000Y-119167000D02*
X144746000Y-114767000D01*
X144746000Y-114767000D02*
X146846000Y-114767000D01*
X146846000Y-114767000D02*
X146846000Y-119167000D01*
X137216200Y-77241400D02*
G75*
G03*
X137216200Y-77241400I-1250000J0D01*
G01*
X165765800Y-86791800D02*
G75*
G03*
X165765800Y-86791800I-1250000J0D01*
G01*
X146390000Y-108873000D02*
X150790000Y-108873000D01*
X150790000Y-108873000D02*
X150790000Y-106773000D01*
X150790000Y-106773000D02*
X146390000Y-106773000D01*
X146390000Y-106773000D02*
X146390000Y-108873000D01*
X196428000Y-90458000D02*
X200828000Y-90458000D01*
X200828000Y-90458000D02*
X200828000Y-88358000D01*
X200828000Y-88358000D02*
X196428000Y-88358000D01*
X196428000Y-88358000D02*
X196428000Y-90458000D01*
X213148200Y-84718800D02*
X215248200Y-84718800D01*
X215248200Y-84718800D02*
X215248200Y-89118800D01*
X215248200Y-89118800D02*
X213148200Y-89118800D01*
X213148200Y-89118800D02*
X213148200Y-84718800D01*
X174892700Y-128812000D02*
X179292700Y-128812000D01*
X179292700Y-128812000D02*
X179292700Y-126712000D01*
X179292700Y-126712000D02*
X174892700Y-126712000D01*
X174892700Y-126712000D02*
X174892700Y-128812000D01*
X142728000Y-97536000D02*
G75*
G03*
X142728000Y-97536000I-1250000J0D01*
G01*
X113899000Y-75311000D02*
G75*
G03*
X113899000Y-75311000I-1250000J0D01*
G01*
X68995000Y-81956000D02*
X66895000Y-81956000D01*
X66895000Y-81956000D02*
X66895000Y-77556000D01*
X66895000Y-77556000D02*
X68995000Y-77556000D01*
X68995000Y-77556000D02*
X68995000Y-81956000D01*
X215248200Y-94148000D02*
X213148200Y-94148000D01*
X213148200Y-94148000D02*
X213148200Y-89748000D01*
X213148200Y-89748000D02*
X215248200Y-89748000D01*
X215248200Y-89748000D02*
X215248200Y-94148000D01*
X210913000Y-64983000D02*
X213013000Y-64983000D01*
X213013000Y-64983000D02*
X213013000Y-69383000D01*
X213013000Y-69383000D02*
X210913000Y-69383000D01*
X210913000Y-69383000D02*
X210913000Y-64983000D01*
D11*
X171922000Y-124102000D02*
X171922000Y-111102000D01*
X171922000Y-124102000D02*
X167422000Y-124102000D01*
X171922000Y-111102000D02*
X170672000Y-111102000D01*
X167422000Y-124102000D02*
X167422000Y-111102000D01*
X167422000Y-111102000D02*
X168672000Y-111102000D01*
X168672000Y-111102000D02*
G75*
G03*
X170672000Y-111102000I1000000J0D01*
G01*
D12*
X175729605Y-123317000D02*
G75*
G03*
X175729605Y-123317000I-204605J0D01*
G01*
X175729605Y-116948000D02*
G75*
G03*
X175729605Y-116948000I-204605J0D01*
G01*
X164034605Y-111887000D02*
G75*
G03*
X164034605Y-111887000I-204605J0D01*
G01*
D11*
X176160000Y-112187000D02*
X175260000Y-111887000D01*
X176160000Y-111487000D01*
X176160000Y-112187000D01*
G36*
X176160000Y-112187000D02*
G01*
X175260000Y-111887000D01*
X176160000Y-111487000D01*
X176160000Y-112187000D01*
G37*
D10*
X155428000Y-91567000D02*
G75*
G03*
X155428000Y-91567000I-1250000J0D01*
G01*
X100423000Y-56601000D02*
X102523000Y-56601000D01*
X102523000Y-56601000D02*
X102523000Y-61001000D01*
X102523000Y-61001000D02*
X100423000Y-61001000D01*
X100423000Y-61001000D02*
X100423000Y-56601000D01*
X199243000Y-62230000D02*
G75*
G03*
X199243000Y-62230000I-1250000J0D01*
G01*
X195748000Y-55338000D02*
X191348000Y-55338000D01*
X191348000Y-55338000D02*
X191348000Y-57438000D01*
X191348000Y-57438000D02*
X195748000Y-57438000D01*
X195748000Y-57438000D02*
X195748000Y-55338000D01*
X132928000Y-103920000D02*
X137328000Y-103920000D01*
X137328000Y-103920000D02*
X137328000Y-101820000D01*
X137328000Y-101820000D02*
X132928000Y-101820000D01*
X132928000Y-101820000D02*
X132928000Y-103920000D01*
X105161400Y-69875400D02*
G75*
G03*
X105161400Y-69875400I-1250000J0D01*
G01*
X136618000Y-93431000D02*
X138718000Y-93431000D01*
X138718000Y-93431000D02*
X138718000Y-97831000D01*
X138718000Y-97831000D02*
X136618000Y-97831000D01*
X136618000Y-97831000D02*
X136618000Y-93431000D01*
X151291000Y-119167000D02*
X149191000Y-119167000D01*
X149191000Y-119167000D02*
X149191000Y-114767000D01*
X149191000Y-114767000D02*
X151291000Y-114767000D01*
X151291000Y-114767000D02*
X151291000Y-119167000D01*
X86326000Y-109814000D02*
X88426000Y-109814000D01*
X88426000Y-109814000D02*
X88426000Y-114214000D01*
X88426000Y-114214000D02*
X86326000Y-114214000D01*
X86326000Y-114214000D02*
X86326000Y-109814000D01*
X200821000Y-88179000D02*
X198721000Y-88179000D01*
X198721000Y-88179000D02*
X198721000Y-83779000D01*
X198721000Y-83779000D02*
X200821000Y-83779000D01*
X200821000Y-83779000D02*
X200821000Y-88179000D01*
X149055800Y-119167000D02*
X146955800Y-119167000D01*
X146955800Y-119167000D02*
X146955800Y-114767000D01*
X146955800Y-114767000D02*
X149055800Y-114767000D01*
X149055800Y-114767000D02*
X149055800Y-119167000D01*
X146390000Y-111032000D02*
X150790000Y-111032000D01*
X150790000Y-111032000D02*
X150790000Y-108932000D01*
X150790000Y-108932000D02*
X146390000Y-108932000D01*
X146390000Y-108932000D02*
X146390000Y-111032000D01*
X112488000Y-118196000D02*
X114588000Y-118196000D01*
X114588000Y-118196000D02*
X114588000Y-122596000D01*
X114588000Y-122596000D02*
X112488000Y-122596000D01*
X112488000Y-122596000D02*
X112488000Y-118196000D01*
X62958000Y-97749000D02*
X65058000Y-97749000D01*
X65058000Y-97749000D02*
X65058000Y-102149000D01*
X65058000Y-102149000D02*
X62958000Y-102149000D01*
X62958000Y-102149000D02*
X62958000Y-97749000D01*
X196301000Y-115223000D02*
X200701000Y-115223000D01*
X200701000Y-115223000D02*
X200701000Y-113123000D01*
X200701000Y-113123000D02*
X196301000Y-113123000D01*
X196301000Y-113123000D02*
X196301000Y-115223000D01*
X88993000Y-109814000D02*
X91093000Y-109814000D01*
X91093000Y-109814000D02*
X91093000Y-114214000D01*
X91093000Y-114214000D02*
X88993000Y-114214000D01*
X88993000Y-114214000D02*
X88993000Y-109814000D01*
X113631000Y-110576000D02*
X115731000Y-110576000D01*
X115731000Y-110576000D02*
X115731000Y-114976000D01*
X115731000Y-114976000D02*
X113631000Y-114976000D01*
X113631000Y-114976000D02*
X113631000Y-110576000D01*
X214113400Y-64983000D02*
X216213400Y-64983000D01*
X216213400Y-64983000D02*
X216213400Y-69383000D01*
X216213400Y-69383000D02*
X214113400Y-69383000D01*
X214113400Y-69383000D02*
X214113400Y-64983000D01*
X109948000Y-118196000D02*
X112048000Y-118196000D01*
X112048000Y-118196000D02*
X112048000Y-122596000D01*
X112048000Y-122596000D02*
X109948000Y-122596000D01*
X109948000Y-122596000D02*
X109948000Y-118196000D01*
X129753000Y-89696000D02*
X134153000Y-89696000D01*
X134153000Y-89696000D02*
X134153000Y-87596000D01*
X134153000Y-87596000D02*
X129753000Y-87596000D01*
X129753000Y-87596000D02*
X129753000Y-89696000D01*
X165440000Y-110778000D02*
X169840000Y-110778000D01*
X169840000Y-110778000D02*
X169840000Y-108678000D01*
X169840000Y-108678000D02*
X165440000Y-108678000D01*
X165440000Y-108678000D02*
X165440000Y-110778000D01*
X146390000Y-113191000D02*
X150790000Y-113191000D01*
X150790000Y-113191000D02*
X150790000Y-111091000D01*
X150790000Y-111091000D02*
X146390000Y-111091000D01*
X146390000Y-111091000D02*
X146390000Y-113191000D01*
X161905000Y-86791800D02*
G75*
G03*
X161905000Y-86791800I-1250000J0D01*
G01*
X67777000Y-63026000D02*
X72177000Y-63026000D01*
X72177000Y-63026000D02*
X72177000Y-60926000D01*
X72177000Y-60926000D02*
X67777000Y-60926000D01*
X67777000Y-60926000D02*
X67777000Y-63026000D01*
X149713000Y-95631000D02*
G75*
G03*
X149713000Y-95631000I-1250000J0D01*
G01*
X85818000Y-83271000D02*
X87918000Y-83271000D01*
X87918000Y-83271000D02*
X87918000Y-87671000D01*
X87918000Y-87671000D02*
X85818000Y-87671000D01*
X85818000Y-87671000D02*
X85818000Y-83271000D01*
X196301000Y-117763000D02*
X200701000Y-117763000D01*
X200701000Y-117763000D02*
X200701000Y-115663000D01*
X200701000Y-115663000D02*
X196301000Y-115663000D01*
X196301000Y-115663000D02*
X196301000Y-117763000D01*
X174892700Y-126653000D02*
X179292700Y-126653000D01*
X179292700Y-126653000D02*
X179292700Y-124553000D01*
X179292700Y-124553000D02*
X174892700Y-124553000D01*
X174892700Y-124553000D02*
X174892700Y-126653000D01*
X170468000Y-68113000D02*
X168368000Y-68113000D01*
X168368000Y-68113000D02*
X168368000Y-63713000D01*
X168368000Y-63713000D02*
X170468000Y-63713000D01*
X170468000Y-63713000D02*
X170468000Y-68113000D01*
X222411000Y-89068000D02*
X220311000Y-89068000D01*
X220311000Y-89068000D02*
X220311000Y-84668000D01*
X220311000Y-84668000D02*
X222411000Y-84668000D01*
X222411000Y-84668000D02*
X222411000Y-89068000D01*
X132034600Y-79324200D02*
G75*
G03*
X132034600Y-79324200I-1250000J0D01*
G01*
X146538000Y-96901000D02*
G75*
G03*
X146538000Y-96901000I-1250000J0D01*
G01*
X157079000Y-89281000D02*
G75*
G03*
X157079000Y-89281000I-1250000J0D01*
G01*
X222538000Y-73849500D02*
X220438000Y-73849500D01*
X220438000Y-73849500D02*
X220438000Y-69449500D01*
X220438000Y-69449500D02*
X222538000Y-69449500D01*
X222538000Y-69449500D02*
X222538000Y-73849500D01*
X191475000Y-71408000D02*
X195875000Y-71408000D01*
X195875000Y-71408000D02*
X195875000Y-69308000D01*
X195875000Y-69308000D02*
X191475000Y-69308000D01*
X191475000Y-69308000D02*
X191475000Y-71408000D01*
X226348000Y-81051000D02*
X224248000Y-81051000D01*
X224248000Y-81051000D02*
X224248000Y-76651000D01*
X224248000Y-76651000D02*
X226348000Y-76651000D01*
X226348000Y-76651000D02*
X226348000Y-81051000D01*
X195748000Y-59529000D02*
X191348000Y-59529000D01*
X191348000Y-59529000D02*
X191348000Y-61629000D01*
X191348000Y-61629000D02*
X195748000Y-61629000D01*
X195748000Y-61629000D02*
X195748000Y-59529000D01*
X92415000Y-62264000D02*
X96815000Y-62264000D01*
X96815000Y-62264000D02*
X96815000Y-60164000D01*
X96815000Y-60164000D02*
X92415000Y-60164000D01*
X92415000Y-60164000D02*
X92415000Y-62264000D01*
X215248200Y-74488400D02*
X213148200Y-74488400D01*
X213148200Y-74488400D02*
X213148200Y-70088400D01*
X213148200Y-70088400D02*
X215248200Y-70088400D01*
X215248200Y-70088400D02*
X215248200Y-74488400D01*
X222411000Y-96053000D02*
X220311000Y-96053000D01*
X220311000Y-96053000D02*
X220311000Y-91653000D01*
X220311000Y-91653000D02*
X222411000Y-91653000D01*
X222411000Y-91653000D02*
X222411000Y-96053000D01*
%LPC*%
D13*
X231990539Y-107721400D02*
G75*
G03*
X231990539Y-107721400I-1383939J0D01*
G01*
G36*
X231105200Y-48285400D02*
G01*
X232105200Y-48285400D01*
X232105200Y-134696200D01*
X231105200Y-134696200D01*
X231105200Y-48285400D01*
G37*
D10*
X225145600Y-132435600D02*
X227914200Y-132435600D01*
X227914200Y-135255000D01*
X225145600Y-135255000D01*
X225145600Y-132435600D01*
G36*
X225145600Y-132435600D02*
G01*
X227914200Y-132435600D01*
X227914200Y-135255000D01*
X225145600Y-135255000D01*
X225145600Y-132435600D01*
G37*
G36*
X46202600Y-135728200D02*
G01*
X234086400Y-135728200D01*
X234086400Y-136702800D01*
X46202600Y-136702800D01*
X46202600Y-135728200D01*
G37*
G36*
X48234600Y-48742600D02*
G01*
X49242600Y-48742600D01*
X49242600Y-132816600D01*
X48234600Y-132816600D01*
X48234600Y-48742600D01*
G37*
G36*
X46202600Y-47091600D02*
G01*
X47202600Y-47091600D01*
X47202600Y-136702800D01*
X46202600Y-136702800D01*
X46202600Y-47091600D01*
G37*
G36*
X173202600Y-48285400D02*
G01*
X232105200Y-48285400D01*
X232105200Y-49269400D01*
X173202600Y-49269400D01*
X173202600Y-48285400D01*
G37*
G36*
X50749200Y-133696200D02*
G01*
X224561400Y-133696200D01*
X224561400Y-134696200D01*
X50749200Y-134696200D01*
X50749200Y-133696200D01*
G37*
G36*
X46202600Y-46253400D02*
G01*
X68097400Y-46253400D01*
X68097400Y-47253400D01*
X46202600Y-47253400D01*
X46202600Y-46253400D01*
G37*
G36*
X173202600Y-46278800D02*
G01*
X234086400Y-46278800D01*
X234086400Y-47261400D01*
X173202600Y-47261400D01*
X173202600Y-46278800D01*
G37*
X51714400Y-51231800D02*
X54483000Y-51231800D01*
X54483000Y-54051200D01*
X51714400Y-54051200D01*
X51714400Y-51231800D01*
G36*
X51714400Y-51231800D02*
G01*
X54483000Y-51231800D01*
X54483000Y-54051200D01*
X51714400Y-54051200D01*
X51714400Y-51231800D01*
G37*
G36*
X228473000Y-133696200D02*
G01*
X232105200Y-133696200D01*
X232105200Y-134696200D01*
X228473000Y-134696200D01*
X228473000Y-133696200D01*
G37*
G36*
X233086400Y-46278800D02*
G01*
X234086400Y-46278800D01*
X234086400Y-136702800D01*
X233086400Y-136702800D01*
X233086400Y-46278800D01*
G37*
G36*
X48234600Y-48242600D02*
G01*
X68148200Y-48242600D01*
X68148200Y-49242600D01*
X48234600Y-49242600D01*
X48234600Y-48242600D01*
G37*
D14*
X187833000Y-77978000D03*
D15*
X203073000Y-77978000D03*
X203073000Y-70358000D03*
X187833000Y-70358000D03*
D16*
X211963000Y-121158000D03*
D17*
X209423000Y-119888000D03*
X211963000Y-118618000D03*
X209423000Y-117348000D03*
X211963000Y-116078000D03*
X209423000Y-114808000D03*
X211963000Y-113538000D03*
X209423000Y-112268000D03*
X211963000Y-110998000D03*
X209423000Y-109728000D03*
X211963000Y-108458000D03*
X209423000Y-107188000D03*
X211963000Y-105918000D03*
X209423000Y-104648000D03*
X211963000Y-103378000D03*
X209423000Y-102108000D03*
X211963000Y-100838000D03*
X209423000Y-99568000D03*
X211963000Y-98298000D03*
X209423000Y-97028000D03*
X211963000Y-95758000D03*
X209423000Y-94488000D03*
X211963000Y-93218000D03*
X209423000Y-91948000D03*
X211963000Y-90678000D03*
X209423000Y-89408000D03*
X211963000Y-88138000D03*
X209423000Y-86868000D03*
X211963000Y-85598000D03*
X209423000Y-84328000D03*
X211963000Y-83058000D03*
X209423000Y-81788000D03*
X211963000Y-80518000D03*
X209423000Y-79248000D03*
X211963000Y-77978000D03*
X209423000Y-76708000D03*
X211963000Y-75438000D03*
X209423000Y-74168000D03*
X211963000Y-72898000D03*
X209423000Y-71628000D03*
D15*
X175848000Y-80441800D03*
X180848000Y-80441800D03*
X163195000Y-118618000D03*
X158195000Y-118618000D03*
D18*
X108758000Y-128651000D03*
D19*
X110008000Y-126111000D03*
X111258000Y-128651000D03*
X112508000Y-126111000D03*
X113758000Y-128651000D03*
X115008000Y-126111000D03*
X116258000Y-128651000D03*
X117508000Y-126111000D03*
X118758000Y-128651000D03*
X120008000Y-126111000D03*
X121258000Y-128651000D03*
X122508000Y-126111000D03*
X123758000Y-128651000D03*
X125008000Y-126111000D03*
X126258000Y-128651000D03*
X127508000Y-126111000D03*
X128758000Y-128651000D03*
X130008000Y-126111000D03*
X131258000Y-128651000D03*
X132508000Y-126111000D03*
X133758000Y-128651000D03*
X135008000Y-126111000D03*
X136258000Y-128651000D03*
X137508000Y-126111000D03*
X138758000Y-128651000D03*
D20*
X119380000Y-114757200D03*
D21*
X120650000Y-112217200D03*
X121920000Y-114757200D03*
X123190000Y-112217200D03*
X124460000Y-114757200D03*
X125730000Y-112217200D03*
X127000000Y-114757200D03*
X128270000Y-112217200D03*
X129540000Y-114757200D03*
X130810000Y-112217200D03*
X132080000Y-114757200D03*
X133350000Y-112217200D03*
X134620000Y-114757200D03*
X135890000Y-112217200D03*
X137160000Y-114757200D03*
X138430000Y-112217200D03*
X139700000Y-114757200D03*
X140970000Y-112217200D03*
X142240000Y-114757200D03*
X143510000Y-112217200D03*
D15*
X55245000Y-81026000D03*
X55245000Y-86026000D03*
D22*
X56642000Y-125980200D03*
X56642000Y-120980200D03*
D23*
X225628200Y-84861400D03*
X225628200Y-87401400D03*
D16*
X218948000Y-121158000D03*
D17*
X216408000Y-119888000D03*
X218948000Y-118618000D03*
X216408000Y-117348000D03*
X218948000Y-116078000D03*
X216408000Y-114808000D03*
X218948000Y-113538000D03*
X216408000Y-112268000D03*
X218948000Y-110998000D03*
X216408000Y-109728000D03*
X218948000Y-108458000D03*
X216408000Y-107188000D03*
X218948000Y-105918000D03*
X216408000Y-104648000D03*
X218948000Y-103378000D03*
X216408000Y-102108000D03*
X218948000Y-100838000D03*
X216408000Y-99568000D03*
X218948000Y-98298000D03*
X216408000Y-97028000D03*
X218948000Y-95758000D03*
X216408000Y-94488000D03*
X218948000Y-93218000D03*
X216408000Y-91948000D03*
X218948000Y-90678000D03*
X216408000Y-89408000D03*
X218948000Y-88138000D03*
X216408000Y-86868000D03*
X218948000Y-85598000D03*
X216408000Y-84328000D03*
X218948000Y-83058000D03*
X216408000Y-81788000D03*
X218948000Y-80518000D03*
X216408000Y-79248000D03*
X218948000Y-77978000D03*
X216408000Y-76708000D03*
X218948000Y-75438000D03*
X216408000Y-74168000D03*
X218948000Y-72898000D03*
X216408000Y-71628000D03*
D24*
X57150000Y-91279000D03*
D25*
X59690000Y-92529000D03*
X57150000Y-93779000D03*
X59690000Y-95029000D03*
X57150000Y-96279000D03*
X59690000Y-97529000D03*
X57150000Y-98779000D03*
X59690000Y-100029000D03*
X57150000Y-101279000D03*
X59690000Y-102529000D03*
X57150000Y-103779000D03*
X59690000Y-105029000D03*
X57150000Y-106279000D03*
X59690000Y-107529000D03*
X57150000Y-108779000D03*
X59690000Y-110029000D03*
X57150000Y-111279000D03*
X59690000Y-112529000D03*
X57150000Y-113779000D03*
X59690000Y-115029000D03*
X57150000Y-116279000D03*
D15*
X169418000Y-60198000D03*
X164418000Y-60198000D03*
D26*
X202565000Y-53721000D03*
X202565000Y-63881000D03*
X217805000Y-58801000D03*
X220345000Y-58801000D03*
D20*
X119380000Y-119888000D03*
D21*
X120650000Y-117348000D03*
X121920000Y-119888000D03*
X123190000Y-117348000D03*
X124460000Y-119888000D03*
X125730000Y-117348000D03*
X127000000Y-119888000D03*
X128270000Y-117348000D03*
X129540000Y-119888000D03*
X130810000Y-117348000D03*
X132080000Y-119888000D03*
X133350000Y-117348000D03*
X134620000Y-119888000D03*
X135890000Y-117348000D03*
X137160000Y-119888000D03*
X138430000Y-117348000D03*
X139700000Y-119888000D03*
X140970000Y-117348000D03*
X142240000Y-119888000D03*
X143510000Y-117348000D03*
D27*
X157480000Y-50800000D03*
X154940000Y-50800000D03*
X152400000Y-50800000D03*
X149860000Y-50800000D03*
X147320000Y-50800000D03*
X144780000Y-50800000D03*
X142240000Y-50800000D03*
X139700000Y-50800000D03*
X137160000Y-50800000D03*
X134620000Y-50800000D03*
X132080000Y-50800000D03*
X129540000Y-50800000D03*
X127000000Y-50800000D03*
X124460000Y-50800000D03*
X121920000Y-50800000D03*
X119380000Y-50800000D03*
X116840000Y-50800000D03*
X114300000Y-50800000D03*
X111760000Y-50800000D03*
X109220000Y-50800000D03*
X106680000Y-50800000D03*
X104140000Y-50800000D03*
X101600000Y-50800000D03*
X99060000Y-50800000D03*
X96520000Y-50800000D03*
X93980000Y-50800000D03*
X91440000Y-50800000D03*
X88900000Y-50800000D03*
X86360000Y-50800000D03*
X83820000Y-50800000D03*
D20*
X119380000Y-109601000D03*
D21*
X120650000Y-107061000D03*
X121920000Y-109601000D03*
X123190000Y-107061000D03*
X124460000Y-109601000D03*
X125730000Y-107061000D03*
X127000000Y-109601000D03*
X128270000Y-107061000D03*
X129540000Y-109601000D03*
X130810000Y-107061000D03*
X132080000Y-109601000D03*
X133350000Y-107061000D03*
X134620000Y-109601000D03*
X135890000Y-107061000D03*
X137160000Y-109601000D03*
X138430000Y-107061000D03*
X139700000Y-109601000D03*
X140970000Y-107061000D03*
X142240000Y-109601000D03*
X143510000Y-107061000D03*
D28*
X190343800Y-128016000D03*
X185343800Y-128016000D03*
D20*
X148590000Y-128651000D03*
D21*
X149860000Y-126111000D03*
X151130000Y-128651000D03*
X152400000Y-126111000D03*
X153670000Y-128651000D03*
X154940000Y-126111000D03*
X156210000Y-128651000D03*
X157480000Y-126111000D03*
X158750000Y-128651000D03*
X160020000Y-126111000D03*
X161290000Y-128651000D03*
X162560000Y-126111000D03*
X163830000Y-128651000D03*
X165100000Y-126111000D03*
X166370000Y-128651000D03*
X167640000Y-126111000D03*
X168910000Y-128651000D03*
X170180000Y-126111000D03*
X171450000Y-128651000D03*
X172720000Y-126111000D03*
D23*
X225628200Y-127838200D03*
X225628200Y-130378200D03*
D15*
X205613000Y-94314000D03*
X205613000Y-99314000D03*
D14*
X104140000Y-72644000D03*
D23*
X106680000Y-72644000D03*
X109220000Y-72644000D03*
X111760000Y-72644000D03*
X114300000Y-72644000D03*
X116840000Y-72644000D03*
X119380000Y-72644000D03*
X121920000Y-72644000D03*
X124460000Y-72644000D03*
X127000000Y-72644000D03*
X129540000Y-72644000D03*
X132080000Y-72644000D03*
X134620000Y-72644000D03*
X137160000Y-72644000D03*
X139700000Y-72644000D03*
X142240000Y-72644000D03*
X144780000Y-72644000D03*
X147320000Y-72644000D03*
X149860000Y-72644000D03*
X152400000Y-72644000D03*
X152400000Y-57404000D03*
X149860000Y-57404000D03*
X147320000Y-57404000D03*
X144780000Y-57404000D03*
X142240000Y-57404000D03*
X139700000Y-57404000D03*
X137160000Y-57404000D03*
X134620000Y-57404000D03*
X132080000Y-57404000D03*
X129540000Y-57404000D03*
X127000000Y-57404000D03*
X124460000Y-57404000D03*
X121920000Y-57404000D03*
X119380000Y-57404000D03*
X116840000Y-57404000D03*
X114300000Y-57404000D03*
X111760000Y-57404000D03*
X109220000Y-57404000D03*
X106680000Y-57404000D03*
X104140000Y-57404000D03*
D29*
X112268000Y-111633000D03*
X112268000Y-113919000D03*
D30*
X109220000Y-70485000D03*
X109220000Y-68199000D03*
X225806000Y-124968000D03*
X225806000Y-122682000D03*
X59055000Y-78994000D03*
X59055000Y-76708000D03*
D29*
X64008000Y-112141000D03*
X64008000Y-114427000D03*
D30*
X145796000Y-118110000D03*
X145796000Y-115824000D03*
D31*
X135966200Y-77241400D03*
X164515800Y-86791800D03*
D32*
X147447000Y-107823000D03*
X149733000Y-107823000D03*
X197485000Y-89408000D03*
X199771000Y-89408000D03*
D29*
X214198200Y-85775800D03*
X214198200Y-88061800D03*
D32*
X175949700Y-127762000D03*
X178235700Y-127762000D03*
D31*
X141478000Y-97536000D03*
X112649000Y-75311000D03*
D30*
X67945000Y-80899000D03*
X67945000Y-78613000D03*
X214198200Y-93091000D03*
X214198200Y-90805000D03*
D29*
X211963000Y-66040000D03*
X211963000Y-68326000D03*
D33*
X173355000Y-111887000D03*
X173355000Y-113157000D03*
X173355000Y-114427000D03*
X173355000Y-115697000D03*
X173355000Y-116967000D03*
X173355000Y-118237000D03*
X173355000Y-119507000D03*
X173355000Y-120777000D03*
X173355000Y-122047000D03*
X173355000Y-123317000D03*
X165989000Y-123317000D03*
X165989000Y-122047000D03*
X165989000Y-120777000D03*
X165989000Y-119507000D03*
X165989000Y-118237000D03*
X165989000Y-116967000D03*
X165989000Y-115697000D03*
X165989000Y-114427000D03*
X165989000Y-113157000D03*
X165989000Y-111887000D03*
D31*
X154178000Y-91567000D03*
D34*
X144399000Y-135128000D03*
D29*
X101473000Y-57658000D03*
X101473000Y-59944000D03*
D31*
X197993000Y-62230000D03*
D35*
X194691000Y-56388000D03*
X192405000Y-56388000D03*
D32*
X133985000Y-102870000D03*
X136271000Y-102870000D03*
D31*
X103911400Y-69875400D03*
D29*
X137668000Y-94488000D03*
X137668000Y-96774000D03*
D34*
X163957000Y-63500000D03*
D30*
X150241000Y-118110000D03*
X150241000Y-115824000D03*
D29*
X87376000Y-110871000D03*
X87376000Y-113157000D03*
D30*
X199771000Y-87122000D03*
X199771000Y-84836000D03*
X148005800Y-118110000D03*
X148005800Y-115824000D03*
D32*
X147447000Y-109982000D03*
X149733000Y-109982000D03*
D29*
X113538000Y-119253000D03*
X113538000Y-121539000D03*
X64008000Y-98806000D03*
X64008000Y-101092000D03*
D32*
X197358000Y-114173000D03*
X199644000Y-114173000D03*
D29*
X90043000Y-110871000D03*
X90043000Y-113157000D03*
X114681000Y-111633000D03*
X114681000Y-113919000D03*
X215163400Y-66040000D03*
X215163400Y-68326000D03*
X110998000Y-119253000D03*
X110998000Y-121539000D03*
D32*
X130810000Y-88646000D03*
X133096000Y-88646000D03*
X166497000Y-109728000D03*
X168783000Y-109728000D03*
X147447000Y-112141000D03*
X149733000Y-112141000D03*
D31*
X160655000Y-86791800D03*
D32*
X68834000Y-61976000D03*
X71120000Y-61976000D03*
D31*
X148463000Y-95631000D03*
D29*
X86868000Y-84328000D03*
X86868000Y-86614000D03*
D32*
X197358000Y-116713000D03*
X199644000Y-116713000D03*
X175949700Y-125603000D03*
X178235700Y-125603000D03*
D30*
X169418000Y-67056000D03*
X169418000Y-64770000D03*
X221361000Y-88011000D03*
X221361000Y-85725000D03*
D31*
X130784600Y-79324200D03*
X145288000Y-96901000D03*
X155829000Y-89281000D03*
D30*
X221488000Y-72792500D03*
X221488000Y-70506500D03*
D32*
X192532000Y-70358000D03*
X194818000Y-70358000D03*
D30*
X225298000Y-79994000D03*
X225298000Y-77708000D03*
D35*
X194691000Y-60579000D03*
X192405000Y-60579000D03*
D32*
X93472000Y-61214000D03*
X95758000Y-61214000D03*
D30*
X214198200Y-73431400D03*
X214198200Y-71145400D03*
X221361000Y-94996000D03*
X221361000Y-92710000D03*
%LPD*%
M02*
