G04 #@! TF.GenerationSoftware,KiCad,Pcbnew,7.0.2-0*
G04 #@! TF.CreationDate,2023-08-03T14:28:36+02:00*
G04 #@! TF.ProjectId,MegaCD,4d656761-4344-42e6-9b69-6361645f7063,rev?*
G04 #@! TF.SameCoordinates,Original*
G04 #@! TF.FileFunction,Legend,Bot*
G04 #@! TF.FilePolarity,Positive*
%FSLAX46Y46*%
G04 Gerber Fmt 4.6, Leading zero omitted, Abs format (unit mm)*
G04 Created by KiCad (PCBNEW 7.0.2-0) date 2023-08-03 14:28:36*
%MOMM*%
%LPD*%
G01*
G04 APERTURE LIST*
G04 Aperture macros list*
%AMRoundRect*
0 Rectangle with rounded corners*
0 $1 Rounding radius*
0 $2 $3 $4 $5 $6 $7 $8 $9 X,Y pos of 4 corners*
0 Add a 4 corners polygon primitive as box body*
4,1,4,$2,$3,$4,$5,$6,$7,$8,$9,$2,$3,0*
0 Add four circle primitives for the rounded corners*
1,1,$1+$1,$2,$3*
1,1,$1+$1,$4,$5*
1,1,$1+$1,$6,$7*
1,1,$1+$1,$8,$9*
0 Add four rect primitives between the rounded corners*
20,1,$1+$1,$2,$3,$4,$5,0*
20,1,$1+$1,$4,$5,$6,$7,0*
20,1,$1+$1,$6,$7,$8,$9,0*
20,1,$1+$1,$8,$9,$2,$3,0*%
G04 Aperture macros list end*
%ADD10C,0.150000*%
%ADD11C,0.100000*%
%ADD12C,0.409210*%
%ADD13C,2.767879*%
%ADD14RoundRect,0.255319X-0.394681X-0.344681X0.394681X-0.344681X0.394681X0.344681X-0.394681X0.344681X0*%
%ADD15RoundRect,0.255319X0.344681X-0.394681X0.344681X0.394681X-0.344681X0.394681X-0.344681X-0.394681X0*%
%ADD16RoundRect,0.255319X-0.344681X0.394681X-0.344681X-0.394681X0.344681X-0.394681X0.344681X0.394681X0*%
%ADD17RoundRect,0.255319X0.394681X0.344681X-0.394681X0.344681X-0.394681X-0.344681X0.394681X-0.344681X0*%
%ADD18R,1.600000X1.600000*%
%ADD19C,1.600000*%
%ADD20R,1.400000X1.400000*%
%ADD21O,1.400000X1.400000*%
%ADD22R,1.600000X1.200000*%
%ADD23RoundRect,0.300000X0.500000X-0.300000X0.500000X0.300000X-0.500000X0.300000X-0.500000X-0.300000X0*%
%ADD24R,1.400000X1.300000*%
%ADD25RoundRect,0.325000X0.375000X-0.325000X0.375000X0.325000X-0.375000X0.325000X-0.375000X-0.325000X0*%
%ADD26RoundRect,0.375000X-0.375000X0.375000X-0.375000X-0.375000X0.375000X-0.375000X0.375000X0.375000X0*%
%ADD27RoundRect,0.375000X0.375000X-0.375000X0.375000X0.375000X-0.375000X0.375000X-0.375000X-0.375000X0*%
%ADD28R,1.400000X1.600000*%
%ADD29RoundRect,0.350000X-0.350000X-0.450000X0.350000X-0.450000X0.350000X0.450000X-0.350000X0.450000X0*%
%ADD30O,2.000000X2.000000*%
%ADD31R,1.778000X8.000000*%
%ADD32RoundRect,0.375000X-0.375000X-0.375000X0.375000X-0.375000X0.375000X0.375000X-0.375000X0.375000X0*%
%ADD33C,1.500000*%
%ADD34RoundRect,0.150000X0.875000X0.150000X-0.875000X0.150000X-0.875000X-0.150000X0.875000X-0.150000X0*%
%ADD35RoundRect,0.500000X2.000000X0.500000X-2.000000X0.500000X-2.000000X-0.500000X2.000000X-0.500000X0*%
G04 APERTURE END LIST*
D10*
X227223780Y-86795076D02*
X227699971Y-87128409D01*
X227223780Y-87366504D02*
X228223780Y-87366504D01*
X228223780Y-87366504D02*
X228223780Y-86985552D01*
X228223780Y-86985552D02*
X228176161Y-86890314D01*
X228176161Y-86890314D02*
X228128542Y-86842695D01*
X228128542Y-86842695D02*
X228033304Y-86795076D01*
X228033304Y-86795076D02*
X227890447Y-86795076D01*
X227890447Y-86795076D02*
X227795209Y-86842695D01*
X227795209Y-86842695D02*
X227747590Y-86890314D01*
X227747590Y-86890314D02*
X227699971Y-86985552D01*
X227699971Y-86985552D02*
X227699971Y-87366504D01*
X227747590Y-86366504D02*
X227747590Y-86033171D01*
X227223780Y-85890314D02*
X227223780Y-86366504D01*
X227223780Y-86366504D02*
X228223780Y-86366504D01*
X228223780Y-86366504D02*
X228223780Y-85890314D01*
X227223780Y-85461742D02*
X228223780Y-85461742D01*
X228223780Y-85461742D02*
X228223780Y-85223647D01*
X228223780Y-85223647D02*
X228176161Y-85080790D01*
X228176161Y-85080790D02*
X228080923Y-84985552D01*
X228080923Y-84985552D02*
X227985685Y-84937933D01*
X227985685Y-84937933D02*
X227795209Y-84890314D01*
X227795209Y-84890314D02*
X227652352Y-84890314D01*
X227652352Y-84890314D02*
X227461876Y-84937933D01*
X227461876Y-84937933D02*
X227366638Y-84985552D01*
X227366638Y-84985552D02*
X227271400Y-85080790D01*
X227271400Y-85080790D02*
X227223780Y-85223647D01*
X227223780Y-85223647D02*
X227223780Y-85461742D01*
X228176161Y-130835495D02*
X228223780Y-130930733D01*
X228223780Y-130930733D02*
X228223780Y-131073590D01*
X228223780Y-131073590D02*
X228176161Y-131216447D01*
X228176161Y-131216447D02*
X228080923Y-131311685D01*
X228080923Y-131311685D02*
X227985685Y-131359304D01*
X227985685Y-131359304D02*
X227795209Y-131406923D01*
X227795209Y-131406923D02*
X227652352Y-131406923D01*
X227652352Y-131406923D02*
X227461876Y-131359304D01*
X227461876Y-131359304D02*
X227366638Y-131311685D01*
X227366638Y-131311685D02*
X227271400Y-131216447D01*
X227271400Y-131216447D02*
X227223780Y-131073590D01*
X227223780Y-131073590D02*
X227223780Y-130978352D01*
X227223780Y-130978352D02*
X227271400Y-130835495D01*
X227271400Y-130835495D02*
X227319019Y-130787876D01*
X227319019Y-130787876D02*
X227652352Y-130787876D01*
X227652352Y-130787876D02*
X227652352Y-130978352D01*
X227223780Y-129787876D02*
X227699971Y-130121209D01*
X227223780Y-130359304D02*
X228223780Y-130359304D01*
X228223780Y-130359304D02*
X228223780Y-129978352D01*
X228223780Y-129978352D02*
X228176161Y-129883114D01*
X228176161Y-129883114D02*
X228128542Y-129835495D01*
X228128542Y-129835495D02*
X228033304Y-129787876D01*
X228033304Y-129787876D02*
X227890447Y-129787876D01*
X227890447Y-129787876D02*
X227795209Y-129835495D01*
X227795209Y-129835495D02*
X227747590Y-129883114D01*
X227747590Y-129883114D02*
X227699971Y-129978352D01*
X227699971Y-129978352D02*
X227699971Y-130359304D01*
X227747590Y-129359304D02*
X227747590Y-129025971D01*
X227223780Y-128883114D02*
X227223780Y-129359304D01*
X227223780Y-129359304D02*
X228223780Y-129359304D01*
X228223780Y-129359304D02*
X228223780Y-128883114D01*
X227747590Y-128454542D02*
X227747590Y-128121209D01*
X227223780Y-127978352D02*
X227223780Y-128454542D01*
X227223780Y-128454542D02*
X228223780Y-128454542D01*
X228223780Y-128454542D02*
X228223780Y-127978352D01*
X227223780Y-127549780D02*
X228223780Y-127549780D01*
X228223780Y-127549780D02*
X227223780Y-126978352D01*
X227223780Y-126978352D02*
X228223780Y-126978352D01*
X198667666Y-119309219D02*
X199000999Y-118833028D01*
X199239094Y-119309219D02*
X199239094Y-118309219D01*
X199239094Y-118309219D02*
X198858142Y-118309219D01*
X198858142Y-118309219D02*
X198762904Y-118356838D01*
X198762904Y-118356838D02*
X198715285Y-118404457D01*
X198715285Y-118404457D02*
X198667666Y-118499695D01*
X198667666Y-118499695D02*
X198667666Y-118642552D01*
X198667666Y-118642552D02*
X198715285Y-118737790D01*
X198715285Y-118737790D02*
X198762904Y-118785409D01*
X198762904Y-118785409D02*
X198858142Y-118833028D01*
X198858142Y-118833028D02*
X199239094Y-118833028D01*
X198334332Y-118309219D02*
X197667666Y-118309219D01*
X197667666Y-118309219D02*
X198096237Y-119309219D01*
X198870866Y-112654419D02*
X199204199Y-112178228D01*
X199442294Y-112654419D02*
X199442294Y-111654419D01*
X199442294Y-111654419D02*
X199061342Y-111654419D01*
X199061342Y-111654419D02*
X198966104Y-111702038D01*
X198966104Y-111702038D02*
X198918485Y-111749657D01*
X198918485Y-111749657D02*
X198870866Y-111844895D01*
X198870866Y-111844895D02*
X198870866Y-111987752D01*
X198870866Y-111987752D02*
X198918485Y-112082990D01*
X198918485Y-112082990D02*
X198966104Y-112130609D01*
X198966104Y-112130609D02*
X199061342Y-112178228D01*
X199061342Y-112178228D02*
X199442294Y-112178228D01*
X198013723Y-111654419D02*
X198204199Y-111654419D01*
X198204199Y-111654419D02*
X198299437Y-111702038D01*
X198299437Y-111702038D02*
X198347056Y-111749657D01*
X198347056Y-111749657D02*
X198442294Y-111892514D01*
X198442294Y-111892514D02*
X198489913Y-112082990D01*
X198489913Y-112082990D02*
X198489913Y-112463942D01*
X198489913Y-112463942D02*
X198442294Y-112559180D01*
X198442294Y-112559180D02*
X198394675Y-112606800D01*
X198394675Y-112606800D02*
X198299437Y-112654419D01*
X198299437Y-112654419D02*
X198108961Y-112654419D01*
X198108961Y-112654419D02*
X198013723Y-112606800D01*
X198013723Y-112606800D02*
X197966104Y-112559180D01*
X197966104Y-112559180D02*
X197918485Y-112463942D01*
X197918485Y-112463942D02*
X197918485Y-112225847D01*
X197918485Y-112225847D02*
X197966104Y-112130609D01*
X197966104Y-112130609D02*
X198013723Y-112082990D01*
X198013723Y-112082990D02*
X198108961Y-112035371D01*
X198108961Y-112035371D02*
X198299437Y-112035371D01*
X198299437Y-112035371D02*
X198394675Y-112082990D01*
X198394675Y-112082990D02*
X198442294Y-112130609D01*
X198442294Y-112130609D02*
X198489913Y-112225847D01*
X225769466Y-120909419D02*
X226102799Y-120433228D01*
X226340894Y-120909419D02*
X226340894Y-119909419D01*
X226340894Y-119909419D02*
X225959942Y-119909419D01*
X225959942Y-119909419D02*
X225864704Y-119957038D01*
X225864704Y-119957038D02*
X225817085Y-120004657D01*
X225817085Y-120004657D02*
X225769466Y-120099895D01*
X225769466Y-120099895D02*
X225769466Y-120242752D01*
X225769466Y-120242752D02*
X225817085Y-120337990D01*
X225817085Y-120337990D02*
X225864704Y-120385609D01*
X225864704Y-120385609D02*
X225959942Y-120433228D01*
X225959942Y-120433228D02*
X226340894Y-120433228D01*
X224864704Y-119909419D02*
X225340894Y-119909419D01*
X225340894Y-119909419D02*
X225388513Y-120385609D01*
X225388513Y-120385609D02*
X225340894Y-120337990D01*
X225340894Y-120337990D02*
X225245656Y-120290371D01*
X225245656Y-120290371D02*
X225007561Y-120290371D01*
X225007561Y-120290371D02*
X224912323Y-120337990D01*
X224912323Y-120337990D02*
X224864704Y-120385609D01*
X224864704Y-120385609D02*
X224817085Y-120480847D01*
X224817085Y-120480847D02*
X224817085Y-120718942D01*
X224817085Y-120718942D02*
X224864704Y-120814180D01*
X224864704Y-120814180D02*
X224912323Y-120861800D01*
X224912323Y-120861800D02*
X225007561Y-120909419D01*
X225007561Y-120909419D02*
X225245656Y-120909419D01*
X225245656Y-120909419D02*
X225340894Y-120861800D01*
X225340894Y-120861800D02*
X225388513Y-120814180D01*
X226968980Y-80583066D02*
X227445171Y-80916399D01*
X226968980Y-81154494D02*
X227968980Y-81154494D01*
X227968980Y-81154494D02*
X227968980Y-80773542D01*
X227968980Y-80773542D02*
X227921361Y-80678304D01*
X227921361Y-80678304D02*
X227873742Y-80630685D01*
X227873742Y-80630685D02*
X227778504Y-80583066D01*
X227778504Y-80583066D02*
X227635647Y-80583066D01*
X227635647Y-80583066D02*
X227540409Y-80630685D01*
X227540409Y-80630685D02*
X227492790Y-80678304D01*
X227492790Y-80678304D02*
X227445171Y-80773542D01*
X227445171Y-80773542D02*
X227445171Y-81154494D01*
X227635647Y-79725923D02*
X226968980Y-79725923D01*
X228016600Y-79964018D02*
X227302314Y-80202113D01*
X227302314Y-80202113D02*
X227302314Y-79583066D01*
X199607466Y-92004219D02*
X199940799Y-91528028D01*
X200178894Y-92004219D02*
X200178894Y-91004219D01*
X200178894Y-91004219D02*
X199797942Y-91004219D01*
X199797942Y-91004219D02*
X199702704Y-91051838D01*
X199702704Y-91051838D02*
X199655085Y-91099457D01*
X199655085Y-91099457D02*
X199607466Y-91194695D01*
X199607466Y-91194695D02*
X199607466Y-91337552D01*
X199607466Y-91337552D02*
X199655085Y-91432790D01*
X199655085Y-91432790D02*
X199702704Y-91480409D01*
X199702704Y-91480409D02*
X199797942Y-91528028D01*
X199797942Y-91528028D02*
X200178894Y-91528028D01*
X199274132Y-91004219D02*
X198655085Y-91004219D01*
X198655085Y-91004219D02*
X198988418Y-91385171D01*
X198988418Y-91385171D02*
X198845561Y-91385171D01*
X198845561Y-91385171D02*
X198750323Y-91432790D01*
X198750323Y-91432790D02*
X198702704Y-91480409D01*
X198702704Y-91480409D02*
X198655085Y-91575647D01*
X198655085Y-91575647D02*
X198655085Y-91813742D01*
X198655085Y-91813742D02*
X198702704Y-91908980D01*
X198702704Y-91908980D02*
X198750323Y-91956600D01*
X198750323Y-91956600D02*
X198845561Y-92004219D01*
X198845561Y-92004219D02*
X199131275Y-92004219D01*
X199131275Y-92004219D02*
X199226513Y-91956600D01*
X199226513Y-91956600D02*
X199274132Y-91908980D01*
X135091466Y-101300619D02*
X135424799Y-100824428D01*
X135662894Y-101300619D02*
X135662894Y-100300619D01*
X135662894Y-100300619D02*
X135281942Y-100300619D01*
X135281942Y-100300619D02*
X135186704Y-100348238D01*
X135186704Y-100348238D02*
X135139085Y-100395857D01*
X135139085Y-100395857D02*
X135091466Y-100491095D01*
X135091466Y-100491095D02*
X135091466Y-100633952D01*
X135091466Y-100633952D02*
X135139085Y-100729190D01*
X135139085Y-100729190D02*
X135186704Y-100776809D01*
X135186704Y-100776809D02*
X135281942Y-100824428D01*
X135281942Y-100824428D02*
X135662894Y-100824428D01*
X134710513Y-100395857D02*
X134662894Y-100348238D01*
X134662894Y-100348238D02*
X134567656Y-100300619D01*
X134567656Y-100300619D02*
X134329561Y-100300619D01*
X134329561Y-100300619D02*
X134234323Y-100348238D01*
X134234323Y-100348238D02*
X134186704Y-100395857D01*
X134186704Y-100395857D02*
X134139085Y-100491095D01*
X134139085Y-100491095D02*
X134139085Y-100586333D01*
X134139085Y-100586333D02*
X134186704Y-100729190D01*
X134186704Y-100729190D02*
X134758132Y-101300619D01*
X134758132Y-101300619D02*
X134139085Y-101300619D01*
X136818666Y-93020219D02*
X137151999Y-92544028D01*
X137390094Y-93020219D02*
X137390094Y-92020219D01*
X137390094Y-92020219D02*
X137009142Y-92020219D01*
X137009142Y-92020219D02*
X136913904Y-92067838D01*
X136913904Y-92067838D02*
X136866285Y-92115457D01*
X136866285Y-92115457D02*
X136818666Y-92210695D01*
X136818666Y-92210695D02*
X136818666Y-92353552D01*
X136818666Y-92353552D02*
X136866285Y-92448790D01*
X136866285Y-92448790D02*
X136913904Y-92496409D01*
X136913904Y-92496409D02*
X137009142Y-92544028D01*
X137009142Y-92544028D02*
X137390094Y-92544028D01*
X135866285Y-93020219D02*
X136437713Y-93020219D01*
X136151999Y-93020219D02*
X136151999Y-92020219D01*
X136151999Y-92020219D02*
X136247237Y-92163076D01*
X136247237Y-92163076D02*
X136342475Y-92258314D01*
X136342475Y-92258314D02*
X136437713Y-92305933D01*
X111865580Y-70461047D02*
X111865580Y-70937237D01*
X111865580Y-70937237D02*
X111389390Y-70984856D01*
X111389390Y-70984856D02*
X111437009Y-70937237D01*
X111437009Y-70937237D02*
X111484628Y-70841999D01*
X111484628Y-70841999D02*
X111484628Y-70603904D01*
X111484628Y-70603904D02*
X111437009Y-70508666D01*
X111437009Y-70508666D02*
X111389390Y-70461047D01*
X111389390Y-70461047D02*
X111294152Y-70413428D01*
X111294152Y-70413428D02*
X111056057Y-70413428D01*
X111056057Y-70413428D02*
X110960819Y-70461047D01*
X110960819Y-70461047D02*
X110913200Y-70508666D01*
X110913200Y-70508666D02*
X110865580Y-70603904D01*
X110865580Y-70603904D02*
X110865580Y-70841999D01*
X110865580Y-70841999D02*
X110913200Y-70937237D01*
X110913200Y-70937237D02*
X110960819Y-70984856D01*
X110865580Y-69461047D02*
X110865580Y-70032475D01*
X110865580Y-69746761D02*
X111865580Y-69746761D01*
X111865580Y-69746761D02*
X111722723Y-69841999D01*
X111722723Y-69841999D02*
X111627485Y-69937237D01*
X111627485Y-69937237D02*
X111579866Y-70032475D01*
X111532247Y-69032475D02*
X110532247Y-69032475D01*
X111484628Y-69032475D02*
X111532247Y-68937237D01*
X111532247Y-68937237D02*
X111532247Y-68746761D01*
X111532247Y-68746761D02*
X111484628Y-68651523D01*
X111484628Y-68651523D02*
X111437009Y-68603904D01*
X111437009Y-68603904D02*
X111341771Y-68556285D01*
X111341771Y-68556285D02*
X111056057Y-68556285D01*
X111056057Y-68556285D02*
X110960819Y-68603904D01*
X110960819Y-68603904D02*
X110913200Y-68651523D01*
X110913200Y-68651523D02*
X110865580Y-68746761D01*
X110865580Y-68746761D02*
X110865580Y-68937237D01*
X110865580Y-68937237D02*
X110913200Y-69032475D01*
X111389390Y-67794380D02*
X111389390Y-68127713D01*
X110865580Y-68127713D02*
X111865580Y-68127713D01*
X111865580Y-68127713D02*
X111865580Y-67651523D01*
X166809657Y-107910980D02*
X166857276Y-107958600D01*
X166857276Y-107958600D02*
X167000133Y-108006219D01*
X167000133Y-108006219D02*
X167095371Y-108006219D01*
X167095371Y-108006219D02*
X167238228Y-107958600D01*
X167238228Y-107958600D02*
X167333466Y-107863361D01*
X167333466Y-107863361D02*
X167381085Y-107768123D01*
X167381085Y-107768123D02*
X167428704Y-107577647D01*
X167428704Y-107577647D02*
X167428704Y-107434790D01*
X167428704Y-107434790D02*
X167381085Y-107244314D01*
X167381085Y-107244314D02*
X167333466Y-107149076D01*
X167333466Y-107149076D02*
X167238228Y-107053838D01*
X167238228Y-107053838D02*
X167095371Y-107006219D01*
X167095371Y-107006219D02*
X167000133Y-107006219D01*
X167000133Y-107006219D02*
X166857276Y-107053838D01*
X166857276Y-107053838D02*
X166809657Y-107101457D01*
X165904895Y-107006219D02*
X166381085Y-107006219D01*
X166381085Y-107006219D02*
X166428704Y-107482409D01*
X166428704Y-107482409D02*
X166381085Y-107434790D01*
X166381085Y-107434790D02*
X166285847Y-107387171D01*
X166285847Y-107387171D02*
X166047752Y-107387171D01*
X166047752Y-107387171D02*
X165952514Y-107434790D01*
X165952514Y-107434790D02*
X165904895Y-107482409D01*
X165904895Y-107482409D02*
X165857276Y-107577647D01*
X165857276Y-107577647D02*
X165857276Y-107815742D01*
X165857276Y-107815742D02*
X165904895Y-107910980D01*
X165904895Y-107910980D02*
X165952514Y-107958600D01*
X165952514Y-107958600D02*
X166047752Y-108006219D01*
X166047752Y-108006219D02*
X166285847Y-108006219D01*
X166285847Y-108006219D02*
X166381085Y-107958600D01*
X166381085Y-107958600D02*
X166428704Y-107910980D01*
X164904895Y-108006219D02*
X165476323Y-108006219D01*
X165190609Y-108006219D02*
X165190609Y-107006219D01*
X165190609Y-107006219D02*
X165285847Y-107149076D01*
X165285847Y-107149076D02*
X165381085Y-107244314D01*
X165381085Y-107244314D02*
X165476323Y-107291933D01*
X60078857Y-81698180D02*
X60126476Y-81745800D01*
X60126476Y-81745800D02*
X60269333Y-81793419D01*
X60269333Y-81793419D02*
X60364571Y-81793419D01*
X60364571Y-81793419D02*
X60507428Y-81745800D01*
X60507428Y-81745800D02*
X60602666Y-81650561D01*
X60602666Y-81650561D02*
X60650285Y-81555323D01*
X60650285Y-81555323D02*
X60697904Y-81364847D01*
X60697904Y-81364847D02*
X60697904Y-81221990D01*
X60697904Y-81221990D02*
X60650285Y-81031514D01*
X60650285Y-81031514D02*
X60602666Y-80936276D01*
X60602666Y-80936276D02*
X60507428Y-80841038D01*
X60507428Y-80841038D02*
X60364571Y-80793419D01*
X60364571Y-80793419D02*
X60269333Y-80793419D01*
X60269333Y-80793419D02*
X60126476Y-80841038D01*
X60126476Y-80841038D02*
X60078857Y-80888657D01*
X59174095Y-80793419D02*
X59650285Y-80793419D01*
X59650285Y-80793419D02*
X59697904Y-81269609D01*
X59697904Y-81269609D02*
X59650285Y-81221990D01*
X59650285Y-81221990D02*
X59555047Y-81174371D01*
X59555047Y-81174371D02*
X59316952Y-81174371D01*
X59316952Y-81174371D02*
X59221714Y-81221990D01*
X59221714Y-81221990D02*
X59174095Y-81269609D01*
X59174095Y-81269609D02*
X59126476Y-81364847D01*
X59126476Y-81364847D02*
X59126476Y-81602942D01*
X59126476Y-81602942D02*
X59174095Y-81698180D01*
X59174095Y-81698180D02*
X59221714Y-81745800D01*
X59221714Y-81745800D02*
X59316952Y-81793419D01*
X59316952Y-81793419D02*
X59555047Y-81793419D01*
X59555047Y-81793419D02*
X59650285Y-81745800D01*
X59650285Y-81745800D02*
X59697904Y-81698180D01*
X58507428Y-80793419D02*
X58412190Y-80793419D01*
X58412190Y-80793419D02*
X58316952Y-80841038D01*
X58316952Y-80841038D02*
X58269333Y-80888657D01*
X58269333Y-80888657D02*
X58221714Y-80983895D01*
X58221714Y-80983895D02*
X58174095Y-81174371D01*
X58174095Y-81174371D02*
X58174095Y-81412466D01*
X58174095Y-81412466D02*
X58221714Y-81602942D01*
X58221714Y-81602942D02*
X58269333Y-81698180D01*
X58269333Y-81698180D02*
X58316952Y-81745800D01*
X58316952Y-81745800D02*
X58412190Y-81793419D01*
X58412190Y-81793419D02*
X58507428Y-81793419D01*
X58507428Y-81793419D02*
X58602666Y-81745800D01*
X58602666Y-81745800D02*
X58650285Y-81698180D01*
X58650285Y-81698180D02*
X58697904Y-81602942D01*
X58697904Y-81602942D02*
X58745523Y-81412466D01*
X58745523Y-81412466D02*
X58745523Y-81174371D01*
X58745523Y-81174371D02*
X58697904Y-80983895D01*
X58697904Y-80983895D02*
X58650285Y-80888657D01*
X58650285Y-80888657D02*
X58602666Y-80841038D01*
X58602666Y-80841038D02*
X58507428Y-80793419D01*
X95156257Y-59447780D02*
X95203876Y-59495400D01*
X95203876Y-59495400D02*
X95346733Y-59543019D01*
X95346733Y-59543019D02*
X95441971Y-59543019D01*
X95441971Y-59543019D02*
X95584828Y-59495400D01*
X95584828Y-59495400D02*
X95680066Y-59400161D01*
X95680066Y-59400161D02*
X95727685Y-59304923D01*
X95727685Y-59304923D02*
X95775304Y-59114447D01*
X95775304Y-59114447D02*
X95775304Y-58971590D01*
X95775304Y-58971590D02*
X95727685Y-58781114D01*
X95727685Y-58781114D02*
X95680066Y-58685876D01*
X95680066Y-58685876D02*
X95584828Y-58590638D01*
X95584828Y-58590638D02*
X95441971Y-58543019D01*
X95441971Y-58543019D02*
X95346733Y-58543019D01*
X95346733Y-58543019D02*
X95203876Y-58590638D01*
X95203876Y-58590638D02*
X95156257Y-58638257D01*
X94299114Y-58876352D02*
X94299114Y-59543019D01*
X94537209Y-58495400D02*
X94775304Y-59209685D01*
X94775304Y-59209685D02*
X94156257Y-59209685D01*
X93727685Y-59543019D02*
X93537209Y-59543019D01*
X93537209Y-59543019D02*
X93441971Y-59495400D01*
X93441971Y-59495400D02*
X93394352Y-59447780D01*
X93394352Y-59447780D02*
X93299114Y-59304923D01*
X93299114Y-59304923D02*
X93251495Y-59114447D01*
X93251495Y-59114447D02*
X93251495Y-58733495D01*
X93251495Y-58733495D02*
X93299114Y-58638257D01*
X93299114Y-58638257D02*
X93346733Y-58590638D01*
X93346733Y-58590638D02*
X93441971Y-58543019D01*
X93441971Y-58543019D02*
X93632447Y-58543019D01*
X93632447Y-58543019D02*
X93727685Y-58590638D01*
X93727685Y-58590638D02*
X93775304Y-58638257D01*
X93775304Y-58638257D02*
X93822923Y-58733495D01*
X93822923Y-58733495D02*
X93822923Y-58971590D01*
X93822923Y-58971590D02*
X93775304Y-59066828D01*
X93775304Y-59066828D02*
X93727685Y-59114447D01*
X93727685Y-59114447D02*
X93632447Y-59162066D01*
X93632447Y-59162066D02*
X93441971Y-59162066D01*
X93441971Y-59162066D02*
X93346733Y-59114447D01*
X93346733Y-59114447D02*
X93299114Y-59066828D01*
X93299114Y-59066828D02*
X93251495Y-58971590D01*
X91193857Y-109130180D02*
X91241476Y-109177800D01*
X91241476Y-109177800D02*
X91384333Y-109225419D01*
X91384333Y-109225419D02*
X91479571Y-109225419D01*
X91479571Y-109225419D02*
X91622428Y-109177800D01*
X91622428Y-109177800D02*
X91717666Y-109082561D01*
X91717666Y-109082561D02*
X91765285Y-108987323D01*
X91765285Y-108987323D02*
X91812904Y-108796847D01*
X91812904Y-108796847D02*
X91812904Y-108653990D01*
X91812904Y-108653990D02*
X91765285Y-108463514D01*
X91765285Y-108463514D02*
X91717666Y-108368276D01*
X91717666Y-108368276D02*
X91622428Y-108273038D01*
X91622428Y-108273038D02*
X91479571Y-108225419D01*
X91479571Y-108225419D02*
X91384333Y-108225419D01*
X91384333Y-108225419D02*
X91241476Y-108273038D01*
X91241476Y-108273038D02*
X91193857Y-108320657D01*
X90336714Y-108558752D02*
X90336714Y-109225419D01*
X90574809Y-108177800D02*
X90812904Y-108892085D01*
X90812904Y-108892085D02*
X90193857Y-108892085D01*
X89908142Y-108225419D02*
X89241476Y-108225419D01*
X89241476Y-108225419D02*
X89670047Y-109225419D01*
X67775057Y-101484780D02*
X67822676Y-101532400D01*
X67822676Y-101532400D02*
X67965533Y-101580019D01*
X67965533Y-101580019D02*
X68060771Y-101580019D01*
X68060771Y-101580019D02*
X68203628Y-101532400D01*
X68203628Y-101532400D02*
X68298866Y-101437161D01*
X68298866Y-101437161D02*
X68346485Y-101341923D01*
X68346485Y-101341923D02*
X68394104Y-101151447D01*
X68394104Y-101151447D02*
X68394104Y-101008590D01*
X68394104Y-101008590D02*
X68346485Y-100818114D01*
X68346485Y-100818114D02*
X68298866Y-100722876D01*
X68298866Y-100722876D02*
X68203628Y-100627638D01*
X68203628Y-100627638D02*
X68060771Y-100580019D01*
X68060771Y-100580019D02*
X67965533Y-100580019D01*
X67965533Y-100580019D02*
X67822676Y-100627638D01*
X67822676Y-100627638D02*
X67775057Y-100675257D01*
X66917914Y-100913352D02*
X66917914Y-101580019D01*
X67156009Y-100532400D02*
X67394104Y-101246685D01*
X67394104Y-101246685D02*
X66775057Y-101246685D01*
X65917914Y-100580019D02*
X66394104Y-100580019D01*
X66394104Y-100580019D02*
X66441723Y-101056209D01*
X66441723Y-101056209D02*
X66394104Y-101008590D01*
X66394104Y-101008590D02*
X66298866Y-100960971D01*
X66298866Y-100960971D02*
X66060771Y-100960971D01*
X66060771Y-100960971D02*
X65965533Y-101008590D01*
X65965533Y-101008590D02*
X65917914Y-101056209D01*
X65917914Y-101056209D02*
X65870295Y-101151447D01*
X65870295Y-101151447D02*
X65870295Y-101389542D01*
X65870295Y-101389542D02*
X65917914Y-101484780D01*
X65917914Y-101484780D02*
X65965533Y-101532400D01*
X65965533Y-101532400D02*
X66060771Y-101580019D01*
X66060771Y-101580019D02*
X66298866Y-101580019D01*
X66298866Y-101580019D02*
X66394104Y-101532400D01*
X66394104Y-101532400D02*
X66441723Y-101484780D01*
X67571857Y-112025780D02*
X67619476Y-112073400D01*
X67619476Y-112073400D02*
X67762333Y-112121019D01*
X67762333Y-112121019D02*
X67857571Y-112121019D01*
X67857571Y-112121019D02*
X68000428Y-112073400D01*
X68000428Y-112073400D02*
X68095666Y-111978161D01*
X68095666Y-111978161D02*
X68143285Y-111882923D01*
X68143285Y-111882923D02*
X68190904Y-111692447D01*
X68190904Y-111692447D02*
X68190904Y-111549590D01*
X68190904Y-111549590D02*
X68143285Y-111359114D01*
X68143285Y-111359114D02*
X68095666Y-111263876D01*
X68095666Y-111263876D02*
X68000428Y-111168638D01*
X68000428Y-111168638D02*
X67857571Y-111121019D01*
X67857571Y-111121019D02*
X67762333Y-111121019D01*
X67762333Y-111121019D02*
X67619476Y-111168638D01*
X67619476Y-111168638D02*
X67571857Y-111216257D01*
X66714714Y-111454352D02*
X66714714Y-112121019D01*
X66952809Y-111073400D02*
X67190904Y-111787685D01*
X67190904Y-111787685D02*
X66571857Y-111787685D01*
X65762333Y-111454352D02*
X65762333Y-112121019D01*
X66000428Y-111073400D02*
X66238523Y-111787685D01*
X66238523Y-111787685D02*
X65619476Y-111787685D01*
X87764857Y-115810380D02*
X87812476Y-115858000D01*
X87812476Y-115858000D02*
X87955333Y-115905619D01*
X87955333Y-115905619D02*
X88050571Y-115905619D01*
X88050571Y-115905619D02*
X88193428Y-115858000D01*
X88193428Y-115858000D02*
X88288666Y-115762761D01*
X88288666Y-115762761D02*
X88336285Y-115667523D01*
X88336285Y-115667523D02*
X88383904Y-115477047D01*
X88383904Y-115477047D02*
X88383904Y-115334190D01*
X88383904Y-115334190D02*
X88336285Y-115143714D01*
X88336285Y-115143714D02*
X88288666Y-115048476D01*
X88288666Y-115048476D02*
X88193428Y-114953238D01*
X88193428Y-114953238D02*
X88050571Y-114905619D01*
X88050571Y-114905619D02*
X87955333Y-114905619D01*
X87955333Y-114905619D02*
X87812476Y-114953238D01*
X87812476Y-114953238D02*
X87764857Y-115000857D01*
X86907714Y-115238952D02*
X86907714Y-115905619D01*
X87145809Y-114858000D02*
X87383904Y-115572285D01*
X87383904Y-115572285D02*
X86764857Y-115572285D01*
X86479142Y-114905619D02*
X85860095Y-114905619D01*
X85860095Y-114905619D02*
X86193428Y-115286571D01*
X86193428Y-115286571D02*
X86050571Y-115286571D01*
X86050571Y-115286571D02*
X85955333Y-115334190D01*
X85955333Y-115334190D02*
X85907714Y-115381809D01*
X85907714Y-115381809D02*
X85860095Y-115477047D01*
X85860095Y-115477047D02*
X85860095Y-115715142D01*
X85860095Y-115715142D02*
X85907714Y-115810380D01*
X85907714Y-115810380D02*
X85955333Y-115858000D01*
X85955333Y-115858000D02*
X86050571Y-115905619D01*
X86050571Y-115905619D02*
X86336285Y-115905619D01*
X86336285Y-115905619D02*
X86431523Y-115858000D01*
X86431523Y-115858000D02*
X86479142Y-115810380D01*
X68613257Y-77024580D02*
X68660876Y-77072200D01*
X68660876Y-77072200D02*
X68803733Y-77119819D01*
X68803733Y-77119819D02*
X68898971Y-77119819D01*
X68898971Y-77119819D02*
X69041828Y-77072200D01*
X69041828Y-77072200D02*
X69137066Y-76976961D01*
X69137066Y-76976961D02*
X69184685Y-76881723D01*
X69184685Y-76881723D02*
X69232304Y-76691247D01*
X69232304Y-76691247D02*
X69232304Y-76548390D01*
X69232304Y-76548390D02*
X69184685Y-76357914D01*
X69184685Y-76357914D02*
X69137066Y-76262676D01*
X69137066Y-76262676D02*
X69041828Y-76167438D01*
X69041828Y-76167438D02*
X68898971Y-76119819D01*
X68898971Y-76119819D02*
X68803733Y-76119819D01*
X68803733Y-76119819D02*
X68660876Y-76167438D01*
X68660876Y-76167438D02*
X68613257Y-76215057D01*
X67756114Y-76453152D02*
X67756114Y-77119819D01*
X67994209Y-76072200D02*
X68232304Y-76786485D01*
X68232304Y-76786485D02*
X67613257Y-76786485D01*
X67041828Y-76119819D02*
X66946590Y-76119819D01*
X66946590Y-76119819D02*
X66851352Y-76167438D01*
X66851352Y-76167438D02*
X66803733Y-76215057D01*
X66803733Y-76215057D02*
X66756114Y-76310295D01*
X66756114Y-76310295D02*
X66708495Y-76500771D01*
X66708495Y-76500771D02*
X66708495Y-76738866D01*
X66708495Y-76738866D02*
X66756114Y-76929342D01*
X66756114Y-76929342D02*
X66803733Y-77024580D01*
X66803733Y-77024580D02*
X66851352Y-77072200D01*
X66851352Y-77072200D02*
X66946590Y-77119819D01*
X66946590Y-77119819D02*
X67041828Y-77119819D01*
X67041828Y-77119819D02*
X67137066Y-77072200D01*
X67137066Y-77072200D02*
X67184685Y-77024580D01*
X67184685Y-77024580D02*
X67232304Y-76929342D01*
X67232304Y-76929342D02*
X67279923Y-76738866D01*
X67279923Y-76738866D02*
X67279923Y-76500771D01*
X67279923Y-76500771D02*
X67232304Y-76310295D01*
X67232304Y-76310295D02*
X67184685Y-76215057D01*
X67184685Y-76215057D02*
X67137066Y-76167438D01*
X67137066Y-76167438D02*
X67041828Y-76119819D01*
X70619857Y-64451580D02*
X70667476Y-64499200D01*
X70667476Y-64499200D02*
X70810333Y-64546819D01*
X70810333Y-64546819D02*
X70905571Y-64546819D01*
X70905571Y-64546819D02*
X71048428Y-64499200D01*
X71048428Y-64499200D02*
X71143666Y-64403961D01*
X71143666Y-64403961D02*
X71191285Y-64308723D01*
X71191285Y-64308723D02*
X71238904Y-64118247D01*
X71238904Y-64118247D02*
X71238904Y-63975390D01*
X71238904Y-63975390D02*
X71191285Y-63784914D01*
X71191285Y-63784914D02*
X71143666Y-63689676D01*
X71143666Y-63689676D02*
X71048428Y-63594438D01*
X71048428Y-63594438D02*
X70905571Y-63546819D01*
X70905571Y-63546819D02*
X70810333Y-63546819D01*
X70810333Y-63546819D02*
X70667476Y-63594438D01*
X70667476Y-63594438D02*
X70619857Y-63642057D01*
X70286523Y-63546819D02*
X69667476Y-63546819D01*
X69667476Y-63546819D02*
X70000809Y-63927771D01*
X70000809Y-63927771D02*
X69857952Y-63927771D01*
X69857952Y-63927771D02*
X69762714Y-63975390D01*
X69762714Y-63975390D02*
X69715095Y-64023009D01*
X69715095Y-64023009D02*
X69667476Y-64118247D01*
X69667476Y-64118247D02*
X69667476Y-64356342D01*
X69667476Y-64356342D02*
X69715095Y-64451580D01*
X69715095Y-64451580D02*
X69762714Y-64499200D01*
X69762714Y-64499200D02*
X69857952Y-64546819D01*
X69857952Y-64546819D02*
X70143666Y-64546819D01*
X70143666Y-64546819D02*
X70238904Y-64499200D01*
X70238904Y-64499200D02*
X70286523Y-64451580D01*
X69191285Y-64546819D02*
X69000809Y-64546819D01*
X69000809Y-64546819D02*
X68905571Y-64499200D01*
X68905571Y-64499200D02*
X68857952Y-64451580D01*
X68857952Y-64451580D02*
X68762714Y-64308723D01*
X68762714Y-64308723D02*
X68715095Y-64118247D01*
X68715095Y-64118247D02*
X68715095Y-63737295D01*
X68715095Y-63737295D02*
X68762714Y-63642057D01*
X68762714Y-63642057D02*
X68810333Y-63594438D01*
X68810333Y-63594438D02*
X68905571Y-63546819D01*
X68905571Y-63546819D02*
X69096047Y-63546819D01*
X69096047Y-63546819D02*
X69191285Y-63594438D01*
X69191285Y-63594438D02*
X69238904Y-63642057D01*
X69238904Y-63642057D02*
X69286523Y-63737295D01*
X69286523Y-63737295D02*
X69286523Y-63975390D01*
X69286523Y-63975390D02*
X69238904Y-64070628D01*
X69238904Y-64070628D02*
X69191285Y-64118247D01*
X69191285Y-64118247D02*
X69096047Y-64165866D01*
X69096047Y-64165866D02*
X68905571Y-64165866D01*
X68905571Y-64165866D02*
X68810333Y-64118247D01*
X68810333Y-64118247D02*
X68762714Y-64070628D01*
X68762714Y-64070628D02*
X68715095Y-63975390D01*
X90406457Y-84695380D02*
X90454076Y-84743000D01*
X90454076Y-84743000D02*
X90596933Y-84790619D01*
X90596933Y-84790619D02*
X90692171Y-84790619D01*
X90692171Y-84790619D02*
X90835028Y-84743000D01*
X90835028Y-84743000D02*
X90930266Y-84647761D01*
X90930266Y-84647761D02*
X90977885Y-84552523D01*
X90977885Y-84552523D02*
X91025504Y-84362047D01*
X91025504Y-84362047D02*
X91025504Y-84219190D01*
X91025504Y-84219190D02*
X90977885Y-84028714D01*
X90977885Y-84028714D02*
X90930266Y-83933476D01*
X90930266Y-83933476D02*
X90835028Y-83838238D01*
X90835028Y-83838238D02*
X90692171Y-83790619D01*
X90692171Y-83790619D02*
X90596933Y-83790619D01*
X90596933Y-83790619D02*
X90454076Y-83838238D01*
X90454076Y-83838238D02*
X90406457Y-83885857D01*
X90073123Y-83790619D02*
X89454076Y-83790619D01*
X89454076Y-83790619D02*
X89787409Y-84171571D01*
X89787409Y-84171571D02*
X89644552Y-84171571D01*
X89644552Y-84171571D02*
X89549314Y-84219190D01*
X89549314Y-84219190D02*
X89501695Y-84266809D01*
X89501695Y-84266809D02*
X89454076Y-84362047D01*
X89454076Y-84362047D02*
X89454076Y-84600142D01*
X89454076Y-84600142D02*
X89501695Y-84695380D01*
X89501695Y-84695380D02*
X89549314Y-84743000D01*
X89549314Y-84743000D02*
X89644552Y-84790619D01*
X89644552Y-84790619D02*
X89930266Y-84790619D01*
X89930266Y-84790619D02*
X90025504Y-84743000D01*
X90025504Y-84743000D02*
X90073123Y-84695380D01*
X88882647Y-84219190D02*
X88977885Y-84171571D01*
X88977885Y-84171571D02*
X89025504Y-84123952D01*
X89025504Y-84123952D02*
X89073123Y-84028714D01*
X89073123Y-84028714D02*
X89073123Y-83981095D01*
X89073123Y-83981095D02*
X89025504Y-83885857D01*
X89025504Y-83885857D02*
X88977885Y-83838238D01*
X88977885Y-83838238D02*
X88882647Y-83790619D01*
X88882647Y-83790619D02*
X88692171Y-83790619D01*
X88692171Y-83790619D02*
X88596933Y-83838238D01*
X88596933Y-83838238D02*
X88549314Y-83885857D01*
X88549314Y-83885857D02*
X88501695Y-83981095D01*
X88501695Y-83981095D02*
X88501695Y-84028714D01*
X88501695Y-84028714D02*
X88549314Y-84123952D01*
X88549314Y-84123952D02*
X88596933Y-84171571D01*
X88596933Y-84171571D02*
X88692171Y-84219190D01*
X88692171Y-84219190D02*
X88882647Y-84219190D01*
X88882647Y-84219190D02*
X88977885Y-84266809D01*
X88977885Y-84266809D02*
X89025504Y-84314428D01*
X89025504Y-84314428D02*
X89073123Y-84409666D01*
X89073123Y-84409666D02*
X89073123Y-84600142D01*
X89073123Y-84600142D02*
X89025504Y-84695380D01*
X89025504Y-84695380D02*
X88977885Y-84743000D01*
X88977885Y-84743000D02*
X88882647Y-84790619D01*
X88882647Y-84790619D02*
X88692171Y-84790619D01*
X88692171Y-84790619D02*
X88596933Y-84743000D01*
X88596933Y-84743000D02*
X88549314Y-84695380D01*
X88549314Y-84695380D02*
X88501695Y-84600142D01*
X88501695Y-84600142D02*
X88501695Y-84409666D01*
X88501695Y-84409666D02*
X88549314Y-84314428D01*
X88549314Y-84314428D02*
X88596933Y-84266809D01*
X88596933Y-84266809D02*
X88692171Y-84219190D01*
X213907019Y-96883457D02*
X213859400Y-96931076D01*
X213859400Y-96931076D02*
X213811780Y-97073933D01*
X213811780Y-97073933D02*
X213811780Y-97169171D01*
X213811780Y-97169171D02*
X213859400Y-97312028D01*
X213859400Y-97312028D02*
X213954638Y-97407266D01*
X213954638Y-97407266D02*
X214049876Y-97454885D01*
X214049876Y-97454885D02*
X214240352Y-97502504D01*
X214240352Y-97502504D02*
X214383209Y-97502504D01*
X214383209Y-97502504D02*
X214573685Y-97454885D01*
X214573685Y-97454885D02*
X214668923Y-97407266D01*
X214668923Y-97407266D02*
X214764161Y-97312028D01*
X214764161Y-97312028D02*
X214811780Y-97169171D01*
X214811780Y-97169171D02*
X214811780Y-97073933D01*
X214811780Y-97073933D02*
X214764161Y-96931076D01*
X214764161Y-96931076D02*
X214716542Y-96883457D01*
X214811780Y-96550123D02*
X214811780Y-95931076D01*
X214811780Y-95931076D02*
X214430828Y-96264409D01*
X214430828Y-96264409D02*
X214430828Y-96121552D01*
X214430828Y-96121552D02*
X214383209Y-96026314D01*
X214383209Y-96026314D02*
X214335590Y-95978695D01*
X214335590Y-95978695D02*
X214240352Y-95931076D01*
X214240352Y-95931076D02*
X214002257Y-95931076D01*
X214002257Y-95931076D02*
X213907019Y-95978695D01*
X213907019Y-95978695D02*
X213859400Y-96026314D01*
X213859400Y-96026314D02*
X213811780Y-96121552D01*
X213811780Y-96121552D02*
X213811780Y-96407266D01*
X213811780Y-96407266D02*
X213859400Y-96502504D01*
X213859400Y-96502504D02*
X213907019Y-96550123D01*
X214811780Y-95073933D02*
X214811780Y-95264409D01*
X214811780Y-95264409D02*
X214764161Y-95359647D01*
X214764161Y-95359647D02*
X214716542Y-95407266D01*
X214716542Y-95407266D02*
X214573685Y-95502504D01*
X214573685Y-95502504D02*
X214383209Y-95550123D01*
X214383209Y-95550123D02*
X214002257Y-95550123D01*
X214002257Y-95550123D02*
X213907019Y-95502504D01*
X213907019Y-95502504D02*
X213859400Y-95454885D01*
X213859400Y-95454885D02*
X213811780Y-95359647D01*
X213811780Y-95359647D02*
X213811780Y-95169171D01*
X213811780Y-95169171D02*
X213859400Y-95073933D01*
X213859400Y-95073933D02*
X213907019Y-95026314D01*
X213907019Y-95026314D02*
X214002257Y-94978695D01*
X214002257Y-94978695D02*
X214240352Y-94978695D01*
X214240352Y-94978695D02*
X214335590Y-95026314D01*
X214335590Y-95026314D02*
X214383209Y-95073933D01*
X214383209Y-95073933D02*
X214430828Y-95169171D01*
X214430828Y-95169171D02*
X214430828Y-95359647D01*
X214430828Y-95359647D02*
X214383209Y-95454885D01*
X214383209Y-95454885D02*
X214335590Y-95502504D01*
X214335590Y-95502504D02*
X214240352Y-95550123D01*
X213932419Y-76995257D02*
X213884800Y-77042876D01*
X213884800Y-77042876D02*
X213837180Y-77185733D01*
X213837180Y-77185733D02*
X213837180Y-77280971D01*
X213837180Y-77280971D02*
X213884800Y-77423828D01*
X213884800Y-77423828D02*
X213980038Y-77519066D01*
X213980038Y-77519066D02*
X214075276Y-77566685D01*
X214075276Y-77566685D02*
X214265752Y-77614304D01*
X214265752Y-77614304D02*
X214408609Y-77614304D01*
X214408609Y-77614304D02*
X214599085Y-77566685D01*
X214599085Y-77566685D02*
X214694323Y-77519066D01*
X214694323Y-77519066D02*
X214789561Y-77423828D01*
X214789561Y-77423828D02*
X214837180Y-77280971D01*
X214837180Y-77280971D02*
X214837180Y-77185733D01*
X214837180Y-77185733D02*
X214789561Y-77042876D01*
X214789561Y-77042876D02*
X214741942Y-76995257D01*
X214837180Y-76661923D02*
X214837180Y-76042876D01*
X214837180Y-76042876D02*
X214456228Y-76376209D01*
X214456228Y-76376209D02*
X214456228Y-76233352D01*
X214456228Y-76233352D02*
X214408609Y-76138114D01*
X214408609Y-76138114D02*
X214360990Y-76090495D01*
X214360990Y-76090495D02*
X214265752Y-76042876D01*
X214265752Y-76042876D02*
X214027657Y-76042876D01*
X214027657Y-76042876D02*
X213932419Y-76090495D01*
X213932419Y-76090495D02*
X213884800Y-76138114D01*
X213884800Y-76138114D02*
X213837180Y-76233352D01*
X213837180Y-76233352D02*
X213837180Y-76519066D01*
X213837180Y-76519066D02*
X213884800Y-76614304D01*
X213884800Y-76614304D02*
X213932419Y-76661923D01*
X214837180Y-75138114D02*
X214837180Y-75614304D01*
X214837180Y-75614304D02*
X214360990Y-75661923D01*
X214360990Y-75661923D02*
X214408609Y-75614304D01*
X214408609Y-75614304D02*
X214456228Y-75519066D01*
X214456228Y-75519066D02*
X214456228Y-75280971D01*
X214456228Y-75280971D02*
X214408609Y-75185733D01*
X214408609Y-75185733D02*
X214360990Y-75138114D01*
X214360990Y-75138114D02*
X214265752Y-75090495D01*
X214265752Y-75090495D02*
X214027657Y-75090495D01*
X214027657Y-75090495D02*
X213932419Y-75138114D01*
X213932419Y-75138114D02*
X213884800Y-75185733D01*
X213884800Y-75185733D02*
X213837180Y-75280971D01*
X213837180Y-75280971D02*
X213837180Y-75519066D01*
X213837180Y-75519066D02*
X213884800Y-75614304D01*
X213884800Y-75614304D02*
X213932419Y-75661923D01*
X225178857Y-93280580D02*
X225226476Y-93328200D01*
X225226476Y-93328200D02*
X225369333Y-93375819D01*
X225369333Y-93375819D02*
X225464571Y-93375819D01*
X225464571Y-93375819D02*
X225607428Y-93328200D01*
X225607428Y-93328200D02*
X225702666Y-93232961D01*
X225702666Y-93232961D02*
X225750285Y-93137723D01*
X225750285Y-93137723D02*
X225797904Y-92947247D01*
X225797904Y-92947247D02*
X225797904Y-92804390D01*
X225797904Y-92804390D02*
X225750285Y-92613914D01*
X225750285Y-92613914D02*
X225702666Y-92518676D01*
X225702666Y-92518676D02*
X225607428Y-92423438D01*
X225607428Y-92423438D02*
X225464571Y-92375819D01*
X225464571Y-92375819D02*
X225369333Y-92375819D01*
X225369333Y-92375819D02*
X225226476Y-92423438D01*
X225226476Y-92423438D02*
X225178857Y-92471057D01*
X224845523Y-92375819D02*
X224226476Y-92375819D01*
X224226476Y-92375819D02*
X224559809Y-92756771D01*
X224559809Y-92756771D02*
X224416952Y-92756771D01*
X224416952Y-92756771D02*
X224321714Y-92804390D01*
X224321714Y-92804390D02*
X224274095Y-92852009D01*
X224274095Y-92852009D02*
X224226476Y-92947247D01*
X224226476Y-92947247D02*
X224226476Y-93185342D01*
X224226476Y-93185342D02*
X224274095Y-93280580D01*
X224274095Y-93280580D02*
X224321714Y-93328200D01*
X224321714Y-93328200D02*
X224416952Y-93375819D01*
X224416952Y-93375819D02*
X224702666Y-93375819D01*
X224702666Y-93375819D02*
X224797904Y-93328200D01*
X224797904Y-93328200D02*
X224845523Y-93280580D01*
X223369333Y-92709152D02*
X223369333Y-93375819D01*
X223607428Y-92328200D02*
X223845523Y-93042485D01*
X223845523Y-93042485D02*
X223226476Y-93042485D01*
X223381219Y-72292357D02*
X223333600Y-72339976D01*
X223333600Y-72339976D02*
X223285980Y-72482833D01*
X223285980Y-72482833D02*
X223285980Y-72578071D01*
X223285980Y-72578071D02*
X223333600Y-72720928D01*
X223333600Y-72720928D02*
X223428838Y-72816166D01*
X223428838Y-72816166D02*
X223524076Y-72863785D01*
X223524076Y-72863785D02*
X223714552Y-72911404D01*
X223714552Y-72911404D02*
X223857409Y-72911404D01*
X223857409Y-72911404D02*
X224047885Y-72863785D01*
X224047885Y-72863785D02*
X224143123Y-72816166D01*
X224143123Y-72816166D02*
X224238361Y-72720928D01*
X224238361Y-72720928D02*
X224285980Y-72578071D01*
X224285980Y-72578071D02*
X224285980Y-72482833D01*
X224285980Y-72482833D02*
X224238361Y-72339976D01*
X224238361Y-72339976D02*
X224190742Y-72292357D01*
X224285980Y-71959023D02*
X224285980Y-71339976D01*
X224285980Y-71339976D02*
X223905028Y-71673309D01*
X223905028Y-71673309D02*
X223905028Y-71530452D01*
X223905028Y-71530452D02*
X223857409Y-71435214D01*
X223857409Y-71435214D02*
X223809790Y-71387595D01*
X223809790Y-71387595D02*
X223714552Y-71339976D01*
X223714552Y-71339976D02*
X223476457Y-71339976D01*
X223476457Y-71339976D02*
X223381219Y-71387595D01*
X223381219Y-71387595D02*
X223333600Y-71435214D01*
X223333600Y-71435214D02*
X223285980Y-71530452D01*
X223285980Y-71530452D02*
X223285980Y-71816166D01*
X223285980Y-71816166D02*
X223333600Y-71911404D01*
X223333600Y-71911404D02*
X223381219Y-71959023D01*
X224285980Y-71006642D02*
X224285980Y-70387595D01*
X224285980Y-70387595D02*
X223905028Y-70720928D01*
X223905028Y-70720928D02*
X223905028Y-70578071D01*
X223905028Y-70578071D02*
X223857409Y-70482833D01*
X223857409Y-70482833D02*
X223809790Y-70435214D01*
X223809790Y-70435214D02*
X223714552Y-70387595D01*
X223714552Y-70387595D02*
X223476457Y-70387595D01*
X223476457Y-70387595D02*
X223381219Y-70435214D01*
X223381219Y-70435214D02*
X223333600Y-70482833D01*
X223333600Y-70482833D02*
X223285980Y-70578071D01*
X223285980Y-70578071D02*
X223285980Y-70863785D01*
X223285980Y-70863785D02*
X223333600Y-70959023D01*
X223333600Y-70959023D02*
X223381219Y-71006642D01*
X222308657Y-83526980D02*
X222356276Y-83574600D01*
X222356276Y-83574600D02*
X222499133Y-83622219D01*
X222499133Y-83622219D02*
X222594371Y-83622219D01*
X222594371Y-83622219D02*
X222737228Y-83574600D01*
X222737228Y-83574600D02*
X222832466Y-83479361D01*
X222832466Y-83479361D02*
X222880085Y-83384123D01*
X222880085Y-83384123D02*
X222927704Y-83193647D01*
X222927704Y-83193647D02*
X222927704Y-83050790D01*
X222927704Y-83050790D02*
X222880085Y-82860314D01*
X222880085Y-82860314D02*
X222832466Y-82765076D01*
X222832466Y-82765076D02*
X222737228Y-82669838D01*
X222737228Y-82669838D02*
X222594371Y-82622219D01*
X222594371Y-82622219D02*
X222499133Y-82622219D01*
X222499133Y-82622219D02*
X222356276Y-82669838D01*
X222356276Y-82669838D02*
X222308657Y-82717457D01*
X221975323Y-82622219D02*
X221356276Y-82622219D01*
X221356276Y-82622219D02*
X221689609Y-83003171D01*
X221689609Y-83003171D02*
X221546752Y-83003171D01*
X221546752Y-83003171D02*
X221451514Y-83050790D01*
X221451514Y-83050790D02*
X221403895Y-83098409D01*
X221403895Y-83098409D02*
X221356276Y-83193647D01*
X221356276Y-83193647D02*
X221356276Y-83431742D01*
X221356276Y-83431742D02*
X221403895Y-83526980D01*
X221403895Y-83526980D02*
X221451514Y-83574600D01*
X221451514Y-83574600D02*
X221546752Y-83622219D01*
X221546752Y-83622219D02*
X221832466Y-83622219D01*
X221832466Y-83622219D02*
X221927704Y-83574600D01*
X221927704Y-83574600D02*
X221975323Y-83526980D01*
X220975323Y-82717457D02*
X220927704Y-82669838D01*
X220927704Y-82669838D02*
X220832466Y-82622219D01*
X220832466Y-82622219D02*
X220594371Y-82622219D01*
X220594371Y-82622219D02*
X220499133Y-82669838D01*
X220499133Y-82669838D02*
X220451514Y-82717457D01*
X220451514Y-82717457D02*
X220403895Y-82812695D01*
X220403895Y-82812695D02*
X220403895Y-82907933D01*
X220403895Y-82907933D02*
X220451514Y-83050790D01*
X220451514Y-83050790D02*
X221022942Y-83622219D01*
X221022942Y-83622219D02*
X220403895Y-83622219D01*
X218600257Y-67550380D02*
X218647876Y-67598000D01*
X218647876Y-67598000D02*
X218790733Y-67645619D01*
X218790733Y-67645619D02*
X218885971Y-67645619D01*
X218885971Y-67645619D02*
X219028828Y-67598000D01*
X219028828Y-67598000D02*
X219124066Y-67502761D01*
X219124066Y-67502761D02*
X219171685Y-67407523D01*
X219171685Y-67407523D02*
X219219304Y-67217047D01*
X219219304Y-67217047D02*
X219219304Y-67074190D01*
X219219304Y-67074190D02*
X219171685Y-66883714D01*
X219171685Y-66883714D02*
X219124066Y-66788476D01*
X219124066Y-66788476D02*
X219028828Y-66693238D01*
X219028828Y-66693238D02*
X218885971Y-66645619D01*
X218885971Y-66645619D02*
X218790733Y-66645619D01*
X218790733Y-66645619D02*
X218647876Y-66693238D01*
X218647876Y-66693238D02*
X218600257Y-66740857D01*
X218266923Y-66645619D02*
X217647876Y-66645619D01*
X217647876Y-66645619D02*
X217981209Y-67026571D01*
X217981209Y-67026571D02*
X217838352Y-67026571D01*
X217838352Y-67026571D02*
X217743114Y-67074190D01*
X217743114Y-67074190D02*
X217695495Y-67121809D01*
X217695495Y-67121809D02*
X217647876Y-67217047D01*
X217647876Y-67217047D02*
X217647876Y-67455142D01*
X217647876Y-67455142D02*
X217695495Y-67550380D01*
X217695495Y-67550380D02*
X217743114Y-67598000D01*
X217743114Y-67598000D02*
X217838352Y-67645619D01*
X217838352Y-67645619D02*
X218124066Y-67645619D01*
X218124066Y-67645619D02*
X218219304Y-67598000D01*
X218219304Y-67598000D02*
X218266923Y-67550380D01*
X217028828Y-66645619D02*
X216933590Y-66645619D01*
X216933590Y-66645619D02*
X216838352Y-66693238D01*
X216838352Y-66693238D02*
X216790733Y-66740857D01*
X216790733Y-66740857D02*
X216743114Y-66836095D01*
X216743114Y-66836095D02*
X216695495Y-67026571D01*
X216695495Y-67026571D02*
X216695495Y-67264666D01*
X216695495Y-67264666D02*
X216743114Y-67455142D01*
X216743114Y-67455142D02*
X216790733Y-67550380D01*
X216790733Y-67550380D02*
X216838352Y-67598000D01*
X216838352Y-67598000D02*
X216933590Y-67645619D01*
X216933590Y-67645619D02*
X217028828Y-67645619D01*
X217028828Y-67645619D02*
X217124066Y-67598000D01*
X217124066Y-67598000D02*
X217171685Y-67550380D01*
X217171685Y-67550380D02*
X217219304Y-67455142D01*
X217219304Y-67455142D02*
X217266923Y-67264666D01*
X217266923Y-67264666D02*
X217266923Y-67026571D01*
X217266923Y-67026571D02*
X217219304Y-66836095D01*
X217219304Y-66836095D02*
X217171685Y-66740857D01*
X217171685Y-66740857D02*
X217124066Y-66693238D01*
X217124066Y-66693238D02*
X217028828Y-66645619D01*
X213881619Y-83650057D02*
X213834000Y-83697676D01*
X213834000Y-83697676D02*
X213786380Y-83840533D01*
X213786380Y-83840533D02*
X213786380Y-83935771D01*
X213786380Y-83935771D02*
X213834000Y-84078628D01*
X213834000Y-84078628D02*
X213929238Y-84173866D01*
X213929238Y-84173866D02*
X214024476Y-84221485D01*
X214024476Y-84221485D02*
X214214952Y-84269104D01*
X214214952Y-84269104D02*
X214357809Y-84269104D01*
X214357809Y-84269104D02*
X214548285Y-84221485D01*
X214548285Y-84221485D02*
X214643523Y-84173866D01*
X214643523Y-84173866D02*
X214738761Y-84078628D01*
X214738761Y-84078628D02*
X214786380Y-83935771D01*
X214786380Y-83935771D02*
X214786380Y-83840533D01*
X214786380Y-83840533D02*
X214738761Y-83697676D01*
X214738761Y-83697676D02*
X214691142Y-83650057D01*
X214691142Y-83269104D02*
X214738761Y-83221485D01*
X214738761Y-83221485D02*
X214786380Y-83126247D01*
X214786380Y-83126247D02*
X214786380Y-82888152D01*
X214786380Y-82888152D02*
X214738761Y-82792914D01*
X214738761Y-82792914D02*
X214691142Y-82745295D01*
X214691142Y-82745295D02*
X214595904Y-82697676D01*
X214595904Y-82697676D02*
X214500666Y-82697676D01*
X214500666Y-82697676D02*
X214357809Y-82745295D01*
X214357809Y-82745295D02*
X213786380Y-83316723D01*
X213786380Y-83316723D02*
X213786380Y-82697676D01*
X213786380Y-82221485D02*
X213786380Y-82031009D01*
X213786380Y-82031009D02*
X213834000Y-81935771D01*
X213834000Y-81935771D02*
X213881619Y-81888152D01*
X213881619Y-81888152D02*
X214024476Y-81792914D01*
X214024476Y-81792914D02*
X214214952Y-81745295D01*
X214214952Y-81745295D02*
X214595904Y-81745295D01*
X214595904Y-81745295D02*
X214691142Y-81792914D01*
X214691142Y-81792914D02*
X214738761Y-81840533D01*
X214738761Y-81840533D02*
X214786380Y-81935771D01*
X214786380Y-81935771D02*
X214786380Y-82126247D01*
X214786380Y-82126247D02*
X214738761Y-82221485D01*
X214738761Y-82221485D02*
X214691142Y-82269104D01*
X214691142Y-82269104D02*
X214595904Y-82316723D01*
X214595904Y-82316723D02*
X214357809Y-82316723D01*
X214357809Y-82316723D02*
X214262571Y-82269104D01*
X214262571Y-82269104D02*
X214214952Y-82221485D01*
X214214952Y-82221485D02*
X214167333Y-82126247D01*
X214167333Y-82126247D02*
X214167333Y-81935771D01*
X214167333Y-81935771D02*
X214214952Y-81840533D01*
X214214952Y-81840533D02*
X214262571Y-81792914D01*
X214262571Y-81792914D02*
X214357809Y-81745295D01*
X209888057Y-67550380D02*
X209935676Y-67598000D01*
X209935676Y-67598000D02*
X210078533Y-67645619D01*
X210078533Y-67645619D02*
X210173771Y-67645619D01*
X210173771Y-67645619D02*
X210316628Y-67598000D01*
X210316628Y-67598000D02*
X210411866Y-67502761D01*
X210411866Y-67502761D02*
X210459485Y-67407523D01*
X210459485Y-67407523D02*
X210507104Y-67217047D01*
X210507104Y-67217047D02*
X210507104Y-67074190D01*
X210507104Y-67074190D02*
X210459485Y-66883714D01*
X210459485Y-66883714D02*
X210411866Y-66788476D01*
X210411866Y-66788476D02*
X210316628Y-66693238D01*
X210316628Y-66693238D02*
X210173771Y-66645619D01*
X210173771Y-66645619D02*
X210078533Y-66645619D01*
X210078533Y-66645619D02*
X209935676Y-66693238D01*
X209935676Y-66693238D02*
X209888057Y-66740857D01*
X209507104Y-66740857D02*
X209459485Y-66693238D01*
X209459485Y-66693238D02*
X209364247Y-66645619D01*
X209364247Y-66645619D02*
X209126152Y-66645619D01*
X209126152Y-66645619D02*
X209030914Y-66693238D01*
X209030914Y-66693238D02*
X208983295Y-66740857D01*
X208983295Y-66740857D02*
X208935676Y-66836095D01*
X208935676Y-66836095D02*
X208935676Y-66931333D01*
X208935676Y-66931333D02*
X208983295Y-67074190D01*
X208983295Y-67074190D02*
X209554723Y-67645619D01*
X209554723Y-67645619D02*
X208935676Y-67645619D01*
X208602342Y-66645619D02*
X207935676Y-66645619D01*
X207935676Y-66645619D02*
X208364247Y-67645619D01*
X194317857Y-72630380D02*
X194365476Y-72678000D01*
X194365476Y-72678000D02*
X194508333Y-72725619D01*
X194508333Y-72725619D02*
X194603571Y-72725619D01*
X194603571Y-72725619D02*
X194746428Y-72678000D01*
X194746428Y-72678000D02*
X194841666Y-72582761D01*
X194841666Y-72582761D02*
X194889285Y-72487523D01*
X194889285Y-72487523D02*
X194936904Y-72297047D01*
X194936904Y-72297047D02*
X194936904Y-72154190D01*
X194936904Y-72154190D02*
X194889285Y-71963714D01*
X194889285Y-71963714D02*
X194841666Y-71868476D01*
X194841666Y-71868476D02*
X194746428Y-71773238D01*
X194746428Y-71773238D02*
X194603571Y-71725619D01*
X194603571Y-71725619D02*
X194508333Y-71725619D01*
X194508333Y-71725619D02*
X194365476Y-71773238D01*
X194365476Y-71773238D02*
X194317857Y-71820857D01*
X193936904Y-71820857D02*
X193889285Y-71773238D01*
X193889285Y-71773238D02*
X193794047Y-71725619D01*
X193794047Y-71725619D02*
X193555952Y-71725619D01*
X193555952Y-71725619D02*
X193460714Y-71773238D01*
X193460714Y-71773238D02*
X193413095Y-71820857D01*
X193413095Y-71820857D02*
X193365476Y-71916095D01*
X193365476Y-71916095D02*
X193365476Y-72011333D01*
X193365476Y-72011333D02*
X193413095Y-72154190D01*
X193413095Y-72154190D02*
X193984523Y-72725619D01*
X193984523Y-72725619D02*
X193365476Y-72725619D01*
X192460714Y-71725619D02*
X192936904Y-71725619D01*
X192936904Y-71725619D02*
X192984523Y-72201809D01*
X192984523Y-72201809D02*
X192936904Y-72154190D01*
X192936904Y-72154190D02*
X192841666Y-72106571D01*
X192841666Y-72106571D02*
X192603571Y-72106571D01*
X192603571Y-72106571D02*
X192508333Y-72154190D01*
X192508333Y-72154190D02*
X192460714Y-72201809D01*
X192460714Y-72201809D02*
X192413095Y-72297047D01*
X192413095Y-72297047D02*
X192413095Y-72535142D01*
X192413095Y-72535142D02*
X192460714Y-72630380D01*
X192460714Y-72630380D02*
X192508333Y-72678000D01*
X192508333Y-72678000D02*
X192603571Y-72725619D01*
X192603571Y-72725619D02*
X192841666Y-72725619D01*
X192841666Y-72725619D02*
X192936904Y-72678000D01*
X192936904Y-72678000D02*
X192984523Y-72630380D01*
X201379057Y-82993580D02*
X201426676Y-83041200D01*
X201426676Y-83041200D02*
X201569533Y-83088819D01*
X201569533Y-83088819D02*
X201664771Y-83088819D01*
X201664771Y-83088819D02*
X201807628Y-83041200D01*
X201807628Y-83041200D02*
X201902866Y-82945961D01*
X201902866Y-82945961D02*
X201950485Y-82850723D01*
X201950485Y-82850723D02*
X201998104Y-82660247D01*
X201998104Y-82660247D02*
X201998104Y-82517390D01*
X201998104Y-82517390D02*
X201950485Y-82326914D01*
X201950485Y-82326914D02*
X201902866Y-82231676D01*
X201902866Y-82231676D02*
X201807628Y-82136438D01*
X201807628Y-82136438D02*
X201664771Y-82088819D01*
X201664771Y-82088819D02*
X201569533Y-82088819D01*
X201569533Y-82088819D02*
X201426676Y-82136438D01*
X201426676Y-82136438D02*
X201379057Y-82184057D01*
X200998104Y-82184057D02*
X200950485Y-82136438D01*
X200950485Y-82136438D02*
X200855247Y-82088819D01*
X200855247Y-82088819D02*
X200617152Y-82088819D01*
X200617152Y-82088819D02*
X200521914Y-82136438D01*
X200521914Y-82136438D02*
X200474295Y-82184057D01*
X200474295Y-82184057D02*
X200426676Y-82279295D01*
X200426676Y-82279295D02*
X200426676Y-82374533D01*
X200426676Y-82374533D02*
X200474295Y-82517390D01*
X200474295Y-82517390D02*
X201045723Y-83088819D01*
X201045723Y-83088819D02*
X200426676Y-83088819D01*
X199569533Y-82422152D02*
X199569533Y-83088819D01*
X199807628Y-82041200D02*
X200045723Y-82755485D01*
X200045723Y-82755485D02*
X199426676Y-82755485D01*
X153779457Y-117334380D02*
X153827076Y-117382000D01*
X153827076Y-117382000D02*
X153969933Y-117429619D01*
X153969933Y-117429619D02*
X154065171Y-117429619D01*
X154065171Y-117429619D02*
X154208028Y-117382000D01*
X154208028Y-117382000D02*
X154303266Y-117286761D01*
X154303266Y-117286761D02*
X154350885Y-117191523D01*
X154350885Y-117191523D02*
X154398504Y-117001047D01*
X154398504Y-117001047D02*
X154398504Y-116858190D01*
X154398504Y-116858190D02*
X154350885Y-116667714D01*
X154350885Y-116667714D02*
X154303266Y-116572476D01*
X154303266Y-116572476D02*
X154208028Y-116477238D01*
X154208028Y-116477238D02*
X154065171Y-116429619D01*
X154065171Y-116429619D02*
X153969933Y-116429619D01*
X153969933Y-116429619D02*
X153827076Y-116477238D01*
X153827076Y-116477238D02*
X153779457Y-116524857D01*
X153398504Y-116524857D02*
X153350885Y-116477238D01*
X153350885Y-116477238D02*
X153255647Y-116429619D01*
X153255647Y-116429619D02*
X153017552Y-116429619D01*
X153017552Y-116429619D02*
X152922314Y-116477238D01*
X152922314Y-116477238D02*
X152874695Y-116524857D01*
X152874695Y-116524857D02*
X152827076Y-116620095D01*
X152827076Y-116620095D02*
X152827076Y-116715333D01*
X152827076Y-116715333D02*
X152874695Y-116858190D01*
X152874695Y-116858190D02*
X153446123Y-117429619D01*
X153446123Y-117429619D02*
X152827076Y-117429619D01*
X152446123Y-116524857D02*
X152398504Y-116477238D01*
X152398504Y-116477238D02*
X152303266Y-116429619D01*
X152303266Y-116429619D02*
X152065171Y-116429619D01*
X152065171Y-116429619D02*
X151969933Y-116477238D01*
X151969933Y-116477238D02*
X151922314Y-116524857D01*
X151922314Y-116524857D02*
X151874695Y-116620095D01*
X151874695Y-116620095D02*
X151874695Y-116715333D01*
X151874695Y-116715333D02*
X151922314Y-116858190D01*
X151922314Y-116858190D02*
X152493742Y-117429619D01*
X152493742Y-117429619D02*
X151874695Y-117429619D01*
X153373057Y-108418980D02*
X153420676Y-108466600D01*
X153420676Y-108466600D02*
X153563533Y-108514219D01*
X153563533Y-108514219D02*
X153658771Y-108514219D01*
X153658771Y-108514219D02*
X153801628Y-108466600D01*
X153801628Y-108466600D02*
X153896866Y-108371361D01*
X153896866Y-108371361D02*
X153944485Y-108276123D01*
X153944485Y-108276123D02*
X153992104Y-108085647D01*
X153992104Y-108085647D02*
X153992104Y-107942790D01*
X153992104Y-107942790D02*
X153944485Y-107752314D01*
X153944485Y-107752314D02*
X153896866Y-107657076D01*
X153896866Y-107657076D02*
X153801628Y-107561838D01*
X153801628Y-107561838D02*
X153658771Y-107514219D01*
X153658771Y-107514219D02*
X153563533Y-107514219D01*
X153563533Y-107514219D02*
X153420676Y-107561838D01*
X153420676Y-107561838D02*
X153373057Y-107609457D01*
X152992104Y-107609457D02*
X152944485Y-107561838D01*
X152944485Y-107561838D02*
X152849247Y-107514219D01*
X152849247Y-107514219D02*
X152611152Y-107514219D01*
X152611152Y-107514219D02*
X152515914Y-107561838D01*
X152515914Y-107561838D02*
X152468295Y-107609457D01*
X152468295Y-107609457D02*
X152420676Y-107704695D01*
X152420676Y-107704695D02*
X152420676Y-107799933D01*
X152420676Y-107799933D02*
X152468295Y-107942790D01*
X152468295Y-107942790D02*
X153039723Y-108514219D01*
X153039723Y-108514219D02*
X152420676Y-108514219D01*
X151468295Y-108514219D02*
X152039723Y-108514219D01*
X151754009Y-108514219D02*
X151754009Y-107514219D01*
X151754009Y-107514219D02*
X151849247Y-107657076D01*
X151849247Y-107657076D02*
X151944485Y-107752314D01*
X151944485Y-107752314D02*
X152039723Y-107799933D01*
X148953457Y-121271380D02*
X149001076Y-121319000D01*
X149001076Y-121319000D02*
X149143933Y-121366619D01*
X149143933Y-121366619D02*
X149239171Y-121366619D01*
X149239171Y-121366619D02*
X149382028Y-121319000D01*
X149382028Y-121319000D02*
X149477266Y-121223761D01*
X149477266Y-121223761D02*
X149524885Y-121128523D01*
X149524885Y-121128523D02*
X149572504Y-120938047D01*
X149572504Y-120938047D02*
X149572504Y-120795190D01*
X149572504Y-120795190D02*
X149524885Y-120604714D01*
X149524885Y-120604714D02*
X149477266Y-120509476D01*
X149477266Y-120509476D02*
X149382028Y-120414238D01*
X149382028Y-120414238D02*
X149239171Y-120366619D01*
X149239171Y-120366619D02*
X149143933Y-120366619D01*
X149143933Y-120366619D02*
X149001076Y-120414238D01*
X149001076Y-120414238D02*
X148953457Y-120461857D01*
X148572504Y-120461857D02*
X148524885Y-120414238D01*
X148524885Y-120414238D02*
X148429647Y-120366619D01*
X148429647Y-120366619D02*
X148191552Y-120366619D01*
X148191552Y-120366619D02*
X148096314Y-120414238D01*
X148096314Y-120414238D02*
X148048695Y-120461857D01*
X148048695Y-120461857D02*
X148001076Y-120557095D01*
X148001076Y-120557095D02*
X148001076Y-120652333D01*
X148001076Y-120652333D02*
X148048695Y-120795190D01*
X148048695Y-120795190D02*
X148620123Y-121366619D01*
X148620123Y-121366619D02*
X148001076Y-121366619D01*
X147382028Y-120366619D02*
X147286790Y-120366619D01*
X147286790Y-120366619D02*
X147191552Y-120414238D01*
X147191552Y-120414238D02*
X147143933Y-120461857D01*
X147143933Y-120461857D02*
X147096314Y-120557095D01*
X147096314Y-120557095D02*
X147048695Y-120747571D01*
X147048695Y-120747571D02*
X147048695Y-120985666D01*
X147048695Y-120985666D02*
X147096314Y-121176142D01*
X147096314Y-121176142D02*
X147143933Y-121271380D01*
X147143933Y-121271380D02*
X147191552Y-121319000D01*
X147191552Y-121319000D02*
X147286790Y-121366619D01*
X147286790Y-121366619D02*
X147382028Y-121366619D01*
X147382028Y-121366619D02*
X147477266Y-121319000D01*
X147477266Y-121319000D02*
X147524885Y-121271380D01*
X147524885Y-121271380D02*
X147572504Y-121176142D01*
X147572504Y-121176142D02*
X147620123Y-120985666D01*
X147620123Y-120985666D02*
X147620123Y-120747571D01*
X147620123Y-120747571D02*
X147572504Y-120557095D01*
X147572504Y-120557095D02*
X147524885Y-120461857D01*
X147524885Y-120461857D02*
X147477266Y-120414238D01*
X147477266Y-120414238D02*
X147382028Y-120366619D01*
X153423857Y-110146180D02*
X153471476Y-110193800D01*
X153471476Y-110193800D02*
X153614333Y-110241419D01*
X153614333Y-110241419D02*
X153709571Y-110241419D01*
X153709571Y-110241419D02*
X153852428Y-110193800D01*
X153852428Y-110193800D02*
X153947666Y-110098561D01*
X153947666Y-110098561D02*
X153995285Y-110003323D01*
X153995285Y-110003323D02*
X154042904Y-109812847D01*
X154042904Y-109812847D02*
X154042904Y-109669990D01*
X154042904Y-109669990D02*
X153995285Y-109479514D01*
X153995285Y-109479514D02*
X153947666Y-109384276D01*
X153947666Y-109384276D02*
X153852428Y-109289038D01*
X153852428Y-109289038D02*
X153709571Y-109241419D01*
X153709571Y-109241419D02*
X153614333Y-109241419D01*
X153614333Y-109241419D02*
X153471476Y-109289038D01*
X153471476Y-109289038D02*
X153423857Y-109336657D01*
X152471476Y-110241419D02*
X153042904Y-110241419D01*
X152757190Y-110241419D02*
X152757190Y-109241419D01*
X152757190Y-109241419D02*
X152852428Y-109384276D01*
X152852428Y-109384276D02*
X152947666Y-109479514D01*
X152947666Y-109479514D02*
X153042904Y-109527133D01*
X151995285Y-110241419D02*
X151804809Y-110241419D01*
X151804809Y-110241419D02*
X151709571Y-110193800D01*
X151709571Y-110193800D02*
X151661952Y-110146180D01*
X151661952Y-110146180D02*
X151566714Y-110003323D01*
X151566714Y-110003323D02*
X151519095Y-109812847D01*
X151519095Y-109812847D02*
X151519095Y-109431895D01*
X151519095Y-109431895D02*
X151566714Y-109336657D01*
X151566714Y-109336657D02*
X151614333Y-109289038D01*
X151614333Y-109289038D02*
X151709571Y-109241419D01*
X151709571Y-109241419D02*
X151900047Y-109241419D01*
X151900047Y-109241419D02*
X151995285Y-109289038D01*
X151995285Y-109289038D02*
X152042904Y-109336657D01*
X152042904Y-109336657D02*
X152090523Y-109431895D01*
X152090523Y-109431895D02*
X152090523Y-109669990D01*
X152090523Y-109669990D02*
X152042904Y-109765228D01*
X152042904Y-109765228D02*
X151995285Y-109812847D01*
X151995285Y-109812847D02*
X151900047Y-109860466D01*
X151900047Y-109860466D02*
X151709571Y-109860466D01*
X151709571Y-109860466D02*
X151614333Y-109812847D01*
X151614333Y-109812847D02*
X151566714Y-109765228D01*
X151566714Y-109765228D02*
X151519095Y-109669990D01*
X145905457Y-121271380D02*
X145953076Y-121319000D01*
X145953076Y-121319000D02*
X146095933Y-121366619D01*
X146095933Y-121366619D02*
X146191171Y-121366619D01*
X146191171Y-121366619D02*
X146334028Y-121319000D01*
X146334028Y-121319000D02*
X146429266Y-121223761D01*
X146429266Y-121223761D02*
X146476885Y-121128523D01*
X146476885Y-121128523D02*
X146524504Y-120938047D01*
X146524504Y-120938047D02*
X146524504Y-120795190D01*
X146524504Y-120795190D02*
X146476885Y-120604714D01*
X146476885Y-120604714D02*
X146429266Y-120509476D01*
X146429266Y-120509476D02*
X146334028Y-120414238D01*
X146334028Y-120414238D02*
X146191171Y-120366619D01*
X146191171Y-120366619D02*
X146095933Y-120366619D01*
X146095933Y-120366619D02*
X145953076Y-120414238D01*
X145953076Y-120414238D02*
X145905457Y-120461857D01*
X144953076Y-121366619D02*
X145524504Y-121366619D01*
X145238790Y-121366619D02*
X145238790Y-120366619D01*
X145238790Y-120366619D02*
X145334028Y-120509476D01*
X145334028Y-120509476D02*
X145429266Y-120604714D01*
X145429266Y-120604714D02*
X145524504Y-120652333D01*
X144381647Y-120795190D02*
X144476885Y-120747571D01*
X144476885Y-120747571D02*
X144524504Y-120699952D01*
X144524504Y-120699952D02*
X144572123Y-120604714D01*
X144572123Y-120604714D02*
X144572123Y-120557095D01*
X144572123Y-120557095D02*
X144524504Y-120461857D01*
X144524504Y-120461857D02*
X144476885Y-120414238D01*
X144476885Y-120414238D02*
X144381647Y-120366619D01*
X144381647Y-120366619D02*
X144191171Y-120366619D01*
X144191171Y-120366619D02*
X144095933Y-120414238D01*
X144095933Y-120414238D02*
X144048314Y-120461857D01*
X144048314Y-120461857D02*
X144000695Y-120557095D01*
X144000695Y-120557095D02*
X144000695Y-120604714D01*
X144000695Y-120604714D02*
X144048314Y-120699952D01*
X144048314Y-120699952D02*
X144095933Y-120747571D01*
X144095933Y-120747571D02*
X144191171Y-120795190D01*
X144191171Y-120795190D02*
X144381647Y-120795190D01*
X144381647Y-120795190D02*
X144476885Y-120842809D01*
X144476885Y-120842809D02*
X144524504Y-120890428D01*
X144524504Y-120890428D02*
X144572123Y-120985666D01*
X144572123Y-120985666D02*
X144572123Y-121176142D01*
X144572123Y-121176142D02*
X144524504Y-121271380D01*
X144524504Y-121271380D02*
X144476885Y-121319000D01*
X144476885Y-121319000D02*
X144381647Y-121366619D01*
X144381647Y-121366619D02*
X144191171Y-121366619D01*
X144191171Y-121366619D02*
X144095933Y-121319000D01*
X144095933Y-121319000D02*
X144048314Y-121271380D01*
X144048314Y-121271380D02*
X144000695Y-121176142D01*
X144000695Y-121176142D02*
X144000695Y-120985666D01*
X144000695Y-120985666D02*
X144048314Y-120890428D01*
X144048314Y-120890428D02*
X144095933Y-120842809D01*
X144095933Y-120842809D02*
X144191171Y-120795190D01*
X153474657Y-112533780D02*
X153522276Y-112581400D01*
X153522276Y-112581400D02*
X153665133Y-112629019D01*
X153665133Y-112629019D02*
X153760371Y-112629019D01*
X153760371Y-112629019D02*
X153903228Y-112581400D01*
X153903228Y-112581400D02*
X153998466Y-112486161D01*
X153998466Y-112486161D02*
X154046085Y-112390923D01*
X154046085Y-112390923D02*
X154093704Y-112200447D01*
X154093704Y-112200447D02*
X154093704Y-112057590D01*
X154093704Y-112057590D02*
X154046085Y-111867114D01*
X154046085Y-111867114D02*
X153998466Y-111771876D01*
X153998466Y-111771876D02*
X153903228Y-111676638D01*
X153903228Y-111676638D02*
X153760371Y-111629019D01*
X153760371Y-111629019D02*
X153665133Y-111629019D01*
X153665133Y-111629019D02*
X153522276Y-111676638D01*
X153522276Y-111676638D02*
X153474657Y-111724257D01*
X152522276Y-112629019D02*
X153093704Y-112629019D01*
X152807990Y-112629019D02*
X152807990Y-111629019D01*
X152807990Y-111629019D02*
X152903228Y-111771876D01*
X152903228Y-111771876D02*
X152998466Y-111867114D01*
X152998466Y-111867114D02*
X153093704Y-111914733D01*
X152188942Y-111629019D02*
X151522276Y-111629019D01*
X151522276Y-111629019D02*
X151950847Y-112629019D01*
X181186057Y-131126580D02*
X181233676Y-131174200D01*
X181233676Y-131174200D02*
X181376533Y-131221819D01*
X181376533Y-131221819D02*
X181471771Y-131221819D01*
X181471771Y-131221819D02*
X181614628Y-131174200D01*
X181614628Y-131174200D02*
X181709866Y-131078961D01*
X181709866Y-131078961D02*
X181757485Y-130983723D01*
X181757485Y-130983723D02*
X181805104Y-130793247D01*
X181805104Y-130793247D02*
X181805104Y-130650390D01*
X181805104Y-130650390D02*
X181757485Y-130459914D01*
X181757485Y-130459914D02*
X181709866Y-130364676D01*
X181709866Y-130364676D02*
X181614628Y-130269438D01*
X181614628Y-130269438D02*
X181471771Y-130221819D01*
X181471771Y-130221819D02*
X181376533Y-130221819D01*
X181376533Y-130221819D02*
X181233676Y-130269438D01*
X181233676Y-130269438D02*
X181186057Y-130317057D01*
X180233676Y-131221819D02*
X180805104Y-131221819D01*
X180519390Y-131221819D02*
X180519390Y-130221819D01*
X180519390Y-130221819D02*
X180614628Y-130364676D01*
X180614628Y-130364676D02*
X180709866Y-130459914D01*
X180709866Y-130459914D02*
X180805104Y-130507533D01*
X179376533Y-130221819D02*
X179567009Y-130221819D01*
X179567009Y-130221819D02*
X179662247Y-130269438D01*
X179662247Y-130269438D02*
X179709866Y-130317057D01*
X179709866Y-130317057D02*
X179805104Y-130459914D01*
X179805104Y-130459914D02*
X179852723Y-130650390D01*
X179852723Y-130650390D02*
X179852723Y-131031342D01*
X179852723Y-131031342D02*
X179805104Y-131126580D01*
X179805104Y-131126580D02*
X179757485Y-131174200D01*
X179757485Y-131174200D02*
X179662247Y-131221819D01*
X179662247Y-131221819D02*
X179471771Y-131221819D01*
X179471771Y-131221819D02*
X179376533Y-131174200D01*
X179376533Y-131174200D02*
X179328914Y-131126580D01*
X179328914Y-131126580D02*
X179281295Y-131031342D01*
X179281295Y-131031342D02*
X179281295Y-130793247D01*
X179281295Y-130793247D02*
X179328914Y-130698009D01*
X179328914Y-130698009D02*
X179376533Y-130650390D01*
X179376533Y-130650390D02*
X179471771Y-130602771D01*
X179471771Y-130602771D02*
X179662247Y-130602771D01*
X179662247Y-130602771D02*
X179757485Y-130650390D01*
X179757485Y-130650390D02*
X179805104Y-130698009D01*
X179805104Y-130698009D02*
X179852723Y-130793247D01*
X181948057Y-126732380D02*
X181995676Y-126780000D01*
X181995676Y-126780000D02*
X182138533Y-126827619D01*
X182138533Y-126827619D02*
X182233771Y-126827619D01*
X182233771Y-126827619D02*
X182376628Y-126780000D01*
X182376628Y-126780000D02*
X182471866Y-126684761D01*
X182471866Y-126684761D02*
X182519485Y-126589523D01*
X182519485Y-126589523D02*
X182567104Y-126399047D01*
X182567104Y-126399047D02*
X182567104Y-126256190D01*
X182567104Y-126256190D02*
X182519485Y-126065714D01*
X182519485Y-126065714D02*
X182471866Y-125970476D01*
X182471866Y-125970476D02*
X182376628Y-125875238D01*
X182376628Y-125875238D02*
X182233771Y-125827619D01*
X182233771Y-125827619D02*
X182138533Y-125827619D01*
X182138533Y-125827619D02*
X181995676Y-125875238D01*
X181995676Y-125875238D02*
X181948057Y-125922857D01*
X180995676Y-126827619D02*
X181567104Y-126827619D01*
X181281390Y-126827619D02*
X181281390Y-125827619D01*
X181281390Y-125827619D02*
X181376628Y-125970476D01*
X181376628Y-125970476D02*
X181471866Y-126065714D01*
X181471866Y-126065714D02*
X181567104Y-126113333D01*
X180090914Y-125827619D02*
X180567104Y-125827619D01*
X180567104Y-125827619D02*
X180614723Y-126303809D01*
X180614723Y-126303809D02*
X180567104Y-126256190D01*
X180567104Y-126256190D02*
X180471866Y-126208571D01*
X180471866Y-126208571D02*
X180233771Y-126208571D01*
X180233771Y-126208571D02*
X180138533Y-126256190D01*
X180138533Y-126256190D02*
X180090914Y-126303809D01*
X180090914Y-126303809D02*
X180043295Y-126399047D01*
X180043295Y-126399047D02*
X180043295Y-126637142D01*
X180043295Y-126637142D02*
X180090914Y-126732380D01*
X180090914Y-126732380D02*
X180138533Y-126780000D01*
X180138533Y-126780000D02*
X180233771Y-126827619D01*
X180233771Y-126827619D02*
X180471866Y-126827619D01*
X180471866Y-126827619D02*
X180567104Y-126780000D01*
X180567104Y-126780000D02*
X180614723Y-126732380D01*
X193327257Y-54570980D02*
X193374876Y-54618600D01*
X193374876Y-54618600D02*
X193517733Y-54666219D01*
X193517733Y-54666219D02*
X193612971Y-54666219D01*
X193612971Y-54666219D02*
X193755828Y-54618600D01*
X193755828Y-54618600D02*
X193851066Y-54523361D01*
X193851066Y-54523361D02*
X193898685Y-54428123D01*
X193898685Y-54428123D02*
X193946304Y-54237647D01*
X193946304Y-54237647D02*
X193946304Y-54094790D01*
X193946304Y-54094790D02*
X193898685Y-53904314D01*
X193898685Y-53904314D02*
X193851066Y-53809076D01*
X193851066Y-53809076D02*
X193755828Y-53713838D01*
X193755828Y-53713838D02*
X193612971Y-53666219D01*
X193612971Y-53666219D02*
X193517733Y-53666219D01*
X193517733Y-53666219D02*
X193374876Y-53713838D01*
X193374876Y-53713838D02*
X193327257Y-53761457D01*
X192374876Y-54666219D02*
X192946304Y-54666219D01*
X192660590Y-54666219D02*
X192660590Y-53666219D01*
X192660590Y-53666219D02*
X192755828Y-53809076D01*
X192755828Y-53809076D02*
X192851066Y-53904314D01*
X192851066Y-53904314D02*
X192946304Y-53951933D01*
X191517733Y-53999552D02*
X191517733Y-54666219D01*
X191755828Y-53618600D02*
X191993923Y-54332885D01*
X191993923Y-54332885D02*
X191374876Y-54332885D01*
X112079066Y-110019180D02*
X112126685Y-110066800D01*
X112126685Y-110066800D02*
X112269542Y-110114419D01*
X112269542Y-110114419D02*
X112364780Y-110114419D01*
X112364780Y-110114419D02*
X112507637Y-110066800D01*
X112507637Y-110066800D02*
X112602875Y-109971561D01*
X112602875Y-109971561D02*
X112650494Y-109876323D01*
X112650494Y-109876323D02*
X112698113Y-109685847D01*
X112698113Y-109685847D02*
X112698113Y-109542990D01*
X112698113Y-109542990D02*
X112650494Y-109352514D01*
X112650494Y-109352514D02*
X112602875Y-109257276D01*
X112602875Y-109257276D02*
X112507637Y-109162038D01*
X112507637Y-109162038D02*
X112364780Y-109114419D01*
X112364780Y-109114419D02*
X112269542Y-109114419D01*
X112269542Y-109114419D02*
X112126685Y-109162038D01*
X112126685Y-109162038D02*
X112079066Y-109209657D01*
X111507637Y-109542990D02*
X111602875Y-109495371D01*
X111602875Y-109495371D02*
X111650494Y-109447752D01*
X111650494Y-109447752D02*
X111698113Y-109352514D01*
X111698113Y-109352514D02*
X111698113Y-109304895D01*
X111698113Y-109304895D02*
X111650494Y-109209657D01*
X111650494Y-109209657D02*
X111602875Y-109162038D01*
X111602875Y-109162038D02*
X111507637Y-109114419D01*
X111507637Y-109114419D02*
X111317161Y-109114419D01*
X111317161Y-109114419D02*
X111221923Y-109162038D01*
X111221923Y-109162038D02*
X111174304Y-109209657D01*
X111174304Y-109209657D02*
X111126685Y-109304895D01*
X111126685Y-109304895D02*
X111126685Y-109352514D01*
X111126685Y-109352514D02*
X111174304Y-109447752D01*
X111174304Y-109447752D02*
X111221923Y-109495371D01*
X111221923Y-109495371D02*
X111317161Y-109542990D01*
X111317161Y-109542990D02*
X111507637Y-109542990D01*
X111507637Y-109542990D02*
X111602875Y-109590609D01*
X111602875Y-109590609D02*
X111650494Y-109638228D01*
X111650494Y-109638228D02*
X111698113Y-109733466D01*
X111698113Y-109733466D02*
X111698113Y-109923942D01*
X111698113Y-109923942D02*
X111650494Y-110019180D01*
X111650494Y-110019180D02*
X111602875Y-110066800D01*
X111602875Y-110066800D02*
X111507637Y-110114419D01*
X111507637Y-110114419D02*
X111317161Y-110114419D01*
X111317161Y-110114419D02*
X111221923Y-110066800D01*
X111221923Y-110066800D02*
X111174304Y-110019180D01*
X111174304Y-110019180D02*
X111126685Y-109923942D01*
X111126685Y-109923942D02*
X111126685Y-109733466D01*
X111126685Y-109733466D02*
X111174304Y-109638228D01*
X111174304Y-109638228D02*
X111221923Y-109590609D01*
X111221923Y-109590609D02*
X111317161Y-109542990D01*
X114746066Y-110069980D02*
X114793685Y-110117600D01*
X114793685Y-110117600D02*
X114936542Y-110165219D01*
X114936542Y-110165219D02*
X115031780Y-110165219D01*
X115031780Y-110165219D02*
X115174637Y-110117600D01*
X115174637Y-110117600D02*
X115269875Y-110022361D01*
X115269875Y-110022361D02*
X115317494Y-109927123D01*
X115317494Y-109927123D02*
X115365113Y-109736647D01*
X115365113Y-109736647D02*
X115365113Y-109593790D01*
X115365113Y-109593790D02*
X115317494Y-109403314D01*
X115317494Y-109403314D02*
X115269875Y-109308076D01*
X115269875Y-109308076D02*
X115174637Y-109212838D01*
X115174637Y-109212838D02*
X115031780Y-109165219D01*
X115031780Y-109165219D02*
X114936542Y-109165219D01*
X114936542Y-109165219D02*
X114793685Y-109212838D01*
X114793685Y-109212838D02*
X114746066Y-109260457D01*
X114412732Y-109165219D02*
X113746066Y-109165219D01*
X113746066Y-109165219D02*
X114174637Y-110165219D01*
X111063066Y-117537580D02*
X111110685Y-117585200D01*
X111110685Y-117585200D02*
X111253542Y-117632819D01*
X111253542Y-117632819D02*
X111348780Y-117632819D01*
X111348780Y-117632819D02*
X111491637Y-117585200D01*
X111491637Y-117585200D02*
X111586875Y-117489961D01*
X111586875Y-117489961D02*
X111634494Y-117394723D01*
X111634494Y-117394723D02*
X111682113Y-117204247D01*
X111682113Y-117204247D02*
X111682113Y-117061390D01*
X111682113Y-117061390D02*
X111634494Y-116870914D01*
X111634494Y-116870914D02*
X111586875Y-116775676D01*
X111586875Y-116775676D02*
X111491637Y-116680438D01*
X111491637Y-116680438D02*
X111348780Y-116632819D01*
X111348780Y-116632819D02*
X111253542Y-116632819D01*
X111253542Y-116632819D02*
X111110685Y-116680438D01*
X111110685Y-116680438D02*
X111063066Y-116728057D01*
X110205923Y-116632819D02*
X110396399Y-116632819D01*
X110396399Y-116632819D02*
X110491637Y-116680438D01*
X110491637Y-116680438D02*
X110539256Y-116728057D01*
X110539256Y-116728057D02*
X110634494Y-116870914D01*
X110634494Y-116870914D02*
X110682113Y-117061390D01*
X110682113Y-117061390D02*
X110682113Y-117442342D01*
X110682113Y-117442342D02*
X110634494Y-117537580D01*
X110634494Y-117537580D02*
X110586875Y-117585200D01*
X110586875Y-117585200D02*
X110491637Y-117632819D01*
X110491637Y-117632819D02*
X110301161Y-117632819D01*
X110301161Y-117632819D02*
X110205923Y-117585200D01*
X110205923Y-117585200D02*
X110158304Y-117537580D01*
X110158304Y-117537580D02*
X110110685Y-117442342D01*
X110110685Y-117442342D02*
X110110685Y-117204247D01*
X110110685Y-117204247D02*
X110158304Y-117109009D01*
X110158304Y-117109009D02*
X110205923Y-117061390D01*
X110205923Y-117061390D02*
X110301161Y-117013771D01*
X110301161Y-117013771D02*
X110491637Y-117013771D01*
X110491637Y-117013771D02*
X110586875Y-117061390D01*
X110586875Y-117061390D02*
X110634494Y-117109009D01*
X110634494Y-117109009D02*
X110682113Y-117204247D01*
X113628466Y-117562980D02*
X113676085Y-117610600D01*
X113676085Y-117610600D02*
X113818942Y-117658219D01*
X113818942Y-117658219D02*
X113914180Y-117658219D01*
X113914180Y-117658219D02*
X114057037Y-117610600D01*
X114057037Y-117610600D02*
X114152275Y-117515361D01*
X114152275Y-117515361D02*
X114199894Y-117420123D01*
X114199894Y-117420123D02*
X114247513Y-117229647D01*
X114247513Y-117229647D02*
X114247513Y-117086790D01*
X114247513Y-117086790D02*
X114199894Y-116896314D01*
X114199894Y-116896314D02*
X114152275Y-116801076D01*
X114152275Y-116801076D02*
X114057037Y-116705838D01*
X114057037Y-116705838D02*
X113914180Y-116658219D01*
X113914180Y-116658219D02*
X113818942Y-116658219D01*
X113818942Y-116658219D02*
X113676085Y-116705838D01*
X113676085Y-116705838D02*
X113628466Y-116753457D01*
X112723704Y-116658219D02*
X113199894Y-116658219D01*
X113199894Y-116658219D02*
X113247513Y-117134409D01*
X113247513Y-117134409D02*
X113199894Y-117086790D01*
X113199894Y-117086790D02*
X113104656Y-117039171D01*
X113104656Y-117039171D02*
X112866561Y-117039171D01*
X112866561Y-117039171D02*
X112771323Y-117086790D01*
X112771323Y-117086790D02*
X112723704Y-117134409D01*
X112723704Y-117134409D02*
X112676085Y-117229647D01*
X112676085Y-117229647D02*
X112676085Y-117467742D01*
X112676085Y-117467742D02*
X112723704Y-117562980D01*
X112723704Y-117562980D02*
X112771323Y-117610600D01*
X112771323Y-117610600D02*
X112866561Y-117658219D01*
X112866561Y-117658219D02*
X113104656Y-117658219D01*
X113104656Y-117658219D02*
X113199894Y-117610600D01*
X113199894Y-117610600D02*
X113247513Y-117562980D01*
X104027266Y-60362180D02*
X104074885Y-60409800D01*
X104074885Y-60409800D02*
X104217742Y-60457419D01*
X104217742Y-60457419D02*
X104312980Y-60457419D01*
X104312980Y-60457419D02*
X104455837Y-60409800D01*
X104455837Y-60409800D02*
X104551075Y-60314561D01*
X104551075Y-60314561D02*
X104598694Y-60219323D01*
X104598694Y-60219323D02*
X104646313Y-60028847D01*
X104646313Y-60028847D02*
X104646313Y-59885990D01*
X104646313Y-59885990D02*
X104598694Y-59695514D01*
X104598694Y-59695514D02*
X104551075Y-59600276D01*
X104551075Y-59600276D02*
X104455837Y-59505038D01*
X104455837Y-59505038D02*
X104312980Y-59457419D01*
X104312980Y-59457419D02*
X104217742Y-59457419D01*
X104217742Y-59457419D02*
X104074885Y-59505038D01*
X104074885Y-59505038D02*
X104027266Y-59552657D01*
X103170123Y-59790752D02*
X103170123Y-60457419D01*
X103408218Y-59409800D02*
X103646313Y-60124085D01*
X103646313Y-60124085D02*
X103027266Y-60124085D01*
X169660866Y-69531580D02*
X169708485Y-69579200D01*
X169708485Y-69579200D02*
X169851342Y-69626819D01*
X169851342Y-69626819D02*
X169946580Y-69626819D01*
X169946580Y-69626819D02*
X170089437Y-69579200D01*
X170089437Y-69579200D02*
X170184675Y-69483961D01*
X170184675Y-69483961D02*
X170232294Y-69388723D01*
X170232294Y-69388723D02*
X170279913Y-69198247D01*
X170279913Y-69198247D02*
X170279913Y-69055390D01*
X170279913Y-69055390D02*
X170232294Y-68864914D01*
X170232294Y-68864914D02*
X170184675Y-68769676D01*
X170184675Y-68769676D02*
X170089437Y-68674438D01*
X170089437Y-68674438D02*
X169946580Y-68626819D01*
X169946580Y-68626819D02*
X169851342Y-68626819D01*
X169851342Y-68626819D02*
X169708485Y-68674438D01*
X169708485Y-68674438D02*
X169660866Y-68722057D01*
X169327532Y-68626819D02*
X168708485Y-68626819D01*
X168708485Y-68626819D02*
X169041818Y-69007771D01*
X169041818Y-69007771D02*
X168898961Y-69007771D01*
X168898961Y-69007771D02*
X168803723Y-69055390D01*
X168803723Y-69055390D02*
X168756104Y-69103009D01*
X168756104Y-69103009D02*
X168708485Y-69198247D01*
X168708485Y-69198247D02*
X168708485Y-69436342D01*
X168708485Y-69436342D02*
X168756104Y-69531580D01*
X168756104Y-69531580D02*
X168803723Y-69579200D01*
X168803723Y-69579200D02*
X168898961Y-69626819D01*
X168898961Y-69626819D02*
X169184675Y-69626819D01*
X169184675Y-69626819D02*
X169279913Y-69579200D01*
X169279913Y-69579200D02*
X169327532Y-69531580D01*
X132526066Y-86981380D02*
X132573685Y-87029000D01*
X132573685Y-87029000D02*
X132716542Y-87076619D01*
X132716542Y-87076619D02*
X132811780Y-87076619D01*
X132811780Y-87076619D02*
X132954637Y-87029000D01*
X132954637Y-87029000D02*
X133049875Y-86933761D01*
X133049875Y-86933761D02*
X133097494Y-86838523D01*
X133097494Y-86838523D02*
X133145113Y-86648047D01*
X133145113Y-86648047D02*
X133145113Y-86505190D01*
X133145113Y-86505190D02*
X133097494Y-86314714D01*
X133097494Y-86314714D02*
X133049875Y-86219476D01*
X133049875Y-86219476D02*
X132954637Y-86124238D01*
X132954637Y-86124238D02*
X132811780Y-86076619D01*
X132811780Y-86076619D02*
X132716542Y-86076619D01*
X132716542Y-86076619D02*
X132573685Y-86124238D01*
X132573685Y-86124238D02*
X132526066Y-86171857D01*
X132145113Y-86171857D02*
X132097494Y-86124238D01*
X132097494Y-86124238D02*
X132002256Y-86076619D01*
X132002256Y-86076619D02*
X131764161Y-86076619D01*
X131764161Y-86076619D02*
X131668923Y-86124238D01*
X131668923Y-86124238D02*
X131621304Y-86171857D01*
X131621304Y-86171857D02*
X131573685Y-86267095D01*
X131573685Y-86267095D02*
X131573685Y-86362333D01*
X131573685Y-86362333D02*
X131621304Y-86505190D01*
X131621304Y-86505190D02*
X132192732Y-87076619D01*
X132192732Y-87076619D02*
X131573685Y-87076619D01*
X193714666Y-62978380D02*
X193762285Y-63026000D01*
X193762285Y-63026000D02*
X193905142Y-63073619D01*
X193905142Y-63073619D02*
X194000380Y-63073619D01*
X194000380Y-63073619D02*
X194143237Y-63026000D01*
X194143237Y-63026000D02*
X194238475Y-62930761D01*
X194238475Y-62930761D02*
X194286094Y-62835523D01*
X194286094Y-62835523D02*
X194333713Y-62645047D01*
X194333713Y-62645047D02*
X194333713Y-62502190D01*
X194333713Y-62502190D02*
X194286094Y-62311714D01*
X194286094Y-62311714D02*
X194238475Y-62216476D01*
X194238475Y-62216476D02*
X194143237Y-62121238D01*
X194143237Y-62121238D02*
X194000380Y-62073619D01*
X194000380Y-62073619D02*
X193905142Y-62073619D01*
X193905142Y-62073619D02*
X193762285Y-62121238D01*
X193762285Y-62121238D02*
X193714666Y-62168857D01*
X192762285Y-63073619D02*
X193333713Y-63073619D01*
X193047999Y-63073619D02*
X193047999Y-62073619D01*
X193047999Y-62073619D02*
X193143237Y-62216476D01*
X193143237Y-62216476D02*
X193238475Y-62311714D01*
X193238475Y-62311714D02*
X193333713Y-62359333D01*
D11*
X84848723Y-57935704D02*
X84372533Y-57935704D01*
X84943961Y-58221419D02*
X84610628Y-57221419D01*
X84610628Y-57221419D02*
X84277295Y-58221419D01*
X84039199Y-57221419D02*
X83420152Y-57221419D01*
X83420152Y-57221419D02*
X83753485Y-57602371D01*
X83753485Y-57602371D02*
X83610628Y-57602371D01*
X83610628Y-57602371D02*
X83515390Y-57649990D01*
X83515390Y-57649990D02*
X83467771Y-57697609D01*
X83467771Y-57697609D02*
X83420152Y-57792847D01*
X83420152Y-57792847D02*
X83420152Y-58030942D01*
X83420152Y-58030942D02*
X83467771Y-58126180D01*
X83467771Y-58126180D02*
X83515390Y-58173800D01*
X83515390Y-58173800D02*
X83610628Y-58221419D01*
X83610628Y-58221419D02*
X83896342Y-58221419D01*
X83896342Y-58221419D02*
X83991580Y-58173800D01*
X83991580Y-58173800D02*
X84039199Y-58126180D01*
X82801104Y-57221419D02*
X82705866Y-57221419D01*
X82705866Y-57221419D02*
X82610628Y-57269038D01*
X82610628Y-57269038D02*
X82563009Y-57316657D01*
X82563009Y-57316657D02*
X82515390Y-57411895D01*
X82515390Y-57411895D02*
X82467771Y-57602371D01*
X82467771Y-57602371D02*
X82467771Y-57840466D01*
X82467771Y-57840466D02*
X82515390Y-58030942D01*
X82515390Y-58030942D02*
X82563009Y-58126180D01*
X82563009Y-58126180D02*
X82610628Y-58173800D01*
X82610628Y-58173800D02*
X82705866Y-58221419D01*
X82705866Y-58221419D02*
X82801104Y-58221419D01*
X82801104Y-58221419D02*
X82896342Y-58173800D01*
X82896342Y-58173800D02*
X82943961Y-58126180D01*
X82943961Y-58126180D02*
X82991580Y-58030942D01*
X82991580Y-58030942D02*
X83039199Y-57840466D01*
X83039199Y-57840466D02*
X83039199Y-57602371D01*
X83039199Y-57602371D02*
X82991580Y-57411895D01*
X82991580Y-57411895D02*
X82943961Y-57316657D01*
X82943961Y-57316657D02*
X82896342Y-57269038D01*
X82896342Y-57269038D02*
X82801104Y-57221419D01*
X159169123Y-57453104D02*
X158692933Y-57453104D01*
X159264361Y-57738819D02*
X158931028Y-56738819D01*
X158931028Y-56738819D02*
X158597695Y-57738819D01*
X157740552Y-57738819D02*
X158311980Y-57738819D01*
X158026266Y-57738819D02*
X158026266Y-56738819D01*
X158026266Y-56738819D02*
X158121504Y-56881676D01*
X158121504Y-56881676D02*
X158216742Y-56976914D01*
X158216742Y-56976914D02*
X158311980Y-57024533D01*
X139264923Y-76586419D02*
X139264923Y-75586419D01*
X139264923Y-75586419D02*
X138931590Y-76300704D01*
X138931590Y-76300704D02*
X138598257Y-75586419D01*
X138598257Y-75586419D02*
X138598257Y-76586419D01*
X138074447Y-76586419D02*
X137883971Y-76586419D01*
X137883971Y-76586419D02*
X137788733Y-76538800D01*
X137788733Y-76538800D02*
X137741114Y-76491180D01*
X137741114Y-76491180D02*
X137645876Y-76348323D01*
X137645876Y-76348323D02*
X137598257Y-76157847D01*
X137598257Y-76157847D02*
X137598257Y-75776895D01*
X137598257Y-75776895D02*
X137645876Y-75681657D01*
X137645876Y-75681657D02*
X137693495Y-75634038D01*
X137693495Y-75634038D02*
X137788733Y-75586419D01*
X137788733Y-75586419D02*
X137979209Y-75586419D01*
X137979209Y-75586419D02*
X138074447Y-75634038D01*
X138074447Y-75634038D02*
X138122066Y-75681657D01*
X138122066Y-75681657D02*
X138169685Y-75776895D01*
X138169685Y-75776895D02*
X138169685Y-76014990D01*
X138169685Y-76014990D02*
X138122066Y-76110228D01*
X138122066Y-76110228D02*
X138074447Y-76157847D01*
X138074447Y-76157847D02*
X137979209Y-76205466D01*
X137979209Y-76205466D02*
X137788733Y-76205466D01*
X137788733Y-76205466D02*
X137693495Y-76157847D01*
X137693495Y-76157847D02*
X137645876Y-76110228D01*
X137645876Y-76110228D02*
X137598257Y-76014990D01*
X165325323Y-85171619D02*
X165325323Y-84171619D01*
X165325323Y-84171619D02*
X164991990Y-84885904D01*
X164991990Y-84885904D02*
X164658657Y-84171619D01*
X164658657Y-84171619D02*
X164658657Y-85171619D01*
X163706276Y-84171619D02*
X164182466Y-84171619D01*
X164182466Y-84171619D02*
X164230085Y-84647809D01*
X164230085Y-84647809D02*
X164182466Y-84600190D01*
X164182466Y-84600190D02*
X164087228Y-84552571D01*
X164087228Y-84552571D02*
X163849133Y-84552571D01*
X163849133Y-84552571D02*
X163753895Y-84600190D01*
X163753895Y-84600190D02*
X163706276Y-84647809D01*
X163706276Y-84647809D02*
X163658657Y-84743047D01*
X163658657Y-84743047D02*
X163658657Y-84981142D01*
X163658657Y-84981142D02*
X163706276Y-85076380D01*
X163706276Y-85076380D02*
X163753895Y-85124000D01*
X163753895Y-85124000D02*
X163849133Y-85171619D01*
X163849133Y-85171619D02*
X164087228Y-85171619D01*
X164087228Y-85171619D02*
X164182466Y-85124000D01*
X164182466Y-85124000D02*
X164230085Y-85076380D01*
X142668523Y-100310019D02*
X142668523Y-99310019D01*
X142668523Y-99310019D02*
X142335190Y-100024304D01*
X142335190Y-100024304D02*
X142001857Y-99310019D01*
X142001857Y-99310019D02*
X142001857Y-100310019D01*
X141620904Y-99310019D02*
X140954238Y-99310019D01*
X140954238Y-99310019D02*
X141382809Y-100310019D01*
X113934713Y-77958019D02*
X113934713Y-76958019D01*
X113934713Y-76958019D02*
X113601380Y-77672304D01*
X113601380Y-77672304D02*
X113268047Y-76958019D01*
X113268047Y-76958019D02*
X113268047Y-77958019D01*
X112268047Y-77958019D02*
X112839475Y-77958019D01*
X112553761Y-77958019D02*
X112553761Y-76958019D01*
X112553761Y-76958019D02*
X112648999Y-77100876D01*
X112648999Y-77100876D02*
X112744237Y-77196114D01*
X112744237Y-77196114D02*
X112839475Y-77243733D01*
X111648999Y-76958019D02*
X111553761Y-76958019D01*
X111553761Y-76958019D02*
X111458523Y-77005638D01*
X111458523Y-77005638D02*
X111410904Y-77053257D01*
X111410904Y-77053257D02*
X111363285Y-77148495D01*
X111363285Y-77148495D02*
X111315666Y-77338971D01*
X111315666Y-77338971D02*
X111315666Y-77577066D01*
X111315666Y-77577066D02*
X111363285Y-77767542D01*
X111363285Y-77767542D02*
X111410904Y-77862780D01*
X111410904Y-77862780D02*
X111458523Y-77910400D01*
X111458523Y-77910400D02*
X111553761Y-77958019D01*
X111553761Y-77958019D02*
X111648999Y-77958019D01*
X111648999Y-77958019D02*
X111744237Y-77910400D01*
X111744237Y-77910400D02*
X111791856Y-77862780D01*
X111791856Y-77862780D02*
X111839475Y-77767542D01*
X111839475Y-77767542D02*
X111887094Y-77577066D01*
X111887094Y-77577066D02*
X111887094Y-77338971D01*
X111887094Y-77338971D02*
X111839475Y-77148495D01*
X111839475Y-77148495D02*
X111791856Y-77053257D01*
X111791856Y-77053257D02*
X111744237Y-77005638D01*
X111744237Y-77005638D02*
X111648999Y-76958019D01*
D10*
X180344580Y-119512419D02*
X180344580Y-118512419D01*
X179296962Y-119417180D02*
X179344581Y-119464800D01*
X179344581Y-119464800D02*
X179487438Y-119512419D01*
X179487438Y-119512419D02*
X179582676Y-119512419D01*
X179582676Y-119512419D02*
X179725533Y-119464800D01*
X179725533Y-119464800D02*
X179820771Y-119369561D01*
X179820771Y-119369561D02*
X179868390Y-119274323D01*
X179868390Y-119274323D02*
X179916009Y-119083847D01*
X179916009Y-119083847D02*
X179916009Y-118940990D01*
X179916009Y-118940990D02*
X179868390Y-118750514D01*
X179868390Y-118750514D02*
X179820771Y-118655276D01*
X179820771Y-118655276D02*
X179725533Y-118560038D01*
X179725533Y-118560038D02*
X179582676Y-118512419D01*
X179582676Y-118512419D02*
X179487438Y-118512419D01*
X179487438Y-118512419D02*
X179344581Y-118560038D01*
X179344581Y-118560038D02*
X179296962Y-118607657D01*
X178916009Y-118607657D02*
X178868390Y-118560038D01*
X178868390Y-118560038D02*
X178773152Y-118512419D01*
X178773152Y-118512419D02*
X178535057Y-118512419D01*
X178535057Y-118512419D02*
X178439819Y-118560038D01*
X178439819Y-118560038D02*
X178392200Y-118607657D01*
X178392200Y-118607657D02*
X178344581Y-118702895D01*
X178344581Y-118702895D02*
X178344581Y-118798133D01*
X178344581Y-118798133D02*
X178392200Y-118940990D01*
X178392200Y-118940990D02*
X178963628Y-119512419D01*
X178963628Y-119512419D02*
X178344581Y-119512419D01*
X177725533Y-118512419D02*
X177630295Y-118512419D01*
X177630295Y-118512419D02*
X177535057Y-118560038D01*
X177535057Y-118560038D02*
X177487438Y-118607657D01*
X177487438Y-118607657D02*
X177439819Y-118702895D01*
X177439819Y-118702895D02*
X177392200Y-118893371D01*
X177392200Y-118893371D02*
X177392200Y-119131466D01*
X177392200Y-119131466D02*
X177439819Y-119321942D01*
X177439819Y-119321942D02*
X177487438Y-119417180D01*
X177487438Y-119417180D02*
X177535057Y-119464800D01*
X177535057Y-119464800D02*
X177630295Y-119512419D01*
X177630295Y-119512419D02*
X177725533Y-119512419D01*
X177725533Y-119512419D02*
X177820771Y-119464800D01*
X177820771Y-119464800D02*
X177868390Y-119417180D01*
X177868390Y-119417180D02*
X177916009Y-119321942D01*
X177916009Y-119321942D02*
X177963628Y-119131466D01*
X177963628Y-119131466D02*
X177963628Y-118893371D01*
X177963628Y-118893371D02*
X177916009Y-118702895D01*
X177916009Y-118702895D02*
X177868390Y-118607657D01*
X177868390Y-118607657D02*
X177820771Y-118560038D01*
X177820771Y-118560038D02*
X177725533Y-118512419D01*
D11*
X177165095Y-112780619D02*
X177736523Y-112780619D01*
X177450809Y-112780619D02*
X177450809Y-111780619D01*
X177450809Y-111780619D02*
X177546047Y-111923476D01*
X177546047Y-111923476D02*
X177641285Y-112018714D01*
X177641285Y-112018714D02*
X177736523Y-112066333D01*
X162496523Y-111367857D02*
X162448904Y-111320238D01*
X162448904Y-111320238D02*
X162353666Y-111272619D01*
X162353666Y-111272619D02*
X162115571Y-111272619D01*
X162115571Y-111272619D02*
X162020333Y-111320238D01*
X162020333Y-111320238D02*
X161972714Y-111367857D01*
X161972714Y-111367857D02*
X161925095Y-111463095D01*
X161925095Y-111463095D02*
X161925095Y-111558333D01*
X161925095Y-111558333D02*
X161972714Y-111701190D01*
X161972714Y-111701190D02*
X162544142Y-112272619D01*
X162544142Y-112272619D02*
X161925095Y-112272619D01*
X161306047Y-111272619D02*
X161210809Y-111272619D01*
X161210809Y-111272619D02*
X161115571Y-111320238D01*
X161115571Y-111320238D02*
X161067952Y-111367857D01*
X161067952Y-111367857D02*
X161020333Y-111463095D01*
X161020333Y-111463095D02*
X160972714Y-111653571D01*
X160972714Y-111653571D02*
X160972714Y-111891666D01*
X160972714Y-111891666D02*
X161020333Y-112082142D01*
X161020333Y-112082142D02*
X161067952Y-112177380D01*
X161067952Y-112177380D02*
X161115571Y-112225000D01*
X161115571Y-112225000D02*
X161210809Y-112272619D01*
X161210809Y-112272619D02*
X161306047Y-112272619D01*
X161306047Y-112272619D02*
X161401285Y-112225000D01*
X161401285Y-112225000D02*
X161448904Y-112177380D01*
X161448904Y-112177380D02*
X161496523Y-112082142D01*
X161496523Y-112082142D02*
X161544142Y-111891666D01*
X161544142Y-111891666D02*
X161544142Y-111653571D01*
X161544142Y-111653571D02*
X161496523Y-111463095D01*
X161496523Y-111463095D02*
X161448904Y-111367857D01*
X161448904Y-111367857D02*
X161401285Y-111320238D01*
X161401285Y-111320238D02*
X161306047Y-111272619D01*
D10*
X169134619Y-114340095D02*
X169134619Y-115006761D01*
X169134619Y-115006761D02*
X170134619Y-114578190D01*
X169467952Y-115816285D02*
X170134619Y-115816285D01*
X169087000Y-115578190D02*
X169801285Y-115340095D01*
X169801285Y-115340095D02*
X169801285Y-115959142D01*
X170134619Y-116340095D02*
X169134619Y-116340095D01*
X169610809Y-116340095D02*
X169610809Y-116911523D01*
X170134619Y-116911523D02*
X169134619Y-116911523D01*
X170039380Y-117959142D02*
X170087000Y-117911523D01*
X170087000Y-117911523D02*
X170134619Y-117768666D01*
X170134619Y-117768666D02*
X170134619Y-117673428D01*
X170134619Y-117673428D02*
X170087000Y-117530571D01*
X170087000Y-117530571D02*
X169991761Y-117435333D01*
X169991761Y-117435333D02*
X169896523Y-117387714D01*
X169896523Y-117387714D02*
X169706047Y-117340095D01*
X169706047Y-117340095D02*
X169563190Y-117340095D01*
X169563190Y-117340095D02*
X169372714Y-117387714D01*
X169372714Y-117387714D02*
X169277476Y-117435333D01*
X169277476Y-117435333D02*
X169182238Y-117530571D01*
X169182238Y-117530571D02*
X169134619Y-117673428D01*
X169134619Y-117673428D02*
X169134619Y-117768666D01*
X169134619Y-117768666D02*
X169182238Y-117911523D01*
X169182238Y-117911523D02*
X169229857Y-117959142D01*
X169229857Y-118340095D02*
X169182238Y-118387714D01*
X169182238Y-118387714D02*
X169134619Y-118482952D01*
X169134619Y-118482952D02*
X169134619Y-118721047D01*
X169134619Y-118721047D02*
X169182238Y-118816285D01*
X169182238Y-118816285D02*
X169229857Y-118863904D01*
X169229857Y-118863904D02*
X169325095Y-118911523D01*
X169325095Y-118911523D02*
X169420333Y-118911523D01*
X169420333Y-118911523D02*
X169563190Y-118863904D01*
X169563190Y-118863904D02*
X170134619Y-118292476D01*
X170134619Y-118292476D02*
X170134619Y-118911523D01*
X169467952Y-119768666D02*
X170134619Y-119768666D01*
X169087000Y-119530571D02*
X169801285Y-119292476D01*
X169801285Y-119292476D02*
X169801285Y-119911523D01*
X169134619Y-120768666D02*
X169134619Y-120292476D01*
X169134619Y-120292476D02*
X169610809Y-120244857D01*
X169610809Y-120244857D02*
X169563190Y-120292476D01*
X169563190Y-120292476D02*
X169515571Y-120387714D01*
X169515571Y-120387714D02*
X169515571Y-120625809D01*
X169515571Y-120625809D02*
X169563190Y-120721047D01*
X169563190Y-120721047D02*
X169610809Y-120768666D01*
X169610809Y-120768666D02*
X169706047Y-120816285D01*
X169706047Y-120816285D02*
X169944142Y-120816285D01*
X169944142Y-120816285D02*
X170039380Y-120768666D01*
X170039380Y-120768666D02*
X170087000Y-120721047D01*
X170087000Y-120721047D02*
X170134619Y-120625809D01*
X170134619Y-120625809D02*
X170134619Y-120387714D01*
X170134619Y-120387714D02*
X170087000Y-120292476D01*
X170087000Y-120292476D02*
X170039380Y-120244857D01*
D11*
X163195095Y-124210619D02*
X163766523Y-124210619D01*
X163480809Y-124210619D02*
X163480809Y-123210619D01*
X163480809Y-123210619D02*
X163576047Y-123353476D01*
X163576047Y-123353476D02*
X163671285Y-123448714D01*
X163671285Y-123448714D02*
X163766523Y-123496333D01*
X162242714Y-124210619D02*
X162814142Y-124210619D01*
X162528428Y-124210619D02*
X162528428Y-123210619D01*
X162528428Y-123210619D02*
X162623666Y-123353476D01*
X162623666Y-123353476D02*
X162718904Y-123448714D01*
X162718904Y-123448714D02*
X162814142Y-123496333D01*
X155927323Y-94315619D02*
X155927323Y-93315619D01*
X155927323Y-93315619D02*
X155593990Y-94029904D01*
X155593990Y-94029904D02*
X155260657Y-93315619D01*
X155260657Y-93315619D02*
X155260657Y-94315619D01*
X154879704Y-93315619D02*
X154260657Y-93315619D01*
X154260657Y-93315619D02*
X154593990Y-93696571D01*
X154593990Y-93696571D02*
X154451133Y-93696571D01*
X154451133Y-93696571D02*
X154355895Y-93744190D01*
X154355895Y-93744190D02*
X154308276Y-93791809D01*
X154308276Y-93791809D02*
X154260657Y-93887047D01*
X154260657Y-93887047D02*
X154260657Y-94125142D01*
X154260657Y-94125142D02*
X154308276Y-94220380D01*
X154308276Y-94220380D02*
X154355895Y-94268000D01*
X154355895Y-94268000D02*
X154451133Y-94315619D01*
X154451133Y-94315619D02*
X154736847Y-94315619D01*
X154736847Y-94315619D02*
X154832085Y-94268000D01*
X154832085Y-94268000D02*
X154879704Y-94220380D01*
X198802523Y-60787619D02*
X198802523Y-59787619D01*
X198802523Y-59787619D02*
X198469190Y-60501904D01*
X198469190Y-60501904D02*
X198135857Y-59787619D01*
X198135857Y-59787619D02*
X198135857Y-60787619D01*
X197469190Y-59787619D02*
X197373952Y-59787619D01*
X197373952Y-59787619D02*
X197278714Y-59835238D01*
X197278714Y-59835238D02*
X197231095Y-59882857D01*
X197231095Y-59882857D02*
X197183476Y-59978095D01*
X197183476Y-59978095D02*
X197135857Y-60168571D01*
X197135857Y-60168571D02*
X197135857Y-60406666D01*
X197135857Y-60406666D02*
X197183476Y-60597142D01*
X197183476Y-60597142D02*
X197231095Y-60692380D01*
X197231095Y-60692380D02*
X197278714Y-60740000D01*
X197278714Y-60740000D02*
X197373952Y-60787619D01*
X197373952Y-60787619D02*
X197469190Y-60787619D01*
X197469190Y-60787619D02*
X197564428Y-60740000D01*
X197564428Y-60740000D02*
X197612047Y-60692380D01*
X197612047Y-60692380D02*
X197659666Y-60597142D01*
X197659666Y-60597142D02*
X197707285Y-60406666D01*
X197707285Y-60406666D02*
X197707285Y-60168571D01*
X197707285Y-60168571D02*
X197659666Y-59978095D01*
X197659666Y-59978095D02*
X197612047Y-59882857D01*
X197612047Y-59882857D02*
X197564428Y-59835238D01*
X197564428Y-59835238D02*
X197469190Y-59787619D01*
X107711713Y-68864819D02*
X107711713Y-67864819D01*
X107711713Y-67864819D02*
X107378380Y-68579104D01*
X107378380Y-68579104D02*
X107045047Y-67864819D01*
X107045047Y-67864819D02*
X107045047Y-68864819D01*
X106045047Y-68864819D02*
X106616475Y-68864819D01*
X106330761Y-68864819D02*
X106330761Y-67864819D01*
X106330761Y-67864819D02*
X106425999Y-68007676D01*
X106425999Y-68007676D02*
X106521237Y-68102914D01*
X106521237Y-68102914D02*
X106616475Y-68150533D01*
X105092666Y-68864819D02*
X105664094Y-68864819D01*
X105378380Y-68864819D02*
X105378380Y-67864819D01*
X105378380Y-67864819D02*
X105473618Y-68007676D01*
X105473618Y-68007676D02*
X105568856Y-68102914D01*
X105568856Y-68102914D02*
X105664094Y-68150533D01*
X161159723Y-85171619D02*
X161159723Y-84171619D01*
X161159723Y-84171619D02*
X160826390Y-84885904D01*
X160826390Y-84885904D02*
X160493057Y-84171619D01*
X160493057Y-84171619D02*
X160493057Y-85171619D01*
X159588295Y-84171619D02*
X159778771Y-84171619D01*
X159778771Y-84171619D02*
X159874009Y-84219238D01*
X159874009Y-84219238D02*
X159921628Y-84266857D01*
X159921628Y-84266857D02*
X160016866Y-84409714D01*
X160016866Y-84409714D02*
X160064485Y-84600190D01*
X160064485Y-84600190D02*
X160064485Y-84981142D01*
X160064485Y-84981142D02*
X160016866Y-85076380D01*
X160016866Y-85076380D02*
X159969247Y-85124000D01*
X159969247Y-85124000D02*
X159874009Y-85171619D01*
X159874009Y-85171619D02*
X159683533Y-85171619D01*
X159683533Y-85171619D02*
X159588295Y-85124000D01*
X159588295Y-85124000D02*
X159540676Y-85076380D01*
X159540676Y-85076380D02*
X159493057Y-84981142D01*
X159493057Y-84981142D02*
X159493057Y-84743047D01*
X159493057Y-84743047D02*
X159540676Y-84647809D01*
X159540676Y-84647809D02*
X159588295Y-84600190D01*
X159588295Y-84600190D02*
X159683533Y-84552571D01*
X159683533Y-84552571D02*
X159874009Y-84552571D01*
X159874009Y-84552571D02*
X159969247Y-84600190D01*
X159969247Y-84600190D02*
X160016866Y-84647809D01*
X160016866Y-84647809D02*
X160064485Y-84743047D01*
X149526523Y-98227219D02*
X149526523Y-97227219D01*
X149526523Y-97227219D02*
X149193190Y-97941504D01*
X149193190Y-97941504D02*
X148859857Y-97227219D01*
X148859857Y-97227219D02*
X148859857Y-98227219D01*
X147955095Y-97560552D02*
X147955095Y-98227219D01*
X148193190Y-97179600D02*
X148431285Y-97893885D01*
X148431285Y-97893885D02*
X147812238Y-97893885D01*
X131136923Y-82276019D02*
X131136923Y-81276019D01*
X131136923Y-81276019D02*
X130803590Y-81990304D01*
X130803590Y-81990304D02*
X130470257Y-81276019D01*
X130470257Y-81276019D02*
X130470257Y-82276019D01*
X129851209Y-81704590D02*
X129946447Y-81656971D01*
X129946447Y-81656971D02*
X129994066Y-81609352D01*
X129994066Y-81609352D02*
X130041685Y-81514114D01*
X130041685Y-81514114D02*
X130041685Y-81466495D01*
X130041685Y-81466495D02*
X129994066Y-81371257D01*
X129994066Y-81371257D02*
X129946447Y-81323638D01*
X129946447Y-81323638D02*
X129851209Y-81276019D01*
X129851209Y-81276019D02*
X129660733Y-81276019D01*
X129660733Y-81276019D02*
X129565495Y-81323638D01*
X129565495Y-81323638D02*
X129517876Y-81371257D01*
X129517876Y-81371257D02*
X129470257Y-81466495D01*
X129470257Y-81466495D02*
X129470257Y-81514114D01*
X129470257Y-81514114D02*
X129517876Y-81609352D01*
X129517876Y-81609352D02*
X129565495Y-81656971D01*
X129565495Y-81656971D02*
X129660733Y-81704590D01*
X129660733Y-81704590D02*
X129851209Y-81704590D01*
X129851209Y-81704590D02*
X129946447Y-81752209D01*
X129946447Y-81752209D02*
X129994066Y-81799828D01*
X129994066Y-81799828D02*
X130041685Y-81895066D01*
X130041685Y-81895066D02*
X130041685Y-82085542D01*
X130041685Y-82085542D02*
X129994066Y-82180780D01*
X129994066Y-82180780D02*
X129946447Y-82228400D01*
X129946447Y-82228400D02*
X129851209Y-82276019D01*
X129851209Y-82276019D02*
X129660733Y-82276019D01*
X129660733Y-82276019D02*
X129565495Y-82228400D01*
X129565495Y-82228400D02*
X129517876Y-82180780D01*
X129517876Y-82180780D02*
X129470257Y-82085542D01*
X129470257Y-82085542D02*
X129470257Y-81895066D01*
X129470257Y-81895066D02*
X129517876Y-81799828D01*
X129517876Y-81799828D02*
X129565495Y-81752209D01*
X129565495Y-81752209D02*
X129660733Y-81704590D01*
X146580123Y-99700419D02*
X146580123Y-98700419D01*
X146580123Y-98700419D02*
X146246790Y-99414704D01*
X146246790Y-99414704D02*
X145913457Y-98700419D01*
X145913457Y-98700419D02*
X145913457Y-99700419D01*
X144913457Y-99700419D02*
X145484885Y-99700419D01*
X145199171Y-99700419D02*
X145199171Y-98700419D01*
X145199171Y-98700419D02*
X145294409Y-98843276D01*
X145294409Y-98843276D02*
X145389647Y-98938514D01*
X145389647Y-98938514D02*
X145484885Y-98986133D01*
X157425923Y-87711619D02*
X157425923Y-86711619D01*
X157425923Y-86711619D02*
X157092590Y-87425904D01*
X157092590Y-87425904D02*
X156759257Y-86711619D01*
X156759257Y-86711619D02*
X156759257Y-87711619D01*
X156330685Y-86806857D02*
X156283066Y-86759238D01*
X156283066Y-86759238D02*
X156187828Y-86711619D01*
X156187828Y-86711619D02*
X155949733Y-86711619D01*
X155949733Y-86711619D02*
X155854495Y-86759238D01*
X155854495Y-86759238D02*
X155806876Y-86806857D01*
X155806876Y-86806857D02*
X155759257Y-86902095D01*
X155759257Y-86902095D02*
X155759257Y-86997333D01*
X155759257Y-86997333D02*
X155806876Y-87140190D01*
X155806876Y-87140190D02*
X156378304Y-87711619D01*
X156378304Y-87711619D02*
X155759257Y-87711619D01*
D10*
X196301000Y-117763000D02*
X200701000Y-117763000D01*
X200701000Y-117763000D02*
X200701000Y-115663000D01*
X200701000Y-115663000D02*
X196301000Y-115663000D01*
X196301000Y-115663000D02*
X196301000Y-117763000D01*
X196301000Y-115223000D02*
X200701000Y-115223000D01*
X200701000Y-115223000D02*
X200701000Y-113123000D01*
X200701000Y-113123000D02*
X196301000Y-113123000D01*
X196301000Y-113123000D02*
X196301000Y-115223000D01*
X226856000Y-126025000D02*
X224756000Y-126025000D01*
X224756000Y-126025000D02*
X224756000Y-121625000D01*
X224756000Y-121625000D02*
X226856000Y-121625000D01*
X226856000Y-121625000D02*
X226856000Y-126025000D01*
X226348000Y-81051000D02*
X224248000Y-81051000D01*
X224248000Y-81051000D02*
X224248000Y-76651000D01*
X224248000Y-76651000D02*
X226348000Y-76651000D01*
X226348000Y-76651000D02*
X226348000Y-81051000D01*
X196428000Y-90458000D02*
X200828000Y-90458000D01*
X200828000Y-90458000D02*
X200828000Y-88358000D01*
X200828000Y-88358000D02*
X196428000Y-88358000D01*
X196428000Y-88358000D02*
X196428000Y-90458000D01*
X132928000Y-103920000D02*
X137328000Y-103920000D01*
X137328000Y-103920000D02*
X137328000Y-101820000D01*
X137328000Y-101820000D02*
X132928000Y-101820000D01*
X132928000Y-101820000D02*
X132928000Y-103920000D01*
X136618000Y-93431000D02*
X138718000Y-93431000D01*
X138718000Y-93431000D02*
X138718000Y-97831000D01*
X138718000Y-97831000D02*
X136618000Y-97831000D01*
X136618000Y-97831000D02*
X136618000Y-93431000D01*
X110270000Y-71542000D02*
X108170000Y-71542000D01*
X108170000Y-71542000D02*
X108170000Y-67142000D01*
X108170000Y-67142000D02*
X110270000Y-67142000D01*
X110270000Y-67142000D02*
X110270000Y-71542000D01*
X165440000Y-110778000D02*
X169840000Y-110778000D01*
X169840000Y-110778000D02*
X169840000Y-108678000D01*
X169840000Y-108678000D02*
X165440000Y-108678000D01*
X165440000Y-108678000D02*
X165440000Y-110778000D01*
X60105000Y-80051000D02*
X58005000Y-80051000D01*
X58005000Y-80051000D02*
X58005000Y-75651000D01*
X58005000Y-75651000D02*
X60105000Y-75651000D01*
X60105000Y-75651000D02*
X60105000Y-80051000D01*
X92415000Y-62264000D02*
X96815000Y-62264000D01*
X96815000Y-62264000D02*
X96815000Y-60164000D01*
X96815000Y-60164000D02*
X92415000Y-60164000D01*
X92415000Y-60164000D02*
X92415000Y-62264000D01*
X88993000Y-109814000D02*
X91093000Y-109814000D01*
X91093000Y-109814000D02*
X91093000Y-114214000D01*
X91093000Y-114214000D02*
X88993000Y-114214000D01*
X88993000Y-114214000D02*
X88993000Y-109814000D01*
X62958000Y-97749000D02*
X65058000Y-97749000D01*
X65058000Y-97749000D02*
X65058000Y-102149000D01*
X65058000Y-102149000D02*
X62958000Y-102149000D01*
X62958000Y-102149000D02*
X62958000Y-97749000D01*
X62958000Y-111084000D02*
X65058000Y-111084000D01*
X65058000Y-111084000D02*
X65058000Y-115484000D01*
X65058000Y-115484000D02*
X62958000Y-115484000D01*
X62958000Y-115484000D02*
X62958000Y-111084000D01*
X86326000Y-109814000D02*
X88426000Y-109814000D01*
X88426000Y-109814000D02*
X88426000Y-114214000D01*
X88426000Y-114214000D02*
X86326000Y-114214000D01*
X86326000Y-114214000D02*
X86326000Y-109814000D01*
X68995000Y-81956000D02*
X66895000Y-81956000D01*
X66895000Y-81956000D02*
X66895000Y-77556000D01*
X66895000Y-77556000D02*
X68995000Y-77556000D01*
X68995000Y-77556000D02*
X68995000Y-81956000D01*
X67777000Y-63026000D02*
X72177000Y-63026000D01*
X72177000Y-63026000D02*
X72177000Y-60926000D01*
X72177000Y-60926000D02*
X67777000Y-60926000D01*
X67777000Y-60926000D02*
X67777000Y-63026000D01*
X85818000Y-83271000D02*
X87918000Y-83271000D01*
X87918000Y-83271000D02*
X87918000Y-87671000D01*
X87918000Y-87671000D02*
X85818000Y-87671000D01*
X85818000Y-87671000D02*
X85818000Y-83271000D01*
X215248200Y-94148000D02*
X213148200Y-94148000D01*
X213148200Y-94148000D02*
X213148200Y-89748000D01*
X213148200Y-89748000D02*
X215248200Y-89748000D01*
X215248200Y-89748000D02*
X215248200Y-94148000D01*
X215248200Y-74488400D02*
X213148200Y-74488400D01*
X213148200Y-74488400D02*
X213148200Y-70088400D01*
X213148200Y-70088400D02*
X215248200Y-70088400D01*
X215248200Y-70088400D02*
X215248200Y-74488400D01*
X222411000Y-96053000D02*
X220311000Y-96053000D01*
X220311000Y-96053000D02*
X220311000Y-91653000D01*
X220311000Y-91653000D02*
X222411000Y-91653000D01*
X222411000Y-91653000D02*
X222411000Y-96053000D01*
X222538000Y-73849500D02*
X220438000Y-73849500D01*
X220438000Y-73849500D02*
X220438000Y-69449500D01*
X220438000Y-69449500D02*
X222538000Y-69449500D01*
X222538000Y-69449500D02*
X222538000Y-73849500D01*
X222411000Y-89068000D02*
X220311000Y-89068000D01*
X220311000Y-89068000D02*
X220311000Y-84668000D01*
X220311000Y-84668000D02*
X222411000Y-84668000D01*
X222411000Y-84668000D02*
X222411000Y-89068000D01*
X214113400Y-64983000D02*
X216213400Y-64983000D01*
X216213400Y-64983000D02*
X216213400Y-69383000D01*
X216213400Y-69383000D02*
X214113400Y-69383000D01*
X214113400Y-69383000D02*
X214113400Y-64983000D01*
X213148200Y-84718800D02*
X215248200Y-84718800D01*
X215248200Y-84718800D02*
X215248200Y-89118800D01*
X215248200Y-89118800D02*
X213148200Y-89118800D01*
X213148200Y-89118800D02*
X213148200Y-84718800D01*
X210913000Y-64983000D02*
X213013000Y-64983000D01*
X213013000Y-64983000D02*
X213013000Y-69383000D01*
X213013000Y-69383000D02*
X210913000Y-69383000D01*
X210913000Y-69383000D02*
X210913000Y-64983000D01*
X191475000Y-71408000D02*
X195875000Y-71408000D01*
X195875000Y-71408000D02*
X195875000Y-69308000D01*
X195875000Y-69308000D02*
X191475000Y-69308000D01*
X191475000Y-69308000D02*
X191475000Y-71408000D01*
X200821000Y-88179000D02*
X198721000Y-88179000D01*
X198721000Y-88179000D02*
X198721000Y-83779000D01*
X198721000Y-83779000D02*
X200821000Y-83779000D01*
X200821000Y-83779000D02*
X200821000Y-88179000D01*
X151291000Y-119167000D02*
X149191000Y-119167000D01*
X149191000Y-119167000D02*
X149191000Y-114767000D01*
X149191000Y-114767000D02*
X151291000Y-114767000D01*
X151291000Y-114767000D02*
X151291000Y-119167000D01*
X146390000Y-108873000D02*
X150790000Y-108873000D01*
X150790000Y-108873000D02*
X150790000Y-106773000D01*
X150790000Y-106773000D02*
X146390000Y-106773000D01*
X146390000Y-106773000D02*
X146390000Y-108873000D01*
X149055800Y-119167000D02*
X146955800Y-119167000D01*
X146955800Y-119167000D02*
X146955800Y-114767000D01*
X146955800Y-114767000D02*
X149055800Y-114767000D01*
X149055800Y-114767000D02*
X149055800Y-119167000D01*
X146390000Y-111032000D02*
X150790000Y-111032000D01*
X150790000Y-111032000D02*
X150790000Y-108932000D01*
X150790000Y-108932000D02*
X146390000Y-108932000D01*
X146390000Y-108932000D02*
X146390000Y-111032000D01*
X146846000Y-119167000D02*
X144746000Y-119167000D01*
X144746000Y-119167000D02*
X144746000Y-114767000D01*
X144746000Y-114767000D02*
X146846000Y-114767000D01*
X146846000Y-114767000D02*
X146846000Y-119167000D01*
X146390000Y-113191000D02*
X150790000Y-113191000D01*
X150790000Y-113191000D02*
X150790000Y-111091000D01*
X150790000Y-111091000D02*
X146390000Y-111091000D01*
X146390000Y-111091000D02*
X146390000Y-113191000D01*
X174892700Y-128812000D02*
X179292700Y-128812000D01*
X179292700Y-128812000D02*
X179292700Y-126712000D01*
X179292700Y-126712000D02*
X174892700Y-126712000D01*
X174892700Y-126712000D02*
X174892700Y-128812000D01*
X174892700Y-126653000D02*
X179292700Y-126653000D01*
X179292700Y-126653000D02*
X179292700Y-124553000D01*
X179292700Y-124553000D02*
X174892700Y-124553000D01*
X174892700Y-124553000D02*
X174892700Y-126653000D01*
X195748000Y-55338000D02*
X191348000Y-55338000D01*
X191348000Y-55338000D02*
X191348000Y-57438000D01*
X191348000Y-57438000D02*
X195748000Y-57438000D01*
X195748000Y-57438000D02*
X195748000Y-55338000D01*
X111218000Y-110576000D02*
X113318000Y-110576000D01*
X113318000Y-110576000D02*
X113318000Y-114976000D01*
X113318000Y-114976000D02*
X111218000Y-114976000D01*
X111218000Y-114976000D02*
X111218000Y-110576000D01*
X113631000Y-110576000D02*
X115731000Y-110576000D01*
X115731000Y-110576000D02*
X115731000Y-114976000D01*
X115731000Y-114976000D02*
X113631000Y-114976000D01*
X113631000Y-114976000D02*
X113631000Y-110576000D01*
X109948000Y-118196000D02*
X112048000Y-118196000D01*
X112048000Y-118196000D02*
X112048000Y-122596000D01*
X112048000Y-122596000D02*
X109948000Y-122596000D01*
X109948000Y-122596000D02*
X109948000Y-118196000D01*
X112488000Y-118196000D02*
X114588000Y-118196000D01*
X114588000Y-118196000D02*
X114588000Y-122596000D01*
X114588000Y-122596000D02*
X112488000Y-122596000D01*
X112488000Y-122596000D02*
X112488000Y-118196000D01*
X100423000Y-56601000D02*
X102523000Y-56601000D01*
X102523000Y-56601000D02*
X102523000Y-61001000D01*
X102523000Y-61001000D02*
X100423000Y-61001000D01*
X100423000Y-61001000D02*
X100423000Y-56601000D01*
X170468000Y-68113000D02*
X168368000Y-68113000D01*
X168368000Y-68113000D02*
X168368000Y-63713000D01*
X168368000Y-63713000D02*
X170468000Y-63713000D01*
X170468000Y-63713000D02*
X170468000Y-68113000D01*
X129753000Y-89696000D02*
X134153000Y-89696000D01*
X134153000Y-89696000D02*
X134153000Y-87596000D01*
X134153000Y-87596000D02*
X129753000Y-87596000D01*
X129753000Y-87596000D02*
X129753000Y-89696000D01*
X195748000Y-59529000D02*
X191348000Y-59529000D01*
X191348000Y-59529000D02*
X191348000Y-61629000D01*
X191348000Y-61629000D02*
X195748000Y-61629000D01*
X195748000Y-61629000D02*
X195748000Y-59529000D01*
X137216200Y-77241400D02*
G75*
G03*
X137216200Y-77241400I-1250000J0D01*
G01*
X165765800Y-86791800D02*
G75*
G03*
X165765800Y-86791800I-1250000J0D01*
G01*
X142728000Y-97536000D02*
G75*
G03*
X142728000Y-97536000I-1250000J0D01*
G01*
X113899000Y-75311000D02*
G75*
G03*
X113899000Y-75311000I-1250000J0D01*
G01*
D11*
X171922000Y-124102000D02*
X171922000Y-111102000D01*
X171922000Y-124102000D02*
X167422000Y-124102000D01*
X171922000Y-111102000D02*
X170672000Y-111102000D01*
X167422000Y-124102000D02*
X167422000Y-111102000D01*
X167422000Y-111102000D02*
X168672000Y-111102000D01*
X168672000Y-111102000D02*
G75*
G03*
X170672000Y-111102000I1000000J0D01*
G01*
D12*
X175729605Y-123317000D02*
G75*
G03*
X175729605Y-123317000I-204605J0D01*
G01*
X175729605Y-116948000D02*
G75*
G03*
X175729605Y-116948000I-204605J0D01*
G01*
X164034605Y-111887000D02*
G75*
G03*
X164034605Y-111887000I-204605J0D01*
G01*
D11*
X176160000Y-112187000D02*
X175260000Y-111887000D01*
X176160000Y-111487000D01*
X176160000Y-112187000D01*
G36*
X176160000Y-112187000D02*
G01*
X175260000Y-111887000D01*
X176160000Y-111487000D01*
X176160000Y-112187000D01*
G37*
D10*
X155428000Y-91567000D02*
G75*
G03*
X155428000Y-91567000I-1250000J0D01*
G01*
X199243000Y-62230000D02*
G75*
G03*
X199243000Y-62230000I-1250000J0D01*
G01*
X105161400Y-69875400D02*
G75*
G03*
X105161400Y-69875400I-1250000J0D01*
G01*
X161905000Y-86791800D02*
G75*
G03*
X161905000Y-86791800I-1250000J0D01*
G01*
X149713000Y-95631000D02*
G75*
G03*
X149713000Y-95631000I-1250000J0D01*
G01*
X132034600Y-79324200D02*
G75*
G03*
X132034600Y-79324200I-1250000J0D01*
G01*
X146538000Y-96901000D02*
G75*
G03*
X146538000Y-96901000I-1250000J0D01*
G01*
X157079000Y-89281000D02*
G75*
G03*
X157079000Y-89281000I-1250000J0D01*
G01*
%LPC*%
D13*
X231990539Y-107721400D02*
G75*
G03*
X231990539Y-107721400I-1383939J0D01*
G01*
G36*
X231105200Y-48285400D02*
G01*
X232105200Y-48285400D01*
X232105200Y-134696200D01*
X231105200Y-134696200D01*
X231105200Y-48285400D01*
G37*
D10*
X225145600Y-132435600D02*
X227914200Y-132435600D01*
X227914200Y-135255000D01*
X225145600Y-135255000D01*
X225145600Y-132435600D01*
G36*
X225145600Y-132435600D02*
G01*
X227914200Y-132435600D01*
X227914200Y-135255000D01*
X225145600Y-135255000D01*
X225145600Y-132435600D01*
G37*
G36*
X46202600Y-135728200D02*
G01*
X234086400Y-135728200D01*
X234086400Y-136702800D01*
X46202600Y-136702800D01*
X46202600Y-135728200D01*
G37*
G36*
X48234600Y-48742600D02*
G01*
X49242600Y-48742600D01*
X49242600Y-132816600D01*
X48234600Y-132816600D01*
X48234600Y-48742600D01*
G37*
G36*
X46202600Y-47091600D02*
G01*
X47202600Y-47091600D01*
X47202600Y-136702800D01*
X46202600Y-136702800D01*
X46202600Y-47091600D01*
G37*
G36*
X173202600Y-48285400D02*
G01*
X232105200Y-48285400D01*
X232105200Y-49269400D01*
X173202600Y-49269400D01*
X173202600Y-48285400D01*
G37*
G36*
X50749200Y-133696200D02*
G01*
X224561400Y-133696200D01*
X224561400Y-134696200D01*
X50749200Y-134696200D01*
X50749200Y-133696200D01*
G37*
G36*
X46202600Y-46253400D02*
G01*
X68097400Y-46253400D01*
X68097400Y-47253400D01*
X46202600Y-47253400D01*
X46202600Y-46253400D01*
G37*
G36*
X173202600Y-46278800D02*
G01*
X234086400Y-46278800D01*
X234086400Y-47261400D01*
X173202600Y-47261400D01*
X173202600Y-46278800D01*
G37*
X51714400Y-51231800D02*
X54483000Y-51231800D01*
X54483000Y-54051200D01*
X51714400Y-54051200D01*
X51714400Y-51231800D01*
G36*
X51714400Y-51231800D02*
G01*
X54483000Y-51231800D01*
X54483000Y-54051200D01*
X51714400Y-54051200D01*
X51714400Y-51231800D01*
G37*
G36*
X228473000Y-133696200D02*
G01*
X232105200Y-133696200D01*
X232105200Y-134696200D01*
X228473000Y-134696200D01*
X228473000Y-133696200D01*
G37*
G36*
X233086400Y-46278800D02*
G01*
X234086400Y-46278800D01*
X234086400Y-136702800D01*
X233086400Y-136702800D01*
X233086400Y-46278800D01*
G37*
G36*
X48234600Y-48242600D02*
G01*
X68148200Y-48242600D01*
X68148200Y-49242600D01*
X48234600Y-49242600D01*
X48234600Y-48242600D01*
G37*
D14*
X197358000Y-116713000D03*
X199644000Y-116713000D03*
X197358000Y-114173000D03*
X199644000Y-114173000D03*
D15*
X225806000Y-124968000D03*
X225806000Y-122682000D03*
X225298000Y-79994000D03*
X225298000Y-77708000D03*
D14*
X197485000Y-89408000D03*
X199771000Y-89408000D03*
X133985000Y-102870000D03*
X136271000Y-102870000D03*
D16*
X137668000Y-94488000D03*
X137668000Y-96774000D03*
D15*
X109220000Y-68199000D03*
X109220000Y-70485000D03*
D14*
X166497000Y-109728000D03*
X168783000Y-109728000D03*
D15*
X59055000Y-78994000D03*
X59055000Y-76708000D03*
D14*
X93472000Y-61214000D03*
X95758000Y-61214000D03*
D16*
X90043000Y-110871000D03*
X90043000Y-113157000D03*
X64008000Y-98806000D03*
X64008000Y-101092000D03*
X64008000Y-112141000D03*
X64008000Y-114427000D03*
X87376000Y-110871000D03*
X87376000Y-113157000D03*
D15*
X67945000Y-80899000D03*
X67945000Y-78613000D03*
D14*
X68834000Y-61976000D03*
X71120000Y-61976000D03*
D16*
X86868000Y-84328000D03*
X86868000Y-86614000D03*
D15*
X214198200Y-93091000D03*
X214198200Y-90805000D03*
X214198200Y-73431400D03*
X214198200Y-71145400D03*
X221361000Y-94996000D03*
X221361000Y-92710000D03*
X221488000Y-72792500D03*
X221488000Y-70506500D03*
X221361000Y-88011000D03*
X221361000Y-85725000D03*
D16*
X215163400Y-66040000D03*
X215163400Y-68326000D03*
X214198200Y-85775800D03*
X214198200Y-88061800D03*
X211963000Y-66040000D03*
X211963000Y-68326000D03*
D14*
X192532000Y-70358000D03*
X194818000Y-70358000D03*
D15*
X199771000Y-87122000D03*
X199771000Y-84836000D03*
X150241000Y-118110000D03*
X150241000Y-115824000D03*
D14*
X147447000Y-107823000D03*
X149733000Y-107823000D03*
D15*
X148005800Y-118110000D03*
X148005800Y-115824000D03*
D14*
X147447000Y-109982000D03*
X149733000Y-109982000D03*
D15*
X145796000Y-118110000D03*
X145796000Y-115824000D03*
D14*
X147447000Y-112141000D03*
X149733000Y-112141000D03*
X175949700Y-127762000D03*
X178235700Y-127762000D03*
X175949700Y-125603000D03*
X178235700Y-125603000D03*
D17*
X194691000Y-56388000D03*
X192405000Y-56388000D03*
D16*
X112268000Y-111633000D03*
X112268000Y-113919000D03*
X114681000Y-111633000D03*
X114681000Y-113919000D03*
X110998000Y-119253000D03*
X110998000Y-121539000D03*
X113538000Y-119253000D03*
X113538000Y-121539000D03*
X101473000Y-57658000D03*
X101473000Y-59944000D03*
D15*
X169418000Y-67056000D03*
X169418000Y-64770000D03*
D14*
X130810000Y-88646000D03*
X133096000Y-88646000D03*
D17*
X194691000Y-60579000D03*
X192405000Y-60579000D03*
D18*
X187833000Y-77978000D03*
D19*
X203073000Y-77978000D03*
X203073000Y-70358000D03*
X187833000Y-70358000D03*
D20*
X211963000Y-121158000D03*
D21*
X209423000Y-119888000D03*
X211963000Y-118618000D03*
X209423000Y-117348000D03*
X211963000Y-116078000D03*
X209423000Y-114808000D03*
X211963000Y-113538000D03*
X209423000Y-112268000D03*
X211963000Y-110998000D03*
X209423000Y-109728000D03*
X211963000Y-108458000D03*
X209423000Y-107188000D03*
X211963000Y-105918000D03*
X209423000Y-104648000D03*
X211963000Y-103378000D03*
X209423000Y-102108000D03*
X211963000Y-100838000D03*
X209423000Y-99568000D03*
X211963000Y-98298000D03*
X209423000Y-97028000D03*
X211963000Y-95758000D03*
X209423000Y-94488000D03*
X211963000Y-93218000D03*
X209423000Y-91948000D03*
X211963000Y-90678000D03*
X209423000Y-89408000D03*
X211963000Y-88138000D03*
X209423000Y-86868000D03*
X211963000Y-85598000D03*
X209423000Y-84328000D03*
X211963000Y-83058000D03*
X209423000Y-81788000D03*
X211963000Y-80518000D03*
X209423000Y-79248000D03*
X211963000Y-77978000D03*
X209423000Y-76708000D03*
X211963000Y-75438000D03*
X209423000Y-74168000D03*
X211963000Y-72898000D03*
X209423000Y-71628000D03*
D19*
X175848000Y-80441800D03*
X180848000Y-80441800D03*
X163195000Y-118618000D03*
X158195000Y-118618000D03*
D22*
X108758000Y-128651000D03*
D23*
X110008000Y-126111000D03*
X111258000Y-128651000D03*
X112508000Y-126111000D03*
X113758000Y-128651000D03*
X115008000Y-126111000D03*
X116258000Y-128651000D03*
X117508000Y-126111000D03*
X118758000Y-128651000D03*
X120008000Y-126111000D03*
X121258000Y-128651000D03*
X122508000Y-126111000D03*
X123758000Y-128651000D03*
X125008000Y-126111000D03*
X126258000Y-128651000D03*
X127508000Y-126111000D03*
X128758000Y-128651000D03*
X130008000Y-126111000D03*
X131258000Y-128651000D03*
X132508000Y-126111000D03*
X133758000Y-128651000D03*
X135008000Y-126111000D03*
X136258000Y-128651000D03*
X137508000Y-126111000D03*
X138758000Y-128651000D03*
D24*
X119380000Y-114757200D03*
D25*
X120650000Y-112217200D03*
X121920000Y-114757200D03*
X123190000Y-112217200D03*
X124460000Y-114757200D03*
X125730000Y-112217200D03*
X127000000Y-114757200D03*
X128270000Y-112217200D03*
X129540000Y-114757200D03*
X130810000Y-112217200D03*
X132080000Y-114757200D03*
X133350000Y-112217200D03*
X134620000Y-114757200D03*
X135890000Y-112217200D03*
X137160000Y-114757200D03*
X138430000Y-112217200D03*
X139700000Y-114757200D03*
X140970000Y-112217200D03*
X142240000Y-114757200D03*
X143510000Y-112217200D03*
D19*
X55245000Y-81026000D03*
X55245000Y-86026000D03*
D26*
X56642000Y-125980200D03*
X56642000Y-120980200D03*
D27*
X225628200Y-84861400D03*
X225628200Y-87401400D03*
D20*
X218948000Y-121158000D03*
D21*
X216408000Y-119888000D03*
X218948000Y-118618000D03*
X216408000Y-117348000D03*
X218948000Y-116078000D03*
X216408000Y-114808000D03*
X218948000Y-113538000D03*
X216408000Y-112268000D03*
X218948000Y-110998000D03*
X216408000Y-109728000D03*
X218948000Y-108458000D03*
X216408000Y-107188000D03*
X218948000Y-105918000D03*
X216408000Y-104648000D03*
X218948000Y-103378000D03*
X216408000Y-102108000D03*
X218948000Y-100838000D03*
X216408000Y-99568000D03*
X218948000Y-98298000D03*
X216408000Y-97028000D03*
X218948000Y-95758000D03*
X216408000Y-94488000D03*
X218948000Y-93218000D03*
X216408000Y-91948000D03*
X218948000Y-90678000D03*
X216408000Y-89408000D03*
X218948000Y-88138000D03*
X216408000Y-86868000D03*
X218948000Y-85598000D03*
X216408000Y-84328000D03*
X218948000Y-83058000D03*
X216408000Y-81788000D03*
X218948000Y-80518000D03*
X216408000Y-79248000D03*
X218948000Y-77978000D03*
X216408000Y-76708000D03*
X218948000Y-75438000D03*
X216408000Y-74168000D03*
X218948000Y-72898000D03*
X216408000Y-71628000D03*
D28*
X57150000Y-91279000D03*
D29*
X59690000Y-92529000D03*
X57150000Y-93779000D03*
X59690000Y-95029000D03*
X57150000Y-96279000D03*
X59690000Y-97529000D03*
X57150000Y-98779000D03*
X59690000Y-100029000D03*
X57150000Y-101279000D03*
X59690000Y-102529000D03*
X57150000Y-103779000D03*
X59690000Y-105029000D03*
X57150000Y-106279000D03*
X59690000Y-107529000D03*
X57150000Y-108779000D03*
X59690000Y-110029000D03*
X57150000Y-111279000D03*
X59690000Y-112529000D03*
X57150000Y-113779000D03*
X59690000Y-115029000D03*
X57150000Y-116279000D03*
D19*
X169418000Y-60198000D03*
X164418000Y-60198000D03*
D30*
X202565000Y-53721000D03*
X202565000Y-63881000D03*
X217805000Y-58801000D03*
X220345000Y-58801000D03*
D24*
X119380000Y-119888000D03*
D25*
X120650000Y-117348000D03*
X121920000Y-119888000D03*
X123190000Y-117348000D03*
X124460000Y-119888000D03*
X125730000Y-117348000D03*
X127000000Y-119888000D03*
X128270000Y-117348000D03*
X129540000Y-119888000D03*
X130810000Y-117348000D03*
X132080000Y-119888000D03*
X133350000Y-117348000D03*
X134620000Y-119888000D03*
X135890000Y-117348000D03*
X137160000Y-119888000D03*
X138430000Y-117348000D03*
X139700000Y-119888000D03*
X140970000Y-117348000D03*
X142240000Y-119888000D03*
X143510000Y-117348000D03*
D31*
X157480000Y-50800000D03*
X154940000Y-50800000D03*
X152400000Y-50800000D03*
X149860000Y-50800000D03*
X147320000Y-50800000D03*
X144780000Y-50800000D03*
X142240000Y-50800000D03*
X139700000Y-50800000D03*
X137160000Y-50800000D03*
X134620000Y-50800000D03*
X132080000Y-50800000D03*
X129540000Y-50800000D03*
X127000000Y-50800000D03*
X124460000Y-50800000D03*
X121920000Y-50800000D03*
X119380000Y-50800000D03*
X116840000Y-50800000D03*
X114300000Y-50800000D03*
X111760000Y-50800000D03*
X109220000Y-50800000D03*
X106680000Y-50800000D03*
X104140000Y-50800000D03*
X101600000Y-50800000D03*
X99060000Y-50800000D03*
X96520000Y-50800000D03*
X93980000Y-50800000D03*
X91440000Y-50800000D03*
X88900000Y-50800000D03*
X86360000Y-50800000D03*
X83820000Y-50800000D03*
D24*
X119380000Y-109601000D03*
D25*
X120650000Y-107061000D03*
X121920000Y-109601000D03*
X123190000Y-107061000D03*
X124460000Y-109601000D03*
X125730000Y-107061000D03*
X127000000Y-109601000D03*
X128270000Y-107061000D03*
X129540000Y-109601000D03*
X130810000Y-107061000D03*
X132080000Y-109601000D03*
X133350000Y-107061000D03*
X134620000Y-109601000D03*
X135890000Y-107061000D03*
X137160000Y-109601000D03*
X138430000Y-107061000D03*
X139700000Y-109601000D03*
X140970000Y-107061000D03*
X142240000Y-109601000D03*
X143510000Y-107061000D03*
D32*
X190343800Y-128016000D03*
X185343800Y-128016000D03*
D24*
X148590000Y-128651000D03*
D25*
X149860000Y-126111000D03*
X151130000Y-128651000D03*
X152400000Y-126111000D03*
X153670000Y-128651000D03*
X154940000Y-126111000D03*
X156210000Y-128651000D03*
X157480000Y-126111000D03*
X158750000Y-128651000D03*
X160020000Y-126111000D03*
X161290000Y-128651000D03*
X162560000Y-126111000D03*
X163830000Y-128651000D03*
X165100000Y-126111000D03*
X166370000Y-128651000D03*
X167640000Y-126111000D03*
X168910000Y-128651000D03*
X170180000Y-126111000D03*
X171450000Y-128651000D03*
X172720000Y-126111000D03*
D27*
X225628200Y-127838200D03*
X225628200Y-130378200D03*
D19*
X205613000Y-94314000D03*
X205613000Y-99314000D03*
D18*
X104140000Y-72644000D03*
D27*
X106680000Y-72644000D03*
X109220000Y-72644000D03*
X111760000Y-72644000D03*
X114300000Y-72644000D03*
X116840000Y-72644000D03*
X119380000Y-72644000D03*
X121920000Y-72644000D03*
X124460000Y-72644000D03*
X127000000Y-72644000D03*
X129540000Y-72644000D03*
X132080000Y-72644000D03*
X134620000Y-72644000D03*
X137160000Y-72644000D03*
X139700000Y-72644000D03*
X142240000Y-72644000D03*
X144780000Y-72644000D03*
X147320000Y-72644000D03*
X149860000Y-72644000D03*
X152400000Y-72644000D03*
X152400000Y-57404000D03*
X149860000Y-57404000D03*
X147320000Y-57404000D03*
X144780000Y-57404000D03*
X142240000Y-57404000D03*
X139700000Y-57404000D03*
X137160000Y-57404000D03*
X134620000Y-57404000D03*
X132080000Y-57404000D03*
X129540000Y-57404000D03*
X127000000Y-57404000D03*
X124460000Y-57404000D03*
X121920000Y-57404000D03*
X119380000Y-57404000D03*
X116840000Y-57404000D03*
X114300000Y-57404000D03*
X111760000Y-57404000D03*
X109220000Y-57404000D03*
X106680000Y-57404000D03*
X104140000Y-57404000D03*
D33*
X135966200Y-77241400D03*
X164515800Y-86791800D03*
X141478000Y-97536000D03*
X112649000Y-75311000D03*
D34*
X173355000Y-111887000D03*
X173355000Y-113157000D03*
X173355000Y-114427000D03*
X173355000Y-115697000D03*
X173355000Y-116967000D03*
X173355000Y-118237000D03*
X173355000Y-119507000D03*
X173355000Y-120777000D03*
X173355000Y-122047000D03*
X173355000Y-123317000D03*
X165989000Y-123317000D03*
X165989000Y-122047000D03*
X165989000Y-120777000D03*
X165989000Y-119507000D03*
X165989000Y-118237000D03*
X165989000Y-116967000D03*
X165989000Y-115697000D03*
X165989000Y-114427000D03*
X165989000Y-113157000D03*
X165989000Y-111887000D03*
D33*
X154178000Y-91567000D03*
D35*
X144399000Y-135128000D03*
D33*
X197993000Y-62230000D03*
X103911400Y-69875400D03*
D35*
X163957000Y-63500000D03*
D33*
X160655000Y-86791800D03*
X148463000Y-95631000D03*
X130784600Y-79324200D03*
X145288000Y-96901000D03*
X155829000Y-89281000D03*
%LPD*%
M02*
