G04 #@! TF.GenerationSoftware,KiCad,Pcbnew,7.0.2-0*
G04 #@! TF.CreationDate,2023-08-04T17:58:15+02:00*
G04 #@! TF.ProjectId,MegaCD,4d656761-4344-42e6-9b69-6361645f7063,rev?*
G04 #@! TF.SameCoordinates,Original*
G04 #@! TF.FileFunction,Paste,Top*
G04 #@! TF.FilePolarity,Positive*
%FSLAX46Y46*%
G04 Gerber Fmt 4.6, Leading zero omitted, Abs format (unit mm)*
G04 Created by KiCad (PCBNEW 7.0.2-0) date 2023-08-04 17:58:15*
%MOMM*%
%LPD*%
G01*
G04 APERTURE LIST*
G04 Aperture macros list*
%AMRoundRect*
0 Rectangle with rounded corners*
0 $1 Rounding radius*
0 $2 $3 $4 $5 $6 $7 $8 $9 X,Y pos of 4 corners*
0 Add a 4 corners polygon primitive as box body*
4,1,4,$2,$3,$4,$5,$6,$7,$8,$9,$2,$3,0*
0 Add four circle primitives for the rounded corners*
1,1,$1+$1,$2,$3*
1,1,$1+$1,$4,$5*
1,1,$1+$1,$6,$7*
1,1,$1+$1,$8,$9*
0 Add four rect primitives between the rounded corners*
20,1,$1+$1,$2,$3,$4,$5,0*
20,1,$1+$1,$4,$5,$6,$7,0*
20,1,$1+$1,$6,$7,$8,$9,0*
20,1,$1+$1,$8,$9,$2,$3,0*%
G04 Aperture macros list end*
%ADD10R,0.600000X1.500000*%
%ADD11RoundRect,0.250000X-0.947000X-0.550000X0.947000X-0.550000X0.947000X0.550000X-0.947000X0.550000X0*%
%ADD12RoundRect,0.150000X0.150000X-0.850000X0.150000X0.850000X-0.150000X0.850000X-0.150000X-0.850000X0*%
%ADD13RoundRect,0.250000X0.550000X-0.947000X0.550000X0.947000X-0.550000X0.947000X-0.550000X-0.947000X0*%
%ADD14C,0.750000*%
%ADD15R,0.500000X3.160000*%
%ADD16R,3.160000X0.500000*%
%ADD17RoundRect,0.300000X0.300000X-0.450000X0.300000X0.450000X-0.300000X0.450000X-0.300000X-0.450000X0*%
%ADD18R,1.778000X8.000000*%
%ADD19RoundRect,0.250000X0.947000X0.550000X-0.947000X0.550000X-0.947000X-0.550000X0.947000X-0.550000X0*%
%ADD20R,2.425000X0.700000*%
%ADD21R,0.700000X2.425000*%
%ADD22RoundRect,0.075000X0.075000X-0.787500X0.075000X0.787500X-0.075000X0.787500X-0.075000X-0.787500X0*%
%ADD23RoundRect,0.075000X0.787500X-0.075000X0.787500X0.075000X-0.787500X0.075000X-0.787500X-0.075000X0*%
G04 APERTURE END LIST*
D10*
X52705000Y-76442000D03*
X53975000Y-76442000D03*
X55245000Y-76442000D03*
X56515000Y-76442000D03*
X57785000Y-76442000D03*
X59055000Y-76442000D03*
X60325000Y-76442000D03*
X61595000Y-76442000D03*
X61595000Y-69342000D03*
X60325000Y-69342000D03*
X59055000Y-69342000D03*
X57785000Y-69342000D03*
X56515000Y-69342000D03*
X55245000Y-69342000D03*
X53975000Y-69342000D03*
X52705000Y-69342000D03*
D11*
X148287000Y-116713000D03*
X151481000Y-116713000D03*
D12*
X166243000Y-75438000D03*
X167513000Y-75438000D03*
X168783000Y-75438000D03*
X170053000Y-75438000D03*
X171323000Y-75438000D03*
X172593000Y-75438000D03*
X173863000Y-75438000D03*
X175133000Y-75438000D03*
X176403000Y-75438000D03*
X177673000Y-75438000D03*
X178943000Y-75438000D03*
X180213000Y-75438000D03*
X181483000Y-75438000D03*
X182753000Y-75438000D03*
X182753000Y-64008000D03*
X181483000Y-64008000D03*
X180213000Y-64008000D03*
X178943000Y-64008000D03*
X177673000Y-64008000D03*
X176403000Y-64008000D03*
X175133000Y-64008000D03*
X173863000Y-64008000D03*
X172593000Y-64008000D03*
X171323000Y-64008000D03*
X170053000Y-64008000D03*
X168783000Y-64008000D03*
X167513000Y-64008000D03*
X166243000Y-64008000D03*
D13*
X59563000Y-85820000D03*
X59563000Y-82626000D03*
X177419000Y-127684000D03*
X177419000Y-124490000D03*
D11*
X148287000Y-112395000D03*
X151481000Y-112395000D03*
X148287000Y-108077000D03*
X151481000Y-108077000D03*
D14*
X87877000Y-119993000D03*
X112769000Y-119991000D03*
X87877000Y-101705000D03*
X112769000Y-101703000D03*
D15*
X91123000Y-119866000D03*
X91923000Y-119866000D03*
X92723000Y-119866000D03*
X93523000Y-119866000D03*
X94323000Y-119866000D03*
X95123000Y-119866000D03*
X95923000Y-119866000D03*
X96723000Y-119866000D03*
X97523000Y-119866000D03*
X98323000Y-119866000D03*
X99123000Y-119866000D03*
X99923000Y-119866000D03*
X100723000Y-119866000D03*
X101523000Y-119866000D03*
X102323000Y-119866000D03*
X103123000Y-119866000D03*
X103903000Y-119866000D03*
X104723000Y-119866000D03*
X105523000Y-119866000D03*
X106323000Y-119866000D03*
X107123000Y-119866000D03*
X107923000Y-119866000D03*
X108723000Y-119866000D03*
X109523000Y-119866000D03*
D16*
X112388000Y-116849000D03*
X112388000Y-116049000D03*
X112388000Y-115249000D03*
X112388000Y-114449000D03*
X112388000Y-113649000D03*
X112388000Y-112849000D03*
X112388000Y-112049000D03*
X112388000Y-111249000D03*
X112388000Y-110449000D03*
X112388000Y-109649000D03*
X112388000Y-108849000D03*
X112388000Y-108049000D03*
X112388000Y-107249000D03*
X112388000Y-106449000D03*
X112388000Y-105649000D03*
X112388000Y-104849000D03*
D15*
X109523000Y-101832000D03*
X108723000Y-101832000D03*
X107923000Y-101832000D03*
X107123000Y-101832000D03*
X106323000Y-101832000D03*
X105523000Y-101832000D03*
X104723000Y-101832000D03*
X103923000Y-101832000D03*
X103123000Y-101832000D03*
X102323000Y-101832000D03*
X101523000Y-101832000D03*
X100723000Y-101832000D03*
X99923000Y-101832000D03*
X99123000Y-101832000D03*
X98323000Y-101832000D03*
X97523000Y-101832000D03*
X96723000Y-101832000D03*
X95923000Y-101832000D03*
X95123000Y-101832000D03*
X94323000Y-101832000D03*
X93523000Y-101832000D03*
X92723000Y-101832000D03*
X91923000Y-101832000D03*
X91123000Y-101832000D03*
D16*
X88258000Y-104849000D03*
X88258000Y-105649000D03*
X88258000Y-106449000D03*
X88258000Y-107249000D03*
X88258000Y-108049000D03*
X88258000Y-108849000D03*
X88258000Y-109649000D03*
X88258000Y-110449000D03*
X88258000Y-111249000D03*
X88258000Y-112049000D03*
X88258000Y-112849000D03*
X88258000Y-113649000D03*
X88258000Y-114449000D03*
X88258000Y-115249000D03*
X88258000Y-116049000D03*
X88258000Y-116849000D03*
D13*
X65151000Y-59128000D03*
X65151000Y-55934000D03*
D17*
X223205000Y-115062000D03*
X225105000Y-115062000D03*
X224155000Y-113030000D03*
D12*
X64135000Y-122809000D03*
X65405000Y-122809000D03*
X66675000Y-122809000D03*
X67945000Y-122809000D03*
X69215000Y-122809000D03*
X70485000Y-122809000D03*
X71755000Y-122809000D03*
X73025000Y-122809000D03*
X74295000Y-122809000D03*
X75565000Y-122809000D03*
X76835000Y-122809000D03*
X78105000Y-122809000D03*
X79375000Y-122809000D03*
X80645000Y-122809000D03*
X80645000Y-111379000D03*
X79375000Y-111379000D03*
X78105000Y-111379000D03*
X76835000Y-111379000D03*
X75565000Y-111379000D03*
X74295000Y-111379000D03*
X73025000Y-111379000D03*
X71755000Y-111379000D03*
X70485000Y-111379000D03*
X69215000Y-111379000D03*
X67945000Y-111379000D03*
X66675000Y-111379000D03*
X65405000Y-111379000D03*
X64135000Y-111379000D03*
X65405000Y-74041000D03*
X66675000Y-74041000D03*
X67945000Y-74041000D03*
X69215000Y-74041000D03*
X70485000Y-74041000D03*
X71755000Y-74041000D03*
X73025000Y-74041000D03*
X74295000Y-74041000D03*
X75565000Y-74041000D03*
X76835000Y-74041000D03*
X78105000Y-74041000D03*
X79375000Y-74041000D03*
X80645000Y-74041000D03*
X81915000Y-74041000D03*
X81915000Y-62611000D03*
X80645000Y-62611000D03*
X79375000Y-62611000D03*
X78105000Y-62611000D03*
X76835000Y-62611000D03*
X75565000Y-62611000D03*
X74295000Y-62611000D03*
X73025000Y-62611000D03*
X71755000Y-62611000D03*
X70485000Y-62611000D03*
X69215000Y-62611000D03*
X67945000Y-62611000D03*
X66675000Y-62611000D03*
X65405000Y-62611000D03*
X64135000Y-106426000D03*
X65405000Y-106426000D03*
X66675000Y-106426000D03*
X67945000Y-106426000D03*
X69215000Y-106426000D03*
X70485000Y-106426000D03*
X71755000Y-106426000D03*
X73025000Y-106426000D03*
X74295000Y-106426000D03*
X75565000Y-106426000D03*
X76835000Y-106426000D03*
X78105000Y-106426000D03*
X79375000Y-106426000D03*
X80645000Y-106426000D03*
X80645000Y-94996000D03*
X79375000Y-94996000D03*
X78105000Y-94996000D03*
X76835000Y-94996000D03*
X75565000Y-94996000D03*
X74295000Y-94996000D03*
X73025000Y-94996000D03*
X71755000Y-94996000D03*
X70485000Y-94996000D03*
X69215000Y-94996000D03*
X67945000Y-94996000D03*
X66675000Y-94996000D03*
X65405000Y-94996000D03*
X64135000Y-94996000D03*
D18*
X157480000Y-50800000D03*
X154940000Y-50800000D03*
X152400000Y-50800000D03*
X149860000Y-50800000D03*
X147320000Y-50800000D03*
X144780000Y-50800000D03*
X142240000Y-50800000D03*
X139700000Y-50800000D03*
X137160000Y-50800000D03*
X134620000Y-50800000D03*
X132080000Y-50800000D03*
X129540000Y-50800000D03*
X127000000Y-50800000D03*
X124460000Y-50800000D03*
X121920000Y-50800000D03*
X119380000Y-50800000D03*
X116840000Y-50800000D03*
X114300000Y-50800000D03*
X111760000Y-50800000D03*
X109220000Y-50800000D03*
X106680000Y-50800000D03*
X104140000Y-50800000D03*
X101600000Y-50800000D03*
X99060000Y-50800000D03*
X96520000Y-50800000D03*
X93980000Y-50800000D03*
X91440000Y-50800000D03*
X88900000Y-50800000D03*
X86360000Y-50800000D03*
X83820000Y-50800000D03*
D10*
X190373000Y-62484000D03*
X191643000Y-62484000D03*
X192913000Y-62484000D03*
X194183000Y-62484000D03*
X195453000Y-62484000D03*
X196723000Y-62484000D03*
X197993000Y-62484000D03*
X199263000Y-62484000D03*
X199263000Y-55384000D03*
X197993000Y-55384000D03*
X196723000Y-55384000D03*
X195453000Y-55384000D03*
X194183000Y-55384000D03*
X192913000Y-55384000D03*
X191643000Y-55384000D03*
X190373000Y-55384000D03*
X90830400Y-70027800D03*
X92100400Y-70027800D03*
X93370400Y-70027800D03*
X94640400Y-70027800D03*
X95910400Y-70027800D03*
X97180400Y-70027800D03*
X98450400Y-70027800D03*
X98450400Y-62921800D03*
X97180400Y-62927800D03*
X95910400Y-62927800D03*
X94640400Y-62927800D03*
X93370400Y-62927800D03*
X92100400Y-62927800D03*
X90830400Y-62927800D03*
D17*
X223205000Y-120777000D03*
X225105000Y-120777000D03*
X224155000Y-118745000D03*
D13*
X204978000Y-106880000D03*
X204978000Y-103686000D03*
X118110000Y-85774000D03*
X118110000Y-82580000D03*
D19*
X96871000Y-125730000D03*
X93677000Y-125730000D03*
X211679000Y-126238000D03*
X208485000Y-126238000D03*
D14*
X87877000Y-94615000D03*
X112769000Y-94613000D03*
X87877000Y-76327000D03*
X112769000Y-76325000D03*
D15*
X91123000Y-94488000D03*
X91923000Y-94488000D03*
X92723000Y-94488000D03*
X93523000Y-94488000D03*
X94323000Y-94488000D03*
X95123000Y-94488000D03*
X95923000Y-94488000D03*
X96723000Y-94488000D03*
X97523000Y-94488000D03*
X98323000Y-94488000D03*
X99123000Y-94488000D03*
X99923000Y-94488000D03*
X100723000Y-94488000D03*
X101523000Y-94488000D03*
X102323000Y-94488000D03*
X103123000Y-94488000D03*
X103903000Y-94488000D03*
X104723000Y-94488000D03*
X105523000Y-94488000D03*
X106323000Y-94488000D03*
X107123000Y-94488000D03*
X107923000Y-94488000D03*
X108723000Y-94488000D03*
X109523000Y-94488000D03*
D16*
X112388000Y-91471000D03*
X112388000Y-90671000D03*
X112388000Y-89871000D03*
X112388000Y-89071000D03*
X112388000Y-88271000D03*
X112388000Y-87471000D03*
X112388000Y-86671000D03*
X112388000Y-85871000D03*
X112388000Y-85071000D03*
X112388000Y-84271000D03*
X112388000Y-83471000D03*
X112388000Y-82671000D03*
X112388000Y-81871000D03*
X112388000Y-81071000D03*
X112388000Y-80271000D03*
X112388000Y-79471000D03*
D15*
X109523000Y-76454000D03*
X108723000Y-76454000D03*
X107923000Y-76454000D03*
X107123000Y-76454000D03*
X106323000Y-76454000D03*
X105523000Y-76454000D03*
X104723000Y-76454000D03*
X103923000Y-76454000D03*
X103123000Y-76454000D03*
X102323000Y-76454000D03*
X101523000Y-76454000D03*
X100723000Y-76454000D03*
X99923000Y-76454000D03*
X99123000Y-76454000D03*
X98323000Y-76454000D03*
X97523000Y-76454000D03*
X96723000Y-76454000D03*
X95923000Y-76454000D03*
X95123000Y-76454000D03*
X94323000Y-76454000D03*
X93523000Y-76454000D03*
X92723000Y-76454000D03*
X91923000Y-76454000D03*
X91123000Y-76454000D03*
D16*
X88258000Y-79471000D03*
X88258000Y-80271000D03*
X88258000Y-81071000D03*
X88258000Y-81871000D03*
X88258000Y-82671000D03*
X88258000Y-83471000D03*
X88258000Y-84271000D03*
X88258000Y-85071000D03*
X88258000Y-85871000D03*
X88258000Y-86671000D03*
X88258000Y-87471000D03*
X88258000Y-88271000D03*
X88258000Y-89071000D03*
X88258000Y-89871000D03*
X88258000Y-90671000D03*
X88258000Y-91471000D03*
D14*
X150622000Y-102743000D03*
X123698000Y-75819000D03*
D20*
X125222000Y-89281000D03*
X125222000Y-90551000D03*
X125222000Y-91821000D03*
X125222000Y-93091000D03*
X125222000Y-94361000D03*
X125222000Y-95631000D03*
X125222000Y-96901000D03*
X125222000Y-98171000D03*
X125222000Y-99441000D03*
D21*
X127000000Y-101219000D03*
X128270000Y-101219000D03*
X129540000Y-101219000D03*
X130810000Y-101219000D03*
X132080000Y-101219000D03*
X133350000Y-101219000D03*
X134620000Y-101219000D03*
X135890000Y-101219000D03*
X137160000Y-101219000D03*
X138430000Y-101219000D03*
X139700000Y-101219000D03*
X140970000Y-101219000D03*
X142240000Y-101219000D03*
X143510000Y-101219000D03*
X144780000Y-101219000D03*
X146050000Y-101219000D03*
X147320000Y-101219000D03*
D20*
X149098000Y-99441000D03*
X149098000Y-98171000D03*
X149098000Y-96901000D03*
X149098000Y-95631000D03*
X149098000Y-94361000D03*
X149098000Y-93091000D03*
X149098000Y-91821000D03*
X149098000Y-90551000D03*
X149098000Y-89281000D03*
X149098000Y-88011000D03*
X149098000Y-86741000D03*
X149098000Y-85471000D03*
X149098000Y-84201000D03*
X149098000Y-82931000D03*
X149098000Y-81661000D03*
X149098000Y-80391000D03*
X149098000Y-79121000D03*
D21*
X147320000Y-77343000D03*
X146050000Y-77343000D03*
X144780000Y-77343000D03*
X143510000Y-77343000D03*
X142240000Y-77343000D03*
X140970000Y-77343000D03*
X139700000Y-77343000D03*
X138430000Y-77343000D03*
X137160000Y-77343000D03*
X135890000Y-77343000D03*
X134620000Y-77343000D03*
X133350000Y-77343000D03*
X132080000Y-77343000D03*
X130810000Y-77343000D03*
X129540000Y-77343000D03*
X128270000Y-77343000D03*
X127000000Y-77343000D03*
D20*
X125222000Y-79121000D03*
X125222000Y-80391000D03*
X125222000Y-81661000D03*
X125222000Y-82931000D03*
X125222000Y-84201000D03*
X125222000Y-85471000D03*
X125222000Y-86741000D03*
X125222000Y-88011000D03*
D19*
X219297000Y-126238000D03*
X216103000Y-126238000D03*
D13*
X118110000Y-79575000D03*
X118110000Y-76381000D03*
D14*
X168184000Y-119102500D03*
X199934000Y-119102500D03*
X168208000Y-87374500D03*
X199934000Y-87374500D03*
D22*
X171309000Y-118340500D03*
X171809000Y-118340500D03*
X172309000Y-118340500D03*
X172809000Y-118340500D03*
X173309000Y-118340500D03*
X173809000Y-118340500D03*
X174309000Y-118340500D03*
X174809000Y-118340500D03*
X175309000Y-118340500D03*
X175809000Y-118340500D03*
X176309000Y-118340500D03*
X176809000Y-118340500D03*
X177309000Y-118340500D03*
X177809000Y-118340500D03*
X178309000Y-118340500D03*
X178809000Y-118340500D03*
X179309000Y-118340500D03*
X179809000Y-118340500D03*
X180309000Y-118340500D03*
X180809000Y-118340500D03*
X181309000Y-118340500D03*
X181809000Y-118340500D03*
X182309000Y-118340500D03*
X182809000Y-118340500D03*
X183309000Y-118340500D03*
X183809000Y-118340500D03*
X184309000Y-118340500D03*
X184809000Y-118340500D03*
X185309000Y-118340500D03*
X185809000Y-118340500D03*
X186309000Y-118340500D03*
X186809000Y-118340500D03*
X187309000Y-118340500D03*
X187809000Y-118340500D03*
X188309000Y-118340500D03*
X188809000Y-118340500D03*
X189309000Y-118340500D03*
X189809000Y-118340500D03*
X190309000Y-118340500D03*
X190809000Y-118340500D03*
X191309000Y-118340500D03*
X191809000Y-118340500D03*
X192309000Y-118340500D03*
X192809000Y-118340500D03*
X193309000Y-118340500D03*
X193809000Y-118340500D03*
X194309000Y-118340500D03*
X194809000Y-118340500D03*
X195309000Y-118340500D03*
X195809000Y-118340500D03*
X196309000Y-118340500D03*
X196809000Y-118340500D03*
D23*
X199172000Y-115977500D03*
X199172000Y-115477500D03*
X199172000Y-114977500D03*
X199172000Y-114477500D03*
X199172000Y-113977500D03*
X199172000Y-113477500D03*
X199172000Y-112977500D03*
X199172000Y-112477500D03*
X199172000Y-111977500D03*
X199172000Y-111477500D03*
X199172000Y-110977500D03*
X199172000Y-110477500D03*
X199172000Y-109977500D03*
X199172000Y-109477500D03*
X199172000Y-108977500D03*
X199172000Y-108477500D03*
X199172000Y-107977500D03*
X199172000Y-107477500D03*
X199172000Y-106977500D03*
X199172000Y-106477500D03*
X199172000Y-105977500D03*
X199172000Y-105477500D03*
X199172000Y-104977500D03*
X199172000Y-104477500D03*
X199172000Y-103977500D03*
X199172000Y-103477500D03*
X199172000Y-102977500D03*
X199172000Y-102477500D03*
X199172000Y-101977500D03*
X199172000Y-101477500D03*
X199172000Y-100977500D03*
X199172000Y-100477500D03*
X199172000Y-99977500D03*
X199172000Y-99477500D03*
X199172000Y-98977500D03*
X199172000Y-98477500D03*
X199172000Y-97977500D03*
X199172000Y-97477500D03*
X199172000Y-96977500D03*
X199172000Y-96477500D03*
X199172000Y-95977500D03*
X199172000Y-95477500D03*
X199172000Y-94977500D03*
X199172000Y-94477500D03*
X199172000Y-93977500D03*
X199172000Y-93477500D03*
X199172000Y-92977500D03*
X199172000Y-92477500D03*
X199172000Y-91977500D03*
X199172000Y-91477500D03*
X199172000Y-90977500D03*
X199172000Y-90477500D03*
D22*
X196809000Y-88114500D03*
X196309000Y-88114500D03*
X195809000Y-88114500D03*
X195309000Y-88114500D03*
X194809000Y-88114500D03*
X194309000Y-88114500D03*
X193809000Y-88114500D03*
X193309000Y-88114500D03*
X192809000Y-88114500D03*
X192309000Y-88114500D03*
X191809000Y-88114500D03*
X191309000Y-88114500D03*
X190809000Y-88114500D03*
X190309000Y-88114500D03*
X189809000Y-88114500D03*
X189309000Y-88114500D03*
X188809000Y-88114500D03*
X188309000Y-88114500D03*
X187809000Y-88114500D03*
X187309000Y-88114500D03*
X186809000Y-88114500D03*
X186309000Y-88114500D03*
X185809000Y-88114500D03*
X185309000Y-88114500D03*
X184809000Y-88114500D03*
X184309000Y-88114500D03*
X183809000Y-88114500D03*
X183309000Y-88114500D03*
X182809000Y-88114500D03*
X182309000Y-88114500D03*
X181809000Y-88114500D03*
X181309000Y-88114500D03*
X180809000Y-88114500D03*
X180309000Y-88114500D03*
X179809000Y-88114500D03*
X179309000Y-88114500D03*
X178809000Y-88114500D03*
X178309000Y-88114500D03*
X177809000Y-88114500D03*
X177309000Y-88114500D03*
X176809000Y-88114500D03*
X176309000Y-88114500D03*
X175809000Y-88114500D03*
X175309000Y-88114500D03*
X174809000Y-88114500D03*
X174309000Y-88114500D03*
X173809000Y-88114500D03*
X173309000Y-88114500D03*
X172809000Y-88114500D03*
X172309000Y-88114500D03*
X171809000Y-88114500D03*
X171309000Y-88114500D03*
D23*
X168946000Y-90477500D03*
X168946000Y-90977500D03*
X168946000Y-91477500D03*
X168946000Y-91977500D03*
X168946000Y-92477500D03*
X168946000Y-92977500D03*
X168946000Y-93477500D03*
X168946000Y-93977500D03*
X168946000Y-94477500D03*
X168946000Y-94977500D03*
X168946000Y-95477500D03*
X168946000Y-95977500D03*
X168946000Y-96477500D03*
X168946000Y-96977500D03*
X168946000Y-97477500D03*
X168946000Y-97977500D03*
X168946000Y-98477500D03*
X168946000Y-98977500D03*
X168946000Y-99477500D03*
X168946000Y-99977500D03*
X168946000Y-100477500D03*
X168946000Y-100977500D03*
X168946000Y-101477500D03*
X168946000Y-101977500D03*
X168946000Y-102477500D03*
X168946000Y-102977500D03*
X168946000Y-103477500D03*
X168946000Y-103977500D03*
X168946000Y-104477500D03*
X168946000Y-104977500D03*
X168946000Y-105477500D03*
X168946000Y-105977500D03*
X168946000Y-106477500D03*
X168946000Y-106977500D03*
X168946000Y-107477500D03*
X168946000Y-107977500D03*
X168946000Y-108477500D03*
X168946000Y-108977500D03*
X168946000Y-109477500D03*
X168946000Y-109977500D03*
X168946000Y-110477500D03*
X168946000Y-110977500D03*
X168946000Y-111477500D03*
X168946000Y-111977500D03*
X168946000Y-112477500D03*
X168946000Y-112977500D03*
X168946000Y-113477500D03*
X168946000Y-113977500D03*
X168946000Y-114477500D03*
X168946000Y-114977500D03*
X168946000Y-115477500D03*
X168946000Y-115977500D03*
D12*
X64135000Y-89789000D03*
X65405000Y-89789000D03*
X66675000Y-89789000D03*
X67945000Y-89789000D03*
X69215000Y-89789000D03*
X70485000Y-89789000D03*
X71755000Y-89789000D03*
X73025000Y-89789000D03*
X74295000Y-89789000D03*
X75565000Y-89789000D03*
X76835000Y-89789000D03*
X78105000Y-89789000D03*
X79375000Y-89789000D03*
X80645000Y-89789000D03*
X80645000Y-78359000D03*
X79375000Y-78359000D03*
X78105000Y-78359000D03*
X76835000Y-78359000D03*
X75565000Y-78359000D03*
X74295000Y-78359000D03*
X73025000Y-78359000D03*
X71755000Y-78359000D03*
X70485000Y-78359000D03*
X69215000Y-78359000D03*
X67945000Y-78359000D03*
X66675000Y-78359000D03*
X65405000Y-78359000D03*
X64135000Y-78359000D03*
M02*
