G04 #@! TF.GenerationSoftware,KiCad,Pcbnew,7.0.2-0*
G04 #@! TF.CreationDate,2023-07-10T22:44:26+02:00*
G04 #@! TF.ProjectId,MegaCD,4d656761-4344-42e6-9b69-6361645f7063,rev?*
G04 #@! TF.SameCoordinates,Original*
G04 #@! TF.FileFunction,Legend,Bot*
G04 #@! TF.FilePolarity,Positive*
%FSLAX46Y46*%
G04 Gerber Fmt 4.6, Leading zero omitted, Abs format (unit mm)*
G04 Created by KiCad (PCBNEW 7.0.2-0) date 2023-07-10 22:44:26*
%MOMM*%
%LPD*%
G01*
G04 APERTURE LIST*
G04 Aperture macros list*
%AMRoundRect*
0 Rectangle with rounded corners*
0 $1 Rounding radius*
0 $2 $3 $4 $5 $6 $7 $8 $9 X,Y pos of 4 corners*
0 Add a 4 corners polygon primitive as box body*
4,1,4,$2,$3,$4,$5,$6,$7,$8,$9,$2,$3,0*
0 Add four circle primitives for the rounded corners*
1,1,$1+$1,$2,$3*
1,1,$1+$1,$4,$5*
1,1,$1+$1,$6,$7*
1,1,$1+$1,$8,$9*
0 Add four rect primitives between the rounded corners*
20,1,$1+$1,$2,$3,$4,$5,0*
20,1,$1+$1,$4,$5,$6,$7,0*
20,1,$1+$1,$6,$7,$8,$9,0*
20,1,$1+$1,$8,$9,$2,$3,0*%
G04 Aperture macros list end*
%ADD10C,0.150000*%
%ADD11C,0.100000*%
%ADD12C,0.409210*%
%ADD13C,2.767879*%
%ADD14R,1.600000X1.600000*%
%ADD15C,1.600000*%
%ADD16R,1.400000X1.400000*%
%ADD17O,1.400000X1.400000*%
%ADD18R,1.600000X1.200000*%
%ADD19RoundRect,0.300000X0.500000X-0.300000X0.500000X0.300000X-0.500000X0.300000X-0.500000X-0.300000X0*%
%ADD20R,1.400000X1.300000*%
%ADD21RoundRect,0.325000X0.375000X-0.325000X0.375000X0.325000X-0.375000X0.325000X-0.375000X-0.325000X0*%
%ADD22RoundRect,0.375000X-0.375000X0.375000X-0.375000X-0.375000X0.375000X-0.375000X0.375000X0.375000X0*%
%ADD23RoundRect,0.375000X0.375000X-0.375000X0.375000X0.375000X-0.375000X0.375000X-0.375000X-0.375000X0*%
%ADD24R,1.400000X1.600000*%
%ADD25RoundRect,0.350000X-0.350000X-0.450000X0.350000X-0.450000X0.350000X0.450000X-0.350000X0.450000X0*%
%ADD26O,2.000000X2.000000*%
%ADD27R,1.778000X8.000000*%
%ADD28RoundRect,0.375000X-0.375000X-0.375000X0.375000X-0.375000X0.375000X0.375000X-0.375000X0.375000X0*%
%ADD29RoundRect,0.255319X-0.344681X0.394681X-0.344681X-0.394681X0.344681X-0.394681X0.344681X0.394681X0*%
%ADD30RoundRect,0.255319X0.344681X-0.394681X0.344681X0.394681X-0.344681X0.394681X-0.344681X-0.394681X0*%
%ADD31C,1.500000*%
%ADD32RoundRect,0.255319X-0.394681X-0.344681X0.394681X-0.344681X0.394681X0.344681X-0.394681X0.344681X0*%
%ADD33RoundRect,0.150000X0.875000X0.150000X-0.875000X0.150000X-0.875000X-0.150000X0.875000X-0.150000X0*%
%ADD34RoundRect,0.500000X2.000000X0.500000X-2.000000X0.500000X-2.000000X-0.500000X2.000000X-0.500000X0*%
%ADD35RoundRect,0.255319X0.394681X0.344681X-0.394681X0.344681X-0.394681X-0.344681X0.394681X-0.344681X0*%
G04 APERTURE END LIST*
D10*
X227223780Y-86795076D02*
X227699971Y-87128409D01*
X227223780Y-87366504D02*
X228223780Y-87366504D01*
X228223780Y-87366504D02*
X228223780Y-86985552D01*
X228223780Y-86985552D02*
X228176161Y-86890314D01*
X228176161Y-86890314D02*
X228128542Y-86842695D01*
X228128542Y-86842695D02*
X228033304Y-86795076D01*
X228033304Y-86795076D02*
X227890447Y-86795076D01*
X227890447Y-86795076D02*
X227795209Y-86842695D01*
X227795209Y-86842695D02*
X227747590Y-86890314D01*
X227747590Y-86890314D02*
X227699971Y-86985552D01*
X227699971Y-86985552D02*
X227699971Y-87366504D01*
X227747590Y-86366504D02*
X227747590Y-86033171D01*
X227223780Y-85890314D02*
X227223780Y-86366504D01*
X227223780Y-86366504D02*
X228223780Y-86366504D01*
X228223780Y-86366504D02*
X228223780Y-85890314D01*
X227223780Y-85461742D02*
X228223780Y-85461742D01*
X228223780Y-85461742D02*
X228223780Y-85223647D01*
X228223780Y-85223647D02*
X228176161Y-85080790D01*
X228176161Y-85080790D02*
X228080923Y-84985552D01*
X228080923Y-84985552D02*
X227985685Y-84937933D01*
X227985685Y-84937933D02*
X227795209Y-84890314D01*
X227795209Y-84890314D02*
X227652352Y-84890314D01*
X227652352Y-84890314D02*
X227461876Y-84937933D01*
X227461876Y-84937933D02*
X227366638Y-84985552D01*
X227366638Y-84985552D02*
X227271400Y-85080790D01*
X227271400Y-85080790D02*
X227223780Y-85223647D01*
X227223780Y-85223647D02*
X227223780Y-85461742D01*
X228176161Y-130835495D02*
X228223780Y-130930733D01*
X228223780Y-130930733D02*
X228223780Y-131073590D01*
X228223780Y-131073590D02*
X228176161Y-131216447D01*
X228176161Y-131216447D02*
X228080923Y-131311685D01*
X228080923Y-131311685D02*
X227985685Y-131359304D01*
X227985685Y-131359304D02*
X227795209Y-131406923D01*
X227795209Y-131406923D02*
X227652352Y-131406923D01*
X227652352Y-131406923D02*
X227461876Y-131359304D01*
X227461876Y-131359304D02*
X227366638Y-131311685D01*
X227366638Y-131311685D02*
X227271400Y-131216447D01*
X227271400Y-131216447D02*
X227223780Y-131073590D01*
X227223780Y-131073590D02*
X227223780Y-130978352D01*
X227223780Y-130978352D02*
X227271400Y-130835495D01*
X227271400Y-130835495D02*
X227319019Y-130787876D01*
X227319019Y-130787876D02*
X227652352Y-130787876D01*
X227652352Y-130787876D02*
X227652352Y-130978352D01*
X227223780Y-129787876D02*
X227699971Y-130121209D01*
X227223780Y-130359304D02*
X228223780Y-130359304D01*
X228223780Y-130359304D02*
X228223780Y-129978352D01*
X228223780Y-129978352D02*
X228176161Y-129883114D01*
X228176161Y-129883114D02*
X228128542Y-129835495D01*
X228128542Y-129835495D02*
X228033304Y-129787876D01*
X228033304Y-129787876D02*
X227890447Y-129787876D01*
X227890447Y-129787876D02*
X227795209Y-129835495D01*
X227795209Y-129835495D02*
X227747590Y-129883114D01*
X227747590Y-129883114D02*
X227699971Y-129978352D01*
X227699971Y-129978352D02*
X227699971Y-130359304D01*
X227747590Y-129359304D02*
X227747590Y-129025971D01*
X227223780Y-128883114D02*
X227223780Y-129359304D01*
X227223780Y-129359304D02*
X228223780Y-129359304D01*
X228223780Y-129359304D02*
X228223780Y-128883114D01*
X227747590Y-128454542D02*
X227747590Y-128121209D01*
X227223780Y-127978352D02*
X227223780Y-128454542D01*
X227223780Y-128454542D02*
X228223780Y-128454542D01*
X228223780Y-128454542D02*
X228223780Y-127978352D01*
X227223780Y-127549780D02*
X228223780Y-127549780D01*
X228223780Y-127549780D02*
X227223780Y-126978352D01*
X227223780Y-126978352D02*
X228223780Y-126978352D01*
D11*
X84848723Y-57935704D02*
X84372533Y-57935704D01*
X84943961Y-58221419D02*
X84610628Y-57221419D01*
X84610628Y-57221419D02*
X84277295Y-58221419D01*
X84039199Y-57221419D02*
X83420152Y-57221419D01*
X83420152Y-57221419D02*
X83753485Y-57602371D01*
X83753485Y-57602371D02*
X83610628Y-57602371D01*
X83610628Y-57602371D02*
X83515390Y-57649990D01*
X83515390Y-57649990D02*
X83467771Y-57697609D01*
X83467771Y-57697609D02*
X83420152Y-57792847D01*
X83420152Y-57792847D02*
X83420152Y-58030942D01*
X83420152Y-58030942D02*
X83467771Y-58126180D01*
X83467771Y-58126180D02*
X83515390Y-58173800D01*
X83515390Y-58173800D02*
X83610628Y-58221419D01*
X83610628Y-58221419D02*
X83896342Y-58221419D01*
X83896342Y-58221419D02*
X83991580Y-58173800D01*
X83991580Y-58173800D02*
X84039199Y-58126180D01*
X82801104Y-57221419D02*
X82705866Y-57221419D01*
X82705866Y-57221419D02*
X82610628Y-57269038D01*
X82610628Y-57269038D02*
X82563009Y-57316657D01*
X82563009Y-57316657D02*
X82515390Y-57411895D01*
X82515390Y-57411895D02*
X82467771Y-57602371D01*
X82467771Y-57602371D02*
X82467771Y-57840466D01*
X82467771Y-57840466D02*
X82515390Y-58030942D01*
X82515390Y-58030942D02*
X82563009Y-58126180D01*
X82563009Y-58126180D02*
X82610628Y-58173800D01*
X82610628Y-58173800D02*
X82705866Y-58221419D01*
X82705866Y-58221419D02*
X82801104Y-58221419D01*
X82801104Y-58221419D02*
X82896342Y-58173800D01*
X82896342Y-58173800D02*
X82943961Y-58126180D01*
X82943961Y-58126180D02*
X82991580Y-58030942D01*
X82991580Y-58030942D02*
X83039199Y-57840466D01*
X83039199Y-57840466D02*
X83039199Y-57602371D01*
X83039199Y-57602371D02*
X82991580Y-57411895D01*
X82991580Y-57411895D02*
X82943961Y-57316657D01*
X82943961Y-57316657D02*
X82896342Y-57269038D01*
X82896342Y-57269038D02*
X82801104Y-57221419D01*
X159169123Y-57453104D02*
X158692933Y-57453104D01*
X159264361Y-57738819D02*
X158931028Y-56738819D01*
X158931028Y-56738819D02*
X158597695Y-57738819D01*
X157740552Y-57738819D02*
X158311980Y-57738819D01*
X158026266Y-57738819D02*
X158026266Y-56738819D01*
X158026266Y-56738819D02*
X158121504Y-56881676D01*
X158121504Y-56881676D02*
X158216742Y-56976914D01*
X158216742Y-56976914D02*
X158311980Y-57024533D01*
D10*
X112409266Y-109917580D02*
X112456885Y-109965200D01*
X112456885Y-109965200D02*
X112599742Y-110012819D01*
X112599742Y-110012819D02*
X112694980Y-110012819D01*
X112694980Y-110012819D02*
X112837837Y-109965200D01*
X112837837Y-109965200D02*
X112933075Y-109869961D01*
X112933075Y-109869961D02*
X112980694Y-109774723D01*
X112980694Y-109774723D02*
X113028313Y-109584247D01*
X113028313Y-109584247D02*
X113028313Y-109441390D01*
X113028313Y-109441390D02*
X112980694Y-109250914D01*
X112980694Y-109250914D02*
X112933075Y-109155676D01*
X112933075Y-109155676D02*
X112837837Y-109060438D01*
X112837837Y-109060438D02*
X112694980Y-109012819D01*
X112694980Y-109012819D02*
X112599742Y-109012819D01*
X112599742Y-109012819D02*
X112456885Y-109060438D01*
X112456885Y-109060438D02*
X112409266Y-109108057D01*
X111837837Y-109441390D02*
X111933075Y-109393771D01*
X111933075Y-109393771D02*
X111980694Y-109346152D01*
X111980694Y-109346152D02*
X112028313Y-109250914D01*
X112028313Y-109250914D02*
X112028313Y-109203295D01*
X112028313Y-109203295D02*
X111980694Y-109108057D01*
X111980694Y-109108057D02*
X111933075Y-109060438D01*
X111933075Y-109060438D02*
X111837837Y-109012819D01*
X111837837Y-109012819D02*
X111647361Y-109012819D01*
X111647361Y-109012819D02*
X111552123Y-109060438D01*
X111552123Y-109060438D02*
X111504504Y-109108057D01*
X111504504Y-109108057D02*
X111456885Y-109203295D01*
X111456885Y-109203295D02*
X111456885Y-109250914D01*
X111456885Y-109250914D02*
X111504504Y-109346152D01*
X111504504Y-109346152D02*
X111552123Y-109393771D01*
X111552123Y-109393771D02*
X111647361Y-109441390D01*
X111647361Y-109441390D02*
X111837837Y-109441390D01*
X111837837Y-109441390D02*
X111933075Y-109489009D01*
X111933075Y-109489009D02*
X111980694Y-109536628D01*
X111980694Y-109536628D02*
X112028313Y-109631866D01*
X112028313Y-109631866D02*
X112028313Y-109822342D01*
X112028313Y-109822342D02*
X111980694Y-109917580D01*
X111980694Y-109917580D02*
X111933075Y-109965200D01*
X111933075Y-109965200D02*
X111837837Y-110012819D01*
X111837837Y-110012819D02*
X111647361Y-110012819D01*
X111647361Y-110012819D02*
X111552123Y-109965200D01*
X111552123Y-109965200D02*
X111504504Y-109917580D01*
X111504504Y-109917580D02*
X111456885Y-109822342D01*
X111456885Y-109822342D02*
X111456885Y-109631866D01*
X111456885Y-109631866D02*
X111504504Y-109536628D01*
X111504504Y-109536628D02*
X111552123Y-109489009D01*
X111552123Y-109489009D02*
X111647361Y-109441390D01*
X110740019Y-68476952D02*
X110740019Y-68000762D01*
X110740019Y-68000762D02*
X111216209Y-67953143D01*
X111216209Y-67953143D02*
X111168590Y-68000762D01*
X111168590Y-68000762D02*
X111120971Y-68096000D01*
X111120971Y-68096000D02*
X111120971Y-68334095D01*
X111120971Y-68334095D02*
X111168590Y-68429333D01*
X111168590Y-68429333D02*
X111216209Y-68476952D01*
X111216209Y-68476952D02*
X111311447Y-68524571D01*
X111311447Y-68524571D02*
X111549542Y-68524571D01*
X111549542Y-68524571D02*
X111644780Y-68476952D01*
X111644780Y-68476952D02*
X111692400Y-68429333D01*
X111692400Y-68429333D02*
X111740019Y-68334095D01*
X111740019Y-68334095D02*
X111740019Y-68096000D01*
X111740019Y-68096000D02*
X111692400Y-68000762D01*
X111692400Y-68000762D02*
X111644780Y-67953143D01*
X111740019Y-69476952D02*
X111740019Y-68905524D01*
X111740019Y-69191238D02*
X110740019Y-69191238D01*
X110740019Y-69191238D02*
X110882876Y-69096000D01*
X110882876Y-69096000D02*
X110978114Y-69000762D01*
X110978114Y-69000762D02*
X111025733Y-68905524D01*
X111073352Y-69905524D02*
X112073352Y-69905524D01*
X111120971Y-69905524D02*
X111073352Y-70000762D01*
X111073352Y-70000762D02*
X111073352Y-70191238D01*
X111073352Y-70191238D02*
X111120971Y-70286476D01*
X111120971Y-70286476D02*
X111168590Y-70334095D01*
X111168590Y-70334095D02*
X111263828Y-70381714D01*
X111263828Y-70381714D02*
X111549542Y-70381714D01*
X111549542Y-70381714D02*
X111644780Y-70334095D01*
X111644780Y-70334095D02*
X111692400Y-70286476D01*
X111692400Y-70286476D02*
X111740019Y-70191238D01*
X111740019Y-70191238D02*
X111740019Y-70000762D01*
X111740019Y-70000762D02*
X111692400Y-69905524D01*
X111216209Y-71143619D02*
X111216209Y-70810286D01*
X111740019Y-70810286D02*
X110740019Y-70810286D01*
X110740019Y-70810286D02*
X110740019Y-71286476D01*
X225693266Y-120934819D02*
X226026599Y-120458628D01*
X226264694Y-120934819D02*
X226264694Y-119934819D01*
X226264694Y-119934819D02*
X225883742Y-119934819D01*
X225883742Y-119934819D02*
X225788504Y-119982438D01*
X225788504Y-119982438D02*
X225740885Y-120030057D01*
X225740885Y-120030057D02*
X225693266Y-120125295D01*
X225693266Y-120125295D02*
X225693266Y-120268152D01*
X225693266Y-120268152D02*
X225740885Y-120363390D01*
X225740885Y-120363390D02*
X225788504Y-120411009D01*
X225788504Y-120411009D02*
X225883742Y-120458628D01*
X225883742Y-120458628D02*
X226264694Y-120458628D01*
X224788504Y-119934819D02*
X225264694Y-119934819D01*
X225264694Y-119934819D02*
X225312313Y-120411009D01*
X225312313Y-120411009D02*
X225264694Y-120363390D01*
X225264694Y-120363390D02*
X225169456Y-120315771D01*
X225169456Y-120315771D02*
X224931361Y-120315771D01*
X224931361Y-120315771D02*
X224836123Y-120363390D01*
X224836123Y-120363390D02*
X224788504Y-120411009D01*
X224788504Y-120411009D02*
X224740885Y-120506247D01*
X224740885Y-120506247D02*
X224740885Y-120744342D01*
X224740885Y-120744342D02*
X224788504Y-120839580D01*
X224788504Y-120839580D02*
X224836123Y-120887200D01*
X224836123Y-120887200D02*
X224931361Y-120934819D01*
X224931361Y-120934819D02*
X225169456Y-120934819D01*
X225169456Y-120934819D02*
X225264694Y-120887200D01*
X225264694Y-120887200D02*
X225312313Y-120839580D01*
X67673457Y-112152780D02*
X67721076Y-112200400D01*
X67721076Y-112200400D02*
X67863933Y-112248019D01*
X67863933Y-112248019D02*
X67959171Y-112248019D01*
X67959171Y-112248019D02*
X68102028Y-112200400D01*
X68102028Y-112200400D02*
X68197266Y-112105161D01*
X68197266Y-112105161D02*
X68244885Y-112009923D01*
X68244885Y-112009923D02*
X68292504Y-111819447D01*
X68292504Y-111819447D02*
X68292504Y-111676590D01*
X68292504Y-111676590D02*
X68244885Y-111486114D01*
X68244885Y-111486114D02*
X68197266Y-111390876D01*
X68197266Y-111390876D02*
X68102028Y-111295638D01*
X68102028Y-111295638D02*
X67959171Y-111248019D01*
X67959171Y-111248019D02*
X67863933Y-111248019D01*
X67863933Y-111248019D02*
X67721076Y-111295638D01*
X67721076Y-111295638D02*
X67673457Y-111343257D01*
X66816314Y-111581352D02*
X66816314Y-112248019D01*
X67054409Y-111200400D02*
X67292504Y-111914685D01*
X67292504Y-111914685D02*
X66673457Y-111914685D01*
X65863933Y-111581352D02*
X65863933Y-112248019D01*
X66102028Y-111200400D02*
X66340123Y-111914685D01*
X66340123Y-111914685D02*
X65721076Y-111914685D01*
X146108657Y-120941180D02*
X146156276Y-120988800D01*
X146156276Y-120988800D02*
X146299133Y-121036419D01*
X146299133Y-121036419D02*
X146394371Y-121036419D01*
X146394371Y-121036419D02*
X146537228Y-120988800D01*
X146537228Y-120988800D02*
X146632466Y-120893561D01*
X146632466Y-120893561D02*
X146680085Y-120798323D01*
X146680085Y-120798323D02*
X146727704Y-120607847D01*
X146727704Y-120607847D02*
X146727704Y-120464990D01*
X146727704Y-120464990D02*
X146680085Y-120274514D01*
X146680085Y-120274514D02*
X146632466Y-120179276D01*
X146632466Y-120179276D02*
X146537228Y-120084038D01*
X146537228Y-120084038D02*
X146394371Y-120036419D01*
X146394371Y-120036419D02*
X146299133Y-120036419D01*
X146299133Y-120036419D02*
X146156276Y-120084038D01*
X146156276Y-120084038D02*
X146108657Y-120131657D01*
X145156276Y-121036419D02*
X145727704Y-121036419D01*
X145441990Y-121036419D02*
X145441990Y-120036419D01*
X145441990Y-120036419D02*
X145537228Y-120179276D01*
X145537228Y-120179276D02*
X145632466Y-120274514D01*
X145632466Y-120274514D02*
X145727704Y-120322133D01*
X144584847Y-120464990D02*
X144680085Y-120417371D01*
X144680085Y-120417371D02*
X144727704Y-120369752D01*
X144727704Y-120369752D02*
X144775323Y-120274514D01*
X144775323Y-120274514D02*
X144775323Y-120226895D01*
X144775323Y-120226895D02*
X144727704Y-120131657D01*
X144727704Y-120131657D02*
X144680085Y-120084038D01*
X144680085Y-120084038D02*
X144584847Y-120036419D01*
X144584847Y-120036419D02*
X144394371Y-120036419D01*
X144394371Y-120036419D02*
X144299133Y-120084038D01*
X144299133Y-120084038D02*
X144251514Y-120131657D01*
X144251514Y-120131657D02*
X144203895Y-120226895D01*
X144203895Y-120226895D02*
X144203895Y-120274514D01*
X144203895Y-120274514D02*
X144251514Y-120369752D01*
X144251514Y-120369752D02*
X144299133Y-120417371D01*
X144299133Y-120417371D02*
X144394371Y-120464990D01*
X144394371Y-120464990D02*
X144584847Y-120464990D01*
X144584847Y-120464990D02*
X144680085Y-120512609D01*
X144680085Y-120512609D02*
X144727704Y-120560228D01*
X144727704Y-120560228D02*
X144775323Y-120655466D01*
X144775323Y-120655466D02*
X144775323Y-120845942D01*
X144775323Y-120845942D02*
X144727704Y-120941180D01*
X144727704Y-120941180D02*
X144680085Y-120988800D01*
X144680085Y-120988800D02*
X144584847Y-121036419D01*
X144584847Y-121036419D02*
X144394371Y-121036419D01*
X144394371Y-121036419D02*
X144299133Y-120988800D01*
X144299133Y-120988800D02*
X144251514Y-120941180D01*
X144251514Y-120941180D02*
X144203895Y-120845942D01*
X144203895Y-120845942D02*
X144203895Y-120655466D01*
X144203895Y-120655466D02*
X144251514Y-120560228D01*
X144251514Y-120560228D02*
X144299133Y-120512609D01*
X144299133Y-120512609D02*
X144394371Y-120464990D01*
D11*
X139264923Y-76586419D02*
X139264923Y-75586419D01*
X139264923Y-75586419D02*
X138931590Y-76300704D01*
X138931590Y-76300704D02*
X138598257Y-75586419D01*
X138598257Y-75586419D02*
X138598257Y-76586419D01*
X138074447Y-76586419D02*
X137883971Y-76586419D01*
X137883971Y-76586419D02*
X137788733Y-76538800D01*
X137788733Y-76538800D02*
X137741114Y-76491180D01*
X137741114Y-76491180D02*
X137645876Y-76348323D01*
X137645876Y-76348323D02*
X137598257Y-76157847D01*
X137598257Y-76157847D02*
X137598257Y-75776895D01*
X137598257Y-75776895D02*
X137645876Y-75681657D01*
X137645876Y-75681657D02*
X137693495Y-75634038D01*
X137693495Y-75634038D02*
X137788733Y-75586419D01*
X137788733Y-75586419D02*
X137979209Y-75586419D01*
X137979209Y-75586419D02*
X138074447Y-75634038D01*
X138074447Y-75634038D02*
X138122066Y-75681657D01*
X138122066Y-75681657D02*
X138169685Y-75776895D01*
X138169685Y-75776895D02*
X138169685Y-76014990D01*
X138169685Y-76014990D02*
X138122066Y-76110228D01*
X138122066Y-76110228D02*
X138074447Y-76157847D01*
X138074447Y-76157847D02*
X137979209Y-76205466D01*
X137979209Y-76205466D02*
X137788733Y-76205466D01*
X137788733Y-76205466D02*
X137693495Y-76157847D01*
X137693495Y-76157847D02*
X137645876Y-76110228D01*
X137645876Y-76110228D02*
X137598257Y-76014990D01*
X165325323Y-85349419D02*
X165325323Y-84349419D01*
X165325323Y-84349419D02*
X164991990Y-85063704D01*
X164991990Y-85063704D02*
X164658657Y-84349419D01*
X164658657Y-84349419D02*
X164658657Y-85349419D01*
X163706276Y-84349419D02*
X164182466Y-84349419D01*
X164182466Y-84349419D02*
X164230085Y-84825609D01*
X164230085Y-84825609D02*
X164182466Y-84777990D01*
X164182466Y-84777990D02*
X164087228Y-84730371D01*
X164087228Y-84730371D02*
X163849133Y-84730371D01*
X163849133Y-84730371D02*
X163753895Y-84777990D01*
X163753895Y-84777990D02*
X163706276Y-84825609D01*
X163706276Y-84825609D02*
X163658657Y-84920847D01*
X163658657Y-84920847D02*
X163658657Y-85158942D01*
X163658657Y-85158942D02*
X163706276Y-85254180D01*
X163706276Y-85254180D02*
X163753895Y-85301800D01*
X163753895Y-85301800D02*
X163849133Y-85349419D01*
X163849133Y-85349419D02*
X164087228Y-85349419D01*
X164087228Y-85349419D02*
X164182466Y-85301800D01*
X164182466Y-85301800D02*
X164230085Y-85254180D01*
D10*
X153068257Y-108291980D02*
X153115876Y-108339600D01*
X153115876Y-108339600D02*
X153258733Y-108387219D01*
X153258733Y-108387219D02*
X153353971Y-108387219D01*
X153353971Y-108387219D02*
X153496828Y-108339600D01*
X153496828Y-108339600D02*
X153592066Y-108244361D01*
X153592066Y-108244361D02*
X153639685Y-108149123D01*
X153639685Y-108149123D02*
X153687304Y-107958647D01*
X153687304Y-107958647D02*
X153687304Y-107815790D01*
X153687304Y-107815790D02*
X153639685Y-107625314D01*
X153639685Y-107625314D02*
X153592066Y-107530076D01*
X153592066Y-107530076D02*
X153496828Y-107434838D01*
X153496828Y-107434838D02*
X153353971Y-107387219D01*
X153353971Y-107387219D02*
X153258733Y-107387219D01*
X153258733Y-107387219D02*
X153115876Y-107434838D01*
X153115876Y-107434838D02*
X153068257Y-107482457D01*
X152687304Y-107482457D02*
X152639685Y-107434838D01*
X152639685Y-107434838D02*
X152544447Y-107387219D01*
X152544447Y-107387219D02*
X152306352Y-107387219D01*
X152306352Y-107387219D02*
X152211114Y-107434838D01*
X152211114Y-107434838D02*
X152163495Y-107482457D01*
X152163495Y-107482457D02*
X152115876Y-107577695D01*
X152115876Y-107577695D02*
X152115876Y-107672933D01*
X152115876Y-107672933D02*
X152163495Y-107815790D01*
X152163495Y-107815790D02*
X152734923Y-108387219D01*
X152734923Y-108387219D02*
X152115876Y-108387219D01*
X151163495Y-108387219D02*
X151734923Y-108387219D01*
X151449209Y-108387219D02*
X151449209Y-107387219D01*
X151449209Y-107387219D02*
X151544447Y-107530076D01*
X151544447Y-107530076D02*
X151639685Y-107625314D01*
X151639685Y-107625314D02*
X151734923Y-107672933D01*
X198794666Y-91928019D02*
X199127999Y-91451828D01*
X199366094Y-91928019D02*
X199366094Y-90928019D01*
X199366094Y-90928019D02*
X198985142Y-90928019D01*
X198985142Y-90928019D02*
X198889904Y-90975638D01*
X198889904Y-90975638D02*
X198842285Y-91023257D01*
X198842285Y-91023257D02*
X198794666Y-91118495D01*
X198794666Y-91118495D02*
X198794666Y-91261352D01*
X198794666Y-91261352D02*
X198842285Y-91356590D01*
X198842285Y-91356590D02*
X198889904Y-91404209D01*
X198889904Y-91404209D02*
X198985142Y-91451828D01*
X198985142Y-91451828D02*
X199366094Y-91451828D01*
X198461332Y-90928019D02*
X197842285Y-90928019D01*
X197842285Y-90928019D02*
X198175618Y-91308971D01*
X198175618Y-91308971D02*
X198032761Y-91308971D01*
X198032761Y-91308971D02*
X197937523Y-91356590D01*
X197937523Y-91356590D02*
X197889904Y-91404209D01*
X197889904Y-91404209D02*
X197842285Y-91499447D01*
X197842285Y-91499447D02*
X197842285Y-91737542D01*
X197842285Y-91737542D02*
X197889904Y-91832780D01*
X197889904Y-91832780D02*
X197937523Y-91880400D01*
X197937523Y-91880400D02*
X198032761Y-91928019D01*
X198032761Y-91928019D02*
X198318475Y-91928019D01*
X198318475Y-91928019D02*
X198413713Y-91880400D01*
X198413713Y-91880400D02*
X198461332Y-91832780D01*
X213830819Y-83421457D02*
X213783200Y-83469076D01*
X213783200Y-83469076D02*
X213735580Y-83611933D01*
X213735580Y-83611933D02*
X213735580Y-83707171D01*
X213735580Y-83707171D02*
X213783200Y-83850028D01*
X213783200Y-83850028D02*
X213878438Y-83945266D01*
X213878438Y-83945266D02*
X213973676Y-83992885D01*
X213973676Y-83992885D02*
X214164152Y-84040504D01*
X214164152Y-84040504D02*
X214307009Y-84040504D01*
X214307009Y-84040504D02*
X214497485Y-83992885D01*
X214497485Y-83992885D02*
X214592723Y-83945266D01*
X214592723Y-83945266D02*
X214687961Y-83850028D01*
X214687961Y-83850028D02*
X214735580Y-83707171D01*
X214735580Y-83707171D02*
X214735580Y-83611933D01*
X214735580Y-83611933D02*
X214687961Y-83469076D01*
X214687961Y-83469076D02*
X214640342Y-83421457D01*
X214640342Y-83040504D02*
X214687961Y-82992885D01*
X214687961Y-82992885D02*
X214735580Y-82897647D01*
X214735580Y-82897647D02*
X214735580Y-82659552D01*
X214735580Y-82659552D02*
X214687961Y-82564314D01*
X214687961Y-82564314D02*
X214640342Y-82516695D01*
X214640342Y-82516695D02*
X214545104Y-82469076D01*
X214545104Y-82469076D02*
X214449866Y-82469076D01*
X214449866Y-82469076D02*
X214307009Y-82516695D01*
X214307009Y-82516695D02*
X213735580Y-83088123D01*
X213735580Y-83088123D02*
X213735580Y-82469076D01*
X213735580Y-81992885D02*
X213735580Y-81802409D01*
X213735580Y-81802409D02*
X213783200Y-81707171D01*
X213783200Y-81707171D02*
X213830819Y-81659552D01*
X213830819Y-81659552D02*
X213973676Y-81564314D01*
X213973676Y-81564314D02*
X214164152Y-81516695D01*
X214164152Y-81516695D02*
X214545104Y-81516695D01*
X214545104Y-81516695D02*
X214640342Y-81564314D01*
X214640342Y-81564314D02*
X214687961Y-81611933D01*
X214687961Y-81611933D02*
X214735580Y-81707171D01*
X214735580Y-81707171D02*
X214735580Y-81897647D01*
X214735580Y-81897647D02*
X214687961Y-81992885D01*
X214687961Y-81992885D02*
X214640342Y-82040504D01*
X214640342Y-82040504D02*
X214545104Y-82088123D01*
X214545104Y-82088123D02*
X214307009Y-82088123D01*
X214307009Y-82088123D02*
X214211771Y-82040504D01*
X214211771Y-82040504D02*
X214164152Y-81992885D01*
X214164152Y-81992885D02*
X214116533Y-81897647D01*
X214116533Y-81897647D02*
X214116533Y-81707171D01*
X214116533Y-81707171D02*
X214164152Y-81611933D01*
X214164152Y-81611933D02*
X214211771Y-81564314D01*
X214211771Y-81564314D02*
X214307009Y-81516695D01*
X180906657Y-131405980D02*
X180954276Y-131453600D01*
X180954276Y-131453600D02*
X181097133Y-131501219D01*
X181097133Y-131501219D02*
X181192371Y-131501219D01*
X181192371Y-131501219D02*
X181335228Y-131453600D01*
X181335228Y-131453600D02*
X181430466Y-131358361D01*
X181430466Y-131358361D02*
X181478085Y-131263123D01*
X181478085Y-131263123D02*
X181525704Y-131072647D01*
X181525704Y-131072647D02*
X181525704Y-130929790D01*
X181525704Y-130929790D02*
X181478085Y-130739314D01*
X181478085Y-130739314D02*
X181430466Y-130644076D01*
X181430466Y-130644076D02*
X181335228Y-130548838D01*
X181335228Y-130548838D02*
X181192371Y-130501219D01*
X181192371Y-130501219D02*
X181097133Y-130501219D01*
X181097133Y-130501219D02*
X180954276Y-130548838D01*
X180954276Y-130548838D02*
X180906657Y-130596457D01*
X179954276Y-131501219D02*
X180525704Y-131501219D01*
X180239990Y-131501219D02*
X180239990Y-130501219D01*
X180239990Y-130501219D02*
X180335228Y-130644076D01*
X180335228Y-130644076D02*
X180430466Y-130739314D01*
X180430466Y-130739314D02*
X180525704Y-130786933D01*
X179097133Y-130501219D02*
X179287609Y-130501219D01*
X179287609Y-130501219D02*
X179382847Y-130548838D01*
X179382847Y-130548838D02*
X179430466Y-130596457D01*
X179430466Y-130596457D02*
X179525704Y-130739314D01*
X179525704Y-130739314D02*
X179573323Y-130929790D01*
X179573323Y-130929790D02*
X179573323Y-131310742D01*
X179573323Y-131310742D02*
X179525704Y-131405980D01*
X179525704Y-131405980D02*
X179478085Y-131453600D01*
X179478085Y-131453600D02*
X179382847Y-131501219D01*
X179382847Y-131501219D02*
X179192371Y-131501219D01*
X179192371Y-131501219D02*
X179097133Y-131453600D01*
X179097133Y-131453600D02*
X179049514Y-131405980D01*
X179049514Y-131405980D02*
X179001895Y-131310742D01*
X179001895Y-131310742D02*
X179001895Y-131072647D01*
X179001895Y-131072647D02*
X179049514Y-130977409D01*
X179049514Y-130977409D02*
X179097133Y-130929790D01*
X179097133Y-130929790D02*
X179192371Y-130882171D01*
X179192371Y-130882171D02*
X179382847Y-130882171D01*
X179382847Y-130882171D02*
X179478085Y-130929790D01*
X179478085Y-130929790D02*
X179525704Y-130977409D01*
X179525704Y-130977409D02*
X179573323Y-131072647D01*
D11*
X142668523Y-100310019D02*
X142668523Y-99310019D01*
X142668523Y-99310019D02*
X142335190Y-100024304D01*
X142335190Y-100024304D02*
X142001857Y-99310019D01*
X142001857Y-99310019D02*
X142001857Y-100310019D01*
X141620904Y-99310019D02*
X140954238Y-99310019D01*
X140954238Y-99310019D02*
X141382809Y-100310019D01*
X113934713Y-77958019D02*
X113934713Y-76958019D01*
X113934713Y-76958019D02*
X113601380Y-77672304D01*
X113601380Y-77672304D02*
X113268047Y-76958019D01*
X113268047Y-76958019D02*
X113268047Y-77958019D01*
X112268047Y-77958019D02*
X112839475Y-77958019D01*
X112553761Y-77958019D02*
X112553761Y-76958019D01*
X112553761Y-76958019D02*
X112648999Y-77100876D01*
X112648999Y-77100876D02*
X112744237Y-77196114D01*
X112744237Y-77196114D02*
X112839475Y-77243733D01*
X111648999Y-76958019D02*
X111553761Y-76958019D01*
X111553761Y-76958019D02*
X111458523Y-77005638D01*
X111458523Y-77005638D02*
X111410904Y-77053257D01*
X111410904Y-77053257D02*
X111363285Y-77148495D01*
X111363285Y-77148495D02*
X111315666Y-77338971D01*
X111315666Y-77338971D02*
X111315666Y-77577066D01*
X111315666Y-77577066D02*
X111363285Y-77767542D01*
X111363285Y-77767542D02*
X111410904Y-77862780D01*
X111410904Y-77862780D02*
X111458523Y-77910400D01*
X111458523Y-77910400D02*
X111553761Y-77958019D01*
X111553761Y-77958019D02*
X111648999Y-77958019D01*
X111648999Y-77958019D02*
X111744237Y-77910400D01*
X111744237Y-77910400D02*
X111791856Y-77862780D01*
X111791856Y-77862780D02*
X111839475Y-77767542D01*
X111839475Y-77767542D02*
X111887094Y-77577066D01*
X111887094Y-77577066D02*
X111887094Y-77338971D01*
X111887094Y-77338971D02*
X111839475Y-77148495D01*
X111839475Y-77148495D02*
X111791856Y-77053257D01*
X111791856Y-77053257D02*
X111744237Y-77005638D01*
X111744237Y-77005638D02*
X111648999Y-76958019D01*
D10*
X68587857Y-76745180D02*
X68635476Y-76792800D01*
X68635476Y-76792800D02*
X68778333Y-76840419D01*
X68778333Y-76840419D02*
X68873571Y-76840419D01*
X68873571Y-76840419D02*
X69016428Y-76792800D01*
X69016428Y-76792800D02*
X69111666Y-76697561D01*
X69111666Y-76697561D02*
X69159285Y-76602323D01*
X69159285Y-76602323D02*
X69206904Y-76411847D01*
X69206904Y-76411847D02*
X69206904Y-76268990D01*
X69206904Y-76268990D02*
X69159285Y-76078514D01*
X69159285Y-76078514D02*
X69111666Y-75983276D01*
X69111666Y-75983276D02*
X69016428Y-75888038D01*
X69016428Y-75888038D02*
X68873571Y-75840419D01*
X68873571Y-75840419D02*
X68778333Y-75840419D01*
X68778333Y-75840419D02*
X68635476Y-75888038D01*
X68635476Y-75888038D02*
X68587857Y-75935657D01*
X67730714Y-76173752D02*
X67730714Y-76840419D01*
X67968809Y-75792800D02*
X68206904Y-76507085D01*
X68206904Y-76507085D02*
X67587857Y-76507085D01*
X67016428Y-75840419D02*
X66921190Y-75840419D01*
X66921190Y-75840419D02*
X66825952Y-75888038D01*
X66825952Y-75888038D02*
X66778333Y-75935657D01*
X66778333Y-75935657D02*
X66730714Y-76030895D01*
X66730714Y-76030895D02*
X66683095Y-76221371D01*
X66683095Y-76221371D02*
X66683095Y-76459466D01*
X66683095Y-76459466D02*
X66730714Y-76649942D01*
X66730714Y-76649942D02*
X66778333Y-76745180D01*
X66778333Y-76745180D02*
X66825952Y-76792800D01*
X66825952Y-76792800D02*
X66921190Y-76840419D01*
X66921190Y-76840419D02*
X67016428Y-76840419D01*
X67016428Y-76840419D02*
X67111666Y-76792800D01*
X67111666Y-76792800D02*
X67159285Y-76745180D01*
X67159285Y-76745180D02*
X67206904Y-76649942D01*
X67206904Y-76649942D02*
X67254523Y-76459466D01*
X67254523Y-76459466D02*
X67254523Y-76221371D01*
X67254523Y-76221371D02*
X67206904Y-76030895D01*
X67206904Y-76030895D02*
X67159285Y-75935657D01*
X67159285Y-75935657D02*
X67111666Y-75888038D01*
X67111666Y-75888038D02*
X67016428Y-75840419D01*
X95130857Y-59422380D02*
X95178476Y-59470000D01*
X95178476Y-59470000D02*
X95321333Y-59517619D01*
X95321333Y-59517619D02*
X95416571Y-59517619D01*
X95416571Y-59517619D02*
X95559428Y-59470000D01*
X95559428Y-59470000D02*
X95654666Y-59374761D01*
X95654666Y-59374761D02*
X95702285Y-59279523D01*
X95702285Y-59279523D02*
X95749904Y-59089047D01*
X95749904Y-59089047D02*
X95749904Y-58946190D01*
X95749904Y-58946190D02*
X95702285Y-58755714D01*
X95702285Y-58755714D02*
X95654666Y-58660476D01*
X95654666Y-58660476D02*
X95559428Y-58565238D01*
X95559428Y-58565238D02*
X95416571Y-58517619D01*
X95416571Y-58517619D02*
X95321333Y-58517619D01*
X95321333Y-58517619D02*
X95178476Y-58565238D01*
X95178476Y-58565238D02*
X95130857Y-58612857D01*
X94273714Y-58850952D02*
X94273714Y-59517619D01*
X94511809Y-58470000D02*
X94749904Y-59184285D01*
X94749904Y-59184285D02*
X94130857Y-59184285D01*
X93702285Y-59517619D02*
X93511809Y-59517619D01*
X93511809Y-59517619D02*
X93416571Y-59470000D01*
X93416571Y-59470000D02*
X93368952Y-59422380D01*
X93368952Y-59422380D02*
X93273714Y-59279523D01*
X93273714Y-59279523D02*
X93226095Y-59089047D01*
X93226095Y-59089047D02*
X93226095Y-58708095D01*
X93226095Y-58708095D02*
X93273714Y-58612857D01*
X93273714Y-58612857D02*
X93321333Y-58565238D01*
X93321333Y-58565238D02*
X93416571Y-58517619D01*
X93416571Y-58517619D02*
X93607047Y-58517619D01*
X93607047Y-58517619D02*
X93702285Y-58565238D01*
X93702285Y-58565238D02*
X93749904Y-58612857D01*
X93749904Y-58612857D02*
X93797523Y-58708095D01*
X93797523Y-58708095D02*
X93797523Y-58946190D01*
X93797523Y-58946190D02*
X93749904Y-59041428D01*
X93749904Y-59041428D02*
X93702285Y-59089047D01*
X93702285Y-59089047D02*
X93607047Y-59136666D01*
X93607047Y-59136666D02*
X93416571Y-59136666D01*
X93416571Y-59136666D02*
X93321333Y-59089047D01*
X93321333Y-59089047D02*
X93273714Y-59041428D01*
X93273714Y-59041428D02*
X93226095Y-58946190D01*
X213830819Y-96680257D02*
X213783200Y-96727876D01*
X213783200Y-96727876D02*
X213735580Y-96870733D01*
X213735580Y-96870733D02*
X213735580Y-96965971D01*
X213735580Y-96965971D02*
X213783200Y-97108828D01*
X213783200Y-97108828D02*
X213878438Y-97204066D01*
X213878438Y-97204066D02*
X213973676Y-97251685D01*
X213973676Y-97251685D02*
X214164152Y-97299304D01*
X214164152Y-97299304D02*
X214307009Y-97299304D01*
X214307009Y-97299304D02*
X214497485Y-97251685D01*
X214497485Y-97251685D02*
X214592723Y-97204066D01*
X214592723Y-97204066D02*
X214687961Y-97108828D01*
X214687961Y-97108828D02*
X214735580Y-96965971D01*
X214735580Y-96965971D02*
X214735580Y-96870733D01*
X214735580Y-96870733D02*
X214687961Y-96727876D01*
X214687961Y-96727876D02*
X214640342Y-96680257D01*
X214735580Y-96346923D02*
X214735580Y-95727876D01*
X214735580Y-95727876D02*
X214354628Y-96061209D01*
X214354628Y-96061209D02*
X214354628Y-95918352D01*
X214354628Y-95918352D02*
X214307009Y-95823114D01*
X214307009Y-95823114D02*
X214259390Y-95775495D01*
X214259390Y-95775495D02*
X214164152Y-95727876D01*
X214164152Y-95727876D02*
X213926057Y-95727876D01*
X213926057Y-95727876D02*
X213830819Y-95775495D01*
X213830819Y-95775495D02*
X213783200Y-95823114D01*
X213783200Y-95823114D02*
X213735580Y-95918352D01*
X213735580Y-95918352D02*
X213735580Y-96204066D01*
X213735580Y-96204066D02*
X213783200Y-96299304D01*
X213783200Y-96299304D02*
X213830819Y-96346923D01*
X214735580Y-94870733D02*
X214735580Y-95061209D01*
X214735580Y-95061209D02*
X214687961Y-95156447D01*
X214687961Y-95156447D02*
X214640342Y-95204066D01*
X214640342Y-95204066D02*
X214497485Y-95299304D01*
X214497485Y-95299304D02*
X214307009Y-95346923D01*
X214307009Y-95346923D02*
X213926057Y-95346923D01*
X213926057Y-95346923D02*
X213830819Y-95299304D01*
X213830819Y-95299304D02*
X213783200Y-95251685D01*
X213783200Y-95251685D02*
X213735580Y-95156447D01*
X213735580Y-95156447D02*
X213735580Y-94965971D01*
X213735580Y-94965971D02*
X213783200Y-94870733D01*
X213783200Y-94870733D02*
X213830819Y-94823114D01*
X213830819Y-94823114D02*
X213926057Y-94775495D01*
X213926057Y-94775495D02*
X214164152Y-94775495D01*
X214164152Y-94775495D02*
X214259390Y-94823114D01*
X214259390Y-94823114D02*
X214307009Y-94870733D01*
X214307009Y-94870733D02*
X214354628Y-94965971D01*
X214354628Y-94965971D02*
X214354628Y-95156447D01*
X214354628Y-95156447D02*
X214307009Y-95251685D01*
X214307009Y-95251685D02*
X214259390Y-95299304D01*
X214259390Y-95299304D02*
X214164152Y-95346923D01*
X209684857Y-67550380D02*
X209732476Y-67598000D01*
X209732476Y-67598000D02*
X209875333Y-67645619D01*
X209875333Y-67645619D02*
X209970571Y-67645619D01*
X209970571Y-67645619D02*
X210113428Y-67598000D01*
X210113428Y-67598000D02*
X210208666Y-67502761D01*
X210208666Y-67502761D02*
X210256285Y-67407523D01*
X210256285Y-67407523D02*
X210303904Y-67217047D01*
X210303904Y-67217047D02*
X210303904Y-67074190D01*
X210303904Y-67074190D02*
X210256285Y-66883714D01*
X210256285Y-66883714D02*
X210208666Y-66788476D01*
X210208666Y-66788476D02*
X210113428Y-66693238D01*
X210113428Y-66693238D02*
X209970571Y-66645619D01*
X209970571Y-66645619D02*
X209875333Y-66645619D01*
X209875333Y-66645619D02*
X209732476Y-66693238D01*
X209732476Y-66693238D02*
X209684857Y-66740857D01*
X209303904Y-66740857D02*
X209256285Y-66693238D01*
X209256285Y-66693238D02*
X209161047Y-66645619D01*
X209161047Y-66645619D02*
X208922952Y-66645619D01*
X208922952Y-66645619D02*
X208827714Y-66693238D01*
X208827714Y-66693238D02*
X208780095Y-66740857D01*
X208780095Y-66740857D02*
X208732476Y-66836095D01*
X208732476Y-66836095D02*
X208732476Y-66931333D01*
X208732476Y-66931333D02*
X208780095Y-67074190D01*
X208780095Y-67074190D02*
X209351523Y-67645619D01*
X209351523Y-67645619D02*
X208732476Y-67645619D01*
X208399142Y-66645619D02*
X207732476Y-66645619D01*
X207732476Y-66645619D02*
X208161047Y-67645619D01*
X180344580Y-119512419D02*
X180344580Y-118512419D01*
X179296962Y-119417180D02*
X179344581Y-119464800D01*
X179344581Y-119464800D02*
X179487438Y-119512419D01*
X179487438Y-119512419D02*
X179582676Y-119512419D01*
X179582676Y-119512419D02*
X179725533Y-119464800D01*
X179725533Y-119464800D02*
X179820771Y-119369561D01*
X179820771Y-119369561D02*
X179868390Y-119274323D01*
X179868390Y-119274323D02*
X179916009Y-119083847D01*
X179916009Y-119083847D02*
X179916009Y-118940990D01*
X179916009Y-118940990D02*
X179868390Y-118750514D01*
X179868390Y-118750514D02*
X179820771Y-118655276D01*
X179820771Y-118655276D02*
X179725533Y-118560038D01*
X179725533Y-118560038D02*
X179582676Y-118512419D01*
X179582676Y-118512419D02*
X179487438Y-118512419D01*
X179487438Y-118512419D02*
X179344581Y-118560038D01*
X179344581Y-118560038D02*
X179296962Y-118607657D01*
X178916009Y-118607657D02*
X178868390Y-118560038D01*
X178868390Y-118560038D02*
X178773152Y-118512419D01*
X178773152Y-118512419D02*
X178535057Y-118512419D01*
X178535057Y-118512419D02*
X178439819Y-118560038D01*
X178439819Y-118560038D02*
X178392200Y-118607657D01*
X178392200Y-118607657D02*
X178344581Y-118702895D01*
X178344581Y-118702895D02*
X178344581Y-118798133D01*
X178344581Y-118798133D02*
X178392200Y-118940990D01*
X178392200Y-118940990D02*
X178963628Y-119512419D01*
X178963628Y-119512419D02*
X178344581Y-119512419D01*
X177725533Y-118512419D02*
X177630295Y-118512419D01*
X177630295Y-118512419D02*
X177535057Y-118560038D01*
X177535057Y-118560038D02*
X177487438Y-118607657D01*
X177487438Y-118607657D02*
X177439819Y-118702895D01*
X177439819Y-118702895D02*
X177392200Y-118893371D01*
X177392200Y-118893371D02*
X177392200Y-119131466D01*
X177392200Y-119131466D02*
X177439819Y-119321942D01*
X177439819Y-119321942D02*
X177487438Y-119417180D01*
X177487438Y-119417180D02*
X177535057Y-119464800D01*
X177535057Y-119464800D02*
X177630295Y-119512419D01*
X177630295Y-119512419D02*
X177725533Y-119512419D01*
X177725533Y-119512419D02*
X177820771Y-119464800D01*
X177820771Y-119464800D02*
X177868390Y-119417180D01*
X177868390Y-119417180D02*
X177916009Y-119321942D01*
X177916009Y-119321942D02*
X177963628Y-119131466D01*
X177963628Y-119131466D02*
X177963628Y-118893371D01*
X177963628Y-118893371D02*
X177916009Y-118702895D01*
X177916009Y-118702895D02*
X177868390Y-118607657D01*
X177868390Y-118607657D02*
X177820771Y-118560038D01*
X177820771Y-118560038D02*
X177725533Y-118512419D01*
X169134619Y-114340095D02*
X169134619Y-115006761D01*
X169134619Y-115006761D02*
X170134619Y-114578190D01*
X169467952Y-115816285D02*
X170134619Y-115816285D01*
X169087000Y-115578190D02*
X169801285Y-115340095D01*
X169801285Y-115340095D02*
X169801285Y-115959142D01*
X170134619Y-116340095D02*
X169134619Y-116340095D01*
X169610809Y-116340095D02*
X169610809Y-116911523D01*
X170134619Y-116911523D02*
X169134619Y-116911523D01*
X170039380Y-117959142D02*
X170087000Y-117911523D01*
X170087000Y-117911523D02*
X170134619Y-117768666D01*
X170134619Y-117768666D02*
X170134619Y-117673428D01*
X170134619Y-117673428D02*
X170087000Y-117530571D01*
X170087000Y-117530571D02*
X169991761Y-117435333D01*
X169991761Y-117435333D02*
X169896523Y-117387714D01*
X169896523Y-117387714D02*
X169706047Y-117340095D01*
X169706047Y-117340095D02*
X169563190Y-117340095D01*
X169563190Y-117340095D02*
X169372714Y-117387714D01*
X169372714Y-117387714D02*
X169277476Y-117435333D01*
X169277476Y-117435333D02*
X169182238Y-117530571D01*
X169182238Y-117530571D02*
X169134619Y-117673428D01*
X169134619Y-117673428D02*
X169134619Y-117768666D01*
X169134619Y-117768666D02*
X169182238Y-117911523D01*
X169182238Y-117911523D02*
X169229857Y-117959142D01*
X169229857Y-118340095D02*
X169182238Y-118387714D01*
X169182238Y-118387714D02*
X169134619Y-118482952D01*
X169134619Y-118482952D02*
X169134619Y-118721047D01*
X169134619Y-118721047D02*
X169182238Y-118816285D01*
X169182238Y-118816285D02*
X169229857Y-118863904D01*
X169229857Y-118863904D02*
X169325095Y-118911523D01*
X169325095Y-118911523D02*
X169420333Y-118911523D01*
X169420333Y-118911523D02*
X169563190Y-118863904D01*
X169563190Y-118863904D02*
X170134619Y-118292476D01*
X170134619Y-118292476D02*
X170134619Y-118911523D01*
X169467952Y-119768666D02*
X170134619Y-119768666D01*
X169087000Y-119530571D02*
X169801285Y-119292476D01*
X169801285Y-119292476D02*
X169801285Y-119911523D01*
X169134619Y-120768666D02*
X169134619Y-120292476D01*
X169134619Y-120292476D02*
X169610809Y-120244857D01*
X169610809Y-120244857D02*
X169563190Y-120292476D01*
X169563190Y-120292476D02*
X169515571Y-120387714D01*
X169515571Y-120387714D02*
X169515571Y-120625809D01*
X169515571Y-120625809D02*
X169563190Y-120721047D01*
X169563190Y-120721047D02*
X169610809Y-120768666D01*
X169610809Y-120768666D02*
X169706047Y-120816285D01*
X169706047Y-120816285D02*
X169944142Y-120816285D01*
X169944142Y-120816285D02*
X170039380Y-120768666D01*
X170039380Y-120768666D02*
X170087000Y-120721047D01*
X170087000Y-120721047D02*
X170134619Y-120625809D01*
X170134619Y-120625809D02*
X170134619Y-120387714D01*
X170134619Y-120387714D02*
X170087000Y-120292476D01*
X170087000Y-120292476D02*
X170039380Y-120244857D01*
D11*
X163195095Y-124210619D02*
X163766523Y-124210619D01*
X163480809Y-124210619D02*
X163480809Y-123210619D01*
X163480809Y-123210619D02*
X163576047Y-123353476D01*
X163576047Y-123353476D02*
X163671285Y-123448714D01*
X163671285Y-123448714D02*
X163766523Y-123496333D01*
X162242714Y-124210619D02*
X162814142Y-124210619D01*
X162528428Y-124210619D02*
X162528428Y-123210619D01*
X162528428Y-123210619D02*
X162623666Y-123353476D01*
X162623666Y-123353476D02*
X162718904Y-123448714D01*
X162718904Y-123448714D02*
X162814142Y-123496333D01*
X162496523Y-111367857D02*
X162448904Y-111320238D01*
X162448904Y-111320238D02*
X162353666Y-111272619D01*
X162353666Y-111272619D02*
X162115571Y-111272619D01*
X162115571Y-111272619D02*
X162020333Y-111320238D01*
X162020333Y-111320238D02*
X161972714Y-111367857D01*
X161972714Y-111367857D02*
X161925095Y-111463095D01*
X161925095Y-111463095D02*
X161925095Y-111558333D01*
X161925095Y-111558333D02*
X161972714Y-111701190D01*
X161972714Y-111701190D02*
X162544142Y-112272619D01*
X162544142Y-112272619D02*
X161925095Y-112272619D01*
X161306047Y-111272619D02*
X161210809Y-111272619D01*
X161210809Y-111272619D02*
X161115571Y-111320238D01*
X161115571Y-111320238D02*
X161067952Y-111367857D01*
X161067952Y-111367857D02*
X161020333Y-111463095D01*
X161020333Y-111463095D02*
X160972714Y-111653571D01*
X160972714Y-111653571D02*
X160972714Y-111891666D01*
X160972714Y-111891666D02*
X161020333Y-112082142D01*
X161020333Y-112082142D02*
X161067952Y-112177380D01*
X161067952Y-112177380D02*
X161115571Y-112225000D01*
X161115571Y-112225000D02*
X161210809Y-112272619D01*
X161210809Y-112272619D02*
X161306047Y-112272619D01*
X161306047Y-112272619D02*
X161401285Y-112225000D01*
X161401285Y-112225000D02*
X161448904Y-112177380D01*
X161448904Y-112177380D02*
X161496523Y-112082142D01*
X161496523Y-112082142D02*
X161544142Y-111891666D01*
X161544142Y-111891666D02*
X161544142Y-111653571D01*
X161544142Y-111653571D02*
X161496523Y-111463095D01*
X161496523Y-111463095D02*
X161448904Y-111367857D01*
X161448904Y-111367857D02*
X161401285Y-111320238D01*
X161401285Y-111320238D02*
X161306047Y-111272619D01*
X177165095Y-112780619D02*
X177736523Y-112780619D01*
X177450809Y-112780619D02*
X177450809Y-111780619D01*
X177450809Y-111780619D02*
X177546047Y-111923476D01*
X177546047Y-111923476D02*
X177641285Y-112018714D01*
X177641285Y-112018714D02*
X177736523Y-112066333D01*
X155927323Y-94315619D02*
X155927323Y-93315619D01*
X155927323Y-93315619D02*
X155593990Y-94029904D01*
X155593990Y-94029904D02*
X155260657Y-93315619D01*
X155260657Y-93315619D02*
X155260657Y-94315619D01*
X154879704Y-93315619D02*
X154260657Y-93315619D01*
X154260657Y-93315619D02*
X154593990Y-93696571D01*
X154593990Y-93696571D02*
X154451133Y-93696571D01*
X154451133Y-93696571D02*
X154355895Y-93744190D01*
X154355895Y-93744190D02*
X154308276Y-93791809D01*
X154308276Y-93791809D02*
X154260657Y-93887047D01*
X154260657Y-93887047D02*
X154260657Y-94125142D01*
X154260657Y-94125142D02*
X154308276Y-94220380D01*
X154308276Y-94220380D02*
X154355895Y-94268000D01*
X154355895Y-94268000D02*
X154451133Y-94315619D01*
X154451133Y-94315619D02*
X154736847Y-94315619D01*
X154736847Y-94315619D02*
X154832085Y-94268000D01*
X154832085Y-94268000D02*
X154879704Y-94220380D01*
D10*
X104230466Y-60438380D02*
X104278085Y-60486000D01*
X104278085Y-60486000D02*
X104420942Y-60533619D01*
X104420942Y-60533619D02*
X104516180Y-60533619D01*
X104516180Y-60533619D02*
X104659037Y-60486000D01*
X104659037Y-60486000D02*
X104754275Y-60390761D01*
X104754275Y-60390761D02*
X104801894Y-60295523D01*
X104801894Y-60295523D02*
X104849513Y-60105047D01*
X104849513Y-60105047D02*
X104849513Y-59962190D01*
X104849513Y-59962190D02*
X104801894Y-59771714D01*
X104801894Y-59771714D02*
X104754275Y-59676476D01*
X104754275Y-59676476D02*
X104659037Y-59581238D01*
X104659037Y-59581238D02*
X104516180Y-59533619D01*
X104516180Y-59533619D02*
X104420942Y-59533619D01*
X104420942Y-59533619D02*
X104278085Y-59581238D01*
X104278085Y-59581238D02*
X104230466Y-59628857D01*
X103373323Y-59866952D02*
X103373323Y-60533619D01*
X103611418Y-59486000D02*
X103849513Y-60200285D01*
X103849513Y-60200285D02*
X103230466Y-60200285D01*
D11*
X198802523Y-60787619D02*
X198802523Y-59787619D01*
X198802523Y-59787619D02*
X198469190Y-60501904D01*
X198469190Y-60501904D02*
X198135857Y-59787619D01*
X198135857Y-59787619D02*
X198135857Y-60787619D01*
X197469190Y-59787619D02*
X197373952Y-59787619D01*
X197373952Y-59787619D02*
X197278714Y-59835238D01*
X197278714Y-59835238D02*
X197231095Y-59882857D01*
X197231095Y-59882857D02*
X197183476Y-59978095D01*
X197183476Y-59978095D02*
X197135857Y-60168571D01*
X197135857Y-60168571D02*
X197135857Y-60406666D01*
X197135857Y-60406666D02*
X197183476Y-60597142D01*
X197183476Y-60597142D02*
X197231095Y-60692380D01*
X197231095Y-60692380D02*
X197278714Y-60740000D01*
X197278714Y-60740000D02*
X197373952Y-60787619D01*
X197373952Y-60787619D02*
X197469190Y-60787619D01*
X197469190Y-60787619D02*
X197564428Y-60740000D01*
X197564428Y-60740000D02*
X197612047Y-60692380D01*
X197612047Y-60692380D02*
X197659666Y-60597142D01*
X197659666Y-60597142D02*
X197707285Y-60406666D01*
X197707285Y-60406666D02*
X197707285Y-60168571D01*
X197707285Y-60168571D02*
X197659666Y-59978095D01*
X197659666Y-59978095D02*
X197612047Y-59882857D01*
X197612047Y-59882857D02*
X197564428Y-59835238D01*
X197564428Y-59835238D02*
X197469190Y-59787619D01*
D10*
X193352657Y-54443980D02*
X193400276Y-54491600D01*
X193400276Y-54491600D02*
X193543133Y-54539219D01*
X193543133Y-54539219D02*
X193638371Y-54539219D01*
X193638371Y-54539219D02*
X193781228Y-54491600D01*
X193781228Y-54491600D02*
X193876466Y-54396361D01*
X193876466Y-54396361D02*
X193924085Y-54301123D01*
X193924085Y-54301123D02*
X193971704Y-54110647D01*
X193971704Y-54110647D02*
X193971704Y-53967790D01*
X193971704Y-53967790D02*
X193924085Y-53777314D01*
X193924085Y-53777314D02*
X193876466Y-53682076D01*
X193876466Y-53682076D02*
X193781228Y-53586838D01*
X193781228Y-53586838D02*
X193638371Y-53539219D01*
X193638371Y-53539219D02*
X193543133Y-53539219D01*
X193543133Y-53539219D02*
X193400276Y-53586838D01*
X193400276Y-53586838D02*
X193352657Y-53634457D01*
X192400276Y-54539219D02*
X192971704Y-54539219D01*
X192685990Y-54539219D02*
X192685990Y-53539219D01*
X192685990Y-53539219D02*
X192781228Y-53682076D01*
X192781228Y-53682076D02*
X192876466Y-53777314D01*
X192876466Y-53777314D02*
X192971704Y-53824933D01*
X191543133Y-53872552D02*
X191543133Y-54539219D01*
X191781228Y-53491600D02*
X192019323Y-54205885D01*
X192019323Y-54205885D02*
X191400276Y-54205885D01*
X135294666Y-101275219D02*
X135627999Y-100799028D01*
X135866094Y-101275219D02*
X135866094Y-100275219D01*
X135866094Y-100275219D02*
X135485142Y-100275219D01*
X135485142Y-100275219D02*
X135389904Y-100322838D01*
X135389904Y-100322838D02*
X135342285Y-100370457D01*
X135342285Y-100370457D02*
X135294666Y-100465695D01*
X135294666Y-100465695D02*
X135294666Y-100608552D01*
X135294666Y-100608552D02*
X135342285Y-100703790D01*
X135342285Y-100703790D02*
X135389904Y-100751409D01*
X135389904Y-100751409D02*
X135485142Y-100799028D01*
X135485142Y-100799028D02*
X135866094Y-100799028D01*
X134913713Y-100370457D02*
X134866094Y-100322838D01*
X134866094Y-100322838D02*
X134770856Y-100275219D01*
X134770856Y-100275219D02*
X134532761Y-100275219D01*
X134532761Y-100275219D02*
X134437523Y-100322838D01*
X134437523Y-100322838D02*
X134389904Y-100370457D01*
X134389904Y-100370457D02*
X134342285Y-100465695D01*
X134342285Y-100465695D02*
X134342285Y-100560933D01*
X134342285Y-100560933D02*
X134389904Y-100703790D01*
X134389904Y-100703790D02*
X134961332Y-101275219D01*
X134961332Y-101275219D02*
X134342285Y-101275219D01*
D11*
X107889513Y-69017219D02*
X107889513Y-68017219D01*
X107889513Y-68017219D02*
X107556180Y-68731504D01*
X107556180Y-68731504D02*
X107222847Y-68017219D01*
X107222847Y-68017219D02*
X107222847Y-69017219D01*
X106222847Y-69017219D02*
X106794275Y-69017219D01*
X106508561Y-69017219D02*
X106508561Y-68017219D01*
X106508561Y-68017219D02*
X106603799Y-68160076D01*
X106603799Y-68160076D02*
X106699037Y-68255314D01*
X106699037Y-68255314D02*
X106794275Y-68302933D01*
X105270466Y-69017219D02*
X105841894Y-69017219D01*
X105556180Y-69017219D02*
X105556180Y-68017219D01*
X105556180Y-68017219D02*
X105651418Y-68160076D01*
X105651418Y-68160076D02*
X105746656Y-68255314D01*
X105746656Y-68255314D02*
X105841894Y-68302933D01*
D10*
X136996466Y-92994819D02*
X137329799Y-92518628D01*
X137567894Y-92994819D02*
X137567894Y-91994819D01*
X137567894Y-91994819D02*
X137186942Y-91994819D01*
X137186942Y-91994819D02*
X137091704Y-92042438D01*
X137091704Y-92042438D02*
X137044085Y-92090057D01*
X137044085Y-92090057D02*
X136996466Y-92185295D01*
X136996466Y-92185295D02*
X136996466Y-92328152D01*
X136996466Y-92328152D02*
X137044085Y-92423390D01*
X137044085Y-92423390D02*
X137091704Y-92471009D01*
X137091704Y-92471009D02*
X137186942Y-92518628D01*
X137186942Y-92518628D02*
X137567894Y-92518628D01*
X136044085Y-92994819D02*
X136615513Y-92994819D01*
X136329799Y-92994819D02*
X136329799Y-91994819D01*
X136329799Y-91994819D02*
X136425037Y-92137676D01*
X136425037Y-92137676D02*
X136520275Y-92232914D01*
X136520275Y-92232914D02*
X136615513Y-92280533D01*
X153779457Y-117334380D02*
X153827076Y-117382000D01*
X153827076Y-117382000D02*
X153969933Y-117429619D01*
X153969933Y-117429619D02*
X154065171Y-117429619D01*
X154065171Y-117429619D02*
X154208028Y-117382000D01*
X154208028Y-117382000D02*
X154303266Y-117286761D01*
X154303266Y-117286761D02*
X154350885Y-117191523D01*
X154350885Y-117191523D02*
X154398504Y-117001047D01*
X154398504Y-117001047D02*
X154398504Y-116858190D01*
X154398504Y-116858190D02*
X154350885Y-116667714D01*
X154350885Y-116667714D02*
X154303266Y-116572476D01*
X154303266Y-116572476D02*
X154208028Y-116477238D01*
X154208028Y-116477238D02*
X154065171Y-116429619D01*
X154065171Y-116429619D02*
X153969933Y-116429619D01*
X153969933Y-116429619D02*
X153827076Y-116477238D01*
X153827076Y-116477238D02*
X153779457Y-116524857D01*
X153398504Y-116524857D02*
X153350885Y-116477238D01*
X153350885Y-116477238D02*
X153255647Y-116429619D01*
X153255647Y-116429619D02*
X153017552Y-116429619D01*
X153017552Y-116429619D02*
X152922314Y-116477238D01*
X152922314Y-116477238D02*
X152874695Y-116524857D01*
X152874695Y-116524857D02*
X152827076Y-116620095D01*
X152827076Y-116620095D02*
X152827076Y-116715333D01*
X152827076Y-116715333D02*
X152874695Y-116858190D01*
X152874695Y-116858190D02*
X153446123Y-117429619D01*
X153446123Y-117429619D02*
X152827076Y-117429619D01*
X152446123Y-116524857D02*
X152398504Y-116477238D01*
X152398504Y-116477238D02*
X152303266Y-116429619D01*
X152303266Y-116429619D02*
X152065171Y-116429619D01*
X152065171Y-116429619D02*
X151969933Y-116477238D01*
X151969933Y-116477238D02*
X151922314Y-116524857D01*
X151922314Y-116524857D02*
X151874695Y-116620095D01*
X151874695Y-116620095D02*
X151874695Y-116715333D01*
X151874695Y-116715333D02*
X151922314Y-116858190D01*
X151922314Y-116858190D02*
X152493742Y-117429619D01*
X152493742Y-117429619D02*
X151874695Y-117429619D01*
X87739457Y-115759580D02*
X87787076Y-115807200D01*
X87787076Y-115807200D02*
X87929933Y-115854819D01*
X87929933Y-115854819D02*
X88025171Y-115854819D01*
X88025171Y-115854819D02*
X88168028Y-115807200D01*
X88168028Y-115807200D02*
X88263266Y-115711961D01*
X88263266Y-115711961D02*
X88310885Y-115616723D01*
X88310885Y-115616723D02*
X88358504Y-115426247D01*
X88358504Y-115426247D02*
X88358504Y-115283390D01*
X88358504Y-115283390D02*
X88310885Y-115092914D01*
X88310885Y-115092914D02*
X88263266Y-114997676D01*
X88263266Y-114997676D02*
X88168028Y-114902438D01*
X88168028Y-114902438D02*
X88025171Y-114854819D01*
X88025171Y-114854819D02*
X87929933Y-114854819D01*
X87929933Y-114854819D02*
X87787076Y-114902438D01*
X87787076Y-114902438D02*
X87739457Y-114950057D01*
X86882314Y-115188152D02*
X86882314Y-115854819D01*
X87120409Y-114807200D02*
X87358504Y-115521485D01*
X87358504Y-115521485D02*
X86739457Y-115521485D01*
X86453742Y-114854819D02*
X85834695Y-114854819D01*
X85834695Y-114854819D02*
X86168028Y-115235771D01*
X86168028Y-115235771D02*
X86025171Y-115235771D01*
X86025171Y-115235771D02*
X85929933Y-115283390D01*
X85929933Y-115283390D02*
X85882314Y-115331009D01*
X85882314Y-115331009D02*
X85834695Y-115426247D01*
X85834695Y-115426247D02*
X85834695Y-115664342D01*
X85834695Y-115664342D02*
X85882314Y-115759580D01*
X85882314Y-115759580D02*
X85929933Y-115807200D01*
X85929933Y-115807200D02*
X86025171Y-115854819D01*
X86025171Y-115854819D02*
X86310885Y-115854819D01*
X86310885Y-115854819D02*
X86406123Y-115807200D01*
X86406123Y-115807200D02*
X86453742Y-115759580D01*
X201328257Y-83145980D02*
X201375876Y-83193600D01*
X201375876Y-83193600D02*
X201518733Y-83241219D01*
X201518733Y-83241219D02*
X201613971Y-83241219D01*
X201613971Y-83241219D02*
X201756828Y-83193600D01*
X201756828Y-83193600D02*
X201852066Y-83098361D01*
X201852066Y-83098361D02*
X201899685Y-83003123D01*
X201899685Y-83003123D02*
X201947304Y-82812647D01*
X201947304Y-82812647D02*
X201947304Y-82669790D01*
X201947304Y-82669790D02*
X201899685Y-82479314D01*
X201899685Y-82479314D02*
X201852066Y-82384076D01*
X201852066Y-82384076D02*
X201756828Y-82288838D01*
X201756828Y-82288838D02*
X201613971Y-82241219D01*
X201613971Y-82241219D02*
X201518733Y-82241219D01*
X201518733Y-82241219D02*
X201375876Y-82288838D01*
X201375876Y-82288838D02*
X201328257Y-82336457D01*
X200947304Y-82336457D02*
X200899685Y-82288838D01*
X200899685Y-82288838D02*
X200804447Y-82241219D01*
X200804447Y-82241219D02*
X200566352Y-82241219D01*
X200566352Y-82241219D02*
X200471114Y-82288838D01*
X200471114Y-82288838D02*
X200423495Y-82336457D01*
X200423495Y-82336457D02*
X200375876Y-82431695D01*
X200375876Y-82431695D02*
X200375876Y-82526933D01*
X200375876Y-82526933D02*
X200423495Y-82669790D01*
X200423495Y-82669790D02*
X200994923Y-83241219D01*
X200994923Y-83241219D02*
X200375876Y-83241219D01*
X199518733Y-82574552D02*
X199518733Y-83241219D01*
X199756828Y-82193600D02*
X199994923Y-82907885D01*
X199994923Y-82907885D02*
X199375876Y-82907885D01*
X149207457Y-120941180D02*
X149255076Y-120988800D01*
X149255076Y-120988800D02*
X149397933Y-121036419D01*
X149397933Y-121036419D02*
X149493171Y-121036419D01*
X149493171Y-121036419D02*
X149636028Y-120988800D01*
X149636028Y-120988800D02*
X149731266Y-120893561D01*
X149731266Y-120893561D02*
X149778885Y-120798323D01*
X149778885Y-120798323D02*
X149826504Y-120607847D01*
X149826504Y-120607847D02*
X149826504Y-120464990D01*
X149826504Y-120464990D02*
X149778885Y-120274514D01*
X149778885Y-120274514D02*
X149731266Y-120179276D01*
X149731266Y-120179276D02*
X149636028Y-120084038D01*
X149636028Y-120084038D02*
X149493171Y-120036419D01*
X149493171Y-120036419D02*
X149397933Y-120036419D01*
X149397933Y-120036419D02*
X149255076Y-120084038D01*
X149255076Y-120084038D02*
X149207457Y-120131657D01*
X148826504Y-120131657D02*
X148778885Y-120084038D01*
X148778885Y-120084038D02*
X148683647Y-120036419D01*
X148683647Y-120036419D02*
X148445552Y-120036419D01*
X148445552Y-120036419D02*
X148350314Y-120084038D01*
X148350314Y-120084038D02*
X148302695Y-120131657D01*
X148302695Y-120131657D02*
X148255076Y-120226895D01*
X148255076Y-120226895D02*
X148255076Y-120322133D01*
X148255076Y-120322133D02*
X148302695Y-120464990D01*
X148302695Y-120464990D02*
X148874123Y-121036419D01*
X148874123Y-121036419D02*
X148255076Y-121036419D01*
X147636028Y-120036419D02*
X147540790Y-120036419D01*
X147540790Y-120036419D02*
X147445552Y-120084038D01*
X147445552Y-120084038D02*
X147397933Y-120131657D01*
X147397933Y-120131657D02*
X147350314Y-120226895D01*
X147350314Y-120226895D02*
X147302695Y-120417371D01*
X147302695Y-120417371D02*
X147302695Y-120655466D01*
X147302695Y-120655466D02*
X147350314Y-120845942D01*
X147350314Y-120845942D02*
X147397933Y-120941180D01*
X147397933Y-120941180D02*
X147445552Y-120988800D01*
X147445552Y-120988800D02*
X147540790Y-121036419D01*
X147540790Y-121036419D02*
X147636028Y-121036419D01*
X147636028Y-121036419D02*
X147731266Y-120988800D01*
X147731266Y-120988800D02*
X147778885Y-120941180D01*
X147778885Y-120941180D02*
X147826504Y-120845942D01*
X147826504Y-120845942D02*
X147874123Y-120655466D01*
X147874123Y-120655466D02*
X147874123Y-120417371D01*
X147874123Y-120417371D02*
X147826504Y-120226895D01*
X147826504Y-120226895D02*
X147778885Y-120131657D01*
X147778885Y-120131657D02*
X147731266Y-120084038D01*
X147731266Y-120084038D02*
X147636028Y-120036419D01*
X153068257Y-110222380D02*
X153115876Y-110270000D01*
X153115876Y-110270000D02*
X153258733Y-110317619D01*
X153258733Y-110317619D02*
X153353971Y-110317619D01*
X153353971Y-110317619D02*
X153496828Y-110270000D01*
X153496828Y-110270000D02*
X153592066Y-110174761D01*
X153592066Y-110174761D02*
X153639685Y-110079523D01*
X153639685Y-110079523D02*
X153687304Y-109889047D01*
X153687304Y-109889047D02*
X153687304Y-109746190D01*
X153687304Y-109746190D02*
X153639685Y-109555714D01*
X153639685Y-109555714D02*
X153592066Y-109460476D01*
X153592066Y-109460476D02*
X153496828Y-109365238D01*
X153496828Y-109365238D02*
X153353971Y-109317619D01*
X153353971Y-109317619D02*
X153258733Y-109317619D01*
X153258733Y-109317619D02*
X153115876Y-109365238D01*
X153115876Y-109365238D02*
X153068257Y-109412857D01*
X152115876Y-110317619D02*
X152687304Y-110317619D01*
X152401590Y-110317619D02*
X152401590Y-109317619D01*
X152401590Y-109317619D02*
X152496828Y-109460476D01*
X152496828Y-109460476D02*
X152592066Y-109555714D01*
X152592066Y-109555714D02*
X152687304Y-109603333D01*
X151639685Y-110317619D02*
X151449209Y-110317619D01*
X151449209Y-110317619D02*
X151353971Y-110270000D01*
X151353971Y-110270000D02*
X151306352Y-110222380D01*
X151306352Y-110222380D02*
X151211114Y-110079523D01*
X151211114Y-110079523D02*
X151163495Y-109889047D01*
X151163495Y-109889047D02*
X151163495Y-109508095D01*
X151163495Y-109508095D02*
X151211114Y-109412857D01*
X151211114Y-109412857D02*
X151258733Y-109365238D01*
X151258733Y-109365238D02*
X151353971Y-109317619D01*
X151353971Y-109317619D02*
X151544447Y-109317619D01*
X151544447Y-109317619D02*
X151639685Y-109365238D01*
X151639685Y-109365238D02*
X151687304Y-109412857D01*
X151687304Y-109412857D02*
X151734923Y-109508095D01*
X151734923Y-109508095D02*
X151734923Y-109746190D01*
X151734923Y-109746190D02*
X151687304Y-109841428D01*
X151687304Y-109841428D02*
X151639685Y-109889047D01*
X151639685Y-109889047D02*
X151544447Y-109936666D01*
X151544447Y-109936666D02*
X151353971Y-109936666D01*
X151353971Y-109936666D02*
X151258733Y-109889047D01*
X151258733Y-109889047D02*
X151211114Y-109841428D01*
X151211114Y-109841428D02*
X151163495Y-109746190D01*
X113679266Y-117486780D02*
X113726885Y-117534400D01*
X113726885Y-117534400D02*
X113869742Y-117582019D01*
X113869742Y-117582019D02*
X113964980Y-117582019D01*
X113964980Y-117582019D02*
X114107837Y-117534400D01*
X114107837Y-117534400D02*
X114203075Y-117439161D01*
X114203075Y-117439161D02*
X114250694Y-117343923D01*
X114250694Y-117343923D02*
X114298313Y-117153447D01*
X114298313Y-117153447D02*
X114298313Y-117010590D01*
X114298313Y-117010590D02*
X114250694Y-116820114D01*
X114250694Y-116820114D02*
X114203075Y-116724876D01*
X114203075Y-116724876D02*
X114107837Y-116629638D01*
X114107837Y-116629638D02*
X113964980Y-116582019D01*
X113964980Y-116582019D02*
X113869742Y-116582019D01*
X113869742Y-116582019D02*
X113726885Y-116629638D01*
X113726885Y-116629638D02*
X113679266Y-116677257D01*
X112774504Y-116582019D02*
X113250694Y-116582019D01*
X113250694Y-116582019D02*
X113298313Y-117058209D01*
X113298313Y-117058209D02*
X113250694Y-117010590D01*
X113250694Y-117010590D02*
X113155456Y-116962971D01*
X113155456Y-116962971D02*
X112917361Y-116962971D01*
X112917361Y-116962971D02*
X112822123Y-117010590D01*
X112822123Y-117010590D02*
X112774504Y-117058209D01*
X112774504Y-117058209D02*
X112726885Y-117153447D01*
X112726885Y-117153447D02*
X112726885Y-117391542D01*
X112726885Y-117391542D02*
X112774504Y-117486780D01*
X112774504Y-117486780D02*
X112822123Y-117534400D01*
X112822123Y-117534400D02*
X112917361Y-117582019D01*
X112917361Y-117582019D02*
X113155456Y-117582019D01*
X113155456Y-117582019D02*
X113250694Y-117534400D01*
X113250694Y-117534400D02*
X113298313Y-117486780D01*
X67673457Y-101535580D02*
X67721076Y-101583200D01*
X67721076Y-101583200D02*
X67863933Y-101630819D01*
X67863933Y-101630819D02*
X67959171Y-101630819D01*
X67959171Y-101630819D02*
X68102028Y-101583200D01*
X68102028Y-101583200D02*
X68197266Y-101487961D01*
X68197266Y-101487961D02*
X68244885Y-101392723D01*
X68244885Y-101392723D02*
X68292504Y-101202247D01*
X68292504Y-101202247D02*
X68292504Y-101059390D01*
X68292504Y-101059390D02*
X68244885Y-100868914D01*
X68244885Y-100868914D02*
X68197266Y-100773676D01*
X68197266Y-100773676D02*
X68102028Y-100678438D01*
X68102028Y-100678438D02*
X67959171Y-100630819D01*
X67959171Y-100630819D02*
X67863933Y-100630819D01*
X67863933Y-100630819D02*
X67721076Y-100678438D01*
X67721076Y-100678438D02*
X67673457Y-100726057D01*
X66816314Y-100964152D02*
X66816314Y-101630819D01*
X67054409Y-100583200D02*
X67292504Y-101297485D01*
X67292504Y-101297485D02*
X66673457Y-101297485D01*
X65816314Y-100630819D02*
X66292504Y-100630819D01*
X66292504Y-100630819D02*
X66340123Y-101107009D01*
X66340123Y-101107009D02*
X66292504Y-101059390D01*
X66292504Y-101059390D02*
X66197266Y-101011771D01*
X66197266Y-101011771D02*
X65959171Y-101011771D01*
X65959171Y-101011771D02*
X65863933Y-101059390D01*
X65863933Y-101059390D02*
X65816314Y-101107009D01*
X65816314Y-101107009D02*
X65768695Y-101202247D01*
X65768695Y-101202247D02*
X65768695Y-101440342D01*
X65768695Y-101440342D02*
X65816314Y-101535580D01*
X65816314Y-101535580D02*
X65863933Y-101583200D01*
X65863933Y-101583200D02*
X65959171Y-101630819D01*
X65959171Y-101630819D02*
X66197266Y-101630819D01*
X66197266Y-101630819D02*
X66292504Y-101583200D01*
X66292504Y-101583200D02*
X66340123Y-101535580D01*
X198667666Y-112502019D02*
X199000999Y-112025828D01*
X199239094Y-112502019D02*
X199239094Y-111502019D01*
X199239094Y-111502019D02*
X198858142Y-111502019D01*
X198858142Y-111502019D02*
X198762904Y-111549638D01*
X198762904Y-111549638D02*
X198715285Y-111597257D01*
X198715285Y-111597257D02*
X198667666Y-111692495D01*
X198667666Y-111692495D02*
X198667666Y-111835352D01*
X198667666Y-111835352D02*
X198715285Y-111930590D01*
X198715285Y-111930590D02*
X198762904Y-111978209D01*
X198762904Y-111978209D02*
X198858142Y-112025828D01*
X198858142Y-112025828D02*
X199239094Y-112025828D01*
X197810523Y-111502019D02*
X198000999Y-111502019D01*
X198000999Y-111502019D02*
X198096237Y-111549638D01*
X198096237Y-111549638D02*
X198143856Y-111597257D01*
X198143856Y-111597257D02*
X198239094Y-111740114D01*
X198239094Y-111740114D02*
X198286713Y-111930590D01*
X198286713Y-111930590D02*
X198286713Y-112311542D01*
X198286713Y-112311542D02*
X198239094Y-112406780D01*
X198239094Y-112406780D02*
X198191475Y-112454400D01*
X198191475Y-112454400D02*
X198096237Y-112502019D01*
X198096237Y-112502019D02*
X197905761Y-112502019D01*
X197905761Y-112502019D02*
X197810523Y-112454400D01*
X197810523Y-112454400D02*
X197762904Y-112406780D01*
X197762904Y-112406780D02*
X197715285Y-112311542D01*
X197715285Y-112311542D02*
X197715285Y-112073447D01*
X197715285Y-112073447D02*
X197762904Y-111978209D01*
X197762904Y-111978209D02*
X197810523Y-111930590D01*
X197810523Y-111930590D02*
X197905761Y-111882971D01*
X197905761Y-111882971D02*
X198096237Y-111882971D01*
X198096237Y-111882971D02*
X198191475Y-111930590D01*
X198191475Y-111930590D02*
X198239094Y-111978209D01*
X198239094Y-111978209D02*
X198286713Y-112073447D01*
X91092257Y-109053980D02*
X91139876Y-109101600D01*
X91139876Y-109101600D02*
X91282733Y-109149219D01*
X91282733Y-109149219D02*
X91377971Y-109149219D01*
X91377971Y-109149219D02*
X91520828Y-109101600D01*
X91520828Y-109101600D02*
X91616066Y-109006361D01*
X91616066Y-109006361D02*
X91663685Y-108911123D01*
X91663685Y-108911123D02*
X91711304Y-108720647D01*
X91711304Y-108720647D02*
X91711304Y-108577790D01*
X91711304Y-108577790D02*
X91663685Y-108387314D01*
X91663685Y-108387314D02*
X91616066Y-108292076D01*
X91616066Y-108292076D02*
X91520828Y-108196838D01*
X91520828Y-108196838D02*
X91377971Y-108149219D01*
X91377971Y-108149219D02*
X91282733Y-108149219D01*
X91282733Y-108149219D02*
X91139876Y-108196838D01*
X91139876Y-108196838D02*
X91092257Y-108244457D01*
X90235114Y-108482552D02*
X90235114Y-109149219D01*
X90473209Y-108101600D02*
X90711304Y-108815885D01*
X90711304Y-108815885D02*
X90092257Y-108815885D01*
X89806542Y-108149219D02*
X89139876Y-108149219D01*
X89139876Y-108149219D02*
X89568447Y-109149219D01*
X114898466Y-109917580D02*
X114946085Y-109965200D01*
X114946085Y-109965200D02*
X115088942Y-110012819D01*
X115088942Y-110012819D02*
X115184180Y-110012819D01*
X115184180Y-110012819D02*
X115327037Y-109965200D01*
X115327037Y-109965200D02*
X115422275Y-109869961D01*
X115422275Y-109869961D02*
X115469894Y-109774723D01*
X115469894Y-109774723D02*
X115517513Y-109584247D01*
X115517513Y-109584247D02*
X115517513Y-109441390D01*
X115517513Y-109441390D02*
X115469894Y-109250914D01*
X115469894Y-109250914D02*
X115422275Y-109155676D01*
X115422275Y-109155676D02*
X115327037Y-109060438D01*
X115327037Y-109060438D02*
X115184180Y-109012819D01*
X115184180Y-109012819D02*
X115088942Y-109012819D01*
X115088942Y-109012819D02*
X114946085Y-109060438D01*
X114946085Y-109060438D02*
X114898466Y-109108057D01*
X114565132Y-109012819D02*
X113898466Y-109012819D01*
X113898466Y-109012819D02*
X114327037Y-110012819D01*
X218701857Y-67550380D02*
X218749476Y-67598000D01*
X218749476Y-67598000D02*
X218892333Y-67645619D01*
X218892333Y-67645619D02*
X218987571Y-67645619D01*
X218987571Y-67645619D02*
X219130428Y-67598000D01*
X219130428Y-67598000D02*
X219225666Y-67502761D01*
X219225666Y-67502761D02*
X219273285Y-67407523D01*
X219273285Y-67407523D02*
X219320904Y-67217047D01*
X219320904Y-67217047D02*
X219320904Y-67074190D01*
X219320904Y-67074190D02*
X219273285Y-66883714D01*
X219273285Y-66883714D02*
X219225666Y-66788476D01*
X219225666Y-66788476D02*
X219130428Y-66693238D01*
X219130428Y-66693238D02*
X218987571Y-66645619D01*
X218987571Y-66645619D02*
X218892333Y-66645619D01*
X218892333Y-66645619D02*
X218749476Y-66693238D01*
X218749476Y-66693238D02*
X218701857Y-66740857D01*
X218368523Y-66645619D02*
X217749476Y-66645619D01*
X217749476Y-66645619D02*
X218082809Y-67026571D01*
X218082809Y-67026571D02*
X217939952Y-67026571D01*
X217939952Y-67026571D02*
X217844714Y-67074190D01*
X217844714Y-67074190D02*
X217797095Y-67121809D01*
X217797095Y-67121809D02*
X217749476Y-67217047D01*
X217749476Y-67217047D02*
X217749476Y-67455142D01*
X217749476Y-67455142D02*
X217797095Y-67550380D01*
X217797095Y-67550380D02*
X217844714Y-67598000D01*
X217844714Y-67598000D02*
X217939952Y-67645619D01*
X217939952Y-67645619D02*
X218225666Y-67645619D01*
X218225666Y-67645619D02*
X218320904Y-67598000D01*
X218320904Y-67598000D02*
X218368523Y-67550380D01*
X217130428Y-66645619D02*
X217035190Y-66645619D01*
X217035190Y-66645619D02*
X216939952Y-66693238D01*
X216939952Y-66693238D02*
X216892333Y-66740857D01*
X216892333Y-66740857D02*
X216844714Y-66836095D01*
X216844714Y-66836095D02*
X216797095Y-67026571D01*
X216797095Y-67026571D02*
X216797095Y-67264666D01*
X216797095Y-67264666D02*
X216844714Y-67455142D01*
X216844714Y-67455142D02*
X216892333Y-67550380D01*
X216892333Y-67550380D02*
X216939952Y-67598000D01*
X216939952Y-67598000D02*
X217035190Y-67645619D01*
X217035190Y-67645619D02*
X217130428Y-67645619D01*
X217130428Y-67645619D02*
X217225666Y-67598000D01*
X217225666Y-67598000D02*
X217273285Y-67550380D01*
X217273285Y-67550380D02*
X217320904Y-67455142D01*
X217320904Y-67455142D02*
X217368523Y-67264666D01*
X217368523Y-67264666D02*
X217368523Y-67026571D01*
X217368523Y-67026571D02*
X217320904Y-66836095D01*
X217320904Y-66836095D02*
X217273285Y-66740857D01*
X217273285Y-66740857D02*
X217225666Y-66693238D01*
X217225666Y-66693238D02*
X217130428Y-66645619D01*
X111190066Y-117486780D02*
X111237685Y-117534400D01*
X111237685Y-117534400D02*
X111380542Y-117582019D01*
X111380542Y-117582019D02*
X111475780Y-117582019D01*
X111475780Y-117582019D02*
X111618637Y-117534400D01*
X111618637Y-117534400D02*
X111713875Y-117439161D01*
X111713875Y-117439161D02*
X111761494Y-117343923D01*
X111761494Y-117343923D02*
X111809113Y-117153447D01*
X111809113Y-117153447D02*
X111809113Y-117010590D01*
X111809113Y-117010590D02*
X111761494Y-116820114D01*
X111761494Y-116820114D02*
X111713875Y-116724876D01*
X111713875Y-116724876D02*
X111618637Y-116629638D01*
X111618637Y-116629638D02*
X111475780Y-116582019D01*
X111475780Y-116582019D02*
X111380542Y-116582019D01*
X111380542Y-116582019D02*
X111237685Y-116629638D01*
X111237685Y-116629638D02*
X111190066Y-116677257D01*
X110332923Y-116582019D02*
X110523399Y-116582019D01*
X110523399Y-116582019D02*
X110618637Y-116629638D01*
X110618637Y-116629638D02*
X110666256Y-116677257D01*
X110666256Y-116677257D02*
X110761494Y-116820114D01*
X110761494Y-116820114D02*
X110809113Y-117010590D01*
X110809113Y-117010590D02*
X110809113Y-117391542D01*
X110809113Y-117391542D02*
X110761494Y-117486780D01*
X110761494Y-117486780D02*
X110713875Y-117534400D01*
X110713875Y-117534400D02*
X110618637Y-117582019D01*
X110618637Y-117582019D02*
X110428161Y-117582019D01*
X110428161Y-117582019D02*
X110332923Y-117534400D01*
X110332923Y-117534400D02*
X110285304Y-117486780D01*
X110285304Y-117486780D02*
X110237685Y-117391542D01*
X110237685Y-117391542D02*
X110237685Y-117153447D01*
X110237685Y-117153447D02*
X110285304Y-117058209D01*
X110285304Y-117058209D02*
X110332923Y-117010590D01*
X110332923Y-117010590D02*
X110428161Y-116962971D01*
X110428161Y-116962971D02*
X110618637Y-116962971D01*
X110618637Y-116962971D02*
X110713875Y-117010590D01*
X110713875Y-117010590D02*
X110761494Y-117058209D01*
X110761494Y-117058209D02*
X110809113Y-117153447D01*
X132119666Y-86752780D02*
X132167285Y-86800400D01*
X132167285Y-86800400D02*
X132310142Y-86848019D01*
X132310142Y-86848019D02*
X132405380Y-86848019D01*
X132405380Y-86848019D02*
X132548237Y-86800400D01*
X132548237Y-86800400D02*
X132643475Y-86705161D01*
X132643475Y-86705161D02*
X132691094Y-86609923D01*
X132691094Y-86609923D02*
X132738713Y-86419447D01*
X132738713Y-86419447D02*
X132738713Y-86276590D01*
X132738713Y-86276590D02*
X132691094Y-86086114D01*
X132691094Y-86086114D02*
X132643475Y-85990876D01*
X132643475Y-85990876D02*
X132548237Y-85895638D01*
X132548237Y-85895638D02*
X132405380Y-85848019D01*
X132405380Y-85848019D02*
X132310142Y-85848019D01*
X132310142Y-85848019D02*
X132167285Y-85895638D01*
X132167285Y-85895638D02*
X132119666Y-85943257D01*
X131738713Y-85943257D02*
X131691094Y-85895638D01*
X131691094Y-85895638D02*
X131595856Y-85848019D01*
X131595856Y-85848019D02*
X131357761Y-85848019D01*
X131357761Y-85848019D02*
X131262523Y-85895638D01*
X131262523Y-85895638D02*
X131214904Y-85943257D01*
X131214904Y-85943257D02*
X131167285Y-86038495D01*
X131167285Y-86038495D02*
X131167285Y-86133733D01*
X131167285Y-86133733D02*
X131214904Y-86276590D01*
X131214904Y-86276590D02*
X131786332Y-86848019D01*
X131786332Y-86848019D02*
X131167285Y-86848019D01*
X59951857Y-81723580D02*
X59999476Y-81771200D01*
X59999476Y-81771200D02*
X60142333Y-81818819D01*
X60142333Y-81818819D02*
X60237571Y-81818819D01*
X60237571Y-81818819D02*
X60380428Y-81771200D01*
X60380428Y-81771200D02*
X60475666Y-81675961D01*
X60475666Y-81675961D02*
X60523285Y-81580723D01*
X60523285Y-81580723D02*
X60570904Y-81390247D01*
X60570904Y-81390247D02*
X60570904Y-81247390D01*
X60570904Y-81247390D02*
X60523285Y-81056914D01*
X60523285Y-81056914D02*
X60475666Y-80961676D01*
X60475666Y-80961676D02*
X60380428Y-80866438D01*
X60380428Y-80866438D02*
X60237571Y-80818819D01*
X60237571Y-80818819D02*
X60142333Y-80818819D01*
X60142333Y-80818819D02*
X59999476Y-80866438D01*
X59999476Y-80866438D02*
X59951857Y-80914057D01*
X59047095Y-80818819D02*
X59523285Y-80818819D01*
X59523285Y-80818819D02*
X59570904Y-81295009D01*
X59570904Y-81295009D02*
X59523285Y-81247390D01*
X59523285Y-81247390D02*
X59428047Y-81199771D01*
X59428047Y-81199771D02*
X59189952Y-81199771D01*
X59189952Y-81199771D02*
X59094714Y-81247390D01*
X59094714Y-81247390D02*
X59047095Y-81295009D01*
X59047095Y-81295009D02*
X58999476Y-81390247D01*
X58999476Y-81390247D02*
X58999476Y-81628342D01*
X58999476Y-81628342D02*
X59047095Y-81723580D01*
X59047095Y-81723580D02*
X59094714Y-81771200D01*
X59094714Y-81771200D02*
X59189952Y-81818819D01*
X59189952Y-81818819D02*
X59428047Y-81818819D01*
X59428047Y-81818819D02*
X59523285Y-81771200D01*
X59523285Y-81771200D02*
X59570904Y-81723580D01*
X58380428Y-80818819D02*
X58285190Y-80818819D01*
X58285190Y-80818819D02*
X58189952Y-80866438D01*
X58189952Y-80866438D02*
X58142333Y-80914057D01*
X58142333Y-80914057D02*
X58094714Y-81009295D01*
X58094714Y-81009295D02*
X58047095Y-81199771D01*
X58047095Y-81199771D02*
X58047095Y-81437866D01*
X58047095Y-81437866D02*
X58094714Y-81628342D01*
X58094714Y-81628342D02*
X58142333Y-81723580D01*
X58142333Y-81723580D02*
X58189952Y-81771200D01*
X58189952Y-81771200D02*
X58285190Y-81818819D01*
X58285190Y-81818819D02*
X58380428Y-81818819D01*
X58380428Y-81818819D02*
X58475666Y-81771200D01*
X58475666Y-81771200D02*
X58523285Y-81723580D01*
X58523285Y-81723580D02*
X58570904Y-81628342D01*
X58570904Y-81628342D02*
X58618523Y-81437866D01*
X58618523Y-81437866D02*
X58618523Y-81199771D01*
X58618523Y-81199771D02*
X58570904Y-81009295D01*
X58570904Y-81009295D02*
X58523285Y-80914057D01*
X58523285Y-80914057D02*
X58475666Y-80866438D01*
X58475666Y-80866438D02*
X58380428Y-80818819D01*
X166835057Y-107834780D02*
X166882676Y-107882400D01*
X166882676Y-107882400D02*
X167025533Y-107930019D01*
X167025533Y-107930019D02*
X167120771Y-107930019D01*
X167120771Y-107930019D02*
X167263628Y-107882400D01*
X167263628Y-107882400D02*
X167358866Y-107787161D01*
X167358866Y-107787161D02*
X167406485Y-107691923D01*
X167406485Y-107691923D02*
X167454104Y-107501447D01*
X167454104Y-107501447D02*
X167454104Y-107358590D01*
X167454104Y-107358590D02*
X167406485Y-107168114D01*
X167406485Y-107168114D02*
X167358866Y-107072876D01*
X167358866Y-107072876D02*
X167263628Y-106977638D01*
X167263628Y-106977638D02*
X167120771Y-106930019D01*
X167120771Y-106930019D02*
X167025533Y-106930019D01*
X167025533Y-106930019D02*
X166882676Y-106977638D01*
X166882676Y-106977638D02*
X166835057Y-107025257D01*
X165930295Y-106930019D02*
X166406485Y-106930019D01*
X166406485Y-106930019D02*
X166454104Y-107406209D01*
X166454104Y-107406209D02*
X166406485Y-107358590D01*
X166406485Y-107358590D02*
X166311247Y-107310971D01*
X166311247Y-107310971D02*
X166073152Y-107310971D01*
X166073152Y-107310971D02*
X165977914Y-107358590D01*
X165977914Y-107358590D02*
X165930295Y-107406209D01*
X165930295Y-107406209D02*
X165882676Y-107501447D01*
X165882676Y-107501447D02*
X165882676Y-107739542D01*
X165882676Y-107739542D02*
X165930295Y-107834780D01*
X165930295Y-107834780D02*
X165977914Y-107882400D01*
X165977914Y-107882400D02*
X166073152Y-107930019D01*
X166073152Y-107930019D02*
X166311247Y-107930019D01*
X166311247Y-107930019D02*
X166406485Y-107882400D01*
X166406485Y-107882400D02*
X166454104Y-107834780D01*
X164930295Y-107930019D02*
X165501723Y-107930019D01*
X165216009Y-107930019D02*
X165216009Y-106930019D01*
X165216009Y-106930019D02*
X165311247Y-107072876D01*
X165311247Y-107072876D02*
X165406485Y-107168114D01*
X165406485Y-107168114D02*
X165501723Y-107215733D01*
X153068257Y-112609980D02*
X153115876Y-112657600D01*
X153115876Y-112657600D02*
X153258733Y-112705219D01*
X153258733Y-112705219D02*
X153353971Y-112705219D01*
X153353971Y-112705219D02*
X153496828Y-112657600D01*
X153496828Y-112657600D02*
X153592066Y-112562361D01*
X153592066Y-112562361D02*
X153639685Y-112467123D01*
X153639685Y-112467123D02*
X153687304Y-112276647D01*
X153687304Y-112276647D02*
X153687304Y-112133790D01*
X153687304Y-112133790D02*
X153639685Y-111943314D01*
X153639685Y-111943314D02*
X153592066Y-111848076D01*
X153592066Y-111848076D02*
X153496828Y-111752838D01*
X153496828Y-111752838D02*
X153353971Y-111705219D01*
X153353971Y-111705219D02*
X153258733Y-111705219D01*
X153258733Y-111705219D02*
X153115876Y-111752838D01*
X153115876Y-111752838D02*
X153068257Y-111800457D01*
X152115876Y-112705219D02*
X152687304Y-112705219D01*
X152401590Y-112705219D02*
X152401590Y-111705219D01*
X152401590Y-111705219D02*
X152496828Y-111848076D01*
X152496828Y-111848076D02*
X152592066Y-111943314D01*
X152592066Y-111943314D02*
X152687304Y-111990933D01*
X151782542Y-111705219D02*
X151115876Y-111705219D01*
X151115876Y-111705219D02*
X151544447Y-112705219D01*
D11*
X161159723Y-85349419D02*
X161159723Y-84349419D01*
X161159723Y-84349419D02*
X160826390Y-85063704D01*
X160826390Y-85063704D02*
X160493057Y-84349419D01*
X160493057Y-84349419D02*
X160493057Y-85349419D01*
X159588295Y-84349419D02*
X159778771Y-84349419D01*
X159778771Y-84349419D02*
X159874009Y-84397038D01*
X159874009Y-84397038D02*
X159921628Y-84444657D01*
X159921628Y-84444657D02*
X160016866Y-84587514D01*
X160016866Y-84587514D02*
X160064485Y-84777990D01*
X160064485Y-84777990D02*
X160064485Y-85158942D01*
X160064485Y-85158942D02*
X160016866Y-85254180D01*
X160016866Y-85254180D02*
X159969247Y-85301800D01*
X159969247Y-85301800D02*
X159874009Y-85349419D01*
X159874009Y-85349419D02*
X159683533Y-85349419D01*
X159683533Y-85349419D02*
X159588295Y-85301800D01*
X159588295Y-85301800D02*
X159540676Y-85254180D01*
X159540676Y-85254180D02*
X159493057Y-85158942D01*
X159493057Y-85158942D02*
X159493057Y-84920847D01*
X159493057Y-84920847D02*
X159540676Y-84825609D01*
X159540676Y-84825609D02*
X159588295Y-84777990D01*
X159588295Y-84777990D02*
X159683533Y-84730371D01*
X159683533Y-84730371D02*
X159874009Y-84730371D01*
X159874009Y-84730371D02*
X159969247Y-84777990D01*
X159969247Y-84777990D02*
X160016866Y-84825609D01*
X160016866Y-84825609D02*
X160064485Y-84920847D01*
D10*
X70619857Y-64654780D02*
X70667476Y-64702400D01*
X70667476Y-64702400D02*
X70810333Y-64750019D01*
X70810333Y-64750019D02*
X70905571Y-64750019D01*
X70905571Y-64750019D02*
X71048428Y-64702400D01*
X71048428Y-64702400D02*
X71143666Y-64607161D01*
X71143666Y-64607161D02*
X71191285Y-64511923D01*
X71191285Y-64511923D02*
X71238904Y-64321447D01*
X71238904Y-64321447D02*
X71238904Y-64178590D01*
X71238904Y-64178590D02*
X71191285Y-63988114D01*
X71191285Y-63988114D02*
X71143666Y-63892876D01*
X71143666Y-63892876D02*
X71048428Y-63797638D01*
X71048428Y-63797638D02*
X70905571Y-63750019D01*
X70905571Y-63750019D02*
X70810333Y-63750019D01*
X70810333Y-63750019D02*
X70667476Y-63797638D01*
X70667476Y-63797638D02*
X70619857Y-63845257D01*
X70286523Y-63750019D02*
X69667476Y-63750019D01*
X69667476Y-63750019D02*
X70000809Y-64130971D01*
X70000809Y-64130971D02*
X69857952Y-64130971D01*
X69857952Y-64130971D02*
X69762714Y-64178590D01*
X69762714Y-64178590D02*
X69715095Y-64226209D01*
X69715095Y-64226209D02*
X69667476Y-64321447D01*
X69667476Y-64321447D02*
X69667476Y-64559542D01*
X69667476Y-64559542D02*
X69715095Y-64654780D01*
X69715095Y-64654780D02*
X69762714Y-64702400D01*
X69762714Y-64702400D02*
X69857952Y-64750019D01*
X69857952Y-64750019D02*
X70143666Y-64750019D01*
X70143666Y-64750019D02*
X70238904Y-64702400D01*
X70238904Y-64702400D02*
X70286523Y-64654780D01*
X69191285Y-64750019D02*
X69000809Y-64750019D01*
X69000809Y-64750019D02*
X68905571Y-64702400D01*
X68905571Y-64702400D02*
X68857952Y-64654780D01*
X68857952Y-64654780D02*
X68762714Y-64511923D01*
X68762714Y-64511923D02*
X68715095Y-64321447D01*
X68715095Y-64321447D02*
X68715095Y-63940495D01*
X68715095Y-63940495D02*
X68762714Y-63845257D01*
X68762714Y-63845257D02*
X68810333Y-63797638D01*
X68810333Y-63797638D02*
X68905571Y-63750019D01*
X68905571Y-63750019D02*
X69096047Y-63750019D01*
X69096047Y-63750019D02*
X69191285Y-63797638D01*
X69191285Y-63797638D02*
X69238904Y-63845257D01*
X69238904Y-63845257D02*
X69286523Y-63940495D01*
X69286523Y-63940495D02*
X69286523Y-64178590D01*
X69286523Y-64178590D02*
X69238904Y-64273828D01*
X69238904Y-64273828D02*
X69191285Y-64321447D01*
X69191285Y-64321447D02*
X69096047Y-64369066D01*
X69096047Y-64369066D02*
X68905571Y-64369066D01*
X68905571Y-64369066D02*
X68810333Y-64321447D01*
X68810333Y-64321447D02*
X68762714Y-64273828D01*
X68762714Y-64273828D02*
X68715095Y-64178590D01*
D11*
X149526523Y-98227219D02*
X149526523Y-97227219D01*
X149526523Y-97227219D02*
X149193190Y-97941504D01*
X149193190Y-97941504D02*
X148859857Y-97227219D01*
X148859857Y-97227219D02*
X148859857Y-98227219D01*
X147955095Y-97560552D02*
X147955095Y-98227219D01*
X148193190Y-97179600D02*
X148431285Y-97893885D01*
X148431285Y-97893885D02*
X147812238Y-97893885D01*
D10*
X90584257Y-84771580D02*
X90631876Y-84819200D01*
X90631876Y-84819200D02*
X90774733Y-84866819D01*
X90774733Y-84866819D02*
X90869971Y-84866819D01*
X90869971Y-84866819D02*
X91012828Y-84819200D01*
X91012828Y-84819200D02*
X91108066Y-84723961D01*
X91108066Y-84723961D02*
X91155685Y-84628723D01*
X91155685Y-84628723D02*
X91203304Y-84438247D01*
X91203304Y-84438247D02*
X91203304Y-84295390D01*
X91203304Y-84295390D02*
X91155685Y-84104914D01*
X91155685Y-84104914D02*
X91108066Y-84009676D01*
X91108066Y-84009676D02*
X91012828Y-83914438D01*
X91012828Y-83914438D02*
X90869971Y-83866819D01*
X90869971Y-83866819D02*
X90774733Y-83866819D01*
X90774733Y-83866819D02*
X90631876Y-83914438D01*
X90631876Y-83914438D02*
X90584257Y-83962057D01*
X90250923Y-83866819D02*
X89631876Y-83866819D01*
X89631876Y-83866819D02*
X89965209Y-84247771D01*
X89965209Y-84247771D02*
X89822352Y-84247771D01*
X89822352Y-84247771D02*
X89727114Y-84295390D01*
X89727114Y-84295390D02*
X89679495Y-84343009D01*
X89679495Y-84343009D02*
X89631876Y-84438247D01*
X89631876Y-84438247D02*
X89631876Y-84676342D01*
X89631876Y-84676342D02*
X89679495Y-84771580D01*
X89679495Y-84771580D02*
X89727114Y-84819200D01*
X89727114Y-84819200D02*
X89822352Y-84866819D01*
X89822352Y-84866819D02*
X90108066Y-84866819D01*
X90108066Y-84866819D02*
X90203304Y-84819200D01*
X90203304Y-84819200D02*
X90250923Y-84771580D01*
X89060447Y-84295390D02*
X89155685Y-84247771D01*
X89155685Y-84247771D02*
X89203304Y-84200152D01*
X89203304Y-84200152D02*
X89250923Y-84104914D01*
X89250923Y-84104914D02*
X89250923Y-84057295D01*
X89250923Y-84057295D02*
X89203304Y-83962057D01*
X89203304Y-83962057D02*
X89155685Y-83914438D01*
X89155685Y-83914438D02*
X89060447Y-83866819D01*
X89060447Y-83866819D02*
X88869971Y-83866819D01*
X88869971Y-83866819D02*
X88774733Y-83914438D01*
X88774733Y-83914438D02*
X88727114Y-83962057D01*
X88727114Y-83962057D02*
X88679495Y-84057295D01*
X88679495Y-84057295D02*
X88679495Y-84104914D01*
X88679495Y-84104914D02*
X88727114Y-84200152D01*
X88727114Y-84200152D02*
X88774733Y-84247771D01*
X88774733Y-84247771D02*
X88869971Y-84295390D01*
X88869971Y-84295390D02*
X89060447Y-84295390D01*
X89060447Y-84295390D02*
X89155685Y-84343009D01*
X89155685Y-84343009D02*
X89203304Y-84390628D01*
X89203304Y-84390628D02*
X89250923Y-84485866D01*
X89250923Y-84485866D02*
X89250923Y-84676342D01*
X89250923Y-84676342D02*
X89203304Y-84771580D01*
X89203304Y-84771580D02*
X89155685Y-84819200D01*
X89155685Y-84819200D02*
X89060447Y-84866819D01*
X89060447Y-84866819D02*
X88869971Y-84866819D01*
X88869971Y-84866819D02*
X88774733Y-84819200D01*
X88774733Y-84819200D02*
X88727114Y-84771580D01*
X88727114Y-84771580D02*
X88679495Y-84676342D01*
X88679495Y-84676342D02*
X88679495Y-84485866D01*
X88679495Y-84485866D02*
X88727114Y-84390628D01*
X88727114Y-84390628D02*
X88774733Y-84343009D01*
X88774733Y-84343009D02*
X88869971Y-84295390D01*
X198667666Y-119207619D02*
X199000999Y-118731428D01*
X199239094Y-119207619D02*
X199239094Y-118207619D01*
X199239094Y-118207619D02*
X198858142Y-118207619D01*
X198858142Y-118207619D02*
X198762904Y-118255238D01*
X198762904Y-118255238D02*
X198715285Y-118302857D01*
X198715285Y-118302857D02*
X198667666Y-118398095D01*
X198667666Y-118398095D02*
X198667666Y-118540952D01*
X198667666Y-118540952D02*
X198715285Y-118636190D01*
X198715285Y-118636190D02*
X198762904Y-118683809D01*
X198762904Y-118683809D02*
X198858142Y-118731428D01*
X198858142Y-118731428D02*
X199239094Y-118731428D01*
X198334332Y-118207619D02*
X197667666Y-118207619D01*
X197667666Y-118207619D02*
X198096237Y-119207619D01*
X181871857Y-126986380D02*
X181919476Y-127034000D01*
X181919476Y-127034000D02*
X182062333Y-127081619D01*
X182062333Y-127081619D02*
X182157571Y-127081619D01*
X182157571Y-127081619D02*
X182300428Y-127034000D01*
X182300428Y-127034000D02*
X182395666Y-126938761D01*
X182395666Y-126938761D02*
X182443285Y-126843523D01*
X182443285Y-126843523D02*
X182490904Y-126653047D01*
X182490904Y-126653047D02*
X182490904Y-126510190D01*
X182490904Y-126510190D02*
X182443285Y-126319714D01*
X182443285Y-126319714D02*
X182395666Y-126224476D01*
X182395666Y-126224476D02*
X182300428Y-126129238D01*
X182300428Y-126129238D02*
X182157571Y-126081619D01*
X182157571Y-126081619D02*
X182062333Y-126081619D01*
X182062333Y-126081619D02*
X181919476Y-126129238D01*
X181919476Y-126129238D02*
X181871857Y-126176857D01*
X180919476Y-127081619D02*
X181490904Y-127081619D01*
X181205190Y-127081619D02*
X181205190Y-126081619D01*
X181205190Y-126081619D02*
X181300428Y-126224476D01*
X181300428Y-126224476D02*
X181395666Y-126319714D01*
X181395666Y-126319714D02*
X181490904Y-126367333D01*
X180014714Y-126081619D02*
X180490904Y-126081619D01*
X180490904Y-126081619D02*
X180538523Y-126557809D01*
X180538523Y-126557809D02*
X180490904Y-126510190D01*
X180490904Y-126510190D02*
X180395666Y-126462571D01*
X180395666Y-126462571D02*
X180157571Y-126462571D01*
X180157571Y-126462571D02*
X180062333Y-126510190D01*
X180062333Y-126510190D02*
X180014714Y-126557809D01*
X180014714Y-126557809D02*
X179967095Y-126653047D01*
X179967095Y-126653047D02*
X179967095Y-126891142D01*
X179967095Y-126891142D02*
X180014714Y-126986380D01*
X180014714Y-126986380D02*
X180062333Y-127034000D01*
X180062333Y-127034000D02*
X180157571Y-127081619D01*
X180157571Y-127081619D02*
X180395666Y-127081619D01*
X180395666Y-127081619D02*
X180490904Y-127034000D01*
X180490904Y-127034000D02*
X180538523Y-126986380D01*
X169610066Y-69582380D02*
X169657685Y-69630000D01*
X169657685Y-69630000D02*
X169800542Y-69677619D01*
X169800542Y-69677619D02*
X169895780Y-69677619D01*
X169895780Y-69677619D02*
X170038637Y-69630000D01*
X170038637Y-69630000D02*
X170133875Y-69534761D01*
X170133875Y-69534761D02*
X170181494Y-69439523D01*
X170181494Y-69439523D02*
X170229113Y-69249047D01*
X170229113Y-69249047D02*
X170229113Y-69106190D01*
X170229113Y-69106190D02*
X170181494Y-68915714D01*
X170181494Y-68915714D02*
X170133875Y-68820476D01*
X170133875Y-68820476D02*
X170038637Y-68725238D01*
X170038637Y-68725238D02*
X169895780Y-68677619D01*
X169895780Y-68677619D02*
X169800542Y-68677619D01*
X169800542Y-68677619D02*
X169657685Y-68725238D01*
X169657685Y-68725238D02*
X169610066Y-68772857D01*
X169276732Y-68677619D02*
X168657685Y-68677619D01*
X168657685Y-68677619D02*
X168991018Y-69058571D01*
X168991018Y-69058571D02*
X168848161Y-69058571D01*
X168848161Y-69058571D02*
X168752923Y-69106190D01*
X168752923Y-69106190D02*
X168705304Y-69153809D01*
X168705304Y-69153809D02*
X168657685Y-69249047D01*
X168657685Y-69249047D02*
X168657685Y-69487142D01*
X168657685Y-69487142D02*
X168705304Y-69582380D01*
X168705304Y-69582380D02*
X168752923Y-69630000D01*
X168752923Y-69630000D02*
X168848161Y-69677619D01*
X168848161Y-69677619D02*
X169133875Y-69677619D01*
X169133875Y-69677619D02*
X169229113Y-69630000D01*
X169229113Y-69630000D02*
X169276732Y-69582380D01*
X222308657Y-83298380D02*
X222356276Y-83346000D01*
X222356276Y-83346000D02*
X222499133Y-83393619D01*
X222499133Y-83393619D02*
X222594371Y-83393619D01*
X222594371Y-83393619D02*
X222737228Y-83346000D01*
X222737228Y-83346000D02*
X222832466Y-83250761D01*
X222832466Y-83250761D02*
X222880085Y-83155523D01*
X222880085Y-83155523D02*
X222927704Y-82965047D01*
X222927704Y-82965047D02*
X222927704Y-82822190D01*
X222927704Y-82822190D02*
X222880085Y-82631714D01*
X222880085Y-82631714D02*
X222832466Y-82536476D01*
X222832466Y-82536476D02*
X222737228Y-82441238D01*
X222737228Y-82441238D02*
X222594371Y-82393619D01*
X222594371Y-82393619D02*
X222499133Y-82393619D01*
X222499133Y-82393619D02*
X222356276Y-82441238D01*
X222356276Y-82441238D02*
X222308657Y-82488857D01*
X221975323Y-82393619D02*
X221356276Y-82393619D01*
X221356276Y-82393619D02*
X221689609Y-82774571D01*
X221689609Y-82774571D02*
X221546752Y-82774571D01*
X221546752Y-82774571D02*
X221451514Y-82822190D01*
X221451514Y-82822190D02*
X221403895Y-82869809D01*
X221403895Y-82869809D02*
X221356276Y-82965047D01*
X221356276Y-82965047D02*
X221356276Y-83203142D01*
X221356276Y-83203142D02*
X221403895Y-83298380D01*
X221403895Y-83298380D02*
X221451514Y-83346000D01*
X221451514Y-83346000D02*
X221546752Y-83393619D01*
X221546752Y-83393619D02*
X221832466Y-83393619D01*
X221832466Y-83393619D02*
X221927704Y-83346000D01*
X221927704Y-83346000D02*
X221975323Y-83298380D01*
X220975323Y-82488857D02*
X220927704Y-82441238D01*
X220927704Y-82441238D02*
X220832466Y-82393619D01*
X220832466Y-82393619D02*
X220594371Y-82393619D01*
X220594371Y-82393619D02*
X220499133Y-82441238D01*
X220499133Y-82441238D02*
X220451514Y-82488857D01*
X220451514Y-82488857D02*
X220403895Y-82584095D01*
X220403895Y-82584095D02*
X220403895Y-82679333D01*
X220403895Y-82679333D02*
X220451514Y-82822190D01*
X220451514Y-82822190D02*
X221022942Y-83393619D01*
X221022942Y-83393619D02*
X220403895Y-83393619D01*
D11*
X131136923Y-82276019D02*
X131136923Y-81276019D01*
X131136923Y-81276019D02*
X130803590Y-81990304D01*
X130803590Y-81990304D02*
X130470257Y-81276019D01*
X130470257Y-81276019D02*
X130470257Y-82276019D01*
X129851209Y-81704590D02*
X129946447Y-81656971D01*
X129946447Y-81656971D02*
X129994066Y-81609352D01*
X129994066Y-81609352D02*
X130041685Y-81514114D01*
X130041685Y-81514114D02*
X130041685Y-81466495D01*
X130041685Y-81466495D02*
X129994066Y-81371257D01*
X129994066Y-81371257D02*
X129946447Y-81323638D01*
X129946447Y-81323638D02*
X129851209Y-81276019D01*
X129851209Y-81276019D02*
X129660733Y-81276019D01*
X129660733Y-81276019D02*
X129565495Y-81323638D01*
X129565495Y-81323638D02*
X129517876Y-81371257D01*
X129517876Y-81371257D02*
X129470257Y-81466495D01*
X129470257Y-81466495D02*
X129470257Y-81514114D01*
X129470257Y-81514114D02*
X129517876Y-81609352D01*
X129517876Y-81609352D02*
X129565495Y-81656971D01*
X129565495Y-81656971D02*
X129660733Y-81704590D01*
X129660733Y-81704590D02*
X129851209Y-81704590D01*
X129851209Y-81704590D02*
X129946447Y-81752209D01*
X129946447Y-81752209D02*
X129994066Y-81799828D01*
X129994066Y-81799828D02*
X130041685Y-81895066D01*
X130041685Y-81895066D02*
X130041685Y-82085542D01*
X130041685Y-82085542D02*
X129994066Y-82180780D01*
X129994066Y-82180780D02*
X129946447Y-82228400D01*
X129946447Y-82228400D02*
X129851209Y-82276019D01*
X129851209Y-82276019D02*
X129660733Y-82276019D01*
X129660733Y-82276019D02*
X129565495Y-82228400D01*
X129565495Y-82228400D02*
X129517876Y-82180780D01*
X129517876Y-82180780D02*
X129470257Y-82085542D01*
X129470257Y-82085542D02*
X129470257Y-81895066D01*
X129470257Y-81895066D02*
X129517876Y-81799828D01*
X129517876Y-81799828D02*
X129565495Y-81752209D01*
X129565495Y-81752209D02*
X129660733Y-81704590D01*
X146580123Y-99700419D02*
X146580123Y-98700419D01*
X146580123Y-98700419D02*
X146246790Y-99414704D01*
X146246790Y-99414704D02*
X145913457Y-98700419D01*
X145913457Y-98700419D02*
X145913457Y-99700419D01*
X144913457Y-99700419D02*
X145484885Y-99700419D01*
X145199171Y-99700419D02*
X145199171Y-98700419D01*
X145199171Y-98700419D02*
X145294409Y-98843276D01*
X145294409Y-98843276D02*
X145389647Y-98938514D01*
X145389647Y-98938514D02*
X145484885Y-98986133D01*
X157298923Y-87965619D02*
X157298923Y-86965619D01*
X157298923Y-86965619D02*
X156965590Y-87679904D01*
X156965590Y-87679904D02*
X156632257Y-86965619D01*
X156632257Y-86965619D02*
X156632257Y-87965619D01*
X156203685Y-87060857D02*
X156156066Y-87013238D01*
X156156066Y-87013238D02*
X156060828Y-86965619D01*
X156060828Y-86965619D02*
X155822733Y-86965619D01*
X155822733Y-86965619D02*
X155727495Y-87013238D01*
X155727495Y-87013238D02*
X155679876Y-87060857D01*
X155679876Y-87060857D02*
X155632257Y-87156095D01*
X155632257Y-87156095D02*
X155632257Y-87251333D01*
X155632257Y-87251333D02*
X155679876Y-87394190D01*
X155679876Y-87394190D02*
X156251304Y-87965619D01*
X156251304Y-87965619D02*
X155632257Y-87965619D01*
D10*
X223533619Y-72651857D02*
X223486000Y-72699476D01*
X223486000Y-72699476D02*
X223438380Y-72842333D01*
X223438380Y-72842333D02*
X223438380Y-72937571D01*
X223438380Y-72937571D02*
X223486000Y-73080428D01*
X223486000Y-73080428D02*
X223581238Y-73175666D01*
X223581238Y-73175666D02*
X223676476Y-73223285D01*
X223676476Y-73223285D02*
X223866952Y-73270904D01*
X223866952Y-73270904D02*
X224009809Y-73270904D01*
X224009809Y-73270904D02*
X224200285Y-73223285D01*
X224200285Y-73223285D02*
X224295523Y-73175666D01*
X224295523Y-73175666D02*
X224390761Y-73080428D01*
X224390761Y-73080428D02*
X224438380Y-72937571D01*
X224438380Y-72937571D02*
X224438380Y-72842333D01*
X224438380Y-72842333D02*
X224390761Y-72699476D01*
X224390761Y-72699476D02*
X224343142Y-72651857D01*
X224438380Y-72318523D02*
X224438380Y-71699476D01*
X224438380Y-71699476D02*
X224057428Y-72032809D01*
X224057428Y-72032809D02*
X224057428Y-71889952D01*
X224057428Y-71889952D02*
X224009809Y-71794714D01*
X224009809Y-71794714D02*
X223962190Y-71747095D01*
X223962190Y-71747095D02*
X223866952Y-71699476D01*
X223866952Y-71699476D02*
X223628857Y-71699476D01*
X223628857Y-71699476D02*
X223533619Y-71747095D01*
X223533619Y-71747095D02*
X223486000Y-71794714D01*
X223486000Y-71794714D02*
X223438380Y-71889952D01*
X223438380Y-71889952D02*
X223438380Y-72175666D01*
X223438380Y-72175666D02*
X223486000Y-72270904D01*
X223486000Y-72270904D02*
X223533619Y-72318523D01*
X224438380Y-71366142D02*
X224438380Y-70747095D01*
X224438380Y-70747095D02*
X224057428Y-71080428D01*
X224057428Y-71080428D02*
X224057428Y-70937571D01*
X224057428Y-70937571D02*
X224009809Y-70842333D01*
X224009809Y-70842333D02*
X223962190Y-70794714D01*
X223962190Y-70794714D02*
X223866952Y-70747095D01*
X223866952Y-70747095D02*
X223628857Y-70747095D01*
X223628857Y-70747095D02*
X223533619Y-70794714D01*
X223533619Y-70794714D02*
X223486000Y-70842333D01*
X223486000Y-70842333D02*
X223438380Y-70937571D01*
X223438380Y-70937571D02*
X223438380Y-71223285D01*
X223438380Y-71223285D02*
X223486000Y-71318523D01*
X223486000Y-71318523D02*
X223533619Y-71366142D01*
X194317857Y-73036780D02*
X194365476Y-73084400D01*
X194365476Y-73084400D02*
X194508333Y-73132019D01*
X194508333Y-73132019D02*
X194603571Y-73132019D01*
X194603571Y-73132019D02*
X194746428Y-73084400D01*
X194746428Y-73084400D02*
X194841666Y-72989161D01*
X194841666Y-72989161D02*
X194889285Y-72893923D01*
X194889285Y-72893923D02*
X194936904Y-72703447D01*
X194936904Y-72703447D02*
X194936904Y-72560590D01*
X194936904Y-72560590D02*
X194889285Y-72370114D01*
X194889285Y-72370114D02*
X194841666Y-72274876D01*
X194841666Y-72274876D02*
X194746428Y-72179638D01*
X194746428Y-72179638D02*
X194603571Y-72132019D01*
X194603571Y-72132019D02*
X194508333Y-72132019D01*
X194508333Y-72132019D02*
X194365476Y-72179638D01*
X194365476Y-72179638D02*
X194317857Y-72227257D01*
X193936904Y-72227257D02*
X193889285Y-72179638D01*
X193889285Y-72179638D02*
X193794047Y-72132019D01*
X193794047Y-72132019D02*
X193555952Y-72132019D01*
X193555952Y-72132019D02*
X193460714Y-72179638D01*
X193460714Y-72179638D02*
X193413095Y-72227257D01*
X193413095Y-72227257D02*
X193365476Y-72322495D01*
X193365476Y-72322495D02*
X193365476Y-72417733D01*
X193365476Y-72417733D02*
X193413095Y-72560590D01*
X193413095Y-72560590D02*
X193984523Y-73132019D01*
X193984523Y-73132019D02*
X193365476Y-73132019D01*
X192460714Y-72132019D02*
X192936904Y-72132019D01*
X192936904Y-72132019D02*
X192984523Y-72608209D01*
X192984523Y-72608209D02*
X192936904Y-72560590D01*
X192936904Y-72560590D02*
X192841666Y-72512971D01*
X192841666Y-72512971D02*
X192603571Y-72512971D01*
X192603571Y-72512971D02*
X192508333Y-72560590D01*
X192508333Y-72560590D02*
X192460714Y-72608209D01*
X192460714Y-72608209D02*
X192413095Y-72703447D01*
X192413095Y-72703447D02*
X192413095Y-72941542D01*
X192413095Y-72941542D02*
X192460714Y-73036780D01*
X192460714Y-73036780D02*
X192508333Y-73084400D01*
X192508333Y-73084400D02*
X192603571Y-73132019D01*
X192603571Y-73132019D02*
X192841666Y-73132019D01*
X192841666Y-73132019D02*
X192936904Y-73084400D01*
X192936904Y-73084400D02*
X192984523Y-73036780D01*
X226994380Y-80303666D02*
X227470571Y-80636999D01*
X226994380Y-80875094D02*
X227994380Y-80875094D01*
X227994380Y-80875094D02*
X227994380Y-80494142D01*
X227994380Y-80494142D02*
X227946761Y-80398904D01*
X227946761Y-80398904D02*
X227899142Y-80351285D01*
X227899142Y-80351285D02*
X227803904Y-80303666D01*
X227803904Y-80303666D02*
X227661047Y-80303666D01*
X227661047Y-80303666D02*
X227565809Y-80351285D01*
X227565809Y-80351285D02*
X227518190Y-80398904D01*
X227518190Y-80398904D02*
X227470571Y-80494142D01*
X227470571Y-80494142D02*
X227470571Y-80875094D01*
X227661047Y-79446523D02*
X226994380Y-79446523D01*
X228042000Y-79684618D02*
X227327714Y-79922713D01*
X227327714Y-79922713D02*
X227327714Y-79303666D01*
X193714666Y-63181580D02*
X193762285Y-63229200D01*
X193762285Y-63229200D02*
X193905142Y-63276819D01*
X193905142Y-63276819D02*
X194000380Y-63276819D01*
X194000380Y-63276819D02*
X194143237Y-63229200D01*
X194143237Y-63229200D02*
X194238475Y-63133961D01*
X194238475Y-63133961D02*
X194286094Y-63038723D01*
X194286094Y-63038723D02*
X194333713Y-62848247D01*
X194333713Y-62848247D02*
X194333713Y-62705390D01*
X194333713Y-62705390D02*
X194286094Y-62514914D01*
X194286094Y-62514914D02*
X194238475Y-62419676D01*
X194238475Y-62419676D02*
X194143237Y-62324438D01*
X194143237Y-62324438D02*
X194000380Y-62276819D01*
X194000380Y-62276819D02*
X193905142Y-62276819D01*
X193905142Y-62276819D02*
X193762285Y-62324438D01*
X193762285Y-62324438D02*
X193714666Y-62372057D01*
X192762285Y-63276819D02*
X193333713Y-63276819D01*
X193047999Y-63276819D02*
X193047999Y-62276819D01*
X193047999Y-62276819D02*
X193143237Y-62419676D01*
X193143237Y-62419676D02*
X193238475Y-62514914D01*
X193238475Y-62514914D02*
X193333713Y-62562533D01*
X213830819Y-76969857D02*
X213783200Y-77017476D01*
X213783200Y-77017476D02*
X213735580Y-77160333D01*
X213735580Y-77160333D02*
X213735580Y-77255571D01*
X213735580Y-77255571D02*
X213783200Y-77398428D01*
X213783200Y-77398428D02*
X213878438Y-77493666D01*
X213878438Y-77493666D02*
X213973676Y-77541285D01*
X213973676Y-77541285D02*
X214164152Y-77588904D01*
X214164152Y-77588904D02*
X214307009Y-77588904D01*
X214307009Y-77588904D02*
X214497485Y-77541285D01*
X214497485Y-77541285D02*
X214592723Y-77493666D01*
X214592723Y-77493666D02*
X214687961Y-77398428D01*
X214687961Y-77398428D02*
X214735580Y-77255571D01*
X214735580Y-77255571D02*
X214735580Y-77160333D01*
X214735580Y-77160333D02*
X214687961Y-77017476D01*
X214687961Y-77017476D02*
X214640342Y-76969857D01*
X214735580Y-76636523D02*
X214735580Y-76017476D01*
X214735580Y-76017476D02*
X214354628Y-76350809D01*
X214354628Y-76350809D02*
X214354628Y-76207952D01*
X214354628Y-76207952D02*
X214307009Y-76112714D01*
X214307009Y-76112714D02*
X214259390Y-76065095D01*
X214259390Y-76065095D02*
X214164152Y-76017476D01*
X214164152Y-76017476D02*
X213926057Y-76017476D01*
X213926057Y-76017476D02*
X213830819Y-76065095D01*
X213830819Y-76065095D02*
X213783200Y-76112714D01*
X213783200Y-76112714D02*
X213735580Y-76207952D01*
X213735580Y-76207952D02*
X213735580Y-76493666D01*
X213735580Y-76493666D02*
X213783200Y-76588904D01*
X213783200Y-76588904D02*
X213830819Y-76636523D01*
X214735580Y-75112714D02*
X214735580Y-75588904D01*
X214735580Y-75588904D02*
X214259390Y-75636523D01*
X214259390Y-75636523D02*
X214307009Y-75588904D01*
X214307009Y-75588904D02*
X214354628Y-75493666D01*
X214354628Y-75493666D02*
X214354628Y-75255571D01*
X214354628Y-75255571D02*
X214307009Y-75160333D01*
X214307009Y-75160333D02*
X214259390Y-75112714D01*
X214259390Y-75112714D02*
X214164152Y-75065095D01*
X214164152Y-75065095D02*
X213926057Y-75065095D01*
X213926057Y-75065095D02*
X213830819Y-75112714D01*
X213830819Y-75112714D02*
X213783200Y-75160333D01*
X213783200Y-75160333D02*
X213735580Y-75255571D01*
X213735580Y-75255571D02*
X213735580Y-75493666D01*
X213735580Y-75493666D02*
X213783200Y-75588904D01*
X213783200Y-75588904D02*
X213830819Y-75636523D01*
X225102657Y-93712380D02*
X225150276Y-93760000D01*
X225150276Y-93760000D02*
X225293133Y-93807619D01*
X225293133Y-93807619D02*
X225388371Y-93807619D01*
X225388371Y-93807619D02*
X225531228Y-93760000D01*
X225531228Y-93760000D02*
X225626466Y-93664761D01*
X225626466Y-93664761D02*
X225674085Y-93569523D01*
X225674085Y-93569523D02*
X225721704Y-93379047D01*
X225721704Y-93379047D02*
X225721704Y-93236190D01*
X225721704Y-93236190D02*
X225674085Y-93045714D01*
X225674085Y-93045714D02*
X225626466Y-92950476D01*
X225626466Y-92950476D02*
X225531228Y-92855238D01*
X225531228Y-92855238D02*
X225388371Y-92807619D01*
X225388371Y-92807619D02*
X225293133Y-92807619D01*
X225293133Y-92807619D02*
X225150276Y-92855238D01*
X225150276Y-92855238D02*
X225102657Y-92902857D01*
X224769323Y-92807619D02*
X224150276Y-92807619D01*
X224150276Y-92807619D02*
X224483609Y-93188571D01*
X224483609Y-93188571D02*
X224340752Y-93188571D01*
X224340752Y-93188571D02*
X224245514Y-93236190D01*
X224245514Y-93236190D02*
X224197895Y-93283809D01*
X224197895Y-93283809D02*
X224150276Y-93379047D01*
X224150276Y-93379047D02*
X224150276Y-93617142D01*
X224150276Y-93617142D02*
X224197895Y-93712380D01*
X224197895Y-93712380D02*
X224245514Y-93760000D01*
X224245514Y-93760000D02*
X224340752Y-93807619D01*
X224340752Y-93807619D02*
X224626466Y-93807619D01*
X224626466Y-93807619D02*
X224721704Y-93760000D01*
X224721704Y-93760000D02*
X224769323Y-93712380D01*
X223293133Y-93140952D02*
X223293133Y-93807619D01*
X223531228Y-92760000D02*
X223769323Y-93474285D01*
X223769323Y-93474285D02*
X223150276Y-93474285D01*
D11*
X111252000Y-110699000D02*
X113284000Y-110699000D01*
X113284000Y-110699000D02*
X113284000Y-114853000D01*
X113284000Y-114853000D02*
X111252000Y-114853000D01*
X111252000Y-114853000D02*
X111252000Y-110699000D01*
X110236000Y-71673000D02*
X108204000Y-71673000D01*
X108204000Y-71673000D02*
X108204000Y-67519000D01*
X108204000Y-67519000D02*
X110236000Y-67519000D01*
X110236000Y-67519000D02*
X110236000Y-71673000D01*
X226822000Y-125902000D02*
X224790000Y-125902000D01*
X224790000Y-125902000D02*
X224790000Y-121748000D01*
X224790000Y-121748000D02*
X226822000Y-121748000D01*
X226822000Y-121748000D02*
X226822000Y-125902000D01*
X62992000Y-111207000D02*
X65024000Y-111207000D01*
X65024000Y-111207000D02*
X65024000Y-115361000D01*
X65024000Y-115361000D02*
X62992000Y-115361000D01*
X62992000Y-115361000D02*
X62992000Y-111207000D01*
X146812000Y-119044000D02*
X144780000Y-119044000D01*
X144780000Y-119044000D02*
X144780000Y-114890000D01*
X144780000Y-114890000D02*
X146812000Y-114890000D01*
X146812000Y-114890000D02*
X146812000Y-119044000D01*
X136990107Y-77241400D02*
G75*
G03*
X136990107Y-77241400I-1023907J0D01*
G01*
X165539707Y-86791800D02*
G75*
G03*
X165539707Y-86791800I-1023907J0D01*
G01*
X146513000Y-108839000D02*
X150667000Y-108839000D01*
X150667000Y-108839000D02*
X150667000Y-106807000D01*
X150667000Y-106807000D02*
X146513000Y-106807000D01*
X146513000Y-106807000D02*
X146513000Y-108839000D01*
X196551000Y-90424000D02*
X200705000Y-90424000D01*
X200705000Y-90424000D02*
X200705000Y-88392000D01*
X200705000Y-88392000D02*
X196551000Y-88392000D01*
X196551000Y-88392000D02*
X196551000Y-90424000D01*
X213182200Y-84841800D02*
X215214200Y-84841800D01*
X215214200Y-84841800D02*
X215214200Y-88995800D01*
X215214200Y-88995800D02*
X213182200Y-88995800D01*
X213182200Y-88995800D02*
X213182200Y-84841800D01*
X175015700Y-128778000D02*
X179169700Y-128778000D01*
X179169700Y-128778000D02*
X179169700Y-126746000D01*
X179169700Y-126746000D02*
X175015700Y-126746000D01*
X175015700Y-126746000D02*
X175015700Y-128778000D01*
X142501907Y-97536000D02*
G75*
G03*
X142501907Y-97536000I-1023907J0D01*
G01*
X113672907Y-75311000D02*
G75*
G03*
X113672907Y-75311000I-1023907J0D01*
G01*
X68961000Y-81833000D02*
X66929000Y-81833000D01*
X66929000Y-81833000D02*
X66929000Y-77679000D01*
X66929000Y-77679000D02*
X68961000Y-77679000D01*
X68961000Y-77679000D02*
X68961000Y-81833000D01*
X92411000Y-62230000D02*
X96565000Y-62230000D01*
X96565000Y-62230000D02*
X96565000Y-60198000D01*
X96565000Y-60198000D02*
X92411000Y-60198000D01*
X92411000Y-60198000D02*
X92411000Y-62230000D01*
X215214200Y-94025000D02*
X213182200Y-94025000D01*
X213182200Y-94025000D02*
X213182200Y-89871000D01*
X213182200Y-89871000D02*
X215214200Y-89871000D01*
X215214200Y-89871000D02*
X215214200Y-94025000D01*
X210947000Y-65106000D02*
X212979000Y-65106000D01*
X212979000Y-65106000D02*
X212979000Y-69260000D01*
X212979000Y-69260000D02*
X210947000Y-69260000D01*
X210947000Y-69260000D02*
X210947000Y-65106000D01*
X171922000Y-124102000D02*
X171922000Y-111102000D01*
X171922000Y-124102000D02*
X167422000Y-124102000D01*
X171922000Y-111102000D02*
X170672000Y-111102000D01*
X167422000Y-124102000D02*
X167422000Y-111102000D01*
X167422000Y-111102000D02*
X168672000Y-111102000D01*
X168672000Y-111102000D02*
G75*
G03*
X170672000Y-111102000I1000000J0D01*
G01*
D12*
X175729605Y-123317000D02*
G75*
G03*
X175729605Y-123317000I-204605J0D01*
G01*
X175729605Y-116948000D02*
G75*
G03*
X175729605Y-116948000I-204605J0D01*
G01*
X164034605Y-111887000D02*
G75*
G03*
X164034605Y-111887000I-204605J0D01*
G01*
D11*
X176160000Y-112187000D02*
X175260000Y-111887000D01*
X176160000Y-111487000D01*
X176160000Y-112187000D01*
G36*
X176160000Y-112187000D02*
G01*
X175260000Y-111887000D01*
X176160000Y-111487000D01*
X176160000Y-112187000D01*
G37*
X155201907Y-91567000D02*
G75*
G03*
X155201907Y-91567000I-1023907J0D01*
G01*
X100457000Y-56724000D02*
X102489000Y-56724000D01*
X102489000Y-56724000D02*
X102489000Y-60878000D01*
X102489000Y-60878000D02*
X100457000Y-60878000D01*
X100457000Y-60878000D02*
X100457000Y-56724000D01*
X199016907Y-62230000D02*
G75*
G03*
X199016907Y-62230000I-1023907J0D01*
G01*
X195625000Y-55372000D02*
X191471000Y-55372000D01*
X191471000Y-55372000D02*
X191471000Y-57404000D01*
X191471000Y-57404000D02*
X195625000Y-57404000D01*
X195625000Y-57404000D02*
X195625000Y-55372000D01*
X133051000Y-103886000D02*
X137205000Y-103886000D01*
X137205000Y-103886000D02*
X137205000Y-101854000D01*
X137205000Y-101854000D02*
X133051000Y-101854000D01*
X133051000Y-101854000D02*
X133051000Y-103886000D01*
X104935307Y-69875400D02*
G75*
G03*
X104935307Y-69875400I-1023907J0D01*
G01*
X136652000Y-93554000D02*
X138684000Y-93554000D01*
X138684000Y-93554000D02*
X138684000Y-97708000D01*
X138684000Y-97708000D02*
X136652000Y-97708000D01*
X136652000Y-97708000D02*
X136652000Y-93554000D01*
X151257000Y-119044000D02*
X149225000Y-119044000D01*
X149225000Y-119044000D02*
X149225000Y-114890000D01*
X149225000Y-114890000D02*
X151257000Y-114890000D01*
X151257000Y-114890000D02*
X151257000Y-119044000D01*
X86360000Y-109937000D02*
X88392000Y-109937000D01*
X88392000Y-109937000D02*
X88392000Y-114091000D01*
X88392000Y-114091000D02*
X86360000Y-114091000D01*
X86360000Y-114091000D02*
X86360000Y-109937000D01*
X200787000Y-88056000D02*
X198755000Y-88056000D01*
X198755000Y-88056000D02*
X198755000Y-83902000D01*
X198755000Y-83902000D02*
X200787000Y-83902000D01*
X200787000Y-83902000D02*
X200787000Y-88056000D01*
X149021800Y-119044000D02*
X146989800Y-119044000D01*
X146989800Y-119044000D02*
X146989800Y-114890000D01*
X146989800Y-114890000D02*
X149021800Y-114890000D01*
X149021800Y-114890000D02*
X149021800Y-119044000D01*
X146513000Y-110998000D02*
X150667000Y-110998000D01*
X150667000Y-110998000D02*
X150667000Y-108966000D01*
X150667000Y-108966000D02*
X146513000Y-108966000D01*
X146513000Y-108966000D02*
X146513000Y-110998000D01*
X112522000Y-118319000D02*
X114554000Y-118319000D01*
X114554000Y-118319000D02*
X114554000Y-122473000D01*
X114554000Y-122473000D02*
X112522000Y-122473000D01*
X112522000Y-122473000D02*
X112522000Y-118319000D01*
X62992000Y-97872000D02*
X65024000Y-97872000D01*
X65024000Y-97872000D02*
X65024000Y-102026000D01*
X65024000Y-102026000D02*
X62992000Y-102026000D01*
X62992000Y-102026000D02*
X62992000Y-97872000D01*
X196424000Y-115189000D02*
X200578000Y-115189000D01*
X200578000Y-115189000D02*
X200578000Y-113157000D01*
X200578000Y-113157000D02*
X196424000Y-113157000D01*
X196424000Y-113157000D02*
X196424000Y-115189000D01*
X89027000Y-109937000D02*
X91059000Y-109937000D01*
X91059000Y-109937000D02*
X91059000Y-114091000D01*
X91059000Y-114091000D02*
X89027000Y-114091000D01*
X89027000Y-114091000D02*
X89027000Y-109937000D01*
X113665000Y-110699000D02*
X115697000Y-110699000D01*
X115697000Y-110699000D02*
X115697000Y-114853000D01*
X115697000Y-114853000D02*
X113665000Y-114853000D01*
X113665000Y-114853000D02*
X113665000Y-110699000D01*
X214147400Y-65106000D02*
X216179400Y-65106000D01*
X216179400Y-65106000D02*
X216179400Y-69260000D01*
X216179400Y-69260000D02*
X214147400Y-69260000D01*
X214147400Y-69260000D02*
X214147400Y-65106000D01*
X109982000Y-118319000D02*
X112014000Y-118319000D01*
X112014000Y-118319000D02*
X112014000Y-122473000D01*
X112014000Y-122473000D02*
X109982000Y-122473000D01*
X109982000Y-122473000D02*
X109982000Y-118319000D01*
X129876000Y-89662000D02*
X134030000Y-89662000D01*
X134030000Y-89662000D02*
X134030000Y-87630000D01*
X134030000Y-87630000D02*
X129876000Y-87630000D01*
X129876000Y-87630000D02*
X129876000Y-89662000D01*
X60071000Y-79928000D02*
X58039000Y-79928000D01*
X58039000Y-79928000D02*
X58039000Y-75774000D01*
X58039000Y-75774000D02*
X60071000Y-75774000D01*
X60071000Y-75774000D02*
X60071000Y-79928000D01*
X165563000Y-110744000D02*
X169717000Y-110744000D01*
X169717000Y-110744000D02*
X169717000Y-108712000D01*
X169717000Y-108712000D02*
X165563000Y-108712000D01*
X165563000Y-108712000D02*
X165563000Y-110744000D01*
X146513000Y-113157000D02*
X150667000Y-113157000D01*
X150667000Y-113157000D02*
X150667000Y-111125000D01*
X150667000Y-111125000D02*
X146513000Y-111125000D01*
X146513000Y-111125000D02*
X146513000Y-113157000D01*
X161678907Y-86791800D02*
G75*
G03*
X161678907Y-86791800I-1023907J0D01*
G01*
X67900000Y-62992000D02*
X72054000Y-62992000D01*
X72054000Y-62992000D02*
X72054000Y-60960000D01*
X72054000Y-60960000D02*
X67900000Y-60960000D01*
X67900000Y-60960000D02*
X67900000Y-62992000D01*
X149486907Y-95631000D02*
G75*
G03*
X149486907Y-95631000I-1023907J0D01*
G01*
X85852000Y-83394000D02*
X87884000Y-83394000D01*
X87884000Y-83394000D02*
X87884000Y-87548000D01*
X87884000Y-87548000D02*
X85852000Y-87548000D01*
X85852000Y-87548000D02*
X85852000Y-83394000D01*
X196424000Y-117729000D02*
X200578000Y-117729000D01*
X200578000Y-117729000D02*
X200578000Y-115697000D01*
X200578000Y-115697000D02*
X196424000Y-115697000D01*
X196424000Y-115697000D02*
X196424000Y-117729000D01*
X175015700Y-126619000D02*
X179169700Y-126619000D01*
X179169700Y-126619000D02*
X179169700Y-124587000D01*
X179169700Y-124587000D02*
X175015700Y-124587000D01*
X175015700Y-124587000D02*
X175015700Y-126619000D01*
X170434000Y-67990000D02*
X168402000Y-67990000D01*
X168402000Y-67990000D02*
X168402000Y-63836000D01*
X168402000Y-63836000D02*
X170434000Y-63836000D01*
X170434000Y-63836000D02*
X170434000Y-67990000D01*
X222377000Y-88945000D02*
X220345000Y-88945000D01*
X220345000Y-88945000D02*
X220345000Y-84791000D01*
X220345000Y-84791000D02*
X222377000Y-84791000D01*
X222377000Y-84791000D02*
X222377000Y-88945000D01*
X131808507Y-79324200D02*
G75*
G03*
X131808507Y-79324200I-1023907J0D01*
G01*
X146311907Y-96901000D02*
G75*
G03*
X146311907Y-96901000I-1023907J0D01*
G01*
X156725907Y-89408000D02*
G75*
G03*
X156725907Y-89408000I-1023907J0D01*
G01*
X222504000Y-73726500D02*
X220472000Y-73726500D01*
X220472000Y-73726500D02*
X220472000Y-69572500D01*
X220472000Y-69572500D02*
X222504000Y-69572500D01*
X222504000Y-69572500D02*
X222504000Y-73726500D01*
X191598000Y-71374000D02*
X195752000Y-71374000D01*
X195752000Y-71374000D02*
X195752000Y-69342000D01*
X195752000Y-69342000D02*
X191598000Y-69342000D01*
X191598000Y-69342000D02*
X191598000Y-71374000D01*
X226314000Y-80928000D02*
X224282000Y-80928000D01*
X224282000Y-80928000D02*
X224282000Y-76774000D01*
X224282000Y-76774000D02*
X226314000Y-76774000D01*
X226314000Y-76774000D02*
X226314000Y-80928000D01*
X195625000Y-59563000D02*
X191471000Y-59563000D01*
X191471000Y-59563000D02*
X191471000Y-61595000D01*
X191471000Y-61595000D02*
X195625000Y-61595000D01*
X195625000Y-61595000D02*
X195625000Y-59563000D01*
X215214200Y-74365400D02*
X213182200Y-74365400D01*
X213182200Y-74365400D02*
X213182200Y-70211400D01*
X213182200Y-70211400D02*
X215214200Y-70211400D01*
X215214200Y-70211400D02*
X215214200Y-74365400D01*
X222377000Y-95930000D02*
X220345000Y-95930000D01*
X220345000Y-95930000D02*
X220345000Y-91776000D01*
X220345000Y-91776000D02*
X222377000Y-91776000D01*
X222377000Y-91776000D02*
X222377000Y-95930000D01*
%LPC*%
D13*
X231990539Y-107721400D02*
G75*
G03*
X231990539Y-107721400I-1383939J0D01*
G01*
G36*
X231105200Y-48285400D02*
G01*
X232105200Y-48285400D01*
X232105200Y-134696200D01*
X231105200Y-134696200D01*
X231105200Y-48285400D01*
G37*
D10*
X225145600Y-132435600D02*
X227914200Y-132435600D01*
X227914200Y-135255000D01*
X225145600Y-135255000D01*
X225145600Y-132435600D01*
G36*
X225145600Y-132435600D02*
G01*
X227914200Y-132435600D01*
X227914200Y-135255000D01*
X225145600Y-135255000D01*
X225145600Y-132435600D01*
G37*
G36*
X46202600Y-135728200D02*
G01*
X234086400Y-135728200D01*
X234086400Y-136702800D01*
X46202600Y-136702800D01*
X46202600Y-135728200D01*
G37*
G36*
X48234600Y-48742600D02*
G01*
X49242600Y-48742600D01*
X49242600Y-132816600D01*
X48234600Y-132816600D01*
X48234600Y-48742600D01*
G37*
G36*
X46202600Y-47091600D02*
G01*
X47202600Y-47091600D01*
X47202600Y-136702800D01*
X46202600Y-136702800D01*
X46202600Y-47091600D01*
G37*
G36*
X173202600Y-48285400D02*
G01*
X232105200Y-48285400D01*
X232105200Y-49269400D01*
X173202600Y-49269400D01*
X173202600Y-48285400D01*
G37*
G36*
X50749200Y-133696200D02*
G01*
X224561400Y-133696200D01*
X224561400Y-134696200D01*
X50749200Y-134696200D01*
X50749200Y-133696200D01*
G37*
G36*
X46202600Y-46253400D02*
G01*
X68097400Y-46253400D01*
X68097400Y-47253400D01*
X46202600Y-47253400D01*
X46202600Y-46253400D01*
G37*
G36*
X173202600Y-46278800D02*
G01*
X234086400Y-46278800D01*
X234086400Y-47261400D01*
X173202600Y-47261400D01*
X173202600Y-46278800D01*
G37*
X51714400Y-51231800D02*
X54483000Y-51231800D01*
X54483000Y-54051200D01*
X51714400Y-54051200D01*
X51714400Y-51231800D01*
G36*
X51714400Y-51231800D02*
G01*
X54483000Y-51231800D01*
X54483000Y-54051200D01*
X51714400Y-54051200D01*
X51714400Y-51231800D01*
G37*
G36*
X228473000Y-133696200D02*
G01*
X232105200Y-133696200D01*
X232105200Y-134696200D01*
X228473000Y-134696200D01*
X228473000Y-133696200D01*
G37*
G36*
X233086400Y-46278800D02*
G01*
X234086400Y-46278800D01*
X234086400Y-136702800D01*
X233086400Y-136702800D01*
X233086400Y-46278800D01*
G37*
G36*
X48234600Y-48242600D02*
G01*
X68148200Y-48242600D01*
X68148200Y-49242600D01*
X48234600Y-49242600D01*
X48234600Y-48242600D01*
G37*
D14*
X187833000Y-77978000D03*
D15*
X203073000Y-77978000D03*
X203073000Y-70358000D03*
X187833000Y-70358000D03*
D16*
X211963000Y-121158000D03*
D17*
X209423000Y-119888000D03*
X211963000Y-118618000D03*
X209423000Y-117348000D03*
X211963000Y-116078000D03*
X209423000Y-114808000D03*
X211963000Y-113538000D03*
X209423000Y-112268000D03*
X211963000Y-110998000D03*
X209423000Y-109728000D03*
X211963000Y-108458000D03*
X209423000Y-107188000D03*
X211963000Y-105918000D03*
X209423000Y-104648000D03*
X211963000Y-103378000D03*
X209423000Y-102108000D03*
X211963000Y-100838000D03*
X209423000Y-99568000D03*
X211963000Y-98298000D03*
X209423000Y-97028000D03*
X211963000Y-95758000D03*
X209423000Y-94488000D03*
X211963000Y-93218000D03*
X209423000Y-91948000D03*
X211963000Y-90678000D03*
X209423000Y-89408000D03*
X211963000Y-88138000D03*
X209423000Y-86868000D03*
X211963000Y-85598000D03*
X209423000Y-84328000D03*
X211963000Y-83058000D03*
X209423000Y-81788000D03*
X211963000Y-80518000D03*
X209423000Y-79248000D03*
X211963000Y-77978000D03*
X209423000Y-76708000D03*
X211963000Y-75438000D03*
X209423000Y-74168000D03*
X211963000Y-72898000D03*
X209423000Y-71628000D03*
D15*
X175848000Y-80441800D03*
X180848000Y-80441800D03*
X163195000Y-118618000D03*
X158195000Y-118618000D03*
D18*
X108758000Y-128651000D03*
D19*
X110008000Y-126111000D03*
X111258000Y-128651000D03*
X112508000Y-126111000D03*
X113758000Y-128651000D03*
X115008000Y-126111000D03*
X116258000Y-128651000D03*
X117508000Y-126111000D03*
X118758000Y-128651000D03*
X120008000Y-126111000D03*
X121258000Y-128651000D03*
X122508000Y-126111000D03*
X123758000Y-128651000D03*
X125008000Y-126111000D03*
X126258000Y-128651000D03*
X127508000Y-126111000D03*
X128758000Y-128651000D03*
X130008000Y-126111000D03*
X131258000Y-128651000D03*
X132508000Y-126111000D03*
X133758000Y-128651000D03*
X135008000Y-126111000D03*
X136258000Y-128651000D03*
X137508000Y-126111000D03*
X138758000Y-128651000D03*
D20*
X119380000Y-114757200D03*
D21*
X120650000Y-112217200D03*
X121920000Y-114757200D03*
X123190000Y-112217200D03*
X124460000Y-114757200D03*
X125730000Y-112217200D03*
X127000000Y-114757200D03*
X128270000Y-112217200D03*
X129540000Y-114757200D03*
X130810000Y-112217200D03*
X132080000Y-114757200D03*
X133350000Y-112217200D03*
X134620000Y-114757200D03*
X135890000Y-112217200D03*
X137160000Y-114757200D03*
X138430000Y-112217200D03*
X139700000Y-114757200D03*
X140970000Y-112217200D03*
X142240000Y-114757200D03*
X143510000Y-112217200D03*
D15*
X55245000Y-81026000D03*
X55245000Y-86026000D03*
D22*
X56642000Y-125980200D03*
X56642000Y-120980200D03*
D23*
X225628200Y-84861400D03*
X225628200Y-87401400D03*
D16*
X218948000Y-121158000D03*
D17*
X216408000Y-119888000D03*
X218948000Y-118618000D03*
X216408000Y-117348000D03*
X218948000Y-116078000D03*
X216408000Y-114808000D03*
X218948000Y-113538000D03*
X216408000Y-112268000D03*
X218948000Y-110998000D03*
X216408000Y-109728000D03*
X218948000Y-108458000D03*
X216408000Y-107188000D03*
X218948000Y-105918000D03*
X216408000Y-104648000D03*
X218948000Y-103378000D03*
X216408000Y-102108000D03*
X218948000Y-100838000D03*
X216408000Y-99568000D03*
X218948000Y-98298000D03*
X216408000Y-97028000D03*
X218948000Y-95758000D03*
X216408000Y-94488000D03*
X218948000Y-93218000D03*
X216408000Y-91948000D03*
X218948000Y-90678000D03*
X216408000Y-89408000D03*
X218948000Y-88138000D03*
X216408000Y-86868000D03*
X218948000Y-85598000D03*
X216408000Y-84328000D03*
X218948000Y-83058000D03*
X216408000Y-81788000D03*
X218948000Y-80518000D03*
X216408000Y-79248000D03*
X218948000Y-77978000D03*
X216408000Y-76708000D03*
X218948000Y-75438000D03*
X216408000Y-74168000D03*
X218948000Y-72898000D03*
X216408000Y-71628000D03*
D24*
X57150000Y-91279000D03*
D25*
X59690000Y-92529000D03*
X57150000Y-93779000D03*
X59690000Y-95029000D03*
X57150000Y-96279000D03*
X59690000Y-97529000D03*
X57150000Y-98779000D03*
X59690000Y-100029000D03*
X57150000Y-101279000D03*
X59690000Y-102529000D03*
X57150000Y-103779000D03*
X59690000Y-105029000D03*
X57150000Y-106279000D03*
X59690000Y-107529000D03*
X57150000Y-108779000D03*
X59690000Y-110029000D03*
X57150000Y-111279000D03*
X59690000Y-112529000D03*
X57150000Y-113779000D03*
X59690000Y-115029000D03*
X57150000Y-116279000D03*
D15*
X169418000Y-60198000D03*
X164418000Y-60198000D03*
D26*
X202565000Y-53721000D03*
X202565000Y-63881000D03*
X217805000Y-58801000D03*
X220345000Y-58801000D03*
D20*
X119380000Y-119888000D03*
D21*
X120650000Y-117348000D03*
X121920000Y-119888000D03*
X123190000Y-117348000D03*
X124460000Y-119888000D03*
X125730000Y-117348000D03*
X127000000Y-119888000D03*
X128270000Y-117348000D03*
X129540000Y-119888000D03*
X130810000Y-117348000D03*
X132080000Y-119888000D03*
X133350000Y-117348000D03*
X134620000Y-119888000D03*
X135890000Y-117348000D03*
X137160000Y-119888000D03*
X138430000Y-117348000D03*
X139700000Y-119888000D03*
X140970000Y-117348000D03*
X142240000Y-119888000D03*
X143510000Y-117348000D03*
D27*
X157480000Y-50800000D03*
X154940000Y-50800000D03*
X152400000Y-50800000D03*
X149860000Y-50800000D03*
X147320000Y-50800000D03*
X144780000Y-50800000D03*
X142240000Y-50800000D03*
X139700000Y-50800000D03*
X137160000Y-50800000D03*
X134620000Y-50800000D03*
X132080000Y-50800000D03*
X129540000Y-50800000D03*
X127000000Y-50800000D03*
X124460000Y-50800000D03*
X121920000Y-50800000D03*
X119380000Y-50800000D03*
X116840000Y-50800000D03*
X114300000Y-50800000D03*
X111760000Y-50800000D03*
X109220000Y-50800000D03*
X106680000Y-50800000D03*
X104140000Y-50800000D03*
X101600000Y-50800000D03*
X99060000Y-50800000D03*
X96520000Y-50800000D03*
X93980000Y-50800000D03*
X91440000Y-50800000D03*
X88900000Y-50800000D03*
X86360000Y-50800000D03*
X83820000Y-50800000D03*
D20*
X119380000Y-109601000D03*
D21*
X120650000Y-107061000D03*
X121920000Y-109601000D03*
X123190000Y-107061000D03*
X124460000Y-109601000D03*
X125730000Y-107061000D03*
X127000000Y-109601000D03*
X128270000Y-107061000D03*
X129540000Y-109601000D03*
X130810000Y-107061000D03*
X132080000Y-109601000D03*
X133350000Y-107061000D03*
X134620000Y-109601000D03*
X135890000Y-107061000D03*
X137160000Y-109601000D03*
X138430000Y-107061000D03*
X139700000Y-109601000D03*
X140970000Y-107061000D03*
X142240000Y-109601000D03*
X143510000Y-107061000D03*
D28*
X190343800Y-128016000D03*
X185343800Y-128016000D03*
D20*
X148590000Y-128651000D03*
D21*
X149860000Y-126111000D03*
X151130000Y-128651000D03*
X152400000Y-126111000D03*
X153670000Y-128651000D03*
X154940000Y-126111000D03*
X156210000Y-128651000D03*
X157480000Y-126111000D03*
X158750000Y-128651000D03*
X160020000Y-126111000D03*
X161290000Y-128651000D03*
X162560000Y-126111000D03*
X163830000Y-128651000D03*
X165100000Y-126111000D03*
X166370000Y-128651000D03*
X167640000Y-126111000D03*
X168910000Y-128651000D03*
X170180000Y-126111000D03*
X171450000Y-128651000D03*
X172720000Y-126111000D03*
D23*
X225628200Y-127838200D03*
X225628200Y-130378200D03*
D15*
X205613000Y-94314000D03*
X205613000Y-99314000D03*
D14*
X104140000Y-72644000D03*
D23*
X106680000Y-72644000D03*
X109220000Y-72644000D03*
X111760000Y-72644000D03*
X114300000Y-72644000D03*
X116840000Y-72644000D03*
X119380000Y-72644000D03*
X121920000Y-72644000D03*
X124460000Y-72644000D03*
X127000000Y-72644000D03*
X129540000Y-72644000D03*
X132080000Y-72644000D03*
X134620000Y-72644000D03*
X137160000Y-72644000D03*
X139700000Y-72644000D03*
X142240000Y-72644000D03*
X144780000Y-72644000D03*
X147320000Y-72644000D03*
X149860000Y-72644000D03*
X152400000Y-72644000D03*
X152400000Y-57404000D03*
X149860000Y-57404000D03*
X147320000Y-57404000D03*
X144780000Y-57404000D03*
X142240000Y-57404000D03*
X139700000Y-57404000D03*
X137160000Y-57404000D03*
X134620000Y-57404000D03*
X132080000Y-57404000D03*
X129540000Y-57404000D03*
X127000000Y-57404000D03*
X124460000Y-57404000D03*
X121920000Y-57404000D03*
X119380000Y-57404000D03*
X116840000Y-57404000D03*
X114300000Y-57404000D03*
X111760000Y-57404000D03*
X109220000Y-57404000D03*
X106680000Y-57404000D03*
X104140000Y-57404000D03*
D29*
X112268000Y-111633000D03*
X112268000Y-113919000D03*
D30*
X109220000Y-70739000D03*
X109220000Y-68453000D03*
X225806000Y-124968000D03*
X225806000Y-122682000D03*
D29*
X64008000Y-112141000D03*
X64008000Y-114427000D03*
D30*
X145796000Y-118110000D03*
X145796000Y-115824000D03*
D31*
X135966200Y-77241400D03*
X164515800Y-86791800D03*
D32*
X147447000Y-107823000D03*
X149733000Y-107823000D03*
X197485000Y-89408000D03*
X199771000Y-89408000D03*
D29*
X214198200Y-85775800D03*
X214198200Y-88061800D03*
D32*
X175949700Y-127762000D03*
X178235700Y-127762000D03*
D31*
X141478000Y-97536000D03*
X112649000Y-75311000D03*
D30*
X67945000Y-80899000D03*
X67945000Y-78613000D03*
D32*
X93345000Y-61214000D03*
X95631000Y-61214000D03*
D30*
X214198200Y-93091000D03*
X214198200Y-90805000D03*
D29*
X211963000Y-66040000D03*
X211963000Y-68326000D03*
D33*
X173355000Y-111887000D03*
X173355000Y-113157000D03*
X173355000Y-114427000D03*
X173355000Y-115697000D03*
X173355000Y-116967000D03*
X173355000Y-118237000D03*
X173355000Y-119507000D03*
X173355000Y-120777000D03*
X173355000Y-122047000D03*
X173355000Y-123317000D03*
X165989000Y-123317000D03*
X165989000Y-122047000D03*
X165989000Y-120777000D03*
X165989000Y-119507000D03*
X165989000Y-118237000D03*
X165989000Y-116967000D03*
X165989000Y-115697000D03*
X165989000Y-114427000D03*
X165989000Y-113157000D03*
X165989000Y-111887000D03*
D31*
X154178000Y-91567000D03*
D34*
X144399000Y-135128000D03*
D29*
X101473000Y-57658000D03*
X101473000Y-59944000D03*
D31*
X197993000Y-62230000D03*
D35*
X194691000Y-56388000D03*
X192405000Y-56388000D03*
D32*
X133985000Y-102870000D03*
X136271000Y-102870000D03*
D31*
X103911400Y-69875400D03*
D29*
X137668000Y-94488000D03*
X137668000Y-96774000D03*
D34*
X163957000Y-63500000D03*
D30*
X150241000Y-118110000D03*
X150241000Y-115824000D03*
D29*
X87376000Y-110871000D03*
X87376000Y-113157000D03*
D30*
X199771000Y-87122000D03*
X199771000Y-84836000D03*
X148005800Y-118110000D03*
X148005800Y-115824000D03*
D32*
X147447000Y-109982000D03*
X149733000Y-109982000D03*
D29*
X113538000Y-119253000D03*
X113538000Y-121539000D03*
X64008000Y-98806000D03*
X64008000Y-101092000D03*
D32*
X197358000Y-114173000D03*
X199644000Y-114173000D03*
D29*
X90043000Y-110871000D03*
X90043000Y-113157000D03*
X114681000Y-111633000D03*
X114681000Y-113919000D03*
X215163400Y-66040000D03*
X215163400Y-68326000D03*
X110998000Y-119253000D03*
X110998000Y-121539000D03*
D32*
X130810000Y-88646000D03*
X133096000Y-88646000D03*
D30*
X59055000Y-78994000D03*
X59055000Y-76708000D03*
D32*
X166497000Y-109728000D03*
X168783000Y-109728000D03*
X147447000Y-112141000D03*
X149733000Y-112141000D03*
D31*
X160655000Y-86791800D03*
D32*
X68834000Y-61976000D03*
X71120000Y-61976000D03*
D31*
X148463000Y-95631000D03*
D29*
X86868000Y-84328000D03*
X86868000Y-86614000D03*
D32*
X197358000Y-116713000D03*
X199644000Y-116713000D03*
X175949700Y-125603000D03*
X178235700Y-125603000D03*
D30*
X169418000Y-67056000D03*
X169418000Y-64770000D03*
X221361000Y-88011000D03*
X221361000Y-85725000D03*
D31*
X130784600Y-79324200D03*
X145288000Y-96901000D03*
X155702000Y-89408000D03*
D30*
X221488000Y-72792500D03*
X221488000Y-70506500D03*
D32*
X192532000Y-70358000D03*
X194818000Y-70358000D03*
D30*
X225298000Y-79994000D03*
X225298000Y-77708000D03*
D35*
X194691000Y-60579000D03*
X192405000Y-60579000D03*
D30*
X214198200Y-73431400D03*
X214198200Y-71145400D03*
X221361000Y-94996000D03*
X221361000Y-92710000D03*
%LPD*%
M02*
